<?xml version="1.0" encoding="UTF-8" standalone="no"?>
<!-- Created with Inkscape (http://www.inkscape.org/) -->

<svg
   width="180mm"
   height="180mm"
   viewBox="0 0 180 180"
   version="1.1"
   id="svg5"
   inkscape:version="1.1.1 (3bf5ae0d25, 2021-09-20)"
   sodipodi:docname="chou-cru.svg"
   xmlns:inkscape="http://www.inkscape.org/namespaces/inkscape"
   xmlns:sodipodi="http://sodipodi.sourceforge.net/DTD/sodipodi-0.dtd"
   xmlns="http://www.w3.org/2000/svg"
   xmlns:svg="http://www.w3.org/2000/svg">
  <sodipodi:namedview
     id="namedview7"
     pagecolor="#ffffff"
     bordercolor="#666666"
     borderopacity="1.0"
     inkscape:pageshadow="2"
     inkscape:pageopacity="0.0"
     inkscape:pagecheckerboard="0"
     inkscape:document-units="mm"
     showgrid="false"
     fit-margin-top="0"
     fit-margin-left="0"
     fit-margin-right="0"
     fit-margin-bottom="0"
     inkscape:zoom="0.37059484"
     inkscape:cx="33.729558"
     inkscape:cy="670.54361"
     inkscape:window-width="1920"
     inkscape:window-height="1017"
     inkscape:window-x="1912"
     inkscape:window-y="-8"
     inkscape:window-maximized="1"
     inkscape:current-layer="g4413" />
  <defs
     id="defs2" />
  <g
     inkscape:label="Calque 1"
     inkscape:groupmode="layer"
     id="layer1"
     transform="translate(-766.86837,-60.77385)">
    <g
       id="g3739"
       transform="translate(2.0036819,5.4644123)">
      <g
         id="g4413"
         transform="translate(44.264422,-32.841346)">
        <g
           id="g4731"
           transform="translate(218.46635,-192.76442)">
          <path
             style="fill:#99dea1;stroke-width:0.282222"
             d="m 603.60329,437.82859 c -1.13254,-0.15291 -3.29154,-0.61427 -4.79778,-1.02523 -3.13465,-0.85527 -4.22884,-0.89826 -10.07638,-0.39586 -8.81164,0.75707 -16.488,-0.49258 -23.14222,-3.76738 -5.26816,-2.59266 -9.2625,-6.0506 -12.88063,-11.15089 -1.03067,-1.4529 -3.42709,-5.5982 -5.32537,-9.21179 -4.84165,-9.21664 -5.43895,-9.81929 -9.30515,-9.38864 -9.31372,1.03745 -16.58442,-5.8517 -13.36284,-12.66157 0.88668,-1.87428 2.37461,-3.56198 4.64512,-5.26875 1.45991,-1.09744 1.58939,-1.27408 1.18179,-1.61236 -1.67132,-1.38707 -4.08062,-5.75951 -4.63163,-8.40555 -0.51913,-2.49299 -0.15978,-7.08498 0.74131,-9.47279 0.59535,-1.57762 0.72526,-2.34564 0.64495,-3.81284 -0.0885,-1.61716 -0.27247,-2.12435 -1.5354,-4.23333 -2.86513,-4.78454 -3.60949,-7.39723 -3.61748,-12.69716 -0.007,-4.77395 0.34323,-6.38977 2.23731,-10.31665 3.97789,-8.24709 12.02061,-13.39002 20.93986,-13.39002 2.66464,0 3.21606,-0.31594 5.02917,-2.8815 3.18267,-4.50351 7.87769,-7.52688 13.29946,-8.56424 3.74426,-0.71639 6.33579,-0.50238 10.721,0.88536 2.93596,0.92912 3.76927,0.72896 6.43763,-1.54626 4.46898,-3.81056 10.20935,-5.4286 15.68423,-4.42094 l 2.39889,0.44153 0.56445,-0.77078 c 1.35643,-1.85227 3.92327,-4.27334 5.56208,-5.2462 8.85374,-5.25597 20.33,-1.49013 24.3551,7.99192 1.18184,2.78411 1.72614,3.18387 4.94891,3.63473 4.42025,0.61839 7.56338,2.19659 10.74185,5.39361 2.49507,2.50962 4.4384,6.01031 5.01497,9.03388 0.1924,1.00895 0.47662,2.31677 0.6316,2.90628 0.37465,1.42505 1.59126,2.17126 3.54232,2.17267 2.08177,10e-4 5.55051,0.7192 7.2481,1.49966 1.91327,0.87961 3.12779,1.93585 4.07115,3.54058 0.67845,1.1541 0.7697,1.59761 0.76318,3.7097 -0.007,2.19132 -0.0922,2.55736 -0.98777,4.23023 -1.29864,2.42584 -3.70447,4.7629 -6.12998,5.95476 l -1.93541,0.95103 0.51815,1.84032 c 0.88737,3.15171 2.11172,9.26683 2.79821,13.97588 0.57569,3.94898 0.65777,5.57788 0.65416,12.98222 -0.004,9.13103 -0.27144,11.89374 -1.73099,17.91089 -2.77507,11.44053 -7.80526,19.39022 -17.31614,27.36642 -10.68355,8.95964 -21.73846,13.66449 -32.87172,13.98985 -2.01789,0.059 -4.59551,-0.0179 -5.72806,-0.17079 z"
             id="path4745" />
          <path
             style="fill:#82cb8d;stroke-width:0.282222"
             d="m 604.46728,437.84873 c -2.42827,-0.25524 -5.7741,-0.97492 -7.84516,-1.68746 -1.39426,-0.4797 -1.70057,-0.48666 -4.5528,-0.10347 -4.53613,0.60941 -11.91355,0.54102 -15.9048,-0.14744 -8.28037,-1.42831 -13.95218,-4.28196 -19.33106,-9.726 -3.63026,-3.67425 -5.72835,-6.78978 -9.47381,-14.06808 -3.03591,-5.89948 -4.25107,-7.81807 -5.60189,-8.84476 -0.64523,-0.4904 -1.10378,-0.5403 -4.2062,-0.45765 -3.89604,0.10378 -5.59543,-0.19048 -7.94798,-1.37625 -4.81028,-2.42454 -6.81884,-6.90612 -4.92178,-10.98163 0.94147,-2.02257 2.23968,-3.57417 4.26169,-5.0935 0.90633,-0.68101 1.7619,-1.33355 1.90128,-1.45009 0.13938,-0.11654 -0.39404,-0.92032 -1.18538,-1.78617 -1.65497,-1.8108 -2.94883,-4.28852 -3.61455,-6.92178 -0.65715,-2.59934 -0.40515,-6.77137 0.57523,-9.52343 1.03252,-2.89842 1.02088,-4.74334 -0.0428,-6.78189 -0.46369,-0.88869 -1.41518,-2.71769 -2.11442,-4.06446 -1.56629,-3.01674 -2.20716,-5.4524 -2.40334,-9.13398 -0.36605,-6.86957 2.33709,-13.36316 7.66039,-18.40211 1.92219,-1.81951 2.96908,-2.54775 5.30215,-3.68832 3.47157,-1.69715 5.69678,-2.27413 9.59292,-2.48736 1.60033,-0.0876 3.22288,-0.30581 3.60566,-0.48496 0.38278,-0.17914 1.26726,-1.15121 1.96551,-2.16016 3.09507,-4.47226 7.0587,-7.22243 12.47156,-8.6534 2.60831,-0.68955 7.11727,-0.60955 9.84363,0.17464 4.15559,1.19529 4.65102,1.27025 5.65283,0.85529 0.50847,-0.21062 1.58795,-0.96275 2.39883,-1.6714 1.96956,-1.72126 4.66583,-3.28857 6.90611,-4.01446 2.39651,-0.7765 7.93106,-1.01933 10.07169,-0.4419 l 1.46391,0.39489 0.86889,-1.34092 c 2.76746,-4.27092 8.0917,-7.07185 13.55996,-7.1335 1.47461,-0.0166 3.37961,0.13987 4.23333,0.34776 4.97131,1.2106 8.95951,4.51417 11.43799,9.47448 0.77171,1.54448 1.73159,3.04601 2.13305,3.33674 0.43059,0.31181 1.58798,0.6362 2.82222,0.791 6.7425,0.84561 12.35892,5.04409 14.92064,11.15373 0.46191,1.10162 0.98771,2.94312 1.16845,4.09222 0.55357,3.51935 1.29467,4.18848 4.82036,4.35224 5.80675,0.26971 10.04857,2.61547 11.09373,6.13491 0.54338,1.82978 0.53911,2.83193 -0.0202,4.74479 -0.92974,3.17955 -3.79956,6.41231 -7.03744,7.9275 -1.52631,0.71425 -1.81642,0.95728 -1.67492,1.4031 0.68682,2.16397 1.89772,7.62079 2.50071,11.26919 1.26494,7.65363 1.42735,9.69055 1.40497,17.62199 -0.018,6.37021 -0.12146,8.24489 -0.63102,11.43 -2.0206,12.63013 -6.24636,21.44166 -13.96769,29.12529 -10.24701,10.19698 -21.79342,16.28675 -33.85359,17.85496 -3.53865,0.46014 -5.03536,0.48569 -8.30685,0.14181 z m -3.14002,-18.78894 1.50257,-2.17353 0.14963,-3.83702 c 0.30872,-7.91638 -0.35899,-16.40358 -1.84383,-23.43668 -0.76637,-3.63002 -0.7003,-4.74298 0.58772,-9.90025 1.28597,-5.14903 3.72224,-10.41425 6.81447,-14.7273 3.13316,-4.37013 8.40744,-9.09987 13.08892,-11.73756 1.9958,-1.12449 2.55093,-1.74683 2.58361,-2.89642 0.0319,-1.12235 -0.86534,-1.95769 -2.10279,-1.95769 -1.69306,0 -8.41969,4.62108 -12.17943,8.36706 -5.29067,5.2713 -8.84892,10.94874 -11.33751,18.08978 l -0.90924,2.60907 -0.92509,-2.32684 c -1.08384,-2.72614 -4.2945,-9.25108 -5.70083,-11.58566 l -0.98095,-1.62842 0.68749,-2.45861 c 1.98695,-7.10579 5.74913,-13.52521 11.06066,-18.87284 2.48941,-2.50632 2.72832,-3.12822 1.70265,-4.43215 -0.44216,-0.56212 -0.83823,-0.74379 -1.62277,-0.74434 -0.94722,-5.7e-4 -1.29764,0.26428 -4.01257,3.03389 -4.32831,4.41545 -7.81088,9.94094 -10.00607,15.87572 -0.4306,1.16417 -0.87152,2.216 -0.97981,2.33741 -0.10828,0.12141 -1.09965,-0.95809 -2.20303,-2.39889 -4.1426,-5.40944 -9.53846,-10.83877 -14.54541,-14.63562 -2.39403,-1.81544 -3.32724,-2.05514 -4.45281,-1.1437 -0.86781,0.70271 -0.90809,2.44734 -0.0717,3.10661 0.31923,0.25164 1.58288,1.24898 2.80811,2.21632 1.22523,0.96733 3.35441,2.80883 4.73152,4.09222 l 2.50383,2.33343 -4.47939,0.0357 c -4.77527,0.038 -9.66528,0.77652 -11.02028,1.66435 -1.02014,0.66843 -1.37093,1.62924 -0.95842,2.62512 0.57183,1.38051 1.36324,1.53769 4.1843,0.83102 2.08412,-0.52207 3.28108,-0.62005 7.68946,-0.62945 4.79258,-0.0102 6.0509,0.11585 8.8397,0.88562 1.03004,0.28432 5.97269,7.46319 9.08343,13.19307 1.07662,1.9831 1.25181,2.47353 0.82381,2.30622 -4.94003,-1.93111 -8.94375,-2.54328 -15.35775,-2.34824 -6.40482,0.19477 -10.85797,0.98955 -17.14791,3.06047 -3.43217,1.13003 -4.24756,2.27147 -2.8719,4.02033 0.72041,0.91586 1.70665,0.95505 4.07174,0.16179 9.06027,-3.03886 19.01681,-3.82918 25.96444,-2.06098 2.14524,0.54598 5.89597,2.29063 7.58107,3.52634 1.23896,0.90854 1.3478,1.10595 2.44295,4.43062 1.55226,4.71243 3.65638,13.97841 3.26343,14.37136 -0.0594,0.0594 -0.74808,-0.21636 -1.5304,-0.6128 -4.22725,-2.14211 -9.64673,-3.66448 -14.57927,-4.09543 -4.09561,-0.35782 -6.81209,-0.0664 -7.51905,0.80668 -0.70777,0.87405 -0.66002,1.88596 0.12606,2.67204 0.60544,0.60544 0.9514,0.66201 5.00945,0.81904 5.90727,0.2286 9.98646,1.26419 15.36576,3.90093 4.39924,2.15635 3.95388,1.09647 3.93402,9.36226 -0.0156,6.49329 -0.34991,11.06875 -1.12809,15.43954 -0.14794,0.83095 0.0257,0.64263 1.09355,-1.18611 0.69818,-1.19564 1.94557,-3.15198 2.77198,-4.34743 z"
             id="path4743" />
          <path
             style="fill:#77c080;stroke-width:0.282222"
             d="m 604.8158,437.84772 c -2.70418,-0.25292 -5.98835,-0.92771 -8.17269,-1.67923 -1.52977,-0.52632 -1.73142,-0.53079 -4.89584,-0.10865 -4.55258,0.60733 -13.49792,0.39194 -17.20749,-0.41432 -7.50816,-1.63187 -12.64454,-4.37643 -17.72015,-9.46853 -3.51417,-3.5256 -5.92725,-7.12056 -9.44611,-14.07265 -3.00911,-5.945 -4.64027,-8.40947 -5.98987,-9.04989 -0.75892,-0.36014 -1.52956,-0.41634 -3.89369,-0.28399 -3.49478,0.19566 -5.45031,-0.14658 -7.93664,-1.38901 -2.22298,-1.11084 -4.02384,-2.90099 -4.94712,-4.91768 -0.91927,-2.00796 -0.811,-4.31097 0.30633,-6.51591 0.84062,-1.65888 3.2968,-4.24858 5.13547,-5.41463 l 1.22356,-0.77596 -0.99553,-0.9603 c -1.50903,-1.45562 -3.08802,-3.97824 -3.82212,-6.10628 -0.55062,-1.59614 -0.65722,-2.46546 -0.64944,-5.29624 0.008,-3.01593 0.0966,-3.61838 0.80682,-5.50334 0.53569,-1.42178 0.80454,-2.67976 0.81892,-3.8319 0.019,-1.51787 -0.11577,-1.95627 -1.1709,-3.81 -1.72407,-3.02898 -2.97395,-5.7827 -3.57676,-7.88032 -0.73111,-2.54404 -0.74597,-8.68766 -0.0273,-11.28889 1.30657,-4.72918 3.51169,-8.43409 6.9148,-11.61782 4.44757,-4.16086 8.76402,-5.9586 15.12957,-6.30123 1.98641,-0.10693 3.32697,-0.31464 3.72846,-0.5777 0.34478,-0.22591 1.12408,-1.14131 1.73177,-2.03422 5.32549,-7.82504 14.87343,-11.07163 23.80903,-8.0958 2.77836,0.92528 4.08357,0.82577 5.55081,-0.42321 4.76014,-4.05201 8.67544,-5.66764 13.71376,-5.65894 1.40319,0.002 3.2793,0.17574 4.16912,0.38514 l 1.61787,0.38073 0.8855,-1.37994 c 0.48703,-0.75896 1.63745,-2.06041 2.5565,-2.8921 6.55968,-5.93617 17.49104,-5.54054 23.38793,0.84646 1.45218,1.57288 2.24674,2.79013 3.65989,5.6069 0.54328,1.08289 1.31336,2.20241 1.7113,2.48782 0.40483,0.29036 1.64793,0.645 2.82222,0.80516 8.46088,1.15392 14.69417,7.11671 16.08516,15.38712 0.56014,3.33043 1.40624,4.08135 4.7426,4.20913 3.55173,0.13602 6.71717,1.14155 8.95375,2.84423 1.20036,0.91381 2.32282,3.09297 2.53573,4.92289 0.45895,3.94466 -2.75247,8.73666 -7.38253,11.01603 -0.99575,0.49021 -1.81045,0.90815 -1.81045,0.92877 0,0.0206 0.26364,0.98743 0.58587,2.14848 3.3203,11.96372 4.4421,27.3488 2.80594,38.48261 -2.28268,15.53329 -8.62001,26.13069 -21.40046,35.78619 -8.76481,6.62173 -17.01191,10.13279 -26.71185,11.3721 -3.59324,0.45909 -4.10823,0.46846 -7.63172,0.13892 z m -9.06596,-8.24606 c 1.40125,-4.03605 4.66592,-9.62015 7.91322,-13.53527 1.68704,-2.03398 5.01709,-5.00341 7.34017,-6.54528 3.16643,-2.10161 8.56587,-4.38578 11.4902,-4.86078 l 1.02652,-0.16674 -0.14967,-5.28734 c -0.1677,-5.92402 0.14022,-9.2552 1.23383,-13.34825 1.43843,-5.38363 3.41121,-8.91644 6.85898,-12.28292 l 2.10226,-2.0527 -0.68304,-3.45063 c -0.53143,-2.68474 -0.67781,-4.2963 -0.6595,-7.26064 0.0267,-4.32292 0.5659,-6.86521 2.10362,-9.91828 1.11218,-2.20818 1.45791,-2.66195 4.06569,-5.33622 1.55724,-1.59696 2.1274,-2.39353 2.27452,-3.17776 0.18083,-0.96389 0.088,-1.17458 -1.17431,-2.6666 -9.32475,-11.02121 -22.9073,-18.33062 -37.3716,-20.11144 -2.03847,-0.25097 -3.34489,-0.25344 -5.36223,-0.0101 -11.71007,1.4123 -23.23234,6.36661 -31.87714,13.70643 -13.57242,11.52359 -20.87666,26.32687 -21.88099,44.34546 -0.24946,4.47561 -0.11692,5.03477 1.37315,5.79275 1.36636,0.69504 3.96754,2.65668 4.98561,3.75981 1.20198,1.30241 2.08638,1.7895 4.35107,2.39639 7.55772,2.02533 12.84638,7.85793 15.99655,17.64181 0.4805,1.49232 1.12544,2.94792 1.43322,3.23466 0.30778,0.28673 1.40675,0.73187 2.44216,0.98918 2.44113,0.60665 5.99664,2.32812 8.14684,3.94446 4.05631,3.04918 9.02885,9.20433 11.80521,14.6128 0.61423,1.19654 1.19308,2.08554 1.28634,1.97556 0.0933,-0.10999 0.51146,-1.18473 0.92932,-2.38832 z"
             id="path4741" />
          <path
             style="fill:#52b863;stroke-width:0.282222"
             d="m 605.23913,437.84645 c -3.00749,-0.25016 -5.94226,-0.8316 -8.43355,-1.67085 -1.62215,-0.54646 -1.78676,-0.55005 -5.29864,-0.11529 -4.94627,0.61232 -12.90796,0.39707 -16.88892,-0.45659 -7.71924,-1.6553 -12.7393,-4.33749 -17.92111,-9.57515 -3.38686,-3.42337 -5.59687,-6.74709 -9.5377,-14.34407 -4.68357,-9.02882 -4.87152,-9.19952 -9.82775,-8.92617 -4.78306,0.2638 -8.0608,-0.82997 -10.86197,-3.62462 -3.46763,-3.45956 -3.19733,-8.18407 0.69447,-12.13855 0.81915,-0.83234 2.07349,-1.88289 2.78741,-2.33456 l 1.29805,-0.8212 -1.40497,-1.53727 c -4.08463,-4.46923 -5.16358,-10.39676 -3.07488,-16.89266 1.16205,-3.61399 1.06716,-4.47142 -0.8685,-7.84723 -2.98452,-5.20505 -3.77889,-7.94212 -3.7668,-12.9789 0.0152,-6.31861 2.18004,-11.68674 6.57651,-16.30743 4.22642,-4.44197 8.87277,-6.5557 15.31687,-6.96798 1.95718,-0.12522 3.83344,-0.3748 4.16945,-0.55463 0.33602,-0.17983 1.24766,-1.20237 2.02586,-2.2723 4.29743,-5.90842 10.1993,-9.03433 17.05728,-9.03433 2.73423,0 3.88354,0.20319 8.19583,1.44895 1.79496,0.51854 2.86548,0.14539 5.32172,-1.855 1.22576,-0.99827 3.02383,-2.2065 3.99571,-2.68496 3.6118,-1.77808 8.29011,-2.43326 12.011,-1.6821 0.8361,0.1688 1.66299,0.32755 1.83752,0.35278 0.17453,0.0252 0.89895,-0.7403 1.60982,-1.7012 3.16246,-4.27475 7.89213,-6.57847 13.50596,-6.57847 6.8189,0 12.06543,3.2811 15.04707,9.41021 0.71825,1.47646 1.62953,3.00809 2.02505,3.40362 0.70149,0.70148 1.04704,0.80606 3.84204,1.16273 7.60068,0.96991 14.20111,7.47516 15.43754,15.21491 0.54802,3.43044 1.64442,4.39298 5.00395,4.39298 3.48189,0 6.74414,1.11435 8.86106,3.02686 1.73952,1.57155 2.33388,2.94335 2.32404,5.36391 -0.007,1.7737 -0.14441,2.31616 -1.04836,4.14518 -1.24742,2.52398 -3.51378,4.72374 -6.25931,6.07536 -1.00258,0.49356 -1.82286,0.94376 -1.82286,1.00045 0,0.0567 0.31324,1.27356 0.6961,2.70417 2.40521,8.98749 3.75751,20.53772 3.41752,29.18962 -0.50124,12.75517 -3.38514,22.80358 -8.95028,31.18555 -2.13176,3.21077 -8.37139,9.61069 -12.3789,12.6969 -9.17402,7.065 -18.89611,11.21921 -28.08111,11.99894 -1.08655,0.0922 -2.42005,0.20904 -2.96333,0.25956 -0.54328,0.0505 -2.19428,-0.009 -3.66889,-0.13117 z m -9.87855,-7.18534 c 0.1923,-0.62089 1.08389,-2.67621 1.98131,-4.56738 5.19689,-10.95155 13.75494,-18.50034 23.87223,-21.05692 l 2.51057,-0.63441 -0.23307,-1.96953 c -0.3854,-3.25684 -0.0307,-11.47725 0.62075,-14.38731 1.4988,-6.69501 3.51759,-10.60758 7.49523,-14.52629 1.01957,-1.00446 1.85375,-2.06402 1.85375,-2.35456 0,-0.29055 -0.26984,-1.81821 -0.59965,-3.39482 -0.83105,-3.97276 -0.82841,-9.56844 0.006,-12.74433 0.97323,-3.70413 2.33799,-6.12975 5.00617,-8.89757 1.48276,-1.53813 2.50199,-2.86164 2.75417,-3.57641 l 0.40035,-1.13468 -1.89944,-2.22678 c -8.5986,-10.08049 -20.747,-16.87028 -34.59538,-19.33551 -4.74784,-0.84519 -13.87094,-0.91825 -18.34272,-0.14689 -12.96441,2.2363 -23.50532,7.64623 -32.46508,16.66211 -9.84735,9.90904 -15.49017,22.06568 -16.78159,36.15351 -0.31752,3.46375 -0.36334,6.82715 -0.11356,8.33664 0.16469,0.99527 0.17099,0.99911 1.75012,1.06519 3.428,0.14345 6.56983,1.65613 10.14628,4.88511 2.23176,2.01494 2.59692,2.23447 4.62825,2.78259 2.79312,0.75366 3.92122,1.22783 5.83743,2.45361 4.61953,2.95508 8.35312,8.41819 10.49362,15.35461 0.4596,1.48938 1.05875,2.90525 1.33145,3.14638 0.27269,0.24112 1.50461,0.71243 2.7376,1.04736 7.24878,1.96901 13.83209,7.96381 19.13288,17.42249 0.97215,1.73469 1.84745,3.06819 1.94511,2.96333 0.0977,-0.10486 0.33491,-0.69865 0.52721,-1.31954 z"
             id="path4739" />
          <path
             style="fill:#39ba54;stroke-width:0.282222"
             d="m 603.5458,437.68432 c -3.70981,-0.70375 -5.37489,-1.08284 -6.77521,-1.54254 -1.57967,-0.51858 -1.79696,-0.5219 -5.6886,-0.0867 -4.79112,0.53574 -11.70789,0.39806 -15.6173,-0.31085 -7.49608,-1.35931 -13.69951,-4.5715 -18.76778,-9.71813 -3.20594,-3.25551 -5.31662,-6.42456 -9.10731,-13.67404 -1.74315,-3.33367 -3.57341,-6.63352 -4.06725,-7.333 -1.53289,-2.17121 -1.88699,-2.29586 -6.56893,-2.31243 -3.62215,-0.0128 -4.3032,-0.0926 -5.79762,-0.67913 -4.6347,-1.81904 -7.03065,-4.70842 -7.03065,-8.47857 0,-3.0576 1.60659,-5.64699 5.17656,-8.34321 l 1.89178,-1.42876 -1.33304,-1.48833 c -1.47317,-1.64479 -2.73376,-3.86879 -3.53547,-6.23748 -0.39062,-1.15408 -0.52235,-2.3485 -0.5136,-4.65666 0.0104,-2.73869 0.12128,-3.43374 0.94132,-5.89939 1.22478,-3.68262 1.10629,-4.81378 -0.8441,-8.05833 -2.87561,-4.7837 -3.73243,-7.70477 -3.72881,-12.71228 0.002,-2.72216 0.14163,-4.04337 0.61159,-5.78556 2.26256,-8.3875 8.56226,-14.8599 16.52093,-16.97382 0.9467,-0.25145 3.20512,-0.54736 5.01872,-0.65756 3.9137,-0.23781 4.1462,-0.35638 6.23736,-3.18101 2.83067,-3.82352 6.19782,-6.31165 10.50297,-7.76107 2.04724,-0.68925 2.63937,-0.75925 6.35,-0.75073 3.70932,0.009 4.29027,0.0801 6.20888,0.76538 3.54477,1.26605 4.41209,1.08106 7.62,-1.62526 4.60384,-3.88397 11.75105,-5.3996 17.27316,-3.66292 0.34274,0.10779 0.70042,-0.19771 1.24472,-1.0631 1.91978,-3.05232 5.97476,-5.87944 9.83419,-6.85635 2.13311,-0.53995 5.9822,-0.54008 8.27167,-2.9e-4 5.0054,1.18013 8.66666,4.32916 11.22546,9.65499 0.7092,1.47609 1.54739,2.79648 1.9375,3.05209 0.37817,0.24778 1.55461,0.57147 2.61432,0.71932 4.73757,0.66096 8.00498,2.22571 11.12308,5.3268 3.09998,3.08307 4.66832,6.12071 5.34406,10.35069 0.53806,3.36814 1.13305,3.83626 5.20182,4.09261 4.88163,0.30757 7.94867,1.68583 9.88395,4.44164 0.80748,1.14983 0.85385,1.36389 0.85385,3.94222 0,2.48982 -0.073,2.86105 -0.84101,4.2786 -1.18462,2.18642 -3.8984,4.75659 -6.09979,5.77698 -0.99445,0.46096 -1.85858,0.87128 -1.92029,0.91183 -0.0617,0.0405 0.21534,1.31441 0.61566,2.83079 2.37347,8.99039 3.84315,21.43082 3.45977,29.28595 -0.83997,17.21031 -5.61587,29.24158 -15.29288,38.52536 -9.51926,9.13241 -19.42308,14.63717 -30.2714,16.8255 -2.08186,0.41995 -10.70959,0.77237 -12.16228,0.49679 z m -7.56958,-8.36112 c 4.73337,-12.56746 15.0178,-22.13549 26.31337,-24.48044 l 1.57647,-0.32728 -0.2118,-1.1794 c -0.41294,-2.29948 -0.21365,-11.45212 0.31143,-14.30275 1.18218,-6.41799 3.48161,-11.1899 7.19832,-14.93837 l 2.35933,-2.37948 -0.15334,-1.28941 c -0.0843,-0.70917 -0.34784,-2.3054 -0.58558,-3.54718 -0.56139,-2.93222 -0.57142,-8.31118 -0.0207,-11.08912 0.25864,-1.30458 0.95529,-3.24833 1.74041,-4.85597 1.08148,-2.21447 1.69594,-3.05921 3.53328,-4.85746 1.62203,-1.58752 2.34287,-2.52531 2.66278,-3.46419 l 0.43865,-1.28739 -1.64763,-1.89849 c -11.02372,-12.70213 -25.94427,-19.81538 -42.59356,-20.30612 -10.00452,-0.29489 -18.51201,1.49082 -27.16257,5.70138 -6.62082,3.2226 -11.34536,6.65542 -16.57199,12.04112 -4.85627,5.00405 -7.90155,9.37582 -10.8826,15.62291 -3.68926,7.73122 -5.23817,14.39519 -5.52653,23.77722 l -0.17566,5.715 h 1.47864 c 3.29564,0 7.39969,1.86866 10.54629,4.80194 2.30052,2.14456 3.10777,2.62001 5.20019,3.06283 6.74323,1.42706 12.64038,7.85879 15.5788,16.99104 1.33375,4.14513 1.07167,3.89077 5.35893,5.20113 1.93589,0.59168 4.82194,2.05087 6.64785,3.36117 3.84962,2.76253 8.69219,8.62652 11.71457,14.18544 0.85372,1.57021 1.60394,2.80596 1.66717,2.74611 0.0632,-0.0599 0.60568,-1.41176 1.20547,-3.00424 z"
             id="path4737" />
          <path
             style="fill:#2ea842;stroke-width:0.282222"
             d="m 601.71135,437.29502 c -3.64508,-0.66488 -7.47889,-1.88566 -7.47889,-2.38148 0,-0.82374 2.34842,-7.12642 3.56536,-9.56872 4.68577,-9.40392 12.1433,-16.35931 20.84687,-19.44319 2.38778,-0.84604 4.24994,-1.2269 3.41351,-0.69814 -7.35437,4.64915 -12.41791,10.18633 -16.05375,17.5554 -1.7507,3.5483 -1.98469,4.40917 -1.83235,6.7414 0.25224,3.86148 2.55983,6.7836 6.28814,7.96271 1.9045,0.60231 -5.28236,0.46432 -8.74889,-0.16798 z m -23.35822,-1.15515 c -7.14323,-0.75525 -13.73669,-3.42719 -19.05681,-7.72257 -4.41101,-3.5614 -7.41103,-7.73876 -12.01493,-16.73016 -3.07014,-5.99599 -4.16281,-7.66255 -5.59494,-8.53348 l -0.80325,-0.48848 2.55868,-0.18162 c 4.44105,-0.31523 4.99666,0.20773 9.50935,8.9507 3.41876,6.62357 5.36605,9.72926 8.10497,12.92645 5.45719,6.37027 13.46782,10.42013 22.73404,11.49343 1.47461,0.1708 3.06211,0.35497 3.52778,0.40925 0.46567,0.0543 -0.86783,0.10084 -2.96333,0.10345 -2.0955,0.003 -4.7962,-0.0995 -6.00156,-0.22697 z m 45.39882,-32.25133 c -0.38867,-1.43838 -0.50603,-8.66815 -0.18806,-11.5856 0.40492,-3.7153 1.63633,-8.63502 2.82084,-11.26982 1.25869,-2.79981 3.26916,-5.65615 5.22677,-7.42582 0.93981,-0.84958 1.7847,-1.75756 1.87753,-2.01772 0.0928,-0.26017 -0.0794,-1.5535 -0.38277,-2.87408 -0.33748,-1.46913 -0.60799,-3.94534 -0.69694,-6.37981 -0.18471,-5.05547 0.28917,-7.66273 2.05849,-11.32576 1.03825,-2.1495 1.66808,-3.01365 3.60515,-4.94636 2.20174,-2.19679 2.379,-2.46373 2.8619,-4.30992 1.21259,-4.63593 3.97518,-8.30904 7.65355,-10.17608 2.0437,-1.03733 2.33331,-1.10468 5.16074,-1.20018 5.73053,-0.19355 10.27273,1.80678 11.88339,5.23332 0.50897,1.08279 0.60351,1.70744 0.52272,3.45391 -0.1958,4.23287 -2.75106,7.56002 -7.73447,10.0709 -2.59326,1.30661 -2.85825,1.51835 -3.51055,2.805 l -0.70556,1.39171 -0.0144,9.45444 c -0.0155,10.19274 -0.16445,11.62853 -1.70971,16.48035 -3.27578,10.28532 -12.31509,18.64658 -26.26193,24.29198 -2.28523,0.92502 -2.3051,0.92768 -2.46672,0.32954 z m -90.93053,-1.44562 c -5.93381,-1.29097 -9.64554,-5.96408 -8.44846,-10.63672 0.66747,-2.60539 2.69995,-5.13256 5.75256,-7.15268 l 1.16191,-0.76891 -1.2974,-1.44302 c -1.60835,-1.78888 -2.73239,-3.72275 -3.55035,-6.10825 -0.50617,-1.47621 -0.62642,-2.44069 -0.61575,-4.93889 0.0116,-2.71694 0.12503,-3.43769 0.90868,-5.77412 1.31429,-3.91854 1.17403,-5.08312 -1.03306,-8.57781 -5.60742,-8.87872 -4.57063,-20.34577 2.55321,-28.2389 4.20207,-4.65585 9.4277,-7.09163 16.05325,-7.48279 2.42596,-0.14322 3.74787,-0.34519 4.16316,-0.63607 0.33468,-0.23441 1.22758,-1.30774 1.98423,-2.38517 2.58639,-3.68288 6.21407,-6.38466 10.61796,-7.90792 2.04637,-0.70782 2.62773,-0.78112 6.20888,-0.78294 3.58718,-0.002 4.17086,0.0714 6.3368,0.79503 3.20784,1.07171 4.58822,0.94995 6.3698,-0.56189 3.54295,-3.00653 5.96031,-4.2669 9.73007,-5.07309 2.75123,-0.58837 6.3137,-0.46053 8.78129,0.31512 0.31688,0.0996 0.87209,-0.42385 1.82226,-1.71805 5.30314,-7.22328 15.97882,-8.78291 23.47431,-3.4294 0.65944,0.47099 1.16744,0.885 1.12889,0.92001 -0.0385,0.035 -0.89559,-0.11071 -1.90453,-0.32385 -6.1932,-1.30826 -12.74664,1.01792 -16.70294,5.92881 l -1.33618,1.65858 1.95708,2.09563 c 2.29027,2.4524 3.92304,5.47642 4.67184,8.65266 0.27775,1.17816 0.43728,2.20982 0.35453,2.29257 -0.0828,0.0828 -1.47084,-0.17061 -3.08462,-0.56305 -6.03277,-1.46703 -14.64161,-1.99408 -20.58044,-1.25997 -19.6752,2.43209 -36.56636,14.2559 -45.39768,31.77838 -4.12456,8.18366 -5.90404,15.43851 -6.16425,25.13135 l -0.15302,5.69978 1.66062,0.0858 1.66062,0.0858 -2.19143,1.09404 c -2.9579,1.47669 -5.83452,4.15478 -6.99517,6.5124 -1.61389,3.27828 -1.01153,6.6554 1.65271,9.26593 1.43951,1.41048 4.05863,2.84293 5.84421,3.19631 l 1.12524,0.2227 -0.84667,0.19258 c -1.36913,0.31143 -3.82368,0.24222 -5.67216,-0.15993 z"
             id="path4735" />
          <path
             style="fill:#229a30;stroke-width:0.282222"
             d="m 623.69368,402.65056 c -0.117,-0.89253 -0.20609,-3.59128 -0.19798,-5.99723 0.0214,-6.36127 1.03242,-11.40096 3.22687,-16.08611 1.2448,-2.65766 3.6892,-6.03599 5.20255,-7.19028 1.86667,-1.42377 1.94035,-1.71148 1.24352,-4.85568 -0.75093,-3.38828 -1.01739,-8.53985 -0.58512,-11.31202 0.73872,-4.73746 2.28575,-7.79383 5.71653,-11.29381 1.96726,-2.00693 2.21282,-2.38684 2.78372,-4.3066 1.59627,-5.3678 4.46719,-8.83495 8.74647,-10.56291 1.52004,-0.61379 7.55157,-1.00683 7.22009,-0.47048 -0.10882,0.17606 -0.39483,0.32012 -0.63558,0.32012 -0.8988,0 -3.85149,1.84389 -5.34616,3.33856 -1.69187,1.69186 -3.38498,4.848 -4.20353,7.8358 -0.41574,1.51753 -0.72565,1.97199 -2.63356,3.86199 -2.48757,2.46422 -3.68886,4.30381 -4.69956,7.19667 -1.46938,4.20569 -1.62554,9.94863 -0.41819,15.37939 0.69631,3.13204 0.61772,3.43527 -1.26196,4.86897 -1.5201,1.15944 -3.95955,4.53657 -5.22026,7.22685 -2.20307,4.70123 -3.19514,9.8755 -3.2356,16.87572 l -0.0268,4.63618 -2.54,1.06989 c -1.397,0.58844 -2.62611,1.07391 -2.73136,1.07882 -0.10525,0.005 -0.28709,-0.72132 -0.40409,-1.61384 z m -93.64943,-20.16251 c -2.47176,-2.88281 -3.59667,-5.2658 -4.14075,-8.77167 -0.4095,-2.63865 -0.18893,-4.59134 0.904,-8.00326 1.2209,-3.8114 1.09195,-4.88391 -1.03496,-8.60773 -2.87574,-5.03489 -3.91907,-9.27195 -3.50038,-14.21539 0.40424,-4.77282 1.95304,-8.82621 4.83761,-12.6606 3.41496,-4.53944 9.47557,-8.09908 14.91159,-8.75818 l 1.27,-0.15398 -1.51822,0.69709 c -10.1609,4.66544 -15.8688,16.4951 -13.27985,27.52259 0.53644,2.28493 1.05807,3.4678 3.90032,8.84452 1.1144,2.10813 1.16152,3.88902 0.1774,6.70577 -1.97069,5.64055 -1.20306,11.6832 2.03153,15.99188 0.38637,0.51467 0.65791,0.96818 0.60343,1.00781 -0.0545,0.0396 -0.79756,0.33147 -1.65128,0.64854 -0.85372,0.31708 -1.75827,0.66469 -2.0101,0.77247 -0.3252,0.13917 -0.75996,-0.15636 -1.50034,-1.01986 z"
             id="path4733" />
        </g>
      </g>
    </g>
  </g>
</svg>
