<?xml version="1.0" encoding="UTF-8" standalone="no"?>
<!-- Created with Inkscape (http://www.inkscape.org/) -->

<svg
   width="64"
   height="64"
   viewBox="0 0 16.933333 16.933334"
   version="1.1"
   id="svg5"
   inkscape:version="1.1.1 (3bf5ae0d25, 2021-09-20)"
   sodipodi:docname="abricot.svg"
   xmlns:inkscape="http://www.inkscape.org/namespaces/inkscape"
   xmlns:sodipodi="http://sodipodi.sourceforge.net/DTD/sodipodi-0.dtd"
   xmlns="http://www.w3.org/2000/svg"
   xmlns:svg="http://www.w3.org/2000/svg">
  <sodipodi:namedview
     id="namedview7"
     pagecolor="#ffffff"
     bordercolor="#666666"
     borderopacity="1.0"
     inkscape:pageshadow="2"
     inkscape:pageopacity="0.0"
     inkscape:pagecheckerboard="0"
     inkscape:document-units="mm"
     showgrid="false"
     units="px"
     inkscape:zoom="4.192802"
     inkscape:cx="55.690682"
     inkscape:cy="46.150522"
     inkscape:window-width="1920"
     inkscape:window-height="1017"
     inkscape:window-x="1912"
     inkscape:window-y="-8"
     inkscape:window-maximized="1"
     inkscape:current-layer="layer1" />
  <defs
     id="defs2" />
  <g
     inkscape:label="Calque 1"
     inkscape:groupmode="layer"
     id="layer1">
    <g
       id="g2206"
       transform="matrix(1.0580163,0,0,1.0580163,-0.27331008,-0.59257917)">
      <path
         style="fill:#fda03d;stroke-width:0.00802744"
         d="M 8.0813544,15.643641 C 7.7574255,15.624744 7.3912045,15.568304 7.0658831,15.487143 5.6018987,15.121908 4.3545734,14.294088 3.532137,13.141882 3.2517646,12.749089 3.0159884,12.301363 2.8517668,11.849897 2.5507218,11.022286 2.4630116,10.12168 2.5955219,9.2187796 2.7495517,8.1692502 3.1959441,7.1392983 3.8549854,6.3128461 4.1065856,5.9973339 4.4294557,5.6711308 4.7539802,5.404571 5.1616829,5.0696897 5.6982057,4.740942 6.1467412,4.5511739 c 0.046359,-0.019614 0.08559,-0.036544 0.087181,-0.037623 0.00159,-0.00108 -0.0311,-0.039192 -0.072647,-0.084695 C 5.8823475,4.1233691 5.6758945,3.7738295 5.5102585,3.3266383 5.3416806,2.8715044 5.2293528,2.2867708 5.2082087,1.7542883 l -0.00642,-0.1615771 0.00488,-0.00519 c 0.01089,-0.011584 0.2583099,-0.044776 0.4825086,-0.064729 l 0.1163978,-0.010359 0.3291251,2.909e-4 0.3291251,2.909e-4 0.1404802,0.014184 c 0.5260467,0.053113 0.937823,0.1615394 1.3023067,0.3429153 0.261786,0.130271 0.4491491,0.2610497 0.6433798,0.4490768 l 0.095361,0.092316 0.077443,0.092315 c 0.3437163,0.4097263 0.5973183,0.964521 0.7430748,1.6255939 l 0.00355,0.016092 0.1348011,0.026219 c 0.074141,0.01442 0.1372805,0.026144 0.1403109,0.026052 0.00303,-9.15e-5 0.021875,-0.034714 0.041877,-0.076938 0.05698,-0.120287 0.1524598,-0.2848901 0.2464912,-0.4249438 l 0.08623,-0.128439 0.09252,-0.1156297 c 0.05089,-0.063596 0.141482,-0.16905 0.201321,-0.2343417 L 10.52177,3.0987749 10.631193,2.9971895 C 11.018823,2.6373238 11.4575,2.3435673 11.949784,2.114206 l 0.14517,-0.067636 0.311121,-0.1237522 c 0.343367,-0.1365788 0.411272,-0.159974 0.517553,-0.1783152 l 0.07215,-0.01245 0.0333,0.00527 c 0.01832,0.0029 0.04849,0.012426 0.06705,0.021176 l 0.03375,0.015908 0.04421,0.047754 0.04421,0.047754 0.02831,0.059659 0.02831,0.059659 0.01587,0.058618 c 0.0087,0.03224 0.01983,0.083904 0.02468,0.1148096 l 0.0088,0.056192 v 0.104812 0.1048121 l -0.01258,0.054242 -0.01258,0.054242 -0.02139,0.043678 -0.02139,0.043677 -0.04532,0.043228 -0.04532,0.043228 -0.04768,0.023844 c -0.06707,0.033538 -0.129653,0.052716 -0.30456,0.093325 -0.545629,0.1266808 -0.997172,0.317266 -1.483431,0.6261195 -0.321374,0.2041249 -0.590856,0.4214408 -0.884664,0.7134115 L 10.26875,4.342971 10.417257,4.397748 c 0.846161,0.3121053 1.55158,0.7703128 2.183464,1.4182762 0.377989,0.3876075 0.687261,0.8426306 0.976051,1.4360342 0.335378,0.6891324 0.525602,1.3549507 0.602028,2.1072031 l 0.01264,0.1244254 0.0044,0.3029451 0.0044,0.302945 -0.0095,0.154619 c -0.06585,1.076487 -0.389512,2.068615 -0.949987,2.912045 -0.160207,0.241087 -0.32277,0.447145 -0.534325,0.677283 l -0.109736,0.119376 -0.120411,0.112689 c -0.394565,0.369258 -0.805381,0.653574 -1.284391,0.888894 -0.847795,0.416493 -1.6704288,0.642805 -2.5085747,0.690127 l -0.1404803,0.0079 -0.1725899,-0.0011 c -0.094924,-5.78e-4 -0.2249691,-0.0041 -0.2889879,-0.0078 z"
         id="path2220" />
      <path
         style="fill:#fd900c;stroke-width:0.00802744"
         d="M 8.0652995,15.639648 C 7.0477608,15.569176 6.0096081,15.219138 5.1243227,14.648027 4.0394565,13.948164 3.23079,12.936349 2.8319705,11.779804 2.6879725,11.362222 2.6078204,10.987785 2.5578346,10.499156 l -0.00862,-0.08429 -0.00439,-0.28664 -0.00439,-0.2866403 0.00926,-0.1428274 C 2.608873,8.7853719 2.8761996,7.9007732 3.3412357,7.0794667 3.6917765,6.4603721 4.161014,5.9027738 4.7291176,5.4302368 5.005035,5.2007343 5.3364061,4.9750195 5.661081,4.7954261 5.7980834,4.7196434 6.0892609,4.5764812 6.1839098,4.5383687 l 0.057237,-0.023048 -0.071591,-0.077395 C 5.8897131,4.1353918 5.6770359,3.7769112 5.5102585,3.3266383 5.3416806,2.8715044 5.2293528,2.2867708 5.2082087,1.7542883 l -0.00642,-0.1615771 0.00488,-0.00519 c 0.01089,-0.011584 0.2583099,-0.044776 0.4825086,-0.064729 l 0.1163978,-0.010359 0.3291251,2.909e-4 0.3291251,2.909e-4 0.1404802,0.014184 c 0.5260467,0.053113 0.937823,0.1615394 1.3023067,0.3429153 0.261786,0.130271 0.4491491,0.2610497 0.6433798,0.4490768 l 0.095361,0.092316 0.077443,0.092315 c 0.098011,0.1168334 0.1743576,0.2237482 0.2579586,0.3612405 l 0.06589,0.1083648 0.073532,0.1485076 0.073532,0.1485077 0.049234,0.1244253 c 0.082037,0.2073282 0.14993,0.4245559 0.2026987,0.648549 0.012919,0.054839 0.025237,0.101455 0.027374,0.1035915 0.00387,0.00387 0.2730134,0.058758 0.2747927,0.056043 C 9.7483218,4.2022672 9.7654,4.1661755 9.785759,4.1228475 9.842419,4.002264 9.9375763,3.8378751 10.0329,3.6958968 l 0.08623,-0.128439 0.09252,-0.1156297 c 0.05089,-0.063596 0.141482,-0.16905 0.201321,-0.2343417 l 0.108798,-0.1187119 0.109423,-0.1015854 c 0.38763,-0.3598657 0.826307,-0.6536222 1.318591,-0.8829835 l 0.14517,-0.067636 0.311121,-0.1237522 c 0.343367,-0.1365788 0.411272,-0.159974 0.517553,-0.1783152 l 0.07215,-0.01245 0.0333,0.00527 c 0.01832,0.0029 0.04849,0.012426 0.06705,0.021176 l 0.03375,0.015908 0.04421,0.047754 0.04421,0.047754 0.02831,0.059659 0.02831,0.059659 0.01587,0.058618 c 0.0087,0.03224 0.01983,0.083904 0.02468,0.1148096 l 0.0088,0.056192 v 0.104812 0.1048121 l -0.01258,0.054242 -0.01258,0.054242 -0.02139,0.043678 -0.02139,0.043677 -0.04532,0.043228 -0.04532,0.043228 -0.04768,0.023844 c -0.06707,0.033538 -0.129653,0.052716 -0.30456,0.093325 -0.545629,0.1266808 -0.997172,0.317266 -1.483431,0.6261195 -0.319818,0.2031364 -0.589206,0.4201614 -0.883753,0.7119734 l -0.175695,0.1740616 0.005,0.00815 c 0.0028,0.00448 0.0146,0.010547 0.02629,0.01348 0.01169,0.00293 0.07945,0.027013 0.15059,0.053509 0.588234,0.2191001 1.157415,0.5424362 1.622443,0.9216658 0.669262,0.5457818 1.098193,1.0942457 1.497769,1.9151624 0.309868,0.6366153 0.499053,1.2630774 0.580596,1.922572 0.02819,0.2279641 0.03669,0.3475922 0.0422,0.5940306 l 0.0048,0.2127272 -0.0093,0.1823906 c -0.0199,0.391062 -0.06239,0.710704 -0.142737,1.073904 l -0.03641,0.164562 -0.05069,0.176604 c -0.390831,1.361614 -1.230893,2.475712 -2.38793,3.16689 -0.280037,0.167286 -0.678756,0.3559 -1.043568,0.493661 -0.5423919,0.204819 -1.05836,0.327621 -1.6215424,0.385934 l -0.1244253,0.01288 -0.3371525,0.0022 c -0.1854339,0.0012 -0.3570205,8.69e-4 -0.3813035,-8.13e-4 z M 3.9084408,11.457301 c 0.058203,-0.01727 0.1079084,-0.04337 0.1580299,-0.08299 l 0.042037,-0.03323 0.036621,-0.04969 c 0.068273,-0.09264 0.1107881,-0.197727 0.1364455,-0.337247 l 0.01355,-0.07368 -2.41e-5,-0.132453 -2.41e-5,-0.132453 -0.013831,-0.07225 C 4.273635,10.503568 4.260284,10.446828 4.251571,10.417214 L 4.235728,10.363364 4.199334,10.290664 4.16294,10.217964 4.116388,10.159384 4.069836,10.100804 4.01868,10.062354 C 3.990544,10.041204 3.950381,10.015214 3.929429,10.004594 L 3.8913334,9.9852853 3.8410082,9.97342 3.7906829,9.9615554 h -0.040137 -0.040137 l -0.051431,0.012123 -0.051431,0.012123 -0.045039,0.024006 c -0.024772,0.0132 -0.065619,0.04016 -0.090772,0.0599 l -0.045733,0.03589 -0.040195,0.05028 -0.040195,0.05028 -0.031974,0.06422 -0.031974,0.06422 -0.020395,0.07102 -0.020395,0.07102 -0.00955,0.09163 -0.00955,0.09164 0.0094,0.09824 0.0094,0.09824 0.01968,0.08028 0.01968,0.08027 0.027922,0.06899 c 0.015357,0.03795 0.043583,0.09566 0.062724,0.128263 l 0.034802,0.05927 0.068233,0.06871 0.068233,0.06871 0.047774,0.02355 0.047774,0.02355 0.044542,0.0101 0.044542,0.0101 0.069589,-0.0041 0.069589,-0.0041 0.042795,-0.0127 z M 3.8184858,9.491312 3.8777098,9.46019 3.9508938,9.387649 4.0240778,9.315108 4.0719448,9.250934 C 4.2150606,9.059064 4.3632067,8.7501126 4.4568931,8.4481453 4.4925318,8.3332756 4.5157144,8.2448349 4.5736761,8.0026223 4.6769649,7.5709946 4.8972524,7.098595 5.2362444,6.5817654 5.3468122,6.413193 5.4221966,6.3059061 5.6472778,5.9967831 5.785811,5.8065237 5.8452934,5.7178862 5.8698807,5.6650721 l 0.019825,-0.042586 8.03e-5,-0.021602 8.03e-5,-0.021602 -0.00929,-0.00574 c -0.00511,-0.00316 -0.024073,-0.00548 -0.042144,-0.00516 l -0.032857,5.78e-4 -0.080274,0.029146 C 5.4673622,5.6917583 5.1879185,5.8458802 4.9387992,6.0318857 4.3388141,6.4798659 3.8788861,7.1213715 3.6381057,7.8460873 L 3.5874319,7.9986086 3.5546867,8.1310614 C 3.5025026,8.3421428 3.4696291,8.5441553 3.4501821,8.7732566 l -0.00715,0.084288 0.00267,0.1485076 0.00267,0.1485076 0.012726,0.069289 c 0.028474,0.1550324 0.079804,0.2480921 0.1610233,0.2919259 l 0.024082,0.012997 0.056534,-0.00317 0.056534,-0.00317 z"
         id="path2218" />
      <path
         style="fill:#fd8509;stroke-width:0.00802744"
         d="M 8.0492446,15.636547 C 7.5553509,15.599666 7.1364065,15.517976 6.6444425,15.362628 6.4341483,15.296223 6.2484211,15.22057 5.9982335,15.099405 5.2848138,14.753899 4.6580422,14.285489 4.1392726,13.710132 4.0194139,13.5772 3.7801992,13.279837 3.7878,13.273224 c 0.00159,-0.0014 0.057073,0.02819 0.1232989,0.06572 0.2221335,0.125876 0.5329627,0.276242 0.752935,0.364237 0.1804535,0.07219 0.4343522,0.162299 0.5515242,0.195742 0.019868,0.0057 0.067194,0.01953 0.1051695,0.03079 0.2978002,0.08833 0.6769886,0.163132 1.006631,0.198582 l 0.1605488,0.01727 0.2973471,0.0039 0.2973472,0.0039 0.1481758,-0.0091 c 0.805873,-0.04928 1.6543455,-0.289032 2.4721199,-0.69854 0.5272116,-0.264006 0.9633806,-0.576698 1.3606626,-0.975467 0.249025,-0.249958 0.458865,-0.505996 0.651725,-0.795209 0.14451,-0.216707 0.224568,-0.354994 0.346221,-0.598044 0.334037,-0.667366 0.525659,-1.3573334 0.600829,-2.1633952 l 0.01422,-0.1525213 2.49e-4,-0.3612349 2.49e-4,-0.3612348 -0.01445,-0.1485076 C 12.578718,7.0278584 12.340047,6.2635042 11.904366,5.4619375 11.844167,5.3511816 11.722939,5.144216 11.69748,5.1087301 11.67268,5.0741626 11.643551,5.024442 11.6481,5.024442 c 0.01059,0 0.282436,0.19963 0.399327,0.2932475 0.573437,0.4592643 0.982041,0.9391844 1.330627,1.5628681 0.352095,0.6299638 0.578928,1.2338453 0.707918,1.8846447 0.0599,0.3021966 0.09056,0.5649668 0.105254,0.9019363 l 0.0092,0.2111225 -0.0091,0.2201389 c -0.0265,0.643921 -0.126545,1.194077 -0.321208,1.766358 -0.472715,1.389716 -1.445372,2.498948 -2.727418,3.110381 -0.773562,0.368927 -1.4956648,0.577114 -2.25464,0.650025 l -0.1364665,0.01311 -0.3050428,0.0026 -0.3050427,0.0026 -0.092316,-0.0069 z M 7.8405312,5.4927121 C 7.39422,5.4686632 7.0626251,5.4025317 6.7327444,5.2717811 L 6.6324013,5.2320094 6.507976,5.1678148 6.3835507,5.1036202 6.2832077,5.0369058 C 6.1891144,4.9743467 6.0265327,4.8492561 6.0043468,4.8223499 l -0.00994,-0.012057 0.134367,-0.065065 c 0.073902,-0.035786 0.158858,-0.076002 0.1887916,-0.08937 l 0.054425,-0.024305 -0.076169,-0.068793 C 6.0238562,4.317131 5.7744972,3.9530324 5.5949307,3.5393655 5.3754324,3.0337077 5.2328848,2.3757194 5.2082087,1.7542883 l -0.00642,-0.1615771 0.00488,-0.00519 c 0.01089,-0.011584 0.2583099,-0.044776 0.4825086,-0.064729 l 0.1163978,-0.010359 0.3291251,2.909e-4 0.3291251,2.909e-4 0.1404802,0.014184 c 0.5260467,0.053113 0.937823,0.1615394 1.3023067,0.3429153 0.261786,0.130271 0.4491491,0.2610497 0.6433798,0.4490768 l 0.095361,0.092316 0.077443,0.092315 c 0.098011,0.1168334 0.1743576,0.2237482 0.2579586,0.3612405 l 0.06589,0.1083648 0.073532,0.1485076 0.073532,0.1485077 0.049234,0.1244253 C 9.3902509,3.7671568 9.506516,4.2357933 9.5511338,4.6371179 l 0.01004,0.090309 h 0.00562 c 0.00309,0 0.00787,-0.014082 0.01062,-0.031293 0.00744,-0.046558 0.064818,-0.2334401 0.1021957,-0.3328837 0.018033,-0.047976 0.060785,-0.1455098 0.095005,-0.2167409 0.160181,-0.3334339 0.3629075,-0.6284627 0.6383635,-0.9290192 l 0.108798,-0.1187119 0.109423,-0.1015854 c 0.38763,-0.3598657 0.826307,-0.6536222 1.318591,-0.8829835 l 0.14517,-0.067636 0.311121,-0.1237522 c 0.343367,-0.1365788 0.411272,-0.159974 0.517553,-0.1783152 l 0.07215,-0.01245 0.0333,0.00527 c 0.01832,0.0029 0.04849,0.012426 0.06705,0.021176 l 0.03375,0.015908 0.04421,0.047754 0.04421,0.047754 0.02831,0.059659 0.02831,0.059659 0.01587,0.058618 c 0.0087,0.03224 0.01983,0.083904 0.02468,0.1148096 l 0.0088,0.056192 v 0.104812 0.1048121 l -0.01258,0.054242 -0.01258,0.054242 -0.02139,0.043678 -0.02139,0.043677 -0.04532,0.043228 -0.04532,0.043228 -0.04768,0.023844 c -0.06707,0.033538 -0.129653,0.052716 -0.30456,0.093325 C 12.425047,2.9181206 12.132028,3.0225221 11.798,3.1897479 11.300745,3.4386905 10.876966,3.742034 10.474493,4.1371225 L 10.327065,4.2819037 10.213267,4.4143565 C 10.041574,4.6141948 9.9148002,4.7766187 9.8144797,4.9252872 l -0.039177,0.058058 0.038051,0.00502 c 0.020928,0.00276 0.079593,0.01513 0.1303667,0.02749 l 0.092315,0.022474 0.06183,0.025759 0.06183,0.025759 0.03648,0.027853 0.03648,0.027853 0.01207,0.023336 0.01207,0.023336 v 0.02554 0.02554 l -0.01618,0.026179 c -0.05194,0.084047 -0.233727,0.1522411 -0.4935616,0.1851549 L 9.6346642,5.4688712 9.4660879,5.4685879 9.2975117,5.4683045 9.193155,5.4545734 C 9.1357587,5.4470213 9.0567578,5.4334463 9.0175972,5.4244067 l -0.071201,-0.016436 -0.029142,0.00499 c -0.3758802,0.064391 -0.7910577,0.095142 -1.076723,0.07975 z M 8.5088156,5.3238195 c -0.00993,-0.00191 -0.02619,-0.00191 -0.036124,0 l -0.018062,0.00348 h 0.036124 0.036124 z m 0.3532074,0 c -0.00993,-0.00191 -0.02619,-0.00191 -0.036124,0 l -0.018062,0.00348 h 0.036124 0.036124 z m -0.5298111,-0.00768 c -0.00552,-0.00223 -0.01455,-0.00223 -0.020069,0 l -0.010034,0.00405 h 0.020069 0.020069 z m 0.6983874,0 c -0.00552,-0.00223 -0.01455,-0.00223 -0.020069,0 l -0.010034,0.00405 h 0.020069 0.020069 z m -0.806925,-0.00756 -0.00485,-0.00485 -0.010536,0.00422 -0.010536,0.00422 0.015386,6.333e-4 0.015386,6.334e-4 -0.00485,-0.00485 z m 0.9231557,0 -0.00485,-0.00485 -0.010536,0.00422 -0.010536,0.00422 0.015386,6.333e-4 0.015386,6.334e-4 -0.00485,-0.00485 z m 0.088302,-0.00803 -0.00485,-0.00485 -0.010536,0.00422 -0.010536,0.00422 0.015386,6.334e-4 0.015386,6.333e-4 -0.00485,-0.00485 z"
         id="path2216" />
      <path
         style="fill:#8dbd3d;stroke-width:0.00802744"
         d="M 8.4039602,5.3209762 C 7.950177,5.2986285 7.5299407,5.2186604 7.1756711,5.0872413 6.8880672,4.9805522 6.6343586,4.8394575 6.4116467,4.6623453 L 6.3273586,4.5953149 6.2228251,4.4907877 6.1182916,4.3862604 6.0366309,4.2842923 5.9549703,4.1823241 5.8795818,4.0675514 C 5.7636472,3.8910504 5.6811133,3.7379043 5.5949307,3.5393655 5.3754324,3.0337077 5.2328848,2.3757194 5.2082087,1.7542883 l -0.00642,-0.1615771 0.00488,-0.00519 c 0.01089,-0.011584 0.2583099,-0.044776 0.4825086,-0.064729 l 0.1163978,-0.010359 0.3291251,2.909e-4 0.3291251,2.909e-4 0.1404802,0.014184 c 0.5260467,0.053113 0.937823,0.1615394 1.3023067,0.3429153 0.261786,0.130271 0.4491491,0.2610497 0.6433798,0.4490768 l 0.095361,0.092316 0.077443,0.092315 c 0.098011,0.1168334 0.1743576,0.2237482 0.2579586,0.3612405 l 0.06589,0.1083648 0.073532,0.1485076 0.073532,0.1485077 0.049234,0.1244253 c 0.1471655,0.3719231 0.2635161,0.8407311 0.3078076,1.2402396 0.00538,0.048566 0.012249,0.091061 0.015255,0.094434 l 0.00547,0.00613 0.014333,-0.062324 c 0.00788,-0.034278 0.035366,-0.1258504 0.061074,-0.2034937 L 9.6936183,4.3286895 9.7470046,4.2075317 9.800391,4.0863739 9.8685165,3.9633842 9.936642,3.8403945 10.027847,3.703928 l 0.09121,-0.1364665 0.09256,-0.1156297 c 0.05091,-0.063596 0.141523,-0.16905 0.201362,-0.2343417 L 10.521777,3.0987782 10.6312,2.9971928 c 0.38763,-0.3598657 0.826307,-0.6536222 1.318591,-0.8829835 l 0.14517,-0.067636 0.311121,-0.1237522 c 0.343367,-0.1365788 0.411272,-0.159974 0.517553,-0.1783152 l 0.07215,-0.01245 0.0333,0.00527 c 0.01832,0.0029 0.04849,0.012426 0.06705,0.021176 l 0.03375,0.015908 0.04421,0.047754 0.04421,0.047754 0.02831,0.059659 0.02831,0.059659 0.01587,0.058618 c 0.0087,0.03224 0.01983,0.083904 0.02468,0.1148096 l 0.0088,0.056192 v 0.104812 0.1048121 l -0.01258,0.054242 -0.01258,0.054242 -0.02139,0.043678 -0.02139,0.043677 -0.04532,0.043228 -0.04532,0.043228 -0.04768,0.023844 c -0.06707,0.033538 -0.129653,0.052716 -0.30456,0.093325 C 12.425047,2.9181206 12.132028,3.0225221 11.798,3.1897479 11.050547,3.5639482 10.402991,4.1125498 9.9065695,4.7921449 9.815088,4.917382 9.6989104,5.0939267 9.6303717,5.2118578 l -0.050605,0.087073 -0.018227,0.0083 -0.018227,0.0083 -0.012674,-0.00486 -0.012674,-0.00486 -0.00795,-0.020903 -0.00795,-0.020903 -0.022035,0.00431 C 9.2497988,5.3133281 8.7476073,5.337903 8.4039008,5.3209762 Z"
         id="path2214" />
      <path
         style="fill:#7aaf24;stroke-width:0.00802744"
         d="m 8.5282078,5.3245215 c -7.321e-4,-5.218e-4 -0.061084,-0.00333 -0.1341165,-0.00625 -0.073032,-0.00291 -0.1416669,-0.0067 -0.1525214,-0.00842 -0.010854,-0.00171 -0.046828,-0.00544 -0.079941,-0.00827 C 7.7043994,5.2624524 7.2351166,5.1359659 6.8762518,4.9551374 6.6761924,4.8543295 6.5549647,4.776096 6.3915781,4.6423562 l -0.080274,-0.065709 -0.089542,-0.09118 C 6.0646572,4.3254883 5.9555597,4.1873498 5.8394959,4.0014449 L 5.774031,3.8965866 5.6927724,3.7360378 5.6115138,3.575489 5.5608367,3.4470499 C 5.4210599,3.092791 5.3282512,2.7408813 5.2686816,2.3392631 5.2340029,2.1054601 5.2075306,1.8072961 5.2075306,1.6505062 v -0.062891 l 0.018062,0.00563 c 0.046642,0.014551 0.4940766,0.2344771 0.6482158,0.3186151 0.024283,0.013255 0.067631,0.036928 0.096329,0.052607 1.0456722,0.5712844 2.0270579,1.3656444 2.8560249,2.3117431 0.2050299,0.2340003 0.3804142,0.4502185 0.5703807,0.7031798 l 0.111713,0.1487582 0.00561,-0.041821 c 0.00309,-0.023002 0.0074,-0.058077 0.00959,-0.077945 0.00218,-0.019868 0.010807,-0.079623 0.01916,-0.1327885 L 9.557804,4.7789289 9.589812,4.658853 C 9.6521185,4.4251125 9.7079445,4.280651 9.8223417,4.0571354 L 9.9004035,3.904614 9.9615753,3.8071683 C 10.372321,3.1528532 11.0069,2.592359 11.782005,2.1992663 c 0.183031,-0.092824 0.345146,-0.1657631 0.506515,-0.2278931 0.06359,-0.024482 0.175215,-0.068711 0.248064,-0.098287 0.158662,-0.064416 0.246979,-0.095207 0.333139,-0.1161469 l 0.06422,-0.015608 0.06064,-5.62e-5 0.06064,-5.62e-5 0.04154,0.020698 0.04154,0.020698 0.03501,0.038936 0.03501,0.038936 0.0286,0.054757 c 0.03531,0.067601 0.05911,0.1439092 0.07452,0.2389264 l 0.01179,0.072709 -1.04e-4,0.096329 -1.05e-4,0.096329 -0.01163,0.054866 -0.01163,0.054866 -0.01991,0.043492 -0.01991,0.043492 -0.04079,0.043126 -0.04079,0.043126 -0.04594,0.0244 c -0.06465,0.034334 -0.126139,0.053593 -0.301522,0.094431 -0.396722,0.092379 -0.666457,0.1867727 -0.996701,0.3487963 -0.84631,0.4152144 -1.55783,1.04522 -2.0781252,1.8400455 -0.041262,0.063034 -0.097794,0.1537905 -0.1256271,0.2016806 l -0.050605,0.087073 -0.018227,0.0083 -0.018227,0.0083 -0.012674,-0.00486 -0.012674,-0.00486 -0.00785,-0.020649 -0.00785,-0.020649 -0.026146,0.00425 c -0.027343,0.00444 -0.1978325,0.024701 -0.2669687,0.031721 -0.1076146,0.010928 -0.3470483,0.022055 -0.5043983,0.023441 -0.0964,8.492e-4 -0.175872,0.00112 -0.1766037,5.94e-4 z"
         id="path2212" />
      <path
         style="fill:#5a5245;stroke-width:0.00802744"
         d="m 9.5172423,5.3001627 -0.011017,-0.013267 1.485e-4,-0.069014 1.486e-4,-0.069014 0.018183,-0.1349935 c 0.023407,-0.1737802 0.036378,-0.2427581 0.06971,-0.3707353 0.1855115,-0.712253 0.7031526,-1.4277801 1.4249826,-1.9697293 0.377395,-0.2833475 0.825555,-0.5312547 1.269123,-0.702036 0.06359,-0.024482 0.175215,-0.068711 0.248064,-0.098287 0.158662,-0.064416 0.246978,-0.095207 0.333138,-0.1161469 l 0.06422,-0.015608 0.06064,-5.62e-5 0.06064,-5.62e-5 0.04154,0.020698 0.04153,0.020698 0.03501,0.038936 0.03501,0.038936 0.0286,0.054757 c 0.03531,0.067601 0.05911,0.1439092 0.07452,0.2389264 l 0.01179,0.072709 -1.05e-4,0.096329 -1.04e-4,0.096329 -0.01163,0.054866 -0.01162,0.054866 -0.01991,0.043492 -0.01991,0.043492 -0.04079,0.043126 -0.04079,0.043126 -0.04594,0.0244 c -0.06465,0.034334 -0.12614,0.053593 -0.301522,0.094431 C 12.434179,2.9137157 12.164444,3.0081094 11.8342,3.170133 10.927997,3.6147225 10.160956,4.3205317 9.648888,5.180977 9.5810885,5.2949029 9.566109,5.3134298 9.5417973,5.3134298 h -0.013538 z"
         id="path2210" />
      <path
         style="fill:#514937;stroke-width:0.00802744"
         d="m 9.5185487,5.2979027 -0.00831,-0.015527 V 5.2190515 5.1557275 L 9.5300711,5.0037898 C 9.5745128,4.6633166 9.6451281,4.4249961 9.7910241,4.1230969 10.188001,3.3016425 10.971992,2.5750686 11.957761,2.1150463 l 0.131607,-0.061416 0.309903,-0.1230922 c 0.331273,-0.13158 0.406271,-0.1584421 0.494602,-0.1771525 l 0.05612,-0.011888 0.04817,-6.42e-5 0.04816,-6.42e-5 0.04175,0.019439 0.04175,0.019438 0.03619,0.037775 0.03619,0.037775 0.03169,0.061113 0.03168,0.061113 0.01683,0.056192 c 0.0093,0.030906 0.02222,0.092316 0.0288,0.1364665 l 0.01196,0.080274 -2.32e-4,0.072247 -2.33e-4,0.072247 -0.01114,0.06251 -0.01114,0.06251 -0.02437,0.052084 -0.02437,0.052084 -0.04106,0.039993 -0.04106,0.039993 -0.06563,0.031473 -0.06563,0.031472 -0.06422,0.016525 c -0.03532,0.00909 -0.145865,0.036457 -0.245653,0.060818 l -0.181432,0.044293 -0.139666,0.044987 C 11.997206,3.0662933 11.603384,3.2617696 11.20858,3.5291983 10.926029,3.7205896 10.720409,3.8890891 10.466593,4.1372341 L 10.343257,4.2578214 10.233669,4.3822467 C 9.9944059,4.6539074 9.8000477,4.9180839 9.6430801,5.1849908 c -0.02986,0.050774 -0.061757,0.1004433 -0.070883,0.1103773 l -0.016592,0.018062 H 9.5412318 9.5268586 Z M 10.08592,3.8674279 c 0.01523,-0.00941 0.129448,-0.098267 0.253812,-0.1974499 0.602395,-0.4804252 0.982663,-0.7467332 1.398122,-0.9791287 0.211168,-0.1181215 0.473274,-0.2398129 0.637958,-0.2961929 l 0.06801,-0.023284 0.04237,-0.040592 0.04237,-0.040591 V 2.257112 2.2240341 l -0.02855,-0.023531 -0.02855,-0.023531 -0.03233,-0.00969 c -0.01778,-0.00533 -0.05684,-0.011741 -0.0868,-0.014253 l -0.05448,-0.00457 -0.06564,0.0096 c -0.14389,0.02104 -0.302495,0.076152 -0.510416,0.1773604 -0.273847,0.1332986 -0.543425,0.3154462 -0.825264,0.5576117 -0.303036,0.2603787 -0.648999,0.6441501 -0.805711,0.8937638 l -0.04275,0.068087 v 0.01483 c 0,0.01886 0.004,0.018617 0.03784,-0.00229 z"
         id="path2208" />
    </g>
  </g>
</svg>
