<?xml version="1.0" encoding="UTF-8" standalone="no"?>
<!-- Created with Inkscape (http://www.inkscape.org/) -->

<svg
   width="64"
   height="64"
   viewBox="0 0 16.933333 16.933333"
   version="1.1"
   id="svg5"
   inkscape:version="1.2 (dc2aedaf03, 2022-05-15)"
   sodipodi:docname="ail_en_poudre.svg"
   xmlns:inkscape="http://www.inkscape.org/namespaces/inkscape"
   xmlns:sodipodi="http://sodipodi.sourceforge.net/DTD/sodipodi-0.dtd"
   xmlns="http://www.w3.org/2000/svg"
   xmlns:svg="http://www.w3.org/2000/svg">
  <sodipodi:namedview
     id="namedview7"
     pagecolor="#ffffff"
     bordercolor="#999999"
     borderopacity="1"
     inkscape:pageshadow="0"
     inkscape:pageopacity="0"
     inkscape:pagecheckerboard="0"
     inkscape:document-units="mm"
     showgrid="false"
     width="64mm"
     units="px"
     inkscape:zoom="8.3049731"
     inkscape:cx="42.023014"
     inkscape:cy="46.237356"
     inkscape:window-width="1920"
     inkscape:window-height="1017"
     inkscape:window-x="1912"
     inkscape:window-y="-8"
     inkscape:window-maximized="1"
     inkscape:current-layer="g2394"
     inkscape:showpageshadow="2"
     inkscape:deskcolor="#d1d1d1" />
  <defs
     id="defs2" />
  <g
     inkscape:label="Calque 1"
     inkscape:groupmode="layer"
     id="layer1">
    <g
       id="g977"
       transform="translate(0.08745663,0.03512701)">
      <g
         id="g2394"
         transform="translate(0.06371691,0.19115049)">
        <path
           style="fill:#f2ecd5;stroke-width:0.0288364"
           d="M 5.287521,15.666695 C 4.885504,15.573533 4.4076721,15.243262 4.4911568,14.779007 4.4951959,12.102949 4.4593756,9.4264597 4.4991847,6.7507456 4.4347886,6.0098261 5.0817572,5.5625014 5.5743693,5.1430899 6.0880261,4.6134159 6.0445481,3.8565385 6.0343872,3.1759199 6.0322301,2.9670226 6.1068209,2.6814125 5.7989324,2.7781069 5.3366158,2.860858 4.7405971,2.6515664 4.7981381,2.0844208 4.6956945,1.553735 4.9189285,0.81382186 5.5965058,0.97447241 c 2.0546131,-0.0219373 4.109404,-0.009793 6.1641022,-0.0129504 0.236036,0.10399788 0.501302,0.29714358 0.434468,0.58662428 -0.01995,0.3997323 0.146444,0.9299413 -0.294923,1.1544895 -0.243291,0.1854087 -0.75786,-0.043278 -0.909262,0.1428462 0.0374,0.5857432 -0.07188,1.1977276 0.123212,1.7595427 0.239374,0.7493846 1.171395,0.962509 1.36989,1.7337649 0.113034,0.3341407 0.02527,0.7038343 0.05297,1.0530836 0,2.5520749 0,5.1041498 0,7.6562248 -0.260203,0.619145 -1.009933,0.699848 -1.597141,0.671923 -1.8225076,-0.0013 -3.6461731,0.02702 -5.4679513,-0.022 l -0.1054494,-0.01357 -0.078926,-0.01776 z"
           id="path2402" />
        <path
           style="fill:#d5d4ca;stroke-width:0.0288364"
           d="M 5.3999866,15.671375 C 4.9299293,15.519402 4.6422419,15.218566 4.5224045,14.753685 4.4809672,14.592938 4.4770319,14.16071 4.4839422,10.529154 l 0.0077,-4.0454636 0.07607,-0.2080839 C 4.6768121,5.9771642 4.8650549,5.7289323 5.1324608,5.5308813 5.5778705,5.2009939 5.7978486,4.9296989 5.9426716,4.5316627 6.0173172,4.3265036 6.0195869,4.3006708 6.028953,3.5495879 L 6.0385725,2.7782145 5.6976523,2.778053 C 5.5101462,2.7779636 5.3097884,2.7648525 5.2524127,2.7489151 5.0977046,2.7059415 4.9621115,2.6035684 4.8890543,2.474579 4.8290019,2.3685508 4.8241724,2.3242917 4.8237332,1.8759279 4.823318,1.4517075 4.8302422,1.3780813 4.8796672,1.2812002 4.9503077,1.1427335 5.082299,1.0300151 5.2210589,0.98965746 5.2953944,0.96803794 6.3104062,0.96122494 8.5575712,0.96726265 l 3.2296758,0.008678 0.122158,0.069969 c 0.06719,0.038483 0.158022,0.1216791 0.201855,0.1848804 0.07813,0.1126456 0.07987,0.1243428 0.08843,0.5932678 0.0083,0.4520883 0.0051,0.4853909 -0.05767,0.606449 -0.03652,0.070451 -0.116225,0.1677735 -0.177117,0.2162728 l -0.110711,0.088181 -0.43718,0.00917 -0.43718,0.00917 0.0017,0.7261557 c 0.0019,0.8066981 0.01673,0.9014255 0.199511,1.2759346 0.116733,0.2391774 0.386322,0.5455063 0.619339,0.7037455 0.328261,0.2229175 0.517289,0.4609658 0.661993,0.833666 l 0.07411,0.1908846 0.0061,1.6580924 0.0061,1.6580923 -0.06444,-0.2318219 C 12.399904,9.2645284 12.291376,9.0800641 12.172863,9.0387502 12.055694,8.9979046 11.933053,9.0300569 11.56743,9.1974734 11.414811,9.267357 11.216791,9.339225 11.127388,9.3571797 10.892205,9.4044111 10.48568,9.3505081 10.017827,9.2100579 9.3782528,9.0180572 9.2475775,8.997021 8.7017546,8.9981955 8.1385343,8.9994067 8.0273672,9.0200126 7.648528,9.1934127 7.1394896,9.4264073 6.9245815,9.4499706 6.5012218,9.3192083 6.3999983,9.2879433 6.3099099,9.2696325 6.3010254,9.2785169 c -0.034577,0.034577 -0.040478,1.8089981 -0.011132,3.3473241 0.024807,1.300367 0.039614,1.648111 0.076036,1.785698 0.1586979,0.599491 0.6896018,1.036386 1.5284062,1.257764 l 0.2018547,0.05328 -1.2688011,2.8e-5 c -1.1374231,2.9e-5 -1.2852234,-0.0053 -1.4274012,-0.05124 z"
           id="path2400" />
        <path
           style="fill:#9ed1e1;stroke-width:0.0288364"
           d="M 12.485326,9.5440493 C 12.420259,9.2945062 12.3446,9.1452455 12.242224,9.0644607 12.129651,8.9756285 11.99329,8.9976747 11.626801,9.1639592 11.060827,9.420755 10.800744,9.4251647 9.9927706,9.1916635 9.3406144,9.0031926 9.1030057,8.9687213 8.5719894,8.9855418 8.0831304,9.0010267 7.9858269,9.0247841 7.4770481,9.25288 7.291032,9.3362745 7.1839236,9.3655256 7.0279092,9.3755378 6.7620807,9.3925977 6.6271249,9.3615949 6.0427578,9.1492241 5.4348896,8.9283126 5.3252672,8.9138947 5.0953011,9.0246105 4.8710275,9.1325858 4.5882506,9.4109579 4.5274641,9.5836022 4.4846646,9.70516 4.481663,9.6176297 4.4799994,8.1994555 4.478053,6.5390623 4.4849682,6.4529502 4.6483145,6.1038872 4.7465114,5.8940457 4.9622736,5.6527405 5.2125501,5.4728556 5.5921771,5.2000005 5.8316913,4.8804702 5.9679135,4.4651432 6.0395495,4.2467329 6.0442697,4.1956911 6.0565837,3.5063333 l 0.013006,-0.7281188 h 2.4450316 2.4450317 l 0.0136,0.7281188 c 0.01517,0.8122986 0.03444,0.9250699 0.21784,1.2751064 0.118325,0.2258319 0.370176,0.5103029 0.592165,0.6688624 0.352033,0.2514455 0.574864,0.5339856 0.688279,0.8727082 0.06124,0.1829092 0.0638,0.2377733 0.0732,1.5736632 0.0054,0.7612806 0.0058,1.4879576 0.001,1.6148377 l -0.0087,0.2306911 -0.05167,-0.198153 z M 6.4380966,1.85545 V 0.96152198 H 6.6543695 6.8706424 V 1.85545 2.7493781 H 6.6543695 6.4380966 Z m 1.8743653,0.8362553 c 0,-0.071275 0.00512,-0.07128 0.1218577,-1.067e-4 l 0.094415,0.057565 -0.1081365,1.067e-4 C 8.3316502,2.749359 8.3124619,2.7391443 8.3124619,2.6917053 Z"
           id="path2398" />
        <path
           style="fill:#8ebdcb;stroke-width:0.0288364"
           d="M 4.5060814,8.0821347 C 4.5060617,6.7451119 4.5123103,6.5163534 4.5525555,6.3807878 4.6609763,6.0155709 4.8710012,5.7206271 5.1658276,5.5195527 5.5682974,5.2450643 5.8177215,4.9281899 5.9622913,4.5077051 6.0450696,4.2669426 6.0464898,4.2521873 6.0572847,3.5207515 l 0.010959,-0.742537 H 8.5168265 10.96541 V 3.0665784 3.3549422 H 9.2679522 7.570495 L 7.554682,4.0974792 C 7.5287482,5.3153475 7.3821149,5.9417661 6.985988,6.526945 6.6198625,7.0678043 6.4177205,7.7937206 6.3248486,8.9011772 6.3104382,9.0730141 6.2936975,9.2185583 6.2876468,9.2246091 6.2815961,9.2306598 6.1540115,9.1890163 6.0041254,9.1320679 5.6632346,9.0025484 5.4721924,8.9499828 5.3407665,8.9495439 5.1178586,8.9488 4.6898384,9.2556705 4.5666418,9.5045565 L 4.5061041,9.6268568 Z M 6.4380966,1.85545 V 0.96152198 H 6.6543695 6.8706424 V 1.85545 2.7493781 H 6.6543695 6.4380966 Z m 1.8743653,0.8362553 c 0,-0.071275 0.00512,-0.07128 0.1218577,-1.067e-4 l 0.094415,0.057565 -0.1081365,1.067e-4 C 8.3316502,2.749359 8.3124619,2.7391443 8.3124619,2.6917053 Z"
           id="path2396" />
      </g>
    </g>
  </g>
</svg>
