<?xml version="1.0" encoding="UTF-8" standalone="no"?>
<!-- Created with Inkscape (http://www.inkscape.org/) -->

<svg
   width="64"
   height="64"
   viewBox="0 0 16.933333 16.933333"
   version="1.1"
   id="svg5"
   inkscape:version="1.2 (dc2aedaf03, 2022-05-15)"
   sodipodi:docname="aillet.svg"
   xmlns:inkscape="http://www.inkscape.org/namespaces/inkscape"
   xmlns:sodipodi="http://sodipodi.sourceforge.net/DTD/sodipodi-0.dtd"
   xmlns="http://www.w3.org/2000/svg"
   xmlns:svg="http://www.w3.org/2000/svg">
  <sodipodi:namedview
     id="namedview7"
     pagecolor="#ffffff"
     bordercolor="#999999"
     borderopacity="1"
     inkscape:pageshadow="0"
     inkscape:pageopacity="0"
     inkscape:pagecheckerboard="0"
     inkscape:document-units="mm"
     showgrid="false"
     width="64mm"
     units="px"
     inkscape:zoom="16.609946"
     inkscape:cx="38.711745"
     inkscape:cy="35.82191"
     inkscape:window-width="1920"
     inkscape:window-height="1017"
     inkscape:window-x="1912"
     inkscape:window-y="-8"
     inkscape:window-maximized="1"
     inkscape:current-layer="g3606"
     inkscape:showpageshadow="2"
     inkscape:deskcolor="#d1d1d1" />
  <defs
     id="defs2" />
  <g
     inkscape:label="Calque 1"
     inkscape:groupmode="layer"
     id="layer1">
    <g
       id="g977"
       transform="translate(0.08745663,0.03512701)">
      <g
         id="g3606"
         transform="matrix(1.1470474,0,0,1.1470474,-1.6735227,-1.1898388)">
        <path
           style="fill:#e4efb1;stroke-width:0.0038784"
           d="M 7.7303954,15.133298 C 7.3777041,15.014716 6.879917,14.96585 6.9192636,14.469146 6.9769759,13.524831 7.4041996,12.653737 7.6706806,11.756415 8.1943294,11.774786 8.0753677,7.7800546 8.0753677,7.7800546 7.7929692,8.3384917 7.6570356,8.9448897 7.5058813,9.5480477 7.1696199,10.828784 6.8478923,12.134711 6.8900951,13.4692 6.9477185,13.847901 6.6779977,14.458792 6.2183642,14.261269 5.5657574,14.332007 5.4437036,13.658986 5.5000455,13.145794 5.5715168,11.97848 6.0333022,10.883819 6.3042818,9.7560101 6.4829453,9.0017899 6.7837803,8.2752767 6.8964701,7.5074358 8.0419955,5.1242019 10.123875,7.3251295 9.6884689,9.2519732 9.3369524,10.574235 8.8898107,11.878747 8.6795556,13.23356 8.5849786,13.791655 8.6368225,14.413455 8.3151077,14.903944 8.1486763,15.06409 7.9688255,15.172121 7.7303954,15.133298 Z M 6.8560767,12.8218 c -0.012099,-0.0016 0.00645,0.01847 0,0 z"
           id="path3614"
           sodipodi:nodetypes="csccsscscccccccc" />
        <path
           style="fill:#c6d87c;stroke-width:0.0038784"
           d="M 7.6142586,9.125873 C 7.6924211,8.6433077 7.7421964,8.1022182 7.472585,7.6683676 7.1265482,7.4009407 6.871398,7.9735079 6.7543125,8.2335148 6.6032173,8.6220746 6.9005886,7.7918114 6.8858736,7.6152208 6.9712613,7.1347692 6.8168432,6.5765934 6.3587718,6.3387485 5.936818,6.0646457 5.3878812,6.0458253 4.9965012,5.7235967 5.4281059,5.3804276 10.423432,6.6988683 10.371286,6.9712557 10.092004,7.4284739 9.9853726,7.9603442 9.9008932,8.4811625 9.8356661,8.6139401 9.7284369,9.3987722 9.7009424,8.8579265 9.6422122,8.4808293 9.3055877,7.922416 8.8574889,8.1508464 8.6857323,8.2068141 8.4588892,8.6770899 8.5746675,8.2728496 8.6618024,7.7863327 8.7655045,7.294692 8.7347392,6.7975802 8.3430418,7.0216213 8.2224893,7.4985387 8.0327213,7.8773736 7.8860642,8.2141314 7.732906,8.5468424 7.6795821,8.913399 7.6517976,8.9736056 7.6614291,9.0830412 7.6142586,9.125873 Z M 6.6769074,8.4413203 c 0.0057,-0.038756 0.017521,-0.022834 0,0 z"
           id="path3612"
           sodipodi:nodetypes="ccccccccccccccccc" />
        <path
           style="fill:#43913c;stroke-width:0.0038784"
           d="M 7.6148904,9.1224399 C 7.6626252,8.5593301 7.8636558,7.9408977 7.5773824,7.4104927 7.3004119,7.105925 7.2326884,6.6819418 6.9976154,6.3553128 6.7120888,6.1187326 6.3705079,5.7424541 5.9671206,5.8196013 5.803001,5.9699392 5.753351,6.1665125 5.5078736,5.9890541 5.1865226,5.9179523 4.7435523,5.6608762 5.0827928,5.3121257 5.1807566,5.0688401 5.3148097,4.7609602 5.6090291,5.0173084 5.8621601,5.084113 6.3833021,5.4596344 6.4389222,5.411372 6.2302241,5.0859622 5.9723119,4.7792035 5.8238226,4.42327 6.0852409,4.2871508 6.2025661,3.9436219 6.418206,3.7888261 6.8571207,3.8844771 7.0891062,4.3344528 7.3215817,4.6775649 7.4178261,4.7875608 7.6243416,5.3575542 7.5540392,4.9119034 7.5251501,4.3129822 7.6716284,3.7024622 7.5146334,3.1125324 7.7418876,3.0898587 7.9802357,3.0780304 7.7850284,2.810672 7.6753317,2.5177526 7.433067,2.1442074 7.8478003,1.9750168 8.1253412,2.123192 8.4725243,2.2972436 8.8208309,2.2431898 9.0391476,2.1261589 9.2466199,2.0905049 9.2996748,2.3976355 9.6381088,2.373197 10.043328,2.1968206 10.34835,2.3251417 c -0.155053,0.3827839 0.21295,0.5298628 0.407748,0.7727629 -0.03331,0.3669779 0.127549,-0.4487571 0.368766,-0.1614694 0.40459,-0.0096 0.653643,0.3454862 1.031124,0.4142941 0.264799,0.063267 -0.242474,0.5825644 -0.204238,0.6885298 0.185138,-0.2812586 0.490169,-0.5211185 0.777323,-0.2070006 0.413111,0.1934318 -0.247122,0.491764 -0.34238,0.7215711 C 11.709386,5.3123232 11.029857,6.0717725 10.415165,6.8821849 10.234369,7.0316041 9.8642081,7.166901 9.8532921,7.4143627 9.9065175,7.6530885 9.9943184,8.2561048 9.9122579,8.2808445 9.7565421,7.6600154 9.2527764,7.2250894 8.9420764,6.6862174 9.0975025,6.6257782 9.336406,6.5410302 9.027464,6.486416 8.5050766,6.385377 8.0321087,6.7423851 7.6658805,7.0726884 7.8766824,7.6569947 7.8550849,8.2951317 7.6850196,8.8861577 7.657955,8.9563405 7.6599715,9.071091 7.6148904,9.1224399 Z"
           id="path3610" />
      </g>
    </g>
  </g>
</svg>
