<?xml version="1.0" encoding="UTF-8" standalone="no"?>
<!-- Created with Inkscape (http://www.inkscape.org/) -->

<svg
   width="64"
   height="64"
   viewBox="0 0 16.933333 16.933333"
   version="1.1"
   id="svg5"
   inkscape:version="1.2 (dc2aedaf03, 2022-05-15)"
   sodipodi:docname="airelles.svg"
   xmlns:inkscape="http://www.inkscape.org/namespaces/inkscape"
   xmlns:sodipodi="http://sodipodi.sourceforge.net/DTD/sodipodi-0.dtd"
   xmlns="http://www.w3.org/2000/svg"
   xmlns:svg="http://www.w3.org/2000/svg">
  <sodipodi:namedview
     id="namedview7"
     pagecolor="#ffffff"
     bordercolor="#999999"
     borderopacity="1"
     inkscape:pageshadow="0"
     inkscape:pageopacity="0"
     inkscape:pagecheckerboard="0"
     inkscape:document-units="mm"
     showgrid="false"
     width="64mm"
     units="px"
     inkscape:zoom="16.609946"
     inkscape:cx="43.588341"
     inkscape:cy="29.199372"
     inkscape:window-width="1920"
     inkscape:window-height="1017"
     inkscape:window-x="1912"
     inkscape:window-y="-8"
     inkscape:window-maximized="1"
     inkscape:current-layer="g4062"
     inkscape:showpageshadow="2"
     inkscape:deskcolor="#d1d1d1" />
  <defs
     id="defs2" />
  <g
     inkscape:label="Calque 1"
     inkscape:groupmode="layer"
     id="layer1">
    <g
       id="g977"
       transform="translate(0.08745663,0.03512701)">
      <g
         id="g4062"
         transform="matrix(1.0854826,0,0,1.0854826,-1.4523758,-2.0522237)">
        <path
           style="fill:#5daa8d;stroke-width:0.0040092"
           d="M 4.8191352,14.572669 C 4.2660929,14.251102 4.5869887,13.68448 4.5998326,13.266166 4.195362,13.11741 4.0147624,12.661959 3.5814849,12.580395 3.5285171,12.163377 4.2519745,12.519148 3.98223,11.977868 3.6858859,11.397491 3.9229575,10.809448 4.4059133,10.428695 4.461027,10.18329 4.0182185,9.8882666 4.5204205,10.104383 5.026287,10.50358 5.0472847,11.343872 4.6572422,11.835586 4.54123,12.094563 3.9247376,12.443339 4.540879,12.304957 5.073079,12.383547 5.5909967,12.018433 5.2171796,11.462598 4.9222624,10.829912 5.8701988,10.379952 5.5980558,9.7713667 4.9441393,9.7338807 5.9337797,9.2040667 6.1052281,9.6939351 6.7305098,10.435235 6.3340862,11.649251 5.5378668,12.101543 6.1748589,11.935358 6.5561707,11.433503 7.0367838,11.138958 7.2559477,10.856318 7.9078744,9.9944907 7.398022,9.8829384 6.4495609,9.9568139 5.3843927,9.0587071 5.6778732,8.0551421 5.9214266,7.2207507 6.9317583,6.7219492 7.7466661,7.0371415 8.5698467,7.3313914 9.0427706,8.4377531 8.5094744,9.1846553 8.1845112,9.5304503 7.9334406,9.8114114 7.8948289,10.306145 7.7928487,10.522305 7.1722128,11.320348 7.7794951,10.856444 8.2079141,10.431739 8.4828856,9.8841817 8.7913687,9.3759131 9.1203779,9.167939 9.9378471,8.9844001 9.2433061,8.6179887 8.7440197,8.1073001 8.7044774,7.1558732 9.3158143,6.7107433 9.7743434,6.2377013 10.549021,6.2093288 11.072349,6.5901001 c 0.846858,-0.1835017 0.465049,1.0963139 1.200346,1.096119 0.334966,0.1278345 1.068762,-0.091028 0.923464,0.5551693 0.0041,0.5540834 0.129727,1.2678503 -0.411285,1.7053579 -0.474065,0.6201367 -1.475048,0.5812597 -2.012489,0.1143857 -0.329457,0.630259 -1.0640479,0.0059 -1.5645757,0.295487 -0.5792051,0.315977 -1.2063577,0.601183 -1.6793525,1.066575 0.4726394,0.267476 0.7814954,-0.265428 1.1859179,-0.422078 0.8980032,-0.26231 1.9982023,0.332828 2.0973153,1.309142 -0.03523,0.886021 -1.0253281,1.665674 -1.8955936,1.365927 -0.6418667,-0.160461 -1.2272782,-0.731229 -1.1136052,-1.43781 0.2209445,-0.614169 -0.761917,-0.481624 -1.0776101,-0.31699 -0.6408288,0.23463 -1.2644843,0.532989 -1.9548929,0.595037 -0.6191729,-0.05414 -0.071864,0.655077 0.1796908,0.205129 0.5134278,-0.07373 1.0586896,-0.204611 1.603248,-0.116905 0.8531111,0.0963 1.5689773,0.653527 2.1006058,1.296733 0.2496575,0.356597 0.8510591,0.135829 1.0646812,0.284434 -0.4930792,0.485527 -1.3173575,0.629017 -1.8970124,0.203482 -0.678724,-0.524697 -1.2346642,-1.312272 -2.1197055,-1.503683 -0.2868444,-0.171234 -0.9244005,0.06478 -0.2684596,0.08407 1.0369218,0.177174 1.7778083,1.122147 2.0533865,2.09098 0.133323,0.501166 0.4916308,0.934463 0.9493424,1.076476 -0.5200903,0.0903 -1.1111203,0.04257 -1.5806229,-0.220399 -0.6659979,-0.384816 -1.2497631,-1.030876 -1.2621878,-1.83967 0.07806,-0.375615 -0.1996974,-0.956298 -0.5842976,-0.827562 0.4855913,0.385482 0.2102224,1.066823 -0.013426,1.445469 l -0.096171,-0.06183 -0.079919,-0.06049 z M 8.9927331,10.053312 C 9.5130416,9.6859416 10.156529,10.312524 10.576895,9.9402839 10.592339,9.5694821 9.8691605,8.6921909 9.5800933,9.3189786 9.4219935,9.5432967 8.8563188,9.7511174 8.9927331,10.053312 Z m -0.479962,0.875805 c 0.4681133,-0.530825 1.284075,-0.518994 1.9309009,-0.415466 0.528137,0.153644 1.089513,0.534544 1.640633,0.254132 -0.197457,0.464732 -0.849289,0.661172 -1.340977,0.591333 -0.66388,-0.13636 -1.2737616,-0.759055 -1.9906228,-0.466853 -0.064247,8.8e-5 -0.2042722,0.120127 -0.2399341,0.03685 z M 3.8877908,7.3680167 C 3.5225775,6.6978268 4.5341066,6.2201806 5.1007417,6.3377358 5.5353389,6.3341222 6.357169,6.8344355 6.2497158,7.1452452 5.7110552,7.1447811 5.1944449,7.6200045 4.6552125,7.1859617 4.3092959,6.9574471 4.0204068,7.2434111 4.0123134,7.4459552 l -0.065381,-0.02722 z M 5.550015,6.3476276 C 5.3179938,6.0405442 5.3577767,5.5174163 4.8584,5.4455266 5.3351035,5.0091956 6.0377423,5.450912 6.3925767,5.8452198 6.6639346,6.0546423 6.832343,7.4026097 6.2889924,6.7976748 6.0802507,6.5900434 5.7666444,6.5471851 5.550015,6.3476276 Z m 1.1798777,0.525093 C 6.7288246,6.5989079 6.5659928,5.7178389 6.8821251,6.4122038 6.9810761,6.7142375 7.4997708,6.9828523 6.7298927,6.8727206 Z M 7.3207064,6.8335064 C 6.8172801,6.22794 6.5206783,5.2914662 6.9737587,4.5713241 7.0581289,4.2051911 7.7771163,3.7484788 7.9232075,4.0442219 7.157729,4.4152012 8.3289554,5.0903965 8.0077023,5.6729043 7.7998688,6.0694689 7.5771296,6.5060108 7.4091321,6.8917045 l -0.088425,-0.058199 z m 0.3545548,0.073429 C 7.7418207,6.1965213 8.4290779,5.4359699 9.189641,5.6156039 9.7166022,5.5714266 9.7049814,6.5980887 9.237244,6.0996565 8.8214078,6.1451425 8.7182313,6.8778046 8.1495214,6.7143827 7.9504621,6.6083886 7.7845103,6.9795002 7.6752612,6.9069354 Z M 9.890472,5.8770667 C 9.3779073,5.5332041 9.3320533,4.8447602 8.9063516,4.4399493 8.6375369,4.3787014 8.1644367,4.4313286 8.6321439,4.1335951 c 0.548243,-0.3857708 1.3284692,-0.043831 1.6872551,0.4470906 0.309147,0.4872292 0.263412,1.1480967 0.736117,1.539998 0.341029,0.234872 0.291096,0.5251799 -0.13549,0.272918 C 10.566245,6.2428285 10.186724,6.1341772 9.890472,5.8770667 Z m 2.102903,1.4693049 C 11.724587,6.5750357 12.212873,5.8020294 12.615905,5.175555 12.965154,4.7283064 13.7067,4.3459758 13.52684,3.7743511 c 0.673241,0.2896993 0.729958,1.2012067 0.494746,1.8048001 -0.309617,0.8150868 -1.329244,0.8101742 -1.847908,1.4173062 -0.07808,0.093177 -0.126206,0.285179 -0.180303,0.3499142 z m 0.16855,0.039962 c 0.203926,-0.7578473 1.092195,-0.9478359 1.770536,-1.0384993 0.55816,-0.047609 0.875631,-0.6333923 0.87818,-1.0196763 0.460357,0.3593556 0.199208,1.0096785 -0.151295,1.3446784 -0.388118,0.4704436 -1.006771,0.6100465 -1.590508,0.5915949 -0.317037,-0.04956 -0.644007,0.1331488 -0.906913,0.1219023 z M 11.74232,6.7286988 C 11.521887,6.1565577 10.946342,5.8129413 10.790266,5.2029 10.582593,4.6885245 10.888156,3.9188213 10.228518,3.6463978 c -0.134703,-0.3367966 0.747458,0.069283 0.908382,0.2088057 0.675448,0.4828177 1.156533,1.3893961 0.814249,2.2117039 -0.115906,0.1434938 -0.03003,0.6735292 -0.208829,0.6617914 z"
           id="path4070" />
        <path
           style="fill:#ec3a2c;stroke-width:0.0040092"
           d="M 7.5460034,9.8658717 C 6.5681962,10.037549 5.3968215,9.1393748 5.6697897,8.0881333 5.8874228,7.2656343 6.8505376,6.7518414 7.6605306,7.0104783 8.5225485,7.2528324 8.539328,9.139671 8.5197602,9.1642434 m 0.705115,-0.5689692 c 0,0 -0.5111667,-1.445265 0.089938,-1.8824653 0.454103,-0.4746699 1.2308938,-0.5052378 1.7503878,-0.1236062 0.840824,-0.1807657 0.477551,1.0899316 1.205753,1.0966893 0.403398,0.063725 1.226882,0.034872 0.855553,0.7162645 0.386113,1.3323402 -1.544703,1.9750095 -1.539714,1.9984855 m -2.5323379,0.541023 c 0,0 1.7121799,0.550404 1.7578089,1.42725 -0.09333,0.875607 -1.0797377,1.62757 -1.9469521,1.290975 -0.579632,-0.166252 -1.0184237,-1.272155 -1.0679411,-1.307941 m 0,0 L 7.5460034,9.8658717 M 9.7896675,8.9958132 c 0.3356475,-0.030098 0.00949,0.00398 0,0 z"
           id="path4068"
           sodipodi:nodetypes="cccccccccccccccccc" />
        <path
           style="fill:#9f1c20;stroke-width:0.0040092"
           d="m 8.1385386,13.244244 c -0.4852759,-0.481818 -0.4306462,-1.340667 -0.00632,-1.844165 0.3174114,-0.359087 0.8169313,-0.537517 1.2884282,-0.433632 0.5687215,0.07707 1.0991318,0.443047 1.2976288,0.993414 0.260069,0.530796 -0.09533,1.124166 -0.518519,1.447632 -0.446953,0.418052 -1.144509,0.412751 -1.6541353,0.114605 -0.1453858,-0.07712 -0.2837712,-0.168599 -0.4070811,-0.277854 z m 0.502031,0.06625 c 0.4835069,0.320718 1.1485951,0.200129 1.5452284,-0.203379 0.304274,-0.09775 0.210154,-0.800889 -0.02341,-0.401638 -0.02114,0.507836 -0.450747,-0.201553 -0.08311,-0.340401 0.20008,-0.08773 0.539298,-0.08008 0.340854,-0.399503 -0.228705,-0.613462 -0.994935,-0.909816 -1.5986464,-0.72753 -0.5457779,0.253142 -0.870769,0.948563 -0.6969401,1.527357 0.1055815,0.232382 0.3043605,0.40961 0.5160291,0.545094 z M 6.1212378,9.4172895 C 5.6208853,9.022207 5.4780335,8.2651108 5.8195062,7.7225624 6.0442259,7.3823165 6.4001183,7.1179315 6.78903,6.9939767 7.4052498,6.840789 8.1203439,7.0583082 8.4633096,7.6150311 8.7659036,8.0332889 8.8391912,8.6151626 8.5714557,9.0693598 8.34468,9.5355029 7.879153,9.8955029 7.3443058,9.8848451 6.8926638,9.8995561 6.4587442,9.7086308 6.1212378,9.4172895 Z m 0.4283811,0.00596 C 7.1134473,9.8358151 8.0064157,9.6399624 8.3157646,9.0027874 8.7974807,8.1704975 7.9115813,6.9778251 6.9737562,7.2301866 6.6394749,7.289964 7.1094948,7.8041207 6.6813066,7.8606013 6.4345742,7.9068042 6.4964009,7.7357245 6.555887,7.6056576 6.1270774,7.4547224 5.9067981,8.0232066 5.9143654,8.3657038 5.9033223,8.8018275 6.206014,9.1870368 6.5496189,9.4232495 Z M 10.843624,10.111055 C 10.558288,9.8852784 10.426002,9.5274888 10.221884,9.2476524 9.6450215,9.0620133 9.0949696,8.6387622 8.9186178,8.039953 8.7960087,7.6182239 8.864734,7.1266716 9.2027838,6.821656 9.5312552,6.4665209 10.028454,6.2212011 10.517095,6.3593399 c 0.353363,0.1222454 0.682194,0.2324087 1.029974,0.3448118 0.237581,0.2642549 0.154199,0.77762 0.521313,0.934112 0.289307,0.1081946 0.535661,0.1509946 0.831842,0.089298 0.400003,0.083976 0.299145,0.494736 0.248166,0.7548533 0.265525,0.6211667 -0.109919,1.2972766 -0.59786,1.6845955 -0.483669,0.36523 -1.238103,0.304684 -1.706906,-0.05596 z m 0.334817,-0.1920308 c 0.370639,0.2618048 0.911865,0.2931098 1.258222,-0.028054 0.381445,-0.3144601 0.649345,-0.8647871 0.442242,-1.3495857 -0.303155,-0.1885966 -0.436177,-0.6342497 -0.820526,-0.6379534 -0.108387,0.3042689 -0.154916,0.679349 -0.394643,0.943928 -0.201512,0.3262714 -0.595947,0.4042146 -0.918186,0.5489025 0.01235,0.2268497 0.264862,0.3955136 0.432891,0.522763 z m -1.4880913,-1.3872 c 0.3420333,0.1432675 0.5416663,0.5405079 0.9551643,0.5073047 0.634342,0.00489 1.214063,-0.6825555 0.960227,-1.303235 C 11.519324,7.372207 11.072491,7.29915 10.938528,6.9771894 10.751252,6.5397804 10.168221,6.5352223 9.7972698,6.7172148 9.2218155,6.9786379 8.9470968,7.8535977 9.430779,8.3207901 9.5119528,8.3972036 9.5965826,8.4710903 9.6903497,8.5318242 Z M 11.359604,7.0106711 c 0.20316,-0.1373503 -0.32249,-0.2997173 -0.06826,-0.044439 l 0.03659,0.030008 0.03164,0.014432 z m 1.509749,1.1149399 c 0.260172,-0.1456931 -0.354268,-0.301006 -0.04652,-0.030751 l 0.04652,0.030754 z"
           id="path4064" />
      </g>
    </g>
  </g>
</svg>
