<?xml version="1.0" encoding="UTF-8" standalone="no"?>
<!-- Created with Inkscape (http://www.inkscape.org/) -->

<svg
   width="64"
   height="64"
   viewBox="0 0 16.933333 16.933333"
   version="1.1"
   id="svg5"
   inkscape:version="1.1 (c68e22c387, 2021-05-23)"
   sodipodi:docname="alcool_de_poire.svg"
   xmlns:inkscape="http://www.inkscape.org/namespaces/inkscape"
   xmlns:sodipodi="http://sodipodi.sourceforge.net/DTD/sodipodi-0.dtd"
   xmlns="http://www.w3.org/2000/svg"
   xmlns:svg="http://www.w3.org/2000/svg">
  <sodipodi:namedview
     id="namedview7"
     pagecolor="#ffffff"
     bordercolor="#999999"
     borderopacity="1"
     inkscape:pageshadow="0"
     inkscape:pageopacity="0"
     inkscape:pagecheckerboard="0"
     inkscape:document-units="mm"
     showgrid="false"
     width="64mm"
     units="px"
     inkscape:zoom="5.8725028"
     inkscape:cx="88.122563"
     inkscape:cy="35.334168"
     inkscape:window-width="1920"
     inkscape:window-height="1009"
     inkscape:window-x="-8"
     inkscape:window-y="-8"
     inkscape:window-maximized="1"
     inkscape:current-layer="g4718" />
  <defs
     id="defs2" />
  <g
     inkscape:label="Calque 1"
     inkscape:groupmode="layer"
     id="layer1">
    <g
       id="g977"
       transform="translate(0.08745663,0.03512701)">
      <g
         id="g4718"
         transform="matrix(1.1425314,0,0,1.1425314,-1.1540552,-1.2549845)">
        <path
           style="fill:#e6e6e6;stroke-width:0.0475341;fill-opacity:1"
           d="M 7.2083023,15.024629 6.1150175,15.000862 6.7019194,14.839709 C 7.4394502,14.637197 7.6774257,14.488174 7.8626638,14.11284 8.3149299,13.196445 8.3273306,10.511767 7.8837722,9.5429076 7.7458426,9.2416297 7.5796363,9.0730784 7.2563535,8.9066363 6.4938732,8.5140729 5.9410553,7.4369729 5.8683361,6.2022488 5.8213264,5.4040563 6.0239953,4.0958053 6.435564,2.5407294 L 6.5378463,2.1542646 8.4083597,2.1191937 c 1.0287829,-0.019289 1.8800193,-0.025565 1.8916383,-0.013947 0.03755,0.037547 0.301655,1.0908231 0.420648,1.6775614 0.403204,1.9881609 0.369473,3.0082755 -0.13353,4.0382354 C 10.342727,8.3214613 9.9866622,8.7096786 9.5668589,8.9334317 9.23227,9.1117655 9.1237054,9.2264677 8.9683786,9.5657463 8.7398132,10.064999 8.6870446,10.46863 8.686612,11.721007 c -5.323e-4,1.536857 0.1085913,2.178951 0.4399996,2.589023 0.19085,0.236151 0.3535655,0.318833 0.9862184,0.501133 0.30502,0.08789 0.577981,0.183203 0.60658,0.211802 0.05347,0.05347 -1.1029255,0.05402 -3.5111077,0.0017 z M 8.4075487,8.816474 c -0.015796,-0.015795 -0.056794,-0.017483 -0.091107,-0.00375 -0.037919,0.015174 -0.026656,0.026438 0.028719,0.028718 0.050109,0.00206 0.078184,-0.00917 0.062388,-0.024966 z M 7.6123423,8.6550562 c -0.039216,-0.025343 -0.092691,-0.046078 -0.1188353,-0.046078 -0.026144,0 -0.015449,0.020735 0.023767,0.046078 0.039216,0.025343 0.092691,0.046078 0.1188353,0.046078 0.026144,0 0.015449,-0.020735 -0.023767,-0.046078 z M 7.0419329,8.3557315 c 0,-0.00777 -0.090909,-0.098675 -0.2020201,-0.2020201 l -0.20202,-0.1879 0.1878999,0.2020201 c 0.1747451,0.1878767 0.2161402,0.2238633 0.2161402,0.1879 z M 6.4533794,7.5778574 C 6.4131646,7.5036505 6.379405,7.4579725 6.3783583,7.4763502 c -0.00322,0.056502 0.1073684,0.277199 0.1283736,0.2561937 0.010871,-0.010871 -0.013138,-0.08048 -0.053352,-0.1546865 z M 6.2187899,6.887381 C 6.2036159,6.849462 6.1923519,6.860725 6.1900709,6.9161 c -0.00206,0.050109 0.00917,0.078184 0.024966,0.062388 0.015795,-0.015796 0.017484,-0.056794 0.00375,-0.091107 z M 6.1240169,6.0525629 c -0.011956,-0.045752 -0.021738,-0.00832 -0.021738,0.083185 0,0.091503 0.00978,0.1289363 0.021738,0.083185 0.011956,-0.045752 0.011956,-0.1206179 0,-0.16637 z M 6.124797,5.5534546 c -0.01133,-0.058823 -0.0206,-0.010695 -0.0206,0.1069518 0,0.117647 0.00927,0.1657753 0.0206,0.1069518 0.01133,-0.058823 0.01133,-0.1550801 0,-0.2139036 z M 7.9450812,4.8302317 c 0,-0.012152 -0.048128,-0.045418 -0.1069518,-0.073923 -0.1027035,-0.04977 -0.1032867,-0.048892 -0.014682,0.022095 0.096982,0.077699 0.1216337,0.088203 0.1216337,0.051829 z M 7.7074106,4.6910425 c 0,-0.010275 -0.033196,-0.03142 -0.07377,-0.04699 -0.042302,-0.016233 -0.061382,-0.00826 -0.044729,0.018682 0.027915,0.045167 0.1184988,0.066807 0.118499,0.028308 z M 7.46974,4.5671216 C 7.430524,4.5417786 7.377048,4.5210436 7.3509047,4.5210436 c -0.026144,0 -0.015449,0.020735 0.023767,0.046078 0.039216,0.025343 0.092692,0.046078 0.1188353,0.046078 0.026144,0 0.015449,-0.020735 -0.023767,-0.046078 z"
           id="path4724" />
        <path
           style="fill:#ffdd55;stroke-width:0.0475341"
           d="M 7.7738768,8.6603173 C 7.3764734,8.5465463 7.0981001,8.3733357 6.8152156,8.0638149 6.3064123,7.5071029 6.0462351,6.3622924 6.1869299,5.2992826 6.2576684,4.7648223 6.3283893,4.656862 6.6675874,4.5655255 6.9618749,4.486282 7.2444827,4.539984 7.6972522,4.7611852 c 0.2169371,0.105985 0.602087,0.247459 0.8558888,0.3143866 0.4016467,0.1059145 0.5661114,0.1224369 1.2688839,0.1274736 l 0.8074261,0.00579 0.04023,0.2614377 c 0.1004,0.6523883 -0.06375,1.6241132 -0.380115,2.2501466 C 9.881213,8.5284938 8.7672209,8.9446978 7.7738768,8.6603173 Z"
           id="path4722" />
        <path
           style="fill:#ffe680;stroke-width:0.0475341"
           d="m 8.4204224,6.9245213 c 0,-1.0089883 0.016051,-1.8345244 0.035668,-1.8345244 0.019618,0 0.185393,0.031714 0.3683894,0.070476 0.2091235,0.044296 0.6012026,0.070782 1.0554629,0.071301 l 0.7227413,8.271e-4 0.03662,0.178253 c 0.05653,0.2752045 0.02864,0.9957966 -0.0535,1.3819952 C 10.477473,7.3021671 10.24968,7.8111577 10.011515,8.076054 9.7024671,8.4197908 9.2089198,8.6594664 8.6699765,8.7275306 L 8.4204224,8.7590476 V 6.9245232 Z"
           id="path4720" />
      </g>
    </g>
  </g>
</svg>
