<?xml version="1.0" encoding="UTF-8" standalone="no"?>
<!-- Created with Inkscape (http://www.inkscape.org/) -->

<svg
   width="64"
   height="64"
   viewBox="0 0 16.933333 16.933333"
   version="1.1"
   id="svg5"
   inkscape:version="1.1 (c68e22c387, 2021-05-23)"
   sodipodi:docname="algue_sechee.svg"
   xmlns:inkscape="http://www.inkscape.org/namespaces/inkscape"
   xmlns:sodipodi="http://sodipodi.sourceforge.net/DTD/sodipodi-0.dtd"
   xmlns="http://www.w3.org/2000/svg"
   xmlns:svg="http://www.w3.org/2000/svg">
  <sodipodi:namedview
     id="namedview7"
     pagecolor="#ffffff"
     bordercolor="#999999"
     borderopacity="1"
     inkscape:pageshadow="0"
     inkscape:pageopacity="0"
     inkscape:pagecheckerboard="0"
     inkscape:document-units="mm"
     showgrid="false"
     width="64mm"
     units="px"
     inkscape:zoom="4.1524866"
     inkscape:cx="74.774475"
     inkscape:cy="29.741216"
     inkscape:window-width="1920"
     inkscape:window-height="1009"
     inkscape:window-x="-8"
     inkscape:window-y="-8"
     inkscape:window-maximized="1"
     inkscape:current-layer="g11904" />
  <defs
     id="defs2" />
  <g
     inkscape:label="Calque 1"
     inkscape:groupmode="layer"
     id="layer1">
    <g
       id="g977"
       transform="translate(0.08745663,0.03512701)">
      <g
         id="g4718"
         transform="matrix(1.1425314,0,0,1.1425314,-1.1540552,-1.2549845)">
        <g
           id="g10951"
           transform="translate(-0.74610634,-0.34063739)">
          <g
             id="g11904"
             transform="translate(0.11153627,0.16730444)">
            <path
               style="fill:#add053;stroke-width:0.00947787"
               d="m 12.242746,11.954395 c -0.150278,-0.0101 -0.978422,-0.114082 -1.16291,-0.146021 -0.355782,-0.06159 -0.571529,-0.149209 -0.810892,-0.32931 -0.04181,-0.03146 -0.144461,-0.125805 -0.228109,-0.209656 -0.1973012,-0.197781 -0.3882856,-0.436664 -0.6268663,-0.784084 -0.059667,-0.08689 -0.075255,-0.103887 -0.09191,-0.10024 -0.8118276,0.17775 -1.4978218,0.200445 -2.6347112,0.08716 -0.5364692,-0.05345 -0.8660232,-0.0143 -1.1966556,0.142171 -0.1986106,0.09399 -0.3251872,0.188121 -0.5675797,0.42208 -0.1455915,0.140526 -0.1756894,0.165022 -0.2449026,0.199319 -0.066131,0.03277 -0.091055,0.03993 -0.1538945,0.04423 -0.093559,0.0064 -0.1648731,-0.0079 -0.2487764,-0.04988 C 4.1403557,11.162539 4.0100613,11.025347 3.884047,10.817954 3.6896287,10.497981 3.5159563,10.395288 3.224433,10.427921 3.0902186,10.442945 2.7473234,10.512533 2.5395407,10.566915 2.1533123,10.668 2.0738736,10.686782 2.0445022,10.683953 c -0.028868,-0.0028 -0.032461,-0.0072 -0.052629,-0.06459 -0.018273,-0.05201 -0.020954,-0.0749 -0.017205,-0.146907 0.00514,-0.09882 0.022218,-0.153336 0.096257,-0.307324 C 2.2062307,9.8837252 2.462275,9.4976705 2.5926168,9.3785456 2.8196137,9.1710831 3.1660463,9.0591941 3.7527083,9.003865 3.9956569,8.9809522 4.196566,8.9713457 4.6531061,8.9608126 5.3880283,8.9438566 5.6115685,8.9274174 6.0042821,8.861446 6.1672285,8.8340728 6.4885877,8.7638682 6.648198,8.7207751 6.7074448,8.7047791 6.6999848,8.7021273 6.5249857,8.6769772 6.1378279,8.6213364 5.7627479,8.6277734 5.4587252,8.6952761 c -0.1758743,0.03905 -0.2998668,0.087152 -0.495625,0.1922741 -0.059165,0.031772 -0.094216,0.044752 -0.1208429,0.044752 -0.020628,0 -0.037503,-0.0032 -0.037501,-0.00711 C 4.8047852,8.8872229 4.9162867,8.6627192 4.991875,8.5484489 5.3935844,7.9411662 6.0695873,7.4962085 6.9277952,7.2741899 7.1031053,7.2288371 7.1956886,7.2094522 7.4758516,7.159439 8.0166316,7.0629017 8.2414007,7.0343932 8.4632104,7.0342076 8.7256933,7.033988 8.7822453,7.0550753 9.0802113,7.2642768 9.3024742,7.4203273 9.4682211,7.52005 9.6752103,7.6222616 l 0.164695,0.081327 0.053296,-0.011755 c 0.3127267,-0.068975 0.5108707,-0.1017361 0.7783527,-0.1286928 0.505265,-0.050921 1.459997,-0.086302 1.691801,-0.062697 0.358625,0.03652 0.691134,0.1449039 0.964282,0.3143152 0.264565,0.1640882 0.477828,0.3876431 0.589769,0.6182307 0.06104,0.1257244 0.07946,0.1902793 0.08704,0.3050172 0.0031,0.046915 0.01151,0.1085883 0.0187,0.1370509 0.01802,0.071403 0.01681,0.2066395 -0.0023,0.2630579 -0.03144,0.092609 -0.09545,0.1579937 -0.191503,0.1955983 -0.02257,0.00884 -0.08441,0.020255 -0.137429,0.025375 -0.316039,0.030521 -0.595685,0.056642 -0.610282,0.057005 -0.0496,0.00123 0.301954,0.1440693 0.488174,0.1983482 0.07148,0.020836 0.201825,0.050963 0.289646,0.066949 0.08782,0.015986 0.210462,0.043683 0.272532,0.061549 0.535688,0.1541871 1.297327,0.6040748 1.730996,1.0224728 0.127578,0.123085 0.192676,0.199954 0.23751,0.280457 0.03234,0.05806 0.0538,0.156427 0.04413,0.202243 -0.01817,0.08608 -0.106639,0.187661 -0.201559,0.231419 l -0.05036,0.02322 -0.489878,0.0023 c -0.575766,0.0028 -0.704636,0.01208 -1.262325,0.09127 -0.64204,0.09117 -0.754706,0.11638 -1.077074,0.241006 -0.304479,0.117711 -0.466526,0.14082 -0.820635,0.117028 z"
               id="path11912" />
            <path
               style="fill:#97b447;stroke-width:0.00947787"
               d="m 12.320704,11.727695 c -0.110461,-0.0089 -0.646005,-0.07465 -0.966743,-0.118659 -0.384223,-0.05272 -0.611582,-0.120651 -0.81988,-0.244953 C 10.223372,11.178666 9.9101532,10.837644 9.5015987,10.239952 9.2035323,9.8038974 9.0778367,9.6560307 8.8096762,9.4259829 7.9822436,8.7161503 6.7268888,8.3093811 5.7525392,8.4353871 5.3930206,8.4818811 5.1007053,8.6047721 4.9030658,8.7925102 c -0.038434,0.036509 -0.06988,0.063205 -0.06988,0.059325 0,-0.00388 0.02357,-0.053943 0.052377,-0.111251 0.2627255,-0.5226529 0.8021502,-0.990721 1.4593436,-1.2662973 0.3402585,-0.1426784 0.6250676,-0.2205472 1.1528,-0.3151838 0.3045969,-0.054622 0.2910038,-0.054676 0.5236954,0.00208 0.3949991,0.096338 0.6939183,0.2481479 1.0720873,0.5444713 0.2504452,0.1962423 0.3937736,0.3013051 0.5781501,0.4237962 0.2630109,0.174732 0.3970358,0.281925 0.7985128,0.6386482 0.542735,0.4822347 0.835334,0.6941901 1.234377,0.8941688 0.469384,0.2352298 0.913087,0.3650844 1.58662,0.4643404 0.407725,0.06009 0.662686,0.122523 0.968883,0.237271 0.391068,0.146553 0.724192,0.354281 0.987114,0.615541 0.08886,0.08829 0.248645,0.27225 0.248645,0.28625 0,0.0026 -0.109825,0.0074 -0.244055,0.01065 -0.356468,0.0087 -0.691677,0.04383 -1.29136,0.135223 -0.352226,0.05368 -0.503666,0.0906 -0.753491,0.1837 -0.247485,0.09223 -0.281071,0.103014 -0.372185,0.119511 -0.09474,0.01715 -0.374537,0.0242 -0.513996,0.01295 z M 4.3496402,11.017086 C 4.1927608,10.979819 4.0227918,10.836219 3.8901052,10.628842 3.6828886,10.304981 3.6034387,10.228834 3.4251786,10.183243 c -0.1243171,-0.03179 -0.2295987,-0.02361 -0.5633902,0.04381 -0.1400233,0.02828 -0.4477339,0.103127 -0.556825,0.135436 -0.016942,0.005 -0.030803,0.0072 -0.030803,0.0048 0,-0.0024 0.012942,-0.02998 0.02876,-0.06132 0.015818,-0.03134 0.025822,-0.06173 0.02223,-0.06754 -0.00359,-0.0058 -0.00249,-0.0081 0.00246,-0.005 0.00494,0.0031 0.029061,-0.0274 0.053593,-0.06769 0.045508,-0.07473 0.053082,-0.09294 0.033662,-0.08094 -0.00683,0.0042 -0.00837,0.0026 -0.00408,-0.0043 0.00377,-0.0061 0.010344,-0.0089 0.014606,-0.0063 0.00426,0.0026 0.037471,-0.03462 0.0738,-0.082777 0.036329,-0.048161 0.1005836,-0.1265108 0.1427881,-0.1741112 0.042204,-0.0476 0.073742,-0.090251 0.070083,-0.094779 -0.00366,-0.00453 -0.00297,-0.00526 0.00154,-0.00162 0.00826,0.00667 0.2208584,-0.1717685 0.217433,-0.1824993 -0.00101,-0.00318 0.00325,-0.006 0.00948,-0.00628 0.00623,-2.805e-4 0.053971,-0.02888 0.1060995,-0.063556 C 3.2880439,9.307899 3.5877567,9.198719 3.9106,9.153765 4.007201,9.140314 4.0909555,9.137026 4.3166417,9.137826 4.6370311,9.138966 4.8574666,9.154915 5.1554333,9.19853 5.6431542,9.269921 5.7706427,9.280369 5.9632704,9.264739 6.1268036,9.251469 6.2732087,9.22662 6.4728574,9.178246 6.689623,9.125725 6.7230896,9.114173 6.7086999,9.096834 c -0.00628,-0.00756 -0.017346,-0.011471 -0.024601,-0.00869 -0.00725,0.00278 -0.010824,0.00123 -0.00793,-0.00345 0.00859,-0.013903 -0.3149154,-0.2468743 -0.3431083,-0.247087 -0.00652,-4.74e-5 -0.011847,-0.00481 -0.011847,-0.010581 0,-0.00583 -0.00691,-0.00784 -0.015557,-0.00452 -0.013008,0.00499 -0.013594,0.0036 -0.00358,-0.00846 0.00659,-0.00794 0.018921,-0.014461 0.027405,-0.014494 0.00848,-3.79e-5 0.09892,-0.020541 0.2009676,-0.045574 L 6.715991,8.708465 6.814785,8.729226 c 0.6755387,0.1419624 1.3883459,0.4869968 1.8853732,0.912615 0.1508681,0.1291925 0.3649829,0.351872 0.4583479,0.476682 l 0.025927,0.03466 -0.049657,0.01065 c -0.082796,0.01776 -0.3187991,0.05637 -0.4372581,0.07154 -0.2833257,0.03629 -0.4714468,0.04614 -0.8788023,0.04604 -0.4357024,-1.06e-4 -0.5961052,-0.0088 -1.1231278,-0.06109 -0.2571274,-0.0255 -0.3186663,-0.02857 -0.4928493,-0.02458 -0.2292422,0.0052 -0.3874727,0.03004 -0.5616053,0.08802 -0.2799887,0.09323 -0.4710687,0.221366 -0.7843766,0.526015 -0.1377497,0.133943 -0.1901282,0.171333 -0.278102,0.198521 -0.063094,0.0195 -0.167124,0.02349 -0.229014,0.0088 z M 2.8428326,9.5921752 c 0,-0.00197 0.00746,-0.00943 0.016586,-0.016586 0.015032,-0.011789 0.015368,-0.011454 0.00358,0.00358 -0.012382,0.015788 -0.020165,0.020808 -0.020165,0.013008 z M 12.466728,9.1044818 C 12.36817,9.0480084 12.153183,8.9215737 11.988979,8.8235159 11.196379,8.3501991 10.800616,8.1329379 10.349307,7.9233878 l -0.09952,-0.046208 0.04265,-0.013061 c 0.341462,-0.1045683 1.005654,-0.2377142 1.407464,-0.2821442 0.255688,-0.028273 0.343392,-0.033932 0.6165,-0.039783 0.242543,-0.0052 0.284267,-0.00391 0.350681,0.010832 0.520337,0.1154753 0.979507,0.4215833 1.211234,0.8074755 0.08088,0.1346958 0.119972,0.2671627 0.119961,0.4065466 -7e-6,0.083819 -0.003,0.1004254 -0.02695,0.1510404 -0.0429,0.090543 -0.121277,0.1501709 -0.229096,0.1742996 -0.02337,0.00523 -0.123532,0.016274 -0.222576,0.024539 -0.205209,0.017126 -0.56414,0.054739 -0.724455,0.075917 -0.05962,0.00788 -0.117591,0.014319 -0.128834,0.014319 -0.01124,0 -0.101081,-0.046206 -0.199638,-0.1026789 z M 6.5065303,9.018413 c -0.00305,-0.00494 -0.00151,-0.011474 0.00343,-0.014526 0.00494,-0.00305 0.011474,-0.00151 0.014526,0.00343 0.00305,0.00494 0.00151,0.011474 -0.00343,0.014526 -0.00494,0.00305 -0.011474,0.00151 -0.014526,-0.00343 z M 10.326588,7.6543697 c -0.0027,-0.00434 0.0011,-0.0079 0.0085,-0.0079 0.0074,0 0.01119,0.00355 0.0085,0.0079 -0.0027,0.00434 -0.0065,0.0079 -0.0085,0.0079 -0.002,0 -0.0058,-0.00355 -0.0085,-0.0079 z"
               id="path11910" />
            <path
               style="fill:#8ca643;stroke-width:0.00947787"
               d="M 12.21073,11.713637 C 12.0228,11.693113 11.427601,11.616199 11.255348,11.590179 10.7711,11.517031 10.502842,11.39074 10.189756,11.088518 9.9573345,10.864163 9.7078253,10.547026 9.3918798,10.074386 9.0546879,9.5699624 8.5585135,9.1554185 7.9277107,8.8511019 7.481517,8.6358459 7.0188292,8.4970918 6.5344636,8.433285 6.3467399,8.4085557 5.8907724,8.4083169 5.7335834,8.4328652 5.3636409,8.4906403 5.0792712,8.6129471 4.8951597,8.7934694 4.8303009,8.8570639 4.8298086,8.8528206 4.8885727,8.7366871 4.9824003,8.5512586 5.1188702,8.3643414 5.2877975,8.1898854 5.5417837,7.9275866 5.7993001,7.7416699 6.1506098,7.5669687 6.4459431,7.4201037 6.5263157,7.3964194 6.8282776,7.3672724 c 0.172469,-0.016648 0.5722584,-0.014299 0.7216992,0.00424 0.5225063,0.06482 0.9516699,0.2514478 1.3444768,0.5846661 0.094368,0.080053 0.3177428,0.3081593 0.4129207,0.4216684 0.076494,0.091227 0.1991443,0.2490309 0.3624168,0.4662922 0.3322759,0.4421492 0.6854889,0.7825196 1.0918029,1.0521059 0.398963,0.264708 0.831588,0.453633 1.298469,0.567034 0.441258,0.107178 0.828622,0.146034 1.307946,0.131199 0.476864,-0.01476 0.52654,-0.01158 0.701362,0.04496 0.185701,0.06006 0.357038,0.171291 0.53113,0.34482 0.100437,0.100113 0.265221,0.296764 0.256218,0.305768 -0.0018,0.0018 -0.06454,0.0094 -0.13941,0.01686 -0.274744,0.02742 -0.897374,0.116906 -1.09011,0.156675 -0.132843,0.02741 -0.279132,0.07254 -0.454184,0.140127 -0.284271,0.10975 -0.364291,0.125018 -0.647409,0.123526 -0.110089,-5.8e-4 -0.251783,-0.0067 -0.314876,-0.01358 z M 4.3566871,11.012651 C 4.2757766,10.992192 4.2053364,10.955799 4.1285619,10.894789 4.0189166,10.807658 3.9655385,10.739994 3.7991327,10.477196 3.7033647,10.325953 3.5663086,10.212684 3.4399401,10.180344 l -0.049998,-0.0128 0.043148,-0.03607 C 3.6617035,9.9403843 3.9795051,9.7782225 4.3127438,9.6826283 4.7445831,9.558749 5.1277243,9.5248747 5.6252249,9.5665889 c 0.415724,0.034857 0.7668918,0.033444 1.1367076,-0.00458 0.149686,-0.015389 0.393695,-0.048764 0.3995853,-0.054654 0.0064,-0.0064 -0.2277429,-0.2280558 -0.3490433,-0.3304342 -0.143459,-0.1210768 -0.2630183,-0.2106528 -0.401383,-0.30072 -0.057309,-0.037305 -0.096433,-0.068381 -0.088974,-0.070674 0.00732,-0.00225 0.097614,-0.024229 0.2006507,-0.048841 0.2129318,-0.050861 0.1922636,-0.051097 0.4145053,0.00472 0.3393539,0.085231 0.6338626,0.1933753 0.9305727,0.3417065 0.4193147,0.2096237 0.7305907,0.4290817 1.0276263,0.7245042 0.1128665,0.1122535 0.2785787,0.3016596 0.2785787,0.3184106 0,0.0088 -0.2238426,0.05145 -0.3933317,0.07494 -0.3390233,0.04699 -0.4394996,0.05247 -0.9525261,0.052 -0.5149463,-4.8e-4 -0.6280948,-0.0062 -1.1231277,-0.05642 -0.1251079,-0.0127 -0.2829145,-0.02587 -0.3506813,-0.02927 -0.2385174,-0.01195 -0.5227039,0.02573 -0.7256103,0.0962 -0.2743498,0.09529 -0.4463014,0.208542 -0.7230525,0.476224 -0.087938,0.08506 -0.1819836,0.169319 -0.2089912,0.187251 -0.1004922,0.06672 -0.2339925,0.09252 -0.3400429,0.0657 z M 12.491306,9.1153075 C 12.405294,9.0656451 12.168254,8.9256979 11.96455,8.8043138 11.573922,8.5715443 11.207353,8.3590997 11.064886,8.282914 10.969046,8.231663 10.970216,8.232396 10.975636,8.22703 10.988586,8.214207 11.53157,8.157042 11.856288,8.134315 12.21256,8.109379 13.388424,8.12056 13.677759,8.151635 l 0.05385,0.00578 0.06733,0.089925 c 0.239294,0.3195809 0.266361,0.6559891 0.06368,0.791437 -0.06304,0.042128 -0.120007,0.053949 -0.357178,0.074113 -0.233229,0.019829 -0.693959,0.069299 -0.791402,0.084976 -0.03128,0.00503 -0.059,0.00883 -0.06161,0.00844 -0.0026,-3.886e-4 -0.07511,-0.04134 -0.161124,-0.091003 z"
               id="path11908" />
            <path
               style="fill:#7a9239;stroke-width:0.00947787"
               d="M 7.6766957,10.215255 C 7.5003414,9.8678979 7.1866466,9.4858829 6.8304265,9.1846753 6.7899059,9.1504123 6.7557855,9.1199192 6.7546035,9.1169128 6.7534217,9.1139063 6.893201,9.0643813 7.0652244,9.0068572 7.4291572,8.885159 7.3739012,8.8873103 7.6066192,8.9857787 c 0.5103021,0.2159208 0.9460925,0.5009984 1.287003,0.841909 0.1297799,0.1297799 0.2832629,0.3093243 0.2730203,0.3193793 -0.00948,0.0093 -0.2368656,0.05042 -0.4060051,0.07342 -0.2538108,0.03451 -0.4585868,0.04927 -0.7571037,0.05459 l -0.2938141,0.0052 z"
               id="path11906" />
          </g>
        </g>
      </g>
    </g>
  </g>
</svg>
