<?xml version="1.0" encoding="UTF-8" standalone="no"?>
<!-- Created with Inkscape (http://www.inkscape.org/) -->

<svg
   width="64"
   height="64"
   viewBox="0 0 16.933333 16.933333"
   version="1.1"
   id="svg5"
   inkscape:version="1.1 (c68e22c387, 2021-05-23)"
   sodipodi:docname="alkermes.svg"
   xmlns:inkscape="http://www.inkscape.org/namespaces/inkscape"
   xmlns:sodipodi="http://sodipodi.sourceforge.net/DTD/sodipodi-0.dtd"
   xmlns="http://www.w3.org/2000/svg"
   xmlns:svg="http://www.w3.org/2000/svg">
  <sodipodi:namedview
     id="namedview7"
     pagecolor="#ffffff"
     bordercolor="#999999"
     borderopacity="1"
     inkscape:pageshadow="0"
     inkscape:pageopacity="0"
     inkscape:pagecheckerboard="0"
     inkscape:document-units="mm"
     showgrid="false"
     width="64mm"
     units="px"
     inkscape:zoom="4.1524866"
     inkscape:cx="23.239088"
     inkscape:cy="46.839405"
     inkscape:window-width="1920"
     inkscape:window-height="1009"
     inkscape:window-x="-8"
     inkscape:window-y="-8"
     inkscape:window-maximized="1"
     inkscape:current-layer="g12393" />
  <defs
     id="defs2" />
  <g
     inkscape:label="Calque 1"
     inkscape:groupmode="layer"
     id="layer1">
    <g
       id="g977"
       transform="translate(0.08745663,0.03512701)">
      <g
         id="g4718"
         transform="matrix(1.1425314,0,0,1.1425314,-1.1540552,-1.2549845)">
        <g
           id="g10951"
           transform="translate(-0.74610634,-0.34063739)">
          <g
             id="g11904"
             transform="translate(0.11153627,0.16730444)">
            <g
               id="g12393"
               transform="matrix(0.14385489,0,0,0.14385489,7.8735988,7.3654983)">
              <path
                 style="fill:#e8e8e8;stroke-width:0.231576"
                 d="m -6.7926739,57.869717 c -0.1525725,-0.11653 -0.2315764,-12.050084 -0.2315764,-34.979614 0,-30.6845464 0.041103,-34.828525 0.3473646,-35.02063 0.1910505,-0.119838 1.1289351,-0.392193 2.0841878,-0.605234 2.5008837,-0.557747 3.5600045,-1.070448 4.13576233,-2.002043 0.48207218,-0.780009 0.49576622,-1.027481 0.49576622,-8.959269 0,-7.80645 -0.01990979,-8.182413 -0.46315285,-8.745906 -0.35215341,-0.44769 -0.46315286,-0.939455 -0.46315286,-2.051923 0,-1.752915 0.31832357,-2.548081 1.1319076,-2.827482 0.95850126,-0.329169 8.26344906,-0.347092 8.88111896,-0.02179 0.7977692,0.420153 0.863699,0.631109 0.86752,2.77582 0.00303,1.699022 -0.064255,2.051761 -0.4596074,2.409549 -0.4464261,0.404009 -0.4631204,0.712669 -0.4622867,8.546324 6.947e-4,7.543061 0.032127,8.178442 0.4358129,8.840442 0.5308127,0.870473 1.3999397,1.30035 3.9633217,1.960295 1.082592,0.278716 2.139947,0.59671 2.349676,0.706653 0.351858,0.184453 0.376884,2.884907 0.32386,34.945231 -0.03161,19.109931 -0.103712,34.791575 -0.160232,34.848096 -0.184963,0.184963 -22.5385283,0.363075 -22.7762899,0.18148 z"
                 id="path12401" />
              <path
                 style="fill:#c83737;stroke-width:0.231576"
                 d="M -6.9084621,51.092918 V 44.377202 H 4.554571 16.017604 v 6.715716 6.715716 H 4.554571 -6.9084621 Z m 0.1543843,-37.669765 c -0.084911,-0.08491 -0.1543843,-5.7515616 -0.1543843,-12.59255822 0,-9.67274088 0.064359,-12.48962478 0.2894705,-12.66958078 0.1592088,-0.127272 1.2628092,-0.475144 2.4524453,-0.773048 2.5040864,-0.627065 3.33603465,-1.070458 3.9750515,-2.118528 0.43637544,-0.715713 0.4602153,-1.18098 0.46103624,-8.997706 8.3483e-4,-7.949443 -0.0156268,-8.257891 -0.46228722,-8.662113 -0.38817535,-0.351294 -0.46315285,-0.713248 -0.46315285,-2.235867 0,-2.782117 -0.0752741,-2.743026 5.28199663,-2.743026 5.3561705,0 5.2167962,-0.06501 5.3327048,2.48739 0.075204,1.656035 0.03055,1.895145 -0.4604989,2.465682 l -0.5437809,0.631807 0.1157883,8.580458 0.1157882,8.580458 0.7610018,0.63504 c 0.4689357,0.391318 1.4910237,0.830771 2.6631287,1.14503 1.04617,0.280495 2.240808,0.616519 2.654751,0.746725 l 0.752623,0.236734 V 0.85879384 13.577538 H 4.7089553 c -6.219757,0 -11.3781219,-0.06947 -11.4630331,-0.154385 z"
                 id="path12399" />
              <path
                 style="fill:#c83737;stroke-width:0.231576"
                 d="M -1.2348397,57.635331 4.554571,57.569501 4.49901,51.378611 C 4.468452,47.973622 4.4424,45.057459 4.441116,44.898251 4.439316,44.674953 3.1947444,44.60878 -1.0032636,44.60878 c -5.025764,0 -5.4425988,0.031 -5.4492716,0.405259 -0.00397,0.222892 -8.105e-4,3.08865 0.00701,6.368351 0.00966,4.045828 -0.064494,5.963093 -0.2306339,5.963093 -0.1667517,0 -0.2385605,-2.068593 -0.2250895,-6.48414 l 0.019781,-6.484139 H 4.5680695 16.017604 v 6.715716 6.715716 L 4.4966768,57.754899 c -6.3365099,-0.02955 -8.9156924,-0.08336 -5.7315165,-0.119568 z M -6.7571022,13.403856 c -0.059153,-0.09553 2.4096704,-0.173683 5.4862732,-0.173683 3.0766031,0 5.6198759,-0.07816 5.6517176,-0.173682 0.031842,-0.09552 0.057894,-10.2298881 0.057894,-22.5208065 V -31.81144 H 2.4703831 0.5019835 l -0.003546,8.163069 c -0.001945,4.489688 -0.0801074,8.283574 -0.17368232,8.430861 -0.0935749,0.147285 -0.14047356,-3.558783 -0.10421912,-8.235705 0.064344,-8.300568 0.0546729,-8.513673 -0.40525874,-8.929905 -0.39757365,-0.359799 -0.47117582,-0.710197 -0.47117582,-2.243128 0,-2.782117 -0.0752741,-2.743026 5.2819966,-2.743026 5.354781,0 5.216831,-0.06421 5.332471,2.482227 0.076534,1.685296 0.036672,1.883824 -0.5082732,2.531456 l -0.5913212,0.702744 -0.014057,8.029769 c -0.01533,8.75954 0.00245,8.891372 1.3270023,9.834529 0.354995,0.25278 1.242348,0.625729 1.971892,0.828775 0.729547,0.203049 1.899601,0.528402 2.600119,0.723009 l 1.273671,0.353835 V 0.84730302 13.577538 H 4.6840238 c -6.2334679,0 -11.3819755,-0.07816 -11.4411283,-0.173682 z M -6.904916,1.1439733 c -0.0022,-7.3805489 0.080897,-11.9068143 0.2201956,-11.9929053 0.3068124,-0.189621 0.3165689,23.029863 0.00987,23.500164 -0.1492457,0.228863 -0.2277339,-3.6968346 -0.2300702,-11.5072587 z m -0.00355,-12.5885053 c 0,-0.302384 1.56662,-0.977392 1.9320592,-0.832464 0.1473542,0.05844 -0.07972,0.182915 -0.5046101,0.276618 -0.4248899,0.0937 -0.8268242,0.311861 -0.8931877,0.484803 -0.1421597,0.370462 -0.5342614,0.422601 -0.5342614,0.07104 z m 2.8947053,-1.146065 c 0.2547341,-0.109464 0.6715716,-0.19596 0.9263057,-0.192216 0.3723251,0.0055 0.3496181,0.04317 -0.1157882,0.192216 -0.7917992,0.253578 -1.4006263,0.253578 -0.8105175,0 z m 1.5245447,-0.308226 c 0.401167,-0.318684 2.27856408,-1.239615 2.17045285,-1.064689 -0.14321242,0.231725 -1.81951145,1.141338 -2.10333315,1.141338 -0.089985,0 -0.1201891,-0.03449 -0.06712,-0.07665 z"
                 id="path12397" />
              <path
                 style="fill:#2b2c28;stroke-width:0.231576"
                 d="m 2.4786905,-31.984679 c -2.99599759,-0.09907 -3.13458913,-0.214281 -3.13458913,-2.605678 0,-2.699569 -0.0749133,-2.663129 5.47480523,-2.663129 3.7479112,0 4.5365679,0.05805 4.7194577,0.347365 0.1207717,0.191051 0.2211809,1.253288 0.2231308,2.360527 0.00521,2.96155 0.4201449,2.815645 -7.2828046,2.560915 z"
                 id="path12395" />
            </g>
          </g>
        </g>
      </g>
    </g>
  </g>
</svg>
