<?xml version="1.0" encoding="UTF-8" standalone="no"?>
<!-- Created with Inkscape (http://www.inkscape.org/) -->

<svg
   width="64"
   height="64"
   viewBox="0 0 16.933333 16.933334"
   version="1.1"
   id="svg5"
   inkscape:version="1.2 (dc2aedaf03, 2022-05-15)"
   sodipodi:docname="amandes_effilees.svg"
   xmlns:inkscape="http://www.inkscape.org/namespaces/inkscape"
   xmlns:sodipodi="http://sodipodi.sourceforge.net/DTD/sodipodi-0.dtd"
   xmlns="http://www.w3.org/2000/svg"
   xmlns:svg="http://www.w3.org/2000/svg">
  <sodipodi:namedview
     id="namedview7"
     pagecolor="#ffffff"
     bordercolor="#666666"
     borderopacity="1.0"
     inkscape:pageshadow="2"
     inkscape:pageopacity="0.0"
     inkscape:pagecheckerboard="0"
     inkscape:document-units="mm"
     showgrid="false"
     units="px"
     inkscape:zoom="11.859035"
     inkscape:cx="44.270045"
     inkscape:cy="41.150061"
     inkscape:window-width="1920"
     inkscape:window-height="1017"
     inkscape:window-x="1912"
     inkscape:window-y="-8"
     inkscape:window-maximized="1"
     inkscape:current-layer="g7038"
     inkscape:showpageshadow="2"
     inkscape:deskcolor="#d1d1d1" />
  <defs
     id="defs2" />
  <g
     inkscape:label="Calque 1"
     inkscape:groupmode="layer"
     id="layer1">
    <g
       id="g4128"
       transform="translate(-0.63104184,0.12620835)">
      <g
         id="g5578"
         transform="translate(0.08924235,0.08924306)">
        <g
           id="g7038"
           transform="matrix(1.1558015,0,0,1.1558015,-1.5234094,-1.3012974)">
          <path
             style="fill:#f9e7ca;stroke-width:0.0155687"
             d="M 6.9127814,12.409008 C 6.252702,12.35961 5.6570943,12.029491 5.0013295,11.949901 5.0998808,10.596935 7.8680673,8.2684219 9.2701064,8.6211978 10.023299,9.0130134 9.9969596,9.6382364 10.42808,9.7009788 10.323362,9.2390548 9.9852132,8.8318975 9.6260591,8.6276002 9.477253,8.582318 9.494184,8.5528966 9.4004481,8.5319322 9.2632213,8.4537119 9.0317238,8.4538986 8.9373718,8.4243334 8.152696,8.416834 7.6438266,8.6618538 6.9911794,9.0372733 6.7109779,9.213313 6.4295473,9.5089784 6.204423,9.7379549 5.8915304,10.137272 5.6795675,10.111325 5.1164172,9.9876088 4.0339748,9.6025788 3.1818276,8.6836476 2.7810601,7.6165159 2.7066715,7.299036 2.3396808,7.0081126 2.3739778,6.7022233 2.5864804,6.4772916 2.9520043,6.601695 3.2180646,6.4914377 3.7474868,6.369585 4.272986,6.1881202 4.8233363,6.2387968 5.0011749,6.1877827 5.2343583,6.3380992 5.3666066,6.2186327 5.7800441,5.6609314 6.1672315,5.0538695 6.7820866,4.6932986 7.5984069,4.1743633 8.6484818,3.7748367 9.6164934,4.078442 c 0.5169656,0.1594043 0.9234556,0.590451 1.0716936,1.1070079 1.074306,-0.7325707 2.557999,-0.5946209 3.623061,0.08005 0.170067,0.2263174 0.972499,0.2021953 0.736268,0.5938296 -0.293107,0.3010169 -0.592769,0.6022439 -0.830529,0.9540138 0.560429,0.1151957 1.10626,0.3045756 1.681501,0.3348572 0.436075,0.1034123 0.0034,0.4793705 -0.06341,0.6936959 -0.285365,0.5986416 -0.524035,1.2355018 -1.013156,1.706087 -0.184421,0.3308756 -0.928386,0.4808746 -0.474315,0.8967566 0.183431,0.40569 0.419083,0.801535 0.629761,1.183068 -0.119767,0.336392 -0.663833,0.162966 -0.932138,0.323521 -0.477334,0.147426 -0.964541,0.29162 -1.469975,0.247445 -0.853965,-0.02105 -1.739603,-0.294629 -2.374363,-0.884404 -0.175653,-0.294626 -0.2849678,0.168423 -0.4657729,0.251631 -0.683531,0.629424 -1.6415232,0.893924 -2.5578131,0.855111 -0.088897,0.0046 -0.176398,4e-4 -0.2645216,-0.0121 z M 6.2588967,9.6706394 c 0.046006,-0.085604 0.018197,0.065878 0,0 z m 4.0322893,-0.053792 c 0.04972,-0.059755 0.105119,0.033531 0,0 z M 6.9984091,9.0945984 c -0.024344,-0.062475 0.090299,0.061508 0,0 z m 0.1634712,-0.108981 c -0.08069,-0.060064 0.10138,0.043086 0,0 z"
             id="path7048"
             sodipodi:nodetypes="ccccccccccccccccccccccccccccccccccccccccc" />
          <path
             style="fill:#eed4ab;stroke-width:0.0155687"
             d="m 7.3798419,12.206705 c -0.729445,-0.08085 -1.4549358,-0.235055 -2.1677143,-0.39965 -0.2406556,-0.09695 0.1883482,-0.18254 0.2909304,-0.214233 0.6685223,-0.16015 1.361955,-0.04977 2.0419465,-0.06936 0.798093,0.0316 1.6162012,-0.297154 2.1506884,-0.891602 0.1777527,-0.248205 0.3147241,-0.624341 0.6624501,-0.6654277 0.02189,0.5359897 -0.281465,1.0198367 -0.6760621,1.3592927 -0.3934828,0.347635 -0.8562392,0.641659 -1.3448094,0.828838 -0.3152917,0.05536 -0.6379342,0.08412 -0.9574296,0.05214 z m 6.9592011,-0.529772 c -0.592624,-0.1812 -1.210986,-0.121118 -1.817519,-0.148922 -0.674007,-0.0986 -1.270222,-0.50218 -1.703475,-1.016967 -0.06333,-0.04229 -0.273148,-0.228484 -0.340037,-0.345669 C 10.551613,9.3473996 9.9255808,8.5428136 9.103963,8.4308207 8.5549205,8.3581744 8.0025507,8.495612 7.5066212,8.7321139 7.3972766,8.7475038 7.2222591,8.54366 7.3037623,8.8387791 6.7235872,9.1585779 6.2108581,9.605292 5.8193977,10.140131 4.4481049,9.9948183 3.29372,8.9291669 2.8100251,7.6707858 2.6814921,7.3666041 2.5124997,7.0687723 2.3604985,6.7846638 2.3561213,6.603964 2.6336174,6.5407994 2.7576206,6.6556397 3.0486106,6.7557716 3.3769925,6.5739686 3.6852718,6.6022102 4.3891042,6.5542409 5.1017784,6.4835345 5.8042135,6.5725842 6.5047498,6.6596344 7.1001764,7.1073866 7.5439477,7.6337545 7.7960585,7.3764358 7.2546612,7.1429848 7.1006321,6.9677117 6.5767225,6.5894179 5.9527613,6.3949467 5.3249685,6.2761183 5.7630653,5.7292537 6.1184672,5.0908331 6.7419807,4.725277 7.5324344,4.1991685 8.518856,3.8334476 9.4726122,4.0359061 10.037163,4.181768 10.51969,4.6132737 10.683346,5.1794233 c 0.528357,-0.3388346 1.160285,-0.5139448 1.788957,-0.466503 0.723037,-0.022722 1.404888,0.2952501 2.017167,0.6497254 0.152264,0.1741744 0.716475,0.1357299 0.581287,0.4584164 -0.09324,0.1646828 -0.334972,0.07814 -0.424874,0.2650778 -0.303817,0.2114163 -0.532533,0.6605323 -0.91143,0.7042947 -0.260762,0.089343 -0.189994,-0.2659871 -0.406725,-0.021687 -0.287635,0.1386543 -0.645452,0.1127975 -0.945364,0.2458801 0.03278,0.1590016 0.623816,0.1521988 0.711567,0.3860212 0.0092,0.3052512 -0.310677,0.2152263 -0.43644,0.3916681 -0.262439,0.2811429 -0.540805,0.546775 -0.81394,0.8173993 0.319931,-0.03592 0.713515,0.3535866 0.958373,0.1932239 0.348948,-0.3226921 0.545629,-0.5398992 0.95285,-0.8801478 0.04057,-0.065534 0.188994,-0.077359 0.23445,-0.228378 0.04274,-0.032888 -0.04119,-0.2544209 0.180747,-0.189742 0.510034,0.021022 0.982188,-0.130298 1.484487,-0.2319119 0.388673,0.0112 0.10489,0.3712742 -0.01161,0.553223 -0.447688,0.7740884 -0.855163,1.6018594 -1.553058,2.1874485 0.335749,0.519127 0.555036,1.104921 0.888813,1.624587 -0.119254,0.02495 -0.436342,0.09425 -0.639561,0.03891 z M 11.349856,8.5730473 c -0.08295,-0.1296759 -0.04936,0.1376821 0,0 z m 3.545446,-1.0914308 c -0.08793,-0.016425 -0.01526,0.032643 0,0 z"
             id="path7046"
             sodipodi:nodetypes="scccccccssccccccccccccccccccccccccccccccccccccccccccc" />
          <path
             style="fill:#e3c69c;stroke-width:0.0155687"
             d="M 14.560291,11.562487 C 13.54337,11.006192 13.086509,9.7174442 11.928852,9.3709543 11.544282,9.2100327 11.116355,9.1695301 10.71726,9.2945963 c -0.165738,0.00198 -0.405676,0.063713 -0.492149,-0.1245095 0.586051,-0.5592085 1.458945,-0.4321823 2.163233,-0.222683 0.331428,0.099605 0.671196,0.1995816 0.899184,0.4848395 0.620839,0.6042947 1.013317,1.3933897 1.460627,2.1238107 0.06459,0.149895 -0.149312,0.03236 -0.187864,0.0064 z M 5.6127964,10.104084 C 5.4104746,10.059555 5.2379126,10.028749 5.1053953,9.9574861 4.9904875,9.9389945 4.8630874,9.8736468 4.7253814,9.8148939 4.3909088,9.6227009 4.0669608,9.3699068 3.7968119,9.1463242 3.578379,8.9095279 3.3997816,8.7107763 3.2257986,8.4652607 3.0710376,8.2186428 3.0344759,8.1550563 2.9284663,7.9258045 2.863179,7.7247163 2.6814134,7.3823809 2.5586821,7.1377829 2.1048928,6.4599751 2.8544334,6.6328213 3.2853035,6.8152372 3.8809769,6.9959636 4.5092913,6.883292 5.111813,6.9994957 5.7749221,7.1496585 6.3166167,7.5872633 6.7559598,8.0879364 6.9237176,8.3367038 7.3090522,8.5044907 7.2897658,8.839965 6.7571085,9.1323766 6.2962587,9.5394009 5.9090594,10.005366 c -0.047029,0.07514 -0.1145472,0.16643 -0.296263,0.09872 z M 7.4654696,8.7179693 C 7.3866102,8.5554049 7.4179916,8.4006985 7.2873002,8.3178827 7.3203588,8.0138066 7.469959,7.7369445 7.6486764,7.491799 7.1330592,6.8165964 6.3067039,6.4774918 5.4993016,6.301828 6.1900537,5.591936 6.8858745,4.8406587 7.7667465,4.3597429 8.1468993,4.1965231 8.5583556,4.1424731 8.9691728,4.1687732 c 0.5476403,-0.041124 1.1277752,0.2075892 1.3954202,0.7030876 0.126462,0.1877193 0.180722,0.4113745 0.227118,0.6302108 0.307827,0.1770176 -0.07112,-0.4902903 0.3417,-0.4280877 0.133127,-0.1521176 0.27986,-0.1233935 0.39183,-0.2019079 0.159681,-0.046227 0.178949,-0.043044 0.314164,-0.086811 1.204114,-0.1899941 2.167931,0.1233591 3.155388,0.7625112 0.108154,0.00241 0.379782,0.093538 0.24989,0.1948065 -0.240909,0.096748 -0.379078,0.3530412 -0.684074,0.3855375 C 14.05173,6.2317015 13.756905,6.5185561 13.489607,6.6178653 13.21298,6.3887536 12.803975,6.52992 12.472484,6.4400817 12.017147,6.3855687 11.553852,6.3531273 11.097909,6.392317 c -0.495571,0.068455 0.136097,0.1458442 0.326864,0.2140336 0.547046,0.180728 1.023136,0.5432883 1.58664,0.6838159 C 13.235874,7.4764713 12.85476,7.4317166 12.818936,7.5794434 12.598282,7.8820246 12.140239,7.9021557 11.859995,8.1525789 11.591609,8.2772891 11.389192,8.6940086 11.117959,8.3929505 10.332724,8.4199653 9.5412424,8.2417748 8.7598051,8.3510181 8.3162933,8.424636 7.8792559,8.5885086 7.4654696,8.7179693 Z M 14.697123,5.5043407 c -0.02783,-0.060489 -0.08741,0.041647 0,0 z"
             id="path7044"
             sodipodi:nodetypes="cccccccccccccccccccccsccccccccccccccccccccccccccc" />
          <path
             style="fill:#dbb785;stroke-width:0.0155687"
             d="m 14.574938,11.558342 c -0.716293,-0.36637 -1.12262,-1.110718 -1.71091,-1.6331533 -0.402712,-0.4128372 -0.96667,-0.6301946 -1.528442,-0.7119005 -0.356439,-0.063628 -0.712087,0.1857005 -1.061204,0.03578 -0.0821,-0.1813099 0.251281,-0.2822704 0.393,-0.3570789 0.736653,-0.2648695 1.535706,-0.011607 2.239801,0.2399388 0.83811,0.5707048 1.267922,1.5341875 1.803084,2.3597425 0.130556,0.206585 -0.04885,0.123495 -0.135332,0.06668 z M 5.900817,9.9386716 C 5.3996012,9.8646043 4.8999606,9.7192395 4.4477147,9.4950617 3.5879067,8.8644009 3.1876976,7.8292853 2.6347429,6.9539042 2.4701622,6.5395978 3.0760792,7.0518435 3.1960568,7.1461355 3.7650814,7.6804138 4.1893981,8.3480977 4.7725327,8.8694225 5.2239407,9.2310026 5.7941696,9.4528391 6.3699243,9.5032319 6.2070941,9.6282894 6.0859548,9.8952154 5.900817,9.9386716 Z M 7.4519565,8.701025 C 7.3904903,8.5670385 7.4053135,8.3685656 7.4380481,8.2154863 7.5958639,7.5760398 8.1875982,7.1650152 8.7532972,6.9010686 9.0641688,6.7595498 9.3884151,6.6253424 9.7209911,6.5569028 c 1.0682199,-0.050521 2.0413939,0.4874905 3.0294199,0.8125026 0.23607,0.072278 0.01842,0.345881 -0.143334,0.3782735 -0.455346,0.189457 -0.878735,0.4479245 -1.254528,0.7676738 C 11.219321,8.3578433 11.019593,8.3712498 10.834379,8.3879119 10.208424,8.3652568 9.5812065,8.2782814 8.9554421,8.3140427 8.452894,8.3808734 7.9634641,8.5302251 7.4947926,8.72095 Z M 7.5826677,7.4059573 C 7.1110523,6.8306295 6.3715958,6.5205229 5.6870731,6.3378273 6.2927731,6.0610887 6.7367697,5.5351087 7.3300709,5.243067 7.7137385,5.0683168 8.128084,4.995053 8.5463292,5.0240696 c 0.4784704,-0.00756 0.9538259,0.085649 1.4243831,0.161704 0.2123897,0.1311129 0.6841287,0.1731327 0.6316547,0.5079759 0.04164,0.2405508 0.223602,0.00772 0.135398,-0.1644271 -0.06523,-0.2794161 0.35331,-0.292741 0.518253,-0.4216913 0.376422,-0.1358601 0.764284,-0.3417063 1.17445,-0.2586695 0.849179,0.089376 1.613966,0.5268573 2.392603,0.8401858 0.208292,0.1296305 -0.155066,0.1342378 -0.252292,0.1432198 -0.898589,0.038869 -1.743403,-0.4340809 -2.64308,-0.374298 -0.418932,0.060954 -0.845501,0.1815099 -1.195775,0.426095 -0.03516,0.1878983 -0.09075,0.3690902 -0.17638,0.5404103 -0.98368,-0.089727 -2.0605866,0.1511447 -2.7463414,0.9024952 -0.084627,0.049622 -0.1549734,0.2620388 -0.2265349,0.078888 z"
             id="path7042" />
          <path
             style="fill:#d3a56e;stroke-width:0.0155687"
             d="M 7.4265479,8.3593087 C 7.4550403,8.0667165 7.5994143,7.7924192 7.7943204,7.5768475 8.2922446,7.0539178 8.9834549,6.782251 9.6582558,6.571085 c 0.3171566,-0.039136 0.6364062,0.017734 0.9481082,0.074123 0.730242,0.1651259 1.413377,0.4816224 2.117781,0.7274978 0.100818,0.020924 0.204566,0.1495768 0.04238,0.1457449 -0.164978,0.043183 -0.333473,0.048066 -0.503007,0.041631 -0.198928,-0.00302 -0.399447,0.012515 -0.594497,-0.035676 C 11.163904,7.4445728 10.664158,7.3196184 10.155128,7.2693608 9.913446,7.2641862 9.6707199,7.2361389 9.4314346,7.2834836 9.150465,7.334124 8.8797827,7.4394203 8.6172773,7.5496252 8.4150578,7.6473977 8.2094731,7.7585517 8.0720115,7.9415186 7.9250643,8.1160937 7.7841649,8.3113917 7.554622,8.3832721 7.5083826,8.3832906 7.3966465,8.4599745 7.4265479,8.3593087 Z M 7.6190455,7.4466952 C 7.4562694,7.2505296 7.2767798,7.0678266 7.0612016,6.9296774 6.9698627,6.8630372 6.6848833,6.7143146 6.9572983,6.7831071 7.376715,6.8620113 7.7987747,6.9315172 8.2261558,6.945879 8.1027563,7.0432195 7.9791195,7.1402988 7.8735116,7.258404 7.7974575,7.3345493 7.7214033,7.4106946 7.6453492,7.48684 7.6365813,7.4734584 7.6278134,7.4600768 7.6190455,7.4466952 Z M 9.8052664,6.3918528 C 10.011724,6.1971176 10.155684,5.9155119 10.432029,5.808941 c 0.04624,-0.010875 0.182368,-0.081552 0.170421,-0.00122 -0.0181,0.1802276 -0.07301,0.3517056 -0.161925,0.5088943 -0.01333,0.1060559 -0.105194,0.086809 -0.186324,0.084687 -0.161619,4.111e-4 -0.3237536,-0.00153 -0.4845584,0.016921 0.011865,-0.00879 0.023785,-0.017593 0.035624,-0.026372 z"
             id="path7040" />
        </g>
      </g>
    </g>
  </g>
</svg>
