<?xml version="1.0" encoding="UTF-8" standalone="no"?>
<!-- Created with Inkscape (http://www.inkscape.org/) -->

<svg
   width="64"
   height="64"
   viewBox="0 0 16.933333 16.933334"
   version="1.1"
   id="svg5"
   inkscape:version="1.2 (dc2aedaf03, 2022-05-15)"
   sodipodi:docname="armoise.svg"
   xmlns:inkscape="http://www.inkscape.org/namespaces/inkscape"
   xmlns:sodipodi="http://sodipodi.sourceforge.net/DTD/sodipodi-0.dtd"
   xmlns="http://www.w3.org/2000/svg"
   xmlns:svg="http://www.w3.org/2000/svg">
  <sodipodi:namedview
     id="namedview7"
     pagecolor="#ffffff"
     bordercolor="#666666"
     borderopacity="1.0"
     inkscape:pageshadow="2"
     inkscape:pageopacity="0.0"
     inkscape:pagecheckerboard="0"
     inkscape:document-units="mm"
     showgrid="false"
     units="px"
     inkscape:zoom="11.313709"
     inkscape:cx="47.729707"
     inkscape:cy="34.117902"
     inkscape:window-width="1920"
     inkscape:window-height="1017"
     inkscape:window-x="1912"
     inkscape:window-y="-8"
     inkscape:window-maximized="1"
     inkscape:current-layer="g20213"
     inkscape:showpageshadow="2"
     inkscape:deskcolor="#d1d1d1" />
  <defs
     id="defs2" />
  <g
     inkscape:label="Calque 1"
     inkscape:groupmode="layer"
     id="layer1">
    <g
       id="g4128"
       transform="translate(-0.63104184,0.12620835)">
      <g
         id="g5578"
         transform="translate(0.08924235,0.08924306)">
        <g
           id="g7501"
           transform="translate(-0.06310417,0.94656242)">
          <g
             id="g9467"
             transform="translate(-0.08924275,-0.80318511)">
            <g
               id="g10302"
               transform="translate(0.31234979,-0.04462139)">
              <g
                 id="g11479"
                 transform="translate(-0.12620833,0.06310418)">
                <g
                   id="g11873"
                   transform="translate(-0.23575769,0.66462456)">
                  <g
                     id="g12382"
                     transform="translate(-121.98459,-82.267525)">
                    <g
                       id="g13305"
                       transform="matrix(0.13266609,0,0,0.13266609,114.63867,78.215696)">
                      <g
                         id="g17429"
                         transform="translate(0.90513437,5.6640979)">
                        <g
                           id="g18595"
                           transform="translate(-3.3634362,-8.7449387)">
                          <g
                             id="g20213"
                             transform="translate(-0.70511121,-3.173)">
                            <path
                               style="fill:#6eb88b;stroke-width:0.218067"
                               d="m 125.40814,135.71931 c -0.0188,-4.19127 -0.0375,-8.38255 -0.0563,-12.57382 -2.40266,-0.6885 -4.82165,-2.27218 -7.30312,-0.74417 -4.39328,1.23474 -7.35758,4.78828 -9.83479,8.38991 -1.68085,3.30757 -7.09812,3.09011 -8.215012,-0.68972 -0.425295,-1.41926 0.774392,-4.25188 -1.553688,-4.26927 -2.520536,0.3809 -3.949342,3.36289 -6.260632,4.28005 -4.096496,1.93059 -8.812844,-3.33812 -6.417687,-7.11041 1.313427,-1.60609 2.267836,-4.13522 0.52277,-5.78371 -2.486118,-1.96234 -5.830657,0.89701 -8.404488,-0.94466 -2.643298,-1.92782 -1.06042,-5.39399 -0.509184,-7.98856 0.140455,-2.5723 2.126259,-5.58001 4.952536,-5.03608 2.434283,0.77677 4.083211,3.52021 6.824154,2.95562 2.225329,-0.70239 2.215655,-3.07935 1.999527,-5.0025 -0.642187,-3.916381 4.50349,-6.97555 7.720712,-4.689228 3.066342,1.479987 2.253092,6.236598 5.084692,7.730868 2.37887,0.52743 2.00432,-3.06744 3.92208,-3.76599 2.04224,-1.363018 5.30917,-0.508221 6.29866,1.90839 1.27216,4.66969 1.0359,10.22164 4.98853,13.72658 2.00292,1.09872 3.84838,2.64809 6.19231,2.91584 0.16439,-6.10068 0.0932,-12.20559 0.12932,-18.30826 -4.48125,-5.741263 -11.34433,-8.746951 -17.76515,-11.731216 -2.05863,-1.736881 -1.57021,-5.746138 1.1228,-6.604329 1.61285,-1.112756 4.37752,0.879286 5.32552,-1.408992 1.14076,-1.738379 -0.87056,-3.818894 -2.74821,-3.227689 -2.25092,0.145126 -4.49846,0.08216 -6.28121,-1.531153 -5.247549,-2.991746 -4.81733,-12.045246 0.83983,-14.395777 2.84124,-1.497287 6.52846,-0.670717 8.76737,1.550086 1.95572,3.027902 7.84036,2.365176 7.3761,-1.603811 -0.30988,-3.102295 -4.09656,-3.50299 -6.26405,-4.982172 -2.66928,-1.265476 -3.75093,-4.927977 -1.90944,-7.300756 2.09251,-3.065627 6.04643,-1.691429 9.0919,-1.354964 -1.58235,-2.312839 -3.84909,-5.157223 -2.34689,-8.072156 1.15229,-2.959764 4.40031,-3.771456 7.23999,-3.412688 3.33669,-0.603054 6.90816,2.123742 6.67968,5.621971 0.13778,2.299632 -1.77854,4.021308 -2.81252,5.919174 3.02855,-0.477159 7.31867,-1.774444 9.23218,1.511974 1.73919,2.446101 0.49207,6.174364 -2.30465,7.197758 -2.21796,1.471034 -6.20259,2.018791 -5.98532,5.458639 0.21224,2.851653 3.87854,4.080776 5.85285,2.140642 2.28296,-1.760331 4.75297,-3.870238 7.85744,-3.316095 3.32934,0.04166 6.35011,3.050834 6.80731,6.273645 0.0119,2.247062 0.30306,4.559137 -1.11885,6.472396 -1.2269,1.978269 -3.56461,3.385501 -5.80668,3.829416 -2.22559,0.0087 -6.47698,-0.608782 -5.82299,2.759544 0.66681,2.830388 3.59492,0.904401 5.32574,1.796724 3.5484,1.04222 3.41691,6.389586 0.0351,7.481195 -6.12367,2.20311 -11.99758,5.355624 -16.49031,10.136238 0,6.393646 0,12.787286 0,19.180936 2.63154,-1.57818 5.8482,-2.50466 8.16816,-4.45414 2.67698,-3.60287 2.539,-8.34025 3.76379,-12.42813 1.26496,-2.479802 4.57125,-3.097093 6.72692,-1.51127 1.2597,1.18909 1.97661,4.95499 4.14159,3.08625 1.93493,-2.43797 1.9125,-6.607969 5.25608,-7.731842 3.35882,-1.446689 7.56501,1.762462 6.82174,5.432902 -0.344,1.90412 0.16594,4.37715 2.38752,4.7026 3.20856,0.48501 5.11867,-4.24449 8.43646,-2.74129 2.84614,0.9668 2.66202,4.48123 3.47946,6.90989 0.94901,2.19665 0.76254,5.25696 -1.75391,6.25053 -2.45429,1.09057 -5.47627,-1.22567 -7.76447,0.64907 -1.53708,1.58862 -0.78249,3.88692 0.49399,5.41054 2.19242,3.32419 -0.86129,8.36436 -4.91592,7.72087 -3.4374,0.0267 -4.79526,-4.77921 -8.20113,-4.57269 -2.00366,1.34023 0.23478,4.39064 -2.00614,5.81357 -1.88595,2.44075 -5.75563,1.76372 -7.09552,-0.80929 -2.37414,-3.23565 -4.92609,-6.60709 -8.83215,-8.04546 -1.56095,-0.65724 -3.47199,-1.27667 -5.1328,-1.00735 -1.42859,0.85953 -4.53027,0.52746 -3.87145,2.87368 -0.0353,7.87858 -0.0705,15.75716 -0.10581,23.63574 -1.46901,-0.34437 -4.6559,1.03684 -3.9249,-1.51739 -0.0165,-3.6854 -0.0329,-7.37081 -0.0494,-11.05621 z"
                               id="path20219" />
                            <path
                               style="fill:#57ae78;stroke-width:0.218067"
                               d="m 102.45482,132.61629 c -2.803869,-0.95034 -2.41385,-3.96473 -2.607927,-6.09714 -0.841165,-1.44051 -2.412325,-0.72049 -3.430526,0.0919 -1.877577,1.39969 -3.247214,3.61593 -5.788623,3.81483 -2.468964,-0.009 -5.11037,-1.81056 -5.277127,-4.39289 -0.157822,-1.75593 0.376995,-3.29148 1.488251,-4.64363 1.555057,-2.03776 -0.291916,-5.54576 -2.963745,-4.91403 -2.227009,0.22274 -5.16964,1.13992 -6.667343,-1.13312 -1.762368,-2.14635 0.03995,-4.85013 0.319467,-7.2305 0.281927,-2.20774 1.501161,-4.8975 4.081142,-4.74024 2.83873,-0.17773 4.618854,3.84092 7.558504,2.93211 2.267515,-0.90795 2.35392,-3.06631 2.075965,-5.10215 -0.541945,-3.631908 3.923767,-6.483662 7.080852,-4.832943 3.23574,1.249817 2.82216,5.550883 5.04073,7.674783 1.46234,1.2891 2.72631,-0.50017 3.0817,-1.87272 1.07451,-2.461498 4.95746,-3.090913 6.72289,-0.95171 2.25706,2.72895 1.441,6.96323 2.89805,10.15162 0.60978,2.14675 3.78598,5.47481 0.13687,3.22 -8.03017,-3.84615 -17.231188,-5.17077 -26.006022,-3.72324 -0.365455,3.04404 1.162064,4.26712 3.861374,3.29398 9.120638,-0.72943 18.356138,1.93172 26.013738,6.90425 1.95258,0.93044 -2.00627,0.78799 -2.74418,1.40144 -4.40954,1.67263 -7.23322,5.52236 -9.98933,9.13053 -1.1733,1.42732 -3.27891,1.92418 -4.88471,1.0189 z m 46.86447,-0.0175 c -2.18302,-1.15801 -2.97405,-3.94252 -4.8539,-5.51447 -1.76423,-3.72219 -9.11979,-4.9529 -10.5427,-6.00124 10.03302,-5.38636 21.48978,-8.1949 32.88152,-7.68826 1.91607,0.79862 1.80132,-4.45331 0.26802,-3.95882 -7.38549,-0.0136 -14.77852,0.75013 -21.87093,2.91341 -2.00295,-0.21646 -9.0814,4.7164 -6.9122,1.269 2.24457,-3.33812 1.85801,-7.63998 3.1708,-11.26459 1.01325,-2.657364 4.99954,-3.350112 6.82218,-1.13141 1.27291,0.83393 1.0297,3.49912 2.976,3.22385 2.63594,-0.95502 2.43935,-4.750664 4.05837,-6.741788 1.50128,-1.892493 4.45286,-2.344079 6.54158,-1.103227 2.00488,1.232694 2.84038,3.736445 2.26565,6.004215 -0.49466,2.10041 1.50752,4.25721 3.6604,3.70971 2.27597,-0.46338 3.75299,-3.25971 6.33942,-2.97984 2.24849,0.16817 3.44908,2.31567 3.65307,4.36914 0.61671,2.78455 2.29709,6.08771 -0.19014,8.4938 -2.34198,1.57088 -5.13005,-0.28873 -7.59149,0.4134 -2.02634,0.80322 -2.69406,3.58493 -1.15653,5.16025 2.21357,2.30042 1.62314,6.45587 -1.21668,7.87351 -2.17524,1.44698 -5.12009,0.55326 -6.70085,-1.38456 -1.39521,-1.14891 -3.16336,-3.42056 -5.09034,-2.18195 -1.09238,1.56157 0.30732,3.67767 -1.10265,5.15942 -1.11432,1.65071 -3.64982,2.3517 -5.4086,1.36045 z M 123.81376,98.776672 c -4.28057,-4.458272 -9.80766,-7.322827 -15.54293,-9.407923 -3.20697,-2.005196 -1.41595,-7.624361 2.28157,-7.192856 1.51671,0.144631 3.69691,0.268893 3.93936,-1.730081 0.55437,-2.259747 -1.72934,-3.248284 -3.54069,-2.75873 -1.83075,0.302643 -3.50462,-0.127207 -5.06021,-1.10936 -2.37664,-1.25195 -4.50829,-3.844555 -4.09022,-6.688577 -0.0385,-1.807963 -0.23087,-3.654945 1.01642,-5.136764 1.30686,-2.385857 4.15392,-3.735406 6.84737,-3.470194 3.50008,-0.414244 5.41037,3.599184 8.51006,4.18303 2.17154,0.462142 4.43836,-1.492721 3.90638,-3.737737 0.2491,-2.711198 -3.12635,-3.158683 -4.89222,-4.365314 -2.43358,-0.825691 -4.4274,-3.168908 -3.93949,-5.830254 0.45304,-3.283337 4.3027,-4.653454 7.18284,-3.660579 1.92467,0.622728 3.5071,0.322988 1.58304,-1.573674 -1.83076,-2.003989 -2.1962,-5.098282 -0.62511,-7.321397 1.9395,-2.592329 5.6595,-2.57816 8.57573,-2.108775 3.83661,0.286237 5.9852,5.429347 3.58552,8.420068 -3.21171,3.364209 0.28249,2.857769 3.11369,2.251236 2.84373,-0.14428 5.49531,2.474492 5.00205,5.368178 -0.25252,3.470847 -4.30313,4.396055 -6.85521,5.905979 -2.80735,0.861966 -2.88503,5.431301 -0.11142,6.361241 2.88749,1.416587 5.02835,-1.759296 7.32398,-3.018146 2.40392,-1.439431 5.61319,-1.135482 7.9471,0.270589 1.88237,1.551301 3.46863,3.707178 3.24254,6.262727 0.51661,3.465446 -1.6186,6.8054 -4.73925,8.22976 -2.02876,1.124267 -4.36171,0.909192 -6.58604,0.661425 -1.44694,0.718871 -2.24037,2.837714 -0.86,3.928506 1.42835,1.713877 4.1251,-0.29384 5.69351,1.370888 2.20777,1.296003 2.18304,4.94553 -0.0155,6.322656 -4.96726,2.309474 -10.37461,4.158927 -14.48796,7.985826 -1.78027,1.56739 -3.6499,4.01976 -3.17705,-0.331121 -1.38,-8.274111 -1.4316,-16.672158 -1.38567,-25.030981 0.25832,-5.769702 0.9305,-11.506294 1.56734,-17.243112 -2.60093,-0.98354 -4.40766,-0.726386 -4.03355,2.253914 -2.01789,14.140559 -1.76743,28.529772 0.35028,42.643258 0.75151,2.464572 -1.2915,-0.582505 -1.7263,-0.703706 z"
                               id="path20215" />
                          </g>
                        </g>
                      </g>
                    </g>
                  </g>
                </g>
              </g>
            </g>
          </g>
        </g>
      </g>
    </g>
  </g>
</svg>
