<?xml version="1.0" encoding="UTF-8" standalone="no"?>
<!-- Created with Inkscape (http://www.inkscape.org/) -->

<svg
   width="64"
   height="64"
   viewBox="0 0 16.933333 16.933334"
   version="1.1"
   id="svg5"
   inkscape:version="1.1.1 (3bf5ae0d25, 2021-09-20)"
   sodipodi:docname="arome_naturel_dorange.svg"
   xmlns:inkscape="http://www.inkscape.org/namespaces/inkscape"
   xmlns:sodipodi="http://sodipodi.sourceforge.net/DTD/sodipodi-0.dtd"
   xmlns="http://www.w3.org/2000/svg"
   xmlns:svg="http://www.w3.org/2000/svg">
  <sodipodi:namedview
     id="namedview7"
     pagecolor="#ffffff"
     bordercolor="#666666"
     borderopacity="1.0"
     inkscape:pageshadow="2"
     inkscape:pageopacity="0.0"
     inkscape:pagecheckerboard="0"
     inkscape:document-units="mm"
     showgrid="false"
     units="px"
     inkscape:zoom="5.6568543"
     inkscape:cx="40.393475"
     inkscape:cy="34.383067"
     inkscape:window-width="1920"
     inkscape:window-height="1017"
     inkscape:window-x="1912"
     inkscape:window-y="-8"
     inkscape:window-maximized="1"
     inkscape:current-layer="g21002" />
  <defs
     id="defs2">
    <pattern
       id="EMFhbasepattern"
       patternUnits="userSpaceOnUse"
       width="6"
       height="6"
       x="0"
       y="0" />
    <pattern
       id="EMFhbasepattern-5"
       patternUnits="userSpaceOnUse"
       width="6"
       height="6"
       x="0"
       y="0" />
    <pattern
       id="EMFhbasepattern-56"
       patternUnits="userSpaceOnUse"
       width="6"
       height="6"
       x="0"
       y="0" />
    <pattern
       id="EMFhbasepattern-6"
       patternUnits="userSpaceOnUse"
       width="6"
       height="6"
       x="0"
       y="0" />
    <pattern
       id="EMFhbasepattern-62"
       patternUnits="userSpaceOnUse"
       width="6"
       height="6"
       x="0"
       y="0" />
    <pattern
       id="EMFhbasepattern-8"
       patternUnits="userSpaceOnUse"
       width="6"
       height="6"
       x="0"
       y="0" />
    <pattern
       id="EMFhbasepattern-81"
       patternUnits="userSpaceOnUse"
       width="6"
       height="6"
       x="0"
       y="0" />
    <pattern
       id="EMFhbasepattern-9"
       patternUnits="userSpaceOnUse"
       width="6"
       height="6"
       x="0"
       y="0" />
    <pattern
       id="EMFhbasepattern-52"
       patternUnits="userSpaceOnUse"
       width="6"
       height="6"
       x="0"
       y="0" />
    <pattern
       id="EMFhbasepattern-0"
       patternUnits="userSpaceOnUse"
       width="6"
       height="6"
       x="0"
       y="0" />
    <pattern
       id="EMFhbasepattern-7"
       patternUnits="userSpaceOnUse"
       width="6"
       height="6"
       x="0"
       y="0" />
    <pattern
       id="EMFhbasepattern-65"
       patternUnits="userSpaceOnUse"
       width="6"
       height="6"
       x="0"
       y="0" />
    <pattern
       id="EMFhbasepattern-3"
       patternUnits="userSpaceOnUse"
       width="6"
       height="6"
       x="0"
       y="0" />
    <pattern
       id="EMFhbasepattern-90"
       patternUnits="userSpaceOnUse"
       width="6"
       height="6"
       x="0"
       y="0" />
    <pattern
       id="EMFhbasepattern-4"
       patternUnits="userSpaceOnUse"
       width="6"
       height="6"
       x="0"
       y="0" />
    <pattern
       id="EMFhbasepattern-2"
       patternUnits="userSpaceOnUse"
       width="6"
       height="6"
       x="0"
       y="0" />
    <pattern
       id="EMFhbasepattern-40"
       patternUnits="userSpaceOnUse"
       width="6"
       height="6"
       x="0"
       y="0" />
  </defs>
  <g
     inkscape:label="Calque 1"
     inkscape:groupmode="layer"
     id="layer1">
    <g
       id="g4128"
       transform="translate(-0.63104184,0.12620835)">
      <g
         id="g5578"
         transform="translate(0.08924235,0.08924306)">
        <g
           id="g7501"
           transform="translate(-0.06310417,0.94656242)">
          <g
             id="g9467"
             transform="translate(-0.08924275,-0.80318511)">
            <g
               id="g10302"
               transform="translate(0.31234979,-0.04462139)">
              <g
                 id="g11479"
                 transform="translate(-0.12620833,0.06310418)">
                <g
                   id="g11873"
                   transform="translate(-0.23575769,0.66462456)">
                  <g
                     id="g12382"
                     transform="translate(-121.98459,-82.267525)">
                    <g
                       id="g13305"
                       transform="matrix(0.13266609,0,0,0.13266609,114.63867,78.215696)">
                      <g
                         id="g17429"
                         transform="translate(0.90513437,5.6640979)">
                        <g
                           id="g18595"
                           transform="translate(-3.3634362,-8.7449387)">
                          <g
                             id="g21002"
                             transform="translate(1.7082278,-2.8204445)">
                            <path
                               style="fill:#feeadb;stroke-width:0.22056"
                               d="M 99.945119,119.05904 V 87.842845 l 2.747481,-7.657562 c 1.51112,-4.21166 3.8413,-10.684754 5.17818,-14.384653 1.33688,-3.699899 2.43294,-6.751902 2.43569,-6.782229 0.003,-0.03033 -0.88828,-0.05514 -1.98006,-0.05514 h -1.98504 V 48.155806 37.348352 h 18.96819 18.96818 v 10.807454 10.807455 h -1.90049 -1.90048 l 0.10593,0.405076 c 0.0583,0.22279 2.35263,6.709691 5.09861,14.415334 l 4.99268,14.010256 v 31.240653 31.24065 H 125.30956 99.945119 Z"
                               id="path21018" />
                            <path
                               style="fill:#dac6b4;stroke-width:0.22056"
                               d="M 99.945119,119.13263 V 87.990036 l 2.809131,-7.896579 2.80912,-7.896579 h 9.8731 9.87309 v -6.616809 -6.616808 l -6.34111,-8.16e-4 c -3.48761,-4.41e-4 -7.75545,-0.06551 -9.4841,-0.144589 l -3.14298,-0.143773 V 48.011218 37.348352 h 18.96819 18.96818 V 48.14753 58.946707 l -1.9439,0.06342 -1.94391,0.06342 5.12998,14.336419 5.12998,14.336419 0.012,31.264425 0.0121,31.26443 H 125.30956 99.945119 Z"
                               id="path21016" />
                            <path
                               style="fill:#ffeeaa;stroke-width:0.22056"
                               d="m 100.17178,118.90052 0.006,-31.374701 2.71565,-7.60933 2.71565,-7.609331 19.72026,-0.05403 19.72026,-0.05403 2.81214,7.925629 2.81215,7.925629 v 31.112434 31.11244 h -25.25415 -25.25416 l 0.006,-31.37471 z m 6.16959,-70.854994 V 37.348352 h 18.96819 18.96818 V 48.045526 58.7427 h -18.96818 -18.96819 z"
                               id="path21014" />
                            <path
                               style="fill:#0055d4;stroke-width:0.22056"
                               d="m 100.16568,139.13693 v -11.13829 h 8.15702 8.15701 l 0.57344,1.13162 0.57344,1.13163 1.05686,1.05686 1.05686,1.05686 1.30612,0.65932 1.30612,0.65933 1.29845,0.24003 c 0.71415,0.13202 1.37947,0.24003 1.4785,0.24003 h 0.18006 V 111.97738 89.780434 l -1.34668,0.122114 -1.34667,0.122111 -1.41687,0.697522 -1.41686,0.697519 -1.09953,1.099524 -1.09952,1.099522 -0.55186,1.089043 -0.55186,1.089041 h -8.15701 -8.15702 l 0.006,-4.135506 0.006,-4.135505 2.71565,-7.60933 2.71565,-7.609331 19.72026,-0.05466 19.72026,-0.05466 2.72144,7.683471 2.72145,7.683474 0.0722,31.355227 0.0722,31.35522 h -25.23562 -25.23562 z m 6.17569,-91.091404 V 37.348352 h 18.96819 18.96818 V 48.045526 58.7427 h -18.96818 -18.96819 z"
                               id="path21012" />
                            <path
                               style="fill:#ffdd55;stroke-width:0.22056"
                               d="M 125.30956,111.23378 V 72.192337 l 9.85077,0.05741 9.85078,0.05741 2.71937,7.609331 2.71938,7.60933 0.004,20.181272 c 0.002,11.0997 0.003,25.21831 0.002,31.3747 l -0.003,11.19344 H 137.88149 125.30956 Z M 106.34137,48.045526 V 37.348352 h 18.96819 18.96818 V 48.045526 58.7427 h -18.96818 -18.96819 z"
                               id="path21010" />
                            <path
                               style="fill:#0044aa;stroke-width:0.22056"
                               d="m 125.30956,142.22478 v -8.05046 h 0.57259 c 0.75245,0 2.8564,-0.61146 3.87729,-1.12685 0.44586,-0.22508 1.35284,-0.9093 2.01552,-1.52048 l 1.20487,-1.11124 0.63121,-1.20803 0.63121,-1.20804 8.10559,-4.4e-4 8.10559,-6e-4 v 11.13829 11.1383 h -12.57194 -12.57193 z m 8.61852,-46.935504 c -0.35078,-0.922612 -1.56541,-2.550043 -2.5008,-3.350699 -1.60991,-1.378027 -3.20383,-1.993668 -5.9523,-2.299056 l -0.16542,-0.01838 v -8.714403 -8.714401 l 9.85077,0.05741 9.85078,0.05741 2.7178,7.609331 2.71779,7.60933 0.003,4.135505 0.003,4.135506 h -8.16619 -8.16619 z M 106.34137,48.045526 V 37.348352 h 18.96819 18.96818 V 48.045526 58.7427 h -18.96818 -18.96819 z"
                               id="path21008" />
                            <path
                               style="fill:#00112b;stroke-width:0.22056"
                               d="M 106.34137,48.045526 V 37.348352 h 18.96819 18.96818 V 48.045526 58.7427 h -18.96818 -18.96819 z"
                               id="path21006" />
                            <path
                               style="fill:#002255;stroke-width:0.22056"
                               d="M 125.30956,48.045526 V 37.348352 h 9.48409 9.48409 V 48.045526 58.7427 h -9.48409 -9.48409 z"
                               id="path21004" />
                          </g>
                        </g>
                      </g>
                    </g>
                  </g>
                </g>
              </g>
            </g>
          </g>
        </g>
      </g>
    </g>
  </g>
</svg>
