<?xml version="1.0" encoding="UTF-8" standalone="no"?>
<!-- Created with Inkscape (http://www.inkscape.org/) -->

<svg
   width="64"
   height="64"
   viewBox="0 0 16.933333 16.933334"
   version="1.1"
   id="svg5"
   inkscape:version="1.2 (dc2aedaf03, 2022-05-15)"
   sodipodi:docname="artichaut_violet.svg"
   xmlns:inkscape="http://www.inkscape.org/namespaces/inkscape"
   xmlns:sodipodi="http://sodipodi.sourceforge.net/DTD/sodipodi-0.dtd"
   xmlns="http://www.w3.org/2000/svg"
   xmlns:svg="http://www.w3.org/2000/svg">
  <sodipodi:namedview
     id="namedview7"
     pagecolor="#ffffff"
     bordercolor="#666666"
     borderopacity="1.0"
     inkscape:pageshadow="2"
     inkscape:pageopacity="0.0"
     inkscape:pagecheckerboard="0"
     inkscape:document-units="mm"
     showgrid="false"
     units="px"
     inkscape:zoom="8"
     inkscape:cx="2.25"
     inkscape:cy="47.625"
     inkscape:window-width="1920"
     inkscape:window-height="1017"
     inkscape:window-x="1912"
     inkscape:window-y="-8"
     inkscape:window-maximized="1"
     inkscape:current-layer="g25315"
     inkscape:showpageshadow="2"
     inkscape:deskcolor="#d1d1d1" />
  <defs
     id="defs2" />
  <g
     inkscape:label="Calque 1"
     inkscape:groupmode="layer"
     id="layer1">
    <g
       id="g4128"
       transform="translate(-0.63104184,0.12620835)">
      <g
         id="g5578"
         transform="translate(0.08924235,0.08924306)">
        <g
           id="g7501"
           transform="translate(-0.06310417,0.94656242)">
          <g
             id="g9467"
             transform="translate(-0.08924275,-0.80318511)">
            <g
               id="g10302"
               transform="translate(0.31234979,-0.04462139)">
              <g
                 id="g11479"
                 transform="translate(-0.12620833,0.06310418)">
                <g
                   id="g11873"
                   transform="translate(-0.23575769,0.66462456)">
                  <g
                     id="g12382"
                     transform="translate(-121.98459,-82.267525)">
                    <g
                       id="g13305"
                       transform="matrix(0.13266609,0,0,0.13266609,114.63867,78.215696)">
                      <g
                         id="g17429"
                         transform="translate(0.90513437,5.6640979)">
                        <g
                           id="g18595"
                           transform="translate(-3.3634362,-8.7449387)">
                          <g
                             id="g21002"
                             transform="translate(1.7082278,-2.8204445)">
                            <g
                               id="g23814"
                               transform="translate(8.7253043,-1.1218249)">
                              <g
                                 id="g24838"
                                 transform="translate(11.143454,-0.85716864)">
                                <g
                                   id="g25315"
                                   transform="translate(-3.490122,2.4929446)">
                                <path
                                   style="fill:#aa87de;stroke-width:0.206282"
                                   d="m 99.095028,139.46387 v -7.73163 c -12.397115,-2.54954 -23.49152,-11.1039 -28.40126,-22.8672 -2.381555,-5.37843 -3.704104,-11.310013 -3.742699,-17.191525 -0.01746,-2.62776 4.370614,0.691343 5.903138,0.613797 2.845962,0.772449 -2.149856,-6.445109 -1.501181,-8.568006 -0.619568,-3.461446 -1.26632,-7.479785 -1.077566,-10.785211 3.108026,0.356855 9.42572,5.281668 6.709347,-0.436972 -0.08522,-3.763315 -0.266894,-7.605186 1.312182,-11.148928 1.719192,-3.541006 3.464769,-11.510668 7.943739,-7.427509 3.550774,-3.317791 6.658247,-7.215228 11.151669,-9.349928 6.098673,-3.573238 13.935893,-4.074516 20.189453,-0.644063 5.05859,2.349739 9.03171,6.351294 12.72938,10.423114 4.43166,-4.769501 6.33251,4.377118 7.84753,7.516688 1.58762,4.462182 1.60962,9.349065 0.40614,13.888066 2.04576,-0.218947 8.5748,-5.210331 7.45371,-0.602953 -0.37494,5.971392 -1.51226,11.890736 -3.5317,17.520709 2.07647,-0.211155 8.11025,-4.344657 6.86938,0.143345 -0.63908,13.499586 -7.50555,27.202416 -19.5287,33.949786 -3.94843,2.35815 -8.31969,3.92976 -12.78604,4.97482 l -0.62324,15.33058 -17.323274,0.12465 z"
                                   id="path25319"
                                   sodipodi:nodetypes="ccccccccccccccccccccccc" />
                                <path
                                   style="fill:#9955ff;stroke-width:0.206282"
                                   d="m 99.30131,139.46789 c 0,-2.57587 0,-5.15174 0,-7.72761 -12.752292,-2.61257 -24.1601,-11.51932 -28.911325,-23.76036 -2.296141,-5.49219 -3.273614,-11.431378 -3.534305,-17.351899 1.912331,-0.51745 8.052482,3.95152 6.788411,0.934844 -2.252068,-5.874878 -3.088705,-12.174122 -3.443324,-18.422488 2.289061,-0.342162 6.869486,3.296694 7.629467,2.119194 -1.611917,-5.0809 -0.928307,-10.684525 1.159854,-15.53433 1.147562,-2.406992 2.247738,-5.477139 4.114371,-7.213034 2.370228,2.147714 3.976849,1.94515 5.598257,-0.953243 5.403479,-5.906745 13.178454,-10.631399 21.410644,-9.783825 2.53396,0.207066 5.38892,0.694438 1.57436,1.486735 -7.72899,2.878076 -14.248433,8.660799 -18.204904,15.872747 1.187604,2.988168 2.298663,6.008977 3.252424,9.082736 1.554639,-5.774605 3.4366,-11.580184 6.65737,-16.64694 1.30744,-1.832094 2.66634,-3.713985 4.77872,-4.697531 5.11305,2.973259 7.17563,9.027637 9.24124,14.215766 1.20218,1.844177 2.00346,10.715828 3.03517,4.525103 1.71428,-4.995251 3.81252,-9.961236 7.32558,-13.978828 2.73886,2.021077 2.30411,3.894545 -0.61821,5.786906 -3.67464,4.616852 -5.94363,10.177868 -7.52201,15.819298 -1.85748,-6.609405 -3.91971,-13.573292 -8.42258,-18.89386 -1.67616,-2.664312 -4.20183,-3.03688 -5.91271,-0.166944 -4.21153,4.757384 -6.260533,11.082006 -8.048422,17.085512 -0.363155,3.185541 -0.928397,0.622001 -1.466487,-1.042197 -0.806595,-1.099781 -1.781522,-7.7157 -2.961598,-4.871567 -2.4209,4.891473 -4.932317,9.897734 -5.50669,15.401252 2.367332,2.93254 4.311579,6.194594 5.679948,9.709242 2.789429,-6.671566 5.766847,-13.915604 11.699729,-18.416339 1.9706,-2.066504 4.50033,-2.452715 6.55036,-0.312797 6.1931,4.497438 9.21445,11.949616 12.1143,18.739805 2.73181,-7.650851 8.66936,-13.818732 15.77839,-17.602094 0.17163,3.298195 -2.86459,4.121665 -5.0639,5.713199 -4.94656,3.577933 -8.54744,8.810119 -10.82705,14.435566 -2.91596,-7.945475 -6.94912,-16.764958 -15.08101,-20.502268 -8.05523,3.816852 -12.236241,12.51154 -15.068925,20.502268 -1.173053,-2.607362 -2.34254,-5.251407 -4.045246,-7.563747 -0.508325,4.197143 -0.977368,8.399919 -1.277191,12.617729 1.517514,2.160809 2.865398,4.437359 3.952038,6.845819 2.957524,-6.973724 6.707138,-14.286714 13.304144,-18.419723 1.40189,-0.483303 2.75414,-2.07809 4.24069,-0.99965 7.68176,3.507724 11.97663,11.447302 15.06573,18.894853 0.98437,0.40776 2.22235,-4.20844 3.57474,-5.347872 4.00332,-5.582114 9.86318,-9.790103 16.31615,-12.100154 -0.83104,1.91499 -0.87335,4.545327 -2.39009,5.925147 -7.50047,3.425679 -13.94499,9.319569 -17.26946,16.942419 -3.22313,-7.97549 -8.02758,-16.42177 -16.39654,-19.805059 -7.81473,3.129721 -12.384064,10.771779 -15.754454,18.076219 0.228044,5.59682 0.880699,11.3092 3.656966,16.29842 1.919353,2.89505 3.947598,7.08972 7.485098,8.03125 1.96452,0.47912 5.57994,-0.67741 4.61239,2.47201 0,4.10265 0,8.20529 0,12.30794 -2.9567,0 -5.91341,0 -8.87011,0 0,-2.57587 0,-5.15175 0,-7.72762 z"
                                   id="path25317" />
                                </g>
                              </g>
                            </g>
                          </g>
                        </g>
                      </g>
                    </g>
                  </g>
                </g>
              </g>
            </g>
          </g>
        </g>
      </g>
    </g>
  </g>
</svg>
