<?xml version="1.0" encoding="UTF-8" standalone="no"?>
<!-- Created with Inkscape (http://www.inkscape.org/) -->

<svg
   width="64"
   height="64"
   viewBox="0 0 16.933333 16.933334"
   version="1.1"
   id="svg5"
   inkscape:version="1.2 (dc2aedaf03, 2022-05-15)"
   sodipodi:docname="asperge.svg"
   xmlns:inkscape="http://www.inkscape.org/namespaces/inkscape"
   xmlns:sodipodi="http://sodipodi.sourceforge.net/DTD/sodipodi-0.dtd"
   xmlns="http://www.w3.org/2000/svg"
   xmlns:svg="http://www.w3.org/2000/svg">
  <sodipodi:namedview
     id="namedview7"
     pagecolor="#ffffff"
     bordercolor="#666666"
     borderopacity="1.0"
     inkscape:pageshadow="2"
     inkscape:pageopacity="0.0"
     inkscape:pagecheckerboard="0"
     inkscape:document-units="mm"
     showgrid="false"
     units="px"
     inkscape:zoom="11.313708"
     inkscape:cx="30.405592"
     inkscape:cy="29.344932"
     inkscape:window-width="1920"
     inkscape:window-height="1017"
     inkscape:window-x="1912"
     inkscape:window-y="-8"
     inkscape:window-maximized="1"
     inkscape:current-layer="g26135"
     inkscape:showpageshadow="2"
     inkscape:deskcolor="#d1d1d1" />
  <defs
     id="defs2" />
  <g
     inkscape:label="Calque 1"
     inkscape:groupmode="layer"
     id="layer1">
    <g
       id="g4128"
       transform="translate(-0.63104184,0.12620835)">
      <g
         id="g5578"
         transform="translate(0.08924235,0.08924306)">
        <g
           id="g7501"
           transform="translate(-0.06310417,0.94656242)">
          <g
             id="g9467"
             transform="translate(-0.08924275,-0.80318511)">
            <g
               id="g10302"
               transform="translate(0.31234979,-0.04462139)">
              <g
                 id="g11479"
                 transform="translate(-0.12620833,0.06310418)">
                <g
                   id="g11873"
                   transform="translate(-0.23575769,0.66462456)">
                  <g
                     id="g12382"
                     transform="translate(-121.98459,-82.267525)">
                    <g
                       id="g13305"
                       transform="matrix(0.13266609,0,0,0.13266609,114.63867,78.215696)">
                      <g
                         id="g17429"
                         transform="translate(0.90513437,5.6640979)">
                        <g
                           id="g18595"
                           transform="translate(-3.3634362,-8.7449387)">
                          <g
                             id="g21002"
                             transform="translate(1.7082278,-2.8204445)">
                            <g
                               id="g23814"
                               transform="translate(8.7253043,-1.1218249)">
                              <g
                                 id="g24838"
                                 transform="translate(11.143454,-0.85716864)">
                                <g
                                   id="g25315"
                                   transform="translate(-3.490122,2.4929446)">
                                <g
                                   id="g26135"
                                   transform="translate(3.304475,-0.17549611)">
                                <path
                                   style="fill:#c4cb46;stroke-width:0.213286"
                                   d="m 63.376114,147.11609 c -2.439101,-1.05024 -3.933485,-3.61672 -5.988108,-5.28403 -2.35672,-1.94378 -3.132659,-5.51241 -1.420895,-8.12081 2.511606,-3.00531 5.528804,-5.64716 8.233693,-8.51353 -3.22571,-3.1759 -1.244504,-8.29333 1.497053,-11.09694 1.326185,-1.18681 2.663861,-3.64659 3.95633,-1.09847 1.840704,2.3789 3.091162,5.14333 5.152943,1.617 6.295151,-6.29515 12.590306,-12.59031 18.885463,-18.88546 -1.207051,-1.441158 -1.697839,-3.086665 -1.416171,-4.952552 -0.04536,-3.60263 2.996706,-6.348475 5.512381,-8.560789 3.082677,3.577481 5.181097,6.608319 8.402637,1.013184 1.95144,-1.947568 3.89832,-3.899709 5.84773,-5.849308 -6.41752,-1.591586 -10.82001,-8.655463 -9.31734,-15.112728 1.30829,-7.619995 6.94294,-13.516817 12.50371,-18.497486 1.86065,1.182267 3.57127,5.082725 5.37188,1.981863 5.17249,-4.46704 12.03329,-6.274974 18.64101,-7.307948 1.05853,1.766743 0.17804,7.234302 3.12331,5.422185 5.70382,-2.667361 12.0058,-2.491028 18.12333,-2.284455 0.59106,1.306111 0.0866,3.690773 0.24839,5.419477 0.32747,4.987319 -0.97354,9.918417 -3.03685,14.431373 3.32693,0.764722 7.95664,1.095469 5.63786,5.323139 -1.27012,6.094888 -3.46707,12.336563 -8.23277,16.602322 2.97017,2.354615 4.59735,5.124208 0.3575,7.455059 -3.5885,3.943464 -8.14417,7.13336 -13.27602,8.635418 -3.79908,1.133646 -8.02386,0.873966 -11.41934,-1.290791 -2.19793,-1.611723 -4.26444,-3.643058 -5.10261,-6.334922 -0.64184,-2.837936 -2.69472,1.535988 -4.02732,2.198358 -7.55983,7.561211 -15.11967,15.122411 -22.679507,22.683621 2.496527,1.0507 4.204117,3.1521 6.119977,4.97612 -2.05832,2.07183 -4.07866,4.1976 -6.90951,5.17297 -2.578928,0.88366 -5.676362,0.30613 -7.357754,-1.99376 -7.330476,7.30893 -14.660955,14.61786 -21.991438,21.92678 -1.721423,0.7177 -3.665203,1.02866 -5.439564,0.32511 z"
                                   id="path26143" />
                                <path
                                   style="fill:#b1ba08;stroke-width:0.213286"
                                   d="m 63.696044,147.11583 c -3.210751,-1.59971 -5.469892,-4.73662 -7.879004,-7.31743 -1.415064,-2.63404 -0.561977,-6.05757 1.868538,-7.8117 2.203883,-2.21589 4.407771,-4.43177 6.611658,-6.64766 1.629925,1.26188 3.66962,1.71557 5.641305,1.18814 3.393116,-1.1091 4.808381,-5.33126 3.197956,-8.44828 -1.096318,-1.91703 1.947056,-2.9319 2.841063,-4.41517 5.965859,-5.96586 11.931718,-11.93172 17.897576,-17.897583 2.855291,2.567905 7.935244,1.470111 9.120604,-2.271372 0.57516,-2.036839 0.16369,-4.154197 -0.74411,-6.048339 3.35047,-3.370709 6.70095,-6.741417 10.05142,-10.112126 -6.00133,-1.405604 -10.59445,-7.582749 -9.58759,-13.751565 0.24245,-5.166063 3.20719,-9.778404 6.39446,-13.679555 2.01857,-2.023102 4.03713,-4.046203 6.0557,-6.069305 2.27514,2.465335 4.49837,4.745723 6.99119,0.788648 4.92337,-3.577429 10.96447,-5.019829 16.84596,-6.125344 2.13829,6.094629 3.24612,12.813207 1.79637,19.184056 -0.32814,2.876271 -1.53635,5.176972 -4.63239,4.277449 -7.10872,-0.307851 -14.92346,1.027169 -20.0864,6.284138 -4.3811,4.430019 -4.6323,12.094282 -0.53559,16.824041 3.84384,4.704534 11.1791,5.884889 16.34573,2.656396 3.19966,-2.364731 5.7685,-5.728838 6.81056,-9.638559 1.81499,-4.803752 1.8097,-10.002866 1.77771,-15.069618 2.43407,-1.192037 5.11646,-1.517726 7.67831,-2.265853 2.70331,-5.667247 3.12591,-11.975404 2.87937,-18.142151 0.0563,-1.780375 3.31135,-0.785736 4.7566,-1.147082 4.14521,-0.628896 5.96115,1.365544 4.93011,5.60453 0.22534,5.010872 -1.1663,9.971413 -3.25174,14.494953 2.76726,1.052894 8.77654,0.366555 5.83398,4.984877 -1.2251,6.208573 -3.60077,12.381032 -8.1995,16.897906 0.99168,1.621576 5.29553,3.583762 2.37708,5.239593 -5.01152,5.389166 -11.15945,10.800698 -18.82911,11.26273 -3.65398,0.227275 -7.49299,-0.874589 -9.98753,-3.671756 -2.54636,-1.020946 -2.40206,-8.068561 -5.01427,-4.176905 -8.30926,8.167776 -16.51533,16.439566 -24.764154,24.668186 -3.04516,-1.50151 -7.556484,-0.55607 -8.60643,3.01844 -0.515927,1.63659 -0.353524,3.54281 0.563762,5.04233 -7.316878,7.20113 -14.462831,14.65201 -21.886012,21.69781 -1.570167,0.83352 -3.580445,1.33703 -5.263182,0.59313 z"
                                   id="path26141" />
                                <path
                                   style="fill:#98a007;stroke-width:0.213286"
                                   d="m 63.696044,147.11583 c -3.13533,-1.54439 -5.350183,-4.59251 -7.696021,-7.10618 -1.733738,-2.74218 -0.681232,-6.40009 1.881414,-8.23911 2.133757,-2.13901 4.267519,-4.27803 6.40128,-6.41704 2.822569,2.66865 7.908103,1.47444 9.134546,-2.12464 0.904353,-2.05447 0.200421,-4.37437 -0.682081,-6.32343 7.011412,-7.00745 14.022827,-14.01489 21.034245,-21.022329 2.300127,1.619984 5.533099,2.005412 7.720733,-0.09514 2.39125,-2.034775 2.2715,-5.680127 0.82895,-8.262877 2.91551,-3.396487 6.57769,-6.640901 9.77849,-9.979281 1.04612,0.652892 0.79589,4.449135 2.28878,5.96737 2.02745,3.478693 5.95903,5.868681 10.01791,5.958789 2.18828,0.97537 -1.3709,2.647965 -2.00747,3.791355 -7.82185,7.82261 -15.6437,15.64523 -23.465548,23.46784 -2.746386,-1.31297 -6.419198,-0.91659 -8.134688,1.82985 -1.274671,1.84651 -1.08935,4.38596 0.0473,6.26577 -7.316245,7.20046 -14.46152,14.65074 -21.884082,21.69586 -1.577413,0.83469 -3.571181,1.33659 -5.263756,0.59319 z M 135.09501,99.711972 c -4.25445,-0.926002 4.60981,-2.286253 5.36306,-4.212421 3.30924,-3.284629 12.38198,-7.87892 5.16102,-11.936632 -2.0234,-2.525151 -9.54064,-5.340193 -5.13994,-8.564181 -1.71374,-0.709671 0.49819,-3.963458 -0.0369,-5.729363 0.0518,-2.046005 0.1036,-4.092009 0.1554,-6.138014 7.37421,-3.673796 15.94871,-2.245175 23.47063,0.130968 -1.52005,7.177166 -3.31855,14.93925 -8.9717,20.097362 -1.10349,-0.0815 6.02313,4.060127 1.88333,5.721376 -4.67154,4.988921 -10.36691,9.90783 -17.42467,10.695032 -1.48329,-0.03799 -3.00941,0.329811 -4.46026,-0.06413 z m 18.28797,-17.778335 c -1.1377,-1.329928 -1.01895,-0.592785 0,0 z m -5.33216,-3.864709 c -1.14008,-0.911607 -1.23969,-0.444136 0,0 z M 127.50131,62.14556 c -1.09114,-5.747141 -4.59681,-10.6143 -8.44926,-14.868695 5.22485,-5.521832 12.81896,-7.430103 20.01488,-8.808284 2.47711,7.51299 3.62113,16.085393 0.20228,23.50491 -3.90373,-0.403375 -7.81821,-0.201886 -11.68633,0.465969 z"
                                   id="path26139" />
                                <path
                                   style="fill:#8c9306;stroke-width:0.213286"
                                   d="m 64.335903,147.28811 c -2.735866,-0.53691 -4.594379,-2.58188 -1.645696,-4.12773 18.517456,-18.51784 37.034914,-37.03568 55.552373,-55.553521 1.84021,1.627965 5.20297,1.434365 6.77331,2.477151 -0.76712,1.593011 -2.62551,2.733974 -3.80656,4.155514 -7.45176,7.451016 -14.90352,14.902036 -22.355283,22.353056 -2.407339,-1.05959 -5.349257,-0.90804 -7.323283,0.91819 -1.866961,1.89384 -2.223776,4.81999 -0.918651,7.09249 -1.500579,2.04029 -3.827257,3.90446 -5.645253,5.87708 -5.409475,5.3163 -10.667057,10.8566 -16.171475,16.03288 -1.355097,0.68144 -2.961321,1.16016 -4.459482,0.77489 z M 153.88909,82.239161 c -1.29101,-1.996214 -6.25016,-2.748699 -3.68242,-5.501011 2.1902,-4.190449 3.10293,-8.882688 4.06826,-13.47051 -2.4857,-0.808777 -5.04046,-1.370624 -7.59979,-1.889999 2.48528,-0.627893 5.16442,-0.190035 7.71962,-0.246965 3.23552,0.502931 6.4351,1.212417 9.57698,2.134925 -1.52911,7.154144 -3.21821,14.971603 -8.98911,19.982991 -0.36449,-0.33643 -0.72914,-0.673202 -1.09354,-1.009431 z"
                                   id="path26137" />
                                </g>
                                </g>
                              </g>
                            </g>
                          </g>
                        </g>
                      </g>
                    </g>
                  </g>
                </g>
              </g>
            </g>
          </g>
        </g>
      </g>
    </g>
  </g>
</svg>
