<?xml version="1.0" encoding="UTF-8" standalone="no"?>
<!-- Created with Inkscape (http://www.inkscape.org/) -->

<svg
   width="64"
   height="64"
   viewBox="0 0 16.933333 16.933334"
   version="1.1"
   id="svg5"
   inkscape:version="1.2 (dc2aedaf03, 2022-05-15)"
   sodipodi:docname="baie_de_genevrier.svg"
   xmlns:inkscape="http://www.inkscape.org/namespaces/inkscape"
   xmlns:sodipodi="http://sodipodi.sourceforge.net/DTD/sodipodi-0.dtd"
   xmlns="http://www.w3.org/2000/svg"
   xmlns:svg="http://www.w3.org/2000/svg">
  <sodipodi:namedview
     id="namedview7"
     pagecolor="#ffffff"
     bordercolor="#666666"
     borderopacity="1.0"
     inkscape:pageshadow="2"
     inkscape:pageopacity="0.0"
     inkscape:pagecheckerboard="0"
     inkscape:document-units="mm"
     showgrid="false"
     units="px"
     inkscape:zoom="16.130873"
     inkscape:cx="35.273973"
     inkscape:cy="28.516745"
     inkscape:window-width="1920"
     inkscape:window-height="1017"
     inkscape:window-x="3832"
     inkscape:window-y="-8"
     inkscape:window-maximized="1"
     inkscape:current-layer="g33847"
     inkscape:showpageshadow="2"
     inkscape:deskcolor="#d1d1d1" />
  <defs
     id="defs2" />
  <g
     inkscape:label="Calque 1"
     inkscape:groupmode="layer"
     id="layer1">
    <g
       id="g4128"
       transform="translate(-0.63104184,0.12620835)">
      <g
         id="g5578"
         transform="translate(0.08924235,0.08924306)">
        <g
           id="g7501"
           transform="translate(-0.06310417,0.94656242)">
          <g
             id="g9467"
             transform="translate(-0.08924275,-0.80318511)">
            <g
               id="g10302"
               transform="translate(0.31234979,-0.04462139)">
              <g
                 id="g11479"
                 transform="translate(-0.12620833,0.06310418)">
                <g
                   id="g11873"
                   transform="translate(-0.23575769,0.66462456)">
                  <g
                     id="g12382"
                     transform="translate(-121.98459,-82.267525)">
                    <g
                       id="g13305"
                       transform="matrix(0.13266609,0,0,0.13266609,114.63867,78.215696)">
                      <g
                         id="g17429"
                         transform="translate(0.90513437,5.6640979)">
                        <g
                           id="g18595"
                           transform="translate(-3.3634362,-8.7449387)">
                          <g
                             id="g21002"
                             transform="translate(1.7082278,-2.8204445)">
                            <g
                               id="g23814"
                               transform="translate(8.7253043,-1.1218249)">
                              <g
                                 id="g24838"
                                 transform="translate(11.143454,-0.85716864)">
                                <g
                                   id="g25315"
                                   transform="translate(-3.490122,2.4929446)">
                                <g
                                   id="g27220"
                                   transform="translate(2.4678888,1.2339445)">
                                <g
                                   id="g29753"
                                   transform="translate(1.4759287,-2.3737724)">
                                <g
                                   id="g30615"
                                   transform="translate(0.92006037,1.3687834)">
                                <g
                                   id="g31433"
                                   transform="translate(-2.4678886,-1.410222)">
                                <g
                                   id="g31731"
                                   transform="translate(1.0576664,-0.70511063)">
                                <g
                                   id="g33243"
                                   transform="matrix(1.0772948,0,0,1.0772948,-7.3729128,-3.1743014)">
                                <g
                                   id="g33847"
                                   transform="matrix(1.2977251,0,0,1.2977251,-28.050877,-35.064957)">
                                <path
                                   style="fill:#4e63b6;stroke-width:0.180843"
                                   d="m 94.293434,125.70845 c -3.910856,-0.82419 -7.486152,-3.09881 -9.82313,-6.3385 -1.255446,-1.81681 -2.068115,-3.93666 -2.720488,-6.04479 C 79.519725,108.0348 71.311355,99.9424 69.936053,93.399429 c -1.25165,-5.354522 0.467204,-11.22688 4.172082,-15.262777 1.160244,-1.416586 2.737973,-2.468894 4.275805,-3.426588 0.708244,-0.584442 2.583609,-0.719372 2.51669,-1.602366 -1.178134,-1.632035 -0.621572,-3.028253 1.351965,-2.050148 1.384089,1.181496 2.260771,0.58873 3.070338,-0.984356 0.773559,-0.686495 1.794754,-1.17413 2.684519,-0.373147 1.087483,0.643772 1.520267,3.018026 2.920653,1.65113 1.224891,-0.952906 3.882048,-0.821119 2.154772,1.168853 -1.037289,1.215846 0.8828,1.337503 1.636405,1.890743 4.450121,2.113251 7.694338,6.395142 8.950598,11.128229 0.88235,3.076939 0.60728,6.329109 -0.11222,9.417026 3.74877,1.684772 7.04637,4.572885 8.61533,8.422162 1.01492,1.97152 1.50737,4.20922 1.34052,6.42594 0.1463,1.84142 -0.12895,3.62703 -0.72258,5.3705 -1.48101,3.93871 -4.30504,7.44118 -8.1803,9.21486 -2.40744,1.11821 -5.018753,1.80722 -7.678309,1.55367 -0.893726,-0.008 -1.776291,0.0513 -2.638887,-0.23471 z m -2.666941,-23.97231 c 1.127141,-0.68012 0.696766,-2.69912 -0.557097,-2.976868 -0.92174,-0.483569 -1.872431,0.35751 -2.201264,1.139542 -0.207629,0.942426 0.208124,2.121086 1.253054,2.196146 0.558822,-0.0255 1.109149,0.15175 1.505307,-0.35882 z m 29.193317,3.96373 c -4.13259,-0.95338 -7.79474,-4.12762 -9.33049,-8.078744 -0.61625,-1.439249 -1.00433,-2.921024 -0.8787,-4.49854 -0.26877,-2.427739 0.22089,-4.893376 1.47414,-6.998428 1.75066,-3.649528 5.51961,-6.206292 9.42644,-7.04758 2.61354,-0.497946 5.35177,-0.234385 7.80396,0.806592 2.49774,0.777771 4.18195,2.834825 5.98918,4.600106 0.9174,1.954429 2.0941,3.821818 2.27769,6.022569 0.27654,1.626922 0.0585,3.352196 -0.14314,4.974368 -0.52279,2.064569 -1.4752,4.003584 -2.76991,5.680277 -1.69529,1.8393 -3.62872,3.46855 -6.09712,4.17135 -2.23794,0.84784 -4.71809,0.92562 -7.04761,0.54106 -0.23479,-0.0577 -0.46986,-0.11555 -0.70444,-0.17303 z"
                                   id="path33857"
                                   sodipodi:nodetypes="ccccccccccccccccccccccccccccccccccccccc" />
                                <path
                                   style="fill:#35459a;stroke-width:0.180843"
                                   d="m 74.047307,101.37652 c -1.200126,-1.36237 -2.899295,-3.832021 -3.001901,-5.010627 0.69592,0.478927 1.748308,-1.056293 2.585296,-1.374437 8.336018,-5.857501 16.803885,-11.538088 25.070521,-17.486596 -0.941687,-1.170335 1.559977,1.47275 2.072527,1.975226 2.19162,3.266368 3.59274,7.185808 3.28321,11.155375 0.0956,1.493252 -0.37542,2.941396 -0.72689,4.375849 -2.58225,-1.241086 -5.54015,-1.187376 -8.319399,-0.944823 -2.793973,0.370786 -5.341623,1.657254 -7.572914,3.337416 -3.002717,2.469961 -5.260681,6.075847 -5.712779,9.990437 -3.340849,-0.67538 -2.585226,0.41432 -7.677671,-6.01782 z"
                                   id="path33855"
                                   sodipodi:nodetypes="ccccccccccc" />
                                <path
                                   style="fill:#3d9b17;stroke-width:0.180843"
                                   d="m 75.073174,110.48758 c -3.094511,0.7555 -0.90778,0.22984 -8.824348,0.36514 l 1.000658,-1.59386 c 1.746347,-3.08821 4.256484,-5.45308 6.801744,-7.88593 l 0.553202,0.63006 c 1.303993,1.48517 3.630825,3.04558 5.818595,3.90204 l 1.301793,0.50962 -0.03978,0.41716 c -0.171115,2.49449 -0.276477,4.15477 0.114084,6.38499 l -1.303057,1.2409 c -1.429997,1.36178 -2.921834,2.47544 -4.495591,3.35595 l -1.022415,0.57204 c -0.421519,-2.64265 -0.07239,-5.26046 0.09511,-7.89811 z m -1.094229,-9.29683 c -11.414822,-33.645815 -5.707411,-16.822908 0,0 z"
                                   id="path33853"
                                   sodipodi:nodetypes="ccccsscccsscccc" />
                                <path
                                   style="fill:#1c2c65;stroke-width:0.180843"
                                   d="m 93.635844,114.71133 c 0.06745,-1.19438 0.406305,-2.50938 0.25281,-3.65281 -0.87526,-1.03281 -1.881205,-1.97602 -2.601206,-3.12436 1.298246,-0.49519 2.828781,-0.52541 4.070993,-1.04602 1.021673,-1.0717 2.008793,-5.24341 3.1141,-2.08099 0.560409,0.67283 0.752977,1.84424 1.525024,2.2256 1.301465,0.29036 2.601065,0.589 3.901425,0.88426 -0.86348,1.17821 -1.90145,2.21477 -2.86447,3.31057 0.15047,1.39231 0.35221,2.78067 0.44102,4.17843 -1.3398,-0.50895 -2.630314,-1.13963 -3.942871,-1.71476 -1.331021,0.60551 -2.662488,1.21022 -4.004437,1.79123 0.03587,-0.25705 0.07174,-0.5141 0.107612,-0.77115 z M 73.315601,100.46737 c -1.690964,-2.465691 2.062957,2.39224 0,0 z m 50.191519,-3.787105 c -0.5933,-0.932315 -1.19318,-1.962231 -2.52315,-1.687278 -1.33124,0.01887 -2.79389,-0.214154 -1.23555,-1.495806 0.39785,-0.778197 1.5851,-1.369112 1.15804,-2.339946 -0.13259,-1.240372 -1.35391,-3.775457 0.79747,-2.497061 0.84128,0.09777 1.75486,1.045802 2.53463,0.448817 1.0241,-0.350537 3.12139,-2.512663 2.78223,-0.362782 0.21381,0.893905 -0.37671,2.132095 0.30623,2.817481 l 2.2509,2.083991 c -1.057,0.625393 -2.32486,0.83052 -3.4818,1.243756 -0.65236,1.145457 -1.24574,4.612197 -2.38415,2.077316 l -0.2048,-0.288491 z"
                                   id="path33849"
                                   sodipodi:nodetypes="ccccccccccccccccccccccccccc" />
                                </g>
                                </g>
                                </g>
                                </g>
                                </g>
                                </g>
                                </g>
                                </g>
                              </g>
                            </g>
                          </g>
                        </g>
                      </g>
                    </g>
                  </g>
                </g>
              </g>
            </g>
          </g>
        </g>
      </g>
    </g>
  </g>
</svg>
