<?xml version="1.0" encoding="UTF-8" standalone="no"?>
<!-- Created with Inkscape (http://www.inkscape.org/) -->

<svg
   width="64"
   height="64"
   viewBox="0 0 16.933333 16.933334"
   version="1.1"
   id="svg5"
   inkscape:version="1.1.1 (3bf5ae0d25, 2021-09-20)"
   sodipodi:docname="baie_moulue.svg"
   xmlns:inkscape="http://www.inkscape.org/namespaces/inkscape"
   xmlns:sodipodi="http://sodipodi.sourceforge.net/DTD/sodipodi-0.dtd"
   xmlns="http://www.w3.org/2000/svg"
   xmlns:svg="http://www.w3.org/2000/svg">
  <sodipodi:namedview
     id="namedview7"
     pagecolor="#ffffff"
     bordercolor="#666666"
     borderopacity="1.0"
     inkscape:pageshadow="2"
     inkscape:pageopacity="0.0"
     inkscape:pagecheckerboard="0"
     inkscape:document-units="mm"
     showgrid="false"
     units="px"
     inkscape:zoom="5.6568543"
     inkscape:cx="3.3587572"
     inkscape:cy="51.88396"
     inkscape:window-width="1920"
     inkscape:window-height="1017"
     inkscape:window-x="1912"
     inkscape:window-y="-8"
     inkscape:window-maximized="1"
     inkscape:current-layer="g33243" />
  <defs
     id="defs2">
    <pattern
       id="EMFhbasepattern"
       patternUnits="userSpaceOnUse"
       width="6"
       height="6"
       x="0"
       y="0" />
    <pattern
       id="EMFhbasepattern-5"
       patternUnits="userSpaceOnUse"
       width="6"
       height="6"
       x="0"
       y="0" />
    <pattern
       id="EMFhbasepattern-56"
       patternUnits="userSpaceOnUse"
       width="6"
       height="6"
       x="0"
       y="0" />
    <pattern
       id="EMFhbasepattern-6"
       patternUnits="userSpaceOnUse"
       width="6"
       height="6"
       x="0"
       y="0" />
    <pattern
       id="EMFhbasepattern-62"
       patternUnits="userSpaceOnUse"
       width="6"
       height="6"
       x="0"
       y="0" />
    <pattern
       id="EMFhbasepattern-8"
       patternUnits="userSpaceOnUse"
       width="6"
       height="6"
       x="0"
       y="0" />
    <pattern
       id="EMFhbasepattern-81"
       patternUnits="userSpaceOnUse"
       width="6"
       height="6"
       x="0"
       y="0" />
    <pattern
       id="EMFhbasepattern-9"
       patternUnits="userSpaceOnUse"
       width="6"
       height="6"
       x="0"
       y="0" />
    <pattern
       id="EMFhbasepattern-52"
       patternUnits="userSpaceOnUse"
       width="6"
       height="6"
       x="0"
       y="0" />
    <pattern
       id="EMFhbasepattern-0"
       patternUnits="userSpaceOnUse"
       width="6"
       height="6"
       x="0"
       y="0" />
    <pattern
       id="EMFhbasepattern-7"
       patternUnits="userSpaceOnUse"
       width="6"
       height="6"
       x="0"
       y="0" />
    <pattern
       id="EMFhbasepattern-65"
       patternUnits="userSpaceOnUse"
       width="6"
       height="6"
       x="0"
       y="0" />
    <pattern
       id="EMFhbasepattern-3"
       patternUnits="userSpaceOnUse"
       width="6"
       height="6"
       x="0"
       y="0" />
    <pattern
       id="EMFhbasepattern-90"
       patternUnits="userSpaceOnUse"
       width="6"
       height="6"
       x="0"
       y="0" />
    <pattern
       id="EMFhbasepattern-4"
       patternUnits="userSpaceOnUse"
       width="6"
       height="6"
       x="0"
       y="0" />
    <pattern
       id="EMFhbasepattern-2"
       patternUnits="userSpaceOnUse"
       width="6"
       height="6"
       x="0"
       y="0" />
    <pattern
       id="EMFhbasepattern-40"
       patternUnits="userSpaceOnUse"
       width="6"
       height="6"
       x="0"
       y="0" />
    <pattern
       id="EMFhbasepattern-74"
       patternUnits="userSpaceOnUse"
       width="6"
       height="6"
       x="0"
       y="0" />
    <pattern
       id="EMFhbasepattern-656"
       patternUnits="userSpaceOnUse"
       width="6"
       height="6"
       x="0"
       y="0" />
    <pattern
       id="EMFhbasepattern-76"
       patternUnits="userSpaceOnUse"
       width="6"
       height="6"
       x="0"
       y="0" />
    <pattern
       id="EMFhbasepattern-1"
       patternUnits="userSpaceOnUse"
       width="6"
       height="6"
       x="0"
       y="0" />
    <pattern
       id="EMFhbasepattern-42"
       patternUnits="userSpaceOnUse"
       width="6"
       height="6"
       x="0"
       y="0" />
    <pattern
       id="EMFhbasepattern-73"
       patternUnits="userSpaceOnUse"
       width="6"
       height="6"
       x="0"
       y="0" />
    <pattern
       id="EMFhbasepattern-566"
       patternUnits="userSpaceOnUse"
       width="6"
       height="6"
       x="0"
       y="0" />
    <pattern
       id="EMFhbasepattern-71"
       patternUnits="userSpaceOnUse"
       width="6"
       height="6"
       x="0"
       y="0" />
    <pattern
       id="EMFhbasepattern-31"
       patternUnits="userSpaceOnUse"
       width="6"
       height="6"
       x="0"
       y="0" />
    <pattern
       id="EMFhbasepattern-60"
       patternUnits="userSpaceOnUse"
       width="6"
       height="6"
       x="0"
       y="0" />
    <pattern
       id="EMFhbasepattern-28"
       patternUnits="userSpaceOnUse"
       width="6"
       height="6"
       x="0"
       y="0" />
    <pattern
       id="EMFhbasepattern-02"
       patternUnits="userSpaceOnUse"
       width="6"
       height="6"
       x="0"
       y="0" />
    <pattern
       id="EMFhbasepattern-57"
       patternUnits="userSpaceOnUse"
       width="6"
       height="6"
       x="0"
       y="0" />
    <pattern
       id="EMFhbasepattern-50"
       patternUnits="userSpaceOnUse"
       width="6"
       height="6"
       x="0"
       y="0" />
    <pattern
       id="EMFhbasepattern-45"
       patternUnits="userSpaceOnUse"
       width="6"
       height="6"
       x="0"
       y="0" />
    <pattern
       id="EMFhbasepattern-33"
       patternUnits="userSpaceOnUse"
       width="6"
       height="6"
       x="0"
       y="0" />
    <pattern
       id="EMFhbasepattern-21"
       patternUnits="userSpaceOnUse"
       width="6"
       height="6"
       x="0"
       y="0" />
    <pattern
       id="EMFhbasepattern-818"
       patternUnits="userSpaceOnUse"
       width="6"
       height="6"
       x="0"
       y="0" />
  </defs>
  <g
     inkscape:label="Calque 1"
     inkscape:groupmode="layer"
     id="layer1">
    <g
       id="g4128"
       transform="translate(-0.63104184,0.12620835)">
      <g
         id="g5578"
         transform="translate(0.08924235,0.08924306)">
        <g
           id="g7501"
           transform="translate(-0.06310417,0.94656242)">
          <g
             id="g9467"
             transform="translate(-0.08924275,-0.80318511)">
            <g
               id="g10302"
               transform="translate(0.31234979,-0.04462139)">
              <g
                 id="g11479"
                 transform="translate(-0.12620833,0.06310418)">
                <g
                   id="g11873"
                   transform="translate(-0.23575769,0.66462456)">
                  <g
                     id="g12382"
                     transform="translate(-121.98459,-82.267525)">
                    <g
                       id="g13305"
                       transform="matrix(0.13266609,0,0,0.13266609,114.63867,78.215696)">
                      <g
                         id="g17429"
                         transform="translate(0.90513437,5.6640979)">
                        <g
                           id="g18595"
                           transform="translate(-3.3634362,-8.7449387)">
                          <g
                             id="g21002"
                             transform="translate(1.7082278,-2.8204445)">
                            <g
                               id="g23814"
                               transform="translate(8.7253043,-1.1218249)">
                              <g
                                 id="g24838"
                                 transform="translate(11.143454,-0.85716864)">
                                <g
                                   id="g25315"
                                   transform="translate(-3.490122,2.4929446)">
                                <g
                                   id="g27220"
                                   transform="translate(2.4678888,1.2339445)">
                                <g
                                   id="g29753"
                                   transform="translate(1.4759287,-2.3737724)">
                                <g
                                   id="g30615"
                                   transform="translate(0.92006037,1.3687834)">
                                <g
                                   id="g31433"
                                   transform="translate(-2.4678886,-1.410222)">
                                <g
                                   id="g31731"
                                   transform="translate(1.0576664,-0.70511063)">
                                <g
                                   id="g33243"
                                   transform="matrix(1.0772948,0,0,1.0772948,-7.3729128,-3.1743014)">
                                <g
                                   id="g34990"
                                   transform="translate(1.3090398,1.3090401)">
                                <path
                                   style="fill:#e1945e;stroke-width:0.202964"
                                   d="m 74.821479,136.41382 -1.204292,-0.29322 -1.434238,-0.69724 -1.434238,-0.69725 -1.165379,-0.92437 -1.165379,-0.92438 -0.907829,-1.15667 c -0.499306,-0.63617 -1.179467,-1.70859 -1.511471,-2.38316 l -0.603641,-1.2265 -2.872955,-9.5393 c -1.580124,-5.24661 -3.254796,-10.81274 -3.721492,-12.36918 l -0.848538,-2.82988 -0.705392,-0.18104 -0.705392,-0.18103 -0.63107,-0.47875 -0.63107,-0.47875 -0.356086,-0.7504 -0.356086,-0.7504 0.09622,-1.001369 0.09622,-1.001371 0.40219,-0.543032 c 0.221204,-0.298667 0.704133,-0.748532 1.073175,-0.9997 l 0.670985,-0.456669 h 2.147775 2.147775 L 77.54393,80.23915 93.88659,63.92814 95.16707,63.073024 c 1.709414,-1.141561 3.805253,-2.108959 6.02622,-2.781579 l 1.82667,-0.55321 h 3.55187 3.55186 l 1.78285,0.546262 c 2.31609,0.709641 4.08744,1.521733 5.89256,2.701485 l 1.45797,0.952871 16.33858,16.291048 16.33859,16.291048 2.2326,0.06535 2.23261,0.06535 0.66422,0.47376 0.66423,0.473763 0.40133,0.786677 0.40134,0.786676 v 0.65438 0.654375 l -0.4159,0.85913 -0.41589,0.85912 -0.51669,0.33855 c -0.28417,0.1862 -0.8493,0.4537 -1.25584,0.59444 l -0.73916,0.25591 -0.46481,1.50274 c -0.25565,0.82651 -1.09237,3.60342 -1.85939,6.17091 -0.76702,2.5675 -2.23594,7.45385 -3.26427,10.85857 l -1.86969,6.19039 -0.68899,1.31927 c -0.37894,0.7256 -1.09594,1.83052 -1.59334,2.45539 l -0.90437,1.13612 -1.07364,0.8281 c -1.21139,0.93434 -2.97218,1.8514 -4.62551,2.40908 l -1.11631,0.37653 -30.8505,0.0358 -30.850497,0.0358 z"
                                   id="path34998" />
                                <path
                                   style="fill:#a0775a;stroke-width:0.202964"
                                   d="m 75.127049,136.42406 -1.304648,-0.2852 -1.492412,-0.70874 -1.492413,-0.70874 -1.191818,-0.91709 -1.191817,-0.91708 -0.953773,-1.2688 c -0.524575,-0.69784 -1.18872,-1.72681 -1.475877,-2.2866 l -0.522104,-1.01781 -1.884474,-6.1904 c -1.036461,-3.40472 -2.724501,-9.02946 -3.751199,-12.49943 l -1.866725,-6.30905 -0.859119,-0.22978 -0.85912,-0.22977 -0.626314,-0.62632 -0.626314,-0.62631 -0.234178,-0.78162 -0.234179,-0.78162 0.128333,-0.67921 c 0.07058,-0.373565 0.307152,-0.972361 0.525709,-1.330655 l 0.397375,-0.651447 0.811732,-0.414113 0.811731,-0.414116 h 17.119869 17.119869 l 5.04809,-10.503378 c 2.776449,-5.776858 6.389687,-13.250223 8.029417,-16.607478 l 2.98133,-6.104103 1.24448,-1.330355 1.24449,-1.330356 0.594,-0.246045 0.594,-0.246045 1.17807,0.342473 c 1.65041,0.479788 3.44045,1.321234 5.17859,2.434304 l 1.48645,0.951897 16.34148,16.319542 16.34148,16.319544 h 1.88105 1.88104 l 0.74716,0.312187 c 0.91395,0.381873 1.42014,0.824687 1.81454,1.587378 l 0.30058,0.581258 v 0.893739 0.893739 l -0.38307,0.65591 -0.38308,0.65591 -0.67867,0.45736 -0.67868,0.45736 -36.85866,0.0502 -36.858657,0.0502 36.279787,0.0519 36.27978,0.0519 v 0.18456 c 0,0.10151 -0.40103,1.4941 -0.89119,3.09465 -0.49016,1.60054 -1.35508,4.46275 -1.92205,6.36046 -2.29734,7.68946 -4.49128,14.81959 -4.78875,15.56304 -0.17352,0.43367 -0.68711,1.37691 -1.14131,2.09609 l -0.82582,1.30759 -1.39404,1.29066 -1.39404,1.29067 -1.48328,0.74242 c -0.81581,0.40833 -2.03129,0.90213 -2.70107,1.09735 l -1.21778,0.35493 -30.44458,0.0389 -30.444571,0.0389 z m 18.54735,-55.594373 -0.498185,-0.498182 v -0.627343 -0.627343 l 0.498185,-0.498183 0.498183,-0.498185 h 0.68422 0.684219 l 0.411063,0.456669 c 0.226085,0.251167 0.467778,0.617296 0.537097,0.813617 l 0.126032,0.35695 -0.205251,0.539847 c -0.112887,0.296916 -0.361493,0.658553 -0.552455,0.803638 l -0.347209,0.26379 -0.668857,0.0065 -0.668859,0.0065 -0.498183,-0.498185 z"
                                   id="path34996" />
                                <path
                                   style="fill:#d35400;stroke-width:0.202964"
                                   d="m 61.039868,113.51223 c -0.520717,-1.72274 -0.946758,-3.26338 -0.946758,-3.42365 v -0.2914 l 46.42798,0.0999 c 25.53538,0.0549 46.45686,0.12485 46.49216,0.1554 0.0353,0.0306 -0.37753,1.50322 -0.91741,3.27261 l -0.9816,3.21706 -44.56381,0.0512 -44.563804,0.0512 z M 91.610685,96.296455 C 91.874092,95.638781 105.52925,67.35979 106.51943,65.421382 l 1.12708,-2.206432 1.18824,-1.270231 1.18824,-1.27023 0.61552,-0.25496 0.61553,-0.254961 1.7094,0.55606 1.7094,0.556059 1.5555,0.88644 c 0.85552,0.487542 2.02397,1.250658 2.59656,1.695814 l 1.04106,0.809374 15.93217,15.940923 15.93218,15.940921 H 121.61969 91.509074 Z m 2.063714,-15.466768 -0.498185,-0.498182 v -0.627343 -0.627343 l 0.498185,-0.498183 0.498183,-0.498185 h 0.68422 0.684219 l 0.411063,0.456669 c 0.226085,0.251167 0.467778,0.617296 0.537097,0.813617 l 0.126032,0.35695 -0.205251,0.539847 c -0.112887,0.296916 -0.361493,0.658553 -0.552455,0.803638 l -0.347209,0.26379 -0.668857,0.0065 -0.668859,0.0065 -0.498183,-0.498185 z"
                                   id="path34994" />
                                <path
                                   style="fill:#754e4c;stroke-width:0.202964"
                                   d="m 61.039868,113.51223 c -0.520717,-1.72274 -0.946758,-3.26338 -0.946758,-3.42365 v -0.2914 l 46.42798,0.0999 c 25.53538,0.0549 46.45686,0.12485 46.49216,0.1554 0.0353,0.0306 -0.37753,1.50322 -0.91741,3.27261 l -0.9816,3.21706 -44.56381,0.0512 -44.563804,0.0512 z M 117.63336,86.156824 c -0.22326,-0.12804 -0.51719,-0.376429 -0.65318,-0.551978 l -0.24725,-0.319179 -0.006,-0.567375 -0.006,-0.567378 0.49818,-0.498182 0.49819,-0.498185 h 0.61811 0.61812 l 0.40076,0.400764 c 0.22043,0.220421 0.45883,0.632088 0.52979,0.914817 l 0.12902,0.51405 -0.33744,0.514991 -0.33743,0.51499 -0.51001,0.193903 c -0.63053,0.239731 -0.69113,0.237129 -1.19395,-0.05124 z m -23.769281,-5.30424 -0.552555,-0.475287 v -0.673135 -0.673136 l 0.574349,-0.494034 0.574351,-0.494037 0.626519,0.120841 0.626519,0.120841 0.355187,0.427803 0.355187,0.427801 v 0.595632 0.595632 l -0.498185,0.498182 -0.498183,0.498185 H 94.921951 94.416634 Z M 108.80443,70.773753 108.3985,70.367826 v -0.710374 -0.710373 l 0.40593,-0.405928 0.40593,-0.405928 h 0.71037 0.71037 l 0.40593,0.405928 0.40593,0.405928 v 0.710373 0.710374 l -0.40593,0.405927 -0.40593,0.405928 h -0.71037 -0.71037 z"
                                   id="path34992" />
                                </g>
                                </g>
                                </g>
                                </g>
                                </g>
                                </g>
                                </g>
                                </g>
                              </g>
                            </g>
                          </g>
                        </g>
                      </g>
                    </g>
                  </g>
                </g>
              </g>
            </g>
          </g>
        </g>
      </g>
    </g>
  </g>
</svg>
