<?xml version="1.0" encoding="UTF-8" standalone="no"?>
<!-- Created with Inkscape (http://www.inkscape.org/) -->

<svg
   width="64"
   height="64"
   viewBox="0 0 16.933333 16.933334"
   version="1.1"
   id="svg5"
   inkscape:version="1.2 (dc2aedaf03, 2022-05-15)"
   sodipodi:docname="banania.svg"
   xmlns:inkscape="http://www.inkscape.org/namespaces/inkscape"
   xmlns:sodipodi="http://sodipodi.sourceforge.net/DTD/sodipodi-0.dtd"
   xmlns="http://www.w3.org/2000/svg"
   xmlns:svg="http://www.w3.org/2000/svg">
  <sodipodi:namedview
     id="namedview7"
     pagecolor="#ffffff"
     bordercolor="#666666"
     borderopacity="1.0"
     inkscape:pageshadow="2"
     inkscape:pageopacity="0.0"
     inkscape:pagecheckerboard="0"
     inkscape:document-units="mm"
     showgrid="false"
     units="px"
     inkscape:zoom="11.313709"
     inkscape:cx="18.075416"
     inkscape:cy="29.433318"
     inkscape:window-width="1920"
     inkscape:window-height="1017"
     inkscape:window-x="1912"
     inkscape:window-y="-8"
     inkscape:window-maximized="1"
     inkscape:current-layer="g39618"
     inkscape:showpageshadow="2"
     inkscape:deskcolor="#d1d1d1" />
  <defs
     id="defs2" />
  <g
     inkscape:label="Calque 1"
     inkscape:groupmode="layer"
     id="layer1">
    <g
       id="g4128"
       transform="translate(-0.63104184,0.12620835)">
      <g
         id="g5578"
         transform="translate(0.08924235,0.08924306)">
        <g
           id="g7501"
           transform="translate(-0.06310417,0.94656242)">
          <g
             id="g9467"
             transform="translate(-0.08924275,-0.80318511)">
            <g
               id="g10302"
               transform="translate(0.31234979,-0.04462139)">
              <g
                 id="g11479"
                 transform="translate(-0.12620833,0.06310418)">
                <g
                   id="g11873"
                   transform="translate(-0.23575769,0.66462456)">
                  <g
                     id="g12382"
                     transform="translate(-121.98459,-82.267525)">
                    <g
                       id="g13305"
                       transform="matrix(0.13266609,0,0,0.13266609,114.63867,78.215696)">
                      <g
                         id="g17429"
                         transform="translate(0.90513437,5.6640979)">
                        <g
                           id="g18595"
                           transform="translate(-3.3634362,-8.7449387)">
                          <g
                             id="g21002"
                             transform="translate(1.7082278,-2.8204445)">
                            <g
                               id="g23814"
                               transform="translate(8.7253043,-1.1218249)">
                              <g
                                 id="g24838"
                                 transform="translate(11.143454,-0.85716864)">
                                <g
                                   id="g25315"
                                   transform="translate(-3.490122,2.4929446)">
                                <g
                                   id="g27220"
                                   transform="translate(2.4678888,1.2339445)">
                                <g
                                   id="g29753"
                                   transform="translate(1.4759287,-2.3737724)">
                                <g
                                   id="g30615"
                                   transform="translate(0.92006037,1.3687834)">
                                <g
                                   id="g31433"
                                   transform="translate(-2.4678886,-1.410222)">
                                <g
                                   id="g31731"
                                   transform="translate(1.0576664,-0.70511063)">
                                <g
                                   id="g33243"
                                   transform="matrix(1.0772948,0,0,1.0772948,-7.3729128,-3.1743014)">
                                <g
                                   id="g35254"
                                   transform="translate(-2.2135012,-0.92031205)">
                                <g
                                   id="g36749"
                                   transform="translate(-0.98178042,-2.7817105)">
                                <g
                                   id="g37297"
                                   transform="translate(-6.7755742,-3.5033798)">
                                <g
                                   id="g38955"
                                   transform="matrix(1.2171094,0,0,1.2171094,-23.105122,-18.212482)">
                                <g
                                   id="g39618"
                                   transform="translate(-0.26888273,-0.26888316)">
                                <path
                                   style="fill:#502d16;stroke-width:0.177188"
                                   d="m 85.969943,136.54216 -1.05135,-0.25599 -1.252092,-0.60869 -1.252093,-0.60869 -1.017379,-0.80699 -1.017378,-0.80698 -0.804722,-1.01738 c -0.442598,-0.55956 -1.039162,-1.49579 -1.3257,-2.08051 l -0.520978,-1.06312 -2.501913,-8.32783 c -1.376052,-4.58031 -2.835262,-9.43956 -3.242688,-10.79833 l -0.740776,-2.47049 -0.615809,-0.15805 -0.615808,-0.15804 -0.550926,-0.41795 -0.550925,-0.41795 -0.310864,-0.6551 -0.310864,-0.6551 0.084,-0.8742 0.084,-0.8742 0.351112,-0.47406 c 0.193112,-0.26074 0.61471,-0.65347 0.936884,-0.87274 l 0.585772,-0.39868 h 1.875012 1.875012 L 88.346647,87.505342 102.61383,73.269593 103.8766,72.445282 c 1.65166,-1.078159 3.15562,-1.765764 5.11599,-2.339008 l 1.59469,-0.466313 2.22527,-0.09762 2.22528,-0.09762 1.22989,0.21067 c 0.67644,0.115868 1.78803,0.37323 2.4702,0.571914 l 1.24032,0.361244 1.398,0.694632 c 0.7689,0.382047 1.92506,1.064211 2.56923,1.51592 l 1.17122,0.821288 14.08643,14.047921 14.08644,14.04793 1.94906,0.0567 1.94907,0.0567 0.57987,0.41359 0.57988,0.4136 0.35036,0.68677 0.35036,0.68677 v 0.57127 0.57128 l -0.36307,0.75001 -0.36308,0.75002 -0.45107,0.29555 c -0.24808,0.16255 -0.74144,0.39608 -1.09635,0.51895 l -0.64529,0.22341 -0.40578,1.3119 c -0.22318,0.72154 -0.95364,3.14579 -1.62325,5.38722 -0.66961,2.24142 -1.95149,6.50722 -2.84862,9.47955 l -1.63116,5.40423 -0.73469,1.40414 -0.73469,1.40413 -1.15172,1.17106 -1.15172,1.17105 -1.06483,0.64544 -1.06483,0.64544 -1.4158,0.50032 -1.4158,0.50031 -26.93256,0.0312 -26.932557,0.0312 z"
                                   id="path39628" />
                                <path
                                   style="fill:#b8906d;stroke-width:0.177188"
                                   d="m 85.969943,136.54216 -1.05135,-0.25599 -1.252092,-0.60869 -1.252093,-0.60869 -1.017379,-0.80699 -1.017378,-0.80698 -0.804722,-1.01738 c -0.442598,-0.55956 -1.039162,-1.49579 -1.3257,-2.08051 l -0.520978,-1.06312 -2.501913,-8.32783 c -1.376052,-4.58031 -2.835262,-9.43956 -3.242688,-10.79833 l -0.740776,-2.47049 -0.615809,-0.15805 -0.615808,-0.15804 -0.550926,-0.41795 -0.550925,-0.41795 -0.310864,-0.6551 -0.310864,-0.6551 0.084,-0.8742 0.084,-0.8742 0.351112,-0.47406 c 0.193112,-0.26074 0.61471,-0.65347 0.936884,-0.87274 l 0.585772,-0.39868 h 1.965609 1.96561 L 88.348651,87.663229 c 7.748393,-7.742825 14.327189,-14.259667 14.619549,-14.48187 0.29236,-0.222203 0.55814,-0.465264 0.59063,-0.540136 0.0325,-0.07487 0.17202,-0.136129 0.31008,-0.136129 h 0.25101 v -0.156523 c 0,-0.08609 0.13954,-0.204946 0.31008,-0.264132 0.17054,-0.05919 0.74862,-0.352552 1.28461,-0.651925 0.536,-0.299372 1.09414,-0.573129 1.24032,-0.608349 0.14618,-0.03522 0.62459,-0.196002 1.06313,-0.357296 0.43854,-0.161294 0.99668,-0.329951 1.24031,-0.374791 0.24363,-0.04484 0.60244,-0.13235 0.79735,-0.194464 0.63186,-0.201367 1.02833,-0.237 3.29519,-0.296162 l 2.23207,-0.05825 0.91301,0.18703 0.91302,0.18703 v 0.130256 c 0,0.07164 -0.15361,0.179012 -0.34136,0.238603 l -0.34137,0.108345 -1.05001,1.122459 -1.05,1.12246 -0.98395,1.92622 c -0.86442,1.692234 -12.78541,26.379855 -13.01536,26.954005 l -0.0887,0.22148 h 26.28664 26.28663 c -9.21349,-9.243296 -18.42697,-18.486596 -27.64046,-27.729895 9.27283,9.235719 18.54567,18.471437 27.8185,27.707155 l 1.94906,0.0557 1.94907,0.0557 0.57987,0.41359 0.57988,0.4136 0.35036,0.68677 0.35036,0.68677 v 0.57127 0.57128 l -0.36307,0.75001 -0.36308,0.75002 -0.45107,0.29555 c -0.24808,0.16255 -0.74144,0.39608 -1.09635,0.51895 l -0.64529,0.22341 -0.40578,1.3119 c -0.22318,0.72154 -0.95364,3.14579 -1.62325,5.38722 -0.66961,2.24142 -1.95149,6.50722 -2.84862,9.47955 l -1.63116,5.40423 -0.73469,1.40414 -0.73469,1.40413 -1.15172,1.17106 -1.15172,1.17105 -1.06483,0.64544 -1.06483,0.64544 -1.4158,0.50032 -1.4158,0.50031 -26.93256,0.0312 -26.932557,0.0312 z M 124.49653,73.302439 c 0,-0.04873 0.0399,-0.08859 0.0886,-0.08859 0.0487,0 0.0886,0.03987 0.0886,0.08859 0,0.04873 -0.0399,0.08859 -0.0886,0.08859 -0.0487,0 -0.0886,-0.03987 -0.0886,-0.08859 z m -0.70875,-0.531564 c 0,-0.04873 0.0399,-0.08859 0.0886,-0.08859 0.0487,0 0.0886,0.03987 0.0886,0.08859 0,0.04873 -0.0399,0.08859 -0.0886,0.08859 -0.0487,0 -0.0886,-0.03987 -0.0886,-0.08859 z m -1.06313,-0.708751 c 0,-0.04873 0.0399,-0.08859 0.0886,-0.08859 0.0487,0 0.0886,0.03987 0.0886,0.08859 0,0.04873 -0.0399,0.08859 -0.0886,0.08859 -0.0487,0 -0.0886,-0.03987 -0.0886,-0.08859 z m -1.24032,-0.708752 c 0,-0.04873 0.0399,-0.08859 0.0886,-0.08859 0.0487,0 0.0886,0.03987 0.0886,0.08859 0,0.04873 -0.0399,0.08859 -0.0886,0.08859 -0.0487,0 -0.0886,-0.03987 -0.0886,-0.08859 z m -0.35437,-0.177187 c 0,-0.04873 0.0399,-0.08859 0.0886,-0.08859 0.0487,0 0.0886,0.03987 0.0886,0.08859 0,0.04873 -0.0399,0.08859 -0.0886,0.08859 -0.0487,0 -0.0886,-0.03987 -0.0886,-0.08859 z m -0.88594,-0.354376 c 0,-0.04873 0.0399,-0.08859 0.0886,-0.08859 0.0487,0 0.0886,0.03987 0.0886,0.08859 0,0.04873 -0.0399,0.08859 -0.0886,0.08859 -0.0487,0 -0.0886,-0.03987 -0.0886,-0.08859 z m -0.35438,-0.177188 c 0,-0.04873 0.0399,-0.08859 0.0886,-0.08859 0.0487,0 0.0886,0.03987 0.0886,0.08859 0,0.04873 -0.0399,0.08859 -0.0886,0.08859 -0.0487,0 -0.0886,-0.03987 -0.0886,-0.08859 z m -0.53156,-0.177188 c 0,-0.04873 0.0399,-0.08859 0.0886,-0.08859 0.0487,0 0.0886,0.03987 0.0886,0.08859 0,0.04873 -0.0399,0.08859 -0.0886,0.08859 -0.0487,0 -0.0886,-0.03987 -0.0886,-0.08859 z m -0.53156,-0.177188 c 0,-0.04873 0.0399,-0.08859 0.0886,-0.08859 0.0487,0 0.0886,0.03987 0.0886,0.08859 0,0.04873 -0.0399,0.08859 -0.0886,0.08859 -0.0487,0 -0.0886,-0.03987 -0.0886,-0.08859 z m -1.24032,-0.354376 c 0,-0.04873 0.0399,-0.08859 0.0886,-0.08859 0.0487,0 0.0886,0.03987 0.0886,0.08859 0,0.04873 -0.0399,0.08859 -0.0886,0.08859 -0.0487,0 -0.0886,-0.03987 -0.0886,-0.08859 z"
                                   id="path39626"
                                   sodipodi:nodetypes="ccccccsscsscccccccccsscccsscscsssssssscccsscccsscccccccccccccccsscsssccccccccccccssssssssssssssssssssssssssssssssssssssssssssssssss" />
                                <path
                                   style="fill:#a0775a;stroke-width:0.177188"
                                   d="m 86.312541,136.53619 -1.240315,-0.26479 -1.417503,-0.68538 -1.417503,-0.68538 -0.890516,-0.76118 c -1.216839,-1.0401 -2.251225,-2.29065 -2.897216,-3.50265 l -0.541149,-1.0153 -1.583582,-5.21371 c -1.882896,-6.19915 -3.035604,-10.03487 -4.189502,-13.94087 l -0.850791,-2.87998 -0.683227,-0.18397 -0.683227,-0.18398 -0.587235,-0.51559 -0.587236,-0.5156 -0.218915,-0.73068 -0.218916,-0.73067 0.11884,-0.56245 c 0.06536,-0.30934 0.272714,-0.81592 0.460783,-1.12573 l 0.341943,-0.56329 0.758013,-0.36695 0.758012,-0.36695 h 1.758757 1.758757 l 14.265101,-14.241341 14.265096,-14.241344 1.13013,-0.753049 c 0.62157,-0.414176 1.72837,-1.029456 2.45956,-1.367288 l 1.32944,-0.61424 1.61576,-0.408536 1.61576,-0.408536 1.51197,-0.124685 1.51197,-0.124685 1.67086,0.203156 c 0.91897,0.111736 1.71367,0.250244 1.766,0.307797 l 0.0951,0.10464 -0.26578,0.0859 c -0.14618,0.04724 -0.80612,0.631535 -1.46652,1.298425 l -1.20073,1.212528 -2.62096,5.366158 c -1.44153,2.951389 -4.60412,9.492423 -7.02796,14.535632 l -4.407,9.169468 h -4.103958 -4.10396 l -0.597848,0.40289 -0.597848,0.40289 -0.402888,0.59785 -0.40289,0.59785 v 0.78866 0.78866 l 0.295743,0.62323 0.295743,0.62323 0.705376,0.51097 0.705376,0.51097 h 31.867234 31.86723 v 0.13356 c 0,0.0735 -0.32071,1.12994 -0.71269,2.34774 -0.39198,1.2178 -0.8691,2.81219 -1.06026,3.54309 -0.19116,0.7309 -0.67023,2.36546 -1.06458,3.63235 -0.39436,1.2669 -1.39502,4.52946 -2.22369,7.25015 l -1.50667,4.94671 -0.65487,1.25487 -0.65487,1.25487 -1.33252,1.334 -1.33253,1.334 -1.4175,0.73224 c -0.77963,0.40273 -1.89591,0.87574 -2.48063,1.05113 l -1.06313,0.31888 -26.48959,0.0395 -26.489584,0.0396 z"
                                   id="path39624"
                                   sodipodi:nodetypes="ccccsscsscccccccsscccccccsscccccsccsscsccccccccccccccccssssscccccsscccc" />
                                <path
                                   style="fill:#a05a2c;stroke-width:0.177188"
                                   d="m 73.938566,116.54902 c -0.454587,-1.50395 -0.826521,-2.84894 -0.826521,-2.98886 v -0.25439 l 40.531725,0.0872 c 22.29245,0.048 40.55694,0.10899 40.58776,0.13566 0.0308,0.0267 -0.32958,1.31232 -0.8009,2.857 l -0.85694,2.8085 -38.9043,0.0447 -38.904302,0.0447 z m 14.412054,-28.899424 14.08602,-14.091498 1.28864,-0.894271 1.28865,-0.894271 1.34811,-0.622864 1.3481,-0.622864 1.61576,-0.408536 1.61576,-0.408536 1.51197,-0.124685 1.51197,-0.124685 1.67086,0.203156 c 0.91897,0.111736 1.71367,0.250244 1.766,0.307797 l 0.0951,0.10464 -0.26578,0.0859 c -0.14618,0.04724 -0.80612,0.631535 -1.46652,1.298425 l -1.20073,1.212528 c -3.27751,6.694203 -6.68423,13.735019 -9.64892,19.90179 l -4.407,9.169468 H 87.386633 74.264602 Z"
                                   id="path39622"
                                   sodipodi:nodetypes="cscccsccccccccccccccsccsscccccc" />
                                <path
                                   style="fill:#754e4c;stroke-width:0.177188"
                                   d="m 73.938566,116.54902 c -0.454587,-1.50395 -0.826521,-2.84894 -0.826521,-2.98886 v -0.25439 l 40.531725,0.0872 c 22.29245,0.048 40.55694,0.10899 40.58776,0.13566 0.0308,0.0267 -0.32958,1.31232 -0.8009,2.857 l -0.85694,2.8085 -38.9043,0.0447 -38.904302,0.0447 z"
                                   id="path39620"
                                   sodipodi:nodetypes="cscccscccc" />
                                </g>
                                </g>
                                </g>
                                </g>
                                </g>
                                </g>
                                </g>
                                </g>
                                </g>
                                </g>
                                </g>
                                </g>
                              </g>
                            </g>
                          </g>
                        </g>
                      </g>
                    </g>
                  </g>
                </g>
              </g>
            </g>
          </g>
        </g>
      </g>
    </g>
  </g>
</svg>
