<?xml version="1.0" encoding="UTF-8" standalone="no"?>
<!-- Created with Inkscape (http://www.inkscape.org/) -->

<svg
   width="64"
   height="64"
   viewBox="0 0 16.933333 16.933334"
   version="1.1"
   id="svg5"
   inkscape:version="1.2 (dc2aedaf03, 2022-05-15)"
   sodipodi:docname="banyuls.svg"
   xmlns:inkscape="http://www.inkscape.org/namespaces/inkscape"
   xmlns:sodipodi="http://sodipodi.sourceforge.net/DTD/sodipodi-0.dtd"
   xmlns="http://www.w3.org/2000/svg"
   xmlns:svg="http://www.w3.org/2000/svg">
  <sodipodi:namedview
     id="namedview7"
     pagecolor="#ffffff"
     bordercolor="#666666"
     borderopacity="1.0"
     inkscape:pageshadow="2"
     inkscape:pageopacity="0.0"
     inkscape:pagecheckerboard="0"
     inkscape:document-units="mm"
     showgrid="false"
     units="px"
     inkscape:zoom="11.313708"
     inkscape:cx="22.008699"
     inkscape:cy="43.663844"
     inkscape:window-width="1920"
     inkscape:window-height="1017"
     inkscape:window-x="1912"
     inkscape:window-y="-8"
     inkscape:window-maximized="1"
     inkscape:current-layer="g40543"
     inkscape:showpageshadow="2"
     inkscape:deskcolor="#d1d1d1" />
  <defs
     id="defs2" />
  <g
     inkscape:label="Calque 1"
     inkscape:groupmode="layer"
     id="layer1">
    <g
       id="g4128"
       transform="translate(-0.63104184,0.12620835)">
      <g
         id="g5578"
         transform="translate(0.08924235,0.08924306)">
        <g
           id="g7501"
           transform="translate(-0.06310417,0.94656242)">
          <g
             id="g9467"
             transform="translate(-0.08924275,-0.80318511)">
            <g
               id="g10302"
               transform="translate(0.31234979,-0.04462139)">
              <g
                 id="g11479"
                 transform="translate(-0.12620833,0.06310418)">
                <g
                   id="g11873"
                   transform="translate(-0.23575769,0.66462456)">
                  <g
                     id="g12382"
                     transform="translate(-121.98459,-82.267525)">
                    <g
                       id="g13305"
                       transform="matrix(0.13266609,0,0,0.13266609,114.63867,78.215696)">
                      <g
                         id="g17429"
                         transform="translate(0.90513437,5.6640979)">
                        <g
                           id="g18595"
                           transform="translate(-3.3634362,-8.7449387)">
                          <g
                             id="g21002"
                             transform="translate(1.7082278,-2.8204445)">
                            <g
                               id="g23814"
                               transform="translate(8.7253043,-1.1218249)">
                              <g
                                 id="g24838"
                                 transform="translate(11.143454,-0.85716864)">
                                <g
                                   id="g25315"
                                   transform="translate(-3.490122,2.4929446)">
                                <g
                                   id="g27220"
                                   transform="translate(2.4678888,1.2339445)">
                                <g
                                   id="g29753"
                                   transform="translate(1.4759287,-2.3737724)">
                                <g
                                   id="g30615"
                                   transform="translate(0.92006037,1.3687834)">
                                <g
                                   id="g31433"
                                   transform="translate(-2.4678886,-1.410222)">
                                <g
                                   id="g31731"
                                   transform="translate(1.0576664,-0.70511063)">
                                <g
                                   id="g33243"
                                   transform="matrix(1.0772948,0,0,1.0772948,-7.3729128,-3.1743014)">
                                <g
                                   id="g35254"
                                   transform="translate(-2.2135012,-0.92031205)">
                                <g
                                   id="g36749"
                                   transform="translate(-0.98178042,-2.7817105)">
                                <g
                                   id="g37297"
                                   transform="translate(-6.7755742,-3.5033798)">
                                <g
                                   id="g38955"
                                   transform="matrix(1.2171094,0,0,1.2171094,-23.105122,-18.212482)">
                                <g
                                   id="g39618"
                                   transform="translate(-0.26888273,-0.26888316)">
                                <g
                                   id="g40032"
                                   transform="translate(-1.90129,-3.042064)">
                                <g
                                   id="g40543"
                                   transform="translate(0.3802582,-2.0914191)">
                                <path
                                   style="fill:#ebecc6;stroke-width:0.254555"
                                   d="m 110.17485,144.887 c -1.86673,-0.0463 -3.73347,-0.0927 -5.6002,-0.13904 -0.58861,-1.40824 -1.65401,-2.71187 -1.93955,-4.18661 0.17602,-1.84208 -0.0411,-3.78193 0.37468,-5.5644 0.59125,-1.52116 1.85302,-2.9049 1.44851,-4.63011 -0.29731,-9.19491 -1.3461,-18.34935 -1.90007,-27.52362 0.0457,-2.46042 -0.0968,-4.956812 0.0628,-7.395457 0.61278,-1.528304 1.04006,-3.175804 2.42007,-4.211099 1.46598,-1.539567 3.14175,-2.953329 3.76143,-5.074038 1.52901,-3.303301 0.95133,-7.004608 1.51083,-10.504425 0.48527,-4.416411 0.85044,-8.847655 1.00667,-13.288533 2.83354,-3.380601 7.18785,-4.846003 8.46848,0.16648 0.61199,5.886587 0.9377,11.800601 1.58885,17.682352 -0.0644,3.925053 1.34731,7.868977 4.3639,10.474396 1.3511,1.165662 2.29541,2.642635 2.63665,4.423724 1.05525,2.999532 0.23461,6.18352 0.22527,9.26998 -0.65396,8.14665 -1.28261,16.29784 -1.74396,24.45695 0.0229,1.57452 -0.28154,3.22581 0.67377,4.60207 0.66208,1.25391 1.19667,2.53538 0.96961,3.98145 -0.15936,1.78961 0.47447,3.77384 -0.6825,5.31865 -0.52886,0.96367 -0.83042,2.18318 -2.09787,2.31558 -5.16984,0.0501 -10.37182,-0.0721 -15.54731,-0.1743 z"
                                   id="path40553"
                                   sodipodi:nodetypes="sccccccccccccccccccccss" />
                                <path
                                   style="fill:#24221c;stroke-width:0.254555"
                                   d="m 110.23964,144.6846 c -1.84513,-0.0246 -3.69025,-0.0493 -5.53538,-0.0739 -0.65151,-1.52154 -1.97619,-2.87786 -1.65693,-4.63767 0.10956,-1.64293 -0.22292,-3.39515 0.17074,-4.96784 0.68414,-1.31676 1.58915,-2.57076 1.41814,-4.13048 0.25809,-3.78115 -0.69146,-7.55882 -0.76878,-11.34094 -0.15145,-1.59053 -0.90383,-6.3937 0.80583,-1.50651 0.61841,1.42428 1.34804,2.76781 2.60602,3.7278 1.035,1.35076 2.55233,2.0115 4.06627,2.67706 5.62889,1.60162 13.11158,-0.23756 15.042,-5.94404 0.32915,-0.52477 1.37384,-2.80299 1.33437,-2.1668 -0.44887,4.55917 -0.95886,9.17438 -1.1567,13.74764 0.0841,1.42285 0.15432,2.84978 1.03948,4.03606 1.1219,1.50777 0.47525,3.45198 0.64348,5.1951 0.0812,1.28242 0.0581,2.53924 -0.76376,3.59992 -0.44901,0.96571 -0.94044,2.2217 -2.24571,1.96877 -4.99973,-0.0577 -9.99954,-0.11748 -14.99907,-0.18417 z m -7.54126,-40.52586 c -0.12442,-2.7259 -0.37321,-5.491297 0.27567,-8.185765 0.1575,-1.441222 0.73021,-2.914103 1.62302,-4.042358 1.51488,-1.718254 3.53481,-3.085829 4.28335,-5.343958 0.72284,-1.424308 0.43576,-3.759519 2.62192,-3.058956 h 9.93975 c 0.54945,2.511579 1.5497,5.005174 3.56762,6.676904 1.51645,1.427612 3.01839,3.083125 3.2647,5.238725 0.80297,3.721218 0.22446,7.542908 0.0771,11.302658 -0.13275,0.59041 0.0362,5.17127 -0.52091,2.33948 -0.56116,-2.40947 -1.41488,-4.9226 -2.9803,-6.84579 -1.52753,-1.47762 -3.06778,-3.004604 -5.22768,-3.491681 -2.59378,-1.057512 -5.56635,-0.879492 -8.16135,0.04189 -1.57511,0.673604 -3.12523,1.384561 -4.26085,2.715131 -1.19945,1.05496 -2.0278,2.52826 -2.74654,3.92606 -0.38093,0.97083 -1.18906,5.1056 -1.35144,4.04044 -0.26518,-1.73807 -0.38239,-4.04079 -0.40402,-5.31278 z m 8.93775,-42.519234 c -0.40335,-1.414063 -0.11779,-1.887719 -0.3794,-4.02206 -0.22067,-1.279681 2.08991,-0.329444 3.09629,-0.563368 h 5.33753 c 0.34266,1.118942 0.26182,1.949875 0.24587,3.117744 0.20027,0.903055 -0.29806,1.813011 -0.5522,1.973338 h -7.43234 z"
                                   id="path40547"
                                   sodipodi:nodetypes="scccccccccccccccscccccccccccccccccccccccccc" />
                                </g>
                                </g>
                                </g>
                                </g>
                                </g>
                                </g>
                                </g>
                                </g>
                                </g>
                                </g>
                                </g>
                                </g>
                                </g>
                                </g>
                              </g>
                            </g>
                          </g>
                        </g>
                      </g>
                    </g>
                  </g>
                </g>
              </g>
            </g>
          </g>
        </g>
      </g>
    </g>
  </g>
</svg>
