<?xml version="1.0" encoding="UTF-8" standalone="no"?>
<!-- Created with Inkscape (http://www.inkscape.org/) -->

<svg
   width="64"
   height="64"
   viewBox="0 0 16.933333 16.933334"
   version="1.1"
   id="svg5"
   inkscape:version="1.2 (dc2aedaf03, 2022-05-15)"
   sodipodi:docname="bar.svg"
   xmlns:inkscape="http://www.inkscape.org/namespaces/inkscape"
   xmlns:sodipodi="http://sodipodi.sourceforge.net/DTD/sodipodi-0.dtd"
   xmlns="http://www.w3.org/2000/svg"
   xmlns:svg="http://www.w3.org/2000/svg">
  <sodipodi:namedview
     id="namedview7"
     pagecolor="#ffffff"
     bordercolor="#666666"
     borderopacity="1.0"
     inkscape:pageshadow="2"
     inkscape:pageopacity="0.0"
     inkscape:pagecheckerboard="0"
     inkscape:document-units="mm"
     showgrid="false"
     units="px"
     inkscape:zoom="45.254836"
     inkscape:cx="21.356834"
     inkscape:cy="31.886095"
     inkscape:window-width="1920"
     inkscape:window-height="1017"
     inkscape:window-x="1912"
     inkscape:window-y="-8"
     inkscape:window-maximized="1"
     inkscape:current-layer="g41372"
     inkscape:showpageshadow="2"
     inkscape:deskcolor="#d1d1d1" />
  <defs
     id="defs2" />
  <g
     inkscape:label="Calque 1"
     inkscape:groupmode="layer"
     id="layer1">
    <g
       id="g4128"
       transform="translate(-0.63104184,0.12620835)">
      <g
         id="g5578"
         transform="translate(0.08924235,0.08924306)">
        <g
           id="g7501"
           transform="translate(-0.06310417,0.94656242)">
          <g
             id="g9467"
             transform="translate(-0.08924275,-0.80318511)">
            <g
               id="g10302"
               transform="translate(0.31234979,-0.04462139)">
              <g
                 id="g11479"
                 transform="translate(-0.12620833,0.06310418)">
                <g
                   id="g11873"
                   transform="translate(-0.23575769,0.66462456)">
                  <g
                     id="g12382"
                     transform="translate(-121.98459,-82.267525)">
                    <g
                       id="g13305"
                       transform="matrix(0.13266609,0,0,0.13266609,114.63867,78.215696)">
                      <g
                         id="g17429"
                         transform="translate(0.90513437,5.6640979)">
                        <g
                           id="g18595"
                           transform="translate(-3.3634362,-8.7449387)">
                          <g
                             id="g21002"
                             transform="translate(1.7082278,-2.8204445)">
                            <g
                               id="g23814"
                               transform="translate(8.7253043,-1.1218249)">
                              <g
                                 id="g24838"
                                 transform="translate(11.143454,-0.85716864)">
                                <g
                                   id="g25315"
                                   transform="translate(-3.490122,2.4929446)">
                                <g
                                   id="g27220"
                                   transform="translate(2.4678888,1.2339445)">
                                <g
                                   id="g29753"
                                   transform="translate(1.4759287,-2.3737724)">
                                <g
                                   id="g30615"
                                   transform="translate(0.92006037,1.3687834)">
                                <g
                                   id="g31433"
                                   transform="translate(-2.4678886,-1.410222)">
                                <g
                                   id="g31731"
                                   transform="translate(1.0576664,-0.70511063)">
                                <g
                                   id="g33243"
                                   transform="matrix(1.0772948,0,0,1.0772948,-7.3729128,-3.1743014)">
                                <g
                                   id="g35254"
                                   transform="translate(-2.2135012,-0.92031205)">
                                <g
                                   id="g36749"
                                   transform="translate(-0.98178042,-2.7817105)">
                                <g
                                   id="g37297"
                                   transform="translate(-6.7755742,-3.5033798)">
                                <g
                                   id="g38955"
                                   transform="matrix(1.2171094,0,0,1.2171094,-23.105122,-18.212482)">
                                <g
                                   id="g39618"
                                   transform="translate(-0.26888273,-0.26888316)">
                                <g
                                   id="g40032"
                                   transform="translate(-1.90129,-3.042064)">
                                <g
                                   id="g40543"
                                   transform="translate(0.3802582,-2.0914191)">
                                <g
                                   id="g41372"
                                   transform="translate(1.9657652,-7.9304203)">
                                <path
                                   style="fill:#c8c4b7;stroke-width:0.151033"
                                   d="m 153.00508,119.94475 c -2.07406,-1.23446 -3.56092,-3.31669 -5.21945,-5.04078 -1.93389,-2.26953 -3.69809,-4.67559 -5.42874,-7.1016 -3.35696,2.38355 -7.04195,4.25106 -10.88486,5.72257 -3.45895,3.62532 -8.62637,5.25182 -13.55787,5.01719 -1.90725,-0.11417 -2.95311,-0.20152 -2.40548,1.36711 -3.06833,0.0162 -6.16969,0.14066 -9.11894,-0.90254 -1.67153,-0.86671 -2.80831,-0.70328 -4.16292,0.37333 -1.51814,0.19046 -2.12431,-1.42774 -2.625631,-2.5675 -7.880902,-0.77944 -15.57512,-3.17099 -22.566604,-6.89132 -2.173709,-1.3253 -4.400497,-2.7073 -6.259441,-4.43325 2.118548,0.47977 4.564101,0.31342 6.251848,-1.17305 -2.016252,-0.18266 -4.135918,0.15415 -6.046611,-0.63506 8.335321,-6.89289 19.094307,-10.060842 29.678039,-11.315796 4.02533,-1.778238 8.3437,-3.184842 12.78973,-3.019193 0.65501,0.05542 2.8503,-0.457517 1.94662,0.752307 -0.20135,1.357199 3.31439,0.412785 4.79711,0.678735 4.24737,0.274223 8.52068,1.95963 11.42837,5.150426 3.87771,1.449855 7.53998,3.393415 10.89846,5.807681 1.64129,-0.89335 2.83555,-3.717155 4.38634,-5.252901 2.12825,-2.393503 4.08838,-5.287781 7.12749,-6.58009 2.17717,0.246643 2.6519,2.770517 2.93026,4.547927 -0.0337,2.353879 0.27427,5.001655 -1.27715,6.963474 -2.20222,1.35242 -4.50171,2.53498 -6.76925,3.76718 2.24514,1.39314 4.9459,2.2629 6.91485,4.0086 1.45843,2.58788 1.46051,5.79902 0.73375,8.61264 -0.32092,1.36766 -1.31893,2.83092 -2.89394,2.48141 -0.22191,-0.11239 -0.44447,-0.22565 -0.66598,-0.3375 z M 90.128701,105.40188 c 2.049383,-0.73619 2.607892,-3.45404 1.363673,-5.10181 -1.159946,-1.580439 -3.82507,-1.773032 -5.090402,-0.1598 -1.029005,0.8448 -1.006871,2.34012 -0.666047,3.47982 0.620029,1.7423 2.760014,2.49585 4.392776,1.78179 z m -3.255245,-1.82995 c -1.085559,-0.73409 -0.700981,-2.31319 0.427737,-2.61752 1.213047,-0.20752 1.978806,0.91371 1.652151,2.06181 -0.51938,0.75364 -1.233452,0.75934 -2.079888,0.55571 z"
                                   id="path41380" />
                                <path
                                   style="fill:#aca793;stroke-width:0.151033"
                                   d="m 101.08883,119.08922 c -0.86407,-0.41197 -0.94786,-1.53691 -1.453591,-2.27631 -1.372098,0.23478 -1.108979,-0.64643 -0.40143,-1.35798 -0.120341,-0.77501 -0.364768,-1.57617 0.70466,-1.07382 1.440081,-2.80138 2.365741,-5.92764 2.154771,-9.09728 -0.0351,-4.55946 -2.370938,-8.85759 -5.478478,-12.089743 0.498689,-0.666405 2.802311,-0.482188 4.079998,-0.788138 3.18115,-0.455459 6.41266,-0.240103 9.61696,-0.387221 6.65532,0.155615 13.32743,1.178519 19.64803,3.305669 5.75945,2.025481 11.25751,4.997943 15.78212,9.129613 0.0494,0.77463 -0.94064,1.09486 -1.36284,1.66333 -1.66887,1.61622 -3.78564,2.66322 -5.66022,4.01801 -4.89864,2.66959 -10.13705,4.70706 -15.6151,5.80805 -4.56914,0.87989 -9.21688,1.53257 -13.87972,1.38163 -1.80293,-7.9e-4 -3.60587,-0.002 -5.4088,-0.002 0.30604,0.69271 -0.15858,1.29158 -0.68518,1.69218 -0.6509,0.27785 -1.447,0.63301 -2.04118,0.0744 z M 86.873456,103.57193 c -0.694788,-0.53595 -0.993976,-1.77408 -0.104597,-2.26867 0.49802,-0.70419 1.744598,-0.30611 2.090665,0.33757 0.420838,0.86815 -0.05871,2.19149 -1.129213,2.02169 -0.287577,-0.005 -0.576976,-0.0188 -0.856855,-0.0906 z"
                                   id="path41378" />
                                <path
                                   style="fill:#6c6753;stroke-width:0.151033"
                                   d="m 101.1855,119.04065 c -1.473944,-1.08093 -1.724928,-3.08832 -1.987878,-4.77814 1.819408,0.42085 3.640138,1.52397 4.556978,3.15104 0.23685,0.94446 -0.35457,1.60361 -1.29943,1.81559 -0.44722,0.27123 -0.89041,0.0985 -1.26967,-0.18849 z m 4.28451,-4.1345 c 0.68887,-2.68468 1.42855,-5.40053 1.65499,-8.16853 0.0171,-2.00619 0.30423,-4.02662 -0.11551,-6.00976 -0.22259,-2.094349 -0.86832,-4.110569 -1.44133,-6.115241 0.58126,0.366212 1.29318,1.517128 1.78487,2.264809 1.05118,1.648388 1.46112,3.621502 1.8815,5.511802 -0.0555,1.54401 0.13274,3.1164 -0.0866,4.64134 -0.62626,2.92244 -1.69426,5.86593 -3.70049,8.11927 -0.16601,0.15849 0.041,-0.20368 0.0226,-0.24369 z m 6.19424,-0.75517 c 0.62808,-2.44889 1.26896,-4.89875 1.51962,-7.42056 0.2524,-1.78722 -0.0462,-3.60314 -0.0338,-5.40287 -0.27455,-2.088425 -0.85738,-4.136563 -1.51799,-6.137663 2.06346,1.954302 3.17367,4.734163 3.4807,7.525053 0.41602,3.03794 -0.30449,6.19774 -1.63445,8.93474 -0.16927,0.31948 -1.9189,3.41695 -1.81405,2.5013 z m 6.13645,-0.35685 c 0.4947,-2.32162 1.21607,-4.6291 1.42919,-6.99587 -0.0403,-1.92375 0.0892,-3.86493 -0.0593,-5.7776 -0.33769,-1.797518 -0.81994,-3.563179 -1.2974,-5.324282 1.09119,0.974844 1.78204,2.251589 2.3536,3.57627 0.42577,1.077832 0.6516,2.249072 0.91569,3.373572 -0.0829,1.59 -0.0171,3.20377 -0.19034,4.77931 -0.65658,2.31421 -1.4803,4.70113 -3.12662,6.49135 l -0.0249,-0.12275 z m 6.086,-1.24791 c 0.51262,-2.16782 1.25864,-4.29052 1.38328,-6.53007 0.2393,-1.53589 -0.0116,-3.09553 -0.0651,-4.63688 -0.29892,-1.71962 -0.86409,-3.371236 -1.38351,-5.031372 0.79154,0.872029 1.71032,1.656148 2.10751,2.800607 0.52164,0.941775 0.9605,1.911945 1.07103,2.994705 0.4,1.56192 0.0196,3.18537 0.0425,4.77702 -0.46777,1.46558 -0.92082,2.9456 -1.83824,4.20684 -0.19168,0.20963 -1.44284,2.40222 -1.31747,1.41915 z m 6.15313,-0.90306 c 0.58553,-2.51778 1.58933,-5.04695 1.32483,-7.67112 -0.0412,-1.28625 -0.0201,-2.58268 -0.49148,-3.80253 0.0629,-0.588344 -1.25361,-2.442358 -0.51838,-2.303624 0.73941,0.775867 1.43635,1.580177 1.80898,2.601614 0.53806,0.95735 0.75994,2.07052 0.88734,3.14595 0.0115,1.15805 0.0905,2.3258 -0.363,3.4206 -0.47734,1.70321 -1.38332,3.42245 -2.64829,4.60911 z m -43.166374,-8.07123 c -0.634392,-0.49505 -1.005778,-1.67722 -0.197231,-2.17603 0.435611,-0.7172 1.362586,-0.47631 1.944669,-0.0744 0.433181,0.44611 0.586396,1.61921 -0.01711,2.02316 -0.386979,0.58731 -1.156058,0.23927 -1.730329,0.22731 z"
                                   id="path41376" />
                                <path
                                   style="fill:#885e3d;stroke-width:0.151033"
                                   d="m 86.873456,103.57193 c -0.177644,-0.10501 -0.287567,-0.29238 -0.391591,-0.4648 -0.08352,-0.15818 -0.164608,-0.31764 -0.247122,-0.47635 0,-0.26447 0,-0.52893 0,-0.7934 0.294324,-0.29432 0.588645,-0.58864 0.882963,-0.88297 0.264468,0 0.528936,0 0.793404,0 0.284863,0.14731 0.569727,0.29462 0.854594,0.44193 0.06649,0.17171 0.140668,0.34289 0.153409,0.52931 0.04927,0.3616 0.03046,0.72688 0.03423,1.09057 -0.233037,0.21893 -0.466076,0.43786 -0.699118,0.65679 -0.443919,-0.0144 -0.892729,0.005 -1.330074,-0.0854 l -0.02806,-0.008 -0.02264,-0.008 z"
                                   id="path41374" />
                                </g>
                                </g>
                                </g>
                                </g>
                                </g>
                                </g>
                                </g>
                                </g>
                                </g>
                                </g>
                                </g>
                                </g>
                                </g>
                                </g>
                                </g>
                              </g>
                            </g>
                          </g>
                        </g>
                      </g>
                    </g>
                  </g>
                </g>
              </g>
            </g>
          </g>
        </g>
      </g>
    </g>
  </g>
</svg>
