<?xml version="1.0" encoding="UTF-8" standalone="no"?>
<!-- Created with Inkscape (http://www.inkscape.org/) -->

<svg
   width="64"
   height="64"
   viewBox="0 0 16.933333 16.933334"
   version="1.1"
   id="svg5"
   inkscape:version="1.2 (dc2aedaf03, 2022-05-15)"
   sodipodi:docname="barbe_a_papa.svg"
   xmlns:inkscape="http://www.inkscape.org/namespaces/inkscape"
   xmlns:sodipodi="http://sodipodi.sourceforge.net/DTD/sodipodi-0.dtd"
   xmlns="http://www.w3.org/2000/svg"
   xmlns:svg="http://www.w3.org/2000/svg">
  <sodipodi:namedview
     id="namedview7"
     pagecolor="#ffffff"
     bordercolor="#666666"
     borderopacity="1.0"
     inkscape:pageshadow="2"
     inkscape:pageopacity="0.0"
     inkscape:pagecheckerboard="0"
     inkscape:document-units="mm"
     showgrid="false"
     units="px"
     inkscape:zoom="22.627417"
     inkscape:cx="36.769553"
     inkscape:cy="28.549436"
     inkscape:window-width="1920"
     inkscape:window-height="1017"
     inkscape:window-x="1912"
     inkscape:window-y="-8"
     inkscape:window-maximized="1"
     inkscape:current-layer="g41869"
     inkscape:showpageshadow="2"
     inkscape:deskcolor="#d1d1d1" />
  <defs
     id="defs2" />
  <g
     inkscape:label="Calque 1"
     inkscape:groupmode="layer"
     id="layer1">
    <g
       id="g4128"
       transform="translate(-0.63104184,0.12620835)">
      <g
         id="g5578"
         transform="translate(0.08924235,0.08924306)">
        <g
           id="g7501"
           transform="translate(-0.06310417,0.94656242)">
          <g
             id="g9467"
             transform="translate(-0.08924275,-0.80318511)">
            <g
               id="g10302"
               transform="translate(0.31234979,-0.04462139)">
              <g
                 id="g11479"
                 transform="translate(-0.12620833,0.06310418)">
                <g
                   id="g11873"
                   transform="translate(-0.23575769,0.66462456)">
                  <g
                     id="g12382"
                     transform="translate(-121.98459,-82.267525)">
                    <g
                       id="g13305"
                       transform="matrix(0.13266609,0,0,0.13266609,114.63867,78.215696)">
                      <g
                         id="g17429"
                         transform="translate(0.90513437,5.6640979)">
                        <g
                           id="g18595"
                           transform="translate(-3.3634362,-8.7449387)">
                          <g
                             id="g21002"
                             transform="translate(1.7082278,-2.8204445)">
                            <g
                               id="g23814"
                               transform="translate(8.7253043,-1.1218249)">
                              <g
                                 id="g24838"
                                 transform="translate(11.143454,-0.85716864)">
                                <g
                                   id="g25315"
                                   transform="translate(-3.490122,2.4929446)">
                                <g
                                   id="g27220"
                                   transform="translate(2.4678888,1.2339445)">
                                <g
                                   id="g29753"
                                   transform="translate(1.4759287,-2.3737724)">
                                <g
                                   id="g30615"
                                   transform="translate(0.92006037,1.3687834)">
                                <g
                                   id="g31433"
                                   transform="translate(-2.4678886,-1.410222)">
                                <g
                                   id="g31731"
                                   transform="translate(1.0576664,-0.70511063)">
                                <g
                                   id="g33243"
                                   transform="matrix(1.0772948,0,0,1.0772948,-7.3729128,-3.1743014)">
                                <g
                                   id="g35254"
                                   transform="translate(-2.2135012,-0.92031205)">
                                <g
                                   id="g36749"
                                   transform="translate(-0.98178042,-2.7817105)">
                                <g
                                   id="g37297"
                                   transform="translate(-6.7755742,-3.5033798)">
                                <g
                                   id="g38955"
                                   transform="matrix(1.2171094,0,0,1.2171094,-23.105122,-18.212482)">
                                <g
                                   id="g39618"
                                   transform="translate(-0.26888273,-0.26888316)">
                                <g
                                   id="g40032"
                                   transform="translate(-1.90129,-3.042064)">
                                <g
                                   id="g40543"
                                   transform="translate(0.3802582,-2.0914191)">
                                <g
                                   id="g41372"
                                   transform="translate(1.9657652,-7.9304203)">
                                <g
                                   id="g41869"
                                   transform="translate(-0.76051581,-2.6618061)">
                                <path
                                   style="fill:#fce2e9;stroke-width:0.058265"
                                   d="m 113.44217,141.21117 c -1.2e-4,-2.58794 -2.3e-4,-5.17587 -3.5e-4,-7.76381 -1.92593,-0.56292 -3.64842,-1.77402 -5.1849,-2.91915 -4.80049,2.38591 -10.672611,0.41818 -13.924261,-3.59065 -3.347113,-3.47379 -4.040613,-8.49798 -4.199947,-13.11398 -1.48281,-1.20763 -1.380054,-3.39862 -0.525509,-4.95009 -1.305469,-4.03215 -0.22145,-9.482845 4.191042,-11.086294 -2.27272,-3.145858 -2.191355,-7.752084 0.409951,-10.694736 1.729276,-2.115086 4.500476,-3.374026 7.242204,-2.984046 0.18797,-4.666164 2.88941,-9.428023 7.48785,-10.948954 2.17957,-0.856555 4.60863,-0.404351 6.31161,-2.216884 2.56999,-0.827055 4.71933,1.690976 5.82616,3.672703 2.5604,-0.513308 5.23353,1.178295 5.80834,3.734979 0.50561,1.482297 0.14265,3.184125 -0.46345,4.497375 4.1092,0.83962 8.05141,3.818304 8.68126,8.193227 0.54184,2.267936 0.0697,4.734833 -0.37374,6.864597 2.86727,0.245623 4.34232,3.479103 3.5953,6.030713 0.46773,1.70985 -2.93826,2.69427 -1.5537,3.8251 1.05114,1.27586 0.50435,3.18896 -0.97783,3.91124 3.45555,2.50536 4.83397,7.52875 2.63849,11.28441 -1.39839,2.50085 -3.91092,4.35268 -6.75223,4.82431 -2.00893,3.74802 -6.47101,5.37123 -10.41236,6.14303 -2.06459,0.27594 -4.20276,0.38397 -6.2502,-0.0841 0,5.04489 0,10.08979 0,15.13468 -1.41744,0.33459 -1.87216,-0.29358 -1.57323,-1.67545 -2.4e-4,-2.02928 1.3e-4,-4.05962 -5e-4,-6.08824 z"
                                   id="path41879" />
                                <path
                                   style="fill:#fdd2dc;stroke-width:0.058265"
                                   d="m 113.46677,148.92158 c -0.0412,-5.15999 -0.0183,-10.32031 -0.0243,-15.48046 -2.15444,-0.18787 -3.80072,-2.89405 -5.64675,-2.75731 -4.85308,2.1294 -10.872319,0.0339 -13.696022,-4.36433 -2.521912,-3.34143 -3.33667,-7.7812 -2.750941,-11.84501 1.247188,0.67302 2.866655,0.39471 0.910027,-0.73669 -0.800333,-1.11744 -1.009052,-2.56686 -0.77414,-3.903 0.64612,0.44827 2.975127,1.27881 2.377041,0.31851 -3.138285,-3.33327 -1.423471,-8.80041 1.998427,-11.186595 0.988544,0.435867 3.316952,-0.05908 3.304466,-1.014589 -3.93906,-0.820484 -4.749143,-5.999088 -2.732525,-8.931816 1.264101,-1.657288 3.536765,-2.900069 5.591117,-2.6384 0.38388,0.646402 3.40461,1.863713 2.94856,0.784083 -1.90323,-3.514408 -0.005,-7.866565 2.57703,-10.533835 2.44503,-1.98986 5.8254,-2.360498 8.80693,-2.301173 -1.17016,-0.103071 -2.87394,-0.825063 -2.96892,-2.066057 1.32268,-1.680711 3.93308,-1.980933 5.47857,-0.387374 1.36434,0.842758 1.56811,3.31671 3.44227,2.728729 3.11125,-0.04101 5.17456,3.246833 4.73089,6.117794 -0.91112,1.931358 -0.17615,2.4773 1.73816,2.910889 4.18079,1.439056 6.89123,5.842406 6.48099,10.210037 0.45328,1.469785 -1.45595,3.926 0.30452,4.281102 2.17739,0.612657 3.15403,3.048445 2.84088,5.146535 -0.13361,1.48762 -0.82605,3.11025 -2.20081,3.84635 1.1352,0.9538 1.6262,2.86372 0.3471,3.89815 -1.88043,1.372 2.67438,2.98838 2.48486,5.06723 1.66543,4.60068 -1.43284,9.96039 -6.0143,11.33054 -1.46454,-0.15888 -1.65957,1.1715 -2.44424,2.02704 -4.05111,3.85681 -10.0991,5.41737 -15.55921,4.38248 -0.01,5.03337 -0.0197,10.06675 -0.0296,15.10012 -0.50624,-1.6e-4 -1.01497,0.0337 -1.52008,-0.003 z m -13.29573,-23.47109 c 0.38119,-2.68514 1.40257,-5.46725 3.5622,-7.27315 3.22139,-2.6202 7.7053,-3.51066 11.7486,-2.79766 0.73986,-0.0236 3.25114,1.62751 1.84053,0.0639 -2.42427,-1.92868 -5.86075,-1.53209 -8.71196,-1.04381 -4.62503,0.86585 -9.341137,4.79774 -9.094361,9.81932 0.09241,0.25818 0.03211,1.71532 0.654991,1.23143 z m 19.49164,-12.2328 c 1.78513,-2.9408 5.33295,-4.7184 8.73407,-3.96822 2.38506,0.93491 1.15526,-0.15984 -0.18942,-0.52773 -3.54246,-1.25141 -8.09739,0.73535 -9.10334,4.46679 0.10213,0.2782 0.44294,0.35487 0.55869,0.0292 z m -7.85159,-20.21166 c 0.57564,-4.630784 4.56088,-8.454077 9.20878,-8.844385 2.01281,0.172293 1.40378,-1.231043 -0.0656,-0.91267 -4.93002,0.31802 -9.32943,4.797642 -9.25966,9.79159 h 0.0583 l 0.0583,-0.03455 z M 93.981997,87.418002 c 0.07443,-0.104502 0.07443,0.104502 0,0 z"
                                   id="path41877" />
                                <path
                                   style="fill:#eac6d0;stroke-width:0.058265"
                                   d="m 113.46403,148.88759 c -0.0467,-5.15885 -0.0356,-10.31808 -0.0507,-15.47711 -1.86273,-0.65236 -3.65636,-1.59649 -5.0691,-2.99153 2.77344,1.5977 6.15759,1.49163 9.25127,1.21109 4.14167,-0.41511 9.03945,-2.23701 10.26789,-6.67365 0.27794,-1.12295 0.13008,-2.2909 -0.20426,-3.3825 1.36896,-0.0772 2.70445,0.29399 4.02014,0.50137 3.25546,-1.60838 4.4155,-6.03045 2.62527,-9.14548 -0.52028,-1.20799 -1.68599,-2.02122 0.11289,-2.28286 0.94692,-0.67185 1.18924,-2.15861 0.4356,-3.06448 -0.90624,0.22865 -3.54264,-0.42358 -1.66616,-0.80566 2.59582,-0.88409 3.08843,-4.98679 0.6926,-6.35967 -1.09088,-0.797912 -2.01686,0.76422 -3.19525,0.54525 -0.71217,-0.60392 1.34049,-2.766374 1.29315,-4.289249 1.01335,-4.114586 -0.53405,-8.771501 -4.08983,-11.181425 -0.79485,-0.453094 -1.8592,-1.489566 -2.67605,-1.34962 -1.0965,1.257635 -3.55513,1.458478 -1.49518,-0.431836 1.87097,-3.049665 0.58097,-7.477996 -2.6552,-9.015339 2.97319,-0.7505 5.9654,1.817021 5.98691,4.815772 0.67697,1.320327 -1.82693,3.568261 0.2085,3.615788 4.15358,0.964002 7.68435,4.505715 7.96402,8.865335 0.76631,1.945235 -1.38327,5.288593 0.27449,6.119141 2.75434,0.753468 3.53856,4.209163 2.56762,6.610233 -0.0397,1.208 -1.87115,1.95951 -1.55491,2.78203 1.24084,1.1692 0.96115,3.25846 -0.57911,4.04396 0.48022,1.10847 2.49187,2.44231 2.87618,4.04858 1.9128,4.25027 -0.49582,9.53682 -4.67599,11.36669 -1.68794,0.38966 -2.88342,0.89851 -3.62683,2.51596 -3.78373,3.6635 -9.41715,5.14896 -14.58314,4.49504 -1.58451,-0.7572 -0.66089,1.44574 -0.90741,2.26837 -0.008,4.22741 -0.0166,8.45482 -0.0249,12.68223 -0.48534,-0.0373 -1.107,0.10033 -1.52255,-0.0364 z m 1.44967,-15.15836 c -0.52521,-0.011 0.19301,0.0885 0,0 z m -0.26341,-0.0549 c -0.33032,-0.062 -0.0553,0.12336 0,0 z m -0.2367,-0.0619 c -0.26847,-0.0781 0.0769,0.17172 0,0 z m -0.2719,-0.0486 c -0.0743,-0.10439 -0.0743,0.10439 0,0 z m -0.42728,-0.12624 c -0.26847,-0.0781 0.0769,0.17172 0,0 z m -0.15537,-0.0485 c -0.0743,-0.10439 -0.0743,0.10439 0,0 z"
                                   id="path41875" />
                                <path
                                   style="fill:#b2906e;stroke-width:0.058265"
                                   d="m 113.48663,141.19104 -0.015,-7.72568 0.0317,-0.0196 c 0.0174,-0.0108 0.14485,0.031 0.28312,0.093 0.13828,0.0619 0.28926,0.11256 0.33551,0.11256 0.0463,0 0.26626,0.0414 0.48889,0.0921 l 0.40479,0.0921 v 7.54066 7.54064 h -0.75702 -0.75702 z m 0.52396,-3.70883 c -0.008,-2.09098 -0.0154,-0.38018 -0.0154,3.8018 0,4.18197 0.007,5.89277 0.0154,3.80179 0.008,-2.09099 0.008,-5.5126 0,-7.60359 z"
                                   id="path41873" />
                                <path
                                   style="fill:#8e7662;stroke-width:0.058265"
                                   d="m 113.50077,141.19844 v -7.71829 l 0.0728,0.028 0.0728,0.0279 v 7.69034 7.69033 h -0.0728 -0.0728 z m 1.09291,0.19124 0.015,-7.52705 -0.0733,-0.0523 -0.0733,-0.0523 0.19664,0.034 c 0.10816,0.0187 0.21959,0.034 0.24763,0.034 h 0.051 v 7.54532 7.54532 h -0.18936 l -0.18936,1e-5 z"
                                   id="path41871" />
                                </g>
                                </g>
                                </g>
                                </g>
                                </g>
                                </g>
                                </g>
                                </g>
                                </g>
                                </g>
                                </g>
                                </g>
                                </g>
                                </g>
                                </g>
                                </g>
                              </g>
                            </g>
                          </g>
                        </g>
                      </g>
                    </g>
                  </g>
                </g>
              </g>
            </g>
          </g>
        </g>
      </g>
    </g>
  </g>
</svg>
