<?xml version="1.0" encoding="UTF-8" standalone="no"?>
<!-- Created with Inkscape (http://www.inkscape.org/) -->

<svg
   width="64"
   height="64"
   viewBox="0 0 16.933333 16.933334"
   version="1.1"
   id="svg5"
   inkscape:version="1.1.1 (3bf5ae0d25, 2021-09-20)"
   sodipodi:docname="basilic_frais.svg"
   xmlns:inkscape="http://www.inkscape.org/namespaces/inkscape"
   xmlns:sodipodi="http://sodipodi.sourceforge.net/DTD/sodipodi-0.dtd"
   xmlns="http://www.w3.org/2000/svg"
   xmlns:svg="http://www.w3.org/2000/svg">
  <sodipodi:namedview
     id="namedview7"
     pagecolor="#ffffff"
     bordercolor="#666666"
     borderopacity="1.0"
     inkscape:pageshadow="2"
     inkscape:pageopacity="0.0"
     inkscape:pagecheckerboard="0"
     inkscape:document-units="mm"
     showgrid="false"
     units="px"
     inkscape:zoom="5.6568543"
     inkscape:cx="16.882174"
     inkscape:cy="39.686368"
     inkscape:window-width="1920"
     inkscape:window-height="1017"
     inkscape:window-x="1912"
     inkscape:window-y="-8"
     inkscape:window-maximized="1"
     inkscape:current-layer="g44833" />
  <defs
     id="defs2">
    <pattern
       id="EMFhbasepattern"
       patternUnits="userSpaceOnUse"
       width="6"
       height="6"
       x="0"
       y="0" />
    <pattern
       id="EMFhbasepattern-5"
       patternUnits="userSpaceOnUse"
       width="6"
       height="6"
       x="0"
       y="0" />
    <pattern
       id="EMFhbasepattern-56"
       patternUnits="userSpaceOnUse"
       width="6"
       height="6"
       x="0"
       y="0" />
    <pattern
       id="EMFhbasepattern-6"
       patternUnits="userSpaceOnUse"
       width="6"
       height="6"
       x="0"
       y="0" />
    <pattern
       id="EMFhbasepattern-62"
       patternUnits="userSpaceOnUse"
       width="6"
       height="6"
       x="0"
       y="0" />
    <pattern
       id="EMFhbasepattern-8"
       patternUnits="userSpaceOnUse"
       width="6"
       height="6"
       x="0"
       y="0" />
    <pattern
       id="EMFhbasepattern-81"
       patternUnits="userSpaceOnUse"
       width="6"
       height="6"
       x="0"
       y="0" />
    <pattern
       id="EMFhbasepattern-9"
       patternUnits="userSpaceOnUse"
       width="6"
       height="6"
       x="0"
       y="0" />
    <pattern
       id="EMFhbasepattern-52"
       patternUnits="userSpaceOnUse"
       width="6"
       height="6"
       x="0"
       y="0" />
    <pattern
       id="EMFhbasepattern-0"
       patternUnits="userSpaceOnUse"
       width="6"
       height="6"
       x="0"
       y="0" />
    <pattern
       id="EMFhbasepattern-7"
       patternUnits="userSpaceOnUse"
       width="6"
       height="6"
       x="0"
       y="0" />
    <pattern
       id="EMFhbasepattern-65"
       patternUnits="userSpaceOnUse"
       width="6"
       height="6"
       x="0"
       y="0" />
    <pattern
       id="EMFhbasepattern-3"
       patternUnits="userSpaceOnUse"
       width="6"
       height="6"
       x="0"
       y="0" />
    <pattern
       id="EMFhbasepattern-90"
       patternUnits="userSpaceOnUse"
       width="6"
       height="6"
       x="0"
       y="0" />
    <pattern
       id="EMFhbasepattern-4"
       patternUnits="userSpaceOnUse"
       width="6"
       height="6"
       x="0"
       y="0" />
    <pattern
       id="EMFhbasepattern-2"
       patternUnits="userSpaceOnUse"
       width="6"
       height="6"
       x="0"
       y="0" />
    <pattern
       id="EMFhbasepattern-40"
       patternUnits="userSpaceOnUse"
       width="6"
       height="6"
       x="0"
       y="0" />
    <pattern
       id="EMFhbasepattern-74"
       patternUnits="userSpaceOnUse"
       width="6"
       height="6"
       x="0"
       y="0" />
    <pattern
       id="EMFhbasepattern-656"
       patternUnits="userSpaceOnUse"
       width="6"
       height="6"
       x="0"
       y="0" />
    <pattern
       id="EMFhbasepattern-76"
       patternUnits="userSpaceOnUse"
       width="6"
       height="6"
       x="0"
       y="0" />
    <pattern
       id="EMFhbasepattern-1"
       patternUnits="userSpaceOnUse"
       width="6"
       height="6"
       x="0"
       y="0" />
    <pattern
       id="EMFhbasepattern-42"
       patternUnits="userSpaceOnUse"
       width="6"
       height="6"
       x="0"
       y="0" />
    <pattern
       id="EMFhbasepattern-73"
       patternUnits="userSpaceOnUse"
       width="6"
       height="6"
       x="0"
       y="0" />
    <pattern
       id="EMFhbasepattern-566"
       patternUnits="userSpaceOnUse"
       width="6"
       height="6"
       x="0"
       y="0" />
    <pattern
       id="EMFhbasepattern-71"
       patternUnits="userSpaceOnUse"
       width="6"
       height="6"
       x="0"
       y="0" />
    <pattern
       id="EMFhbasepattern-31"
       patternUnits="userSpaceOnUse"
       width="6"
       height="6"
       x="0"
       y="0" />
    <pattern
       id="EMFhbasepattern-60"
       patternUnits="userSpaceOnUse"
       width="6"
       height="6"
       x="0"
       y="0" />
    <pattern
       id="EMFhbasepattern-28"
       patternUnits="userSpaceOnUse"
       width="6"
       height="6"
       x="0"
       y="0" />
    <pattern
       id="EMFhbasepattern-02"
       patternUnits="userSpaceOnUse"
       width="6"
       height="6"
       x="0"
       y="0" />
    <pattern
       id="EMFhbasepattern-57"
       patternUnits="userSpaceOnUse"
       width="6"
       height="6"
       x="0"
       y="0" />
    <pattern
       id="EMFhbasepattern-50"
       patternUnits="userSpaceOnUse"
       width="6"
       height="6"
       x="0"
       y="0" />
    <pattern
       id="EMFhbasepattern-45"
       patternUnits="userSpaceOnUse"
       width="6"
       height="6"
       x="0"
       y="0" />
    <pattern
       id="EMFhbasepattern-33"
       patternUnits="userSpaceOnUse"
       width="6"
       height="6"
       x="0"
       y="0" />
    <pattern
       id="EMFhbasepattern-21"
       patternUnits="userSpaceOnUse"
       width="6"
       height="6"
       x="0"
       y="0" />
    <pattern
       id="EMFhbasepattern-818"
       patternUnits="userSpaceOnUse"
       width="6"
       height="6"
       x="0"
       y="0" />
    <pattern
       id="EMFhbasepattern-32"
       patternUnits="userSpaceOnUse"
       width="6"
       height="6"
       x="0"
       y="0" />
    <pattern
       id="EMFhbasepattern-38"
       patternUnits="userSpaceOnUse"
       width="6"
       height="6"
       x="0"
       y="0" />
    <pattern
       id="EMFhbasepattern-39"
       patternUnits="userSpaceOnUse"
       width="6"
       height="6"
       x="0"
       y="0" />
    <pattern
       id="EMFhbasepattern-86"
       patternUnits="userSpaceOnUse"
       width="6"
       height="6"
       x="0"
       y="0" />
    <pattern
       id="EMFhbasepattern-07"
       patternUnits="userSpaceOnUse"
       width="6"
       height="6"
       x="0"
       y="0" />
    <pattern
       id="EMFhbasepattern-524"
       patternUnits="userSpaceOnUse"
       width="6"
       height="6"
       x="0"
       y="0" />
    <pattern
       id="EMFhbasepattern-508"
       patternUnits="userSpaceOnUse"
       width="6"
       height="6"
       x="0"
       y="0" />
    <pattern
       id="EMFhbasepattern-217"
       patternUnits="userSpaceOnUse"
       width="6"
       height="6"
       x="0"
       y="0" />
    <pattern
       id="EMFhbasepattern-84"
       patternUnits="userSpaceOnUse"
       width="6"
       height="6"
       x="0"
       y="0" />
    <pattern
       id="EMFhbasepattern-96"
       patternUnits="userSpaceOnUse"
       width="6"
       height="6"
       x="0"
       y="0" />
    <pattern
       id="EMFhbasepattern-48"
       patternUnits="userSpaceOnUse"
       width="6"
       height="6"
       x="0"
       y="0" />
    <pattern
       id="EMFhbasepattern-23"
       patternUnits="userSpaceOnUse"
       width="6"
       height="6"
       x="0"
       y="0" />
    <pattern
       id="EMFhbasepattern-36"
       patternUnits="userSpaceOnUse"
       width="6"
       height="6"
       x="0"
       y="0" />
    <pattern
       id="EMFhbasepattern-900"
       patternUnits="userSpaceOnUse"
       width="6"
       height="6"
       x="0"
       y="0" />
    <pattern
       id="EMFhbasepattern-37"
       patternUnits="userSpaceOnUse"
       width="6"
       height="6"
       x="0"
       y="0" />
  </defs>
  <g
     inkscape:label="Calque 1"
     inkscape:groupmode="layer"
     id="layer1">
    <g
       id="g4128"
       transform="translate(-0.63104184,0.12620835)">
      <g
         id="g5578"
         transform="translate(0.08924235,0.08924306)">
        <g
           id="g7501"
           transform="translate(-0.06310417,0.94656242)">
          <g
             id="g9467"
             transform="translate(-0.08924275,-0.80318511)">
            <g
               id="g10302"
               transform="translate(0.31234979,-0.04462139)">
              <g
                 id="g11479"
                 transform="translate(-0.12620833,0.06310418)">
                <g
                   id="g11873"
                   transform="translate(-0.23575769,0.66462456)">
                  <g
                     id="g12382"
                     transform="translate(-121.98459,-82.267525)">
                    <g
                       id="g13305"
                       transform="matrix(0.13266609,0,0,0.13266609,114.63867,78.215696)">
                      <g
                         id="g17429"
                         transform="translate(0.90513437,5.6640979)">
                        <g
                           id="g18595"
                           transform="translate(-3.3634362,-8.7449387)">
                          <g
                             id="g21002"
                             transform="translate(1.7082278,-2.8204445)">
                            <g
                               id="g23814"
                               transform="translate(8.7253043,-1.1218249)">
                              <g
                                 id="g24838"
                                 transform="translate(11.143454,-0.85716864)">
                                <g
                                   id="g25315"
                                   transform="translate(-3.490122,2.4929446)">
                                <g
                                   id="g27220"
                                   transform="translate(2.4678888,1.2339445)">
                                <g
                                   id="g29753"
                                   transform="translate(1.4759287,-2.3737724)">
                                <g
                                   id="g30615"
                                   transform="translate(0.92006037,1.3687834)">
                                <g
                                   id="g31433"
                                   transform="translate(-2.4678886,-1.410222)">
                                <g
                                   id="g31731"
                                   transform="translate(1.0576664,-0.70511063)">
                                <g
                                   id="g33243"
                                   transform="matrix(1.0772948,0,0,1.0772948,-7.3729128,-3.1743014)">
                                <g
                                   id="g35254"
                                   transform="translate(-2.2135012,-0.92031205)">
                                <g
                                   id="g36749"
                                   transform="translate(-0.98178042,-2.7817105)">
                                <g
                                   id="g37297"
                                   transform="translate(-6.7755742,-3.5033798)">
                                <g
                                   id="g38955"
                                   transform="matrix(1.2171094,0,0,1.2171094,-23.105122,-18.212482)">
                                <g
                                   id="g39618"
                                   transform="translate(-0.26888273,-0.26888316)">
                                <g
                                   id="g40032"
                                   transform="translate(-1.90129,-3.042064)">
                                <g
                                   id="g40543"
                                   transform="translate(0.3802582,-2.0914191)">
                                <g
                                   id="g41372"
                                   transform="translate(1.9657652,-7.9304203)">
                                <g
                                   id="g43278"
                                   transform="translate(1.5210324,-0.38025789)">
                                <g
                                   id="g44210"
                                   transform="matrix(1.1578947,0,0,1.1578947,-18.904476,-21.776183)">
                                <g
                                   id="g44833"
                                   transform="matrix(1.1196819,0,0,1.1196819,-12.538538,-14.547543)">
                                <path
                                   style="fill:#bce66c;stroke-width:0.128625"
                                   d="m 109.18921,145.93222 -0.31571,-0.31571 v -0.31968 -0.31968 l 0.71116,-2.1622 c 1.27928,-3.88945 2.34387,-8.20115 3.08829,-12.50796 l 0.34313,-1.98513 -0.15596,-0.52306 c -0.0858,-0.28768 -0.3758,-0.89929 -0.64449,-1.35912 l -0.48855,-0.83607 -0.70285,-0.77162 -0.70285,-0.77162 -0.96964,0.92106 -0.96964,0.92106 -0.71711,0.45873 c -1.14287,0.73109 -2.16821,1.20835 -3.38385,1.57505 l -1.13146,0.34131 -1.47919,0.005 -1.47919,0.005 -1.186243,-0.40573 c -1.537219,-0.52578 -2.403075,-0.96956 -4.038467,-2.06982 l -1.335166,-0.89829 -1.310997,-1.19848 c -2.103494,-1.92297 -4.243859,-4.39318 -5.871159,-6.77596 l -0.471036,-0.68971 v -0.43074 -0.43075 l 0.270387,-0.2519 0.270388,-0.25191 1.691145,-0.64103 c 3.367755,-1.27657 6.790714,-2.08738 9.876459,-2.3395 l 1.567469,-0.12806 1.41855,0.13377 c 0.7802,0.0736 1.79823,0.22516 2.2623,0.33685 l 0.84375,0.20307 1.03023,0.48837 1.03023,0.48836 0.88107,0.80734 0.88108,0.80735 0.64078,0.84392 0.64079,0.84391 0.55258,1.15763 c 0.61857,1.29586 0.91901,2.24396 1.04159,3.2869 l 0.0828,0.70456 0.66411,0.57377 c 0.36526,0.31557 0.92323,0.87409 1.23992,1.24116 l 0.57582,0.66738 0.0775,-0.2142 c 0.20239,-0.5593 0.62471,-7.34306 0.62818,-10.09044 l 0.002,-1.387 -0.32872,-0.64871 c -0.76538,-1.5104 -2.35232,-3.67167 -3.5519,-4.83736 l -0.55833,-0.54256 -0.64243,0.31468 c -0.35334,0.17307 -1.01517,0.40891 -1.47073,0.52409 l -0.8283,0.20941 -1.29401,-0.0559 -1.29402,-0.0559 -0.70744,-0.32879 -0.70744,-0.3288 -0.85126,-0.71116 -0.85126,-0.71117 -0.83863,-1.11742 c -0.9823,-1.30883 -1.690864,-2.56576 -2.500578,-4.435779 l -0.584791,-1.350563 -0.06192,-0.516014 -0.06192,-0.516015 0.24016,-0.296585 0.24016,-0.296585 1.027209,-0.132285 1.027209,-0.132285 2.058001,0.06902 2.058,0.06902 1.15763,0.257773 c 1.41731,0.315598 2.4947,0.734055 3.4294,1.331978 l 0.70921,0.453676 0.46755,0.570577 0.46754,0.570577 0.319,0.69845 c 0.17544,0.38415 0.40854,1.04343 0.51799,1.46507 l 0.199,0.76662 v 0.91243 0.91243 l 0.46073,0.44326 c 0.25341,0.2438 0.87209,0.93526 1.37484,1.53658 0.50276,0.60132 0.97581,1.16387 1.05122,1.25011 l 0.13712,0.1568 -0.0374,-0.60699 c -0.18245,-2.9591 -0.70287,-7.10967 -1.2637,-10.078511 l -0.33134,-1.754029 -0.48185,-0.07705 -0.48185,-0.07705 -0.95346,-0.474173 -0.95347,-0.474172 -0.90767,-0.910375 -0.90766,-0.910375 -0.28726,-0.620492 c -0.15798,-0.341271 -0.34694,-0.920084 -0.4199,-1.286251 l -0.13266,-0.665758 -0.007,-1.414876 -0.007,-1.414876 0.15995,-0.836063 c 0.26034,-1.360842 0.75782,-3.062467 1.30656,-4.469086 l 0.51408,-1.317771 0.27637,-0.193573 0.27636,-0.193574 h 0.34883 0.34883 l 1.00527,0.7901 c 0.5529,0.434555 1.55822,1.349053 2.23404,2.032217 l 1.22877,1.242117 0.72942,1.09624 c 0.86764,1.303984 1.29295,2.198057 1.5812,3.323911 l 0.21286,0.831393 -0.0815,0.712108 c -0.0448,0.39166 -0.1996,1.070419 -0.34398,1.508354 l -0.26252,0.796247 -0.49587,0.767199 c -0.27272,0.421959 -0.70962,1.003797 -0.97087,1.292974 l -0.47501,0.525777 0.0779,0.203046 c 0.14091,0.367206 0.82782,4.580252 1.09966,6.744582 0.29819,2.37411 0.65107,6.79617 0.65128,8.16127 l 1.3e-4,0.89396 0.56514,-0.77667 c 0.31082,-0.42716 0.94752,-1.15904 1.41487,-1.6264 l 0.84975,-0.84974 0.002,-0.36086 c 10e-4,-0.19848 0.0873,-0.76604 0.19127,-1.26124 l 0.18903,-0.90038 0.45219,-0.91899 0.45219,-0.91899 0.57043,-0.63446 0.57043,-0.63445 0.75216,-0.4009 0.75216,-0.40089 1.02448,-0.29648 1.02449,-0.29647 2.50819,10e-4 2.50819,0.001 1.53575,0.30655 1.53575,0.30655 0.29715,0.29716 0.29716,0.29716 v 0.34899 0.349 l -0.59632,1.10388 c -0.32797,0.60714 -0.91908,1.59588 -1.31356,2.1972 l -0.71724,1.09331 -1.48403,1.47919 -1.48404,1.47919 -0.96469,0.4828 -0.96469,0.48279 -0.68977,0.12759 -0.68978,0.1276 -0.7251,-0.0755 c -0.3988,-0.0415 -1.12067,-0.19555 -1.60414,-0.34231 l -0.87905,-0.26685 -0.72877,-0.43951 -0.72876,-0.4395 -0.7307,0.77635 c -1.28656,1.36695 -2.40171,3.24806 -2.9156,4.91823 l -0.25301,0.82227 -0.1475,2.74387 c -0.13676,2.54392 -0.4484,5.81489 -0.77411,8.12495 -0.16937,1.20127 -0.86872,5.28562 -0.983,5.74093 l -0.0846,0.33716 0.82195,-0.63755 c 0.45208,-0.35065 1.29118,-0.96996 1.86468,-1.37624 l 1.04272,-0.73869 0.0777,-1.11615 0.0777,-1.11614 0.27849,-0.96469 c 0.37969,-1.31525 0.76841,-2.15959 1.48813,-3.23231 l 0.60893,-0.9076 0.77878,-0.70631 0.77877,-0.70631 1.029,-0.49731 1.029,-0.49731 1.27207,-0.32894 1.27207,-0.32894 1.42906,-0.12651 c 0.78598,-0.0696 1.94999,-0.12639 2.58668,-0.12624 l 1.15763,2.6e-4 1.76769,0.1876 1.7677,0.1876 1.96243,0.39304 1.96243,0.39304 0.32157,0.23467 0.32156,0.23466 0.0402,0.47469 0.0402,0.47469 -0.75818,1.44191 c -1.60223,3.04716 -3.38843,5.60754 -5.30114,7.59879 l -1.09551,1.14049 -1.06631,0.8008 -1.06631,0.80081 -0.92841,0.46505 -0.9284,0.46505 -0.89935,0.21187 -0.89935,0.21186 -1.35056,-0.0687 -1.35057,-0.0687 -0.94083,-0.26915 -0.94084,-0.26914 -1.07021,-0.52055 -1.07021,-0.52054 -0.79668,-0.64197 -0.79667,-0.64197 -1.11535,0.80549 c -1.21889,0.88027 -2.90197,2.21044 -3.64691,2.88221 l -0.47357,0.42706 -0.51794,1.96979 c -0.28487,1.08339 -0.87191,3.06199 -1.30455,4.39689 l -0.7866,2.42709 -0.3062,0.30619 -0.30619,0.30622 h -0.39757 -0.39757 z"
                                   id="path44839" />
                                <path
                                   style="fill:#add554;stroke-width:0.128625"
                                   d="m 109.49742,146.10147 -0.34077,-0.12358 -0.15811,-0.38172 -0.15811,-0.38171 0.52349,-1.57342 c 1.56684,-4.70933 2.49653,-8.39683 3.35453,-13.30534 l 0.36447,-2.08505 -0.28477,-0.70065 c -0.15662,-0.38536 -0.44827,-0.98094 -0.64811,-1.32352 l -0.36334,-0.62287 -0.76608,-0.80029 -0.76609,-0.80029 -0.90087,0.90087 -0.90088,0.90088 -1.03406,0.63637 c -0.56874,0.35 -1.45379,0.8111 -1.96679,1.02466 l -0.93271,0.38829 -0.91828,0.19316 -0.91827,0.19317 h -1.11964 -1.11965 l -0.953448,-0.26422 c -1.776172,-0.4922 -3.667294,-1.51296 -5.66557,-3.05806 l -1.093314,-0.84537 -1.609482,-1.61415 -1.609483,-1.61414 -1.131355,-1.41488 c -1.230659,-1.53906 -2.350332,-3.12101 -2.263905,-3.19859 0.07089,-0.0636 3.046524,0.2481 5.129732,0.53741 l 1.636879,0.22733 0.344346,-0.2571 0.344347,-0.25709 0.801399,0.0294 0.801399,0.0294 0.311616,0.22914 c 0.248075,0.18242 0.5364,0.5496 0.597476,0.76089 0.0048,0.0166 0.446176,0.12062 0.980849,0.23119 l 0.972132,0.20105 0.391977,-0.39198 0.391976,-0.39198 h 0.204193 c 0.354499,0 2.391496,0.4838 4.060226,0.96432 l 1.60781,0.46299 1.60781,0.67113 1.60782,0.67113 1.40389,0.834 1.4039,0.834 1.43819,1.42185 1.43819,1.42185 0.15402,-1.74342 c 0.27043,-3.06101 0.39475,-5.53908 0.39747,-7.92269 l 0.003,-2.32053 -0.61096,-1.05556 c -0.75706,-1.30796 -1.8344,-2.77188 -2.90229,-3.94372 l -0.81455,-0.89383 -0.69105,0.29728 c -0.38008,0.1635 -0.98359,0.38911 -1.34113,0.50134 l -0.65008,0.20406 -1.28625,0.007 -1.28625,0.007 -0.66544,-0.23216 -0.66543,-0.23216 -0.82073,-0.6213 c -1.47906,-1.11968 -2.759986,-2.76578 -3.884387,-4.99178 -0.648802,-1.28444 -1.52396,-3.464368 -1.463048,-3.644295 l 0.03878,-0.114545 2.931475,1.449559 2.93149,1.449561 0.20761,-0.22941 0.20761,-0.22941 0.46241,0.002 0.46241,0.002 1.0427,0.55989 c 2.98419,1.60239 5.81029,3.98364 7.95539,6.70313 0.27901,0.35372 0.55943,0.701 0.62315,0.77175 l 0.11585,0.12862 -0.0844,-1.09331 c -0.25575,-3.3124 -0.74574,-7.14417 -1.2728,-9.953393 l -0.28677,-1.528449 -0.99003,-0.349449 -0.99004,-0.34945 -0.67695,-0.449582 c -0.37233,-0.24727 -0.95455,-0.71944 -1.29383,-1.049265 l -0.61688,-0.599684 -0.37046,-0.783335 -0.37046,-0.783335 -0.15544,-0.920003 -0.15545,-0.919993 0.0735,-1.350563 c 0.0404,-0.74281 0.14059,-1.668911 0.2226,-2.058001 0.40997,-1.944949 1.45576,-4.944928 1.89549,-5.437449 l 0.20368,-0.228133 0.0945,0.09951 c 0.0754,0.07938 1.24343,3.660192 1.59238,4.881853 l 0.0801,0.280467 0.36671,0.08054 0.3667,0.08054 0.21867,0.241628 0.21867,0.241628 0.50752,1.712614 c 0.67096,2.264124 1.46861,5.444778 1.70483,6.798022 0.10451,0.598728 0.33508,1.898933 0.51237,2.889346 0.6058,3.384266 1.03211,7.143296 1.23902,10.925316 0.0733,1.33983 0.15372,2.4565 0.1787,2.48149 0.025,0.025 0.2587,-0.25143 0.51937,-0.61426 0.26066,-0.36282 0.94644,-1.15185 1.52394,-1.75339 l 1.05001,-1.09372 0.8965,-0.63162 0.89651,-0.63162 h 0.36682 0.36682 l 0.33614,0.33613 0.33613,0.33614 0.79847,-0.42662 0.79847,-0.42662 -0.0124,-0.47171 -0.0124,-0.47171 0.16989,-0.2047 0.16989,-0.2047 0.70054,-0.2621 0.70055,-0.26211 h 0.42801 0.42802 l 0.31925,0.25112 0.31925,0.25113 0.95219,-0.36964 c 1.25805,-0.48836 5.16026,-1.69123 5.23714,-1.61436 0.087,0.087 -1.3164,2.56028 -1.99146,3.50974 -0.31521,0.44333 -0.89715,1.18802 -1.29321,1.65486 l -0.7201,0.84882 -0.91424,0.72469 -0.91424,0.72471 -0.84423,0.42631 -0.84423,0.42632 -0.96731,0.0732 -0.96731,0.0732 -0.9634,-0.21434 -0.96339,-0.21433 -0.99325,-0.50795 -0.99324,-0.50796 -0.37765,0.27921 c -1.04856,0.77524 -2.70529,3.37521 -3.32734,5.22175 l -0.26436,0.78473 -0.13372,2.48222 c -0.22655,4.20539 -0.75926,8.75211 -1.48738,12.69505 -0.17506,0.94796 -0.30189,1.76608 -0.28184,1.81805 l 0.0364,0.0945 1.73644,-1.28115 c 4.87235,-3.59483 9.33437,-5.9761 14.51833,-7.74804 l 1.72014,-0.58797 h 0.35267 0.35268 l 0.34123,0.26841 0.34123,0.26841 1.82401,-0.66209 c 2.03645,-0.7392 4.36502,-1.44144 4.4611,-1.34536 0.11086,0.11087 -1.41262,2.99673 -2.3974,4.54126 -1.34196,2.10476 -2.20856,3.21537 -3.76278,4.82226 l -1.35151,1.39732 -0.77175,0.55089 c -0.42447,0.30299 -1.11904,0.75316 -1.5435,1.00038 l -0.77175,0.4495 -0.90038,0.28979 -0.90037,0.2898 -1.41488,-0.007 -1.41488,-0.007 -1.00695,-0.2659 c -1.68907,-0.44604 -3.8339,-1.54406 -4.5117,-2.30972 l -0.24503,-0.27678 h -0.18063 -0.18062 l -1.6998,1.27026 c -0.93489,0.69864 -2.08869,1.60224 -2.56401,2.008 l -0.8642,0.73774 -0.1272,0.46803 c -0.07,0.25742 -0.30411,1.13367 -0.52035,1.94722 -0.21623,0.81355 -0.74382,2.56777 -1.17241,3.89826 l -0.77927,2.41906 -0.27692,0.30383 c -0.1523,0.1671 -0.39268,0.33229 -0.53417,0.36708 l -0.25725,0.0633 z"
                                   id="path44837" />
                                <path
                                   style="fill:#95bd4a;stroke-width:0.128625"
                                   d="m 109.55628,146.11688 -0.28191,-0.11235 -0.22113,-0.33748 -0.22112,-0.33748 0.91812,-2.85291 c 1.35484,-4.20994 2.03928,-6.9746 2.90192,-11.72174 l 0.44295,-2.43757 -0.28312,-0.78 -0.28313,-0.77999 -0.4715,-0.7055 c -0.63699,-0.95312 -1.37632,-1.6933 -2.60505,-2.60803 l -1.029,-0.76604 -1.67213,-0.81122 -1.67212,-0.81122 -1.32445,-0.45692 c -0.72844,-0.2513 -2.17548,-0.66595 -3.21563,-0.92144 l -1.891178,-0.46452 -0.213525,-0.1903 c -0.11744,-0.10467 -0.248901,-0.33125 -0.292136,-0.50351 l -0.07861,-0.31321 0.190911,-0.36918 0.190909,-0.36917 0.208214,-0.0799 c 0.114519,-0.044 0.392001,-0.0799 0.616629,-0.0799 h 0.408413 l 1.735533,0.44247 c 2.17074,0.55342 4.42169,1.32767 5.98841,2.0598 2.23656,1.04516 4.5082,2.70656 5.55213,4.06067 0.26676,0.34601 0.51924,0.63157 0.56109,0.63458 0.20896,0.0151 0.62698,-6.28394 0.62945,-9.48489 l 0.002,-2.48031 -0.3384,-0.67101 c -0.47488,-0.94159 -1.70756,-2.71783 -2.66425,-3.83907 l -0.80981,-0.94909 -1.48906,-1.26794 c -1.67395,-1.42537 -3.23968,-2.51329 -4.74193,-3.29484 l -1.01542,-0.52828 -0.13007,-0.24303 c -0.0715,-0.13367 -0.13006,-0.41628 -0.13006,-0.62803 v -0.385 l 0.33891,-0.26658 0.33891,-0.26659 h 0.30707 0.30707 l 0.99399,0.5011 c 1.11845,0.56385 2.955,1.74964 4.01668,2.59341 1.10592,0.87895 2.90628,2.65766 3.83301,3.78693 0.46444,0.56595 0.89757,1.08689 0.96252,1.15763 l 0.11808,0.12862 -0.0856,-1.22193 c -0.4149,-5.92187 -1.49434,-11.93958 -3.1681,-17.661524 -0.29364,-1.003849 -0.58087,-2.023503 -0.63828,-2.265899 l -0.10439,-0.440718 0.17975,-0.347601 0.17975,-0.347602 0.20822,-0.0799 c 0.33384,-0.128106 0.81311,-0.09267 1.09404,0.08088 l 0.26026,0.160781 0.44176,1.414876 c 1.85943,5.955355 3.17191,13.269327 3.54302,19.743957 0.075,1.30876 0.1765,2.71845 0.22552,3.13265 l 0.0891,0.75309 0.81615,-1.03847 c 0.9512,-1.2103 2.23507,-2.44562 3.28013,-3.1561 l 0.73806,-0.50176 0.41258,0.0117 0.41258,0.0117 0.28941,0.33644 0.2894,0.33643 v 0.32428 0.32429 l -0.35874,0.34382 c -0.19731,0.18911 -0.86954,0.74304 -1.49384,1.23097 l -1.13508,0.88715 -0.80284,1.0153 -0.80284,1.0153 -0.53831,0.99056 c -0.29607,0.5448 -0.68478,1.39619 -0.86379,1.89199 l -0.32549,0.90144 -0.11729,2.31525 c -0.0645,1.27339 -0.14602,2.60466 -0.18113,2.95837 -0.0351,0.35372 -0.12654,1.27982 -0.20318,2.05801 -0.28541,2.89793 -1.30326,9.56337 -1.51202,9.90154 -0.0428,0.0693 0.093,-0.004 0.30178,-0.16339 5.7086,-4.35279 10.86951,-7.17073 16.5804,-9.05314 l 1.53755,-0.50681 0.29179,0.0732 c 0.16049,0.0403 0.40916,0.19921 0.55261,0.35318 l 0.26081,0.27995 v 0.36746 0.36747 l -0.29086,0.29086 -0.29086,0.29086 -1.63661,0.5384 c -0.90013,0.29613 -2.52016,0.91683 -3.60005,1.37935 l -1.96344,0.84095 -1.86506,1.00753 c -3.48633,1.88337 -7.19821,4.37466 -9.66285,6.48539 l -0.98065,0.83983 -0.0859,0.45811 c -0.16676,0.88889 -0.99067,3.76871 -1.71195,5.98379 l -0.7299,2.24156 -0.26364,0.28839 c -0.14501,0.15862 -0.37941,0.31781 -0.5209,0.35375 l -0.25725,0.0654 z m -15.509456,-27.51015 -0.613601,-0.0899 -0.246509,-0.25105 c -0.13558,-0.13807 -0.283073,-0.40105 -0.327763,-0.5844 l -0.08125,-0.33335 0.341828,-0.40624 0.341831,-0.40624 0.599534,7.7e-4 c 0.329744,3.8e-4 0.814884,0.0605 1.078088,0.13362 l 0.478551,0.13291 0.19673,0.28087 0.19673,0.28087 v 0.28577 0.28577 l -0.289407,0.32887 -0.289406,0.32888 -0.385875,0.0514 c -0.212232,0.0283 -0.661996,0.0109 -0.999476,-0.0385 z m 30.688126,-11.84759 -0.281,-0.11321 -0.13704,-0.25605 c -0.0754,-0.14083 -0.13703,-0.42341 -0.13703,-0.62796 v -0.37191 l 0.28941,-0.26761 0.2894,-0.26761 0.69863,-0.205 c 0.38425,-0.11275 0.80834,-0.205 0.94243,-0.205 h 0.2438 l 0.37598,0.37598 0.37598,0.37598 v 0.27704 0.27704 l -0.35906,0.35906 -0.35906,0.35905 -0.72189,0.20986 c -0.81131,0.23586 -0.83131,0.23717 -1.22055,0.0803 z"
                                   id="path44835" />
                                </g>
                                </g>
                                </g>
                                </g>
                                </g>
                                </g>
                                </g>
                                </g>
                                </g>
                                </g>
                                </g>
                                </g>
                                </g>
                                </g>
                                </g>
                                </g>
                                </g>
                                </g>
                              </g>
                            </g>
                          </g>
                        </g>
                      </g>
                    </g>
                  </g>
                </g>
              </g>
            </g>
          </g>
        </g>
      </g>
    </g>
  </g>
</svg>
