<?xml version="1.0" encoding="UTF-8" standalone="no"?>
<!-- Created with Inkscape (http://www.inkscape.org/) -->

<svg
   width="64"
   height="64"
   viewBox="0 0 16.933333 16.933334"
   version="1.1"
   id="svg5"
   inkscape:version="1.2 (dc2aedaf03, 2022-05-15)"
   sodipodi:docname="batavia.svg"
   xmlns:inkscape="http://www.inkscape.org/namespaces/inkscape"
   xmlns:sodipodi="http://sodipodi.sourceforge.net/DTD/sodipodi-0.dtd"
   xmlns="http://www.w3.org/2000/svg"
   xmlns:svg="http://www.w3.org/2000/svg">
  <sodipodi:namedview
     id="namedview7"
     pagecolor="#ffffff"
     bordercolor="#666666"
     borderopacity="1.0"
     inkscape:pageshadow="2"
     inkscape:pageopacity="0.0"
     inkscape:pagecheckerboard="0"
     inkscape:document-units="mm"
     showgrid="false"
     units="px"
     inkscape:zoom="11.313709"
     inkscape:cx="42.293824"
     inkscape:cy="30.935921"
     inkscape:window-width="1920"
     inkscape:window-height="1017"
     inkscape:window-x="1912"
     inkscape:window-y="-8"
     inkscape:window-maximized="1"
     inkscape:current-layer="g1282"
     inkscape:showpageshadow="2"
     inkscape:deskcolor="#d1d1d1" />
  <defs
     id="defs2" />
  <g
     inkscape:label="Calque 1"
     inkscape:groupmode="layer"
     id="layer1">
    <g
       id="g4128"
       transform="translate(-0.63104184,0.12620835)">
      <g
         id="g5578"
         transform="translate(0.08924235,0.08924306)">
        <g
           id="g7501"
           transform="translate(-0.06310417,0.94656242)">
          <g
             id="g9467"
             transform="translate(-0.08924275,-0.80318511)">
            <g
               id="g10302"
               transform="translate(0.31234979,-0.04462139)">
              <g
                 id="g11479"
                 transform="translate(-0.12620833,0.06310418)">
                <g
                   id="g11873"
                   transform="translate(-0.23575769,0.66462456)">
                  <g
                     id="g12382"
                     transform="translate(-121.98459,-82.267525)">
                    <g
                       id="g13305"
                       transform="matrix(0.13266609,0,0,0.13266609,114.63867,78.215696)">
                      <g
                         id="g17429"
                         transform="translate(0.90513437,5.6640979)">
                        <g
                           id="g18595"
                           transform="translate(-3.3634362,-8.7449387)">
                          <g
                             id="g21002"
                             transform="translate(1.7082278,-2.8204445)">
                            <g
                               id="g23814"
                               transform="translate(8.7253043,-1.1218249)">
                              <g
                                 id="g24838"
                                 transform="translate(11.143454,-0.85716864)">
                                <g
                                   id="g25315"
                                   transform="translate(-3.490122,2.4929446)">
                                <g
                                   id="g27220"
                                   transform="translate(2.4678888,1.2339445)">
                                <g
                                   id="g29753"
                                   transform="translate(1.4759287,-2.3737724)">
                                <g
                                   id="g30615"
                                   transform="translate(0.92006037,1.3687834)">
                                <g
                                   id="g31433"
                                   transform="translate(-2.4678886,-1.410222)">
                                <g
                                   id="g31731"
                                   transform="translate(1.0576664,-0.70511063)">
                                <g
                                   id="g33243"
                                   transform="matrix(1.0772948,0,0,1.0772948,-7.3729128,-3.1743014)">
                                <g
                                   id="g35254"
                                   transform="translate(-2.2135012,-0.92031205)">
                                <g
                                   id="g36749"
                                   transform="translate(-0.98178042,-2.7817105)">
                                <g
                                   id="g37297"
                                   transform="translate(-6.7755742,-3.5033798)">
                                <g
                                   id="g38955"
                                   transform="matrix(1.2171094,0,0,1.2171094,-23.105122,-18.212482)">
                                <g
                                   id="g39618"
                                   transform="translate(-0.26888273,-0.26888316)">
                                <g
                                   id="g40032"
                                   transform="translate(-1.90129,-3.042064)">
                                <g
                                   id="g40543"
                                   transform="translate(0.3802582,-2.0914191)">
                                <g
                                   id="g41372"
                                   transform="translate(1.9657652,-7.9304203)">
                                <g
                                   id="g43278"
                                   transform="translate(1.5210324,-0.38025789)">
                                <g
                                   id="g44210"
                                   transform="matrix(1.1578947,0,0,1.1578947,-18.904476,-21.776183)">
                                <g
                                   id="g44833"
                                   transform="matrix(1.1196819,0,0,1.1196819,-12.538538,-14.547543)">
                                <g
                                   id="g1282"
                                   transform="translate(1.0265557,-3.2263188)">
                                <path
                                   style="fill:#e0f07e;stroke-width:0.0311536"
                                   d="m 106.39281,143.75184 c -0.37154,-0.0236 -0.81689,-0.11012 -1.17396,-0.22818 -0.39821,-0.13166 -0.96751,-0.42693 -1.25602,-0.65144 -0.14565,-0.11333 -0.32702,-0.25152 -0.40306,-0.30707 -0.88848,-0.64919 -1.72689,-1.53801 -2.48532,-2.63475 -1.232072,-1.78164 -2.127277,-3.69226 -2.695584,-5.75313 l -0.137456,-0.49845 -0.374702,-0.51404 c -0.206086,-0.28272 -0.461436,-0.60384 -0.567444,-0.7136 -0.173203,-0.17933 -0.370456,-0.45429 -0.641955,-0.89486 -0.08989,-0.14587 -0.118471,-0.16419 -0.747686,-0.47941 -0.359824,-0.18025 -0.936635,-0.46562 -1.281802,-0.63414 -0.960261,-0.46882 -1.38603,-0.74904 -1.923044,-1.26565 -0.470343,-0.45247 -0.783898,-0.87774 -1.077055,-1.4608 -0.132026,-0.26259 -0.260676,-0.62656 -0.468762,-1.3262 -0.188039,-0.63224 -0.333138,-0.9173 -0.604443,-1.18747 -0.135853,-0.13528 -0.287588,-0.25146 -0.392732,-0.3007 -0.09424,-0.0441 -0.276506,-0.12953 -0.405037,-0.18977 -0.304271,-0.1426 -0.446794,-0.28647 -0.529235,-0.5342 -0.08498,-0.25536 -0.177175,-0.33633 -0.498793,-0.43806 -0.543981,-0.17207 -0.686383,-0.31489 -1.078153,-1.08131 -0.41609,-0.814 -0.575391,-0.95217 -1.552796,-1.34675 -0.518151,-0.20918 -0.749989,-0.34425 -0.917456,-0.5345 -0.223988,-0.25446 -0.281426,-0.56251 -0.208157,-1.11637 0.02711,-0.2049 0.04928,-0.45196 0.04928,-0.54901 v -0.17646 l -0.147979,-0.0143 c -0.360051,-0.0347 -0.745568,-0.31653 -0.86666,-0.63361 -0.0436,-0.11417 -0.08668,-0.15996 -0.235553,-0.2504 -0.100205,-0.0609 -0.257926,-0.17237 -0.350492,-0.24777 l -0.168301,-0.1371 -0.307132,0.0588 c -0.168923,0.0323 -0.388027,0.0686 -0.486899,0.0805 -0.131472,0.0159 -0.203468,0.0438 -0.267995,0.10373 -0.213646,0.19857 -0.717459,0.27016 -1.25011,0.17764 -0.491037,-0.0853 -1.171787,-0.25983 -1.333928,-0.34199 -0.348052,-0.17637 -0.518444,-0.41388 -0.519226,-0.72374 -4.61e-4,-0.18228 0.0081,-0.20431 0.169063,-0.43496 0.22067,-0.3162 0.224405,-0.40718 0.0337,-0.82095 -0.280658,-0.60895 -0.198486,-0.80057 0.468402,-1.09226 0.404761,-0.17704 0.482537,-0.22705 0.585249,-0.3763 0.06994,-0.10164 0.07216,-0.12172 0.05193,-0.46985 -0.02422,-0.41679 0.01065,-0.54047 0.182072,-0.64558 0.09267,-0.0568 0.164971,-0.0738 0.689851,-0.16201 0.388084,-0.0652 0.513374,-0.16675 0.627151,-0.50822 0.0536,-0.16087 0.282361,-0.42338 0.368944,-0.42338 0.08676,0 0.04944,-0.0589 -0.116999,-0.18453 -0.365513,-0.27596 -0.793493,-0.39571 -1.106795,-0.30968 -0.09751,0.0268 -0.199923,0.0586 -0.227576,0.0707 -0.04107,0.0179 -0.05397,-0.005 -0.07043,-0.12771 -0.0212,-0.1575 -0.131148,-0.42082 -0.238903,-0.57214 l -0.06395,-0.0898 -0.121631,0.0881 c -0.470092,0.34053 -1.158823,0.10597 -1.326697,-0.45184 -0.09117,-0.30294 -0.04916,-0.49012 0.196217,-0.87414 0.256195,-0.40096 0.277438,-0.55895 0.09572,-0.71185 -0.09264,-0.078 -0.09734,-0.0785 -0.611883,-0.07 -0.51669,0.009 -0.519182,0.008 -0.70215,-0.0816 -0.590737,-0.29006 -0.954505,-1.08047 -0.810559,-1.76124 0.164592,-0.7784 0.848898,-1.51253 1.897745,-2.03591 0.50841,-0.25369 1.236616,-0.48921 1.904654,-0.616 l 0.191318,-0.0363 -0.09107,-0.14651 c -0.172919,-0.27817 -0.158556,-0.52041 0.04387,-0.74002 0.07099,-0.077 0.181242,-0.16664 0.245012,-0.19917 0.138852,-0.0708 0.510477,-0.17269 0.732017,-0.20064 l 0.159784,-0.0201 -0.04525,-0.14557 c -0.102666,-0.3303 0.03054,-0.75921 0.321138,-1.03405 0.09193,-0.0869 0.217289,-0.17903 0.278573,-0.20463 l 0.111425,-0.0466 -0.259075,-0.17507 c -0.36603,-0.24733 -0.74132,-0.54147 -1.080686,-0.847 -0.1606,-0.14459 -0.275122,-0.23135 -0.254493,-0.1928 0.05544,0.10359 0.02793,0.10512 -0.125554,0.007 -0.33262,-0.21268 -0.75913,-0.689132 -1.040822,-1.162689 -0.630881,-1.060585 -0.59477,-2.127149 0.09684,-2.860294 0.406261,-0.430659 0.900904,-0.693135 1.590498,-0.843977 0.268015,-0.05863 0.450629,-0.0698 1.474169,-0.09017 1.31583,-0.02619 1.348786,-0.031 1.830095,-0.267106 0.225944,-0.110837 0.340714,-0.19302 0.532701,-0.381448 0.377116,-0.370124 0.471541,-0.555851 0.764603,-1.503922 0.251426,-0.813373 0.659525,-1.132736 1.589338,-1.243753 0.50391,-0.06017 0.98875,0.0092 1.404945,0.200896 0.240972,0.111011 0.393911,0.225445 0.807997,0.604569 0.710734,0.650723 1.301169,0.690459 2.670207,0.1797 0.475448,-0.177379 0.982799,-0.318652 1.262374,-0.351511 0.145029,-0.01704 0.172662,-0.03262 0.246266,-0.138834 0.135169,-0.195048 0.375587,-0.39963 0.582691,-0.495834 0.235453,-0.109373 0.497658,-0.154257 0.910412,-0.155843 0.585535,-0.0022 0.962522,-0.08048 1.193244,-0.247615 0.06762,-0.04898 0.229027,-0.220953 0.358682,-0.382156 0.335068,-0.416593 0.537457,-0.542885 0.921171,-0.574816 0.113362,-0.0094 0.310068,-9.63e-4 0.437126,0.01882 0.210334,0.03275 0.387671,0.08853 1.357826,0.427103 0.71792,0.250545 1.20787,0.296933 1.61581,0.152982 0.23552,-0.08311 0.33304,-0.142073 0.76083,-0.460024 0.70156,-0.521435 1.23759,-0.602833 1.59779,-0.242631 0.17464,0.174635 0.28841,0.454476 0.43088,1.059834 0.14572,0.619114 0.24295,0.921015 0.38475,1.194615 0.30961,0.597382 0.81859,0.919608 1.32107,0.836344 0.10683,-0.0177 0.2765,-0.0691 0.37704,-0.114221 l 0.18279,-0.08203 6.9e-4,-0.239761 c 10e-4,-0.387677 0.16694,-0.679336 0.45438,-0.799223 0.066,-0.02753 0.26175,-0.05684 0.45173,-0.06763 0.39133,-0.02223 0.57178,-0.08461 0.64298,-0.222302 0.026,-0.05037 0.0686,-0.223335 0.0946,-0.384361 0.10559,-0.65487 0.33323,-1.036962 0.71211,-1.195266 0.19637,-0.08205 0.46256,-0.06022 0.93785,0.07692 0.74656,0.215405 0.91716,0.165904 1.36413,-0.395801 0.17867,-0.224544 0.34573,-0.350496 0.57126,-0.430675 0.12866,-0.04574 0.27777,-0.05669 0.85672,-0.06292 0.8197,-0.0088 0.89269,-0.02386 1.33337,-0.274744 0.38524,-0.219326 0.44886,-0.242198 0.67604,-0.243059 0.24684,-9.34e-4 0.47345,0.08717 0.83336,0.324007 0.55934,0.368074 0.65568,0.388252 1.05186,0.22031 0.18216,-0.07722 0.2389,-0.08574 0.57591,-0.08648 0.36658,-8.07e-4 0.37839,0.0014 0.6075,0.111974 0.12931,0.06243 0.31712,0.188914 0.42057,0.28325 0.29242,0.26666 0.34929,0.28318 0.66195,0.192286 0.32389,-0.09416 0.62352,0.01187 0.96793,0.342492 0.25063,0.240607 0.39255,0.432777 0.55344,0.749433 0.12244,0.240968 0.13218,0.251299 0.26102,0.276778 0.18169,0.03593 0.44438,-0.01453 0.75733,-0.145476 0.14101,-0.059 0.37484,-0.156992 0.51962,-0.217754 0.51004,-0.214059 0.89727,-0.216075 1.33178,-0.0069 0.79813,0.384157 1.27356,1.375355 1.09962,2.292542 -0.0172,0.09078 -0.0264,0.169965 -0.0204,0.175958 0.006,0.006 0.14975,-0.05035 0.31947,-0.125207 0.52674,-0.232323 0.68836,-0.2797 0.96281,-0.282234 0.30209,-0.0028 0.42356,0.05209 0.69155,0.312457 0.0994,0.09658 0.25785,0.212176 0.35209,0.256869 0.36404,0.172645 0.9259,0.07996 1.58789,-0.261946 l 0.26981,-0.139352 0.14218,0.136235 c 0.0782,0.07493 0.21748,0.172716 0.30951,0.217305 0.34596,0.167621 0.46342,0.182859 1.60039,0.207622 0.92554,0.02016 1.08931,0.03118 1.29767,0.08736 0.58346,0.157309 0.96406,0.484103 1.1883,1.020314 0.11798,0.282121 0.15965,0.52397 0.15804,0.917269 -0.003,0.725705 -0.29318,1.423782 -0.9872,2.374579 l -0.26506,0.363131 0.17642,0.01799 c 0.54964,0.05606 1.0461,0.193264 1.46784,0.405647 0.22011,0.110847 0.57179,0.244652 1.29434,0.492468 l 0.37384,0.128219 0.58679,0.01231 0.58679,0.01231 -0.0505,-0.07712 c -0.0488,-0.0745 -0.0472,-0.07989 0.0464,-0.15868 0.15338,-0.12906 0.52231,-0.29076 0.78633,-0.344648 0.38158,-0.07788 0.69519,-0.0092 1.26862,0.277986 0.68292,0.341978 0.96841,0.559479 1.17004,0.891379 0.14587,0.24013 0.22187,0.27745 0.56522,0.27751 0.19942,3e-5 0.30326,0.0149 0.38097,0.0545 0.18946,0.0966 0.22076,0.1721 0.26459,0.63814 0.0448,0.47624 0.092,0.59684 0.26829,0.68579 0.15139,0.0764 0.28538,0.0685 0.65693,-0.0387 0.75904,-0.21894 1.01893,-0.0835 1.13402,0.59096 0.14577,0.85429 0.27337,0.98864 1.12203,1.18135 0.69477,0.15777 0.93627,0.28402 1.13464,0.59316 0.17981,0.2802 0.23069,0.49247 0.23199,0.96777 9.3e-4,0.34452 -0.0115,0.46464 -0.0686,0.66429 -0.13698,0.47882 -0.3407,0.77535 -0.63307,0.92145 l -0.19323,0.0965 h -0.53466 c -0.39787,0 -0.5704,0.0122 -0.67436,0.0476 -0.16582,0.0565 -0.36986,0.2161 -0.36986,0.2893 0,0.0942 0.21334,0.364 0.42446,0.53684 0.11415,0.0935 0.28887,0.23705 0.38825,0.31911 0.20391,0.16839 0.39498,0.43559 0.50067,0.70018 0.0598,0.1496 0.0715,0.23739 0.0722,0.5393 l 7.7e-4,0.36062 -0.13259,0.26758 c -0.14965,0.302 -0.3074,0.47999 -0.60057,0.67761 -0.50843,0.34274 -0.59154,0.45393 -0.79455,1.06309 -0.0829,0.2488 -0.18756,0.49623 -0.24527,0.57998 -0.13619,0.19762 -0.36195,0.3417 -0.84392,0.53861 -0.42471,0.17351 -0.55724,0.24818 -0.96576,0.54411 -0.43286,0.31357 -0.7088,0.40611 -1.06186,0.35611 -0.17489,-0.0248 -0.21686,-0.0191 -0.40769,0.0553 -0.18169,0.0708 -0.25934,0.0828 -0.53192,0.0823 l -0.31918,-6.7e-4 -0.35062,-0.17586 c -0.19285,-0.0967 -0.49478,-0.25222 -0.67098,-0.34555 -0.3695,-0.19572 -0.58023,-0.24884 -0.90918,-0.22918 -0.49969,0.0299 -0.78075,0.32729 -0.73948,0.78249 0.0141,0.15572 0.0601,0.27232 0.26587,0.67402 0.13684,0.26715 0.27282,0.56835 0.30217,0.66934 0.14057,0.48354 -0.0895,0.92407 -0.61934,1.18593 -0.44359,0.21923 -0.87416,0.24306 -1.60147,0.0886 -0.85245,-0.18101 -1.00902,-0.20289 -1.36279,-0.19039 -0.38765,0.0137 -0.51029,0.0579 -0.60876,0.21939 -0.10125,0.16606 -0.0846,0.19241 0.1804,0.28562 1.19977,0.42203 2.18632,1.2635 2.6533,2.26314 0.55383,1.18557 0.15162,2.37456 -0.94765,2.80133 -0.14648,0.0569 -0.25094,0.073 -0.48288,0.0747 -0.35077,0.003 -0.43425,-0.029 -0.9346,-0.35363 -0.38815,-0.25182 -0.5037,-0.29398 -0.75856,-0.27677 -0.25491,0.0172 -0.4032,0.0927 -0.62778,0.31952 -0.34915,0.35263 -0.5049,0.75822 -0.59277,1.54362 -0.0917,0.81943 -0.1838,1.17478 -0.38546,1.48678 -0.33524,0.51868 -0.88014,0.73745 -1.99694,0.80172 -0.57207,0.0329 -0.75609,0.0502 -1.05922,0.0997 -0.62283,0.10156 -1.71157,0.5428 -1.77937,0.72113 -0.10438,0.27454 -0.40818,0.95795 -0.61728,1.38859 -0.81547,1.67946 -1.95273,3.42003 -3.46288,5.29992 -1.50687,1.87579 -2.68155,3.03907 -3.97961,3.94098 -0.14937,0.10378 -0.25432,0.21657 -0.43332,0.46566 -1.13819,1.58385 -2.6769,2.9919 -4.41646,4.04143 -1.5425,0.93065 -3.19291,1.58748 -4.99447,1.98771 -0.60052,0.13341 -0.90192,0.16381 -1.34528,0.1357 z"
                                   id="path1294" />
                                <path
                                   style="fill:#cfe275;stroke-width:0.0311536"
                                   d="m 106.07904,143.70934 c -4.17015,-1.06185 -6.342443,-5.44622 -7.598223,-9.22885 -2.152261,-7.7461 -0.262084,-15.90972 -1.859429,-23.74823 -0.67986,-3.43328 -1.319969,-7.04372 -2.903284,-10.15471 -1.439127,2.8388 1.831292,5.36396 1.120587,8.00215 -0.902996,1.28269 3.179568,5.67786 -0.360519,6.21385 -0.449119,1.05684 2.660584,1.27216 0.357557,2.43619 1.766622,1.12904 1.149436,2.37906 0.03642,2.77121 -0.619513,1.12089 3.65889,4.99892 0.275175,3.73192 -3.147944,-3.11238 -1.584802,3.72034 -0.09836,5.00346 0.542725,1.28799 3.796096,5.49065 1.167757,2.5003 -3.030076,-0.85616 -4.806954,-3.34138 -5.746923,-6.13483 -2.159091,-1.23254 -3.386936,-3.42973 -5.49225,-4.71481 0.595126,-2.2796 -2.314424,-3.16825 -4.058063,-2.32846 -2.614677,0.0259 -1.948582,-3.27337 -0.50618,-4.11323 -0.01143,-1.09683 3.570468,-2.16351 0.542586,-2.35215 -0.298472,-0.96109 -3.077031,-0.32324 -1.563223,-2.35819 -1.848636,-0.0726 -3.392862,-2.74102 -0.867832,-3.96846 1.083654,-0.91095 3.039654,-0.38266 2.723871,-1.95735 2.312759,-0.67422 1.175603,-2.71264 -0.497525,-3.34275 -2.875998,-2.583433 0.907585,-5.555894 3.762542,-4.593783 2.04755,-0.801106 2.713619,-5.3015 5.623619,-2.62412 2.454125,1.298739 5.48662,-0.802955 7.614279,-1.837281 1.998484,-0.373104 4.090142,1.086078 5.930842,-0.574377 1.12058,0.522589 1.39715,4.630856 3.17765,2.874751 0.496,-1.181312 2.07718,-1.021676 2.28404,-2.647531 2.44922,0.604791 4.77222,-2.426298 7.21954,-0.715511 2.78925,-1.161406 3.93035,2.895979 6.47821,1.258882 2.41394,0.03818 0.86412,3.684591 3.32636,2.252667 2.05448,0.869589 4.70934,-0.140475 6.85855,1.347179 1.90631,1.722085 -2.56988,4.481952 0.65655,4.457736 2.21563,1.907238 3.88934,-0.936525 5.92218,0.945488 1.62353,0.3797 1.24549,2.64385 3.22784,1.9222 0.11789,2.19153 4.34048,2.04719 2.38756,4.74695 -1.4729,0.18194 -2.84168,0.63391 -0.93326,1.82681 0.56915,2.56349 -2.5137,5.18343 -5.07475,5.4254 -1.36022,-0.89149 -4.26772,-0.94396 -2.73254,1.18357 0.99591,2.99918 -6.93344,0.23426 -2.69479,2.42767 3.15759,1.50959 1.00368,6.11637 -1.94275,3.92352 -1.44013,1.55215 -1.01661,4.98195 -4.31316,4.18705 -2.05188,0.94843 -1.96855,0.50501 -1.23005,-1.40199 0.71313,-2.75803 -3.71359,0.77632 -2.17977,-1.972 1.50402,-1.41632 0.68424,-2.98097 -0.93858,-3.4391 -0.0188,-1.63434 3.71037,-3.97077 0.51361,-3.22812 1.74161,-1.72156 0.59687,-1.26801 -0.52779,-2.28528 0.2844,-2.1566 5.84994,-2.19394 4.77848,-4.06383 -1.96241,0.0542 -6.46105,2.75496 -4.07179,-1.14658 2.05992,-1.70763 -1.63299,-1.1446 -0.0435,-3.27585 0.47193,-1.37333 2.22116,-3.46777 -0.34744,-2.47582 0.31538,-1.69444 -0.90037,-3.750289 -2.5963,-3.472189 -0.20344,1.228489 0.89575,3.801349 -1.53919,3.275689 0.43475,2.26619 3.20115,4.87481 0.88665,7.05106 -3.4822,-1.51822 0.70306,3.22177 0.36158,4.63111 0.41207,2.05476 -1.04561,4.45809 -2.839,2.4816 -0.38493,1.10658 1.83578,5.37775 -0.64837,4.16905 -1.78623,-3.65516 -1.56098,3.54654 -1.85631,4.78102 -0.43728,3.44434 -0.56768,7.04994 -1.89654,10.28768 6.26653,-6.58314 7.83032,-16.00365 8.19377,-24.74995 0.31126,-3.02288 -0.0643,-6.22761 0.63159,-9.13945 1.70412,1.85927 0.27327,6.02576 0.55118,8.76766 -0.49505,7.38079 -1.10532,14.84068 -3.11189,21.98626 -1.65105,5.90402 -6.98377,10.63771 -13.1291,11.21795 l -0.41179,-0.0442 z m 1.03829,-1.12154 c 4.21207,-0.94195 6.92371,-4.83211 9.12096,-8.25476 1.06289,-2.82236 -1.72773,1.93018 -2.73212,2.42493 -2.00949,2.56698 -5.92263,2.93528 -7.84435,5.05193 -0.0697,0.77504 0.91479,0.91257 1.45551,0.7779 z m -3.08919,-2.18867 c 1.75681,-0.68231 1.91636,-0.34305 0.12052,-1.16256 -2.96782,-1.77496 -4.02911,-5.34194 -4.581488,-8.54627 -0.05787,3.59687 1.270688,7.44697 3.931078,9.91174 l 0.21999,0.0283 0.3099,-0.2312 z m -1.23287,-3.75194 c -0.64577,-3.27611 0.32713,-6.53006 1.2001,-9.64185 -0.0198,-2.65847 -1.02376,-5.86983 -2.54028,-7.07682 0.90365,-1.62565 1.27167,-4.01657 -1.36929,-3.60785 0.9003,-1.07635 1.84684,-5.49956 -0.894459,-3.93536 -0.234399,-1.78785 4.034939,-5.2245 1.605219,-5.7777 -2.195768,1.28114 -4.11829,1.82513 -2.711573,4.59156 1.339595,8.16784 0.422685,16.89871 4.017503,24.56685 0.0743,0.0424 0.93841,1.7283 0.69278,0.88117 z m -5.451247,-29.62513 c 0.685641,-1.25815 -1.395,-4.44615 -0.612457,-1.68814 0.128077,0.0241 0.787486,3.27158 0.612457,1.68814 z"
                                   id="path1292" />
                                <path
                                   style="fill:#b2e958;stroke-width:0.0311536"
                                   d="m 106.96915,139.61386 c -2.79115,-0.65237 -5.04333,-2.93071 -4.32921,-5.95474 -0.20132,-2.99994 1.85769,-5.67847 1.28024,-8.65934 -1.13489,-1.60383 -0.36059,-4.45772 -2.51192,-4.72778 0.77224,-1.72088 1.52494,-4.41017 -1.33964,-3.99256 1.07618,-1.18984 1.82321,-5.41734 -0.897462,-3.90911 -0.06706,-1.88291 3.764912,-4.7988 1.834742,-5.82899 -1.517778,0.2162 -3.877819,3.85603 -3.664129,0.29739 0.414412,-2.80217 -1.98185,-3.26435 -2.618377,-6.03326 -1.654315,-2.522319 -1.649807,3.50507 -0.297079,4.93061 1.55683,2.19444 -1.018378,3.33177 1.000999,5.3372 0.801875,1.78979 0.52943,3.51311 -1.135701,4.13777 1.429197,0.48799 1.666323,1.22608 0.627532,2.11275 1.331939,0.73965 1.507045,2.72229 -0.0243,2.45002 -1.358767,1.54893 3.46525,3.71373 0.826235,4.34049 -1.280407,-1.26174 -2.753667,-2.39181 -2.459312,0.31179 0.483307,2.85234 2.400252,5.24501 3.868705,7.6828 0.49199,0.34168 -2.318809,-1.99475 -3.399268,-2.15067 -2.639469,-1.4013 -2.318349,-5.13555 -5.080319,-6.2585 -0.847175,-1.91567 -4.289106,-2.2007 -3.606254,-4.71705 -1.455163,-2.15109 -3.410337,-0.49714 -5.434432,-1.27133 -0.709588,-1.12182 -0.635255,-2.99864 0.82581,-3.63812 -0.487429,-1.24117 3.488702,-1.71222 0.92458,-2.52448 -0.969827,0.0893 -0.925432,-0.95521 -2.154619,-0.69903 -0.297312,-1.30387 0.716226,-2.35921 -1.428317,-2.23034 -2.604832,-2.69428 2.847208,-3.78678 3.199547,-4.71527 0.651624,-0.90498 1.482442,-1.00484 1.807366,-2.25765 -1.037666,-1.14387 -4.055647,-2.572894 -2.733255,-5.035279 1.862231,-2.179738 6.372344,-0.01879 6.683557,-3.958969 2.474536,-1.920998 4.783642,2.204181 7.509255,-0.0021 1.277008,-1.028121 3.05428,-0.882367 4.282447,-1.98141 1.996319,1.204809 3.826539,0.009 5.609199,-0.110447 0.18102,1.866272 2.22008,4.517928 3.24561,1.844225 1.69379,0.03896 1.26771,-3.025691 3.55256,-1.685571 2.21404,-1.813107 5.42893,-1.543311 7.79367,-0.421341 1.70826,-0.131697 2.16726,2.438834 4.11429,0.811827 2.41087,0.145745 0.84825,3.586994 3.36406,2.280819 1.46242,1.015734 2.94532,-0.293264 4.56449,0.66319 2.99065,-0.617163 3.28645,3.238911 1.42933,4.733851 2.19267,0.917301 4.08934,1.154681 6.15177,0.627141 1.75356,0.538399 2.50264,2.076963 3.57231,2.704423 1.62736,-0.34851 1.45831,2.26193 3.39357,2.20155 1.36873,2.02007 -0.88856,2.93315 -2.12056,3.1977 2.99336,1.89555 -0.35829,5.00362 -2.28925,6.0631 -1.36364,1.74475 -5.59005,-2.03911 -4.61433,1.2614 1.95762,3.42802 -6.81844,0.50898 -2.52159,2.80588 3.06007,1.39437 1.19937,6.1663 -1.80305,3.86908 -1.3176,2.17923 -1.83561,4.91295 -5.30489,4.44545 -2.23646,1.6156 1.3898,-4.27966 -1.84476,-2.58888 -2.59865,0.61169 2.44144,-4.38913 -1.57344,-4.27772 0.63926,-2.26785 2.60121,-3.61096 0.70224,-3.72507 1.56108,-1.51788 0.28357,-0.94902 -0.70516,-1.75384 0.0233,-2.43066 5.50406,-2.14366 4.8211,-4.27925 -1.69212,-0.33284 -6.16268,3.0185 -4.43393,-0.64736 0.56441,-1.19828 1.45617,-1.76216 -0.049,-2.1405 -0.49274,-1.82825 3.07325,-4.98598 -0.15916,-4.22064 0.63776,-1.75913 -1.20143,-3.91338 -2.64206,-3.167573 0.25424,1.237173 0.71779,3.634733 -1.44752,3.094433 0.43221,2.29354 3.13936,4.83344 0.931,7.04058 -3.61759,-1.36539 0.99973,3.40909 0.27595,5.05359 0.5808,2.56417 -1.47286,3.32575 -2.8945,2.20452 0.0103,1.03151 1.72338,5.45311 -0.56039,3.98704 -1.79907,-3.46778 -1.52185,3.30502 -1.81968,4.61205 -0.42483,3.48544 -0.57848,7.10971 -1.86006,10.40211 -1.74148,1.663 -3.8878,3.99651 -6.3339,4.11052 l -0.10133,-0.0515 z"
                                   id="path1290" />
                                <path
                                   style="fill:#87b243;stroke-width:0.0311536"
                                   d="m 107.12492,139.67519 c -1.66164,-0.76994 -4.31441,-1.51132 -4.39923,-3.71655 -0.511,-3.87034 0.8331,-7.61171 2.48171,-11.03799 0.28661,-3.06516 1.92103,-5.52039 5.13166,-5.56498 1.13252,-1.81677 -3.37492,-2.1323 -0.0665,-3.13274 2.48957,-2.17938 -1.04182,-3.1757 -2.12583,-4.45562 0.89686,-1.50886 3.7275,-2.77133 1.46542,-4.80165 -0.13223,-1.69652 -1.67782,-3.421 -2.87218,-3.64418 1.87204,-1.46829 0.49744,-4.31513 -1.28818,-4.743331 1.72556,-2.284065 -0.76518,-3.926572 -2.8485,-2.802334 -1.37388,-0.241271 1.06034,-4.101169 -2.05176,-2.876519 -0.797698,1.135068 -4.478104,3.349826 -3.714473,0.645088 -0.71201,-1.305457 -3.898413,-0.984488 -0.942991,-1.659055 1.705393,-0.44308 3.002005,-2.020262 4.940634,-0.578518 1.60203,-0.242868 3.88619,-2.007233 3.91633,1.004127 0.36602,1.766633 4.18023,1.051927 2.2211,3.273401 1.39274,1.225008 1.24393,1.735266 0.29393,2.880785 1.35553,1.11532 1.44184,4.714166 3.05792,4.189466 -1.92893,-1.84591 -0.81585,-5.2708 0.43421,-6.828074 -2.01013,-1.41734 0.0184,-1.707556 1.38154,-1.506957 0.60981,-0.654993 -1.20948,-1.631367 0.74273,-2.081287 2.08147,-1.829108 4.5418,-1.566856 6.71858,-1.047423 1.22902,2.231086 2.03176,-1.233572 4.26468,0.324924 1.96771,1.45329 -0.71624,3.703178 -0.76446,0.777713 -1.68306,-0.226272 -3.55024,1.951118 -4.9364,-0.49965 -2.4648,-1.695155 -3.74875,1.048113 -3.14383,3.032733 -2.3914,-0.376143 -1.50451,2.28609 -0.20487,3.048221 -2.25932,-0.401258 -3.64039,2.45563 -1.44482,4.01001 1.87062,1.08342 5.21351,4.45318 1.27707,5.04756 -1.52883,2.43991 3.02159,4.65245 -0.76388,6.27574 0.87873,0.85735 1.97714,2.08771 -0.002,2.13529 -0.0842,1.85675 3.12933,2.34348 1.88773,4.59667 -0.66326,5.18605 -0.63678,10.56472 -2.34325,15.54389 -1.66533,1.7222 -3.88811,3.92944 -6.30203,4.19124 z m -1.10596,-3.21302 c 1.50286,-4.2312 3.08945,-8.4323 4.71019,-12.61964 -1.64517,-3.27458 -2.3866,1.82181 -4.23791,2.70476 -1.92947,2.83561 -1.45208,6.60352 -0.64005,9.75551 l 0.1285,0.23548 0.0389,-0.0761 z m 5.95965,-32.46516 c -1.82687,-1.74199 0.15198,0.48043 0,0 z m -14.797633,28.29455 c -0.946097,-1.86389 -3.587439,-1.72619 -4.774005,-3.43697 -0.951963,-2.70011 -2.771579,-4.4021 -4.738066,-6.18857 -0.967236,-1.39902 -3.264234,-1.85965 -2.826359,-3.76636 -0.57283,-1.39231 -2.50748,-0.85195 -2.85521,-1.6301 0.765056,-1.02755 -1.449448,-2.1471 0.634796,-2.89645 -0.05544,-3.03267 3.622861,-1.15345 5.295869,-0.75775 1.439152,1.24515 -1.345154,3.55496 1.607736,3.89504 1.746802,1.44829 -1.820875,4.51458 1.664181,4.48063 2.263252,1.77968 2.539756,5.57636 4.524938,7.9218 0.191566,0.4498 1.876971,2.80561 1.46612,2.37873 z m 28.578763,-6.09735 c 0.58048,-2.82542 2.33787,-5.26064 2.74361,-8.1212 1.97638,-0.54819 3.15763,-3.09726 1.96339,-4.53087 2.58622,0.76268 4.33811,-1.44873 4.0212,-3.82436 2.47985,-0.81596 4.6344,0.37373 7.06736,0.92135 -0.47766,1.52771 -2.29456,3.84288 -4.06025,2.7921 -3.27709,-0.98465 0.97051,4.41688 -2.99255,3.27077 -1.12029,-0.62764 -3.39614,0.2 -1.02337,0.75957 3.45911,1.4466 1.49212,6.26899 -1.73779,4.13405 -1.14329,1.75583 -1.14979,4.78815 -4.22304,4.1412 -0.32683,-0.23063 -2.09953,1.02866 -1.75856,0.45739 z m 13.35287,-12.23343 c 1.6166,-0.35854 -0.85037,0.30749 0,0 z m -56.926653,-2.06279 c -1.299612,-0.71953 -2.66389,-0.40089 -3.181682,-1.84812 1.38082,-1.79041 -3.945701,-1.5483 -1.210467,-4.15436 0.982049,-1.65479 4.951796,-1.99684 4.875071,-0.11182 -3.451598,1.15525 0.418698,4.20425 2.645099,3.56322 1.643397,0.84806 -1.152641,2.11961 -1.613042,2.57305 -0.485946,-0.14318 -1.070059,0.24996 -1.514979,-0.022 z m 62.212593,-1.74603 c -1.20991,-1.72419 -4.09968,-2.0462 -5.4956,-2.93811 0.15171,-1.85223 -2.32369,1.04859 -2.47334,-1.21644 -0.94621,-1.47679 -4.40362,1.43753 -1.89974,-0.43753 2.10558,-1.50765 1.69053,-5.01383 -0.31693,-6.147296 1.56352,0.465419 4.07936,0.28834 3.5318,2.795556 1.23424,0.66486 2.51163,0.98296 2.03861,2.65055 1.52977,-0.18133 2.908,0.21685 2.3556,1.86414 0.97128,0.72094 3.01701,2.05857 2.2596,3.42913 z m -4.08671,-9.37834 c 0.41077,-0.0432 0.0862,0.0445 0,0 z m 0.34408,0.001 c 0.13706,-0.0444 0.0126,0.0587 0,0 z m -33.78795,-7.595769 c 0.0298,-0.203392 0.0192,0.242141 0,0 z m 1.45636,-0.930793 c 0.10511,-0.126308 0.14742,-0.08611 0,0 z m 2.35988,-1.473089 c 0.17161,-0.05057 0.0311,0.05454 0,0 z m 0.72433,-0.396127 c 0.10511,-0.126308 0.14742,-0.08611 0,0 z m 7.40676,-0.04002 c 0.17161,-0.05057 0.0311,0.05454 0,0 z m 0.43615,-0.09481 c 0.31083,-0.04684 0.0607,0.04771 0,0 z m -6.66604,-0.499323 c 0.54888,-0.04146 0.11467,0.04225 0,0 z m 0.90263,0.0022 c 0.17161,-0.05057 0.0311,0.05454 0,0 z m 3.86304,-0.09346 c 0.17161,-0.05057 0.0311,0.05454 0,0 z m -2.42803,-0.436799 c 0.1366,-0.04456 0.0134,0.06005 0,0 z"
                                   id="path1286" />
                                <path
                                   style="fill:#709238;stroke-width:0.0311536"
                                   d="m 107.20767,139.7071 c -3.28936,-0.53948 -0.6413,-3.92062 -0.21475,-5.90652 1.21797,-3.30461 2.43023,-6.64279 3.74855,-9.88985 1.30042,3.06665 0.5527,6.5759 -0.0714,9.72464 -0.62044,2.11096 -1.60657,5.02667 -3.46238,6.07173 z m 7.04291,-7.91308 c -0.41429,-3.37447 -0.26158,-6.80204 -0.69085,-10.16339 -1.40022,-1.50571 -3.39602,-2.96271 -1.74211,-5.33105 0.73728,-2.14496 -0.25656,-4.04693 0.96771,-6.00286 -2.6584,-1.65022 0.33217,-4.54709 -1.01804,-6.52813 -2.43303,-1.06086 -3.40253,-4.006513 -1.11838,-5.8388 1.06364,-0.948276 2.70503,-3.387366 3.33472,-0.986665 2.55185,1.870363 -3.17779,0.36007 -1.70388,3.272025 0.50609,2.49946 5.18737,3.30502 3.99268,6.04899 -2.69855,0.041 -2.58134,3.22661 -0.64759,4.34547 1.02279,1.7725 -3.6709,2.05169 -0.80706,3.55644 1.18874,1.28146 -2.38784,0.90482 -0.61253,2.38393 2.48587,0.94145 1.4449,3.20613 1.36253,5.18592 -0.35088,3.51105 -0.59284,7.04332 -1.27913,10.50984 -0.0127,-0.15057 -0.0254,-0.30115 -0.0381,-0.45172 z m -17.622244,-0.33916 c -2.04001,-1.08725 -4.635007,-2.00054 -5.280364,-4.51281 -0.518413,-2.58325 -3.435985,-3.10589 -4.537591,-5.33599 -2.722632,-0.2281 -0.90848,-3.41217 -3.364836,-3.82947 -2.781316,-2.92017 2.935871,-4.12764 4.878201,-2.65741 -1.784854,2.22171 3.579172,2.45928 1.336801,5.03058 -1.202378,2.46412 3.661609,1.24642 3.078873,4.0428 1.080348,2.49943 2.536349,5.04076 3.888916,7.2623 z m 29.095324,-5.13618 c -0.13895,-2.7609 3.61391,-1.97636 4.06151,-4.38619 -1.00567,-2.01565 0.73823,-1.49502 1.83878,-2.07823 0.24763,-2.08368 0.75222,-4.00612 2.75267,-1.70294 2.46274,1.63807 0.11153,5.47059 -2.23818,3.33118 -1.77329,1.43137 -1.4137,5.13567 -4.95288,4.31054 -0.51252,0.1042 -0.97077,0.35925 -1.4619,0.52564 z m -43.358062,-8.56441 c 0.171551,-0.0505 0.03114,0.0545 0,0 z m 52.589212,-0.99756 c 0.13706,-0.0444 0.0126,0.0587 0,0 z m 0.21613,6.5e-4 c 0.17161,-0.0506 0.0311,0.0545 0,0 z m 1.58883,-3.52036 c 0.17161,-0.0506 0.0311,0.0545 0,0 z m -57.774269,-2.98569 c 0.02972,-0.20352 0.01918,0.24211 0,0 z m -0.01564,-1.46927 c 0.171551,-0.0505 0.03114,0.0545 0,0 z M 106.04428,93.671894 c 0.1366,-0.04456 0.0134,0.06005 0,0 z m 0.15576,0 c 0.1366,-0.04456 0.0134,0.06005 0,0 z"
                                   id="path1284" />
                                </g>
                                </g>
                                </g>
                                </g>
                                </g>
                                </g>
                                </g>
                                </g>
                                </g>
                                </g>
                                </g>
                                </g>
                                </g>
                                </g>
                                </g>
                                </g>
                                </g>
                                </g>
                                </g>
                              </g>
                            </g>
                          </g>
                        </g>
                      </g>
                    </g>
                  </g>
                </g>
              </g>
            </g>
          </g>
        </g>
      </g>
    </g>
  </g>
</svg>
