<?xml version="1.0" encoding="UTF-8" standalone="no"?>
<!-- Created with Inkscape (http://www.inkscape.org/) -->

<svg
   width="64"
   height="64"
   viewBox="0 0 16.933333 16.933334"
   version="1.1"
   id="svg5"
   inkscape:version="1.2 (dc2aedaf03, 2022-05-15)"
   sodipodi:docname="benedictine.svg"
   xmlns:inkscape="http://www.inkscape.org/namespaces/inkscape"
   xmlns:sodipodi="http://sodipodi.sourceforge.net/DTD/sodipodi-0.dtd"
   xmlns="http://www.w3.org/2000/svg"
   xmlns:svg="http://www.w3.org/2000/svg">
  <sodipodi:namedview
     id="namedview7"
     pagecolor="#ffffff"
     bordercolor="#666666"
     borderopacity="1.0"
     inkscape:pageshadow="2"
     inkscape:pageopacity="0.0"
     inkscape:pagecheckerboard="0"
     inkscape:document-units="mm"
     showgrid="false"
     units="px"
     inkscape:zoom="11.313709"
     inkscape:cx="15.77732"
     inkscape:cy="21.655145"
     inkscape:window-width="1920"
     inkscape:window-height="1017"
     inkscape:window-x="1912"
     inkscape:window-y="-8"
     inkscape:window-maximized="1"
     inkscape:current-layer="g2138"
     inkscape:showpageshadow="2"
     inkscape:deskcolor="#d1d1d1" />
  <defs
     id="defs2" />
  <g
     inkscape:label="Calque 1"
     inkscape:groupmode="layer"
     id="layer1">
    <g
       id="g4128"
       transform="translate(-0.63104184,0.12620835)">
      <g
         id="g5578"
         transform="translate(0.08924235,0.08924306)">
        <g
           id="g7501"
           transform="translate(-0.06310417,0.94656242)">
          <g
             id="g9467"
             transform="translate(-0.08924275,-0.80318511)">
            <g
               id="g10302"
               transform="translate(0.31234979,-0.04462139)">
              <g
                 id="g11479"
                 transform="translate(-0.12620833,0.06310418)">
                <g
                   id="g11873"
                   transform="translate(-0.23575769,0.66462456)">
                  <g
                     id="g12382"
                     transform="translate(-121.98459,-82.267525)">
                    <g
                       id="g13305"
                       transform="matrix(0.13266609,0,0,0.13266609,114.63867,78.215696)">
                      <g
                         id="g17429"
                         transform="translate(0.90513437,5.6640979)">
                        <g
                           id="g18595"
                           transform="translate(-3.3634362,-8.7449387)">
                          <g
                             id="g21002"
                             transform="translate(1.7082278,-2.8204445)">
                            <g
                               id="g23814"
                               transform="translate(8.7253043,-1.1218249)">
                              <g
                                 id="g24838"
                                 transform="translate(11.143454,-0.85716864)">
                                <g
                                   id="g25315"
                                   transform="translate(-3.490122,2.4929446)">
                                <g
                                   id="g27220"
                                   transform="translate(2.4678888,1.2339445)">
                                <g
                                   id="g29753"
                                   transform="translate(1.4759287,-2.3737724)">
                                <g
                                   id="g30615"
                                   transform="translate(0.92006037,1.3687834)">
                                <g
                                   id="g31433"
                                   transform="translate(-2.4678886,-1.410222)">
                                <g
                                   id="g31731"
                                   transform="translate(1.0576664,-0.70511063)">
                                <g
                                   id="g33243"
                                   transform="matrix(1.0772948,0,0,1.0772948,-7.3729128,-3.1743014)">
                                <g
                                   id="g35254"
                                   transform="translate(-2.2135012,-0.92031205)">
                                <g
                                   id="g36749"
                                   transform="translate(-0.98178042,-2.7817105)">
                                <g
                                   id="g37297"
                                   transform="translate(-6.7755742,-3.5033798)">
                                <g
                                   id="g38955"
                                   transform="matrix(1.2171094,0,0,1.2171094,-23.105122,-18.212482)">
                                <g
                                   id="g39618"
                                   transform="translate(-0.26888273,-0.26888316)">
                                <g
                                   id="g40032"
                                   transform="translate(-1.90129,-3.042064)">
                                <g
                                   id="g40543"
                                   transform="translate(0.3802582,-2.0914191)">
                                <g
                                   id="g41372"
                                   transform="translate(1.9657652,-7.9304203)">
                                <g
                                   id="g43278"
                                   transform="translate(1.5210324,-0.38025789)">
                                <g
                                   id="g44210"
                                   transform="matrix(1.1578947,0,0,1.1578947,-18.904476,-21.776183)">
                                <g
                                   id="g44833"
                                   transform="matrix(1.1196819,0,0,1.1196819,-12.538538,-14.547543)">
                                <g
                                   id="g47597"
                                   transform="translate(3.1109352,-1.2443743)">
                                <g
                                   id="g48754"
                                   transform="translate(-2.9035392,-6.6366609)">
                                <g
                                   id="g234"
                                   transform="matrix(0.04089637,0,0,0.04089637,104.63967,119.67231)">
                                <g
                                   id="g2138"
                                   transform="translate(-86.211222,-40.569988)">
                                <path
                                   style="fill:#d45500;stroke-width:4.53858"
                                   d="m -91.09194,823.60467 c -38.10996,-7.59623 -66.82513,-37.89597 -78.90072,-83.25458 -9.42113,-35.3879 -9.26766,-732.7736028 0.17002,-772.578537 23.7366,-100.113043 75.567868,-147.225173 204.45326,-185.838053 73.68757,-22.07615 74.93132,-23.57602 74.74223,-90.13375 -0.10643,-37.46638 -1.89392,-53.11909 -6.80787,-59.61592 -10.176978,-13.45516 -9.817831,-250.17383 0.40169,-264.76425 6.86306,-9.79839 9.4403,-10.08702 90.06819,-10.08702 74.64793,0 83.759,0.83545 90.51422,8.29988 6.60213,7.29525 7.5113,23.25402 7.5113,131.84421 0,104.29838 -1.1296,125.72877 -7.25133,137.56685 -5.70749,11.03703 -6.89619,24.61818 -5.58327,63.7886 2.00369,59.77832 3.04089,61.09065 62.14196,78.62545 83.00963,24.62824 132.75736,48.73314 160.29724,77.67085 18.21169,19.13597 43.24037,62.980333 52.36341,91.728378 7.47972,23.569708 8.07749,53.8344112 8.07749,408.963352 v 383.51001 l -10.43351,22.63634 c -12.74837,27.65875 -24.83525,41.05427 -48.56802,53.82656 -17.97827,9.67535 -20.86122,9.77683 -297.27699,10.46488 -153.517459,0.38215 -286.681148,-0.81186 -295.9193,-2.65325 z"
                                   id="path2148" />
                                <path
                                   style="fill:#a7833b;stroke-width:4.53858"
                                   d="m 102.96667,-366.82393 c -5.971923,-8.52613 -7.065222,-29.08814 -7.065222,-132.87825 0,-103.7901 1.093299,-124.35212 7.065222,-132.87824 6.86306,-9.79839 9.4403,-10.08702 90.06819,-10.08702 74.64793,0 83.759,0.83545 90.51422,8.29988 6.60073,7.29372 7.5113,23.22351 7.5113,131.40527 0,83.75523 -1.68358,126.80048 -5.26711,134.66538 l -5.26707,11.56 h -85.24714 c -82.94699,0 -85.4378,-0.27217 -92.31239,-10.08702 z"
                                   id="path2146"
                                   sodipodi:nodetypes="ssssssscss" />
                                <path
                                   style="fill:#ffe6d5;stroke-width:4.53858"
                                   d="M -144.64328,365.46825 V 25.645663 l 335.42103,-3.376204 c 184.48155,-1.85696 337.65862,-1.993344 340.39348,-0.303177 3.53265,2.183284 4.97246,101.558758 4.97246,343.198788 V 705.29079 H 195.75021 -144.64328 Z"
                                   id="path2142" />
                                <path
                                   style="fill:#ffe6d5;stroke-width:4.53858"
                                   d="m -143.58598,363.76265 c -0.58152,-186.59237 0.47447,-339.259348 2.34663,-339.259983 3.08567,-10e-4 3.04832,245.333023 -0.085,558.246463 -0.66238,66.1498 -1.68011,-32.39412 -2.26164,-218.98648 z"
                                   id="path2140"
                                   sodipodi:nodetypes="sssss" />
                                </g>
                                </g>
                                </g>
                                </g>
                                </g>
                                </g>
                                </g>
                                </g>
                                </g>
                                </g>
                                </g>
                                </g>
                                </g>
                                </g>
                                </g>
                                </g>
                                </g>
                                </g>
                                </g>
                                </g>
                                </g>
                                </g>
                              </g>
                            </g>
                          </g>
                        </g>
                      </g>
                    </g>
                  </g>
                </g>
              </g>
            </g>
          </g>
        </g>
      </g>
    </g>
  </g>
</svg>
