<?xml version="1.0" encoding="UTF-8" standalone="no"?>
<!-- Created with Inkscape (http://www.inkscape.org/) -->

<svg
   width="64"
   height="64"
   viewBox="0 0 16.933333 16.933334"
   version="1.1"
   id="svg5"
   inkscape:version="1.2 (dc2aedaf03, 2022-05-15)"
   sodipodi:docname="bernique.svg"
   xmlns:inkscape="http://www.inkscape.org/namespaces/inkscape"
   xmlns:sodipodi="http://sodipodi.sourceforge.net/DTD/sodipodi-0.dtd"
   xmlns="http://www.w3.org/2000/svg"
   xmlns:svg="http://www.w3.org/2000/svg">
  <sodipodi:namedview
     id="namedview7"
     pagecolor="#ffffff"
     bordercolor="#666666"
     borderopacity="1.0"
     inkscape:pageshadow="2"
     inkscape:pageopacity="0.0"
     inkscape:pagecheckerboard="0"
     inkscape:document-units="mm"
     showgrid="false"
     units="px"
     inkscape:zoom="16"
     inkscape:cx="30.25"
     inkscape:cy="37.4375"
     inkscape:window-width="1920"
     inkscape:window-height="1017"
     inkscape:window-x="3832"
     inkscape:window-y="-8"
     inkscape:window-maximized="1"
     inkscape:current-layer="g5244"
     inkscape:showpageshadow="2"
     inkscape:deskcolor="#d1d1d1" />
  <defs
     id="defs2" />
  <g
     inkscape:label="Calque 1"
     inkscape:groupmode="layer"
     id="layer1">
    <g
       id="g4128"
       transform="translate(-0.63104184,0.12620835)">
      <g
         id="g5578"
         transform="translate(0.08924235,0.08924306)">
        <g
           id="g7501"
           transform="translate(-0.06310417,0.94656242)">
          <g
             id="g9467"
             transform="translate(-0.08924275,-0.80318511)">
            <g
               id="g10302"
               transform="translate(0.31234979,-0.04462139)">
              <g
                 id="g11479"
                 transform="translate(-0.12620833,0.06310418)">
                <g
                   id="g11873"
                   transform="translate(-0.23575769,0.66462456)">
                  <g
                     id="g12382"
                     transform="translate(-121.98459,-82.267525)">
                    <g
                       id="g13305"
                       transform="matrix(0.13266609,0,0,0.13266609,114.63867,78.215696)">
                      <g
                         id="g17429"
                         transform="translate(0.90513437,5.6640979)">
                        <g
                           id="g18595"
                           transform="translate(-3.3634362,-8.7449387)">
                          <g
                             id="g21002"
                             transform="translate(1.7082278,-2.8204445)">
                            <g
                               id="g23814"
                               transform="translate(8.7253043,-1.1218249)">
                              <g
                                 id="g24838"
                                 transform="translate(11.143454,-0.85716864)">
                                <g
                                   id="g25315"
                                   transform="translate(-3.490122,2.4929446)">
                                <g
                                   id="g27220"
                                   transform="translate(2.4678888,1.2339445)">
                                <g
                                   id="g29753"
                                   transform="translate(1.4759287,-2.3737724)">
                                <g
                                   id="g30615"
                                   transform="translate(0.92006037,1.3687834)">
                                <g
                                   id="g31433"
                                   transform="translate(-2.4678886,-1.410222)">
                                <g
                                   id="g31731"
                                   transform="translate(1.0576664,-0.70511063)">
                                <g
                                   id="g33243"
                                   transform="matrix(1.0772948,0,0,1.0772948,-7.3729128,-3.1743014)">
                                <g
                                   id="g35254"
                                   transform="translate(-2.2135012,-0.92031205)">
                                <g
                                   id="g36749"
                                   transform="translate(-0.98178042,-2.7817105)">
                                <g
                                   id="g37297"
                                   transform="translate(-6.7755742,-3.5033798)">
                                <g
                                   id="g38955"
                                   transform="matrix(1.2171094,0,0,1.2171094,-23.105122,-18.212482)">
                                <g
                                   id="g39618"
                                   transform="translate(-0.26888273,-0.26888316)">
                                <g
                                   id="g40032"
                                   transform="translate(-1.90129,-3.042064)">
                                <g
                                   id="g40543"
                                   transform="translate(0.3802582,-2.0914191)">
                                <g
                                   id="g41372"
                                   transform="translate(1.9657652,-7.9304203)">
                                <g
                                   id="g43278"
                                   transform="translate(1.5210324,-0.38025789)">
                                <g
                                   id="g44210"
                                   transform="matrix(1.1578947,0,0,1.1578947,-18.904476,-21.776183)">
                                <g
                                   id="g44833"
                                   transform="matrix(1.1196819,0,0,1.1196819,-12.538538,-14.547543)">
                                <g
                                   id="g47597"
                                   transform="translate(3.1109352,-1.2443743)">
                                <g
                                   id="g48754"
                                   transform="translate(-2.9035392,-6.6366609)">
                                <g
                                   id="g234"
                                   transform="matrix(0.04089637,0,0,0.04089637,104.63967,119.67231)">
                                <g
                                   id="g2138"
                                   transform="translate(-86.211222,-40.569988)">
                                <g
                                   id="g2696"
                                   transform="translate(-124306.44,-9412.2373)">
                                <g
                                   id="g3765"
                                   transform="translate(25.356243,-50.712489)">
                                <g
                                   id="g4557"
                                   transform="translate(46.61688,-35.859142)">
                                <g
                                   id="g5244"
                                   transform="translate(7.1718407,14.343658)">
                                <path
                                   style="fill:#6c5353;stroke-width:0.545745"
                                   d="m 124510.42,10172.619 c -193.51,-5.96 -384.87,-45.031 -570.76,-97.33 -63.77,-24.437 -152.89,-41.811 -173.99,-117.091 -18.3,-72.9484 53.76,-147.5498 -1.94,-214.3153 -36.17,-58.1452 -48.76,-148.0047 27.29,-180.239 82.06,-30.106 69.81,-115.6668 56.48,-184.4918 -10.44,-96.0521 109.75,-76.3345 169.95,-95.9974 56.2,-38.0214 29.45,-153.1375 118.18,-168.7694 57.86,-23.9111 137.36,33.6199 180.56,-22.3815 32.46,-57.3345 84.82,-134.2066 161.44,-99.5927 66.7,34.5346 142.46,43.0909 188.04,-29.3583 54.33,-63.854 137.38,-20.4083 172.37,39.5603 54.85,72.7247 126.28,-34.3481 194.28,-16.7809 76.12,16.1963 61.98,127.901 133.6,144.3093 61.98,1.0202 140.33,31.3473 132.77,106.6797 -2.95,165.4683 -52.46,327.4135 -115.24,479.3433 -68.48,143.8066 -149.88,286.7867 -268.36,395.4267 -69.58,52.27 -163.5,48.003 -246.01,58.255 -52.79,3.699 -105.78,2.706 -158.66,2.773 z m 662.23,-554.4329 c 55.2,-17.7473 15.52,-127.5752 -25.52,-61.7592 -13.05,23.3958 -13.62,69.1382 25.52,61.7592 z m -1177.16,-133.1616 c 76.53,-41.8667 -83.12,-107.3851 -45.33,-21.6125 13.22,9.829 26.73,26.52 45.33,21.6125 z m 614.91,-62.528 c 73.01,-32.8973 -55.09,-109.3226 -33.99,-23.3007 3.19,15.1564 18.42,26.9558 33.99,23.3007 z"
                                   id="path5252" />
                                <path
                                   style="fill:#c8b7b7;stroke-width:0.545745"
                                   d="m 124518.34,10172.366 c -199.22,-5.634 -396.58,-45.076 -587.62,-100.318 -62.08,-24.025 -152.66,-43.581 -166.04,-120.8179 -13.79,-68.0995 51.75,-137.3363 2.99,-199.8653 -39.8,-61.2106 -54.37,-157.439 28.38,-190.7304 86.54,-32.4303 57.08,-123.2867 51.72,-192.5901 2.64,-89.013 116.07,-62.3949 174.39,-86.0276 48.22,-43.6273 29.16,-149.1632 112.49,-166.9463 61.39,-24.7725 150.13,38.6864 189.13,-33.2268 29.55,-52.2436 76.6,-119.3405 146.28,-91.0161 62.86,24.6498 139.2,55.492 183.97,-17.0667 50.79,-68.6727 142.37,-43.5484 179.67,24.4521 44.9,73.2023 116.05,-7.7867 173.57,-12.8244 79.14,-6.4927 90.89,87.14 129.84,133.9998 56.16,23.9095 152.64,12.9752 159.46,96.6066 6.87,151.5091 -39.81,300.0428 -89.4,441.4891 -64.11,158.8796 -152.08,311.0813 -271.26,435.097 -66.76,69.563 -171.48,65.757 -260.27,76.425 -52.35,3.485 -104.85,4.529 -157.3,3.36 z m 277.51,-64.894 c 77.86,9.539 124.64,-60.976 155.35,-121.5234 101.64,-205.4229 161.95,-430.1444 193.87,-656.5581 -3.03,-51.6921 34.74,-128.9058 -13.18,-163.1413 -64.48,21.1578 -20.92,124.1391 -45.05,178.887 -28.32,189.5583 -79.15,376.4345 -154.84,552.6388 25.13,-262.4903 28.03,-527.9372 -9.59,-789.4007 -59.23,-59.2361 -59.55,50.2411 -45.25,88.1469 29.35,249.5681 19.54,506.3932 -6.55,752.8628 -45.91,-280.069 -107.72,-558.056 -202.22,-826.0522 7.76,-48.5151 -72.02,-94.9728 -67.75,-25.9433 91.37,255.3199 156.96,519.0545 202.07,786.3205 3.68,29.1229 26.34,112.5846 -6.25,42.0666 -146.26,-254.5096 -289.97,-510.5572 -437.9,-764.054 -85.29,-23.9639 -21.39,81.8816 2.71,114.5231 139.9,245.207 280.02,490.2879 420.02,735.4403 -241.86,-212.6922 -467.76,-443.5271 -669.97,-694.4047 -48.14,-45.4713 -68.44,44.4446 -18.95,64.6157 185.97,227.9214 391.53,439.2035 610.97,634.978 -234.01,-105.3849 -464.06,-224.4804 -664.52,-386.5133 -44.58,-20.6396 -117.89,-137.3928 -148.41,-58.1364 37.67,52.411 98.93,86.0894 148.32,128.3091 176.78,138.5012 376.07,243.9998 578.95,338.5986 -239.1,-35.296 -479.07,-85.5501 -701.53,-182.3336 -28.4,-32.3183 -117.64,-36.0845 -76.81,22.8782 185.78,98.0876 393.55,144.7364 597.89,186.8494 118.28,21.243 238.08,41.974 358.62,40.946 z m -728.87,-31.934 c 75.49,-51.83 -96.38,-91.0239 -52.2,-11.267 14.02,10.571 35.06,13.806 52.2,11.267 z m 320.76,-277.504 c 75.33,-45.8338 -91.3,-111.8356 -48.79,-23.9355 14.39,10.8574 28.09,30.2458 48.79,23.9355 z m 787.08,-180.0745 c 54.27,-21.8747 8.57,-126.8297 -28.33,-60.831 -13.21,24.9184 -13.15,70.153 28.33,60.831 z m -1179.27,-132.655 c 77.23,-42.4044 -85.41,-108.4778 -44.89,-20.8655 13.2,9.6466 26.52,26.2417 44.89,20.8655 z m 614.81,-62.4441 c 75.42,-36.7495 -59.4,-105.4168 -33.82,-22.2301 3.62,14.4709 18.54,26.0796 33.82,22.2301 z m -34.75,-114.1111 c 65.34,-26.2375 -39.63,-122.638 -41.75,-39.0037 6.32,19.1886 15.62,45.5411 41.75,39.0037 z"
                                   id="path5246" />
                                </g>
                                </g>
                                </g>
                                </g>
                                </g>
                                </g>
                                </g>
                                </g>
                                </g>
                                </g>
                                </g>
                                </g>
                                </g>
                                </g>
                                </g>
                                </g>
                                </g>
                                </g>
                                </g>
                                </g>
                                </g>
                                </g>
                                </g>
                                </g>
                                </g>
                                </g>
                              </g>
                            </g>
                          </g>
                        </g>
                      </g>
                    </g>
                  </g>
                </g>
              </g>
            </g>
          </g>
        </g>
      </g>
    </g>
  </g>
</svg>
