<?xml version="1.0" encoding="UTF-8" standalone="no"?>
<!-- Created with Inkscape (http://www.inkscape.org/) -->

<svg
   width="64"
   height="64"
   viewBox="0 0 16.933333 16.933334"
   version="1.1"
   id="svg5"
   inkscape:version="1.1.1 (3bf5ae0d25, 2021-09-20)"
   sodipodi:docname="bette_a_carde.svg"
   xmlns:inkscape="http://www.inkscape.org/namespaces/inkscape"
   xmlns:sodipodi="http://sodipodi.sourceforge.net/DTD/sodipodi-0.dtd"
   xmlns="http://www.w3.org/2000/svg"
   xmlns:svg="http://www.w3.org/2000/svg">
  <sodipodi:namedview
     id="namedview7"
     pagecolor="#ffffff"
     bordercolor="#666666"
     borderopacity="1.0"
     inkscape:pageshadow="2"
     inkscape:pageopacity="0.0"
     inkscape:pagecheckerboard="0"
     inkscape:document-units="mm"
     showgrid="false"
     units="px"
     inkscape:zoom="5.6568543"
     inkscape:cx="14.937631"
     inkscape:cy="53.651727"
     inkscape:window-width="1920"
     inkscape:window-height="1017"
     inkscape:window-x="1912"
     inkscape:window-y="-8"
     inkscape:window-maximized="1"
     inkscape:current-layer="g5807" />
  <defs
     id="defs2">
    <pattern
       id="EMFhbasepattern"
       patternUnits="userSpaceOnUse"
       width="6"
       height="6"
       x="0"
       y="0" />
    <pattern
       id="EMFhbasepattern-5"
       patternUnits="userSpaceOnUse"
       width="6"
       height="6"
       x="0"
       y="0" />
    <pattern
       id="EMFhbasepattern-56"
       patternUnits="userSpaceOnUse"
       width="6"
       height="6"
       x="0"
       y="0" />
    <pattern
       id="EMFhbasepattern-6"
       patternUnits="userSpaceOnUse"
       width="6"
       height="6"
       x="0"
       y="0" />
    <pattern
       id="EMFhbasepattern-62"
       patternUnits="userSpaceOnUse"
       width="6"
       height="6"
       x="0"
       y="0" />
    <pattern
       id="EMFhbasepattern-8"
       patternUnits="userSpaceOnUse"
       width="6"
       height="6"
       x="0"
       y="0" />
    <pattern
       id="EMFhbasepattern-81"
       patternUnits="userSpaceOnUse"
       width="6"
       height="6"
       x="0"
       y="0" />
    <pattern
       id="EMFhbasepattern-9"
       patternUnits="userSpaceOnUse"
       width="6"
       height="6"
       x="0"
       y="0" />
    <pattern
       id="EMFhbasepattern-52"
       patternUnits="userSpaceOnUse"
       width="6"
       height="6"
       x="0"
       y="0" />
    <pattern
       id="EMFhbasepattern-0"
       patternUnits="userSpaceOnUse"
       width="6"
       height="6"
       x="0"
       y="0" />
    <pattern
       id="EMFhbasepattern-7"
       patternUnits="userSpaceOnUse"
       width="6"
       height="6"
       x="0"
       y="0" />
    <pattern
       id="EMFhbasepattern-65"
       patternUnits="userSpaceOnUse"
       width="6"
       height="6"
       x="0"
       y="0" />
    <pattern
       id="EMFhbasepattern-3"
       patternUnits="userSpaceOnUse"
       width="6"
       height="6"
       x="0"
       y="0" />
    <pattern
       id="EMFhbasepattern-90"
       patternUnits="userSpaceOnUse"
       width="6"
       height="6"
       x="0"
       y="0" />
    <pattern
       id="EMFhbasepattern-4"
       patternUnits="userSpaceOnUse"
       width="6"
       height="6"
       x="0"
       y="0" />
    <pattern
       id="EMFhbasepattern-2"
       patternUnits="userSpaceOnUse"
       width="6"
       height="6"
       x="0"
       y="0" />
    <pattern
       id="EMFhbasepattern-40"
       patternUnits="userSpaceOnUse"
       width="6"
       height="6"
       x="0"
       y="0" />
    <pattern
       id="EMFhbasepattern-74"
       patternUnits="userSpaceOnUse"
       width="6"
       height="6"
       x="0"
       y="0" />
    <pattern
       id="EMFhbasepattern-656"
       patternUnits="userSpaceOnUse"
       width="6"
       height="6"
       x="0"
       y="0" />
    <pattern
       id="EMFhbasepattern-76"
       patternUnits="userSpaceOnUse"
       width="6"
       height="6"
       x="0"
       y="0" />
    <pattern
       id="EMFhbasepattern-1"
       patternUnits="userSpaceOnUse"
       width="6"
       height="6"
       x="0"
       y="0" />
    <pattern
       id="EMFhbasepattern-42"
       patternUnits="userSpaceOnUse"
       width="6"
       height="6"
       x="0"
       y="0" />
    <pattern
       id="EMFhbasepattern-73"
       patternUnits="userSpaceOnUse"
       width="6"
       height="6"
       x="0"
       y="0" />
    <pattern
       id="EMFhbasepattern-566"
       patternUnits="userSpaceOnUse"
       width="6"
       height="6"
       x="0"
       y="0" />
    <pattern
       id="EMFhbasepattern-71"
       patternUnits="userSpaceOnUse"
       width="6"
       height="6"
       x="0"
       y="0" />
    <pattern
       id="EMFhbasepattern-31"
       patternUnits="userSpaceOnUse"
       width="6"
       height="6"
       x="0"
       y="0" />
    <pattern
       id="EMFhbasepattern-60"
       patternUnits="userSpaceOnUse"
       width="6"
       height="6"
       x="0"
       y="0" />
    <pattern
       id="EMFhbasepattern-28"
       patternUnits="userSpaceOnUse"
       width="6"
       height="6"
       x="0"
       y="0" />
    <pattern
       id="EMFhbasepattern-02"
       patternUnits="userSpaceOnUse"
       width="6"
       height="6"
       x="0"
       y="0" />
    <pattern
       id="EMFhbasepattern-57"
       patternUnits="userSpaceOnUse"
       width="6"
       height="6"
       x="0"
       y="0" />
    <pattern
       id="EMFhbasepattern-50"
       patternUnits="userSpaceOnUse"
       width="6"
       height="6"
       x="0"
       y="0" />
    <pattern
       id="EMFhbasepattern-45"
       patternUnits="userSpaceOnUse"
       width="6"
       height="6"
       x="0"
       y="0" />
    <pattern
       id="EMFhbasepattern-33"
       patternUnits="userSpaceOnUse"
       width="6"
       height="6"
       x="0"
       y="0" />
    <pattern
       id="EMFhbasepattern-21"
       patternUnits="userSpaceOnUse"
       width="6"
       height="6"
       x="0"
       y="0" />
    <pattern
       id="EMFhbasepattern-818"
       patternUnits="userSpaceOnUse"
       width="6"
       height="6"
       x="0"
       y="0" />
    <pattern
       id="EMFhbasepattern-32"
       patternUnits="userSpaceOnUse"
       width="6"
       height="6"
       x="0"
       y="0" />
    <pattern
       id="EMFhbasepattern-38"
       patternUnits="userSpaceOnUse"
       width="6"
       height="6"
       x="0"
       y="0" />
    <pattern
       id="EMFhbasepattern-39"
       patternUnits="userSpaceOnUse"
       width="6"
       height="6"
       x="0"
       y="0" />
    <pattern
       id="EMFhbasepattern-86"
       patternUnits="userSpaceOnUse"
       width="6"
       height="6"
       x="0"
       y="0" />
    <pattern
       id="EMFhbasepattern-07"
       patternUnits="userSpaceOnUse"
       width="6"
       height="6"
       x="0"
       y="0" />
    <pattern
       id="EMFhbasepattern-524"
       patternUnits="userSpaceOnUse"
       width="6"
       height="6"
       x="0"
       y="0" />
    <pattern
       id="EMFhbasepattern-508"
       patternUnits="userSpaceOnUse"
       width="6"
       height="6"
       x="0"
       y="0" />
    <pattern
       id="EMFhbasepattern-217"
       patternUnits="userSpaceOnUse"
       width="6"
       height="6"
       x="0"
       y="0" />
    <pattern
       id="EMFhbasepattern-84"
       patternUnits="userSpaceOnUse"
       width="6"
       height="6"
       x="0"
       y="0" />
    <pattern
       id="EMFhbasepattern-96"
       patternUnits="userSpaceOnUse"
       width="6"
       height="6"
       x="0"
       y="0" />
    <pattern
       id="EMFhbasepattern-48"
       patternUnits="userSpaceOnUse"
       width="6"
       height="6"
       x="0"
       y="0" />
    <pattern
       id="EMFhbasepattern-23"
       patternUnits="userSpaceOnUse"
       width="6"
       height="6"
       x="0"
       y="0" />
    <pattern
       id="EMFhbasepattern-36"
       patternUnits="userSpaceOnUse"
       width="6"
       height="6"
       x="0"
       y="0" />
    <pattern
       id="EMFhbasepattern-900"
       patternUnits="userSpaceOnUse"
       width="6"
       height="6"
       x="0"
       y="0" />
    <pattern
       id="EMFhbasepattern-37"
       patternUnits="userSpaceOnUse"
       width="6"
       height="6"
       x="0"
       y="0" />
    <pattern
       id="EMFhbasepattern-11"
       patternUnits="userSpaceOnUse"
       width="6"
       height="6"
       x="0"
       y="0" />
    <pattern
       id="EMFhbasepattern-95"
       patternUnits="userSpaceOnUse"
       width="6"
       height="6"
       x="0"
       y="0" />
    <pattern
       id="EMFhbasepattern-10"
       patternUnits="userSpaceOnUse"
       width="6"
       height="6"
       x="0"
       y="0" />
    <pattern
       id="EMFhbasepattern-909"
       patternUnits="userSpaceOnUse"
       width="6"
       height="6"
       x="0"
       y="0" />
    <pattern
       id="EMFhbasepattern-06"
       patternUnits="userSpaceOnUse"
       width="6"
       height="6"
       x="0"
       y="0" />
    <pattern
       id="EMFhbasepattern-34"
       patternUnits="userSpaceOnUse"
       width="6"
       height="6"
       x="0"
       y="0" />
    <pattern
       id="EMFhbasepattern-41"
       patternUnits="userSpaceOnUse"
       width="6"
       height="6"
       x="0"
       y="0" />
    <pattern
       id="EMFhbasepattern-82"
       patternUnits="userSpaceOnUse"
       width="6"
       height="6"
       x="0"
       y="0" />
    <pattern
       id="EMFhbasepattern-94"
       patternUnits="userSpaceOnUse"
       width="6"
       height="6"
       x="0"
       y="0" />
    <pattern
       id="EMFhbasepattern-738"
       patternUnits="userSpaceOnUse"
       width="6"
       height="6"
       x="0"
       y="0" />
    <pattern
       id="EMFhbasepattern-19"
       patternUnits="userSpaceOnUse"
       width="6"
       height="6"
       x="0"
       y="0" />
    <pattern
       id="EMFhbasepattern-342"
       patternUnits="userSpaceOnUse"
       width="6"
       height="6"
       x="0"
       y="0" />
    <pattern
       id="EMFhbasepattern-77"
       patternUnits="userSpaceOnUse"
       width="6"
       height="6"
       x="0"
       y="0" />
    <pattern
       id="EMFhbasepattern-29"
       patternUnits="userSpaceOnUse"
       width="6"
       height="6"
       x="0"
       y="0" />
  </defs>
  <g
     inkscape:label="Calque 1"
     inkscape:groupmode="layer"
     id="layer1">
    <g
       id="g4128"
       transform="translate(-0.63104184,0.12620835)">
      <g
         id="g5578"
         transform="translate(0.08924235,0.08924306)">
        <g
           id="g7501"
           transform="translate(-0.06310417,0.94656242)">
          <g
             id="g9467"
             transform="translate(-0.08924275,-0.80318511)">
            <g
               id="g10302"
               transform="translate(0.31234979,-0.04462139)">
              <g
                 id="g11479"
                 transform="translate(-0.12620833,0.06310418)">
                <g
                   id="g11873"
                   transform="translate(-0.23575769,0.66462456)">
                  <g
                     id="g12382"
                     transform="translate(-121.98459,-82.267525)">
                    <g
                       id="g13305"
                       transform="matrix(0.13266609,0,0,0.13266609,114.63867,78.215696)">
                      <g
                         id="g17429"
                         transform="translate(0.90513437,5.6640979)">
                        <g
                           id="g18595"
                           transform="translate(-3.3634362,-8.7449387)">
                          <g
                             id="g21002"
                             transform="translate(1.7082278,-2.8204445)">
                            <g
                               id="g23814"
                               transform="translate(8.7253043,-1.1218249)">
                              <g
                                 id="g24838"
                                 transform="translate(11.143454,-0.85716864)">
                                <g
                                   id="g25315"
                                   transform="translate(-3.490122,2.4929446)">
                                <g
                                   id="g27220"
                                   transform="translate(2.4678888,1.2339445)">
                                <g
                                   id="g29753"
                                   transform="translate(1.4759287,-2.3737724)">
                                <g
                                   id="g30615"
                                   transform="translate(0.92006037,1.3687834)">
                                <g
                                   id="g31433"
                                   transform="translate(-2.4678886,-1.410222)">
                                <g
                                   id="g31731"
                                   transform="translate(1.0576664,-0.70511063)">
                                <g
                                   id="g33243"
                                   transform="matrix(1.0772948,0,0,1.0772948,-7.3729128,-3.1743014)">
                                <g
                                   id="g35254"
                                   transform="translate(-2.2135012,-0.92031205)">
                                <g
                                   id="g36749"
                                   transform="translate(-0.98178042,-2.7817105)">
                                <g
                                   id="g37297"
                                   transform="translate(-6.7755742,-3.5033798)">
                                <g
                                   id="g38955"
                                   transform="matrix(1.2171094,0,0,1.2171094,-23.105122,-18.212482)">
                                <g
                                   id="g39618"
                                   transform="translate(-0.26888273,-0.26888316)">
                                <g
                                   id="g40032"
                                   transform="translate(-1.90129,-3.042064)">
                                <g
                                   id="g40543"
                                   transform="translate(0.3802582,-2.0914191)">
                                <g
                                   id="g41372"
                                   transform="translate(1.9657652,-7.9304203)">
                                <g
                                   id="g43278"
                                   transform="translate(1.5210324,-0.38025789)">
                                <g
                                   id="g44210"
                                   transform="matrix(1.1578947,0,0,1.1578947,-18.904476,-21.776183)">
                                <g
                                   id="g44833"
                                   transform="matrix(1.1196819,0,0,1.1196819,-12.538538,-14.547543)">
                                <g
                                   id="g47597"
                                   transform="translate(3.1109352,-1.2443743)">
                                <g
                                   id="g48754"
                                   transform="translate(-2.9035392,-6.6366609)">
                                <g
                                   id="g234"
                                   transform="matrix(0.04089637,0,0,0.04089637,104.63967,119.67231)">
                                <g
                                   id="g2138"
                                   transform="translate(-86.211222,-40.569988)">
                                <g
                                   id="g2696"
                                   transform="translate(-124306.44,-9412.2373)">
                                <g
                                   id="g3765"
                                   transform="translate(25.356243,-50.712489)">
                                <g
                                   id="g4557"
                                   transform="translate(46.61688,-35.859142)">
                                <g
                                   id="g5244"
                                   transform="translate(7.1718407,14.343658)">
                                <g
                                   id="g5807"
                                   transform="translate(-5.1984397,-21.113724)">
                                <path
                                   style="fill:#6ad78e;stroke-width:3.00854"
                                   d="m 124504.81,10356.549 c -15.18,-8.412 -15.15,-8.142 -15.26,-163.878 l -0.11,-145.513 -8.27,1.971 c -4.56,1.083 -24.8,2.775 -45,3.76 -46.42,2.263 -80.75,-4.785 -119.4,-24.505 l -25.76,-13.142 -14.71,7.097 c -25.38,12.245 -50.72,17.566 -83.2,17.475 -47.53,-0.133 -87.19,-13.483 -123.68,-41.6295 -32.14,-24.7937 -51.22,-51.4953 -68.82,-96.3235 -17.92,-45.6514 -36.66,-69.1231 -78.01,-97.7078 -24.79,-17.1412 -45.8,-40.2136 -57.32,-62.977 -12.39,-24.4626 -16.87,-45.5274 -19.54,-91.9474 -3.07,-53.1679 -7.16,-67.0755 -31.63,-107.4694 -20.93,-34.5528 -26.03,-50.4379 -27.86,-86.7396 -1.8,-35.5668 2.85,-55.4506 21.77,-93.1062 19.64,-39.1107 22.43,-52.992 23.6,-117.4647 0.86,-47.6561 1.97,-58.5111 7.8,-76.5859 11.68,-36.1596 29.3,-66.3399 52.6,-90.0756 24.95,-25.4299 48.22,-40.1748 81.49,-51.655 21.02,-7.2515 28.58,-8.2954 60.15,-8.3071 32.86,-0.012 38.66,0.8616 64.68,9.7545 38.21,13.0579 67.55,31.9328 97.89,62.961 l 25.12,25.6908 21.98,-22.3209 c 26.52,-26.9242 38.53,-46.7022 53.6,-88.2175 14.65,-40.3413 26.18,-61.7694 48.11,-89.3639 33.16,-41.7143 83.89,-75.3635 133.88,-88.7911 28.57,-7.6747 88.22,-7.8286 115.83,-0.2988 39.12,10.6692 77.87,32.4571 107.93,60.6866 33.39,31.3616 55.81,66.9337 74.03,117.42 15.98,44.3088 33.26,71.0983 63.72,98.7771 l 12.62,11.4736 20.52,-21.6066 c 49.75,-52.3671 102.36,-76.1581 167.95,-75.9347 27.27,0.093 37.32,1.4901 57.16,7.9432 52.96,17.2325 95.66,54.4971 120.07,104.7996 19,39.1698 23.41,60.8494 23.14,113.7824 -0.3,56.7671 2.82,72.5315 22.73,114.9995 21.41,45.6677 27.61,74.776 22.86,107.3547 -4.35,29.8551 -12.33,50.6649 -30.36,79.2141 -21.83,34.585 -27.7,55.4863 -30.59,109.097 -1.8,33.2906 -4.09,49.8 -8.75,62.9388 -12.95,36.5564 -33.56,62.5126 -69.77,87.8871 -41.1,28.8026 -57.28,50.9527 -82.11,112.4736 -15.53,38.4551 -51.77,77.503 -91.67,98.7716 -54.1,28.833 -128.43,30.243 -180.98,3.434 l -10.67,-5.44 -26.97,13.312 c -41.73,20.591 -69.41,26.349 -117.11,24.361 -21.58,-0.899 -42.29,-2.578 -46.01,-3.731 l -6.77,-2.095 v 141.849 c 0,152.274 -0.37,156.313 -15.39,166.835 -8.89,6.221 -54.67,6.716 -65.51,0.707 z"
                                   id="path5815" />
                                <path
                                   style="fill:#27cc67;stroke-width:3.00854"
                                   d="m 124507.49,10356.901 c -4.14,-2.067 -9.89,-8.478 -12.78,-14.246 -4.79,-9.545 -5.26,-23.356 -5.27,-153.468 v -142.98 l -31.52,4.452 c -25.97,3.667 -36.52,3.821 -59.87,0.873 -30.99,-3.915 -63.85,-14.42 -88.27,-28.222 l -15.7,-8.871 -29.43,11.237 c -25.73,9.824 -33.48,11.399 -61.65,12.526 -59.12,2.366 -106.07,-14.611 -147.32,-53.2612 -25.21,-23.6288 -37.28,-42.1984 -54.31,-83.563 -19.72,-47.897 -34.26,-66.7587 -71.68,-92.986 -38.72,-27.1427 -59.86,-53.5853 -74.15,-92.7608 -2.57,-7.049 -5.55,-31.4056 -7.02,-57.3766 -3.09,-54.6788 -8.33,-73.4064 -31.57,-112.7042 -21.28,-35.9954 -28.82,-58.1532 -30.73,-90.372 -1.93,-32.5549 3.47,-54.7076 23.12,-94.7689 20.73,-42.2549 22.24,-49.5469 22.73,-109.8116 0.48,-59.2794 4.33,-80.3848 21.16,-115.917 44.16,-93.231 145.04,-138.0769 241.32,-107.2874 39.11,12.5047 66.61,29.685 97.95,61.1983 14.57,14.6421 27.83,26.622 29.48,26.622 5.53,0 43.22,-41.01 53.44,-58.1615 5.57,-9.3359 16.59,-33.9323 24.48,-54.6586 7.9,-20.7264 18.91,-45.2072 24.48,-54.4018 42.26,-69.8102 108.46,-114.2338 185.67,-124.609 80.13,-10.7672 168.33,28.0961 220.31,97.0744 21.42,28.4295 31.05,46.8993 46.53,89.2548 6.42,17.5729 17.76,40.7995 25.77,52.7739 13.93,20.8274 44.44,52.7278 50.42,52.7278 1.65,0 9.94,-7.9961 18.44,-17.7691 31.73,-36.476 79.05,-64.851 124.17,-74.4605 29.26,-6.2305 81.17,-3.976 105.31,4.5735 64.45,22.8265 109.52,70.8614 131.64,140.3055 5.58,17.5157 7.08,31.4385 8.95,82.7347 1.23,33.9213 3.92,67.0904 5.97,73.7092 2.05,6.6187 9.71,23.9389 17.02,38.4891 18.67,37.1703 23.18,56.9756 21.37,93.8674 -1.71,35.0137 -7.4,52.3541 -28.15,85.8451 -23.56,38.0058 -28.57,55.0105 -31.46,106.7203 -4.58,81.7682 -19.75,111.4212 -80.19,156.6877 -40.15,30.0691 -57.67,52.6316 -74.41,95.8321 -22.65,58.4777 -55.43,94.66 -108.03,119.2764 -49.92,23.361 -117.51,23.779 -165.57,1.025 l -16.84,-7.972 -23.5,12.228 c -44.79,23.303 -95.8,31.033 -154.79,23.46 l -20.31,-2.607 -0.1,147.017 c -0.1,160.256 0.55,154.214 -17.04,163.211 -8.85,4.528 -48.74,4.195 -58.11,-0.486 z"
                                   id="path5813" />
                                <path
                                   style="fill:#de8787;stroke-width:3.00854"
                                   d="m 124508.48,10356.547 c -5.25,-2.384 -11,-7.064 -12.79,-10.399 -2.16,-4.046 -3.38,-50.952 -3.65,-140.894 -0.22,-74.157 -1.23,-177.198 -2.25,-228.9816 l -1.86,-94.1516 -81.17,-42.8029 c -74.12,-39.0875 -81.76,-43.8418 -87.95,-54.771 -8.9,-15.7151 -8.94,-33.6171 -0.11,-46.5969 11.2,-16.4547 21.51,-22.3208 39.19,-22.3003 16.13,0.018 25.38,4.2374 109.74,50.0239 l 21.81,11.8395 v -65.6464 -65.6464 l -79.17,-41.3778 c -43.55,-22.7578 -82.02,-44.4192 -85.51,-48.1366 -27.73,-29.6078 -7.05,-77.4594 33.49,-77.4594 12.88,0 21.96,3.8088 71.69,30.0854 31.31,16.5469 57.56,30.0853 58.32,30.0853 0.75,0 1.01,-29.2015 0.57,-64.8923 l -0.82,-64.8922 -81.19,-42.7767 c -74.06,-39.0138 -81.8,-43.8251 -87.95,-54.697 -8.88,-15.6664 -8.91,-33.5851 -0.1,-46.5492 11.21,-16.4661 21.8,-22.5337 39.34,-22.5311 13.95,0 21.53,3.1677 72.73,30.3418 l 57.16,30.3394 1.51,-80.5222 c 1.41,-75.7154 1.88,-81.0289 7.8,-89.0082 16.77,-22.6102 44.02,-28.7901 64.78,-14.6868 19.68,13.3706 20.68,18.5725 20.68,106.8188 v 78.6489 l 61.22,-31.7191 c 64.72,-33.5375 72.27,-35.7589 91.09,-26.8247 27.73,13.1578 35.02,48.6894 14.87,72.4819 -4.18,4.9392 -39.88,25.614 -87.13,50.467 l -80.05,42.1001 v 63.9508 c 0,35.173 0.81,63.9508 1.8,63.9508 0.99,0 28.17,-13.6971 60.41,-30.438 57.02,-29.6091 59.06,-30.401 75.02,-29.0777 13.58,1.1265 18.21,3.1084 26.89,11.5291 22.54,21.841 18.9,56.3853 -7.67,72.9386 -5.79,3.6074 -43.02,23.6791 -82.74,44.6036 l -72.2,38.0446 -0.81,65.2439 -0.82,65.2438 61.33,-31.7964 c 64.81,-33.6021 72.31,-35.8186 91.1,-26.9019 27.73,13.1549 35.01,48.6081 14.89,72.5107 -4.21,5.011 -39.33,25.3645 -87.11,50.4864 l -80.05,42.0908 v 227.8493 227.849 l -8.52,9.542 c -7.99,8.946 -10.01,9.61 -32.34,10.644 -16.39,0.759 -26.79,-0.248 -33.36,-3.232 z m -363.52,-323.648 c -28.54,-7.594 -41.57,-13.399 -65.2,-29.056 -35.88,-23.7695 -62.11,-58.4401 -78.5,-103.7611 -14.71,-40.696 -35.78,-67.4113 -74.74,-94.7784 -36.89,-25.9163 -56.12,-50.1285 -69.39,-87.3825 -4.62,-12.9806 -6.85,-29.2913 -8.59,-62.6751 -2.79,-53.6113 -8.6,-74.4125 -30.5,-109.097 -38.32,-60.675 -42.17,-115.2431 -12.42,-175.9997 25.05,-51.1577 25.78,-54.3326 26.73,-116.5429 1,-65.1049 5.64,-88.0289 25.75,-127.2212 9.66,-18.8352 18.81,-30.8054 38.45,-50.3483 40.2,-39.9829 81.05,-56.9602 137.28,-57.0519 61.78,-0.1008 117.26,25.5201 164.05,75.7586 l 19.82,21.2809 -18.32,18.7187 c -31.45,32.1389 -49.58,69.4448 -55.75,114.6877 -3.2,23.4888 -2.73,30.6867 5.77,89.1062 4.17,28.6083 0.13,63.3134 -10.94,94.0772 -4.17,11.5828 -11.59,32.3108 -16.49,46.062 -11.81,33.13 -14.2,65.6833 -7.31,99.6983 5.81,28.6711 15.46,50.5972 38.6,87.7203 26.09,41.856 29.82,56.6558 32.46,129.048 1.8,49.5549 3.53,66.093 8.77,84.1567 13.27,45.7432 45.53,94.6796 79.99,121.3415 l 16.26,12.582 -13.73,6.978 c -35.85,18.22 -91.27,23.549 -132.05,12.698 z m 685.49,0.161 c -11.84,-3.212 -26.96,-8.612 -33.6,-12.001 l -12.08,-6.161 30.73,-30.9036 c 33.14,-33.3265 49.35,-59.2888 61.58,-98.5955 8.77,-28.1702 10.19,-40.7168 10.87,-96.2458 0.57,-45.6717 1.3,-51.6808 9.11,-74.681 4.66,-13.7571 13.01,-32.3724 18.55,-41.3674 5.54,-8.995 14.75,-23.9695 20.48,-33.2766 28.68,-46.6225 34.7,-114.1087 14.79,-165.7211 -21.79,-56.4805 -25.84,-71.3004 -27.36,-100.0711 -1.03,-19.6412 0,-36.59 3.33,-53.8221 13.63,-70.7871 -3.15,-132.3843 -49.6,-182.1219 l -21.37,-22.8834 14.98,-16.3845 c 32.44,-35.5013 61.25,-54.7121 104.65,-69.7961 21.18,-7.3643 28.28,-8.3155 62.99,-8.4414 33.36,-0.121 42.2,0.9007 60.17,6.9464 54.92,18.4865 98.1,57.404 121.88,109.8548 15.96,35.1786 19.1,52.9035 19.56,110.2015 0.48,60.6617 2.69,70.9127 25.5,118.4039 17.5,36.4513 22.52,59.5369 20.25,93.0718 -2.11,31.1347 -9.49,52.0728 -30.67,87.0358 -23.55,38.8803 -31.44,69.0818 -31.64,121.1793 -0.23,57.9916 -23.93,99.5936 -79.62,139.7978 -39.86,28.7791 -53.56,46.9084 -74.02,97.9346 -24.95,62.2484 -68.83,104.8156 -127.45,123.6396 -33.68,10.814 -81.48,12.696 -112.01,4.408 z"
                                   id="path5811" />
                                <path
                                   style="fill:#00a32b;stroke-width:3.00854"
                                   d="m 124149.55,10034.134 c -26.84,-5.819 -64.1,-24.348 -86.57,-43.0453 -23.33,-19.42 -45.97,-51.2074 -56.68,-79.5785 -19.7,-52.2171 -39.87,-78.8157 -82.29,-108.5382 -53.28,-37.3374 -71.18,-72.4465 -75.32,-147.7261 -3.01,-54.7175 -8.37,-73.55 -31.64,-111.3159 -21.94,-35.5985 -29.83,-61.1084 -29.77,-96.2731 0.1,-32.316 5.42,-52.2945 24.01,-89.3095 18.56,-36.9545 22.19,-55.061 22.24,-111.0291 0,-36.6892 1.35,-52.0855 6.02,-70.7006 17.86,-71.1165 66.69,-125.1675 134.6,-149.0048 19.64,-6.8945 66.99,-10.7225 89.87,-7.2653 l 14.75,2.2307 -18.39,6.6778 c -50.73,18.4254 -89.52,54.2499 -113.85,105.1709 -17.48,36.587 -20.71,54.0552 -21.18,114.6665 -0.48,61.3836 -3.28,73.8387 -27.04,120.4138 -15.53,30.43 -20.98,56.4383 -18.83,89.7638 1.93,29.7028 10.65,53.9648 32.01,89.0253 21.69,35.6099 27.17,55.595 30.15,109.958 1.94,35.3868 3.95,49.0246 9.33,63.1793 13.61,35.8421 35.24,61.5069 75.58,89.6766 34.89,24.3657 46.58,41.1028 75.01,107.3825 21.67,50.4944 69.41,94.2882 121.62,111.5572 l 12.04,3.98 -9.03,2.046 c -15.47,3.507 -56.27,2.472 -76.64,-1.942 z m 684.37,-0.931 c -11.59,-2.919 -27.8,-8.323 -36.04,-12.008 l -14.98,-6.701 10.46,-8.136 c 33.13,-25.747 54.08,-51.688 72.53,-89.8033 17.28,-35.7041 23.59,-69.6716 23.41,-125.9247 -0.21,-63.2001 7.1,-87.637 42.39,-141.6918 22.8,-34.9262 31.03,-63.4546 31.16,-108.0167 0.1,-33.5421 -0.6,-38.0227 -9.85,-63.1793 -21.65,-58.875 -24.55,-68.4707 -27.67,-91.6747 -2.5,-18.5549 -2.31,-30.0957 0.81,-50.4321 2.23,-14.5042 4.02,-43.9712 3.99,-65.4822 0,-34.7331 -0.95,-41.581 -8.06,-61.1774 -11.03,-30.4263 -24.63,-52.0842 -47.08,-75.0246 l -19.1,-19.5107 22.11,-22.4249 c 12.16,-12.3337 27.73,-26.3496 34.6,-31.1466 l 12.49,-8.7218 18.78,20.0783 c 63.8,68.1944 91.66,159.7105 76.59,251.5734 -7.04,42.9015 -5.21,59.0959 11.44,101.2939 17.73,44.9592 23.16,72.3479 23.08,116.454 -0.11,60.0079 -14.63,108.9735 -46.88,158.1294 -23.79,36.2595 -28.27,53.3051 -28.27,107.4853 0,48.0856 -4.38,78.5576 -16.33,113.7058 -10.15,29.8412 -31.85,70.6035 -50.78,95.4027 l -16.08,21.06 -20.83,0.591 c -11.95,0.338 -29.82,-1.675 -41.89,-4.718 z"
                                   id="path5809" />
                                </g>
                                </g>
                                </g>
                                </g>
                                </g>
                                </g>
                                </g>
                                </g>
                                </g>
                                </g>
                                </g>
                                </g>
                                </g>
                                </g>
                                </g>
                                </g>
                                </g>
                                </g>
                                </g>
                                </g>
                                </g>
                                </g>
                                </g>
                                </g>
                                </g>
                                </g>
                                </g>
                              </g>
                            </g>
                          </g>
                        </g>
                      </g>
                    </g>
                  </g>
                </g>
              </g>
            </g>
          </g>
        </g>
      </g>
    </g>
  </g>
</svg>
