<?xml version="1.0" encoding="UTF-8" standalone="no"?>
<!-- Created with Inkscape (http://www.inkscape.org/) -->

<svg
   width="64"
   height="64"
   viewBox="0 0 16.933333 16.933334"
   version="1.1"
   id="svg5"
   inkscape:version="1.1.1 (3bf5ae0d25, 2021-09-20)"
   sodipodi:docname="bichiques.svg"
   xmlns:inkscape="http://www.inkscape.org/namespaces/inkscape"
   xmlns:sodipodi="http://sodipodi.sourceforge.net/DTD/sodipodi-0.dtd"
   xmlns="http://www.w3.org/2000/svg"
   xmlns:svg="http://www.w3.org/2000/svg">
  <sodipodi:namedview
     id="namedview7"
     pagecolor="#ffffff"
     bordercolor="#666666"
     borderopacity="1.0"
     inkscape:pageshadow="2"
     inkscape:pageopacity="0.0"
     inkscape:pagecheckerboard="0"
     inkscape:document-units="mm"
     showgrid="false"
     units="px"
     inkscape:zoom="5.6568543"
     inkscape:cx="91.305162"
     inkscape:cy="33.67596"
     inkscape:window-width="1920"
     inkscape:window-height="1017"
     inkscape:window-x="1912"
     inkscape:window-y="-8"
     inkscape:window-maximized="1"
     inkscape:current-layer="g6945" />
  <defs
     id="defs2">
    <pattern
       id="EMFhbasepattern"
       patternUnits="userSpaceOnUse"
       width="6"
       height="6"
       x="0"
       y="0" />
    <pattern
       id="EMFhbasepattern-5"
       patternUnits="userSpaceOnUse"
       width="6"
       height="6"
       x="0"
       y="0" />
    <pattern
       id="EMFhbasepattern-56"
       patternUnits="userSpaceOnUse"
       width="6"
       height="6"
       x="0"
       y="0" />
    <pattern
       id="EMFhbasepattern-6"
       patternUnits="userSpaceOnUse"
       width="6"
       height="6"
       x="0"
       y="0" />
    <pattern
       id="EMFhbasepattern-62"
       patternUnits="userSpaceOnUse"
       width="6"
       height="6"
       x="0"
       y="0" />
    <pattern
       id="EMFhbasepattern-8"
       patternUnits="userSpaceOnUse"
       width="6"
       height="6"
       x="0"
       y="0" />
    <pattern
       id="EMFhbasepattern-81"
       patternUnits="userSpaceOnUse"
       width="6"
       height="6"
       x="0"
       y="0" />
    <pattern
       id="EMFhbasepattern-9"
       patternUnits="userSpaceOnUse"
       width="6"
       height="6"
       x="0"
       y="0" />
    <pattern
       id="EMFhbasepattern-52"
       patternUnits="userSpaceOnUse"
       width="6"
       height="6"
       x="0"
       y="0" />
    <pattern
       id="EMFhbasepattern-0"
       patternUnits="userSpaceOnUse"
       width="6"
       height="6"
       x="0"
       y="0" />
    <pattern
       id="EMFhbasepattern-7"
       patternUnits="userSpaceOnUse"
       width="6"
       height="6"
       x="0"
       y="0" />
    <pattern
       id="EMFhbasepattern-65"
       patternUnits="userSpaceOnUse"
       width="6"
       height="6"
       x="0"
       y="0" />
    <pattern
       id="EMFhbasepattern-3"
       patternUnits="userSpaceOnUse"
       width="6"
       height="6"
       x="0"
       y="0" />
    <pattern
       id="EMFhbasepattern-90"
       patternUnits="userSpaceOnUse"
       width="6"
       height="6"
       x="0"
       y="0" />
    <pattern
       id="EMFhbasepattern-4"
       patternUnits="userSpaceOnUse"
       width="6"
       height="6"
       x="0"
       y="0" />
    <pattern
       id="EMFhbasepattern-2"
       patternUnits="userSpaceOnUse"
       width="6"
       height="6"
       x="0"
       y="0" />
    <pattern
       id="EMFhbasepattern-40"
       patternUnits="userSpaceOnUse"
       width="6"
       height="6"
       x="0"
       y="0" />
    <pattern
       id="EMFhbasepattern-74"
       patternUnits="userSpaceOnUse"
       width="6"
       height="6"
       x="0"
       y="0" />
    <pattern
       id="EMFhbasepattern-656"
       patternUnits="userSpaceOnUse"
       width="6"
       height="6"
       x="0"
       y="0" />
    <pattern
       id="EMFhbasepattern-76"
       patternUnits="userSpaceOnUse"
       width="6"
       height="6"
       x="0"
       y="0" />
    <pattern
       id="EMFhbasepattern-1"
       patternUnits="userSpaceOnUse"
       width="6"
       height="6"
       x="0"
       y="0" />
    <pattern
       id="EMFhbasepattern-42"
       patternUnits="userSpaceOnUse"
       width="6"
       height="6"
       x="0"
       y="0" />
    <pattern
       id="EMFhbasepattern-73"
       patternUnits="userSpaceOnUse"
       width="6"
       height="6"
       x="0"
       y="0" />
    <pattern
       id="EMFhbasepattern-566"
       patternUnits="userSpaceOnUse"
       width="6"
       height="6"
       x="0"
       y="0" />
    <pattern
       id="EMFhbasepattern-71"
       patternUnits="userSpaceOnUse"
       width="6"
       height="6"
       x="0"
       y="0" />
    <pattern
       id="EMFhbasepattern-31"
       patternUnits="userSpaceOnUse"
       width="6"
       height="6"
       x="0"
       y="0" />
    <pattern
       id="EMFhbasepattern-60"
       patternUnits="userSpaceOnUse"
       width="6"
       height="6"
       x="0"
       y="0" />
    <pattern
       id="EMFhbasepattern-28"
       patternUnits="userSpaceOnUse"
       width="6"
       height="6"
       x="0"
       y="0" />
    <pattern
       id="EMFhbasepattern-02"
       patternUnits="userSpaceOnUse"
       width="6"
       height="6"
       x="0"
       y="0" />
    <pattern
       id="EMFhbasepattern-57"
       patternUnits="userSpaceOnUse"
       width="6"
       height="6"
       x="0"
       y="0" />
    <pattern
       id="EMFhbasepattern-50"
       patternUnits="userSpaceOnUse"
       width="6"
       height="6"
       x="0"
       y="0" />
    <pattern
       id="EMFhbasepattern-45"
       patternUnits="userSpaceOnUse"
       width="6"
       height="6"
       x="0"
       y="0" />
    <pattern
       id="EMFhbasepattern-33"
       patternUnits="userSpaceOnUse"
       width="6"
       height="6"
       x="0"
       y="0" />
    <pattern
       id="EMFhbasepattern-21"
       patternUnits="userSpaceOnUse"
       width="6"
       height="6"
       x="0"
       y="0" />
    <pattern
       id="EMFhbasepattern-818"
       patternUnits="userSpaceOnUse"
       width="6"
       height="6"
       x="0"
       y="0" />
    <pattern
       id="EMFhbasepattern-32"
       patternUnits="userSpaceOnUse"
       width="6"
       height="6"
       x="0"
       y="0" />
    <pattern
       id="EMFhbasepattern-38"
       patternUnits="userSpaceOnUse"
       width="6"
       height="6"
       x="0"
       y="0" />
    <pattern
       id="EMFhbasepattern-39"
       patternUnits="userSpaceOnUse"
       width="6"
       height="6"
       x="0"
       y="0" />
    <pattern
       id="EMFhbasepattern-86"
       patternUnits="userSpaceOnUse"
       width="6"
       height="6"
       x="0"
       y="0" />
    <pattern
       id="EMFhbasepattern-07"
       patternUnits="userSpaceOnUse"
       width="6"
       height="6"
       x="0"
       y="0" />
    <pattern
       id="EMFhbasepattern-524"
       patternUnits="userSpaceOnUse"
       width="6"
       height="6"
       x="0"
       y="0" />
    <pattern
       id="EMFhbasepattern-508"
       patternUnits="userSpaceOnUse"
       width="6"
       height="6"
       x="0"
       y="0" />
    <pattern
       id="EMFhbasepattern-217"
       patternUnits="userSpaceOnUse"
       width="6"
       height="6"
       x="0"
       y="0" />
    <pattern
       id="EMFhbasepattern-84"
       patternUnits="userSpaceOnUse"
       width="6"
       height="6"
       x="0"
       y="0" />
    <pattern
       id="EMFhbasepattern-96"
       patternUnits="userSpaceOnUse"
       width="6"
       height="6"
       x="0"
       y="0" />
    <pattern
       id="EMFhbasepattern-48"
       patternUnits="userSpaceOnUse"
       width="6"
       height="6"
       x="0"
       y="0" />
    <pattern
       id="EMFhbasepattern-23"
       patternUnits="userSpaceOnUse"
       width="6"
       height="6"
       x="0"
       y="0" />
    <pattern
       id="EMFhbasepattern-36"
       patternUnits="userSpaceOnUse"
       width="6"
       height="6"
       x="0"
       y="0" />
    <pattern
       id="EMFhbasepattern-900"
       patternUnits="userSpaceOnUse"
       width="6"
       height="6"
       x="0"
       y="0" />
    <pattern
       id="EMFhbasepattern-37"
       patternUnits="userSpaceOnUse"
       width="6"
       height="6"
       x="0"
       y="0" />
    <pattern
       id="EMFhbasepattern-11"
       patternUnits="userSpaceOnUse"
       width="6"
       height="6"
       x="0"
       y="0" />
    <pattern
       id="EMFhbasepattern-95"
       patternUnits="userSpaceOnUse"
       width="6"
       height="6"
       x="0"
       y="0" />
    <pattern
       id="EMFhbasepattern-10"
       patternUnits="userSpaceOnUse"
       width="6"
       height="6"
       x="0"
       y="0" />
    <pattern
       id="EMFhbasepattern-909"
       patternUnits="userSpaceOnUse"
       width="6"
       height="6"
       x="0"
       y="0" />
    <pattern
       id="EMFhbasepattern-06"
       patternUnits="userSpaceOnUse"
       width="6"
       height="6"
       x="0"
       y="0" />
    <pattern
       id="EMFhbasepattern-34"
       patternUnits="userSpaceOnUse"
       width="6"
       height="6"
       x="0"
       y="0" />
    <pattern
       id="EMFhbasepattern-41"
       patternUnits="userSpaceOnUse"
       width="6"
       height="6"
       x="0"
       y="0" />
    <pattern
       id="EMFhbasepattern-82"
       patternUnits="userSpaceOnUse"
       width="6"
       height="6"
       x="0"
       y="0" />
    <pattern
       id="EMFhbasepattern-94"
       patternUnits="userSpaceOnUse"
       width="6"
       height="6"
       x="0"
       y="0" />
    <pattern
       id="EMFhbasepattern-738"
       patternUnits="userSpaceOnUse"
       width="6"
       height="6"
       x="0"
       y="0" />
    <pattern
       id="EMFhbasepattern-19"
       patternUnits="userSpaceOnUse"
       width="6"
       height="6"
       x="0"
       y="0" />
    <pattern
       id="EMFhbasepattern-342"
       patternUnits="userSpaceOnUse"
       width="6"
       height="6"
       x="0"
       y="0" />
    <pattern
       id="EMFhbasepattern-77"
       patternUnits="userSpaceOnUse"
       width="6"
       height="6"
       x="0"
       y="0" />
    <pattern
       id="EMFhbasepattern-29"
       patternUnits="userSpaceOnUse"
       width="6"
       height="6"
       x="0"
       y="0" />
    <pattern
       id="EMFhbasepattern-219"
       patternUnits="userSpaceOnUse"
       width="6"
       height="6"
       x="0"
       y="0" />
    <pattern
       id="EMFhbasepattern-105"
       patternUnits="userSpaceOnUse"
       width="6"
       height="6"
       x="0"
       y="0" />
  </defs>
  <g
     inkscape:label="Calque 1"
     inkscape:groupmode="layer"
     id="layer1">
    <g
       id="g4128"
       transform="translate(-0.63104184,0.12620835)">
      <g
         id="g5578"
         transform="translate(0.08924235,0.08924306)">
        <g
           id="g7501"
           transform="translate(-0.06310417,0.94656242)">
          <g
             id="g9467"
             transform="translate(-0.08924275,-0.80318511)">
            <g
               id="g10302"
               transform="translate(0.31234979,-0.04462139)">
              <g
                 id="g11479"
                 transform="translate(-0.12620833,0.06310418)">
                <g
                   id="g11873"
                   transform="translate(-0.23575769,0.66462456)">
                  <g
                     id="g12382"
                     transform="translate(-121.98459,-82.267525)">
                    <g
                       id="g13305"
                       transform="matrix(0.13266609,0,0,0.13266609,114.63867,78.215696)">
                      <g
                         id="g17429"
                         transform="translate(0.90513437,5.6640979)">
                        <g
                           id="g18595"
                           transform="translate(-3.3634362,-8.7449387)">
                          <g
                             id="g21002"
                             transform="translate(1.7082278,-2.8204445)">
                            <g
                               id="g23814"
                               transform="translate(8.7253043,-1.1218249)">
                              <g
                                 id="g24838"
                                 transform="translate(11.143454,-0.85716864)">
                                <g
                                   id="g25315"
                                   transform="translate(-3.490122,2.4929446)">
                                <g
                                   id="g27220"
                                   transform="translate(2.4678888,1.2339445)">
                                <g
                                   id="g29753"
                                   transform="translate(1.4759287,-2.3737724)">
                                <g
                                   id="g30615"
                                   transform="translate(0.92006037,1.3687834)">
                                <g
                                   id="g31433"
                                   transform="translate(-2.4678886,-1.410222)">
                                <g
                                   id="g31731"
                                   transform="translate(1.0576664,-0.70511063)">
                                <g
                                   id="g33243"
                                   transform="matrix(1.0772948,0,0,1.0772948,-7.3729128,-3.1743014)">
                                <g
                                   id="g35254"
                                   transform="translate(-2.2135012,-0.92031205)">
                                <g
                                   id="g36749"
                                   transform="translate(-0.98178042,-2.7817105)">
                                <g
                                   id="g37297"
                                   transform="translate(-6.7755742,-3.5033798)">
                                <g
                                   id="g38955"
                                   transform="matrix(1.2171094,0,0,1.2171094,-23.105122,-18.212482)">
                                <g
                                   id="g39618"
                                   transform="translate(-0.26888273,-0.26888316)">
                                <g
                                   id="g40032"
                                   transform="translate(-1.90129,-3.042064)">
                                <g
                                   id="g40543"
                                   transform="translate(0.3802582,-2.0914191)">
                                <g
                                   id="g41372"
                                   transform="translate(1.9657652,-7.9304203)">
                                <g
                                   id="g43278"
                                   transform="translate(1.5210324,-0.38025789)">
                                <g
                                   id="g44210"
                                   transform="matrix(1.1578947,0,0,1.1578947,-18.904476,-21.776183)">
                                <g
                                   id="g44833"
                                   transform="matrix(1.1196819,0,0,1.1196819,-12.538538,-14.547543)">
                                <g
                                   id="g47597"
                                   transform="translate(3.1109352,-1.2443743)">
                                <g
                                   id="g48754"
                                   transform="translate(-2.9035392,-6.6366609)">
                                <g
                                   id="g234"
                                   transform="matrix(0.04089637,0,0,0.04089637,104.63967,119.67231)">
                                <g
                                   id="g2138"
                                   transform="translate(-86.211222,-40.569988)">
                                <g
                                   id="g2696"
                                   transform="translate(-124306.44,-9412.2373)">
                                <g
                                   id="g3765"
                                   transform="translate(25.356243,-50.712489)">
                                <g
                                   id="g4557"
                                   transform="translate(46.61688,-35.859142)">
                                <g
                                   id="g5244"
                                   transform="translate(7.1718407,14.343658)">
                                <g
                                   id="g5807"
                                   transform="translate(-5.1984397,-21.113724)">
                                <g
                                   id="g6945"
                                   transform="translate(-10.142522,-243.41993)">
                                <g
                                   id="g10482"
                                   transform="translate(-45.641236,10.142493)">
                                <path
                                   style="fill:#f8f8f8;stroke-width:3.9594"
                                   d="m 124544.97,10410.372 c -16.33,-2.98 -44.75,-10.393 -63.16,-16.472 -29.72,-9.817 -33.88,-12.382 -37.18,-22.932 -2.04,-6.533 -3.85,-43.949 -4.01,-83.147 -0.25,-62.016 0.91,-76.153 8.98,-108.883 43.71,-177.354 147.42,-275.731 344.8,-327.0711 54.28,-14.1209 125.52,-25.0607 180.17,-27.6709 26.13,-1.2481 49.51,-2.8656 51.94,-3.5943 2.76,-0.8248 -0.23,-10.7332 -7.91,-26.2452 -9.89,-19.9397 -12.64,-31.0289 -13.75,-55.486 -2.26,-49.3769 15.24,-89.0055 53.41,-120.962 l 19.72,-16.5159 34.75,43.1709 c 42.22,52.4614 50.87,72.4091 50.8,117.1358 l -0.1,32.1531 22.79,2.0671 c 27.75,2.516 52.84,13.1454 73.29,31.0502 17.41,15.2429 73.33,81.2118 73.33,86.506 0,5.4178 -28.28,26.489 -51.87,38.6564 -19.28,9.9356 -25.27,11.0042 -60.97,10.8739 -45.4,-0.1659 -65.35,-6.9845 -92.69,-31.6791 -11.21,-10.1278 -16.64,-12.9242 -17.85,-9.1857 -0.96,2.9561 -7.97,28.711 -15.59,57.233 -16.93,63.4238 -43.64,132.4818 -72.48,187.4428 -91.23,173.812 -211.1,250.448 -389.98,249.329 -31.24,-0.195 -70.15,-2.794 -86.49,-5.774 z m -504.94,-434.3535 c -43.71,-52.9958 -50.49,-67.7514 -52.54,-114.3139 l -1.67,-38.0956 -22.33,-2.3037 c -36.56,-3.7726 -68.68,-22.9076 -100.85,-60.084 -15.07,-17.4213 -32.02,-37.6958 -37.66,-45.0544 l -10.26,-13.3793 15.71,-13.3914 c 28.8,-24.5511 55.27,-34.9209 92.92,-36.4057 39.36,-1.5522 67.99,7.1029 97.17,29.3783 9.75,7.4374 18.4,13.5225 19.22,13.5225 0.83,0 2.74,-6.561 4.24,-14.5799 10.19,-54.2879 48.81,-162.4567 80.34,-224.9635 37.81,-74.9881 97.2,-148.9403 149.72,-186.4331 102.94,-73.491 256.38,-91.558 397.9,-46.8512 l 30.95,9.7791 3.2,18.7068 c 1.76,10.2887 3.08,48.1053 2.93,84.0368 -0.22,53.7888 -1.84,71.7807 -9.21,101.8447 -40.84,166.6711 -130.09,259.3561 -303.31,314.9917 -70.79,22.7339 -188.81,42.4535 -254.08,42.4535 h -24.49 l 12.58,24.3945 c 11.7,22.6703 12.58,27.2177 12.58,64.3401 0,35.2035 -1.27,42.6764 -10.77,62.9471 -9.78,20.859 -50.05,66.0851 -58.85,66.0851 -1.78,0 -16.83,-16.481 -33.44,-36.6245 z"
                                   id="path10498" />
                                <path
                                   style="fill:#ebebeb;stroke-width:3.9594"
                                   d="m 124584.57,10414.696 c -3.27,-0.792 -19.3,-3.59 -35.64,-6.216 -30.34,-4.88 -90.49,-22.019 -96.23,-27.418 -1.75,-1.648 23.5,-24.763 56.11,-51.365 32.61,-26.602 60.32,-51.062 61.58,-54.354 1.27,-3.293 2.3,-11.855 2.3,-19.026 0,-7.172 1.12,-18.63 2.48,-25.463 l 2.49,-12.424 30.18,2.518 30.18,2.517 36.4,-29.193 c 20.01,-16.056 36.49,-31.404 36.62,-34.108 0.35,-7.603 -46.52,-53.211 -73.02,-71.045 -30.96,-20.837 -56.34,-33.477 -93.97,-46.81 -19.49,-6.906 -29.69,-12.468 -28.06,-15.307 9.6,-16.734 45.58,-56.3533 65.99,-72.6623 34.6,-27.6502 44.09,-33.8049 80.15,-51.9821 101.33,-51.0769 214.25,-74.8815 373.09,-78.6499 l 92.32,-2.1904 15.95,-13.3205 c 18.22,-15.2242 33.19,-16.9572 64.95,-7.5201 32.26,9.5827 54.71,26.9675 89.58,69.3654 18.09,21.9966 33.26,41.2543 33.7,42.7948 1.51,5.239 -38.79,33.3945 -59.43,41.5238 -26.69,10.5088 -72.33,11.3287 -99.75,1.792 -10.89,-3.7862 -29.21,-14.0171 -40.7,-22.7354 -13.53,-10.2609 -21.44,-14.0968 -22.43,-10.8764 -0.83,2.7363 -7.78,27.4215 -15.43,54.856 -44.85,160.8451 -117.16,287.8371 -202.5,355.6531 -67.11,53.337 -144.93,79.234 -245.54,81.718 -30.49,0.752 -58.11,0.72 -61.37,-0.07 z m -634.51,-596.4026 c -18.5,-4.3605 -49.12,-20.0198 -62.76,-32.1024 -5.67,-5.0227 -24.16,-25.7387 -41.09,-46.0358 l -30.78,-36.9037 13.38,-11.5536 c 24.22,-20.9269 60.11,-36.261 89.85,-38.3888 41.38,-2.9605 86.62,12.8222 109.24,38.1092 10.52,11.7657 12.86,10.6893 15.72,-7.2451 4.06,-25.3722 29.26,-105.4909 48.61,-154.5765 57.72,-146.3592 144.48,-250.7426 245.56,-295.4446 64.67,-28.6012 180.61,-41.1197 256.68,-27.7149 38.84,6.8453 104.92,25.8316 104.92,30.1473 0,1.482 -26.04,23.8983 -57.87,49.8141 -31.83,25.9159 -59.44,51.2645 -61.37,56.3303 -1.93,5.0658 -3.53,15.776 -3.56,23.8005 -0.1,26.037 -3.6,33.0788 -15.3,30.7144 -5.71,-1.1528 -19.29,-2.5532 -30.17,-3.1119 -19.29,-0.9897 -20.74,-0.2557 -56.2,28.6204 -20.02,16.2999 -36.51,31.5622 -36.63,33.9163 -0.31,5.9633 53.17,56.8448 76.28,72.581 19.74,13.4375 89.45,47.8598 96.92,47.8598 2.33,0 8.88,1.7649 14.55,3.922 9.01,3.426 9.75,4.9826 5.83,12.3084 -9.07,16.9544 -65.92,72.4626 -92.84,90.6477 -107.49,72.6303 -266.96,110.8887 -462.2,110.8887 h -55.22 l -16.19,13.8579 c -17.12,14.6564 -26.71,16.3121 -55.36,9.5593 z"
                                   id="path10496" />
                                <path
                                   style="fill:#e5e5e5;stroke-width:3.9594"
                                   d="m 124781.25,10354.216 c -9.62,-149.213 -94.23,-263.097 -232.12,-312.452 -16.44,-5.885 -30.58,-11.226 -31.42,-11.869 -2.63,-2.013 9.79,-18.783 31.8,-42.9219 59.25,-65.0036 160.04,-115.4789 280.54,-140.4928 69.51,-14.4304 120.7,-19.8593 211.83,-22.4651 l 87.1,-2.4908 17.25,-13.9315 17.24,-13.9315 25.83,4.7593 c 28.57,5.264 56.81,18.292 73.02,33.6868 17.15,16.2827 66.61,76.2144 66.61,80.7071 0,6.6731 -38.12,32.7223 -60.13,41.0841 -45.12,17.1429 -106.29,6.0817 -140.43,-25.3947 -11.87,-10.9419 -17.65,-14.1073 -18.9,-10.3538 -0.99,2.9735 -7.35,26.6092 -14.12,52.5238 -17.13,65.517 -40.08,126.303 -69.89,185.166 -55.09,108.759 -119.26,178.879 -201.35,220.009 -42.68,21.387 -40,22.741 -42.86,-21.633 z m 75.87,-309.404 c 46.27,-37.838 83.24,-69.6781 82.16,-70.7567 -5.04,-5.0426 -50.68,-12.7631 -75.58,-12.784 -45.06,-0.04 -83.61,23.8665 -99.39,61.6327 -8.12,19.442 -14.53,67.707 -11.59,87.304 2.61,17.404 2.63,17.42 11.45,10.415 4.86,-3.859 46.69,-37.973 92.95,-75.811 z m -260.67,237.414 c -21.45,-2.288 -21.8,-2.535 -23.09,-16.077 -0.72,-7.564 -0.16,-21.375 1.24,-30.69 l 2.54,-16.938 28.46,2.535 c 15.65,1.394 29.12,3.098 29.93,3.786 0.81,0.689 0.21,14.695 -1.33,31.126 -2.29,24.506 -3.98,29.757 -9.39,29.228 -3.62,-0.355 -16.39,-1.691 -28.36,-2.97 z m -663.87,-470.9225 c -11.25,-3.8888 -27,-12.0575 -34.99,-18.1526 -14.33,-10.9319 -77.19,-83.967 -77.19,-89.6883 0,-5.6113 31.1,-27.5419 54.11,-38.1545 18.46,-8.517 29.07,-10.6814 52.8,-10.7681 36.68,-0.1338 62.13,8.2289 90.48,29.7348 11.66,8.8414 21.64,15.5175 22.18,14.8357 0.53,-0.6817 4.91,-17.2751 9.71,-36.8741 15.31,-62.3713 40.11,-131.0604 67.8,-187.7633 43.53,-89.1263 87.62,-148.2984 143.32,-192.3425 27.94,-22.095 89.83,-57.4074 100.61,-57.4074 2.49,0 5.26,15.6687 6.81,38.6041 7.17,106.0881 52.2,196.1768 126.7,253.5022 28.08,21.6049 86.45,52.4111 118.38,62.477 l 22.22,7.003 -17.05,22.1259 c -81.61,105.921 -240.95,168.6648 -463.87,182.6553 -38.99,2.4473 -83.52,3.2853 -98.94,1.8623 -27.7,-2.5565 -28.26,-2.4189 -46.55,11.5461 -15.33,11.6969 -21.76,14.1112 -37.29,14.0042 -10.33,-0.071 -27.98,-3.311 -39.24,-7.1998 z m 390.43,-161.2431 c 27.18,-8.0695 55.59,-35.5713 64.86,-62.7758 7.93,-23.2608 12.66,-76.0528 7.92,-88.3657 -3.2,-8.3345 -9.29,-4.0851 -95.61,66.7641 -50.7,41.6159 -91.43,76.4206 -90.51,77.344 3.74,3.7385 53.52,12.6614 72.27,12.9556 11.04,0.173 29.52,-2.4919 41.07,-5.9222 z m 218.93,-255.0283 c -13.64,-1.5515 -25.8,-3.8082 -27,-5.0148 -1.21,-1.2067 -0.95,-14.8382 0.57,-30.2922 3.12,-31.6542 0.93,-30.399 43.32,-24.7818 l 19.79,2.6227 -1.09,15.8376 c -1.79,25.8662 -5.36,45.5702 -8.16,44.9913 -1.44,-0.2981 -13.78,-1.8112 -27.43,-3.3628 z"
                                   id="path10494" />
                                <path
                                   style="fill:#d0d0cf;stroke-width:3.9594"
                                   d="m 124781.47,10350.181 c -3.22,-62.393 -23.85,-126.533 -55.86,-173.637 -11.36,-16.715 -10.9,-17.978 13.59,-37.369 l 14.83,-11.748 24.99,6.402 c 17.06,4.37 35.82,5.886 59.07,4.774 42.1,-2.013 65.49,-13.817 83.43,-42.109 15.99,-25.209 20.53,-43.871 21.27,-87.444 l 0.63,-37.2486 90.7,-74.374 c 49.89,-40.9058 91.16,-73.9159 91.72,-73.3559 2.36,2.3538 -12.24,75.5403 -24.57,123.2414 -58.26,225.2651 -157.35,374.1311 -288.69,433.6821 -14.25,6.463 -26.59,11.75 -27.42,11.75 -0.82,0 -2.49,-19.154 -3.69,-42.564 z m -175.13,-67.051 c -31.56,-2.749 -33.66,-4.004 -33.61,-20.131 0,-8.124 1.14,-21.366 2.47,-29.425 l 2.42,-14.654 26.24,2.294 c 14.43,1.262 27.71,3.621 29.5,5.242 4.88,4.42 -1.44,59.515 -6.74,58.72 -2.44,-0.366 -11.57,-1.287 -20.28,-2.046 z m -582.19,-501.1218 c 1.08,-4.8998 3.92,-20.4899 6.31,-34.6448 2.39,-14.1548 10.33,-48.8985 17.63,-77.2082 56.58,-219.1673 150.41,-364.9556 275.16,-427.5261 45.2,-22.6743 43.54,-23.0757 43.6,10.5329 0.11,58.3194 22.54,133.9865 53.78,181.4276 l 14.26,21.6558 -19.2,16.8165 c -11.53,10.1061 -21.56,15.918 -25.13,14.5651 -3.27,-1.2382 -20.2,-4.9884 -37.62,-8.3338 -55.47,-10.6522 -101.7,4.7477 -125.12,41.6809 -15.88,25.0419 -20.38,43.7236 -20.92,86.9774 l -0.46,36.7811 -89.06,73.0921 c -48.98,40.2006 -90.44,73.0921 -92.13,73.0921 -1.69,0 -2.18,-4.0089 -1.1,-8.9086 z m 517.38,-387.3447 c -13.87,-1.798 -25.93,-3.9843 -26.81,-4.8585 -0.87,-0.8743 -0.38,-14.5265 1.09,-30.3383 l 2.67,-28.7487 17.76,2.4341 c 9.77,1.3388 22.85,2.4342 29.08,2.4342 10.92,0 11.33,0.7042 11.33,19.302 0,22.0975 -3.78,44.285 -7.43,43.5463 -1.36,-0.276 -13.82,-1.9732 -27.69,-3.7711 z"
                                   id="path10492" />
                                <path
                                   style="fill:#b2b2b2;stroke-width:3.9594"
                                   d="m 124784.81,10358.216 c -6.42,-74.925 -25.26,-133.858 -58.12,-181.807 l -11.24,-16.386 18.36,-14.299 c 10.09,-7.865 20.29,-14.298 22.65,-14.296 2.37,0 17.66,2.837 34,6.301 60.85,12.905 109.26,-2.895 134.63,-43.945 12.63,-20.428 16.2,-35.578 19.11,-80.947 l 2.65,-41.3799 88.1,-72.5336 c 48.45,-39.8935 88.09,-70.0214 88.09,-66.9511 0,10.6377 -12.46,72 -23.83,117.3202 -42.94,171.2054 -123.47,316.5884 -213.91,386.1774 -22.69,17.462 -73.02,46.196 -89.42,51.051 -7.95,2.354 -8.58,0.743 -11.07,-28.305 z m -183.48,-76.527 c -13.64,-1.415 -25.86,-3.627 -27.15,-4.915 -1.29,-1.288 -1.09,-14.815 0.44,-30.061 l 2.79,-27.719 20.4,2.003 c 40.85,4.007 38.77,2.134 35.85,32.28 -1.41,14.644 -3.69,27.606 -5.05,28.805 -1.36,1.199 -13.63,1.022 -27.28,-0.393 z m -575.04,-498.2536 c 0,-8.8016 13.47,-73.9454 23.84,-115.2599 25.64,-102.2566 70.51,-209.1736 117.29,-279.4838 31.33,-47.1027 78.8,-96.313 117.74,-122.0638 30.81,-20.3694 72.16,-40.8237 75.6,-37.3896 0.9,0.899 3.54,20.4392 5.88,43.4228 6.53,64.1775 24.32,120.0272 50.71,159.2097 6.13,9.1071 12.33,18.4821 13.77,20.8334 1.46,2.3761 -5.97,10.8268 -16.72,19.024 l -19.34,14.7488 -29.8,-6.1559 c -55.27,-11.416 -93.51,-4.9685 -121.72,20.5233 -27.38,24.7355 -39.07,58.7977 -39.07,113.8251 v 29.2516 l -86.92,71.5181 c -47.8,39.335 -87.89,71.5182 -89.08,71.5182 -1.2,0 -2.18,-1.5849 -2.18,-3.522 z m 497.81,-391.3021 -10.97,-1.6574 2.56,-26.4549 c 1.41,-14.5503 3.67,-27.6488 5.03,-29.1078 1.36,-1.4591 14.5,-1.6606 29.2,-0.4478 l 26.73,2.2051 v 14.3056 c 0,7.8681 -1.14,20.9871 -2.49,29.1534 -2.44,14.7728 -2.55,14.8447 -20.75,14.2545 -10.06,-0.3263 -23.22,-1.3391 -29.26,-2.2507 z"
                                   id="path10490" />
                                <path
                                   style="fill:#857874;stroke-width:3.9594"
                                   d="m 124585.06,10279.07 -13.37,-1.724 2.48,-18.081 c 1.36,-9.945 2.48,-22.546 2.48,-28.002 0,-9.88 0.11,-9.911 28.18,-7.558 15.5,1.3 28.66,2.895 29.25,3.544 0.58,0.65 -0.1,12.762 -1.46,26.917 l -2.52,25.736 -15.84,0.445 c -8.71,0.245 -21.85,-0.33 -29.2,-1.277 z m -53.88,-887.6242 -15.78,-2.4077 1.07,-17.8172 c 2.35,-39.1013 1.69,-38.3415 30.79,-35.33 14.17,1.4666 26.65,3.5554 27.74,4.6418 1.08,1.0864 0.76,13.7809 -0.72,28.2099 l -2.68,26.2346 -12.33,-0.5618 c -6.77,-0.3089 -19.42,-1.6453 -28.09,-2.9696 z"
                                   id="path10488" />
                                <path
                                   style="fill:#685651;stroke-width:3.9594"
                                   d="m 124592.49,10278.318 -17.82,-2.375 1.34,-23.757 c 0.74,-13.066 2.73,-25.208 4.42,-26.983 1.69,-1.774 14,-1.99 27.36,-0.478 l 24.29,2.748 v 14.831 c 0,8.158 -1.11,20.4 -2.47,27.205 -2.67,13.341 -2.84,13.379 -37.12,8.809 z m 9.89,-24.152 c 3.95,-4.355 6.28,-7.919 5.19,-7.919 -1.09,0 -5.2,3.564 -9.15,7.919 -3.94,4.355 -6.27,7.919 -5.18,7.919 1.09,0 5.2,-3.564 9.14,-7.919 z m 22.29,-18.807 c 4.92,-6.28 4.78,-6.42 -1.5,-1.495 -6.59,5.172 -8.69,8.424 -5.43,8.424 0.82,0 3.94,-3.118 6.93,-6.929 z m -86.63,-843.3008 -20.78,-1.4542 v -15.1357 c 0,-8.3247 1.16,-20.9295 2.57,-28.0107 l 2.58,-12.8749 23.97,2.5061 c 13.19,1.3784 25.04,3.8314 26.34,5.4511 1.29,1.6197 1.66,14.0807 0.81,27.6911 -1.26,20.1877 -2.76,24.6113 -8.12,24.0138 -3.62,-0.4028 -15.93,-1.3868 -27.37,-2.1866 z m -4.44,-15.8881 c 4.93,-6.2798 4.78,-6.4199 -1.49,-1.4949 -6.6,5.1724 -8.7,8.4238 -5.44,8.4238 0.82,0 3.94,-3.118 6.93,-6.9289 z m 19.8,-15.8376 c 4.92,-6.2798 4.78,-6.4199 -1.5,-1.4949 -3.81,2.9888 -6.93,6.1068 -6.93,6.929 0,3.2587 3.25,1.1613 8.43,-5.4341 z"
                                   id="path10486" />
                                <path
                                   style="fill:#52423e;stroke-width:3.9594"
                                   d="m 124595.58,10278.29 -18.69,-2.347 25.85,-21.216 c 14.21,-11.669 26.84,-20.214 28.07,-18.988 1.23,1.225 0.99,12.108 -0.52,24.185 -2.15,17.212 -4.18,21.823 -9.38,21.336 -3.66,-0.342 -15.06,-1.679 -25.33,-2.97 z m -76.42,-917.9575 c 1.55,-12.5216 3.43,-23.3996 4.18,-24.1733 0.74,-0.7738 12.06,-0.1639 25.14,1.3548 l 23.8,2.7616 -25.24,21.4117 c -13.88,11.7765 -26.47,21.4117 -27.97,21.4117 -1.5,0 -1.46,-10.2449 0.1,-22.7665 z"
                                   id="path10484" />
                                </g>
                                </g>
                                </g>
                                </g>
                                </g>
                                </g>
                                </g>
                                </g>
                                </g>
                                </g>
                                </g>
                                </g>
                                </g>
                                </g>
                                </g>
                                </g>
                                </g>
                                </g>
                                </g>
                                </g>
                                </g>
                                </g>
                                </g>
                                </g>
                                </g>
                                </g>
                                </g>
                                </g>
                                </g>
                              </g>
                            </g>
                          </g>
                        </g>
                      </g>
                    </g>
                  </g>
                </g>
              </g>
            </g>
          </g>
        </g>
      </g>
    </g>
  </g>
</svg>
