<?xml version="1.0" encoding="UTF-8" standalone="no"?>
<!-- Created with Inkscape (http://www.inkscape.org/) -->

<svg
   width="64"
   height="64"
   viewBox="0 0 16.933333 16.933334"
   version="1.1"
   id="svg5"
   inkscape:version="1.2 (dc2aedaf03, 2022-05-15)"
   sodipodi:docname="biere.svg"
   xmlns:inkscape="http://www.inkscape.org/namespaces/inkscape"
   xmlns:sodipodi="http://sodipodi.sourceforge.net/DTD/sodipodi-0.dtd"
   xmlns="http://www.w3.org/2000/svg"
   xmlns:svg="http://www.w3.org/2000/svg">
  <sodipodi:namedview
     id="namedview7"
     pagecolor="#ffffff"
     bordercolor="#666666"
     borderopacity="1.0"
     inkscape:pageshadow="2"
     inkscape:pageopacity="0.0"
     inkscape:pagecheckerboard="0"
     inkscape:document-units="mm"
     showgrid="false"
     units="px"
     inkscape:zoom="11.313709"
     inkscape:cx="25.544231"
     inkscape:cy="34.117901"
     inkscape:window-width="1920"
     inkscape:window-height="1017"
     inkscape:window-x="3832"
     inkscape:window-y="-8"
     inkscape:window-maximized="1"
     inkscape:current-layer="g6945"
     inkscape:showpageshadow="2"
     inkscape:deskcolor="#d1d1d1" />
  <defs
     id="defs2" />
  <g
     inkscape:label="Calque 1"
     inkscape:groupmode="layer"
     id="layer1">
    <g
       id="g4128"
       transform="translate(-0.63104184,0.12620835)">
      <g
         id="g5578"
         transform="translate(0.08924235,0.08924306)">
        <g
           id="g7501"
           transform="translate(-0.06310417,0.94656242)">
          <g
             id="g9467"
             transform="translate(-0.08924275,-0.80318511)">
            <g
               id="g10302"
               transform="translate(0.31234979,-0.04462139)">
              <g
                 id="g11479"
                 transform="translate(-0.12620833,0.06310418)">
                <g
                   id="g11873"
                   transform="translate(-0.23575769,0.66462456)">
                  <g
                     id="g12382"
                     transform="translate(-121.98459,-82.267525)">
                    <g
                       id="g13305"
                       transform="matrix(0.13266609,0,0,0.13266609,114.63867,78.215696)">
                      <g
                         id="g17429"
                         transform="translate(0.90513437,5.6640979)">
                        <g
                           id="g18595"
                           transform="translate(-3.3634362,-8.7449387)">
                          <g
                             id="g21002"
                             transform="translate(1.7082278,-2.8204445)">
                            <g
                               id="g23814"
                               transform="translate(8.7253043,-1.1218249)">
                              <g
                                 id="g24838"
                                 transform="translate(11.143454,-0.85716864)">
                                <g
                                   id="g25315"
                                   transform="translate(-3.490122,2.4929446)">
                                <g
                                   id="g27220"
                                   transform="translate(2.4678888,1.2339445)">
                                <g
                                   id="g29753"
                                   transform="translate(1.4759287,-2.3737724)">
                                <g
                                   id="g30615"
                                   transform="translate(0.92006037,1.3687834)">
                                <g
                                   id="g31433"
                                   transform="translate(-2.4678886,-1.410222)">
                                <g
                                   id="g31731"
                                   transform="translate(1.0576664,-0.70511063)">
                                <g
                                   id="g33243"
                                   transform="matrix(1.0772948,0,0,1.0772948,-7.3729128,-3.1743014)">
                                <g
                                   id="g35254"
                                   transform="translate(-2.2135012,-0.92031205)">
                                <g
                                   id="g36749"
                                   transform="translate(-0.98178042,-2.7817105)">
                                <g
                                   id="g37297"
                                   transform="translate(-6.7755742,-3.5033798)">
                                <g
                                   id="g38955"
                                   transform="matrix(1.2171094,0,0,1.2171094,-23.105122,-18.212482)">
                                <g
                                   id="g39618"
                                   transform="translate(-0.26888273,-0.26888316)">
                                <g
                                   id="g40032"
                                   transform="translate(-1.90129,-3.042064)">
                                <g
                                   id="g40543"
                                   transform="translate(0.3802582,-2.0914191)">
                                <g
                                   id="g41372"
                                   transform="translate(1.9657652,-7.9304203)">
                                <g
                                   id="g43278"
                                   transform="translate(1.5210324,-0.38025789)">
                                <g
                                   id="g44210"
                                   transform="matrix(1.1578947,0,0,1.1578947,-18.904476,-21.776183)">
                                <g
                                   id="g44833"
                                   transform="matrix(1.1196819,0,0,1.1196819,-12.538538,-14.547543)">
                                <g
                                   id="g47597"
                                   transform="translate(3.1109352,-1.2443743)">
                                <g
                                   id="g48754"
                                   transform="translate(-2.9035392,-6.6366609)">
                                <g
                                   id="g234"
                                   transform="matrix(0.04089637,0,0,0.04089637,104.63967,119.67231)">
                                <g
                                   id="g2138"
                                   transform="translate(-86.211222,-40.569988)">
                                <g
                                   id="g2696"
                                   transform="translate(-124306.44,-9412.2373)">
                                <g
                                   id="g3765"
                                   transform="translate(25.356243,-50.712489)">
                                <g
                                   id="g4557"
                                   transform="translate(46.61688,-35.859142)">
                                <g
                                   id="g5244"
                                   transform="translate(7.1718407,14.343658)">
                                <g
                                   id="g5807"
                                   transform="translate(-5.1984397,-21.113724)">
                                <g
                                   id="g6945"
                                   transform="translate(-10.142522,-243.41993)">
                                <g
                                   id="g11108"
                                   transform="translate(18.189368,-37.636113)">
                                <path
                                   style="fill:#a1222a;stroke-width:5.58113"
                                   d="m 124306.06,10656.168 c -13.73,-20.25 -14.49,-102.096 -1.36,-146.574 7.86,-26.628 8.46,-48.448 4.57,-164.643 -2.47,-73.671 -6.25,-238.175 -8.4,-365.5645 l -3.91,-231.617 23.93,-44.649 c 51.55,-96.1902 47.51,-80.8697 77.34,-293.0094 34.31,-243.936 36.65,-264.8754 30.97,-277.4122 -6.47,-14.2671 -7.59,-64.6368 -1.62,-72.1377 2.97,-3.727 35.5,-7.9424 79.47,-10.2973 94.03,-5.0359 97.79,-3.3215 97.3,44.2535 -0.2,18.5606 -2.92,36.9442 -6.04,40.8524 -6.51,8.1332 -5.83,13.9176 40.49,341.7149 5.86,41.4399 12.22,87.9028 14.15,103.2509 2.12,16.9023 12.51,44.4107 26.36,69.7641 50.67,92.7806 46.05,68.9544 46.05,237.1981 0,82.8798 -2.26,254.2072 -5.02,380.7282 -4.73,216.947 -4.43,231.557 5.27,256.732 13.99,36.341 13.75,92.376 -0.51,121.574 l -10.91,22.324 -198.83,1.465 -198.84,1.465 z"
                                   id="path11114" />
                                <path
                                   style="fill:#93212e;stroke-width:5.58113"
                                   d="m 124306.2,10656.168 c -15.19,-22.682 -17.57,-92.178 -4.49,-130.849 8.75,-25.853 9.84,-46.58 8.49,-160.834 -0.85,-72.137 -2.4,-143.715 -3.43,-159.063 -1.04,-15.348 -3.66,-123.343 -5.83,-239.9883 -4.45,-238.7228 -7.02,-219.5264 40.02,-299.7682 27.38,-46.7129 30.74,-61.4148 57.88,-252.7638 6.53,-46.0444 16.74,-115.524 22.69,-154.3993 11.61,-75.8629 13.83,-124.9263 5.88,-129.8405 -6.34,-3.9157 -6.05,-59.7808 0.35,-68.1007 2.88,-3.7433 35.13,-7.9321 79.29,-10.2973 94.4,-5.0561 97.55,-3.5807 97.26,45.6494 -0.11,19.3917 -2.69,36.7959 -5.73,38.6759 -8.47,5.2362 -2.56,56.925 37.6,328.5426 7.26,49.114 14.79,101.8557 16.73,117.2038 2.13,16.8336 12.61,44.5137 26.4,69.7641 50.68,92.7944 46.05,68.9347 45.98,237.1981 0,82.8798 -2.29,254.1872 -5.03,380.6832 -4.68,216.973 -4.38,231.506 5.33,256.732 14.01,36.387 13.78,92.404 -0.49,121.619 l -10.91,22.324 -198.83,1.465 -198.84,1.465 z m 205.58,-559.579 1.49,-284.639 h -26.51 c -14.58,7e-4 -26.51,2.5127 -26.51,5.5824 0,3.0696 -5.05,5.5811 -11.23,5.5811 -6.19,0 -15.6,2.2476 -20.93,4.9947 -5.33,2.7472 -26.84,13.2641 -47.78,23.371 -20.95,10.1069 -41.05,22.4658 -44.65,27.4643 -3.61,4.9984 -11.36,10.8808 -17.22,13.0718 -10.31,3.8552 -10.5,9.6932 -6.09,181.0197 2.5,97.369 5.32,193.36 6.25,213.313 0.93,19.952 1.79,49.462 1.91,65.578 l 0.22,29.301 h 94.77 94.78 z m 0,-723.7615 c -0.81,-100.3194 -2.14,-183.0654 -2.96,-183.8799 -0.81,-0.8146 -15.12,-2.2441 -31.8,-3.1767 -27.54,-1.5404 -30.97,-0.4185 -37.42,12.2572 -3.91,7.6741 -7.14,29.6498 -7.19,48.8349 0,19.1851 -2.31,34.8821 -5.03,34.8821 -2.73,0 -6.44,16.9527 -8.25,37.6726 -3.58,40.8587 -10.62,94.9113 -19.81,152.0858 -3.21,19.9526 -5.89,37.8195 -5.95,39.7042 -0.28,8.5347 44.03,32.8505 59.86,32.8505 9.63,0 19.06,2.5115 20.96,5.5812 1.89,3.0696 11.46,5.5824 21.26,5.5841 h 17.8 l -1.47,-182.399 z"
                                   id="path11112" />
                                <path
                                   style="fill:#3a2418;stroke-width:5.58113"
                                   d="m 124412.88,10666.123 -100.4,-3.048 -8.43,-16.743 c -11.38,-22.58 -10.28,-98.084 1.91,-130.463 6,-15.971 9.18,-41.584 9.18,-74.021 v -49.599 l 199.45,1.466 199.44,1.466 -1.8,43.174 c -1.36,32.628 1.19,52.847 10.45,82.773 15.6,50.391 13.99,108.338 -3.67,132.002 l -11.59,15.526 -97.07,0.257 c -53.39,0.142 -142.25,-1.114 -197.47,-2.79 z m -111.19,-785.1145 c -5.34,-13.9085 -3.7,-114.8019 2.21,-136.0678 2.99,-10.7647 18.31,-42.0158 34.04,-69.447 21.08,-36.7676 30.72,-60.9587 36.67,-92.0504 13.98,-73.0488 12.84,-69.6348 20.34,-60.6097 34.47,41.4346 147.91,51.1518 210.41,18.0235 16.89,-8.9479 32.17,-16.9821 33.96,-17.8538 1.8,-0.8718 6.44,19.7409 10.32,45.8058 5.9,39.6537 11.63,55.3815 35.11,96.334 39.91,69.6045 43.4,82.3506 43.4,158.6734 0,36.4495 -1.29,66.2719 -2.86,66.2719 -1.57,0 -17.26,-9.7609 -34.88,-21.6908 -30.17,-20.4332 -52.16,-31.6583 -104.37,-53.2855 -30.87,-12.7864 -79.35,-16.8272 -113.64,-9.4722 -34.91,7.4848 -100.41,37.8551 -139.18,64.5243 -23.11,15.891 -28.84,17.862 -31.53,10.8443 z m 133.62,-723.8015 c 2.49,-13.2721 0.99,-20.5591 -5.33,-25.7985 -9.77,-8.1136 -11.73,-25.7857 -3.42,-30.9201 3.37,-2.0848 3.06,-8.3731 -0.82,-16.9075 -12.19,-26.737 -0.98,-30.6622 87.53,-30.6622 57.05,0 81.09,1.9743 84.97,6.9764 8.18,10.5561 7.06,64.2654 -1.49,71.3587 -4.72,3.9185 -6.21,12.8808 -4.2,25.2614 l 3.11,19.1884 h -81.91 -81.91 z"
                                   id="path11110" />
                                </g>
                                </g>
                                </g>
                                </g>
                                </g>
                                </g>
                                </g>
                                </g>
                                </g>
                                </g>
                                </g>
                                </g>
                                </g>
                                </g>
                                </g>
                                </g>
                                </g>
                                </g>
                                </g>
                                </g>
                                </g>
                                </g>
                                </g>
                                </g>
                                </g>
                                </g>
                                </g>
                                </g>
                                </g>
                              </g>
                            </g>
                          </g>
                        </g>
                      </g>
                    </g>
                  </g>
                </g>
              </g>
            </g>
          </g>
        </g>
      </g>
    </g>
  </g>
</svg>
