<?xml version="1.0" encoding="UTF-8" standalone="no"?>
<!-- Created with Inkscape (http://www.inkscape.org/) -->

<svg
   width="64"
   height="64"
   viewBox="0 0 16.933333 16.933334"
   version="1.1"
   id="svg5"
   inkscape:version="1.2 (dc2aedaf03, 2022-05-15)"
   sodipodi:docname="blanc_de_poireau.svg"
   xmlns:inkscape="http://www.inkscape.org/namespaces/inkscape"
   xmlns:sodipodi="http://sodipodi.sourceforge.net/DTD/sodipodi-0.dtd"
   xmlns="http://www.w3.org/2000/svg"
   xmlns:svg="http://www.w3.org/2000/svg">
  <sodipodi:namedview
     id="namedview7"
     pagecolor="#ffffff"
     bordercolor="#666666"
     borderopacity="1.0"
     inkscape:pageshadow="2"
     inkscape:pageopacity="0.0"
     inkscape:pagecheckerboard="0"
     inkscape:document-units="mm"
     showgrid="false"
     units="px"
     inkscape:zoom="5.6568543"
     inkscape:cx="9.8994949"
     inkscape:cy="51.618795"
     inkscape:window-width="1920"
     inkscape:window-height="1017"
     inkscape:window-x="3832"
     inkscape:window-y="-8"
     inkscape:window-maximized="1"
     inkscape:current-layer="g30352"
     inkscape:showpageshadow="2"
     inkscape:deskcolor="#d1d1d1" />
  <defs
     id="defs2" />
  <g
     inkscape:label="Calque 1"
     inkscape:groupmode="layer"
     id="layer1">
    <g
       id="g4128"
       transform="translate(-0.63104184,0.12620835)">
      <g
         id="g5578"
         transform="translate(0.08924235,0.08924306)">
        <g
           id="g7501"
           transform="translate(-0.06310417,0.94656242)">
          <g
             id="g9467"
             transform="translate(-0.08924275,-0.80318511)">
            <g
               id="g10302"
               transform="translate(0.31234979,-0.04462139)">
              <g
                 id="g11479"
                 transform="translate(-0.12620833,0.06310418)">
                <g
                   id="g11873"
                   transform="translate(-0.23575769,0.66462456)">
                  <g
                     id="g12382"
                     transform="translate(-121.98459,-82.267525)">
                    <g
                       id="g13305"
                       transform="matrix(0.13266609,0,0,0.13266609,114.63867,78.215696)">
                      <g
                         id="g17429"
                         transform="translate(0.90513437,5.6640979)">
                        <g
                           id="g18595"
                           transform="translate(-3.3634362,-8.7449387)">
                          <g
                             id="g21002"
                             transform="translate(1.7082278,-2.8204445)">
                            <g
                               id="g23814"
                               transform="translate(8.7253043,-1.1218249)">
                              <g
                                 id="g24838"
                                 transform="translate(11.143454,-0.85716864)">
                                <g
                                   id="g25315"
                                   transform="translate(-3.490122,2.4929446)">
                                <g
                                   id="g27220"
                                   transform="translate(2.4678888,1.2339445)">
                                <g
                                   id="g29753"
                                   transform="translate(1.4759287,-2.3737724)">
                                <g
                                   id="g30615"
                                   transform="translate(0.92006037,1.3687834)">
                                <g
                                   id="g31433"
                                   transform="translate(-2.4678886,-1.410222)">
                                <g
                                   id="g31731"
                                   transform="translate(1.0576664,-0.70511063)">
                                <g
                                   id="g33243"
                                   transform="matrix(1.0772948,0,0,1.0772948,-7.3729128,-3.1743014)">
                                <g
                                   id="g35254"
                                   transform="translate(-2.2135012,-0.92031205)">
                                <g
                                   id="g36749"
                                   transform="translate(-0.98178042,-2.7817105)">
                                <g
                                   id="g37297"
                                   transform="translate(-6.7755742,-3.5033798)">
                                <g
                                   id="g38955"
                                   transform="matrix(1.2171094,0,0,1.2171094,-23.105122,-18.212482)">
                                <g
                                   id="g39618"
                                   transform="translate(-0.26888273,-0.26888316)">
                                <g
                                   id="g40032"
                                   transform="translate(-1.90129,-3.042064)">
                                <g
                                   id="g40543"
                                   transform="translate(0.3802582,-2.0914191)">
                                <g
                                   id="g41372"
                                   transform="translate(1.9657652,-7.9304203)">
                                <g
                                   id="g43278"
                                   transform="translate(1.5210324,-0.38025789)">
                                <g
                                   id="g44210"
                                   transform="matrix(1.1578947,0,0,1.1578947,-18.904476,-21.776183)">
                                <g
                                   id="g44833"
                                   transform="matrix(1.1196819,0,0,1.1196819,-12.538538,-14.547543)">
                                <g
                                   id="g47597"
                                   transform="translate(3.1109352,-1.2443743)">
                                <g
                                   id="g48754"
                                   transform="translate(-2.9035392,-6.6366609)">
                                <g
                                   id="g234"
                                   transform="matrix(0.04089637,0,0,0.04089637,104.63967,119.67231)">
                                <g
                                   id="g2138"
                                   transform="translate(-86.211222,-40.569988)">
                                <g
                                   id="g2696"
                                   transform="translate(-124306.44,-9412.2373)">
                                <g
                                   id="g3765"
                                   transform="translate(25.356243,-50.712489)">
                                <g
                                   id="g4557"
                                   transform="translate(46.61688,-35.859142)">
                                <g
                                   id="g5244"
                                   transform="translate(7.1718407,14.343658)">
                                <g
                                   id="g5807"
                                   transform="translate(-5.1984397,-21.113724)">
                                <g
                                   id="g6945"
                                   transform="translate(-10.142522,-243.41993)">
                                <g
                                   id="g11108"
                                   transform="translate(18.189368,-37.636113)">
                                <g
                                   id="g15049"
                                   transform="translate(-65.926228,141.99496)">
                                <g
                                   id="g19861"
                                   transform="matrix(0.07356842,0,0,0.07356842,115423.38,9039.2311)">
                                <g
                                   id="g20437"
                                   transform="translate(-478.38824,-785.88156)">
                                <g
                                   id="g21032"
                                   transform="translate(2047.1878,-1072.3367)">
                                <g
                                   id="g21869"
                                   transform="matrix(0.04321578,0,0,0.04321578,117368,10137.003)">
                                <g
                                   id="g25455"
                                   transform="translate(154741.46,-87178.414)">
                                <g
                                   id="g26278"
                                   transform="translate(-18012.371,-8233.4417)">
                                <g
                                   id="g27240"
                                   transform="translate(-0.00447131,5582.7624)">
                                <g
                                   id="g28306"
                                   transform="translate(-15790.441,-2255.7767)">
                                <g
                                   id="g30352"
                                   transform="translate(-17545.828,17545.829)">
                                <path
                                   style="fill:#eef8d6;stroke-width:225.519"
                                   d="m -69327.291,304786.4 c -24425.808,-4750.36 -51686.559,-17919.54 -60293.379,-42983.2 -3817.34,-14413.91 358.02,-16945.63 -2985.75,-41465.9 -5287.97,-24156.66 4160.34,-48398.47 18622.02,-67535.81 57978.71,-89616.237 115707.734,-179396.205 173823.154,-268922.65 3694.428,3619.8 17448.119,9917.06 13249.245,7207.75 6405.636,3598.5 16843.693,9510.633 13080.106,7216.61 8406.032,4080.446 15040.015,10390.566 22777.435,15260.126 8069.41,2489.732 15211.03,8720.025 23228.45,12253.204 8947.55,4549.159 17651.16,8512.86 25483.66,13907.01 4587.64,1461.673 17110.76,8695.079 14420.37,7330.799 C 122418.67,48256.834 73152.381,149659.1 23136.563,250683.31 c -10865.953,20954.54 -32477.7439,35702.24 -55821.706,38764.41 -6704.592,13412.04 -22871.3,17210.71 -36642.148,15338.68 z"
                                   id="path30360"
                                   sodipodi:nodetypes="cccccccccccccc" />
                                <path
                                   style="fill:#e3f3b4;stroke-width:225.519"
                                   d="m -67974.177,304898.78 c -10548.083,-1213.2 -22017.309,-5310.82 -33715.103,-12045.43 -14298.03,-8231.58 -23573.03,-18209.02 -27362.51,-29434.75 -2695.81,-7985.9 -2581.49,-16229.84 345,-24878.93 496.01,-1465.89 851.22,-2835.92 789.36,-3044.5 -61.86,-208.56 -581.83,-1597.02 -1155.49,-3085.44 -1950.22,-5060.11 -3514.09,-11400.02 -4339.06,-17590.49 -551.22,-4136.36 -544.69,-13955.48 12.02,-18041.53 1496.29,-10982.33 4871.46,-20671.6 10330.32,-29655.76 1049.63,-1727.47 154252.981,-239009.706 179899.144,-278628.83 2297.656,-3549.48 3083.703,-4608.78 3137.715,-4228.48 46.299,326.09 227.639,507.42 507.418,507.42 284.988,0 435.342,155.76 435.342,451.03 0,375.87 150.353,451.04 902.076,451.04 751.723,0 902.076,75.18 902.076,451.04 0,375.87 150.354,451.04 902.076,451.04 751.723,0 902.077,75.17 902.077,451.04 0,400.92 150.353,451.04 1353.114,451.04 1202.761,0 1353.114,50.11 1353.114,451.03 0,375.87 150.354,451.04 902.077,451.04 751.722,0 902.076,75.17 902.076,451.04 0,300.69 150.354,451.04 451.038,451.04 300.685,0 451.038,150.34 451.038,451.04 0,375.86 150.354,451.03 902.077,451.03 751.722,0 902.076,75.18 902.076,451.04 0,400.93 150.353,451.04 1353.114,451.04 1202.761,0 1353.115,50.12 1353.115,451.04 0,375.86 150.353,451.04 902.076,451.04 751.723,0 902.076,75.17 902.076,451.04 0,300.69 150.354,451.03 451.038,451.03 300.685,0 451.038,150.35 451.038,451.04 0,288.06 150.354,451.04 416.083,451.04 228.857,0 599.768,202.97 824.272,451.04 224.504,248.07 646.157,451.04 937.032,451.04 378.489,0 528.842,128.22 528.842,451.03 0,400.93 150.354,451.04 1353.115,451.04 1202.76,0 1353.114,50.12 1353.114,451.04 0,300.69 150.354,451.04 451.038,451.04 300.685,0 451.038,150.34 451.038,451.04 0,375.86 150.354,451.03 902.077,451.03 751.722,0 902.076,75.18 902.076,451.04 0,375.87 150.353,451.04 902.076,451.04 751.723,0 902.076,75.17 902.076,451.04 0,375.87 150.354,451.04 902.077,451.04 751.722,0 902.076,75.17 902.076,451.04 0,300.69 150.353,451.034 451.038,451.034 300.685,0 451.038,150.347 451.038,451.038 0,375.866 150.354,451.038 902.076,451.038 751.723,0 902.077,75.173 902.077,451.039 0,375.865 150.353,451.038 902.076,451.038 751.723,0 902.076,75.172 902.076,451.038 0,300.691 150.354,451.038 451.038,451.038 300.685,0 451.038,150.347 451.038,451.038 0,375.866 150.354,451.038 902.077,451.038 751.722,0 902.076,75.173 902.076,451.039 0,300.691 150.354,451.038 451.038,451.038 300.685,0 451.038,150.347 451.038,451.038 0,375.866 150.354,451.038 902.076,451.038 751.723,0 902.077,75.172 902.077,451.038 0,286.337 150.353,451.038 411.73,451.038 506.087,0 1392.418,906.454 1392.418,1424.029 0,229.777 178.39,380.124 451.04,380.124 300.69,0 451.04,150.347 451.04,451.038 0,288.063 150.35,451.038 416.08,451.038 228.86,0 599.77,202.968 824.28,451.039 224.5,248.071 646.15,451.038 937.03,451.038 378.49,0 528.84,128.225 528.84,451.038 0,375.866 150.35,451.038 902.08,451.038 751.72,0 902.07,75.172 902.07,451.038 0,300.692 150.36,451.038 451.04,451.038 300.68,0 451.04,150.347 451.04,451.039 0,375.866 150.35,451.038 902.07,451.038 751.73,0 902.08,75.172 902.08,451.038 0,400.923 150.35,451.038 1353.12,451.038 1202.76,0 1353.11,50.115 1353.11,451.038 0,375.866 150.35,451.039 902.08,451.039 751.72,0 902.07,75.172 902.07,451.038 0,300.691 150.36,451.038 451.04,451.038 300.68,0 451.04,150.347 451.04,451.038 0,375.866 150.35,451.038 902.07,451.038 751.73,0 902.08,75.172 902.08,451.038 0,375.866 150.35,451.039 902.08,451.039 751.72,0 902.07,75.172 902.07,451.038 0,375.866 150.36,451.038 902.08,451.038 751.72,0 902.08,75.172 902.08,451.038 0,300.691 150.35,451.038 451.03,451.038 300.69,0 451.04,150.347 451.04,451.038 0,375.866 150.36,451.039 902.08,451.039 751.72,0 902.07,75.172 902.07,451.038 0,375.866 150.36,451.038 902.08,451.038 751.72,0 902.08,75.172 902.08,451.038 0,375.866 150.35,451.038 902.07,451.038 751.73,0 902.08,75.173 902.08,451.038 0,300.692 150.35,451.039 451.04,451.039 300.68,0 451.04,150.346 451.04,451.038 0,375.866 150.35,451.038 902.07,451.038 751.72,0 902.08,75.172 902.08,451.038 0,375.866 150.35,451.038 902.07,451.038 751.73,0 902.08,75.173 902.08,451.038 0,375.866 150.35,451.039 902.08,451.039 751.72,0 902.07,75.172 902.07,451.038 0,375.866 150.36,451.038 902.08,451.038 751.72,0 902.08,75.172 902.08,451.038 0,375.866 150.35,451.038 902.07,451.038 751.73,0 902.08,75.173 902.08,451.038 0,375.866 150.35,451.039 902.07,451.039 751.73,0 902.08,75.172 902.08,451.038 0,375.866 150.35,451.038 902.08,451.038 751.72,0 902.07,75.172 902.07,451.038 0,375.866 150.36,451.038 902.08,451.038 751.72,0 902.08,75.173 902.08,451.039 0,375.865 150.35,451.038 902.07,451.038 751.73,0 902.08,75.172 902.08,451.038 0,375.866 150.35,451.038 902.07,451.038 751.73,0 902.08,75.172 902.08,451.038 0,375.866 150.35,451.038 902.08,451.038 751.72,0 902.07,75.173 902.07,451.039 0,288.062 150.36,451.038 416.09,451.038 228.85,0 599.76,202.967 824.27,451.038 224.5,248.071 646.16,451.038 937.03,451.038 378.49,0 528.84,128.226 528.84,451.038 0,400.924 150.36,451.038 1353.12,451.038 1202.76,0 1353.11,50.115 1353.11,451.039 0,300.691 150.35,451.038 451.04,451.038 300.68,0 451.04,150.347 451.04,451.038 0,300.691 150.35,451.038 451.04,451.038 300.68,0 451.03,150.347 451.03,451.038 0,375.866 150.36,451.038 902.08,451.038 751.72,0 902.08,75.173 902.08,451.039 0,375.866 150.35,451.038 902.07,451.038 751.73,0 902.08,75.172 902.08,451.038 0,400.923 150.35,451.038 1353.11,451.038 1202.76,0 1353.12,50.115 1353.12,451.038 0,283.712 150.35,451.038 405.28,451.038 222.88,0 801.65,405.935 1286.11,902.077 757.56,775.81 1016.51,902.076 1849.91,902.076 818.73,0 969.08,69.976 969.08,451.038 0,288.063 150.35,451.039 416.08,451.039 228.86,0 599.77,202.967 824.27,451.038 288.87,319.206 694.6,451.038 1388.07,451.038 829.53,0 979.88,69.205 979.88,451.038 0,300.691 150.36,451.038 451.04,451.038 300.69,0 451.04,150.347 451.04,451.038 0,408.082 150.35,451.039 1578.63,451.039 868.25,0 1578.64,68.469 1578.64,152.157 0,83.686 -5497.3,11373.735 -12216.21,25088.999 -6718.91,13715.261 -13657.03,27879.86422 -15418.04,31476.8936 -1761.01,3597.0295 -5637.84,11512.7494 -8615.17,17590.4884 -17408.31,35536.373 -40212.484,82082.524 -54525.705,111293.674 -9025.273,18419.27 -17598.336,35925.19 -19051.242,38902.04 -7297.369,14951.51 -35645.927,72760.1 -37553.313,76578.99 -3286.742,6580.61 -5869.111,10692.79 -9549.835,15207.28 -11642.8256,14280.16 -28059.542,23727.33 -46441.471,26725.22 -1392.478,227.1 -1699.248,359.73 -2003.906,866.4 -3240.312,5388.9 -6591.494,8624.4 -11574.452,11174.95 -3876.17,1984.03 -7025.557,2956.24 -11753.369,3628.22 -2511.804,356.99 -8876.649,412.07 -11587.855,100.22 z m -20071.197,-77453.9 c 5349.053,-1131.34 10275.723,-5542.65 15107.257,-13526.97 1645.283,-2718.88 4860.089,-8994.79 7213.806,-14082.7 2633.017,-5691.63 4457.337,-9198.09 8337.307,-16024.85 2079.611,-3659.04 4063.646,-7160.23 4408.97,-7780.4 541.584,-972.65 7223.02,-12797.65 13188.416,-23341.23 7209.556,-12742.59 10690.186,-18897.03 17536.974,-31008.87 4277.131,-7566.17 8636.036,-15278.92 9686.452,-17139.45 1050.418,-1860.54 4175.659,-7391.393 6944.9813,-12290.795 C -2851.8884,87350.213 42.795359,82225.292 811.41621,80860.901 3482.3716,76119.656 12036.159,60995.678 13885.149,57745.195 c 1023.058,-1798.515 3256.637,-5756.375 4963.508,-8795.244 1706.87,-3038.87 3487.221,-6184.861 3956.332,-6991.092 469.112,-806.231 5954.193,-10497.913 12189.051,-21537.073 6234.858,-11039.1589 13514.32,-23927.5747 16176.573,-28640.9236 2662.23,-4713.3484 8748.561,-15470.6094 13525.168,-23905.0234 4776.584,-8434.413 9024.326,-15994.941 9439.416,-16801.172 2591.597,-5033.784 1705.781,-10809.795 -2268.857,-14794.067 -2691.345,-2697.874 -5704.144,-3844.442 -9573.465,-3643.342 -3341.065,173.645 -6613.595,1664.046 -8585.736,3910.187 -855.439,974.285 -1334.577,1699.568 -30007.815,45423.096 -3659.047,5579.642 -12183.668,18570.58326 -18943.6019,28868.754 -6759.934,10298.174 -15284.5551,23288.236 -18943.6011,28866.809 -20849.565,31787.179 -21197.697,32317.521 -28939.732,44086.545 -1550.295,2356.675 -5278.493,8039.756 -8284.881,12629.069 -3006.39,4589.312 -8563.254,13063.192 -12348.589,18830.842 -3785.333,5767.65 -7643.344,11653.7 -8573.358,13080.11 -5949.328,9124.79 -11697.821,17628.94 -14482.056,21424.31 -11756.023,16025.43 -16423.265,23225.04 -20520.425,31654.45 -4285.75,8817.41 -6052.33,15644.37 -5785.31,22357.37 173.26,4355.93 938.47,7207.62 2884.73,10750.41 3354.22,6105.7 11172.322,12011.28 17247.621,13028.37 1736.558,290.74 3231.059,259.69 4944.505,-102.7 z"
                                   id="path30358" />
                                <path
                                   style="fill:#dcf3a7;stroke-width:225.519"
                                   d="m -67523.139,304884.39 c -24880.105,-4122.91 -52755.661,-17453.3 -61860.111,-42636.26 -4120.2,-15108.5 -768.42,-26334.85 -3340.15,-43466.86 -4816.42,-23764.98 4900.84,-47365.1 19011.46,-66150.68 57992.055,-89367.442 115296.3521,-179222.722 173679.161,-268310.1 4650.136,2758.51 19235.935,8439.2 14248.382,6841.27 6410.749,5033.5 14101.574,7589.09 20973.276,12553.899 5852.581,4066.266 11247.321,9292.158 18041.521,11275.955 11785.48,7619.307 25219.03,13802.779 37436.17,20296.717 4328.17,2975.594 18668.23,10254.838 13982.18,7667.649 24475.31,-5687.449 -37683.66,73905.109 -5649.42,30524.537 -46337.59,93885.61 -91574.623,188342.923 -138611.134,281865.153 -11584.533,18499.95 -31632.962,31023.57 -53173.02,34058.19 -6362.695,12744.74 -21546.051,16940.33 -34738.315,15480.53 z m -18667.383,-77819.74 c 60553.108,-82151.98 104616.243,-176590 160539.663,-276343.701 7909.772,-21189.932 -30970.953,15952.672 -27779.666,-3790.282 -45366.2377,68526.75 -89632.118,137806.165 -135711.3,205845.113 -11555.205,17125.88 -29017.405,36929.46 -22451.455,59102.72 4048.49,9222.59 14731.294,18324.37 25402.758,15186.15 z"
                                   id="path30356"
                                   sodipodi:nodetypes="cccccccccccccccccccc" />
                                <path
                                   style="fill:#f5c75d;stroke-width:225.519"
                                   d="m -66170.024,305008.45 c -16122.311,-1582.41 -31318.336,-8673.09 -44371.496,-18027.98 -11139.48,-7979.66 -20218.29,-20440.61 -20365.21,-34589.06 -97.96,-5577.02 1048.14,-11164.26 3185.23,-16307.3 6681.19,14756.65 17941.71,27468.15 32183.45,35293.67 11996.131,6686.64 23749.364,14608.38 37511.623,17129.64 8230.511,1906.08 16761.269,1486.04 25120.465,1061.83 -5219.666,10112.79 -16768.035,15462.77 -27830.06,15437.82 -1809.11,61.8 -3627.358,165.7 -5434.002,1.38 z"
                                   id="path30354" />
                                </g>
                                </g>
                                </g>
                                </g>
                                </g>
                                </g>
                                </g>
                                </g>
                                </g>
                                </g>
                                </g>
                                </g>
                                </g>
                                </g>
                                </g>
                                </g>
                                </g>
                                </g>
                                </g>
                                </g>
                                </g>
                                </g>
                                </g>
                                </g>
                                </g>
                                </g>
                                </g>
                                </g>
                                </g>
                                </g>
                                </g>
                                </g>
                                </g>
                                </g>
                                </g>
                                </g>
                                </g>
                                </g>
                                </g>
                              </g>
                            </g>
                          </g>
                        </g>
                      </g>
                    </g>
                  </g>
                </g>
              </g>
            </g>
          </g>
        </g>
      </g>
    </g>
  </g>
</svg>
