<?xml version="1.0" encoding="UTF-8" standalone="no"?>
<!-- Created with Inkscape (http://www.inkscape.org/) -->

<svg
   width="64"
   height="64"
   viewBox="0 0 16.933333 16.933334"
   version="1.1"
   id="svg5"
   inkscape:version="1.2 (dc2aedaf03, 2022-05-15)"
   sodipodi:docname="ble.svg"
   xmlns:inkscape="http://www.inkscape.org/namespaces/inkscape"
   xmlns:sodipodi="http://sodipodi.sourceforge.net/DTD/sodipodi-0.dtd"
   xmlns="http://www.w3.org/2000/svg"
   xmlns:svg="http://www.w3.org/2000/svg">
  <sodipodi:namedview
     id="namedview7"
     pagecolor="#ffffff"
     bordercolor="#666666"
     borderopacity="1.0"
     inkscape:pageshadow="2"
     inkscape:pageopacity="0.0"
     inkscape:pagecheckerboard="0"
     inkscape:document-units="mm"
     showgrid="false"
     units="px"
     inkscape:zoom="22.627417"
     inkscape:cx="29.654291"
     inkscape:cy="33.98532"
     inkscape:window-width="1920"
     inkscape:window-height="1017"
     inkscape:window-x="1912"
     inkscape:window-y="-8"
     inkscape:window-maximized="1"
     inkscape:current-layer="g31908"
     inkscape:showpageshadow="2"
     inkscape:deskcolor="#d1d1d1" />
  <defs
     id="defs2" />
  <g
     inkscape:label="Calque 1"
     inkscape:groupmode="layer"
     id="layer1">
    <g
       id="g4128"
       transform="translate(-0.63104184,0.12620835)">
      <g
         id="g5578"
         transform="translate(0.08924235,0.08924306)">
        <g
           id="g7501"
           transform="translate(-0.06310417,0.94656242)">
          <g
             id="g9467"
             transform="translate(-0.08924275,-0.80318511)">
            <g
               id="g10302"
               transform="translate(0.31234979,-0.04462139)">
              <g
                 id="g11479"
                 transform="translate(-0.12620833,0.06310418)">
                <g
                   id="g11873"
                   transform="translate(-0.23575769,0.66462456)">
                  <g
                     id="g12382"
                     transform="translate(-121.98459,-82.267525)">
                    <g
                       id="g13305"
                       transform="matrix(0.13266609,0,0,0.13266609,114.63867,78.215696)">
                      <g
                         id="g17429"
                         transform="translate(0.90513437,5.6640979)">
                        <g
                           id="g18595"
                           transform="translate(-3.3634362,-8.7449387)">
                          <g
                             id="g21002"
                             transform="translate(1.7082278,-2.8204445)">
                            <g
                               id="g23814"
                               transform="translate(8.7253043,-1.1218249)">
                              <g
                                 id="g24838"
                                 transform="translate(11.143454,-0.85716864)">
                                <g
                                   id="g25315"
                                   transform="translate(-3.490122,2.4929446)">
                                <g
                                   id="g27220"
                                   transform="translate(2.4678888,1.2339445)">
                                <g
                                   id="g29753"
                                   transform="translate(1.4759287,-2.3737724)">
                                <g
                                   id="g30615"
                                   transform="translate(0.92006037,1.3687834)">
                                <g
                                   id="g31433"
                                   transform="translate(-2.4678886,-1.410222)">
                                <g
                                   id="g31731"
                                   transform="translate(1.0576664,-0.70511063)">
                                <g
                                   id="g33243"
                                   transform="matrix(1.0772948,0,0,1.0772948,-7.3729128,-3.1743014)">
                                <g
                                   id="g35254"
                                   transform="translate(-2.2135012,-0.92031205)">
                                <g
                                   id="g36749"
                                   transform="translate(-0.98178042,-2.7817105)">
                                <g
                                   id="g37297"
                                   transform="translate(-6.7755742,-3.5033798)">
                                <g
                                   id="g38955"
                                   transform="matrix(1.2171094,0,0,1.2171094,-23.105122,-18.212482)">
                                <g
                                   id="g39618"
                                   transform="translate(-0.26888273,-0.26888316)">
                                <g
                                   id="g40032"
                                   transform="translate(-1.90129,-3.042064)">
                                <g
                                   id="g40543"
                                   transform="translate(0.3802582,-2.0914191)">
                                <g
                                   id="g41372"
                                   transform="translate(1.9657652,-7.9304203)">
                                <g
                                   id="g43278"
                                   transform="translate(1.5210324,-0.38025789)">
                                <g
                                   id="g44210"
                                   transform="matrix(1.1578947,0,0,1.1578947,-18.904476,-21.776183)">
                                <g
                                   id="g44833"
                                   transform="matrix(1.1196819,0,0,1.1196819,-12.538538,-14.547543)">
                                <g
                                   id="g47597"
                                   transform="translate(3.1109352,-1.2443743)">
                                <g
                                   id="g48754"
                                   transform="translate(-2.9035392,-6.6366609)">
                                <g
                                   id="g234"
                                   transform="matrix(0.04089637,0,0,0.04089637,104.63967,119.67231)">
                                <g
                                   id="g2138"
                                   transform="translate(-86.211222,-40.569988)">
                                <g
                                   id="g2696"
                                   transform="translate(-124306.44,-9412.2373)">
                                <g
                                   id="g3765"
                                   transform="translate(25.356243,-50.712489)">
                                <g
                                   id="g4557"
                                   transform="translate(46.61688,-35.859142)">
                                <g
                                   id="g5244"
                                   transform="translate(7.1718407,14.343658)">
                                <g
                                   id="g5807"
                                   transform="translate(-5.1984397,-21.113724)">
                                <g
                                   id="g6945"
                                   transform="translate(-10.142522,-243.41993)">
                                <g
                                   id="g11108"
                                   transform="translate(18.189368,-37.636113)">
                                <g
                                   id="g15049"
                                   transform="translate(-65.926228,141.99496)">
                                <g
                                   id="g19861"
                                   transform="matrix(0.07356842,0,0,0.07356842,115423.38,9039.2311)">
                                <g
                                   id="g20437"
                                   transform="translate(-478.38824,-785.88156)">
                                <g
                                   id="g21032"
                                   transform="translate(2047.1878,-1072.3367)">
                                <g
                                   id="g21869"
                                   transform="matrix(0.04321578,0,0,0.04321578,117368,10137.003)">
                                <g
                                   id="g25455"
                                   transform="translate(154741.46,-87178.414)">
                                <g
                                   id="g26278"
                                   transform="translate(-18012.371,-8233.4417)">
                                <g
                                   id="g27240"
                                   transform="translate(-0.00447131,5582.7624)">
                                <g
                                   id="g28306"
                                   transform="translate(-15790.441,-2255.7767)">
                                <g
                                   id="g31908"
                                   transform="matrix(1.1999076,0,0,1.1999076,2671.1084,-86700.35)">
                                <path
                                   style="fill:#f5ca74;stroke-width:257.837"
                                   d="M 102154.03,358525.57 C 97450.723,357988.75 90904.971,356481.31 84947.963,354563.16 64953.911,348125.05 45771.039,337078.27 14870.826,314208.07 4139.3292,306265.35 -1764.2113,297089.16 -1750.3629,288372.85 c 7.7351,-4869.68 1269.92839,-7956.33 4623.0512,-11305.53 1833.3635,-1831.22 2619.3968,-2405.28 4655.2601,-3399.85 2948.9896,-1440.66 5960.2156,-2343.67 9858.4516,-2956.35 4435.707,-697.17 16078.092,-626.31 21906.362,133.32 18848.123,2456.59 36431.608,9520.97 52659.671,21156.68 12246.267,8780.72 21977.097,19630.11 27234.827,30365.45 4508.46,9205.44 6358.49,19021.08 4755.44,25230.72 -2132.83,8261.86 -10107.36,12261.55 -21788.67,10928.28 z M -51602.923,309923.72 c -23.464,-16.16 -1672.038,-102.98 -3663.502,-192.92 -13432.393,-606.66 -28567.327,-3939.54 -42274.092,-9309.22 -17789.723,-6969.2 -33531.933,-17274.43 -47064.633,-30809.64 -8493.73,-8495.3 -12491.06,-14125.61 -14072.77,-19821.76 -425.66,-1532.94 -494.58,-1625.92 -1114.24,-1503.35 -4791.4,947.79 -13034.98,861.22 -17162.07,-180.22 -5899.75,-1488.77 -10454.42,-4030.72 -14146.44,-7895.12 -8568.21,-8968.24 -7395.64,-23344.16 2850.36,-34946.15 4234.28,-4794.65 11346.12,-9975.25 21738.47,-15835.34 12744.86,-7186.64 27519.35,-13881.35 41059.97,-18605.37 1382.35,-482.27 2463.59,-992.89 2402.74,-1134.7 -798.2,-1860.23 -2317.04,-7191.5 -2631.25,-9235.97 -823.46,-5357.98 72.94,-12657.83 2207.9,-17980.02 4135.3,-10308.8 10713.07,-15933.88 21440.76,-18335.41 2366.518,-529.78 3315.64,-598.31 7971.999,-575.65 5554.664,27.05 7980.689,338.7 12827.377,1647.82 1598.273,431.7 2127.153,682.87 2127.153,1010.19 0,272.45 362.178,560.06 966.888,767.8 531.788,182.69 1935.76,689.91 3119.94,1127.15 2086.528,770.41 2174.164,781.19 2836.204,349.04 2264.528,-1478.19 4668.869,-2298.13 12930.396,-4409.56 27964.311,-7146.97 36990.486,-9036.59 49504.6508,-10363.73 5385.3068,-571.12 22226.0132,-650.53 27588.5292,-130.09 15679.077,1521.68 30397.145,5385.87 41898.468,11000.32 7643.157,3731.06 13090.087,8410.16 16254.723,13963.38 1901.495,3336.72 3192.019,7963.94 3206.845,11498.3 5.156,1216.65 6.188,1217.97 701.651,953.51 1219.284,-463.57 12234.378,-3603.64 14514.145,-4137.55 7808.301,-1828.64 16262.461,-1967.54 21518.431,-353.55 6746.38,2071.67 12106.16,7646.66 14611.84,15198.54 1304.71,3932.34 1642.37,6103.9 1605.53,10326.01 -94.81,10869.94 -5602.93,21835.92 -16880.27,33606.53 l -2334.35,2436.43 989.27,-166.43 c 3088.06,-519.52 10908.94,-1493.49 15041.35,-1873.17 6609.02,-607.22 18912.55,-607.43 25010.16,-0.51 10846.08,1079.72 20609.89,3436.37 28524.45,6884.86 2480.05,1080.58 3060.42,1371.1 6541.34,3274.33 8174.92,4469.73 15533.2,11536.41 18449.77,17718.68 2643.57,5603.51 2563.77,10454.1 -267.2,16243.72 -2869.28,5867.96 -7522.69,10333.82 -14635.25,14045.44 -5027.76,2623.67 -13647.53,5255.35 -20693.46,6317.86 -23233.02,3503.49 -43971.35,4270.67 -66006.2,2441.8 -6568.753,-545.21 -18286.04,-2025.63 -23592.061,-2980.76 -2332.469,-419.86 -9201.084,-2082.01 -9585.545,-2319.62 -126.185,-77.98 -834.695,-176.53 -1574.48,-219 -2428.512,-139.43 -9868.907,-3288.31 -13853.619,-5863.05 -2159.073,-1395.1 -5357.692,-4613.89 -6245.836,-6285.24 -1449.636,-2728.03 -1893.27,-6722.63 -1114.371,-10034.2 199.85,-849.7 343.078,-1561.39 318.274,-1581.54 -24.752,-20.17 -1843.507,355.74 -4041.565,835.33 -11833.958,2582.02 -24154.17,2848.64 -32474.507,702.77 -10502.2184,-2708.58 -17593.0609,-8376.52 -20054.8911,-16030.52 -550.6929,-1712.14 -638.0995,-2477.2 -652.9793,-5715.38 -24.5718,-5345.03 845.1785,-8932.45 3538.2702,-14594.3 2818.62723,-5925.78 6106.1641,-10256.89 13003.5852,-17131.36 4727.199,-4711.47 9853.723,-9171.09 14795.46,-12870.72 1386.285,-1037.84 2467.988,-1939.49 2403.812,-2003.67 -123.839,-123.84 -8088.292,-686.37 -13690.769,-966.97 -3940.7043,-197.37 -35134.753,-2113.05 -38203.361,-2346.13 l -2106.219,-159.99 2022.716,3958.42 c 7110.601,13915.31 13002.727,32150.95 15108.428,46759.32 694.215,4816.13 643.0576,12815.05 -105.912,16560.27 -2083.406,10418.07 -7384.335,18148.46 -15133.324,22069.09 -4173.724,2111.7 -8213.992,3036.7 -13339.918,3054.1 l -3542.122,12.02 2482.738,2615.39 c 7782.492,8198.45 11434.18,15905.39 11434.18,24132.12 0,5140.49 -1421.725,8949.38 -4490.768,12031.06 -3575.817,3590.54 -8343.011,5195.81 -15835.677,5332.4 -1607.354,29.31 -2941.659,40.05 -2965.122,23.88 z M -84037.1,236886.21 c -194.558,-267.23 -1525.834,-1978.62 -2958.387,-3803.09 -1432.554,-1824.48 -3773.461,-4999.61 -5202.019,-7055.86 -1428.554,-2056.25 -2756.991,-3958.24 -2952.078,-4226.65 -335.59,-461.72 -526.91,-367.11 -3550.193,1755.6 -1757.523,1233.99 -3873.203,2661.92 -4701.513,3173.18 -828.31,511.27 -1414.85,1009.78 -1303.42,1107.8 111.43,98.02 2755.19,1313.74 5875.009,2701.58 3119.825,1387.85 7760.886,3480.06 10313.469,4649.37 2552.584,1169.31 4684.221,2139.05 4736.969,2154.98 52.751,15.93 -63.276,-189.68 -257.837,-456.91 z"
                                   id="path31916" />
                                <path
                                   style="fill:#e9a341;stroke-width:257.837"
                                   d="m 1137.3001,298841.55 c -994.85265,-1977.5 -2291.0984,-5815.37 -2517.1542,-7452.67 l -177.9898,-1289.19 726.87779,902.43 c 1643.91281,2040.94 7265.04221,6784.67 11616.19411,9803.03 28360.291,17659.59 63481.447,41698.68 93818.252,41793.82 2074.63,-465.22 4254.3,-1294.55 4254.3,-1618.73 0,-281.14 -206.4,-568.32 -2564.29,-3567.51 -3236.62,-4116.97 -7391.713,-7936.03 -13398.355,-12314.84 -24563.1,-16749.7 -48136.966,-30946.96 -72971.751,-39256.22 -4101.432,-1277.54 -5382.457,-2010.23 -6797.978,-3888.17 -1527.593,-2026.63 -477.354,-3582.48 2419.576,-3584.42 1911.98,-1.29 3666.838,634.6 7915.574,2868.22 12711.249,6521.31 23451.224,11131.75 38342.023,18011.24 17661.124,9097.4 40648.321,17309.7 51577.401,33162.62 770.91,1158.62 1473.28,2293.18 1560.79,2521.24 262.6,684.3 543.23,262.09 1309.53,-1970.03 689.63,-2008.78 727.53,-2349.12 696.31,-6249.86 -27,-3369.09 -152.33,-4668.98 -683.73,-7090.51 -357.91,-1630.82 -614.45,-3003.11 -570.13,-3049.53 44.32,-46.43 541.12,707.75 1104,1675.94 3685.6,6339.33 6169.57,13047.88 7157.55,19330.71 510.13,3243.97 392.15,8464.52 -236,10441.61 -2294.51,7222.03 -8090.94,10610.24 -17954.56,10495.01 C 66283.795,345939.69 22654.264,331103 1137.3001,298841.55 Z M -53595.187,309731.4 c -62.197,-57.25 -1547.053,-181 -3299.678,-275 -3400.441,-182.36 -3434.344,-185.67 -8158.225,-796.23 -31005.611,-4413.8 -60527.52,-20251.44 -79800.47,-39565.14 -8407.33,-8446.28 -12026.15,-13601.46 -13671.48,-19475.71 -238.32,-850.86 -537.48,-1544.88 -664.8,-1542.27 -127.32,2.6 -1507.78,147.1 -3067.69,321.1 -4202.34,468.74 -6119.69,526.74 -9434.42,285.37 -14500.75,-1055.87 -24922.86,-10563.5 -24976.76,-22785.18 -21.68,-4919.23 1903.65,-11205.93 4810.9,-15708.73 4101.61,-6352.67 10502.37,-11868.5 20949.89,-18053.51 13347.35,-7901.73 28762.61,-15152.41 43071.59,-20259.03 2481.68,-885.66 4612.14,-1700.85 4734.35,-1811.53 122.22,-110.67 -136.96,-1284.7 -575.96,-2608.95 -1478.56,-4460.1 -1861.43,-6365.14 -2016.58,-10033.83 79.74,-1520.92 176.53,-3040.91 264.79,-4561.36 l 2341.95,-166.48 c 1288.08,-91.56 3238.86,-234.64 4335.08,-317.96 l 1993.12,-151.49 271.09,739.29 c 19238.714,37032.76 34571.905,75809.29 71546.665,94330.38 1992.088,749.79 6614.345,1983.86 6786.355,1811.86 60.02,-60.03 -470.41,-839.51 -1178.736,-1732.18 -7053.933,-9586.26 -13366.129,-21877.94 -18056.577,-30629.68 -16185.3,-27440.38 -30298.548,-46165.1 -46383.787,-69830.76 -3545.96,-5279.17 -4321.58,-7044.43 -3587.48,-8164.82 510.59,-779.26 1868.05,-1057.08 3130.03,-640.59 1833.82,605.22 4815.114,4219.29 8610.726,10438.35 20847.417,32601.31 51543.08,67771.89 67869.046,95528.51 806.359,1498.88 2550.096,4656.95 2673.275,4841.54 5144.713,-929.43 9099.213,-4348.51 12731.531,-7308.55 919.175,-982.59 1568.983,-1505.38 1568.983,-1262.28 0,1763.88 -2312.13,8533.7 -3915.496,11464.39 -1977.525,3614.61 -5338.339,7412.84 -8296.577,9376.41 -4548.142,3018.88 -10671.54,4600.1 -17035.793,4399.08 -1998.243,-63.11 -2689.647,-183.38 -3143.12,-546.74 -5767.737,-5254.71 -12457.01,-10273.34 -19047.441,-15073.25 -7533.699,-4907.35 -13871.748,-8585.43 -21106.238,-12568.45 -1052.477,-906.15 -6888.392,-8656.39 -10455.096,-13884.63 -894.871,-1311.74 -1684.685,-2384.99 -1755.136,-2384.99 -70.454,0 -575.969,354.72 -1123.366,788.27 -547.398,433.55 -2696.573,1931.05 -4775.948,3327.78 l -3780.67,2539.51 -1707.08,-657.32 c -7681.5,-2957.8 -10781.86,-3553.03 -17412.29,-3342.92 -4537.75,143.79 -9570.69,761.56 -10065.57,1235.49 -151.46,145.06 -82.06,234.58 181.85,234.58 24314.3,10205.38 48121.343,27010.95 66456.055,41003.03 5262.143,4077.3 10537.258,9012.45 14048.027,13142.69 1241.636,1460.71 3812.965,5430.26 3633.67,5609.55 -178.794,178.79 -1766.924,-737.25 -4145.269,-2391.02 -3028.62,-2105.93 -4967.905,-3671.24 -8714.588,-7034.01 -21138.827,-17233.06 -40182.535,-30405.66 -65542.385,-41642.21 -5966.99,-2317.05 -8498.22,-3094.06 -13923.19,-4273.95 -5656.63,-1230.28 -5255.17,-1214.53 -7118.88,-279.26 -2776.1,1393.12 -5143.3,3217.32 -6415.33,4943.72 -702.04,952.81 -703.57,964.31 -378.04,2836.21 721.21,4147.03 2547.73,8059.55 5754.54,12326.51 2621.58,3488.27 4542.64,5603.49 9794.58,10784.55 20116.03,19999.61 48916.833,33485.48 75714.15,37782.98 6889.341,1075.64 9996.273,1316.24 17017.224,1317.79 7277.305,1.55 8936.825,-213.53 12505.081,-1621.15 2363.45,-932.34 3482.988,-1685.84 5509.26,-3707.98 l 1770.629,-1767.01 -172.882,1872.87 c -418.206,4530.59 -1700.55,7435.91 -4555.431,10320.94 -3602.113,3640.16 -7892.942,5037.95 -16103.835,5246.03 -2419.483,61.31 -4449.947,64.63 -4512.143,7.37 z M 76112.517,268410.67 c -7850.2,-1846.64 -16557.501,-5577.25 -20626.938,-8837.51 -1250.817,-1002.1 -3590.144,-3395.44 -3602.288,-3685.47 -4.126,-97.65 1181.846,384.89 2635.4,1072.31 7437.094,3517.19 16374.876,5705.76 30489.193,7465.81 13011.369,1622.51 21842.486,2149.11 35710.386,2129.43 22908.36,-32.51 43502.83,-2400.46 55692.73,-6403.55 10448.45,-3431.19 18467.33,-9495.42 22136.5,-16740.57 1323.81,-2614.03 1315.71,-2737.02 -262.76,-3991.1 -6737.54,-5352.86 -15438.49,-8531.55 -27450.64,-10028.42 -27007.88,-2155.07 -58506.02,-3494.38 -82345.42,4277.24 -2934.569,974.26 -8821.316,2540.01 -10378.805,2760.55 -941.052,133.26 -963.304,117.91 -805.662,-555.94 591.271,-2527.37 6484.078,-5364.12 15567.691,-7494.16 3949.517,-926.13 8602.416,-1800.85 16545.276,-3110.4 19762.22,-3913.23 38738.96,-4851.75 59195.73,-4658.73 12175.98,583.29 21723.47,3013.77 28893.34,7355.29 1231.43,745.66 2276.05,1322.03 2321.38,1280.83 142.84,-129.87 -1057.34,-2768.39 -1991.99,-4379.29 -493.68,-850.86 -1712.3,-2527 -2708.04,-3724.75 l -1810.4,-2177.74 1151.32,798.42 c 3832.1,2657.48 8435.88,7134.52 10771.93,10475.37 8205.4,11734.78 3092.88,25443.99 -12585.73,33748.77 -36955.93,11531.64 -75671.03,13804.36 -116542.203,4423.61 z M 19523.845,247855.88 c -7057.512,-714.91 -11964.2781,-4387.57 -16516.9012,-7347.55 -4838.8192,-3146.05 -7460.6654,-6344.3 -9027.6965,-11012.41 -859.8339,-2561.4 -844.588,-2986.62 76.7322,-2140.28 389.9781,358.24 1069.0504,897.8 1509.0487,1199.02 l 799.9978,547.68 317.2526,-1086.33 c 435.6255,-1491.66 2870.31578,-6067.26 4332.4485,-8142.13 8086.8391,-12074.3 19841.6969,-22116.4 27885.3849,-27738.53 22751.405,-15226.76 43753.673,-28095.9 69253.526,-38527.33 l 1800.964,-534.77 951.548,659.42 c 1668.2,1156.07 1606.45,1311.27 -1072.654,2696.62 -921.767,476.64 -3184.284,1694.77 -5027.816,2706.97 -1843.533,1012.2 -4106.05,2250.05 -5027.816,2750.78 -18023.882,9652.72 -37436.303,20931.67 -52856.529,31514.52 -16733.101,10630.61 -27076.5901,25778.52 -36870.651638,37776.46 0,233.07 4485.876838,1952.1 6961.591538,2667.73 17402.4101,4164.48 35403.3271,-112.17 54123.8991,-6832.03 1335.182,-542.55 2537.217,-986.46 2671.189,-986.46 133.946,0 -494.377,535.85 -1396.289,1190.77 -2312.409,1679.14 -6854.951,6374.45 -8323.15,8603.05 -1478.576,2222.74 -2416.314,4577.15 -3589.217,6957.28 -250.488,515.42 -675.635,720.65 -2237.79,1080.23 -2904.299,668.54 -10305.337,4185.21 -13640.558,4631.28 -3640.861,486.95 -11963.643,-316.64 -15096.514,-633.99 z m 62003.243,-30972.35 c 0,-52.98 435.1,-359.3 966.888,-680.7 21228.314,-13976.02 39576.034,-30695.23 43563.344,-54376.92 125.72,-3259.81 -240.74,-6944.86 -861.53,-8663.58 -376.01,-1040.91 1246.61,804.95 2512.2,2857.87 1628.96,2642.33 3141.36,6564.05 3730.46,9673.26 604.81,3192.13 603.18,9590.8 -3.09,12368.81 -1468.38,6727.53 -4897.87,13668.6 -9977.87,20194.6 -1497.85,1924.22 -8559.95,9918.4 -8824.7,9989.39 -19.85,5.37 -500.41,67.55 -1067.65,138.21 -5394.92,672.04 -20486.207,4896.6 -28297.576,7921.45 -957.219,370.67 -1740.398,630.59 -1740.398,577.61 z M 24029.499,176494.87 c -14657.0764,-959.57 -29787.0594,-1945.83 -45121.427,-2814.52 -3048.919,-159.55 -5784.657,-336.7 -6079.419,-393.67 -294.761,-56.98 -681.024,-425.45 -858.361,-818.82 -881.725,-1955.87 -6834.961,-11227.03 -9151.337,-14251.66 -9800.983,-12797.72 -20020.444,-21555.21 -32279.33,-27661.51 l -3166.609,-1577.33 906.907,-616.26 c 2132.031,-1448.75 2345.425,-1512.82 20848.007,-6259.24 24574.093,-7138.4 43410.4129,-8875.94 68197.814,-8390.68 13484.285,1565.23 28345.24,4968.23 39449.019,9619.18 13649.231,5808.14 21647.327,14936.46 22112.902,25237.67 l 129.125,2856.92 -2676.861,855.1 c -14842.758,4741.38 -31490.553,12805.09 -44781.288,21690.8 -2311.326,1545.28 -4283.777,2793.02 -4383.225,2772.77 -99.422,-20.24 -1515.1,-132.19 -3145.917,-248.75 z m 36900.973,-36073.54 c 2273.398,-631.49 3837.229,-2411.12 3837.229,-4366.74 0,-2994.21 -3734.868,-6129.69 -9660.523,-8110.18 -1808.467,-604.43 -10995.035,-2923.56 -19346.108,-4883.89 -22363.797,-5161.54 -43289.6291,-6497.46 -64831.237,-1805.33 -3353.363,1099.99 -7234.128,3692.71 -7234.128,4833.08 19421.658,10099.58 67834.014,8905.73 97234.767,14333.06 z"
                                   id="path31912"
                                   sodipodi:nodetypes="cscsccssccsscccssssssssccssccssssssssssccsscccscccssccccsssscccsssscsssccsssccsssssccssscsssscssssssssccsssccsssscssccssssscsccccssscccccssccssssccssscssssssccsssscscccscsssccsscccc" />
                                <path
                                   style="fill:#dd9a3b;stroke-width:257.837"
                                   d="m -158358.13,250125.03 c -248.81,-648.38 -175.41,-815.68 128.54,-292.99 150.5,258.8 219.31,524.87 152.93,591.25 -66.39,66.39 -193.05,-67.83 -281.47,-298.26 z m -398.25,-1558.54 c 12.37,-300.37 73.47,-361.46 155.77,-155.78 74.48,186.13 65.32,408.51 -20.34,494.19 -85.68,85.68 -146.62,-66.61 -135.42,-338.41 z m -2389.23,-541.39 c 186.12,-74.48 408.51,-65.32 494.18,20.35 85.68,85.67 -66.61,146.61 -338.41,135.42 -300.36,-12.38 -361.46,-73.47 -155.77,-155.78 z m -25029.93,-4822.17 c -13942.13,-12631.8 -11105.09,-11011.56 7158.62,-8858.59 6004.57,0.51 10998.94,-826.3 19853.43,-3286.83 15525.83,-4290.26 31709.39,-10966.01 43315.96,-18766.36 338.44,-2333.35 526.37,-9060.32 359.41,-12865.3 -196.84,-4486.23 -380.67,-5581.73 -1766.45,-10527.08 -1206.85,-4306.87 -1628.48,-6672.69 -1515.65,-8504.58 l 87.09,-1414.07 3700.67,7396.97 c 6422.68,12837.79 13710.9,25928.64 17884.881,32124.2 1483.11,2201.43 1552.226,1999.12 -1386.36,4058.24 -5806.321,6355.17 -15288.021,2338.46 -22332.751,994.79 -9743.12,-170.9 -18455.91,2086.85 -27575.1,5194.31 -4071.64,1799.62 -7764.51,5009.17 -9300.76,8083.48 -1140.95,2283.24 -1653.54,4872.57 -1553.88,7849.3 82.43,2461.78 78.97,2477.87 -561.66,2614.26 -9592.32,1959.81 -18498.05,-585.78 -26367.45,-4092.74 z m -3357.92,-1705.47 c -36848.21,-208293.988 -18424.11,-104146.99 0,0 z m 320585.54,-62804.73 c 12.38,-300.37 73.49,-361.46 155.79,-155.78 74.49,186.13 65.33,408.52 -20.37,494.19 -85.68,85.68 -146.63,-66.61 -135.44,-338.41 z M 22942.975,176392.88 c -15912.1423,-1094.33 -32101.8083,-1981.57 -49068.92,-3113.83 l -1295.385,-130.87 c -1567.582,-2759.8 -3362.66,-5546.21 -4944.731,-8066.07 -1186.283,-1825.26 -2104.38,-3371.14 -2040.218,-3435.31 64.165,-64.16 3985.349,124.66 8713.742,419.61 21187.3365,1322.31 42374.955,2639.55 63565.393,3911.05 2721.415,163.71 5244.992,240.89 5607.948,171.5 362.983,-69.38 659.959,-94.9 659.959,-56.7 0,38.21 -1247.285,792.94 -2771.745,1677.19 -4470.759,2593.23 -7206.227,4298.38 -10601.575,6608.49 l -3188.77,2169.56 -2280.979,-46.15 c -1254.556,-25.4 -2314.187,-74.19 -2354.719,-108.47 z"
                                   id="path31910"
                                   sodipodi:nodetypes="ssssssssssssssccccssscsscccssccccsssssccccsccsssscsc" />
                                </g>
                                </g>
                                </g>
                                </g>
                                </g>
                                </g>
                                </g>
                                </g>
                                </g>
                                </g>
                                </g>
                                </g>
                                </g>
                                </g>
                                </g>
                                </g>
                                </g>
                                </g>
                                </g>
                                </g>
                                </g>
                                </g>
                                </g>
                                </g>
                                </g>
                                </g>
                                </g>
                                </g>
                                </g>
                                </g>
                                </g>
                                </g>
                                </g>
                                </g>
                                </g>
                                </g>
                                </g>
                                </g>
                                </g>
                              </g>
                            </g>
                          </g>
                        </g>
                      </g>
                    </g>
                  </g>
                </g>
              </g>
            </g>
          </g>
        </g>
      </g>
    </g>
  </g>
</svg>
