<?xml version="1.0" encoding="UTF-8" standalone="no"?>
<!-- Created with Inkscape (http://www.inkscape.org/) -->

<svg
   width="64"
   height="64"
   viewBox="0 0 16.933333 16.933334"
   version="1.1"
   id="svg5"
   inkscape:version="1.2 (dc2aedaf03, 2022-05-15)"
   sodipodi:docname="blette.svg"
   xmlns:inkscape="http://www.inkscape.org/namespaces/inkscape"
   xmlns:sodipodi="http://sodipodi.sourceforge.net/DTD/sodipodi-0.dtd"
   xmlns="http://www.w3.org/2000/svg"
   xmlns:svg="http://www.w3.org/2000/svg">
  <sodipodi:namedview
     id="namedview7"
     pagecolor="#ffffff"
     bordercolor="#666666"
     borderopacity="1.0"
     inkscape:pageshadow="2"
     inkscape:pageopacity="0.0"
     inkscape:pagecheckerboard="0"
     inkscape:document-units="mm"
     showgrid="false"
     units="px"
     inkscape:zoom="8"
     inkscape:cx="34.9375"
     inkscape:cy="49.375"
     inkscape:window-width="1920"
     inkscape:window-height="1017"
     inkscape:window-x="1912"
     inkscape:window-y="-8"
     inkscape:window-maximized="1"
     inkscape:current-layer="g28306"
     inkscape:showpageshadow="2"
     inkscape:deskcolor="#d1d1d1" />
  <defs
     id="defs2" />
  <g
     inkscape:label="Calque 1"
     inkscape:groupmode="layer"
     id="layer1">
    <g
       id="g4128"
       transform="translate(-0.63104184,0.12620835)">
      <g
         id="g5578"
         transform="translate(0.08924235,0.08924306)">
        <g
           id="g7501"
           transform="translate(-0.06310417,0.94656242)">
          <g
             id="g9467"
             transform="translate(-0.08924275,-0.80318511)">
            <g
               id="g10302"
               transform="translate(0.31234979,-0.04462139)">
              <g
                 id="g11479"
                 transform="translate(-0.12620833,0.06310418)">
                <g
                   id="g11873"
                   transform="translate(-0.23575769,0.66462456)">
                  <g
                     id="g12382"
                     transform="translate(-121.98459,-82.267525)">
                    <g
                       id="g13305"
                       transform="matrix(0.13266609,0,0,0.13266609,114.63867,78.215696)">
                      <g
                         id="g17429"
                         transform="translate(0.90513437,5.6640979)">
                        <g
                           id="g18595"
                           transform="translate(-3.3634362,-8.7449387)">
                          <g
                             id="g21002"
                             transform="translate(1.7082278,-2.8204445)">
                            <g
                               id="g23814"
                               transform="translate(8.7253043,-1.1218249)">
                              <g
                                 id="g24838"
                                 transform="translate(11.143454,-0.85716864)">
                                <g
                                   id="g25315"
                                   transform="translate(-3.490122,2.4929446)">
                                <g
                                   id="g27220"
                                   transform="translate(2.4678888,1.2339445)">
                                <g
                                   id="g29753"
                                   transform="translate(1.4759287,-2.3737724)">
                                <g
                                   id="g30615"
                                   transform="translate(0.92006037,1.3687834)">
                                <g
                                   id="g31433"
                                   transform="translate(-2.4678886,-1.410222)">
                                <g
                                   id="g31731"
                                   transform="translate(1.0576664,-0.70511063)">
                                <g
                                   id="g33243"
                                   transform="matrix(1.0772948,0,0,1.0772948,-7.3729128,-3.1743014)">
                                <g
                                   id="g35254"
                                   transform="translate(-2.2135012,-0.92031205)">
                                <g
                                   id="g36749"
                                   transform="translate(-0.98178042,-2.7817105)">
                                <g
                                   id="g37297"
                                   transform="translate(-6.7755742,-3.5033798)">
                                <g
                                   id="g38955"
                                   transform="matrix(1.2171094,0,0,1.2171094,-23.105122,-18.212482)">
                                <g
                                   id="g39618"
                                   transform="translate(-0.26888273,-0.26888316)">
                                <g
                                   id="g40032"
                                   transform="translate(-1.90129,-3.042064)">
                                <g
                                   id="g40543"
                                   transform="translate(0.3802582,-2.0914191)">
                                <g
                                   id="g41372"
                                   transform="translate(1.9657652,-7.9304203)">
                                <g
                                   id="g43278"
                                   transform="translate(1.5210324,-0.38025789)">
                                <g
                                   id="g44210"
                                   transform="matrix(1.1578947,0,0,1.1578947,-18.904476,-21.776183)">
                                <g
                                   id="g44833"
                                   transform="matrix(1.1196819,0,0,1.1196819,-12.538538,-14.547543)">
                                <g
                                   id="g47597"
                                   transform="translate(3.1109352,-1.2443743)">
                                <g
                                   id="g48754"
                                   transform="translate(-2.9035392,-6.6366609)">
                                <g
                                   id="g234"
                                   transform="matrix(0.04089637,0,0,0.04089637,104.63967,119.67231)">
                                <g
                                   id="g2138"
                                   transform="translate(-86.211222,-40.569988)">
                                <g
                                   id="g2696"
                                   transform="translate(-124306.44,-9412.2373)">
                                <g
                                   id="g3765"
                                   transform="translate(25.356243,-50.712489)">
                                <g
                                   id="g4557"
                                   transform="translate(46.61688,-35.859142)">
                                <g
                                   id="g5244"
                                   transform="translate(7.1718407,14.343658)">
                                <g
                                   id="g5807"
                                   transform="translate(-5.1984397,-21.113724)">
                                <g
                                   id="g6945"
                                   transform="translate(-10.142522,-243.41993)">
                                <g
                                   id="g11108"
                                   transform="translate(18.189368,-37.636113)">
                                <g
                                   id="g15049"
                                   transform="translate(-65.926228,141.99496)">
                                <g
                                   id="g19861"
                                   transform="matrix(0.07356842,0,0,0.07356842,115423.38,9039.2311)">
                                <g
                                   id="g20437"
                                   transform="translate(-478.38824,-785.88156)">
                                <g
                                   id="g21032"
                                   transform="translate(2047.1878,-1072.3367)">
                                <g
                                   id="g21869"
                                   transform="matrix(0.04321578,0,0,0.04321578,117368,10137.003)">
                                <g
                                   id="g25455"
                                   transform="translate(154741.46,-87178.414)">
                                <g
                                   id="g26278"
                                   transform="translate(-18012.371,-8233.4417)">
                                <g
                                   id="g27240"
                                   transform="translate(-0.00447131,5582.7624)">
                                <g
                                   id="g28306"
                                   transform="translate(-15790.441,-2255.7767)">
                                <g
                                   id="g32281"
                                   transform="translate(-6767.3287,-20301.99)">
                                <path
                                   style="fill:#27cc67;stroke-width:865.284"
                                   d="m -9852.5946,360297.82 -2941.9674,-2941.97 V 315221.83 273087.8 l -4542.743,730.16 c -2498.509,401.59 -9409.969,720.99 -15358.8,709.79 -12495.496,-23.54 -19266.719,-1686.4 -30424.77,-7471.67 l -6629.446,-3437.25 -3321.326,1689.7 c -14807.786,7533.37 -34774.413,7584.95 -49802.613,128.69 -7535.94,-3738.98 -11848.83,-6985.91 -18145.7,-13660.93 -5733.33,-6077.63 -8728.99,-11310.67 -14183.69,-24777.06 -3369.14,-8317.65 -9199.98,-15602.52 -16863.07,-21068.23 -9035.68,-6444.72 -14071.84,-11334.03 -18110.14,-17582.06 -5194.38,-8036.71 -6939.58,-14679.17 -7429.91,-28279.11 -495.81,-13751.98 -2722.88,-21971.51 -8270.61,-30524.7 -6876.7,-10602.11 -9367.74,-18288.48 -9383.48,-28953.71 -13,-8806.471 1565.03,-14841.069 6396.55,-24461.189 6025.41,-11997.317 6758.7,-15507.309 6981.9,-33420.013 212.3,-17037.27 1018.8,-21506.291 5693.52,-31549.034 7623.01,-16376.5706 21403.78,-28168.883 38281.87,-32758.074 8078.31,-2196.513 21793.95,-1933.491 30029.62,575.872 11645.34,3548.266 19361.48,8230.443 29233.698,17739.094 l 8949.326,8619.7521 6650.706,-6871.3167 c 7463.745,-7711.3324 11379.071,-14414.6524 16045.784,-27471.5584 7082.224,-19815.188 21219.527,-35578.86 39760.783,-44334.888 10016.931,-4730.453 16013.768,-5991.288 28287.093,-5947.363 12901.046,46.172 18705.158,1388.824 29852.315,6905.663 17148.312,8486.872 31039.918,24076.905 37269.75,41826.447 5395.334,15371.988 11866.676,25959.6531 19880.716,32526.5541 l 3961.558,3246.1978 6030.678,-6544.8587 C 111055.32,-15446.864 127513.05,-22936.998 145552.5,-22948.59 c 16071.89,-10.323 28242.92,5087.149 39828.72,16681.0849 5808.25,5812.33574 8161.03,8952.5605 11044.28,14740.6483 5609.56,11261.1408 7098.64,18489.7188 7113.85,34533.4698 15.32,16135.037 1124.2,21666.645 6435.91,32104.633 5321.97,10458.131 6859.78,16205.377 6847.59,25591.374 -12.37,9527.56 -2423.31,17893 -7356.61,25525.77 -7578.44,11725.32 -10258.69,20484.42 -10278.89,33591.63 -29.77,19312.33 -6669.22,32486.24 -21670.2,42997.7 -12146.56,8511.33 -17950.63,16141.46 -23628.2,31062.03 -6542.7,17194.19 -22545.22,31153.73 -40784.62,35577.81 -11882.89,2882.27 -26341.768,1519.88 -37355.385,-3519.82 l -4474.568,-2047.51 -7522.593,3775.41 c -11230.398,5636.28 -21192.963,7691.2 -33975.56,7007.95 -5567.44,-297.59 -11388.096,-783.79 -12934.792,-1080.44 l -2812.175,-539.37 v 42563.71 42563.71 l -2529.295,2529.29 c -2428.0493,2428.05 -2847.1498,2529.29 -10469.9428,2529.29 -7876.8231,0 -7964.2948,-23.62 -10882.6138,-2941.96 z"
                                   id="path32287" />
                                <path
                                   style="fill:#00b52d;stroke-width:865.284"
                                   d="m -7318.4013,362031.6 c -1509.2292,-685.76 -3164.0857,-2031.68 -3677.4587,-2990.94 -622.668,-1163.45 -972.052,-14654.16 -1049.461,-40522.46 -63.858,-21328.11 -355.857,-50963.88 -648.963,-65857.27 l -532.92,-27078.91 -23345.808,-12310.54 c -21319.321,-11241.94 -23515.032,-12609.32 -25295.338,-15752.68 -2559.892,-4519.81 -2571.842,-9668.59 -31.15,-13401.7 3220.944,-4732.55 6185.685,-6419.69 11270.763,-6413.8 4638.591,5.19 7300.258,1218.7 31560.819,14387.36 l 6273.313,3405.15 -11.855,-18880.54 -11.854,-18880.55 -22770.126,-11900.65 c -12523.565,-6545.36 -23589.55,-12775.41 -24591.074,-13844.55 -7976.945,-8515.51 -2027.525,-22278.09 9630.565,-22278.09 3705.685,0 6315.962,1095.44 20618.38,8652.84 9006.555,4759.07 16554.25,8652.85 16772.657,8652.85 218.406,0 292.163,-8398.64 163.902,-18663.66 l -233.194,-18663.65 -23353.501,-12302.978 c -21299.246,-11220.759 -23524.308,-12604.548 -25295.337,-15731.4 -2552.053,-4505.805 -2561.069,-9659.413 -23.449,-13388.002 3223.167,-4735.815 6269.522,-6480.92 11312.149,-6480.168 4011.97,0.606 6194.52,911.05 20919.698,8726.594 l 16440.405,8725.918 432.643,-23158.985 c 406.813,-21776.485 540.698,-23304.681 2242.774,-25599.632 C -5728.891,3978.2499 2111.0711,2200.8672 8080.3486,6257.0934 13739.551,10102.604 14029.257,11598.732 14029.257,36979.231 v 22620.198 l 17606.082,-9122.737 c 18615.368,-9645.707 20784.973,-10284.59 26199.872,-7715.05 7974.886,3784.33 10071.132,14003.565 4276.184,20846.52 -1203.014,1420.573 -11469.303,7366.825 -25059.998,14514.802 l -23022.14,12108.393 v 18392.883 c 0,10116.09 232.598,18392.88 516.887,18392.88 284.28,0 8102.844,-3939.43 17374.584,-8754.28 16398.603,-8515.87 16986.192,-8743.63 21575.635,-8363.03 3906.863,323.99 5236.667,894.02 7735.383,3315.87 6481.077,6281.71 5435.493,16216.97 -2207.695,20977.87 -1665.673,1037.53 -12373.568,6810.33 -23795.324,12828.43 l -20766.827,10941.99 -233.359,18764.78 -233.367,18764.78 17637.613,-9144.96 c 18639.275,-9664.3 20798.108,-10301.78 26202.424,-7737.26 7973.094,3783.48 10066.832,13980.17 4282.215,20854.8 -1212.696,1441.21 -11313.733,7295.06 -25055.446,14520.38 l -23023.62,12105.7 -4.326,65531.65 -4.327,65531.65 -2452.008,2744.27 c -2298.8967,2572.92 -2879.7103,2764.08 -9301.8085,3061.47 -4714.5978,218.32 -7705.1681,-71.47 -9593.8418,-929.63 z M -111869.64,268947.43 c -8208.67,-2184.14 -11955.79,-3853.96 -18753.44,-8357.04 -10319.66,-6836.24 -17863.14,-16807.83 -22575.83,-29842.59 -4231.75,-11704.57 -10290.99,-19388.16 -21496.46,-27259.2 -10611.46,-7453.79 -16140.98,-14417.43 -19956.24,-25132.05 -1329.38,-3733.35 -1972.57,-8424.46 -2471.55,-18025.98 -801.29,-15419.12 -2474.07,-21401.75 -8773.25,-31377.34 -11019.43,-17450.74 -12126.45,-33145.063 -3570.47,-50619.241 7204.23,-14713.453 7413.67,-15626.588 7688.22,-33518.897 287.32,-18724.8 1621.61,-25317.947 7404.93,-36590.0432 2779.38,-5417.1966 5408.78,-8859.93343 11059.66,-14480.6657 11561.13,-11499.4651 23310.14,-16382.3121 39482.26,-16408.6921 17767.35,-28.978 33723.47,7339.839 47180.771,21788.92201 l 5700.46,6120.58029 -5267.817,5383.7027 c -9044.494,9243.453 -14260.014,19973.007 -16033.824,32985.302 -920.91,6755.588 -786.87,8825.789 1659.29,25627.806 1197.89,8228.033 36.86,18209.54 -3147.3,27057.515 -1198.87,3331.345 -3333.29,9292.901 -4743.14,13247.891 -3396.68,9528.52 -4082.4,18891.15 -2100.11,28674.19 1670.89,8246.1 4445.73,14552.25 11101.46,25229.22 7504.26,12038.19 8574.71,16294.76 9333.86,37115.48 519.66,14252.46 1015.46,19008.99 2522.941,24204.28 3817.436,13156.18 13095.812,27230.77 23006.444,34899.04 l 4676.802,3618.64 -3948.994,2006.94 c -10311.232,5240.31 -26249.683,6773.05 -37978.673,3652.23 z m 197152.454,46.29 c -3404.177,-923.85 -7752.456,-2477.14 -9662.849,-3451.74 l -3473.433,-1772.02 8837.237,-8888.11 c 9530.148,-9585.01 14194.126,-17052.04 17712.079,-28357.01 2521.242,-8102.04 2928.822,-11710.57 3126.582,-27681.24 162.66,-13135.63 373.28,-14863.91 2617.51,-21478.99 1342.35,-3956.67 3743.62,-9310.62 5336.19,-11897.67 1592.55,-2587.05 4242.79,-6893.86 5889.41,-9570.67 8248.46,-13409.1 9981.18,-32818.77 4254.9,-47663 -6266.39,-16244.365 -7431.59,-20506.695 -7868.04,-28781.437 -297.96,-5649.001 3.46,-10523.642 957.48,-15479.749 3918.57,-20359.063 -906.36,-38075.044 -14265.654,-52380.04 L 92597.833,5010.5429 96904.657,298.19491 C 106236.5,-9912.3308 114520.84,-15437.531 127003.12,-19775.839 c 6094.08,-2118.039 8135.66,-2391.632 18116.74,-2427.827 9594.34,-34.793 12139.51,259.035 17305.69,1997.854 15796.97,5316.897 28216.02,16509.935 35056.06,31595.31 4587.59,10117.72 5492.16,15215.561 5624.02,31695.025 139.6,17446.904 774.49,20395.188 7333.18,34054.11 5034.06,10483.761 6478.85,17123.392 5824.82,26768.367 -607.23,8954.66 -2729.15,14976.66 -8820.44,25032.34 -6773.77,11182.36 -9042.13,19868.61 -9101.47,34852.37 -66.02,16678.96 -6879.99,28644.07 -22897.38,40207.19 -11465.63,8277.17 -15406.58,13491.34 -21288.97,28166.96 -7176.11,17903.24 -19796.45,30145.92 -36656.77,35559.85 -9686.69,3110.45 -23433.244,3651.51 -32215.786,1268.01 z"
                                   id="path32285" />
                                <path
                                   style="fill:#00a32b;stroke-width:865.284"
                                   d="m -110549.44,269302.39 c -7719.62,-1673.4 -18437.29,-7002.53 -24898.28,-12380.14 -6710.61,-5585.37 -13222.3,-14727.74 -16301.73,-22887.56 -5667.71,-15018.15 -11467.64,-22668.15 -23667.26,-31216.64 -15325.12,-10738.6 -20474.02,-20836.31 -21664.7,-42487.48 -865.46,-15737.27 -2404.75,-21153.7 -9098.48,-32015.52 -6309.59,-10238.5 -8578.36,-17575.39 -8562.25,-27689.11 14.82,-9294.374 1559.8,-15040.408 6906.48,-25686.271 5337.93,-10628.463 6381.03,-15836.074 6396.29,-31933.056 10,-10552.179 387.06,-14980.29 1731.45,-20334.186 5136.07,-20453.7989 19178.54,-35999.391 38711.5,-42855.237 5649.56,-1982.932 19267.4,-3083.889 25845.95,-2089.559 l 4244.57,641.558 -5288.75,1920.592 c -14592.85,5299.335 -25746.82,15602.8257 -32744.98,30248.199 -5028.21,10522.76 -5956.31,15546.809 -6092.34,32979.185 -137.77,17654.538 -942.23,21236.738 -7777.42,34632.199 -4465.79,8751.971 -6034.46,16232.2 -5414.04,25816.946 552.98,8542.81 3061.35,15520.81 9204.03,25604.55 6238.93,10241.74 7815.08,15989.67 8671.95,31625 557.77,10177.57 1137.03,14099.95 2683.52,18170.97 3915.99,10308.54 10137.12,17689.98 21737.61,25791.87 10033.94,7007.8 13396.71,11821.57 21574.93,30884.26 6230.48,14522.67 19962.21,27118.23 34979.151,32084.95 l 3461.138,1144.74 -2595.854,588.47 c -4448.601,1008.48 -16185.105,710.99 -22042.485,-558.73 z m 196829.952,-267.6 c -3331.345,-839.61 -7995.808,-2393.79 -10365.485,-3453.75 l -4308.485,-1927.18 3010.559,-2339.98 c 9527.301,-7405.14 15552.606,-14866 20858.686,-25828.35 4970.413,-10268.84 6786.823,-20038.22 6733.843,-36217.16 -59.53,-18176.98 2043.19,-25205.25 12192.18,-40751.95 6557.53,-10045.13 8924.45,-18250.16 8961.83,-31066.66 28.12,-9647.04 -172.83,-10935.69 -2833.63,-18170.97 -6227.2,-16933.033 -7060.21,-19692.849 -7958.35,-26366.546 -718.18,-5336.581 -664.8,-8655.83 233.33,-14504.781 640.54,-4171.537 1157.49,-12646.522 1148.76,-18833.306 -14.11,-9989.571 -273.59,-11959.097 -2318.28,-17595.214 -3174.69,-8750.899 -7083.83,-14979.944 -13541.523,-21577.816 l -5492.254,-5611.4782 6357.539,-6449.6074 c 3496.648,-3547.284 7974.578,-7578.416 9950.978,-8958.0704 l 3593.44,-2508.463 5401.95,5774.6929 c 18347.36,19613.3911 26360,45934.3071 22026.38,72354.9731 -2023.89,12338.905 -1497.98,16996.576 3289.44,29133.134 5100.69,12930.682 6662.05,20807.942 6638.78,33493.292 -31.67,17258.87 -4206.41,31341.85 -13481.86,45479.55 -6842,10428.61 -8131.53,15331.08 -8131.53,30913.85 0,13829.88 -1258.76,22593.93 -4697.04,32702.9 -2919.13,8582.61 -9159.41,20306.23 -14605.2,27438.81 l -4624.55,6056.99 -5991.26,169.83 c -3434.989,97.36 -8575.567,-481.5 -12048.248,-1356.74 z"
                                   id="path32283" />
                                </g>
                                </g>
                                </g>
                                </g>
                                </g>
                                </g>
                                </g>
                                </g>
                                </g>
                                </g>
                                </g>
                                </g>
                                </g>
                                </g>
                                </g>
                                </g>
                                </g>
                                </g>
                                </g>
                                </g>
                                </g>
                                </g>
                                </g>
                                </g>
                                </g>
                                </g>
                                </g>
                                </g>
                                </g>
                                </g>
                                </g>
                                </g>
                                </g>
                                </g>
                                </g>
                                </g>
                                </g>
                                </g>
                                </g>
                              </g>
                            </g>
                          </g>
                        </g>
                      </g>
                    </g>
                  </g>
                </g>
              </g>
            </g>
          </g>
        </g>
      </g>
    </g>
  </g>
</svg>
