<?xml version="1.0" encoding="UTF-8" standalone="no"?>
<!-- Created with Inkscape (http://www.inkscape.org/) -->

<svg
   width="64"
   height="64"
   viewBox="0 0 16.933333 16.933334"
   version="1.1"
   id="svg5"
   inkscape:version="1.2 (dc2aedaf03, 2022-05-15)"
   sodipodi:docname="bleu_des_causses.svg"
   xmlns:inkscape="http://www.inkscape.org/namespaces/inkscape"
   xmlns:sodipodi="http://sodipodi.sourceforge.net/DTD/sodipodi-0.dtd"
   xmlns="http://www.w3.org/2000/svg"
   xmlns:svg="http://www.w3.org/2000/svg">
  <sodipodi:namedview
     id="namedview7"
     pagecolor="#ffffff"
     bordercolor="#666666"
     borderopacity="1.0"
     inkscape:pageshadow="2"
     inkscape:pageopacity="0.0"
     inkscape:pagecheckerboard="0"
     inkscape:document-units="mm"
     showgrid="false"
     units="px"
     inkscape:zoom="16.000001"
     inkscape:cx="18.687499"
     inkscape:cy="20.312499"
     inkscape:window-width="1920"
     inkscape:window-height="1017"
     inkscape:window-x="1912"
     inkscape:window-y="-8"
     inkscape:window-maximized="1"
     inkscape:current-layer="g33735"
     inkscape:showpageshadow="2"
     inkscape:deskcolor="#d1d1d1" />
  <defs
     id="defs2" />
  <g
     inkscape:label="Calque 1"
     inkscape:groupmode="layer"
     id="layer1">
    <g
       id="g4128"
       transform="translate(-0.63104184,0.12620835)">
      <g
         id="g5578"
         transform="translate(0.08924235,0.08924306)">
        <g
           id="g7501"
           transform="translate(-0.06310417,0.94656242)">
          <g
             id="g9467"
             transform="translate(-0.08924275,-0.80318511)">
            <g
               id="g10302"
               transform="translate(0.31234979,-0.04462139)">
              <g
                 id="g11479"
                 transform="translate(-0.12620833,0.06310418)">
                <g
                   id="g11873"
                   transform="translate(-0.23575769,0.66462456)">
                  <g
                     id="g12382"
                     transform="translate(-121.98459,-82.267525)">
                    <g
                       id="g13305"
                       transform="matrix(0.13266609,0,0,0.13266609,114.63867,78.215696)">
                      <g
                         id="g17429"
                         transform="translate(0.90513437,5.6640979)">
                        <g
                           id="g18595"
                           transform="translate(-3.3634362,-8.7449387)">
                          <g
                             id="g21002"
                             transform="translate(1.7082278,-2.8204445)">
                            <g
                               id="g23814"
                               transform="translate(8.7253043,-1.1218249)">
                              <g
                                 id="g24838"
                                 transform="translate(11.143454,-0.85716864)">
                                <g
                                   id="g25315"
                                   transform="translate(-3.490122,2.4929446)">
                                <g
                                   id="g27220"
                                   transform="translate(2.4678888,1.2339445)">
                                <g
                                   id="g29753"
                                   transform="translate(1.4759287,-2.3737724)">
                                <g
                                   id="g30615"
                                   transform="translate(0.92006037,1.3687834)">
                                <g
                                   id="g31433"
                                   transform="translate(-2.4678886,-1.410222)">
                                <g
                                   id="g31731"
                                   transform="translate(1.0576664,-0.70511063)">
                                <g
                                   id="g33243"
                                   transform="matrix(1.0772948,0,0,1.0772948,-7.3729128,-3.1743014)">
                                <g
                                   id="g35254"
                                   transform="translate(-2.2135012,-0.92031205)">
                                <g
                                   id="g36749"
                                   transform="translate(-0.98178042,-2.7817105)">
                                <g
                                   id="g37297"
                                   transform="translate(-6.7755742,-3.5033798)">
                                <g
                                   id="g38955"
                                   transform="matrix(1.2171094,0,0,1.2171094,-23.105122,-18.212482)">
                                <g
                                   id="g39618"
                                   transform="translate(-0.26888273,-0.26888316)">
                                <g
                                   id="g40032"
                                   transform="translate(-1.90129,-3.042064)">
                                <g
                                   id="g40543"
                                   transform="translate(0.3802582,-2.0914191)">
                                <g
                                   id="g41372"
                                   transform="translate(1.9657652,-7.9304203)">
                                <g
                                   id="g43278"
                                   transform="translate(1.5210324,-0.38025789)">
                                <g
                                   id="g44210"
                                   transform="matrix(1.1578947,0,0,1.1578947,-18.904476,-21.776183)">
                                <g
                                   id="g44833"
                                   transform="matrix(1.1196819,0,0,1.1196819,-12.538538,-14.547543)">
                                <g
                                   id="g47597"
                                   transform="translate(3.1109352,-1.2443743)">
                                <g
                                   id="g48754"
                                   transform="translate(-2.9035392,-6.6366609)">
                                <g
                                   id="g234"
                                   transform="matrix(0.04089637,0,0,0.04089637,104.63967,119.67231)">
                                <g
                                   id="g2138"
                                   transform="translate(-86.211222,-40.569988)">
                                <g
                                   id="g2696"
                                   transform="translate(-124306.44,-9412.2373)">
                                <g
                                   id="g3765"
                                   transform="translate(25.356243,-50.712489)">
                                <g
                                   id="g4557"
                                   transform="translate(46.61688,-35.859142)">
                                <g
                                   id="g5244"
                                   transform="translate(7.1718407,14.343658)">
                                <g
                                   id="g5807"
                                   transform="translate(-5.1984397,-21.113724)">
                                <g
                                   id="g6945"
                                   transform="translate(-10.142522,-243.41993)">
                                <g
                                   id="g11108"
                                   transform="translate(18.189368,-37.636113)">
                                <g
                                   id="g15049"
                                   transform="translate(-65.926228,141.99496)">
                                <g
                                   id="g19861"
                                   transform="matrix(0.07356842,0,0,0.07356842,115423.38,9039.2311)">
                                <g
                                   id="g20437"
                                   transform="translate(-478.38824,-785.88156)">
                                <g
                                   id="g21032"
                                   transform="translate(2047.1878,-1072.3367)">
                                <g
                                   id="g21869"
                                   transform="matrix(0.04321578,0,0,0.04321578,117368,10137.003)">
                                <g
                                   id="g25455"
                                   transform="translate(154741.46,-87178.414)">
                                <g
                                   id="g26278"
                                   transform="translate(-18012.371,-8233.4417)">
                                <g
                                   id="g27240"
                                   transform="translate(-0.00447131,5582.7624)">
                                <g
                                   id="g28306"
                                   transform="translate(-15790.441,-2255.7767)">
                                <g
                                   id="g33735"
                                   transform="translate(14662.549,-16918.328)">
                                <ellipse
                                   style="fill:#fff5ee;fill-opacity:1;stroke-width:4627.26;stroke-linecap:round;stroke-linejoin:round"
                                   id="path2660"
                                   cx="116346.66"
                                   cy="84655.57"
                                   rx="135182.59"
                                   ry="102483.57"
                                   transform="scale(-1,1)" />
                                <path
                                   style="fill:#ffeee2;stroke-width:437.096;fill-opacity:1"
                                   d="m -40470.766,170637.04 -1879.663,-10271.76 6136.054,-12020.15 c 3374.829,-6611.08 6871.883,-13397 7771.231,-15079.82 899.343,-1682.82 4538.147,-8763.78 8086.224,-15735.47 3548.081,-6971.69 6791.799,-13265.87 7208.26,-13987.08 416.465,-721.21 3762.2284,-7212.091 7435.0254,-14424.18 3672.802,-7212.088 7803.218,-15276.515 9178.703,-17920.948 C 11461.203,55824.711 13955.322,50915.595 13955.322,50549.907 c 0,0 22276.556,42570.567 29003.057,88602.453 -4011.517,-1675.26 -7444.838,-3045.93 -7629.599,-3045.93 -312.253,0 -2729.238,4572.68 -13400.113,25351.59 -2283.964,4447.45 -5577.58,10839.99 -7319.147,14205.63 -1741.566,3365.64 -5183.2886,10053.21 -7648.2666,14861.27 -44269.6014,93920.87 -31460.1544,68073 -47432.0194,-19887.88 z m 22984.109,26064.13 c -1906.627,-7318.03 -3715.166,-13703.55 -4018.974,-14190.02 -619.754,-992.38 -2185.237,-1820.9 -3440.616,-1820.9 -2154.64,0 -4370.963,2130.24 -4370.963,4201.19 0,411.31 1516.09,6561.24 3369.085,13666.5 7933.45,25154.06 11923.124,11441.11 8461.468,-1856.77 z m 9283.5754,-5132.08 c 1589.326,-924.58 1704.855,-2407.55 531.116,-6817.45 -605.947,-2276.61 -1097.461,-4367.64 -1092.26,-4646.71 5.202,-279.08 644.459,-802.46 1420.563,-1163.06 827.511,-384.49 1731.137,-1310.08 2184.926,-2238.04 769.845,-1574.27 764.56,-1618.05 -1029.051,-8523.38 -1946.766,-7494.96 -2602.388,-9013.05 -4208.5384,-9744.86 -1963.913,-894.82 -3609.987,-574.29 -5196.061,1011.78 -1700.501,1700.51 -1811.593,2601.6 -778.731,6316.59 l 707.393,2544.36 -1144.489,1144.49 c -629.471,629.47 -1143.57,1596 -1142.443,2147.83 3.934,1997.47 4652.934,18686.3 5450.875,19568.02 873.729,965.46 2986.9114,1162.4 4296.7004,400.43 z m 16262.99,-15099.08 c 1614.297,-1614.3 1540.392,-2306.11 -1476.791,-13823.82 -1825.734,-6969.49 -3237.485,-11523.02 -3747.14,-12086.18 -1522.471,-1682.31 -4626.157,-1009.15 -5385.109,1167.98 -621.708,1783.44 5091.634,23578.25 6474.375,24697.93 1194.335,967.11 3190.357,988.4 4134.665,44.09 z M 23605.062,151438.42 c 702.72,-702.71 1277.668,-1711.14 1277.668,-2240.95 0,-529.81 -1004.775,-4835.75 -2232.837,-9568.76 l -2232.832,-8605.48 1358.64,-1358.64 c 747.255,-747.26 1358.644,-1707.25 1358.644,-2133.34 0,-426.07 -799.279,-3834.17 -1776.181,-7573.53 -2014.729,-7711.96 -2767.894,-8940.62 -5480.632,-8940.62 -2872.182,0 -4282.849,2709.72 -3276.736,6294.19 238.405,849.37 75.408,1275.89 -731.857,1915.06 -1940.2696,1536.26 -1932.1966,2300.56 107.461,10177.56 5969.258,23052.76 5555.205,21700.86 6944.476,22673.95 1470.689,1030.11 3258.728,786.02 4684.186,-639.44 z m -36312.613,403.48 c 480.806,-480.81 874.192,-1202.24 874.192,-1603.18 0,-400.95 -1092.268,-4974.07 -2427.261,-10162.49 -2523.165,-9806.24 -3168.668,-11171.2 -5142.787,-10874.77 -476.095,71.49 -1238.504,631.41 -1694.247,1244.27 -821.195,1104.31 -816.299,1161.12 546.523,6337.9 756.33,2872.98 1942.553,7387.23 2636.049,10031.66 747.243,2849.36 1564.639,5030.64 2006.474,5354.43 1075.895,788.45 2199.896,673.34 3201.057,-327.82 z m 17053.5744,-6491.58 c 2158.473,-1147.02 3489.951,-3277.17 3489.951,-5583.35 0,-2287.12 -6731.545,-28258.57 -7798.876982,-30089.4 -2397.412018,-4112.35 -9144.452018,-3879.58 -11168.278418,385.31 -992.571,2091.69 -881.269,3943.53 560.03,9317.33 694.2134,2588.34 2306.9724,8718.22 3583.9144,13621.95 1276.942,4903.73 2728.976,9526.03 3226.745,10271.76 1793.358,2686.74 5278.222,3579.35 8106.515,2076.4 z M 15636.128,97814.935 c 517.977,-362.803 941.772,-936.741 941.772,-1275.412 0,-1176.913 -5765.121,-22722.788 -6231.21,-23287.783 -619.1766,-750.564 -2522.8136,-494.705 -3092.5736,415.661 -337.123,538.651 238.436,3396.794 2272.21,11283.436 1498.0336,5809.132 2901.2836,11029.137 3118.3276,11600.011 585.342,1539.567 1840.779,2070.066 2991.474,1264.087 z"
                                   id="path33745"
                                   sodipodi:nodetypes="ccssssssccssscccsssccssssssssscscssssssssssscsssssssssssssssssssssssssssssssss" />
                                <path
                                   style="fill:#ffe6d5;stroke:none;stroke-width:9023.11px;stroke-linecap:butt;stroke-linejoin:miter;stroke-opacity:1"
                                   d="M -46837.909,-87704.38 107884.36,15975.498 218742.08,102109.55 245211,142177.92 223527.31,201801.74 70400.103,153151.95 33773.665,136484.59 14572.481,50269.61 -199167.58,8797.655 l -6380.29,-74968.525 82943.9,-18343.367 z"
                                   id="path34229"
                                   sodipodi:nodetypes="cccccccccccc" />
                                <path
                                   style="fill:#cccccc;stroke-width:437.096"
                                   d="M 226389.87,268546.61 C 341230.86,17262.272 2391.5367,-99830.5 -110070.75,-94676.884 -186710.48,-103712.99 -256865.21,-44899.512 -281521.77,6158.3942 -330178.59,126811.83 -109811.89,307307.46 26351.909,326024.97 c 62881.814,704.38 172869.271,-2938.3 200037.961,-57478.36 z M 107056.83,291683.34 C 61007.429,286831.8 16967.483,270996.92 -25601.892,253466.79 c -5661.55,-30928.73 -11117.239,-61896.33 -17017.194,-92780.55 -59197.764,-10032.47 -118512.374,-19406.08 -177760.654,-29154.11 -17528.58,-18412.12 -40082.39,-39128.825 -38490,-66657.173 19600.92,-42338.784 42354.79,-83480.687 63567.22,-125147.234 16878.29,-19082.023 45969.94,-13872.18 68624.76,-11850.165 88432.88,15445.407 170744.761,55969.199 245778.14,104092.59 38774.48,27057.24 80006.26,55499.428 103542.72,97694.802 875.31,70165.28 -24960.71,92745.94 -62156.24,152356.8 -14731.25,12090.65 -35600.76,10793.66 -53430.03,9661.59 z"
                                   id="path33741"
                                   sodipodi:nodetypes="cccccccccccccccc" />
                                <path
                                   style="fill:#b7d6dd;stroke-width:437.096"
                                   d="m -15733.604,212631.91 c 782.341,-782.35 1277.668,-1736.02 1277.668,-2459.95 0,-1218.82 -6223.071,-25415.26 -6998.043,-27209.66 -239,-553.4 -1122.538,-1293.64 -1963.41,-1644.98 -2118.51,-885.17 -4358.799,27.63 -5239.185,2134.7 -587.601,1406.32 -444.802,2150.18 2798.64,14578.41 1879.807,7203.07 3652.682,13535.3 3939.719,14071.64 1126.362,2104.62 4334.946,2379.5 6184.611,529.84 z m 7556.6174,-21483.07 c 1448.756,-1139.59 1455.207,-2105.33 49.125,-7353.77 -605.199,-2259 -1047.261,-4142.81 -982.365,-4186.25 64.896,-43.45 766.523,-337.32 1559.171,-653.08 1893.195,-754.17 2886.085,-2678.81 2530.175,-4904.56 -477.042,-2983.27 -3359.627,-13212.91 -4007.124,-14220.37 -1265.7914,-1969.48 -5253.3464,-2015.36 -6848.4944,-78.78 -944.242,1146.35 -985.648,3788.31 -104.877,6691.68 622.635,2052.44 611.856,2171.68 -250.867,2775.96 -1836.522,1286.35 -1787.012,2157.6 657.393,11568.38 1276.268,4913.53 2536.404,9337.14 2800.301,9830.23 893.665,1669.83 2860.6464,1896.82 4597.5624,530.56 z m 15568.605,-14520.58 c 2129.8,-1071.48 2072.96,-1992.83 -816.596,-13236.45 -1478.098,-5751.44 -2973.575,-11091.26 -3323.283,-11866.26 -1098.729,-2434.92 -4422.781,-2372.9 -5551.136,103.57 -431.79,947.67 -71.88,2767.5 2443.36402,12354.4 1731.68398,6600.36 3252.02298,11540.03 3681.76698,11962.27 1077.176,1058.37 2338.758,1299.82 3565.884,682.47 z M 22572.549,152050.79 c 2531.072,-1064.24 2521.158,-2157.04 -111.7,-12312.22 -1526.537,-5888 -2189.726,-9153.65 -1880.462,-9259.75 1128.866,-387.3 2116.669,-1893.67 2113.872,-3223.59 -1.749,-781.31 -792.731,-4370.96 -1757.967,-7977.01 -1863.175,-6960.66 -2523.912,-8086.28 -4746.656,-8086.28 -2691.25,0 -4304.314,2427.53 -3528.228,5309.68 439.706,1632.95 392.054,1796.08 -868.816,2973.9 -744.808,695.76 -1334.04,1693.43 -1334.04,2258.78 0,1840.28 7029.925,28118.89 7814.08,29209.88 993.126,1381.72 2638.523,1805.17 4299.917,1106.61 z m -35083.328,-769.96 c 601.392,-917.84 458.802,-1753.16 -1772.098,-10381.03 -1334.363,-5160.59 -2710.486,-9825.44 -3058.048,-10366.35 -1164.079,-1811.63 -4108.552,-1085.08 -4108.552,1013.78 0,1369.04 4806.114,19535.56 5340.219,20185.39 757.764,921.95 2872.326,656.47 3598.479,-451.79 z m 16667.0844,-5957.96 c 1410.873,-607.66 3177.489,-2961.33 3495.647,-4657.25 158.325,-843.93 65.88,-2362.51 -205.43,-3374.63 -271.315,-1012.11 -1872.573,-7150.92 -3558.362,-13641.8 C 2202.3714,117158.31 605.23542,111302.7 338.96942,110636.72 -1312.5116,106506.08 -7601.0076,105610.69 -10244.168,109129.84 c -1974.583,2628.99 -1918.093,3162.36 1894.2004,17884.3 1948.623,7524.99 3746.553,14199.6 3995.406,14832.47 878.611,2234.44 2778.079,3570.66 5296.59702,3725.99 1267.43498,78.18 2713.85598,-34.22 3214.26998,-249.73 z m -49333.1734,-7785.74 c 532.698,-96.96 1466.991,-768.67 2076.207,-1492.68 1517.192,-1803.08 1476.336,-3882.57 -111.193,-5659.32 -1118.844,-1252.21 -1719.196,-1459.36 -7316.739,-2524.64 l -6097.887,-1160.51 -10.228,-2399.59 c -11.626,-2725.93 -933.41,-4473.26 -2894.897,-5487.58 -1318.829,-681.99 -18128.888,-4113.71 -20182.65,-4120.22 -3112.095,-9.88 -5551.272,2529.44 -5551.272,5779.16 0,4105.84 2147.498,5912.38 8195.556,6894.33 2680.55,435.21 3168.948,646.5 3168.948,1370.91 0,1315.23 1122.905,3189.87 2257.467,3768.76 561.415,286.44 6134.782,1513.29 12385.259,2726.31 13641.762,2647.44 12882.906,2523.23 14081.437,2305.07 z m -51153.922,-1870.85 c 2065.153,-832.06 2585.788,-4191.29 859.987,-5548.8 -1272.099,-1000.63 -26749.617,-6073.22 -28196.617,-5613.97 -963.92,305.94 -2248.07,2288.4 -2248.07,3470.56 0,359.14 442.56,1160.07 983.47,1779.85 896.07,1026.75 2168.12,1358.64 14314.9,3734.96 7332.29,1434.45 13331.437,2597.75 13331.437,2585.11 0,-12.63 429.7,-196.1 954.893,-407.71 z m -50128.23,-20540.47 c 480.81,-480.81 874.19,-1267.58 874.19,-1748.39 0,-1971.57 -1107.32,-2340.67 -15529.19,-5176.23 -17454.12,-3431.75 -17340.06,-3416.21 -18267.49,-2488.78 -1075.51,1075.5 -942.7,3143.87 249.54,3886.44 804.46,501.05 29662.59,6401.15 31308.82,6401.15 269.47,0 883.32,-393.38 1364.13,-874.19 z m 105373.832,-6522.82 c 2209.937,-2209.94 1571.086,-5853.58 -1218.227,-6948.08 -670.685,-263.17 -7840.551,-1767.177 -15933.043,-3342.236 -15837.489,-3082.486 -16039.082,-3092.264 -17792.656,-862.96 -1853.686,2356.579 -713.109,5759.646 2244.192,6695.866 2311.344,731.72 28503.588,5735.07 30022.751,5735.07 963.819,0 1796.955,-397.63 2676.983,-1277.66 z m -86094.942,-5058.88 c 2726.08,-1481.7 3502.02,-5698.207 1525.49,-8289.572 l -1050.43,-1377.194 12742.76,2521.897 c 13987.243,2768.192 16125.282,2966.691 18551.7,1722.352 6577.167,-3372.968 6417.561,-12602.247 -267.967,-15495.374 -883.909,-382.508 -9769.883,-2291.779 -19746.603,-4242.829 -20322.41,-3974.245 -21902.85,-4100.632 -24690.42,-1974.447 -4352.55,3319.852 -4864.71,9021.567 -1160.17,12915.842 1319.82,1387.427 1470.76,1698.193 748.33,1540.725 -497.74,-108.487 -5991.02,-1193.443 -12207.32,-2411.006 -12525.78,-2453.377 -13223.91,-2451.078 -15328.83,50.476 -2252.53,2676.979 -1637.89,6675.195 1279.59,8323.774 1469.09,830.133 34277.52,7379.476 36830.02,7352.146 898.95,-9.61 2147.19,-296.18 2773.85,-636.79 z M 16087.981,97303.563 c 509.204,-951.459 -5251.048,-23629.885 -6146.0676,-24197.407 -316.855,-200.915 -807.92,-368.314 -1091.25,-371.995 -841.188,-10.927 -1934.676,1340.749 -1711.468,2115.573 113.894,395.375 1423.885,5439.501 2911.0916,11209.172 1487.202,5769.671 2882.811,10834.525 3101.351,11255.23 515.896,993.14 2402.81,986.343 2936.343,-10.578 z M -73115.513,75808.574 c 1540.891,-1540.895 1931.834,-3172.834 1248.255,-5210.655 -889.924,-2652.939 -1871.388,-3022.495 -14764.426,-5559.358 -6580.909,-1294.876 -12014.462,-2356.565 -12074.562,-2359.315 -60.101,-2.622 -110.009,-447.551 -110.909,-988.458 -2.186,-1270.775 -1446.805,-3633.311 -2598.785,-4249.826 -1171.8,-627.133 -17652.42,-3945.73 -19595.04,-3945.73 -1117.58,0 -1870.45,375.296 -2981.29,1486.128 -1252.03,1252.036 -1486.12,1797.554 -1486.12,3463.232 0,2884.901 1477.64,4486.286 4766.44,5165.573 2447.28,505.48 2535.94,573.776 3000.63,2311.191 958.56,3583.927 737.43,3505.311 21188.907,7532.812 10157.93,2000.398 19289.781,3638.7 20293.004,3640.676 1439.94,2.622 2095.645,-268.023 3113.896,-1286.27 z m 44542.001,-9182.759 c 2969.4,-1810.549 3472.895,-5484.462 1079.619,-7877.743 -1083.304,-1083.299 -2576.823,-1447.667 -19719.547,-4810.896 l -18547.478,-3638.822 -1556.202,834.071 c -855.909,458.742 -1938.824,1547.968 -2406.473,2420.508 -746.714,1393.197 -785.375,1803.062 -317.407,3364.991 305.487,1019.627 1041.098,2139.717 1723.913,2624.942 846.423,601.488 6419.016,1872.551 19259.397,4392.914 9937.595,1950.595 18297.061,3545.799 18576.593,3544.899 279.532,-0.874 1137.945,-385.584 1907.585,-854.864 z M -144035.12,64223.958 c 1260.76,-1260.757 1377.53,-2829.045 307.95,-4135.718 -619.47,-756.793 -2250.61,-1223.105 -8578.57,-2452.451 -8751.43,-1700.165 -10398.03,-1820.445 -11386.71,-831.768 -1597.63,1597.635 -1056.29,4569.085 939.95,5159.366 1105.35,326.852 16586.87,3333.445 17164.54,3333.445 263.98,0 962.76,-482.794 1552.84,-1072.874 z"
                                   id="path33739" />
                                <path
                                   style="fill:#7cb5c3;stroke-width:437.096"
                                   d="m -43851.453,136746.26 c 527.252,-369.3 1182.665,-1419.18 1456.471,-2333.06 413.786,-1381.09 374.15,-1900.77 -234.773,-3078.29 -931.724,-1801.76 -2220.716,-2308.08 -8979.366,-3527.13 l -5463.704,-985.48 v -2780.17 c 0,-2524.65 -124.209,-2904.37 -1351.493,-4131.65 -1270.32,-1270.32 -1955.997,-1470.49 -11416.033,-3332.63 l -10064.539,-1981.13 -1946.88,861.2 c -4284.811,1895.37 -4565.2,8199.1 -459.139,10322.43 890.383,460.43 7438.929,2006.05 8567.437,2022.12 33.525,0.44 105.375,630.47 159.628,1400 202.869,2877.61 1005.409,3208.4 14129.841,5823.93 6598.511,1315 12592.784,2391 13320.602,2391.12 727.822,0.11 1754.697,-301.95 2281.948,-671.26 z m -51499.022,-2228.61 c 1588.85,-2019.9 985.705,-4159.03 -1385.481,-4913.8 -2084.058,-663.37 -23909.634,-4917.09 -25553.254,-4980.23 -1884.92,-72.41 -3189.18,1165.6 -3189.18,3027.18 0,2656.4 536.46,2864.41 14303.37,5546.21 6980.37,1359.78 13192.671,2472.33 13805.108,2472.33 682.342,0 1464.312,-445.96 2019.437,-1151.69 z m -51334.365,-19563.37 c 1352.02,-1352.03 1368.7,-1786.13 116.55,-3033.02 -662.31,-659.52 -1982.62,-1157.73 -4043.14,-1525.66 -1682.82,-300.49 -8541.27,-1628.42 -15240.99,-2950.95 -11334.62,-2237.46 -12253.66,-2357.2 -13222.16,-1722.61 -1769.8,1159.62 -1297.35,3434.18 855.46,4118.52 760.05,241.61 7577.75,1637.14 15150.44,3101.19 7572.7,1464.05 14109.47,2763.3 14526.18,2887.23 452.29,134.5 1200.97,-218.02 1857.66,-874.7 z M -41863.591,109183 c 2296.137,-1244.97 2707.112,-4264.49 854.055,-6274.88 -1155.84,-1253.99 -1765.759,-1413.76 -15877.781,-4159.312 -8071.669,-1570.382 -15309.092,-2855.235 -16083.154,-2855.235 -1633.289,0 -3361.957,1490.114 -3812.874,3286.702 -390.078,1554.195 808.068,4041.685 2202.025,4571.665 1192.526,453.39 29930.239,6138.91 30889.447,6111.21 333.373,-9.61 1156.098,-315.69 1828.282,-680.15 z m -86018.829,-5401.6 c 480.8,-198.87 1365.92,-890.68 1966.93,-1537.35 883.11,-950.2 1092.74,-1624.67 1092.74,-3515.864 0,-1993.439 -190.19,-2538.629 -1283.79,-3680.106 -706.09,-736.992 -1112.94,-1339.988 -904.12,-1339.988 208.82,0 6483.54,1198.57 13943.81,2663.489 9787.74,1921.948 14049.675,2585.853 15308.11,2384.619 5863.096,-937.546 8846.908,-7654.881 5671.382,-12767.745 -729.833,-1175.085 -1938.584,-2384.334 -2858.846,-2860.017 -2286.814,-1182.053 -38951.646,-8352.832 -41358.326,-8088.716 -4018.69,441.026 -7094.82,4052.739 -7094.82,8330.098 0,2808.536 854.27,4633.798 3047.25,6510.912 1067.42,913.671 1507.41,1505.15 1040.34,1398.538 -4761.5,-1086.853 -23477.52,-4564.719 -24564.9,-4564.719 -3171.79,0 -5311.37,2282.818 -5311.37,5666.966 0,1398.569 302.22,2102.473 1420.57,3308.714 l 1420.56,1532.207 17813.76,3487.982 c 9797.57,1918.39 18255.39,3475.52 18795.15,3460.28 539.75,-15.26 1374.76,-190.43 1855.57,-389.3 z m 53374.646,-27111.353 c 3474.474,-1403.844 3692.904,-7165.38 329.745,-8697.735 -669.211,-304.914 -6240.55,-1532.001 -12380.748,-2726.86 -6140.202,-1194.856 -11508.216,-2275.436 -11928.921,-2401.289 -517.247,-154.728 -768.066,-679.244 -774.64,-1619.927 -10.403,-1488.855 -975.432,-2979.668 -2394.312,-3698.788 -480.8,-243.685 -4963.16,-1262.924 -9960.8,-2264.972 -7874,-1578.774 -9293.03,-1753.783 -10633.42,-1311.415 -1791.45,591.229 -3224.25,2623.299 -3224.25,4572.779 0,2944.656 1843.05,4492.489 6225.35,5228.157 1360.02,228.308 1639.11,452.997 1639.11,1319.637 0,1642.621 741.21,3179.583 1899.31,3938.404 994.63,651.706 37465.472,8109.592 39406.288,8058.154 480.806,-12.763 1289.588,-191.011 1797.288,-396.145 z M -28491.128,66464.88 c 2497.362,-1455.023 2996.102,-5108.921 1001.968,-7340.739 -1216.884,-1361.931 -1440.468,-1419.514 -18685.866,-4812.312 -9599.833,-1888.641 -18241.016,-3430.703 -19202.628,-3426.813 -4069.201,16.478 -6131.036,4808.417 -3387.497,7872.934 1172.686,1309.882 1601.967,1422.299 17593.126,4607.083 18181.978,3621.111 21101.379,4020.11 22680.897,3099.847 z M -144448.25,64525.222 c 843.46,-563.194 1492.42,-2197.878 1199.45,-3021.319 -686.88,-1930.536 -1485.08,-2238.641 -10081.44,-3891.39 -7756.41,-1491.254 -8663,-1585.693 -9693.91,-1009.801 -1485.55,829.862 -1802.87,3345.998 -563.43,4467.675 532.35,481.767 3588.49,1302.271 8435.31,2264.692 7711.36,1531.218 9838.94,1767.774 10704.02,1190.143 z"
                                   id="path33737" />
                                <path
                                   style="fill:#ffccaa;stroke:none;stroke-width:9023.11px;stroke-linecap:butt;stroke-linejoin:miter;stroke-opacity:1"
                                   d="M 211471.59,196993.46 33059.983,137215.39 -26250.913,253456.3 c 0,0 152498.523,65913.05 185771.223,30948.51 33272.7,-34964.54 51951.28,-87411.35 51951.28,-87411.35 z"
                                   id="path3458"
                                   sodipodi:nodetypes="cccsc" />
                                <path
                                   style="fill:#ffccaa;fill-opacity:1;stroke:none;stroke-width:9023.11px;stroke-linecap:butt;stroke-linejoin:miter;stroke-opacity:1"
                                   d="m -198020.29,10891.89 -40804.37,101377.98 c 0,0 -18099.44,-14220.263 -19791.27,-24371.259 -1691.84,-10150.995 -2002.15,-20894.275 -2002.15,-20894.275 l 56394.4,-112313.349 z"
                                   id="path4188"
                                   sodipodi:nodetypes="ccsccc" />
                                </g>
                                </g>
                                </g>
                                </g>
                                </g>
                                </g>
                                </g>
                                </g>
                                </g>
                                </g>
                                </g>
                                </g>
                                </g>
                                </g>
                                </g>
                                </g>
                                </g>
                                </g>
                                </g>
                                </g>
                                </g>
                                </g>
                                </g>
                                </g>
                                </g>
                                </g>
                                </g>
                                </g>
                                </g>
                                </g>
                                </g>
                                </g>
                                </g>
                                </g>
                                </g>
                                </g>
                                </g>
                                </g>
                                </g>
                              </g>
                            </g>
                          </g>
                        </g>
                      </g>
                    </g>
                  </g>
                </g>
              </g>
            </g>
          </g>
        </g>
      </g>
    </g>
  </g>
</svg>
