<?xml version="1.0" encoding="UTF-8" standalone="no"?>
<!-- Created with Inkscape (http://www.inkscape.org/) -->

<svg
   width="64"
   height="64"
   viewBox="0 0 16.933333 16.933334"
   version="1.1"
   id="svg5"
   inkscape:version="1.2 (dc2aedaf03, 2022-05-15)"
   sodipodi:docname="bois_bande.svg"
   xmlns:inkscape="http://www.inkscape.org/namespaces/inkscape"
   xmlns:sodipodi="http://sodipodi.sourceforge.net/DTD/sodipodi-0.dtd"
   xmlns="http://www.w3.org/2000/svg"
   xmlns:svg="http://www.w3.org/2000/svg">
  <sodipodi:namedview
     id="namedview7"
     pagecolor="#ffffff"
     bordercolor="#666666"
     borderopacity="1.0"
     inkscape:pageshadow="2"
     inkscape:pageopacity="0.0"
     inkscape:pagecheckerboard="0"
     inkscape:document-units="mm"
     showgrid="false"
     units="px"
     inkscape:zoom="4"
     inkscape:cx="10.875"
     inkscape:cy="64.5"
     inkscape:window-width="1920"
     inkscape:window-height="1017"
     inkscape:window-x="1912"
     inkscape:window-y="-8"
     inkscape:window-maximized="1"
     inkscape:current-layer="g37868"
     inkscape:showpageshadow="2"
     inkscape:deskcolor="#d1d1d1" />
  <defs
     id="defs2" />
  <g
     inkscape:label="Calque 1"
     inkscape:groupmode="layer"
     id="layer1">
    <g
       id="g4128"
       transform="translate(-0.63104184,0.12620835)">
      <g
         id="g5578"
         transform="translate(0.08924235,0.08924306)">
        <g
           id="g7501"
           transform="translate(-0.06310417,0.94656242)">
          <g
             id="g9467"
             transform="translate(-0.08924275,-0.80318511)">
            <g
               id="g10302"
               transform="translate(0.31234979,-0.04462139)">
              <g
                 id="g11479"
                 transform="translate(-0.12620833,0.06310418)">
                <g
                   id="g11873"
                   transform="translate(-0.23575769,0.66462456)">
                  <g
                     id="g12382"
                     transform="translate(-121.98459,-82.267525)">
                    <g
                       id="g13305"
                       transform="matrix(0.13266609,0,0,0.13266609,114.63867,78.215696)">
                      <g
                         id="g17429"
                         transform="translate(0.90513437,5.6640979)">
                        <g
                           id="g18595"
                           transform="translate(-3.3634362,-8.7449387)">
                          <g
                             id="g21002"
                             transform="translate(1.7082278,-2.8204445)">
                            <g
                               id="g23814"
                               transform="translate(8.7253043,-1.1218249)">
                              <g
                                 id="g24838"
                                 transform="translate(11.143454,-0.85716864)">
                                <g
                                   id="g25315"
                                   transform="translate(-3.490122,2.4929446)">
                                <g
                                   id="g27220"
                                   transform="translate(2.4678888,1.2339445)">
                                <g
                                   id="g29753"
                                   transform="translate(1.4759287,-2.3737724)">
                                <g
                                   id="g30615"
                                   transform="translate(0.92006037,1.3687834)">
                                <g
                                   id="g31433"
                                   transform="translate(-2.4678886,-1.410222)">
                                <g
                                   id="g31731"
                                   transform="translate(1.0576664,-0.70511063)">
                                <g
                                   id="g33243"
                                   transform="matrix(1.0772948,0,0,1.0772948,-7.3729128,-3.1743014)">
                                <g
                                   id="g35254"
                                   transform="translate(-2.2135012,-0.92031205)">
                                <g
                                   id="g36749"
                                   transform="translate(-0.98178042,-2.7817105)">
                                <g
                                   id="g37297"
                                   transform="translate(-6.7755742,-3.5033798)">
                                <g
                                   id="g38955"
                                   transform="matrix(1.2171094,0,0,1.2171094,-23.105122,-18.212482)">
                                <g
                                   id="g39618"
                                   transform="translate(-0.26888273,-0.26888316)">
                                <g
                                   id="g40032"
                                   transform="translate(-1.90129,-3.042064)">
                                <g
                                   id="g40543"
                                   transform="translate(0.3802582,-2.0914191)">
                                <g
                                   id="g41372"
                                   transform="translate(1.9657652,-7.9304203)">
                                <g
                                   id="g43278"
                                   transform="translate(1.5210324,-0.38025789)">
                                <g
                                   id="g44210"
                                   transform="matrix(1.1578947,0,0,1.1578947,-18.904476,-21.776183)">
                                <g
                                   id="g44833"
                                   transform="matrix(1.1196819,0,0,1.1196819,-12.538538,-14.547543)">
                                <g
                                   id="g47597"
                                   transform="translate(3.1109352,-1.2443743)">
                                <g
                                   id="g48754"
                                   transform="translate(-2.9035392,-6.6366609)">
                                <g
                                   id="g234"
                                   transform="matrix(0.04089637,0,0,0.04089637,104.63967,119.67231)">
                                <g
                                   id="g2138"
                                   transform="translate(-86.211222,-40.569988)">
                                <g
                                   id="g2696"
                                   transform="translate(-124306.44,-9412.2373)">
                                <g
                                   id="g3765"
                                   transform="translate(25.356243,-50.712489)">
                                <g
                                   id="g4557"
                                   transform="translate(46.61688,-35.859142)">
                                <g
                                   id="g5244"
                                   transform="translate(7.1718407,14.343658)">
                                <g
                                   id="g5807"
                                   transform="translate(-5.1984397,-21.113724)">
                                <g
                                   id="g6945"
                                   transform="translate(-10.142522,-243.41993)">
                                <g
                                   id="g11108"
                                   transform="translate(18.189368,-37.636113)">
                                <g
                                   id="g15049"
                                   transform="translate(-65.926228,141.99496)">
                                <g
                                   id="g19861"
                                   transform="matrix(0.07356842,0,0,0.07356842,115423.38,9039.2311)">
                                <g
                                   id="g20437"
                                   transform="translate(-478.38824,-785.88156)">
                                <g
                                   id="g21032"
                                   transform="translate(2047.1878,-1072.3367)">
                                <g
                                   id="g21869"
                                   transform="matrix(0.04321578,0,0,0.04321578,117368,10137.003)">
                                <g
                                   id="g25455"
                                   transform="translate(154741.46,-87178.414)">
                                <g
                                   id="g26278"
                                   transform="translate(-18012.371,-8233.4417)">
                                <g
                                   id="g27240"
                                   transform="translate(-0.00447131,5582.7624)">
                                <g
                                   id="g28306"
                                   transform="translate(-15790.441,-2255.7767)">
                                <g
                                   id="g33735"
                                   transform="translate(14662.549,-16918.328)">
                                <g
                                   id="g37868"
                                   transform="translate(-5075.4976,25941.433)">
                                <g
                                   id="g71964"
                                   transform="translate(5569.7282,-14718.697)">
                                <path
                                   style="fill:#afd2ef;stroke-width:949.709"
                                   d="m -107092.15,369118.26 c -8267.47,-1208.86 -15970.13,-4279.29 -20103.71,-8013.73 -9674.89,-8740.69 -14513.82,-31934.07 -14550.21,-69740.4 -42.26,-43886.33 6877.62,-84662.73 22241.2,-131059.88 6949.56,-20987.31 14836.93,-39375.82 29940.825,-69803.638 22674.879,-45680.086 30454.689,-68192.822 31390.514,-90835.94282 431.794,-10447.73318 233.343,-12876.01618 -1525.547,-18666.76418 -1353.431,-4455.892 -2021.903,-9217.867 -2021.903,-14403.42 0,-7639.927 -112.284,-8004.521 -8143.842,-26444.431 -4479.114,-10283.733 -8752.398,-19323.076 -9496.182,-20087.427 -834.728,-857.809 -4313.617,-1644.217 -9089.145,-2054.613 -10591.956,-910.244 -11930.9,-2039.736 -15694.14,-13239.025 -3898.59,-11602.119 -3960.24,-14480.509 -386.66,-18054.079 l 2776.07,-2776.07 h 93681.8569 c 65290.9661,0 94262.9311,310.98 95599.2381,1026.15 1054.557,564.39 2543.189,2523.93 3308.075,4354.54 1289.772,3086.87 1206.254,3959.95 -1151,12032.348 -4375.425,14983.623 -5060.393,15679.251 -16274.01,16527.335 -5422.669,410.116 -7680.451,1022.546 -9334.122,2531.91 -1199.702,1095.019 -5848.263,10500.866 -10330.131,20901.882 l -8148.857,18910.938 v 8273.8 c 0,4884.912 -576.91,9908.946 -1408.504,12265.926 -3533.147,10014.01 -2455.065,27726.2783 2806.334,46106.42 4133.847,14441.166 13614.88,36781.102 27206.198,64105.378 22089.013,44408.213 31420.652,69042.333 40652.712,107317.153 8399.13,34821.57 10903.17,55850.55 10912.9,91646.94 6.65,24995.63 -245.46,29947.8 -2056.09,40362.65 -4368.75,25129.36 -9315.7,32618.93 -24688.48,37377.82 -6314.512,1954.77 -7923.804,1988.23 -103284.8082,2147.57 -54765.6328,91.55 -99460.0918,-216.81 -102828.5818,-709.34 z"
                                   id="path71970" />
                                <path
                                   style="fill:#e44b3b;stroke-width:949.709"
                                   d="m -103033.34,369177.6 c -17317.94,-1740.64 -25903.13,-6879.78 -30876.9,-18483.12 -9195.02,-21451.09 -10031.18,-78023.6 -1852.96,-125367.25 7833.76,-45349.66 20492.99,-82235.54 45457.66,-132452.345 7660.403,-15409.033 15820.818,-32824.327 18134.253,-38700.654 l 4206.243,-10684.229 H -7836.9444 52291.146 l 984.981,2611.7 c 3853.379,10217.324 11539.338,26891.162 21779.408,47248.038 16443.542,32689.13 25607.175,55406.75 34232.055,84864.91 12460.52,42558.72 18787.38,93024.31 16276.22,129825.68 -2734.32,40071.77 -8747.74,54057.54 -25299.69,58840.97 -2644.518,764.25 -8868.219,1792.12 -13830.45,2284.15 -10302.884,1021.59 -179316.056,1032.43 -189467.01,12.16 z m 34645.628,-426119.356 c -11300.183,-26083.795 -11125.009,-25879.579 -22199.284,-25879.579 -8675.908,0 -10317.544,-1623.228 -13926.994,-13770.784 -3083.02,-10375.921 -3043.4,-14289.651 174.16,-17201.811 1908.14,-1727.03 5361.469,-1802.06 94714.9344,-2058 51004.0146,-146.1 93684.3396,-34.08 94845.1406,248.92 3358.077,818.7 5961.971,4281.46 5961.971,7928.49 0,3076.61 -2661.836,13598.99 -4893.956,19346.061 -1534.949,3952.048 -4729.059,5507.124 -11311.589,5507.124 -10673.127,0 -10934.981,285.536 -20504.081,22357.897 l -8401.565,19379.287 -53783.5669,25.013 -53783.5761,25.012 z"
                                   id="path71968" />
                                <path
                                   style="fill:#28160a;stroke-width:949.709"
                                   d="m -99709.353,369162.8 c -24998.187,-1738.62 -33098.347,-8729.35 -37874.917,-32687.48 -7417.38,-37203.75 -3962.46,-92439.22 8983.99,-143631.68 8712.17,-34449.32 18983.83,-60983.06 39986.381,-103292.737 7260.11,-14625.523 14892.116,-30964.901 16960.013,-36309.723 l 3759.795,-9717.862 60105.2684,220.769 60105.2776,220.77 3784.032,9497.092 c 2081.221,5223.402 10592.734,23386.592 18914.476,40362.646 8321.743,16976.055 17241.431,36207.665 19821.545,42736.915 26516.942,67104.04 37089.842,142058.79 27747.072,196708.13 -4001.49,23406.19 -9714.51,30674.26 -27237.335,34651.16 -5651.112,1282.56 -18780.672,1505.59 -96760.6853,1643.67 -49622.3107,87.85 -93855.0217,-92.88 -98294.9127,-401.67 z"
                                   id="path71966" />
                                </g>
                                </g>
                                </g>
                                </g>
                                </g>
                                </g>
                                </g>
                                </g>
                                </g>
                                </g>
                                </g>
                                </g>
                                </g>
                                </g>
                                </g>
                                </g>
                                </g>
                                </g>
                                </g>
                                </g>
                                </g>
                                </g>
                                </g>
                                </g>
                                </g>
                                </g>
                                </g>
                                </g>
                                </g>
                                </g>
                                </g>
                                </g>
                                </g>
                                </g>
                                </g>
                                </g>
                                </g>
                                </g>
                                </g>
                                </g>
                                </g>
                              </g>
                            </g>
                          </g>
                        </g>
                      </g>
                    </g>
                  </g>
                </g>
              </g>
            </g>
          </g>
        </g>
      </g>
    </g>
  </g>
</svg>
