<?xml version="1.0" encoding="UTF-8" standalone="no"?>
<!-- Created with Inkscape (http://www.inkscape.org/) -->

<svg
   width="64"
   height="64"
   viewBox="0 0 16.933333 16.933334"
   version="1.1"
   id="svg5"
   inkscape:version="1.2 (dc2aedaf03, 2022-05-15)"
   sodipodi:docname="bok_choy.svg"
   xmlns:inkscape="http://www.inkscape.org/namespaces/inkscape"
   xmlns:sodipodi="http://sodipodi.sourceforge.net/DTD/sodipodi-0.dtd"
   xmlns="http://www.w3.org/2000/svg"
   xmlns:svg="http://www.w3.org/2000/svg">
  <sodipodi:namedview
     id="namedview7"
     pagecolor="#ffffff"
     bordercolor="#666666"
     borderopacity="1.0"
     inkscape:pageshadow="2"
     inkscape:pageopacity="0.0"
     inkscape:pagecheckerboard="0"
     inkscape:document-units="mm"
     showgrid="false"
     units="px"
     inkscape:zoom="16"
     inkscape:cx="29.3125"
     inkscape:cy="26"
     inkscape:window-width="1920"
     inkscape:window-height="1017"
     inkscape:window-x="3832"
     inkscape:window-y="-8"
     inkscape:window-maximized="1"
     inkscape:current-layer="g74070"
     inkscape:showpageshadow="2"
     inkscape:deskcolor="#d1d1d1" />
  <defs
     id="defs2" />
  <g
     inkscape:label="Calque 1"
     inkscape:groupmode="layer"
     id="layer1">
    <g
       id="g4128"
       transform="translate(-0.63104184,0.12620835)">
      <g
         id="g5578"
         transform="translate(0.08924235,0.08924306)">
        <g
           id="g7501"
           transform="translate(-0.06310417,0.94656242)">
          <g
             id="g9467"
             transform="translate(-0.08924275,-0.80318511)">
            <g
               id="g10302"
               transform="translate(0.31234979,-0.04462139)">
              <g
                 id="g11479"
                 transform="translate(-0.12620833,0.06310418)">
                <g
                   id="g11873"
                   transform="translate(-0.23575769,0.66462456)">
                  <g
                     id="g12382"
                     transform="translate(-121.98459,-82.267525)">
                    <g
                       id="g13305"
                       transform="matrix(0.13266609,0,0,0.13266609,114.63867,78.215696)">
                      <g
                         id="g17429"
                         transform="translate(0.90513437,5.6640979)">
                        <g
                           id="g18595"
                           transform="translate(-3.3634362,-8.7449387)">
                          <g
                             id="g21002"
                             transform="translate(1.7082278,-2.8204445)">
                            <g
                               id="g23814"
                               transform="translate(8.7253043,-1.1218249)">
                              <g
                                 id="g24838"
                                 transform="translate(11.143454,-0.85716864)">
                                <g
                                   id="g25315"
                                   transform="translate(-3.490122,2.4929446)">
                                <g
                                   id="g27220"
                                   transform="translate(2.4678888,1.2339445)">
                                <g
                                   id="g29753"
                                   transform="translate(1.4759287,-2.3737724)">
                                <g
                                   id="g30615"
                                   transform="translate(0.92006037,1.3687834)">
                                <g
                                   id="g31433"
                                   transform="translate(-2.4678886,-1.410222)">
                                <g
                                   id="g31731"
                                   transform="translate(1.0576664,-0.70511063)">
                                <g
                                   id="g33243"
                                   transform="matrix(1.0772948,0,0,1.0772948,-7.3729128,-3.1743014)">
                                <g
                                   id="g35254"
                                   transform="translate(-2.2135012,-0.92031205)">
                                <g
                                   id="g36749"
                                   transform="translate(-0.98178042,-2.7817105)">
                                <g
                                   id="g37297"
                                   transform="translate(-6.7755742,-3.5033798)">
                                <g
                                   id="g38955"
                                   transform="matrix(1.2171094,0,0,1.2171094,-23.105122,-18.212482)">
                                <g
                                   id="g39618"
                                   transform="translate(-0.26888273,-0.26888316)">
                                <g
                                   id="g40032"
                                   transform="translate(-1.90129,-3.042064)">
                                <g
                                   id="g40543"
                                   transform="translate(0.3802582,-2.0914191)">
                                <g
                                   id="g41372"
                                   transform="translate(1.9657652,-7.9304203)">
                                <g
                                   id="g43278"
                                   transform="translate(1.5210324,-0.38025789)">
                                <g
                                   id="g44210"
                                   transform="matrix(1.1578947,0,0,1.1578947,-18.904476,-21.776183)">
                                <g
                                   id="g44833"
                                   transform="matrix(1.1196819,0,0,1.1196819,-12.538538,-14.547543)">
                                <g
                                   id="g47597"
                                   transform="translate(3.1109352,-1.2443743)">
                                <g
                                   id="g48754"
                                   transform="translate(-2.9035392,-6.6366609)">
                                <g
                                   id="g234"
                                   transform="matrix(0.04089637,0,0,0.04089637,104.63967,119.67231)">
                                <g
                                   id="g2138"
                                   transform="translate(-86.211222,-40.569988)">
                                <g
                                   id="g2696"
                                   transform="translate(-124306.44,-9412.2373)">
                                <g
                                   id="g3765"
                                   transform="translate(25.356243,-50.712489)">
                                <g
                                   id="g4557"
                                   transform="translate(46.61688,-35.859142)">
                                <g
                                   id="g5244"
                                   transform="translate(7.1718407,14.343658)">
                                <g
                                   id="g5807"
                                   transform="translate(-5.1984397,-21.113724)">
                                <g
                                   id="g6945"
                                   transform="translate(-10.142522,-243.41993)">
                                <g
                                   id="g11108"
                                   transform="translate(18.189368,-37.636113)">
                                <g
                                   id="g15049"
                                   transform="translate(-65.926228,141.99496)">
                                <g
                                   id="g19861"
                                   transform="matrix(0.07356842,0,0,0.07356842,115423.38,9039.2311)">
                                <g
                                   id="g20437"
                                   transform="translate(-478.38824,-785.88156)">
                                <g
                                   id="g21032"
                                   transform="translate(2047.1878,-1072.3367)">
                                <g
                                   id="g21869"
                                   transform="matrix(0.04321578,0,0,0.04321578,117368,10137.003)">
                                <g
                                   id="g25455"
                                   transform="translate(154741.46,-87178.414)">
                                <g
                                   id="g26278"
                                   transform="translate(-18012.371,-8233.4417)">
                                <g
                                   id="g27240"
                                   transform="translate(-0.00447131,5582.7624)">
                                <g
                                   id="g28306"
                                   transform="translate(-15790.441,-2255.7767)">
                                <g
                                   id="g33735"
                                   transform="translate(14662.549,-16918.328)">
                                <g
                                   id="g37868"
                                   transform="translate(-5075.4976,25941.433)">
                                <g
                                   id="g74070"
                                   transform="matrix(1.0985927,0,0,1.0985927,-6552.9769,-6833.8039)">
                                <path
                                   style="fill:#337a22;stroke-width:1239.45"
                                   d="m 73911.663,153238.12 c 0,-1862.37 530.063,-2887.79 1259.663,-2436.86 692.814,428.18 938.783,1297.72 546.572,1932.32 -392.198,634.58 -251.769,1153.8 312.056,1153.8 1808.788,0 16045.988,-14113.24 18403.219,-18242.98 1252.4,-2194.13 3034.28,-4279.9 3959.738,-4635.03 5095.159,-1955.19 -15271.792,20515.36 -21725.237,23969.15 -2519.177,1348.22 -2756.011,1198.67 -2756.011,-1740.4 z m -146162.148,-1954.47 c -8480.809,-5157.49 -22374.249,-21311.16 -31073.805,-36129.01 -4703.2,-8010.87 -1902.82,-5061.86 3753.863,3953.11 2968.316,4730.57 5932.938,8269.78 6588.036,7864.9 655.097,-404.86 838.164,-165.11 406.836,532.82 -431.34,697.92 1992.363,4441.93 5386.007,8320.04 3393.645,3878.1 6170.256,6805.38 6170.256,6505.06 0,-300.32 2165.389,1619.35 4811.969,4265.95 6142.678,6142.67 7639.609,6182.01 6242.107,164.04 -593.646,-2556.36 -1036.662,-5763.43 -984.469,-7126.83 52.181,-1363.39 877.194,1098.31 1833.366,5470.47 956.16,4372.15 1571.508,8116.32 1367.446,8320.38 -204.063,204.07 -2229.791,-759.36 -4501.612,-2140.93 z M 75346.807,146450.7 c 0,-1704.25 281.33,-2401.43 625.165,-1549.31 343.836,852.12 343.836,2246.49 0,3098.61 -343.835,852.13 -625.165,154.94 -625.165,-1549.3 z m 1141.606,-4681.15 c -139.091,-2249.41 7424.527,-40433.36 8154.202,-41165.48 892.576,-895.548 -415.735,7329.55 -3940.985,24776.02 -3218.027,15926.09 -4043.363,19136.62 -4213.217,16389.46 z m -150265.96,-14573.24 c -1063.384,-5089.1 -1543.868,-9252.91 -1067.734,-9252.91 953.358,0 4296.483,17210.51 3498.18,18008.8 -273.361,273.37 -1367.062,-3666.78 -2430.446,-8755.89 z m 174130.757,42.95 c 0,-962.57 464.79,-1462.87 1032.88,-1111.78 568.08,351.09 1032.87,47.72 1032.87,-674.24 0,-2083.3 453.54,-2913.71 3224.17,-5903.27 3060.58,-3302.42 23502.75,-43655.278 23254.03,-45903.487 -93.46,-844.783 260.13,-1270.186 785.74,-945.34 997.3,616.365 4531.21,-6741.74 4016.95,-8363.854 -162.08,-511.272 167.89,-929.586 733.26,-929.586 565.39,0 4804.29,-7808.52 9419.78,-17352.267 4615.5,-9543.747 8601.12,-17352.267 8856.94,-17352.267 2624.36,0 -47592.92,97342.091 -51445.65,99723.201 -501.04,309.67 -910.97,-224.55 -910.97,-1187.11 z M -78305.584,104187.95 c -1506.028,-7090.969 -2685.449,-13729.302 -2620.923,-14751.846 64.575,-1022.545 1474.261,4246.595 3132.741,11709.206 1658.468,7462.62 2837.889,14100.95 2620.924,14751.85 -216.978,650.91 -1626.701,-4618.23 -3132.742,-11709.21 z m -34085.706,-5146.127 c -6816.66,-12571.978 -25979.65,-50875.236 -29994.23,-59952.926 -5019.67,-11350.353 -2097.43,-7339.872 4176.2,5731.417 3272.97,6819.354 6354.13,11995.548 6847,11502.669 492.88,-492.866 493,154.435 0.27,1438.453 -689.85,1797.745 -491.16,2099.625 864.08,1312.811 967.97,-561.966 1365.53,-584.4 883.47,-49.826 -482.07,534.549 155.31,2994.407 1416.41,5466.361 1261.09,2471.954 2424.44,5052.212 2585.19,5733.908 728.38,3088.691 12947.32,24896.215 14453.02,25794.715 926.98,553.165 1387.73,1487.436 1023.89,2076.149 -756.3,1223.719 1818.59,7453.396 3080.67,7453.396 458.66,0 833.93,836.62 833.93,1859.17 0,1022.54 -140.75,1859.17 -312.77,1859.17 -172.04,0 -2807.74,-4601.45 -5857.13,-10225.442 z M 85262.389,96872.789 c 0,-1704.24 281.329,-2401.429 625.165,-1549.309 343.835,852.12 343.835,2246.499 0,3098.619 -343.836,852.12 -625.165,154.931 -625.165,-1549.31 z m 1309.972,-5577.514 c -15.493,-1363.392 688.575,-5267.652 1564.691,-8676.133 876.128,-3408.482 1605.667,-5081.736 1621.21,-3718.343 15.493,1363.392 -688.575,5267.652 -1564.691,8676.133 -876.129,3408.481 -1605.668,5081.735 -1621.21,3718.343 z M -82809.6,82550.278 c -466.64,-2487.373 -600.549,-4770.399 -297.567,-5073.369 302.971,-302.983 932.66,1484.263 1399.287,3971.649 466.64,2487.373 600.55,4770.398 297.567,5073.369 -302.971,302.983 -932.66,-1484.264 -1399.287,-3971.649 z m -5955.112,-26187.137 c -2555.741,-10669.574 -4428.807,-19617.233 -4162.363,-19883.677 674.78,-674.781 9695.691,36667.719 9206.518,38110.771 -218.552,644.686 -2488.414,-7557.507 -5044.155,-18227.094 z M 90254.462,73943.008 c -33.589,-3010.408 4405.134,-20602.409 4534.656,-17971.991 50.321,1022.544 -943.121,6042.307 -2207.704,11155.029 -1264.584,5112.721 -2311.719,8180.354 -2326.952,6816.962 z m 4938.48,-21690.334 c 20.079,-1022.544 482.988,-3253.55 1028.779,-4957.79 797.746,-2490.955 999.491,-2612.496 1028.779,-619.724 20.079,1363.392 -442.905,3594.398 -1028.779,4957.79 -652.606,1518.708 -1051.101,1758.752 -1028.779,619.724 z m 2268.227,-9251.795 c 0,-2128.528 9063.421,-31675.832 9563.071,-31176.186 292.28,292.274 -1520.21,7416.57 -4027.74,15831.775 -4237.741,14221.682 -5535.331,17818.708 -5535.331,15344.411 z M -95481.911,30869.736 c -167.561,-3228.117 -0.644,-3534.595 842.477,-1546.843 1351.122,3185.43 1478.19,5578.184 296.08,5575.048 -511.272,-1.24 -1023.623,-1814.043 -1138.557,-4028.205 z M -149640.95,23896.74 c -3396.07,-7567.46 -6984.65,-17171.2087 -6984.65,-18692.3333 0,-482.3682 760.1,-877.0455 1689.12,-877.0455 1043.85,0 1455.98,891.4851 1078.85,2333.632 -627.17,2398.294 1426.73,8306.3688 6477.86,18633.6948 1583.74,3238.057 2458.5,5887.376 1943.9,5887.376 -514.59,0 -2406.88,-3278.401 -4205.08,-7285.324 z m 75662.34,776.96 c -1922.036,-3578.211 -2638.251,-5390.333 -1591.575,-4026.941 1046.664,1363.393 2411.569,3079.495 3033.102,3813.545 1186.499,1401.307 3123.656,6722.665 2446.484,6720.496 -216.37,-0.694 -1965.962,-2928.889 -3888.011,-6507.1 z m 227812.51,930.85 c 6392.98,-19060.7961 8150.91,-24983.05051 9826.03,-33102.9695 1083.97,-5254.4025 2054.42,-11389.6685 2156.57,-13633.9245 177.21,-3893.737 209.77,-3919.901 711.7,-571.918 996.39,6646.191 -8055.56,42305.075 -12166.58,47928.536 -1105.48,1512.175 -1203.98,1396.51 -527.72,-619.724 z M -97663.302,23037.121 c -455.893,-1816.423 -589.865,-3541.623 -297.703,-3833.785 292.151,-292.15 904.19,954.982 1360.084,2771.405 455.893,1816.423 589.865,3541.622 297.702,3833.785 -292.15,292.15 -904.189,-954.982 -1360.083,-2771.405 z m -2414.308,-7396.069 c -425.07,-1107.695 -737.5,-2665.569 -694.28,-3461.939 43.26,-796.357 612.95,-112.046 1266.075,1520.765 653.127,1632.787 965.555,3190.661 694.277,3461.939 -271.278,271.278 -841.015,-413.071 -1266.072,-1520.765 z M -84831.151,6702.9733 C -88408.941,738.13152 -94834.2,-9548.5279 -99109.502,-16156.271 c -4275.298,-6607.731 -7049.298,-11736.256 -6164.438,-11396.696 884.85,339.546 2239.72,2002.017 3010.81,3694.384 771.1,1692.367 2004.13,3753.258 2740.074,4579.747 735.947,826.5 2551.044,3536.243 4033.547,6021.658 10677.346,17900.5612 12586.727,20675.2134 13766.434,20004.8954 727.927,-413.6161 929.09,-314.671 447.031,219.878 -482.071,534.549 226.46,3133.8446 1574.495,5776.2226 4234.425,8300.172 1639.021,5243.694 -5129.602,-6040.8447 z M 83827.245,17132.702 c 0,-501.171 884.705,-2261.446 1966.011,-3911.734 1081.294,-1650.275 1597.586,-3596.6042 1147.32,-4325.1639 -450.279,-728.5597 -181.629,-1171.402 596.992,-984.0967 778.634,187.3178 3568.073,-3284.8089 6198.763,-7715.83423 2630.703,-4431.02537 5962.338,-9450.78827 7403.659,-11155.02917 1441.31,-1704.24 -1396.564,3594.3985 -6306.388,11774.753 -9020.824,15029.79 -11006.357,17973.367 -11006.357,16317.105 z M -103231.5,5564.9001 c -53.79,-796.3699 -418.84,-2469.6242 -811.16,-3718.3429 -678.04,-2158.15108 -643.07,-2160.85307 707.45,-54.6597 781.41,1218.6497 1146.44,2891.904 811.15,3718.3429 -439.97,1084.5043 -636.81,1099.7248 -707.44,54.6597 z m 211928.42,156.4555 c -71.27,-1140.3786 9665.2,-29139.7856 10450.85,-30053.7296 169.74,-197.469 606.33,779.364 970.18,2170.744 363.85,1391.366 261.29,2282.393 -227.91,1980.054 -489.2,-302.338 -3189.61,5692.709 -6000.92,13322.3521 -2811.32,7629.63063 -5147.8,13290.8945 -5192.2,12580.5795 z M -159535.05,-5604.1469 c -1049.64,-4649.4901 -2150.56,-11242.3851 -2446.49,-14650.8661 -594.09,-6842.507 -469.13,-6392.922 2912.8,10479.1209 2715.94,13549.5548 2363.19,16705.3621 -466.31,4171.7452 z m 48906.73,-10450.5141 c -763.59,-2190.426 -1171.44,-4199.509 -906.33,-4464.602 265.1,-265.106 1106.76,1310.158 1870.35,3500.584 763.58,2190.426 1171.44,4199.509 906.33,4464.602 -265.1,265.106 -1106.76,-1310.158 -1870.35,-3500.584 z m 214286.73,865.618 c 0,-281.343 1952.13,-3475.697 4338.06,-7098.553 5357.49,-8134.941 5739.12,-7098.601 513.42,1394.243 -3423.19,5563.372 -4851.48,7242.749 -4851.48,5704.31 z m -217403.73,-12366.688 c 380.62,-991.906 1565.38,-2138.605 2632.8,-2548.206 3019.81,-1158.809 2867.55,-279.78 -371.13,2142.522 -2224.26,1663.574 -2782.82,1763.771 -2261.67,405.684 z m 280615.56,-9342.14 c 0,-12035.96 -2010.77,-29124.701 -3826.13,-32516.728 -637.69,-1191.534 -664.45,-2419.945 -60.86,-2792.992 1863.45,-1151.669 4110.48,12890.755 4792.92,29952.382 361.29,9032.475 305.25,16422.682 -124.52,16422.682 -429.78,0 -781.41,-4979.407 -781.41,-11065.344 z m -330304.89,-10005.266 c 430.59,-17621.587 3244.49,-33775.638 6861.09,-39388.269 1218.52,-1891.042 1284.07,-1851.798 577.32,345.668 -438.49,1363.392 -1365.79,4988.777 -2060.67,8056.41 -694.87,3067.633 -1841.57,7481.09 -2548.2,9807.682 -706.64,2326.593 -1731.17,12087.243 -2276.75,21690.334 l -991.95,17460.166 z m 277640.86,16092.604 c 428.18,-692.814 1297.72,-938.783 1932.32,-546.572 1719.16,1062.492 1398.6,1806.235 -778.52,1806.235 -1062.78,0 -1581.98,-566.849 -1153.8,-1259.663 z m 46747.45,-47389.064 c -2110.27,-5835.875 -1817.74,-7416.225 418.73,-2262.092 1012.99,2334.532 1675.22,4744.391 1471.6,5355.245 -203.62,610.853 -1054.26,-781.065 -1890.33,-3093.153 z m -207170.564,-7044.004 c -115.863,-2103.847 -22911.995,-24871.369 -24902.622,-24871.369 -753.461,0 -968.715,697.19 -478.34,1549.31 518.002,900.15 418.821,1116.53 -236.71,516.44 -620.567,-568.08 -1128.306,-1628.03 -1128.306,-2355.45 0,-2149.31 -12840.653,-8448.64 -22254.903,-10917.74 -4802.205,-1259.5 -7577.585,-2320.7 -6167.495,-2358.23 8146.459,-216.86 24335.926,7261.75 36703.891,16955.09 8674.411,6798.539 20021.318,19649.133 19182.46,21724.5 -433.695,1072.978 -649.545,1000.06 -717.975,-242.551 z m 202227.364,-4491.776 c -1525.78,-2327.603 -2774.15,-4729.286 -2774.15,-5337.072 0,-607.787 -836.62,-1799.406 -1859.17,-2648.042 -2014.54,-1671.917 -2600.88,-4323.039 -695.7,-3145.579 1486.46,918.681 9169.71,14296.163 8560.68,14905.191 -251.63,251.63 -1705.88,-1446.894 -3231.66,-3774.498 z m -311396.61,-262.614 c 0,-578.252 1986.16,-4365.064 4413.7,-8415.138 8814.57,-14706.151 20530.23,-23377.841 33389.45,-24714.201 7393.49,-768.34 6292.74,-185.66 -3424.48,1812.75 -4526.87,930.98 -6839.87,1959.17 -6315.59,2807.45 484.72,784.31 249.25,981.28 -568.72,475.75 -1958.41,-1210.37 -7289.6,2365.72 -14051.74,9425.72 -4986.26,5205.89 -10542.22,13918.434 -10103.01,15842.96 77.79,340.848 -641.8,1338.903 -1599.09,2217.901 -957.29,878.996 -1740.52,1125.06 -1740.52,546.808 z m 220223.297,-8588.196 c 10265.093,-10034.973 23994.702,-17770.203 35944.303,-20250.933 10359.35,-2150.59 23288.84,-1004.72 31600.8,2800.62 6599.79,3021.49 17832.51,11835.13 16623.86,13043.77 -317.54,317.55 -2041.55,-886.83 -3831.12,-2676.4 -1789.57,-1789.57 -3914.94,-2874.81 -4723.05,-2411.64 -808.1,463.17 -1058.45,388.36 -556.34,-166.24 1407.32,-1554.42 -6375.27,-6695.51 -13206.74,-8724.24 -12733.23,-3781.36 -28888.851,-1607.43 -42407.531,5706.45 -8347.594,4516.22 -11672.585,6904.48 -21445.06,15403.481 -5535.646,4814.286 -5089.147,4206.215 2000.878,-2724.868 z M -109836.45,-124569.75 c 852.12,-343.84 2246.5,-343.84 3098.62,0 852.12,343.84 154.93,625.16 -1549.31,625.16 -1704.24,0 -2401.43,-281.32 -1549.31,-625.16 z"
                                   id="path74072" />
                                <path
                                   style="fill:#e6f0bc;stroke-width:1239.45"
                                   d="m -58034.975,295184.41 c -10964.261,-48134.62 -4418.791,-71181.61 -7563.804,-129018.12 -869.757,-10619.7 -885.238,-10657.79 -5288.611,-13014.2 -7110.625,-3805.15 -20077.478,-17559.6 -28518.724,-30250.9 -10792.676,-16226.64 -52260.096,-99363.196 -57104.816,-114487.4443 -7004.67,-21867.1157 -9967.13,-47218.6257 -7695.65,-65856.0997 3896.52,-31970.938 16549.55,-54752.346 35192.94,-63363.886 6946.23,-3208.52 9005.01,-3562.11 20726.5,-3559.75 11277.25,2.23 14052.857,439.89 20796.431,3278.82 14996.115,6313.12 27647.714,15865.58 39700.488,29975.435 l 4057.133,4749.583 8801.95,-8303.31 c 15065.325,-14211.868 33457.0672,-20908.288 49659.176,-18080.878 10295.113,1796.59 23458.419,8455.48 32253.428,16315.966 l 7154.624,6394.393 8446.415,-7967.917 c 25112.188,-23689.572 54067.045,-29615.652 76121.395,-15579.472 11899.63,7573.35 21176.82,22535.912 26558.77,42834.876 2784.55,10502.405 3200.11,14566.532 3198.67,31282.043 -2.48,21583.443 -2413.71,36170.763 -9157.96,55388.944 -5276.05,15034.463 -45405.92,94934.257 -55182.42,109869.887 -7570.091,11564.87 -18643.304,23964.41 -27359.088,30636.08 l -3966.74,3036.44 c -5342.086,43114.26 76.406,89643.73 -4542.241,125803.93 -6202.568,20611.95 -18413.606,32970.37 -36023.654,36458.44 -33262.2977,11300.09 -75713.884,1476.17 -90264.212,-26542.86 z"
                                   id="path74078"
                                   sodipodi:nodetypes="ccssssscsscssscssscssscccc" />
                                <path
                                   style="fill:#48883a;stroke-width:1239.45"
                                   d="M -39632.722,154816.97 C -63319.873,121674.89 -64458.518,79419.208 -68464.614,40336.911 -75716.709,2962.7959 -107204.3,-92341.695 -43411.488,-85788.607 -27402.235,-105473.91 369.97296,-119627.67 25459.751,-109251.72 c 10975.307,4022.8 19912.067,11714.268 28721.22,19141.903 16786.998,34984.8 47365.569,78957.001 28503.506,112868.091 C 77379.489,62311.208 75675.277,103734.09 57106.873,139845.2 21974.357,182318.75 9212.9396,28480.296 2765.4392,-15892.92 -10494.897,-19194.639 -19648.276,89698.061 -25547.427,161654.35 c -6190.793,3518.07 -11078.333,-2091.87 -14085.295,-6837.38 z"
                                   id="path74076"
                                   sodipodi:nodetypes="cccccccccc" />
                                <path
                                   style="fill:#3a8129;stroke-width:1239.45"
                                   d="M 112844.23,-7439.8439 C 115624.8,-12571.518 105094,-16775.531 111254.78,-24225.601 101036.4,-10115.615 92816.718,5311.0438 83149.477,19758.15 88805.175,-15316.146 76749.814,-51973.623 56133.583,-81055.326 c -8206.336,-9542.802 -954.272,-9557.745 2024.083,-12450.136 17845.209,-16344.638 41788.341,-31387.428 67179.204,-24940.268 24830.32,6307.48 37252.94,32931.204 40880.21,56191.001 3282.04,30583.451 947.02,62414.3608 -12978.02,90323.279 -14682.99,31479.949 -29573.93,63023.713 -47183.05,92978.83 C 35477.548,232096.61 99250.402,31612.225 112844.23,-7439.8439 Z M -76079.003,148520.42 C -115745.76,100351.78 -157927.34,29826.459 -162984.46,-26534.257 c -2951.04,-31476.371 1151.6,-68534.926 27483.84,-89573.153 22638.28,-16156.53 53004.598,-5921.47 72343.881,10540.4 7325.804,5786.368 25051.194,27351.397 19118.115,20215.11 -24144.248,32168.272 -32168.124,74476.78 -25039.433,113745.207 -421.834,8611.79 -17778.331,-23087.6814 -13972.022,-18647.8623 -8489.962,-13013.352 -37766.211,-49366.4327 -26463.861,-38558.7407 13249.542,61783.159 28836.406,114390.229 42128.572,181523.566 -1577.541,3373.97 -6633.313,-3583.97 -8693.635,-4189.85 z m 35831.787,-236596.992 c 13917.749,-8229.077 8983.679,-8236.444 -72.354,82.135 z"
                                   id="path74074"
                                   sodipodi:nodetypes="ccccccccccccccccccccccc" />
                                </g>
                                </g>
                                </g>
                                </g>
                                </g>
                                </g>
                                </g>
                                </g>
                                </g>
                                </g>
                                </g>
                                </g>
                                </g>
                                </g>
                                </g>
                                </g>
                                </g>
                                </g>
                                </g>
                                </g>
                                </g>
                                </g>
                                </g>
                                </g>
                                </g>
                                </g>
                                </g>
                                </g>
                                </g>
                                </g>
                                </g>
                                </g>
                                </g>
                                </g>
                                </g>
                                </g>
                                </g>
                                </g>
                                </g>
                                </g>
                                </g>
                              </g>
                            </g>
                          </g>
                        </g>
                      </g>
                    </g>
                  </g>
                </g>
              </g>
            </g>
          </g>
        </g>
      </g>
    </g>
  </g>
</svg>
