<?xml version="1.0" encoding="UTF-8" standalone="no"?>
<!-- Created with Inkscape (http://www.inkscape.org/) -->

<svg
   width="64"
   height="64"
   viewBox="0 0 16.933333 16.933334"
   version="1.1"
   id="svg5"
   inkscape:version="1.2 (dc2aedaf03, 2022-05-15)"
   sodipodi:docname="bonbon.svg"
   xmlns:inkscape="http://www.inkscape.org/namespaces/inkscape"
   xmlns:sodipodi="http://sodipodi.sourceforge.net/DTD/sodipodi-0.dtd"
   xmlns="http://www.w3.org/2000/svg"
   xmlns:svg="http://www.w3.org/2000/svg">
  <sodipodi:namedview
     id="namedview7"
     pagecolor="#ffffff"
     bordercolor="#666666"
     borderopacity="1.0"
     inkscape:pageshadow="2"
     inkscape:pageopacity="0.0"
     inkscape:pagecheckerboard="0"
     inkscape:document-units="mm"
     showgrid="false"
     units="px"
     inkscape:zoom="8"
     inkscape:cx="32.875"
     inkscape:cy="51.5"
     inkscape:window-width="1920"
     inkscape:window-height="1017"
     inkscape:window-x="3832"
     inkscape:window-y="-8"
     inkscape:window-maximized="1"
     inkscape:current-layer="g37868"
     inkscape:showpageshadow="2"
     inkscape:deskcolor="#d1d1d1" />
  <defs
     id="defs2" />
  <g
     inkscape:label="Calque 1"
     inkscape:groupmode="layer"
     id="layer1">
    <g
       id="g4128"
       transform="translate(-0.63104184,0.12620835)">
      <g
         id="g5578"
         transform="translate(0.08924235,0.08924306)">
        <g
           id="g7501"
           transform="translate(-0.06310417,0.94656242)">
          <g
             id="g9467"
             transform="translate(-0.08924275,-0.80318511)">
            <g
               id="g10302"
               transform="translate(0.31234979,-0.04462139)">
              <g
                 id="g11479"
                 transform="translate(-0.12620833,0.06310418)">
                <g
                   id="g11873"
                   transform="translate(-0.23575769,0.66462456)">
                  <g
                     id="g12382"
                     transform="translate(-121.98459,-82.267525)">
                    <g
                       id="g13305"
                       transform="matrix(0.13266609,0,0,0.13266609,114.63867,78.215696)">
                      <g
                         id="g17429"
                         transform="translate(0.90513437,5.6640979)">
                        <g
                           id="g18595"
                           transform="translate(-3.3634362,-8.7449387)">
                          <g
                             id="g21002"
                             transform="translate(1.7082278,-2.8204445)">
                            <g
                               id="g23814"
                               transform="translate(8.7253043,-1.1218249)">
                              <g
                                 id="g24838"
                                 transform="translate(11.143454,-0.85716864)">
                                <g
                                   id="g25315"
                                   transform="translate(-3.490122,2.4929446)">
                                <g
                                   id="g27220"
                                   transform="translate(2.4678888,1.2339445)">
                                <g
                                   id="g29753"
                                   transform="translate(1.4759287,-2.3737724)">
                                <g
                                   id="g30615"
                                   transform="translate(0.92006037,1.3687834)">
                                <g
                                   id="g31433"
                                   transform="translate(-2.4678886,-1.410222)">
                                <g
                                   id="g31731"
                                   transform="translate(1.0576664,-0.70511063)">
                                <g
                                   id="g33243"
                                   transform="matrix(1.0772948,0,0,1.0772948,-7.3729128,-3.1743014)">
                                <g
                                   id="g35254"
                                   transform="translate(-2.2135012,-0.92031205)">
                                <g
                                   id="g36749"
                                   transform="translate(-0.98178042,-2.7817105)">
                                <g
                                   id="g37297"
                                   transform="translate(-6.7755742,-3.5033798)">
                                <g
                                   id="g38955"
                                   transform="matrix(1.2171094,0,0,1.2171094,-23.105122,-18.212482)">
                                <g
                                   id="g39618"
                                   transform="translate(-0.26888273,-0.26888316)">
                                <g
                                   id="g40032"
                                   transform="translate(-1.90129,-3.042064)">
                                <g
                                   id="g40543"
                                   transform="translate(0.3802582,-2.0914191)">
                                <g
                                   id="g41372"
                                   transform="translate(1.9657652,-7.9304203)">
                                <g
                                   id="g43278"
                                   transform="translate(1.5210324,-0.38025789)">
                                <g
                                   id="g44210"
                                   transform="matrix(1.1578947,0,0,1.1578947,-18.904476,-21.776183)">
                                <g
                                   id="g44833"
                                   transform="matrix(1.1196819,0,0,1.1196819,-12.538538,-14.547543)">
                                <g
                                   id="g47597"
                                   transform="translate(3.1109352,-1.2443743)">
                                <g
                                   id="g48754"
                                   transform="translate(-2.9035392,-6.6366609)">
                                <g
                                   id="g234"
                                   transform="matrix(0.04089637,0,0,0.04089637,104.63967,119.67231)">
                                <g
                                   id="g2138"
                                   transform="translate(-86.211222,-40.569988)">
                                <g
                                   id="g2696"
                                   transform="translate(-124306.44,-9412.2373)">
                                <g
                                   id="g3765"
                                   transform="translate(25.356243,-50.712489)">
                                <g
                                   id="g4557"
                                   transform="translate(46.61688,-35.859142)">
                                <g
                                   id="g5244"
                                   transform="translate(7.1718407,14.343658)">
                                <g
                                   id="g5807"
                                   transform="translate(-5.1984397,-21.113724)">
                                <g
                                   id="g6945"
                                   transform="translate(-10.142522,-243.41993)">
                                <g
                                   id="g11108"
                                   transform="translate(18.189368,-37.636113)">
                                <g
                                   id="g15049"
                                   transform="translate(-65.926228,141.99496)">
                                <g
                                   id="g19861"
                                   transform="matrix(0.07356842,0,0,0.07356842,115423.38,9039.2311)">
                                <g
                                   id="g20437"
                                   transform="translate(-478.38824,-785.88156)">
                                <g
                                   id="g21032"
                                   transform="translate(2047.1878,-1072.3367)">
                                <g
                                   id="g21869"
                                   transform="matrix(0.04321578,0,0,0.04321578,117368,10137.003)">
                                <g
                                   id="g25455"
                                   transform="translate(154741.46,-87178.414)">
                                <g
                                   id="g26278"
                                   transform="translate(-18012.371,-8233.4417)">
                                <g
                                   id="g27240"
                                   transform="translate(-0.00447131,5582.7624)">
                                <g
                                   id="g28306"
                                   transform="translate(-15790.441,-2255.7767)">
                                <g
                                   id="g33735"
                                   transform="translate(14662.549,-16918.328)">
                                <g
                                   id="g37868"
                                   transform="translate(-5075.4976,25941.433)">
                                <g
                                   id="g74783"
                                   transform="matrix(0.20766778,0,0,0.20766778,-43254.745,116815.1)">
                                <path
                                   style="fill:#66c7fc;stroke-width:9075.99"
                                   d="M -73487.834,538588.83 C -315070.74,520080.79 -547207.9,396702.96 -624534.52,245714.96 l -13366.03,-26098.38 -32895.48,58822.5 c -19526.27,34916.42 -57846.1,82162.67 -94287.93,116252.28 -65991.9,61732.16 -188237.75,144860.61 -213030.09,144862.61 -9300.53,0.72 -19239.27,-12301.15 -25662.85,-31764.79 -11772.4,-35670.91 -4201.1,-68393.49 33005.03,-142645.17 41952.59,-83724.01 21727.04,-148051.46 -61676.13,-196161.29 -122383.1,-70594.687 -139180.4,-131296.909 -72587.2,-262317.466 36219.5,-71261.144 50118.4,-75525.864 159334.45,-48889.884 91278.01,22261.18 170969.76,59357.542 228124.43,106191.523 l 38130.87,31245.3688 10793.81,-54864.2548 c 32955.01,-167507.057 191060.85,-348139.797 404568,-462210.767 181031.527,-96720.17 396469.41,-144294.91 603553.38,-133281.6 95432.5,5075.38 136799.78,11877.22 253479.81,41678.59 111330.55,28435.06 276288.59,142276.39 327383.6,225934.99 12479.49,20432.83 24967.14,37260.46 27750.3,37394.73 2783.24,134.23 11907.42,-15071.62 20276.12,-33790.85 37269.33,-83365.19 144997.83,-190007.24 261117.13,-258483.95 53626.9,-31624.33 58486.1,-32876.21 73803.3,-19014.32 24203.7,21904.12 20307.9,68141.9 -11930.5,141594.04 -15580,35497.6 -30089.2,79066.22 -32242.7,96819.16 -5236.6,43169.94 21348.9,84285.51 76433.7,118207.85 95636.9,58895.21 120185.8,89581.28 120242.2,150302.03 45.3,49533.09 -54964.6,164150.8948 -85450.6,178041.154 -51280.3,23364.958 -280015.1,-54684.296 -346799.5,-118335.453 l -28402.39,-27069.871 -5856.2,42548.002 C 976328.48,14736.624 908943.96,139258.49 825035.25,224183.53 652755.79,398549.65 397267.83,517264.97 155548.42,535268.01 c -36117.63,2689.95 -82005.204,6102.15 -101972.384,7582.54 -19967.18,1480.38 -77145.921,-437.46 -127063.87,-4261.72 z"
                                   id="path74791" />
                                <path
                                   style="fill:#fad320;stroke-width:9075.99"
                                   d="m -1003776.9,507789.18 c -11772.4,-35670.91 -4201.1,-68393.49 33005.03,-142645.17 41952.59,-83724.01 21727.04,-148051.46 -61676.13,-196161.29 -122383.1,-70594.687 -139180.4,-131296.909 -72587.2,-262317.466 36219.5,-71261.144 50118.4,-75525.864 159334.45,-48889.884 91278.01,22261.18 170969.76,59357.542 228124.43,106191.523 l 38130.87,31245.3688 10793.81,-54864.2548 c 29575.2,-150327.867 170155.94,-323893.027 350112.06,-432258.767 50358.22,-30324.66 199660.63,-92348.2 276817.713,-114996.24 152396.867,-44733.28 423511.137,-60100.24 540021.447,-30608.82 29950.77,7581.22 72543.22,18403.74 94649.97,24050.05 111330.55,28435.06 276288.59,142276.39 327383.6,225934.99 12479.49,20432.83 24967.14,37260.46 27750.3,37394.73 2783.24,134.23 11907.42,-15071.62 20276.12,-33790.85 37269.33,-83365.19 144997.83,-190007.24 261117.13,-258483.95 53626.9,-31624.33 58486.1,-32876.21 73803.3,-19014.32 24203.7,21904.12 20307.9,68141.9 -11930.5,141594.04 -15580,35497.6 -30089.2,79066.22 -32242.7,96819.16 -5236.6,43169.94 21348.9,84285.51 76433.7,118207.85 95636.9,58895.21 120185.8,89581.28 120242.2,150302.03 45.3,49533.09 -54964.6,164150.8948 -85450.6,178041.154 -50884.3,23184.437 -280518.9,-54781.409 -345602.3,-117339.354 l -27205.17,-26149.56 -11145.77,55203.776 C 972362.45,4676.2511 914687.89,121744.46 865283.91,181053.52 789045.95,272576.44 651581.9,376657.54 548217.53,421120.73 438299.75,468403.01 293739.82,511965.23 202165.07,525401.59 -47226.727,561993.72 -262297.67,529632.64 -433683.05,429727.4 -508699.65,385998.19 -593232.43,306414.82 -619920.74,254393.97 l -17907.84,-34905.99 -32931.42,58886.84 c -19562.75,34981.41 -57854.08,82200.79 -94323.96,116316.54 -65991.9,61732.16 -188237.75,144860.61 -213030.09,144862.61 -9300.53,0.72 -19239.27,-12301.15 -25662.85,-31764.79 z M 142691.65,-398626.61 c 116019.02,-36438.66 208087.78,-107932.45 199157.09,-154650.58 -2450.06,-12816.62 -7609.04,-21353.43 -11464.43,-18970.67 -3855.39,2382.75 -11870.57,-1524.63 -17811.63,-8683.09 -17240.02,-20773.02 -106175.38,-34946.41 -178281.77,-28412.29 -125891.7977,11408.01 -248179.25,55304.22 -311410.68,111783.77 l -38308.21,34217.65 11976.13,36029.27 c 10027.88,30168 17882.06,37910.47 48280.1,47593.05 56669.85,18050.88 211478.207,8224.29 297863.4,-18907.11 z"
                                   id="path74789" />
                                <path
                                   style="fill:#26aff8;stroke-width:9075.99"
                                   d="m -130212.78,530196.35 c -11231.53,-4514.58 -20420.98,-15343.78 -20420.98,-24064.99 0,-13691.22 -96910.52,-458522.133 -181823.31,-834590.73 -14808.48,-65584.92 -26924.47,-123434.39 -26924.47,-128554.39 0,-15136.69 79710.98,-59604.8 176981.82,-98732.3 112136.494,-45107.23 167977.889,-61691.23 270867.767,-80443.33 83158.673,-15155.99 330438.403,-22059.16 365452.033,-10202.1 15912.48,5388.64 22360.33,22187.49 38116.25,99305.73 25874.02,126641.54 151103.9,689241.4 177840.77,798956.15 l 21681.27,88968.85 -35143.05,22184.89 c -112010.98,70709.41 -307155.94,140366.28 -454554.2,162252.85 -103631.391,15387.8 -298835.531,18279.5 -332073.9,4919.37 z m 272904.43,-928822.96 c 116019.02,-36438.66 208087.78,-107932.45 199157.09,-154650.58 -2450.06,-12816.62 -7609.04,-21353.43 -11464.43,-18970.67 -3855.39,2382.75 -11870.57,-1524.63 -17811.63,-8683.09 -17240.02,-20773.02 -106175.38,-34946.41 -178281.77,-28412.29 -125891.7977,11408.01 -248179.25,55304.22 -311410.68,111783.77 l -38308.21,34217.65 11976.13,36029.27 c 10027.88,30168 17882.06,37910.47 48280.1,47593.05 56669.85,18050.88 211478.207,8224.29 297863.4,-18907.11 z"
                                   id="path74787" />
                                <path
                                   style="fill:#e94b37;stroke-width:9075.99"
                                   d="m -130212.78,530196.35 c -11231.53,-4514.58 -20420.98,-15343.78 -20420.98,-24064.99 0,-13588.57 -84729.72,-402580.9 -183361.51,-841808.9 l -28398.32,-126463.45 20588.61,-14214.4 c 11323.75,-7817.92 41402.86,-25139.29 66842.4,-38491.94 l 46253.79,-24277.53 66073.85,296557.25 c 36340.63,163106.496 82601.501,372114.88 102801.843,464463.09 20200.342,92348.2 44349.193,201600.44 53664.1551,242782.75 l 16936.2529,74876.92 -60279.554,-575.42 c -33153.778,-316.75 -69468.997,-4268.98 -80700.537,-8783.47 z M 540379.69,355766.34 C 534071.33,324567.62 500282.05,170389.23 465292.38,13147.69 358177.18,-468221.63 329612.31,-598239.28 324027.4,-629843.24 l -5365.27,-30361.56 62590.75,6132.2 c 95748.89,9380.8 89635.49,3476.9 110783.45,106986.84 25874.02,126641.54 151103.9,689241.4 177840.77,798956.15 l 21681.27,88968.85 -33097.41,20847.46 c -43036.53,27107.71 -89166.89,50804.58 -98900.8,50804.58 -4240.94,0 -12872.21,-25526.22 -19180.47,-56724.94 z"
                                   id="path74785" />
                                </g>
                                </g>
                                </g>
                                </g>
                                </g>
                                </g>
                                </g>
                                </g>
                                </g>
                                </g>
                                </g>
                                </g>
                                </g>
                                </g>
                                </g>
                                </g>
                                </g>
                                </g>
                                </g>
                                </g>
                                </g>
                                </g>
                                </g>
                                </g>
                                </g>
                                </g>
                                </g>
                                </g>
                                </g>
                                </g>
                                </g>
                                </g>
                                </g>
                                </g>
                                </g>
                                </g>
                                </g>
                                </g>
                                </g>
                                </g>
                                </g>
                              </g>
                            </g>
                          </g>
                        </g>
                      </g>
                    </g>
                  </g>
                </g>
              </g>
            </g>
          </g>
        </g>
      </g>
    </g>
  </g>
</svg>
