<?xml version="1.0" encoding="UTF-8" standalone="no"?>
<!-- Created with Inkscape (http://www.inkscape.org/) -->

<svg
   width="64"
   height="64"
   viewBox="0 0 16.933333 16.933334"
   version="1.1"
   id="svg5"
   inkscape:version="1.1.1 (3bf5ae0d25, 2021-09-20)"
   sodipodi:docname="biscuit_cuiller.svg"
   xmlns:inkscape="http://www.inkscape.org/namespaces/inkscape"
   xmlns:sodipodi="http://sodipodi.sourceforge.net/DTD/sodipodi-0.dtd"
   xmlns="http://www.w3.org/2000/svg"
   xmlns:svg="http://www.w3.org/2000/svg">
  <sodipodi:namedview
     id="namedview7"
     pagecolor="#ffffff"
     bordercolor="#666666"
     borderopacity="1.0"
     inkscape:pageshadow="2"
     inkscape:pageopacity="0.0"
     inkscape:pagecheckerboard="0"
     inkscape:document-units="mm"
     showgrid="false"
     units="px"
     inkscape:zoom="4"
     inkscape:cx="65.875"
     inkscape:cy="13.375"
     inkscape:window-width="1920"
     inkscape:window-height="1017"
     inkscape:window-x="1912"
     inkscape:window-y="-8"
     inkscape:window-maximized="1"
     inkscape:current-layer="g20437" />
  <defs
     id="defs2">
    <pattern
       id="EMFhbasepattern"
       patternUnits="userSpaceOnUse"
       width="6"
       height="6"
       x="0"
       y="0" />
    <pattern
       id="EMFhbasepattern-5"
       patternUnits="userSpaceOnUse"
       width="6"
       height="6"
       x="0"
       y="0" />
    <pattern
       id="EMFhbasepattern-56"
       patternUnits="userSpaceOnUse"
       width="6"
       height="6"
       x="0"
       y="0" />
    <pattern
       id="EMFhbasepattern-6"
       patternUnits="userSpaceOnUse"
       width="6"
       height="6"
       x="0"
       y="0" />
    <pattern
       id="EMFhbasepattern-62"
       patternUnits="userSpaceOnUse"
       width="6"
       height="6"
       x="0"
       y="0" />
    <pattern
       id="EMFhbasepattern-8"
       patternUnits="userSpaceOnUse"
       width="6"
       height="6"
       x="0"
       y="0" />
    <pattern
       id="EMFhbasepattern-81"
       patternUnits="userSpaceOnUse"
       width="6"
       height="6"
       x="0"
       y="0" />
    <pattern
       id="EMFhbasepattern-9"
       patternUnits="userSpaceOnUse"
       width="6"
       height="6"
       x="0"
       y="0" />
    <pattern
       id="EMFhbasepattern-52"
       patternUnits="userSpaceOnUse"
       width="6"
       height="6"
       x="0"
       y="0" />
    <pattern
       id="EMFhbasepattern-0"
       patternUnits="userSpaceOnUse"
       width="6"
       height="6"
       x="0"
       y="0" />
    <pattern
       id="EMFhbasepattern-7"
       patternUnits="userSpaceOnUse"
       width="6"
       height="6"
       x="0"
       y="0" />
    <pattern
       id="EMFhbasepattern-65"
       patternUnits="userSpaceOnUse"
       width="6"
       height="6"
       x="0"
       y="0" />
    <pattern
       id="EMFhbasepattern-3"
       patternUnits="userSpaceOnUse"
       width="6"
       height="6"
       x="0"
       y="0" />
    <pattern
       id="EMFhbasepattern-90"
       patternUnits="userSpaceOnUse"
       width="6"
       height="6"
       x="0"
       y="0" />
    <pattern
       id="EMFhbasepattern-4"
       patternUnits="userSpaceOnUse"
       width="6"
       height="6"
       x="0"
       y="0" />
    <pattern
       id="EMFhbasepattern-2"
       patternUnits="userSpaceOnUse"
       width="6"
       height="6"
       x="0"
       y="0" />
    <pattern
       id="EMFhbasepattern-40"
       patternUnits="userSpaceOnUse"
       width="6"
       height="6"
       x="0"
       y="0" />
    <pattern
       id="EMFhbasepattern-74"
       patternUnits="userSpaceOnUse"
       width="6"
       height="6"
       x="0"
       y="0" />
    <pattern
       id="EMFhbasepattern-656"
       patternUnits="userSpaceOnUse"
       width="6"
       height="6"
       x="0"
       y="0" />
    <pattern
       id="EMFhbasepattern-76"
       patternUnits="userSpaceOnUse"
       width="6"
       height="6"
       x="0"
       y="0" />
    <pattern
       id="EMFhbasepattern-1"
       patternUnits="userSpaceOnUse"
       width="6"
       height="6"
       x="0"
       y="0" />
    <pattern
       id="EMFhbasepattern-42"
       patternUnits="userSpaceOnUse"
       width="6"
       height="6"
       x="0"
       y="0" />
    <pattern
       id="EMFhbasepattern-73"
       patternUnits="userSpaceOnUse"
       width="6"
       height="6"
       x="0"
       y="0" />
    <pattern
       id="EMFhbasepattern-566"
       patternUnits="userSpaceOnUse"
       width="6"
       height="6"
       x="0"
       y="0" />
    <pattern
       id="EMFhbasepattern-71"
       patternUnits="userSpaceOnUse"
       width="6"
       height="6"
       x="0"
       y="0" />
    <pattern
       id="EMFhbasepattern-31"
       patternUnits="userSpaceOnUse"
       width="6"
       height="6"
       x="0"
       y="0" />
    <pattern
       id="EMFhbasepattern-60"
       patternUnits="userSpaceOnUse"
       width="6"
       height="6"
       x="0"
       y="0" />
    <pattern
       id="EMFhbasepattern-28"
       patternUnits="userSpaceOnUse"
       width="6"
       height="6"
       x="0"
       y="0" />
    <pattern
       id="EMFhbasepattern-02"
       patternUnits="userSpaceOnUse"
       width="6"
       height="6"
       x="0"
       y="0" />
    <pattern
       id="EMFhbasepattern-57"
       patternUnits="userSpaceOnUse"
       width="6"
       height="6"
       x="0"
       y="0" />
    <pattern
       id="EMFhbasepattern-50"
       patternUnits="userSpaceOnUse"
       width="6"
       height="6"
       x="0"
       y="0" />
    <pattern
       id="EMFhbasepattern-45"
       patternUnits="userSpaceOnUse"
       width="6"
       height="6"
       x="0"
       y="0" />
    <pattern
       id="EMFhbasepattern-33"
       patternUnits="userSpaceOnUse"
       width="6"
       height="6"
       x="0"
       y="0" />
    <pattern
       id="EMFhbasepattern-21"
       patternUnits="userSpaceOnUse"
       width="6"
       height="6"
       x="0"
       y="0" />
    <pattern
       id="EMFhbasepattern-818"
       patternUnits="userSpaceOnUse"
       width="6"
       height="6"
       x="0"
       y="0" />
    <pattern
       id="EMFhbasepattern-32"
       patternUnits="userSpaceOnUse"
       width="6"
       height="6"
       x="0"
       y="0" />
    <pattern
       id="EMFhbasepattern-38"
       patternUnits="userSpaceOnUse"
       width="6"
       height="6"
       x="0"
       y="0" />
    <pattern
       id="EMFhbasepattern-39"
       patternUnits="userSpaceOnUse"
       width="6"
       height="6"
       x="0"
       y="0" />
    <pattern
       id="EMFhbasepattern-86"
       patternUnits="userSpaceOnUse"
       width="6"
       height="6"
       x="0"
       y="0" />
    <pattern
       id="EMFhbasepattern-07"
       patternUnits="userSpaceOnUse"
       width="6"
       height="6"
       x="0"
       y="0" />
    <pattern
       id="EMFhbasepattern-524"
       patternUnits="userSpaceOnUse"
       width="6"
       height="6"
       x="0"
       y="0" />
    <pattern
       id="EMFhbasepattern-508"
       patternUnits="userSpaceOnUse"
       width="6"
       height="6"
       x="0"
       y="0" />
    <pattern
       id="EMFhbasepattern-217"
       patternUnits="userSpaceOnUse"
       width="6"
       height="6"
       x="0"
       y="0" />
    <pattern
       id="EMFhbasepattern-84"
       patternUnits="userSpaceOnUse"
       width="6"
       height="6"
       x="0"
       y="0" />
    <pattern
       id="EMFhbasepattern-96"
       patternUnits="userSpaceOnUse"
       width="6"
       height="6"
       x="0"
       y="0" />
    <pattern
       id="EMFhbasepattern-48"
       patternUnits="userSpaceOnUse"
       width="6"
       height="6"
       x="0"
       y="0" />
    <pattern
       id="EMFhbasepattern-23"
       patternUnits="userSpaceOnUse"
       width="6"
       height="6"
       x="0"
       y="0" />
    <pattern
       id="EMFhbasepattern-36"
       patternUnits="userSpaceOnUse"
       width="6"
       height="6"
       x="0"
       y="0" />
    <pattern
       id="EMFhbasepattern-900"
       patternUnits="userSpaceOnUse"
       width="6"
       height="6"
       x="0"
       y="0" />
    <pattern
       id="EMFhbasepattern-37"
       patternUnits="userSpaceOnUse"
       width="6"
       height="6"
       x="0"
       y="0" />
    <pattern
       id="EMFhbasepattern-11"
       patternUnits="userSpaceOnUse"
       width="6"
       height="6"
       x="0"
       y="0" />
    <pattern
       id="EMFhbasepattern-95"
       patternUnits="userSpaceOnUse"
       width="6"
       height="6"
       x="0"
       y="0" />
    <pattern
       id="EMFhbasepattern-10"
       patternUnits="userSpaceOnUse"
       width="6"
       height="6"
       x="0"
       y="0" />
    <pattern
       id="EMFhbasepattern-909"
       patternUnits="userSpaceOnUse"
       width="6"
       height="6"
       x="0"
       y="0" />
    <pattern
       id="EMFhbasepattern-06"
       patternUnits="userSpaceOnUse"
       width="6"
       height="6"
       x="0"
       y="0" />
    <pattern
       id="EMFhbasepattern-34"
       patternUnits="userSpaceOnUse"
       width="6"
       height="6"
       x="0"
       y="0" />
    <pattern
       id="EMFhbasepattern-41"
       patternUnits="userSpaceOnUse"
       width="6"
       height="6"
       x="0"
       y="0" />
    <pattern
       id="EMFhbasepattern-82"
       patternUnits="userSpaceOnUse"
       width="6"
       height="6"
       x="0"
       y="0" />
    <pattern
       id="EMFhbasepattern-94"
       patternUnits="userSpaceOnUse"
       width="6"
       height="6"
       x="0"
       y="0" />
    <pattern
       id="EMFhbasepattern-738"
       patternUnits="userSpaceOnUse"
       width="6"
       height="6"
       x="0"
       y="0" />
    <pattern
       id="EMFhbasepattern-19"
       patternUnits="userSpaceOnUse"
       width="6"
       height="6"
       x="0"
       y="0" />
    <pattern
       id="EMFhbasepattern-342"
       patternUnits="userSpaceOnUse"
       width="6"
       height="6"
       x="0"
       y="0" />
    <pattern
       id="EMFhbasepattern-77"
       patternUnits="userSpaceOnUse"
       width="6"
       height="6"
       x="0"
       y="0" />
    <pattern
       id="EMFhbasepattern-29"
       patternUnits="userSpaceOnUse"
       width="6"
       height="6"
       x="0"
       y="0" />
    <pattern
       id="EMFhbasepattern-219"
       patternUnits="userSpaceOnUse"
       width="6"
       height="6"
       x="0"
       y="0" />
    <pattern
       id="EMFhbasepattern-105"
       patternUnits="userSpaceOnUse"
       width="6"
       height="6"
       x="0"
       y="0" />
    <pattern
       id="EMFhbasepattern-104"
       patternUnits="userSpaceOnUse"
       width="6"
       height="6"
       x="0"
       y="0" />
    <pattern
       id="EMFhbasepattern-44"
       patternUnits="userSpaceOnUse"
       width="6"
       height="6"
       x="0"
       y="0" />
    <pattern
       id="EMFhbasepattern-87"
       patternUnits="userSpaceOnUse"
       width="6"
       height="6"
       x="0"
       y="0" />
    <pattern
       id="EMFhbasepattern-93"
       patternUnits="userSpaceOnUse"
       width="6"
       height="6"
       x="0"
       y="0" />
    <pattern
       id="EMFhbasepattern-324"
       patternUnits="userSpaceOnUse"
       width="6"
       height="6"
       x="0"
       y="0" />
    <pattern
       id="EMFhbasepattern-20"
       patternUnits="userSpaceOnUse"
       width="6"
       height="6"
       x="0"
       y="0" />
    <pattern
       id="EMFhbasepattern-78"
       patternUnits="userSpaceOnUse"
       width="6"
       height="6"
       x="0"
       y="0" />
    <pattern
       id="EMFhbasepattern-313"
       patternUnits="userSpaceOnUse"
       width="6"
       height="6"
       x="0"
       y="0" />
    <pattern
       id="EMFhbasepattern-3422"
       patternUnits="userSpaceOnUse"
       width="6"
       height="6"
       x="0"
       y="0" />
  </defs>
  <g
     inkscape:label="Calque 1"
     inkscape:groupmode="layer"
     id="layer1">
    <g
       id="g4128"
       transform="translate(-0.63104184,0.12620835)">
      <g
         id="g5578"
         transform="translate(0.08924235,0.08924306)">
        <g
           id="g7501"
           transform="translate(-0.06310417,0.94656242)">
          <g
             id="g9467"
             transform="translate(-0.08924275,-0.80318511)">
            <g
               id="g10302"
               transform="translate(0.31234979,-0.04462139)">
              <g
                 id="g11479"
                 transform="translate(-0.12620833,0.06310418)">
                <g
                   id="g11873"
                   transform="translate(-0.23575769,0.66462456)">
                  <g
                     id="g12382"
                     transform="translate(-121.98459,-82.267525)">
                    <g
                       id="g13305"
                       transform="matrix(0.13266609,0,0,0.13266609,114.63867,78.215696)">
                      <g
                         id="g17429"
                         transform="translate(0.90513437,5.6640979)">
                        <g
                           id="g18595"
                           transform="translate(-3.3634362,-8.7449387)">
                          <g
                             id="g21002"
                             transform="translate(1.7082278,-2.8204445)">
                            <g
                               id="g23814"
                               transform="translate(8.7253043,-1.1218249)">
                              <g
                                 id="g24838"
                                 transform="translate(11.143454,-0.85716864)">
                                <g
                                   id="g25315"
                                   transform="translate(-3.490122,2.4929446)">
                                <g
                                   id="g27220"
                                   transform="translate(2.4678888,1.2339445)">
                                <g
                                   id="g29753"
                                   transform="translate(1.4759287,-2.3737724)">
                                <g
                                   id="g30615"
                                   transform="translate(0.92006037,1.3687834)">
                                <g
                                   id="g31433"
                                   transform="translate(-2.4678886,-1.410222)">
                                <g
                                   id="g31731"
                                   transform="translate(1.0576664,-0.70511063)">
                                <g
                                   id="g33243"
                                   transform="matrix(1.0772948,0,0,1.0772948,-7.3729128,-3.1743014)">
                                <g
                                   id="g35254"
                                   transform="translate(-2.2135012,-0.92031205)">
                                <g
                                   id="g36749"
                                   transform="translate(-0.98178042,-2.7817105)">
                                <g
                                   id="g37297"
                                   transform="translate(-6.7755742,-3.5033798)">
                                <g
                                   id="g38955"
                                   transform="matrix(1.2171094,0,0,1.2171094,-23.105122,-18.212482)">
                                <g
                                   id="g39618"
                                   transform="translate(-0.26888273,-0.26888316)">
                                <g
                                   id="g40032"
                                   transform="translate(-1.90129,-3.042064)">
                                <g
                                   id="g40543"
                                   transform="translate(0.3802582,-2.0914191)">
                                <g
                                   id="g41372"
                                   transform="translate(1.9657652,-7.9304203)">
                                <g
                                   id="g43278"
                                   transform="translate(1.5210324,-0.38025789)">
                                <g
                                   id="g44210"
                                   transform="matrix(1.1578947,0,0,1.1578947,-18.904476,-21.776183)">
                                <g
                                   id="g44833"
                                   transform="matrix(1.1196819,0,0,1.1196819,-12.538538,-14.547543)">
                                <g
                                   id="g47597"
                                   transform="translate(3.1109352,-1.2443743)">
                                <g
                                   id="g48754"
                                   transform="translate(-2.9035392,-6.6366609)">
                                <g
                                   id="g234"
                                   transform="matrix(0.04089637,0,0,0.04089637,104.63967,119.67231)">
                                <g
                                   id="g2138"
                                   transform="translate(-86.211222,-40.569988)">
                                <g
                                   id="g2696"
                                   transform="translate(-124306.44,-9412.2373)">
                                <g
                                   id="g3765"
                                   transform="translate(25.356243,-50.712489)">
                                <g
                                   id="g4557"
                                   transform="translate(46.61688,-35.859142)">
                                <g
                                   id="g5244"
                                   transform="translate(7.1718407,14.343658)">
                                <g
                                   id="g5807"
                                   transform="translate(-5.1984397,-21.113724)">
                                <g
                                   id="g6945"
                                   transform="translate(-10.142522,-243.41993)">
                                <g
                                   id="g11108"
                                   transform="translate(18.189368,-37.636113)">
                                <g
                                   id="g15049"
                                   transform="translate(-65.926228,141.99496)">
                                <g
                                   id="g19861"
                                   transform="matrix(0.07356842,0,0,0.07356842,115423.38,9039.2311)">
                                <g
                                   id="g20437"
                                   transform="translate(-478.38824,-785.88156)">
                                <path
                                   style="fill:#fff6d5;stroke-width:41.1228"
                                   d="m 116566.57,17113.169 c -201.52,-348.84 -255.12,-572.949 -252.55,-1055.968 2.81,-528.842 123.85,-981.415 442.79,-1655.573 841.57,-1778.897 3268.29,-4651.4966 6551.39,-7755.0836 4631.03,-4377.8299 7002.49,-5472.0568 8535.94,-3938.6039 1433.86,1433.8641 537.92,3624.377 -3140,7677.0925 -802.25,884.008 -3186.94,3268.695 -4070.95,4070.948 -2289.33,2077.613 -3837.27,3159.511 -5168.8,3612.62 -428.44,145.792 -565.09,169.91 -968.05,170.854 -492.32,1.153 -711.93,-53.217 -1072.58,-265.547 -272.71,-160.552 -701.35,-590.971 -857.19,-860.739 z"
                                   id="path20445" />
                                <path
                                   style="fill:#ffeeaa;stroke-width:41.1228"
                                   d="m 116600.41,17157.716 c -474.85,-778.99 -345.55,-1841.987 385.24,-3166.96 789.93,-1432.172 2158.39,-3101.712 4545.1,-5545.0344 3532.32,-3616.1177 6065.74,-5628.1488 7808.87,-6201.7805 378,-124.3896 531.31,-113.4545 694.29,49.5195 108.52,108.5196 129.51,161.5702 129.51,327.2472 0,231.7767 -21.46,257.2122 -588.24,697.0118 -593.8,460.7628 -1404.33,1157.3351 -2298.85,1975.6525 -1043.69,954.7933 -3724.45,3688.2945 -4492.01,4580.3863 -1459.89,1696.7596 -2305.4,2897.7986 -2744.77,3898.9066 l -146.55,333.934 2035.48,-2006.397 c 1603.53,-1580.62 2057.74,-2012.487 2140.4,-2035.101 239.09,-65.3963 470.56,170.772 410.44,418.772 -34.56,142.552 -118.94,230.816 -2440.43,2552.508 l -2404.62,2404.862 23.1,165.905 c 25.09,180.17 113.63,468.364 182.38,593.656 41.88,76.33 60.49,64.115 637.55,-418.442 834.91,-698.212 928.76,-779.61 1595.3,-1383.681 565.9,-512.849 600.03,-537.923 732.52,-537.922 204.91,0 367.28,166.523 352.61,361.631 -9.21,122.65 -43.6,181.559 -193.46,331.421 -412.78,412.782 -2162.99,1936.193 -2545.58,2215.718 -114.23,83.457 -119.87,98.218 -60.31,157.784 162.82,162.819 141.44,556.198 -40.1,737.74 -94.37,94.366 -617.47,322.725 -989.42,431.952 -795.27,233.509 -1438.22,175.497 -1985.11,-179.109 -239.93,-155.571 -598,-521.757 -743.33,-760.173 z m 6957.97,-3763.9 c -30.05,-41.285 -47.46,-135.099 -38.69,-208.468 13.77,-115.341 58.92,-176.396 333.31,-450.793 362.38,-362.38 499.94,-430.128 688.43,-339.079 140.74,67.975 202.61,182.899 193.19,358.879 -5.89,110.234 -42.18,156.959 -352.47,453.847 -279.04,266.984 -369.84,334.537 -469.7,349.441 -132.2,19.734 -265.29,-41.845 -354.07,-163.827 z m 2293.01,-2456.744 c 0,-319.557 363.77,-484.191 581.08,-262.981 113.45,115.491 139.9,217.441 94.79,365.363 -47.86,156.942 -142.84,221.956 -324.29,221.949 -216.9,0 -351.58,-124.236 -351.58,-324.331 z m -778.03,-1761.3851 c -27.06,-198.1474 261.05,-560.1034 508.51,-638.8671 260.02,-82.7541 502.63,141.7785 438.59,405.9083 -62.18,256.5115 -432.69,564.8557 -644.07,535.9965 -112.76,-15.3947 -287.64,-190.2763 -303.03,-303.0377 z m 2319.17,-826.5744 c 0,-347.0768 467.19,-473.9776 645.93,-175.4497 209.29,349.5496 -253.45,710.6786 -541.51,422.6174 -72.09,-72.0966 -104.42,-148.6115 -104.42,-247.1677 z m -993.83,-1358.8536 c -63.12,-130.7854 -39.07,-309.8707 54.13,-403.0677 135.25,-135.2506 207.42,-157.8108 354.81,-110.893 368.55,117.3029 312.7,666.6004 -69.49,683.3716 -142.12,6.2402 -290.4,-67.765 -339.45,-169.4109 z m 2533.57,351.6078 c -16.75,-317.2972 368.71,-489.0995 593.35,-264.4587 110.55,110.549 133.87,296.0075 53.99,429.4178 -175.45,293.03 -629.27,177.3836 -647.34,-164.9591 z m -494.93,-1435.2578 c -30.43,-77.3721 -28.42,-181.9296 5.05,-262.7366 49.46,-119.3862 73.18,-139.3922 214.64,-180.9817 196.95,-57.8914 354.13,11.6081 427.64,189.0986 115.84,279.6516 -168.22,571.9826 -445.26,458.2306 -161.29,-66.2281 -139.33,-44.1039 -202.07,-203.6113 z m 1514.07,-116.3778 c 0,-313.6187 376.76,-469.1509 598.75,-247.1618 141.8,141.7961 141.8,352.5247 0,494.3268 -141.8,141.8022 -352.53,141.7988 -494.33,0 -72.09,-72.0966 -104.42,-148.6115 -104.42,-247.1677 z m -458.6,-1348.9172 c -77.61,-107.4806 -55.58,-334.5051 41.93,-432.0145 206.38,-206.3785 556.65,-108.9587 596.52,165.9122 55.67,383.7381 -412.57,578.9012 -638.45,266.1023 z"
                                   id="path20441" />
                                <path
                                   style="fill:#ffe680;stroke-width:41.1228"
                                   d="m 116680.69,17262.399 c -152.79,-220.103 -272.36,-487.455 -318.97,-713.244 -43.5,-210.67 29.12,-391.335 395.53,-983.957 557.57,-901.818 1639.39,-2247.291 2929.64,-3643.606 l 475.56,-514.668 158.1,-11.886 c 203.19,-15.27 365.53,131.339 371.92,335.88 4.89,156.436 2.53,159.461 -944.99,1212.421 -1667.06,1852.576 -2793.28,3457.748 -2877.63,4101.375 -16.64,127.006 -1.27,112.808 1480.75,-1367.936 l 1497.57,-1496.268 -90.39,345.611 c -49.71,190.087 -97.16,473.062 -105.44,628.842 l -15.05,283.238 -1129.13,1130.421 c -1128.18,1129.468 -1129.02,1130.409 -999.23,1114.937 326.61,-38.946 1024.01,-428.37 1903.23,-1062.748 353.08,-254.763 463.19,-317.463 487.64,-277.699 17.37,28.242 119.2,153.478 226.28,278.295 107.08,124.809 190.99,230.643 186.46,235.174 -121.76,121.762 -1100.57,807.05 -1468.45,1028.091 -449.65,270.187 -656.45,343.814 -853.21,303.764 -422.02,-85.896 -1020.73,-509.067 -1310.2,-926.044 z m 4355.41,-6392.529 c -25.77,-38.203 -49.07,-123.125 -51.76,-188.722 -4.15,-100.887 38.46,-168.983 276.54,-441.878 349.48,-400.606 502.05,-489.7277 699.54,-408.6359 104.39,42.8605 150.07,84.5339 195.28,178.1389 92.01,190.473 25.11,327.037 -338.17,690.312 -272.15,272.148 -336,319.606 -447.99,332.976 -134.57,16.074 -251.55,-40.826 -333.44,-162.191 z m 2496.12,-3235.3223 c -16.53,-121.0347 69.1,-296.7504 175.73,-360.5824 117.4,-70.2928 331.29,-41.7646 430.46,57.4071 236.72,236.7182 26.04,648.9992 -309.14,604.9695 -107.49,-14.1211 -281.99,-191.4058 -297.05,-301.7942 z"
                                   id="path20439" />
                                </g>
                                </g>
                                </g>
                                </g>
                                </g>
                                </g>
                                </g>
                                </g>
                                </g>
                                </g>
                                </g>
                                </g>
                                </g>
                                </g>
                                </g>
                                </g>
                                </g>
                                </g>
                                </g>
                                </g>
                                </g>
                                </g>
                                </g>
                                </g>
                                </g>
                                </g>
                                </g>
                                </g>
                                </g>
                                </g>
                                </g>
                                </g>
                              </g>
                            </g>
                          </g>
                        </g>
                      </g>
                    </g>
                  </g>
                </g>
              </g>
            </g>
          </g>
        </g>
      </g>
    </g>
  </g>
</svg>
