<?xml version="1.0" encoding="UTF-8" standalone="no"?>
<!-- Created with Inkscape (http://www.inkscape.org/) -->

<svg
   width="64"
   height="64"
   viewBox="0 0 16.933333 16.933333"
   version="1.1"
   id="svg5"
   inkscape:version="1.2 (dc2aedaf03, 2022-05-15)"
   sodipodi:docname="bouillon_de_poule.svg"
   xmlns:inkscape="http://www.inkscape.org/namespaces/inkscape"
   xmlns:sodipodi="http://sodipodi.sourceforge.net/DTD/sodipodi-0.dtd"
   xmlns="http://www.w3.org/2000/svg"
   xmlns:svg="http://www.w3.org/2000/svg">
  <sodipodi:namedview
     id="namedview7"
     pagecolor="#ffffff"
     bordercolor="#999999"
     borderopacity="1"
     inkscape:pageshadow="0"
     inkscape:pageopacity="0"
     inkscape:pagecheckerboard="0"
     inkscape:document-units="mm"
     showgrid="false"
     width="64mm"
     units="px"
     inkscape:zoom="16.609946"
     inkscape:cx="37.929081"
     inkscape:cy="32.751461"
     inkscape:window-width="1920"
     inkscape:window-height="1017"
     inkscape:window-x="1912"
     inkscape:window-y="-8"
     inkscape:window-maximized="1"
     inkscape:current-layer="g2394"
     inkscape:showpageshadow="2"
     inkscape:deskcolor="#d1d1d1" />
  <defs
     id="defs2" />
  <g
     inkscape:label="Calque 1"
     inkscape:groupmode="layer"
     id="layer1">
    <g
       id="g977"
       transform="translate(0.08745663,0.03512701)">
      <g
         id="g2394"
         transform="translate(0.06371691,0.19115049)">
        <path
           style="fill:#decd87;stroke-width:0.0288364"
           d="M 5.287521,15.666695 C 4.885504,15.573533 4.4076721,15.243262 4.4911568,14.779007 4.4951959,12.102949 4.4593756,9.4264597 4.4991847,6.7507456 7.8952582,5.885506 11.170963,6.2181035 12.536963,7.3918732 v 7.6562248 c -0.260203,0.619145 -1.009933,0.699848 -1.597141,0.671923 -1.8225076,-0.0013 -3.6461731,0.02702 -5.4679513,-0.022 l -0.1054494,-0.01357 -0.078926,-0.01776 z"
           id="path2402"
           sodipodi:nodetypes="cccccccccc" />
        <path
           style="fill:#d5d4ca;stroke-width:0.0288364"
           d="m 4.4916422,6.4836904 0.07607,-0.2080839 C 4.6768121,5.9771642 4.8650549,5.7289323 5.1324608,5.5308813 5.5778705,5.2009939 5.7978486,4.9296989 5.9426716,4.5316627 6.0173172,4.3265036 6.0195869,4.3006708 6.028953,3.5495879 L 6.0385725,2.7782145 5.6976523,2.778053 C 5.5101462,2.7779636 5.3097884,2.7648525 5.2524127,2.7489151 5.0977046,2.7059415 4.9621115,2.6035684 4.8890543,2.474579 4.8290019,2.3685508 4.8241724,2.3242917 4.8237332,1.8759279 4.823318,1.4517075 4.8302422,1.3780813 4.8796672,1.2812002 4.9503077,1.1427335 5.082299,1.0300151 5.2210589,0.98965746 5.2953944,0.96803794 6.3104062,0.96122494 8.5575712,0.96726265 l 3.2296758,0.008678 0.122158,0.069969 c 0.06719,0.038483 0.158022,0.1216791 0.201855,0.1848804 0.07813,0.1126456 0.07987,0.1243428 0.08843,0.5932678 0.0083,0.4520883 0.0051,0.485391 -0.05767,0.6064491 -0.03652,0.070451 -0.116225,0.1677735 -0.177117,0.2162728 l -0.110711,0.088181 -0.43718,0.00917 -0.43718,0.00917 0.0017,0.7261557 c 0.0019,0.8066981 0.01673,0.9014255 0.199511,1.2759346 0.116733,0.2391774 0.386322,0.5455062 0.619339,0.7037455 0.328261,0.2229175 0.517289,0.4609658 0.661993,0.833666 l 0.07411,0.1908846 c -4.7362622,2.1355978 -6.2634269,2.4269992 -8.0448428,3.3e-6 z"
           id="path2400"
           sodipodi:nodetypes="ccssscssssssscccccsccccssscc" />
        <path
           style="fill:#9ed1e1;stroke-width:0.0288364"
           d="M 12.485326,9.5440493 C 12.469798,9.0575048 11.989076,8.8776476 11.626801,9.1639592 11.189694,9.4033046 10.671886,9.4023617 10.20627,9.2510507 9.6014043,9.059479 8.9707401,8.9239015 8.3330097,8.996417 7.7451424,8.9988595 7.2602285,9.5315197 6.6547855,9.3484175 6.1804589,9.2550437 5.7468157,8.9479805 5.2548767,8.9663075 4.9197463,8.999737 4.6146013,9.4749123 4.4940762,9.5730011 4.4779319,8.5861358 4.4600098,7.5968552 4.5065258,6.6106542 4.532107,6.0383985 4.9755161,5.6227618 5.4115555,5.314128 5.8843289,4.9168765 6.0946357,4.2893125 6.0532592,3.6840484 c 0.00569,-0.30194 0.010872,-0.6038895 0.01633,-0.9058339 1.6300211,0 3.2600422,0 4.8900633,0 0.02751,0.5719125 -0.02824,1.1553031 0.102704,1.7159886 0.158541,0.4950744 0.559667,0.8486268 0.96101,1.1509054 0.363617,0.3146915 0.548494,0.7938781 0.51144,1.2708073 0.0068,0.9419659 0.0292,1.8845436 0.0022,2.8262865 -0.01725,-0.066037 -0.03441,-0.1321826 -0.05171,-0.198153 z M 6.4380966,1.85545 c 0,-0.297976 0,-0.595952 0,-0.89392802 0.1441819,0 0.2883639,0 0.4325458,0 0,0.59595202 0,1.19190412 0,1.78785612 -0.1441819,0 -0.2883639,0 -0.4325458,0 0,-0.297976 0,-0.5959521 0,-0.8939281 z"
           id="path2398"
           sodipodi:nodetypes="cssssssssssssssccsssccccccccccccccc" />
        <path
           style="fill:#8ebdcb;stroke-width:0.0288364"
           d="M 4.5060814,8.0821347 C 4.5060617,6.7451119 4.5123103,6.5163534 4.5525555,6.3807878 4.6609763,6.0155709 4.8710012,5.7206271 5.1658276,5.5195527 5.5682974,5.2450643 5.8177215,4.9281899 5.9622913,4.5077051 6.0450696,4.2669426 6.0464898,4.2521873 6.0572847,3.5207515 l 0.010959,-0.742537 c 1.6323888,0 3.2647775,0 4.8971663,0 V 3.0665784 3.3549422 H 9.2679522 7.570495 L 7.554682,4.0974792 C 7.5287482,5.3153475 7.3821149,5.9417661 6.985988,6.526945 6.6198625,7.0678043 6.4177205,7.7937206 6.3248486,8.9011772 6.3104382,9.0730141 6.2936975,9.2185583 6.2876468,9.2246091 6.2815961,9.2306598 6.1540115,9.1890163 6.0041254,9.1320679 5.6632346,9.0025484 5.4721924,8.9499828 5.3407665,8.9495439 5.1178586,8.9488 4.6898384,9.2556705 4.5666418,9.5045565 L 4.5061041,9.6268568 Z M 6.4380966,1.85545 V 0.96152198 H 6.6543695 6.8706424 V 1.85545 2.7493781 H 6.6543695 6.4380966 Z"
           id="path2396"
           sodipodi:nodetypes="sssssccccccssssssscsccccccccc" />
      </g>
    </g>
  </g>
</svg>
