<?xml version="1.0" encoding="UTF-8" standalone="no"?>
<!-- Created with Inkscape (http://www.inkscape.org/) -->

<svg
   width="64"
   height="64"
   viewBox="0 0 16.933333 16.933334"
   version="1.1"
   id="svg5"
   inkscape:version="1.2 (dc2aedaf03, 2022-05-15)"
   sodipodi:docname="brie.svg"
   xmlns:inkscape="http://www.inkscape.org/namespaces/inkscape"
   xmlns:sodipodi="http://sodipodi.sourceforge.net/DTD/sodipodi-0.dtd"
   xmlns="http://www.w3.org/2000/svg"
   xmlns:svg="http://www.w3.org/2000/svg">
  <sodipodi:namedview
     id="namedview7"
     pagecolor="#ffffff"
     bordercolor="#666666"
     borderopacity="1.0"
     inkscape:pageshadow="2"
     inkscape:pageopacity="0.0"
     inkscape:pagecheckerboard="0"
     inkscape:document-units="mm"
     showgrid="false"
     units="px"
     inkscape:zoom="8"
     inkscape:cx="24.6875"
     inkscape:cy="45.125"
     inkscape:window-width="1920"
     inkscape:window-height="1017"
     inkscape:window-x="1912"
     inkscape:window-y="-8"
     inkscape:window-maximized="1"
     inkscape:current-layer="g4219"
     inkscape:showpageshadow="2"
     inkscape:deskcolor="#d1d1d1" />
  <defs
     id="defs2" />
  <g
     inkscape:label="Calque 1"
     inkscape:groupmode="layer"
     id="layer1">
    <g
       id="g4128"
       transform="translate(-0.63104184,0.12620835)">
      <g
         id="g5578"
         transform="translate(0.08924235,0.08924306)">
        <g
           id="g7501"
           transform="translate(-0.06310417,0.94656242)">
          <g
             id="g9467"
             transform="translate(-0.08924275,-0.80318511)">
            <g
               id="g10302"
               transform="translate(0.31234979,-0.04462139)">
              <g
                 id="g11479"
                 transform="translate(-0.12620833,0.06310418)">
                <g
                   id="g11873"
                   transform="translate(-0.23575769,0.66462456)">
                  <g
                     id="g12382"
                     transform="translate(-121.98459,-82.267525)">
                    <g
                       id="g13305"
                       transform="matrix(0.13266609,0,0,0.13266609,114.63867,78.215696)">
                      <g
                         id="g17429"
                         transform="translate(0.90513437,5.6640979)">
                        <g
                           id="g18595"
                           transform="translate(-3.3634362,-8.7449387)">
                          <g
                             id="g21002"
                             transform="translate(1.7082278,-2.8204445)">
                            <g
                               id="g23814"
                               transform="translate(8.7253043,-1.1218249)">
                              <g
                                 id="g24838"
                                 transform="translate(11.143454,-0.85716864)">
                                <g
                                   id="g25315"
                                   transform="translate(-3.490122,2.4929446)">
                                <g
                                   id="g27220"
                                   transform="translate(2.4678888,1.2339445)">
                                <g
                                   id="g29753"
                                   transform="translate(1.4759287,-2.3737724)">
                                <g
                                   id="g30615"
                                   transform="translate(0.92006037,1.3687834)">
                                <g
                                   id="g31433"
                                   transform="translate(-2.4678886,-1.410222)">
                                <g
                                   id="g31731"
                                   transform="translate(1.0576664,-0.70511063)">
                                <g
                                   id="g33243"
                                   transform="matrix(1.0772948,0,0,1.0772948,-7.3729128,-3.1743014)">
                                <g
                                   id="g35254"
                                   transform="translate(-2.2135012,-0.92031205)">
                                <g
                                   id="g36749"
                                   transform="translate(-0.98178042,-2.7817105)">
                                <g
                                   id="g37297"
                                   transform="translate(-6.7755742,-3.5033798)">
                                <g
                                   id="g38955"
                                   transform="matrix(1.2171094,0,0,1.2171094,-23.105122,-18.212482)">
                                <g
                                   id="g39618"
                                   transform="translate(-0.26888273,-0.26888316)">
                                <g
                                   id="g40032"
                                   transform="translate(-1.90129,-3.042064)">
                                <g
                                   id="g40543"
                                   transform="translate(0.3802582,-2.0914191)">
                                <g
                                   id="g41372"
                                   transform="translate(1.9657652,-7.9304203)">
                                <g
                                   id="g43278"
                                   transform="translate(1.5210324,-0.38025789)">
                                <g
                                   id="g44210"
                                   transform="matrix(1.1578947,0,0,1.1578947,-18.904476,-21.776183)">
                                <g
                                   id="g44833"
                                   transform="matrix(1.1196819,0,0,1.1196819,-12.538538,-14.547543)">
                                <g
                                   id="g47597"
                                   transform="translate(3.1109352,-1.2443743)">
                                <g
                                   id="g48754"
                                   transform="translate(-2.9035392,-6.6366609)">
                                <g
                                   id="g234"
                                   transform="matrix(0.04089637,0,0,0.04089637,104.63967,119.67231)">
                                <g
                                   id="g2138"
                                   transform="translate(-86.211222,-40.569988)">
                                <g
                                   id="g2696"
                                   transform="translate(-124306.44,-9412.2373)">
                                <g
                                   id="g3765"
                                   transform="translate(25.356243,-50.712489)">
                                <g
                                   id="g4557"
                                   transform="translate(46.61688,-35.859142)">
                                <g
                                   id="g5244"
                                   transform="translate(7.1718407,14.343658)">
                                <g
                                   id="g5807"
                                   transform="translate(-5.1984397,-21.113724)">
                                <g
                                   id="g6945"
                                   transform="translate(-10.142522,-243.41993)">
                                <g
                                   id="g11108"
                                   transform="translate(18.189368,-37.636113)">
                                <g
                                   id="g15049"
                                   transform="translate(-65.926228,141.99496)">
                                <g
                                   id="g19861"
                                   transform="matrix(0.07356842,0,0,0.07356842,115423.38,9039.2311)">
                                <g
                                   id="g20437"
                                   transform="translate(-478.38824,-785.88156)">
                                <g
                                   id="g21032"
                                   transform="translate(2047.1878,-1072.3367)">
                                <g
                                   id="g21869"
                                   transform="matrix(0.04321578,0,0,0.04321578,117368,10137.003)">
                                <g
                                   id="g25455"
                                   transform="translate(154741.46,-87178.414)">
                                <g
                                   id="g26278"
                                   transform="translate(-18012.371,-8233.4417)">
                                <g
                                   id="g27240"
                                   transform="translate(-0.00447131,5582.7624)">
                                <g
                                   id="g28306"
                                   transform="translate(-15790.441,-2255.7767)">
                                <g
                                   id="g33735"
                                   transform="translate(14662.549,-16918.328)">
                                <g
                                   id="g37868"
                                   transform="translate(-5075.4976,25941.433)">
                                <g
                                   id="g76752"
                                   transform="matrix(-1,0,0,1,9442.3174,-1595.0746)">
                                <g
                                   id="g82459"
                                   transform="translate(3383.6668,-1127.8885)">
                                <g
                                   id="g83208"
                                   transform="matrix(0.20332428,0,0,0.20332428,-15348.528,66747.475)">
                                <g
                                   id="g83934"
                                   transform="matrix(-1,0,0,1,240692.18,94139.78)">
                                <g
                                   id="g84550"
                                   transform="translate(-8.7627443e-5,55472.344)">
                                <rect
                                   style="fill:#ffffff;fill-rule:evenodd;stroke-width:44377.9"
                                   id="rect4349"
                                   width="2407945.8"
                                   height="1469404.1"
                                   x="-1114549.1"
                                   y="-707545.19" />
                                <g
                                   id="g4219"
                                   transform="translate(-3994.9194,-143.3978)">
                                <path
                                   style="fill:#f6f5f1;stroke-width:2932.94"
                                   d="M -1110554.2,27300.24 V -707401.81 H 93418.7 1297391.6 V 27300.24 762002.29 H 93418.7 -1110554.2 Z M 179940.5,275093.54 C 536213.83,262287.17 826236.94,198413.78 974136.26,100183.39 1020102.2,69654.127 1053524.4,28851.708 1058608.4,-2941.7682 l 1964.6,-12285.6558 h -16798.2 c -9239.1,0 -39433.7,1324.165 -67099.32,2942.563 -27665.62,1618.427 -64069.01,3741.4956 -80896.45,4717.9601 -23783.52,1380.1254 -29334,2464.9034 -24930.01,4872.3798 7704.72,4211.7931 9966.9,8088.439 10019.84,17170.6471 52.5,9025.132 -6081.16,15023.821 -15362.08,15023.821 -3624.56,0 -22427.97,-7042.611 -41785.4,-15650.21 l -35195.31,-15650.18 -29329.42,641.6691 C 743065.47,-805.82358 721948.28,135.76822 712269.57,933.67517 702590.86,1731.5821 649797.89,4478.136 594951.87,7037.0988 540105.84,9596.0616 494922.05,11992.364 494543.4,12362.237 c -378.61,369.844 39216.11,18222.341 87988.28,39672.209 48772.19,21449.869 91646.3,41717.439 95275.81,45039.055 3629.52,3321.589 6599.13,9168.759 6599.13,12993.699 0,8464.73 -12218.11,21352.49 -20243.06,21352.49 -3214.71,0 -57717.46,-22931.62 -121117.18,-50959.196 C 479646.67,52432.945 420878.15,26548.087 412449.73,22938.603 l -15324.39,-6562.723 -94660.96,4704.088 c -52063.51,2587.236 -114788.24,5570.919 -139388.3,6630.385 -24600.05,1059.467 -44727.37,2887.834 -44727.37,4063.093 0,1175.23 6929.08,5109.978 15397.95,8743.864 93581.75,40154.737 200917.68,89135.17 203839.5,93017.74 9197.68,12221.98 -229.35,33079.95 -14950.7,33079.95 -3786.84,0 -60209.32,-23583.64 -125383.29,-52408.1 C 132078.17,85382.441 64895.834,55806.709 47958.091,48483.035 L 17162.195,35167.271 -32697.828,37668.396 c -27423.012,1375.609 -64378.088,3237.822 -82122.392,4138.265 -17744.3,900.442 -60634.98,3060.584 -95312.59,4800.288 -34677.62,1739.704 -63334.46,3447.321 -63681.87,3794.728 -347.38,347.407 41129.94,19048.522 92171.88,41558.063 167751.527,73978.57 177499.3085,78596.2 179918.8101,85229.75 3303.7251,9057.95 -3219.8136,20047.48 -12545.1341,21133.46 -4307.524,501.62 -17475.175,-3298.09 -29261.468,-8443.85 -11786.264,-5145.73 -85441.078,-37767.24 -163677.318,-72492.22 l -142247.71,-63136.332 -29329.42,616.358 c -27004.37,567.466 -31770.72,-231.702 -60125.33,-10079.848 -16937.74,-5882.896 -42014.4,-16492.932 -55725.9,-23577.835 -27864.48,-14397.9021 -55685.85,-38835.617 -55796.48,-49010.464 -60.12,-5535.958 -6421.38,-9253.462 -43260.9,-25281.933 -23754.69,-10335.366 -44840.11,-20816.265 -46856.51,-23290.876 -7746.02,-9506.165 -499.51,-26841.64 11220.23,-26841.64 2848.15,0 21451.1,7094.462 41339.86,15765.471 l 36161.42,15765.445 775.64,-91001.896 c 426.6,-50051.04 337.5,-91440.05 -197.97,-91975.55 -1621.71,-1621.71 -74347.13,18910.32 -114962.43,32456.47 -204976.47,68364.45 -294692.72,165831.169 -236095.88,256491.877 99352.3,153717.293 573021.84,259111.753 1082249.79,240807.413 z m -486441.53,-570462.91 c 80446.86,-4068.67 88123.07,-4927.2 102652.98,-11480.8 8637.34,-3895.83 50679.61,-22481.59 93427.25,-41301.72 191682.893,-84390.56 397487.18,-175318.52 398262.5,-175959.36 466.81,-385.87 -27249.5,-6053.5 -61591.79,-12594.74 -40468.36,-7708.07 -67600.96,-11464.44 -77105.3,-10674.84 -8065.59,670.07 -47660.32,3362.63 -87988.278,5983.47 l -73323.562,4765.15 -189174.79,83502.34 c -104046.14,45926.29 -211977.98,93565.78 -239848.53,105865.54 -50502.93,22287.84 -50646.29,22377.85 -42527.67,26701.83 12074.02,6430.65 77611.44,29304.32 84402.58,29457.95 3226.24,73.03 44992.8,-1846.2 92814.61,-4264.82 z m 299362.7109,-14517.89 c 45627.6401,-2364.22 123453.4791,-6375.25 172946.2891,-8913.39 l 89986.93,-4614.84 154986.72,-68369.93 c 155975.49,-68806.16 175297.04,-77715.25 169011.69,-77930.63 -1884.71,-64.59 -51612.25,-9388.57 -110505.62,-20719.96 l -107078.86,-20602.53 -229715.71,101503.65 c -126343.6258,55827.01 -230265.61,102053.23 -230937.752,102724.93 -1726.678,1725.54 -751.508,1692.69 91306.3129,-3077.3 z m 566894.8791,-27980.83 178909.49,-8825.31 26396.48,-11558.23 c 14518.07,-6357.03 45895.42,-20205.39 69727.49,-30774.16 23832.03,-10568.74 44839.23,-19215.9 46682.65,-19215.9 13742.3,0 -15091.75,-6394.49 -112446.53,-24937.11 l -112238.55,-21377.46 -139403.08,61496.3 c -76671.69,33822.95 -139968.14,62061.35 -140658.79,62752 -1678.78,1678.79 -17568.88,2335.12 183030.84,-7560.13 z m -1053183.38,-23177.08 c 48929.7,-21659.6 204846.77,-90519.13 287685.38,-127053.99 40327.96,-17786.11 73983.48,-33005.8 74790.04,-33821.54 3894.21,-3938.57 -108783.25,12389.1 -170110.67,24650.1 -136914.62,27372.92 -223815.95,62726.03 -242366.81,98599.45 -6192.5,11974.94 -3698.35,28954.12 6149.85,41865.76 4260.28,5585.52 8553.02,10155.48 9539.4,10155.48 986.38,0 16427.14,-6477.87 34312.81,-14395.26 z m 1471127.69,2644.49 c 62105.03,-3189.37 118197.53,-5899 124650.03,-6021.36 20737,-393.34 3952.6,-4738.73 -78285.6,-20267.8 l -78285.64,-14782.74 -47790.69,20787.55 c -26284.88,11433.14 -49788.51,21958.3 -52230.31,23389.22 -6355.18,3724.19 3462.25,3493.17 131942.21,-3104.87 z"
                                   id="path4227" />
                                <path
                                   style="fill:#f1f1f1;stroke-width:2932.94"
                                   d="M -1110554.2,27300.24 V -707401.81 H 93418.7 1297391.6 V 27300.24 762002.29 H 93418.7 -1110554.2 Z M 218068.76,275145.42 C 531048.16,259366.1 792685.43,204044.74 939572.61,122588.54 973935.2,103532.78 987627.06,93925.896 1011226,72312.956 c 29546.7,-27060.117 43271,-49683.427 49981.9,-82390.543 908.3,-4426.632 2618.1,-7899.851 3799.6,-7718.273 1181.4,181.549 14356.5,173.924 29277.8,-17.597 l 27129.7,-346.909 V -192218.03 -366275.72 l -21263.8,-4557.5 c -11695.1,-2506.64 -51734,-10193.23 -88975.2,-17081.34 l -67711.43,-12523.78 -54005.71,23854.74 -54005.71,23854.76 -43262.16,2306.23 c -23794.17,1268.44 -43261.57,2030.19 -43260.9,1692.81 1.67,-820.02 26425.61,-12841.95 85789.83,-39031.22 27019.73,-11920.12 49126.79,-22490.06 49126.79,-23488.82 0,-998.75 -8908.82,-3272.91 -19797.37,-5053.68 -10888.54,-1780.76 -62088.36,-11280.88 -113777.37,-21111.35 l -93980.01,-17873.6 -86395.95,37934.12 c -47517.78,20863.75 -111752.36,49157.09 -142743.5,62874.05 l -56347.55,24939.89 -52762.96,2443.79 c -29019.64,1344.08 -51836.82,1611.12 -50704.88,593.45 1131.97,-1017.7 41652.85,-19296.68 90046.41,-40619.96 48393.55,-21323.31 93267.57,-41152.62 99720.04,-44065.12 11343.98,-5120.43 32340,-14307.25 99153.49,-43384.66 l 31695.81,-13794.1 -58092.29,-11170.42 c -31950.77,-6143.73 -83828.87,-16142.35 -115284.68,-22219.18 -31455.8,-6076.82 -57852.29,-10113.95 -58658.85,-8971.4 -806.55,1142.54 -47000.4,22155.99 -102652.98,46696.55 -142787.9,62963.74 -187289.617,82673.06 -275696.599,122102.98 l -77722.981,34664.76 -54995.66,3037.21 c -30247.58,1670.46 -54994.28,2633.05 -54992.67,2139.06 1.64,-494 5612.24,-3350.74 12468,-6348.36 52723.04,-23052.6 126713.994,-55647.06 189908.0234,-83658.22 41134.5186,-18233.13 109765.3766,-48580.33 152513.0066,-67438.21 42747.64,-18857.86 89601.4,-39659.39 104119.46,-46225.6 14518.07,-6566.21 30694.18,-13474.44 35946.91,-15351.61 8891.57,-3177.59 5553.14,-4207.53 -48393.55,-14930.02 -66282.71,-13174.4 -76106.69,-13464.55 -189287.771,-5590.72 -54002.8335,3756.9 -68629.183,5697.6 -76256.505,10118.15 -5190.605,3008.31 -54971.379,25538.55 -110623.964,50067.21 -154442.65,68070.02 -278164.2,122769.01 -297693.66,131614.47 -9678.71,4383.78 -26624.73,11842.08 -37657.78,16574 l -20060.16,8603.52 17127.21,7817.55 c 9419.94,4299.64 30655.38,12202.19 47189.85,17561.17 l 30062.66,9743.65 v 172346.84 c 0,100631.279 -1102.32,172346.822 -2649.1,172346.822 -6723.27,0 -65830.65,-22114.825 -87528.3,-32748.442 -28634.17,-14033.0438 -56450.93,-38362.885 -56506.01,-49422.806 -32.85,-6585.57 -4283.94,-9110.246 -44364.98,-26347.618 -27724.46,-11923.261 -45928.79,-21482.16 -48600.5,-25519.648 -5540.3,-8372.465 -2421.35,-18023.165 6980,-21597.538 6049.8,-2300.13 13707.22,34.9 43831.74,13366.265 20075.72,8884.293 37781.28,16153.267 39345.65,16153.267 1776.99,0 2844.37,-34669.492 2844.37,-92387.682 0,-72337.24 -801.86,-92387.68 -3694.86,-92387.68 -6769.09,0 -79417.37,20616.47 -115089.31,32660.57 -128244.41,43299.85 -213491.67,97478.86 -242118.89,153879.016 -9433.67,18585.821 -10114.17,21811.5 -10114.17,47942.638 0,25257.091 865.99,29749.1267 8793.6,45613.764 18374.31,36770.503 67550.77,77124.332 134920.59,110714.792 146990.48,73289.15 416470.5,128177.32 681909.131,138892.41 26616.453,1074.46 48943.478,2434.76 49615.62,3022.93 2645.72,2315.17 207410.189,863.75 261276.289,-1852.01 z M -81091.379,172208.71 C -295685.46,77455.636 -340958.59,57205.194 -343443.09,54860.16 c -1658.9,-1565.78 6648.31,-2762.567 20530.6,-2957.755 12824.29,-180.376 27617.88,-825.154 32874.62,-1432.977 6949.17,-803.479 20157.2,3618.401 48393.55,16201.486 48489.52,21608.599 188285.173,83236.026 211879.435,93404.796 21663.5342,9336.64 27862.9535,14380.78 27862.9535,22670.47 0,7101.3 -8400.7685,16164.83 -14895.6525,16070.88 -2292.652,-33.17 -31224.869,-12006.93 -64293.795,-26608.35 z M 260596.42,141406.1 C 229947.17,127774.1 198931.31,113842.13 191672.27,110446.16 184413.24,107050.23 162636.14,97373.335 143278.72,88942.006 123921.3,80510.706 88945.963,65171.858 65555.746,54855.702 L 23028.08,36099.067 l 43399.835,-2440.296 43399.835,-2440.296 51920.8,22821.019 c 28556.44,12551.526 78317.28,34385.376 110579.64,48519.606 57400.18,25147.16 68924.15,32501.14 68924.15,43983.55 0,7239.88 -12770.26,20137.81 -19664.06,19860.62 C 318692,166286.8 291245.67,155038.09 260596.42,141406.1 Z M 634546.59,119882.67 C 595874.28,102249.12 431271.74,29536.462 417032.04,23796.283 l -12721.43,-5128.103 11731.77,-2060.04 c 6452.47,-1133.054 26398,-2300.131 44323.39,-2593.571 l 32591.64,-533.473 49530.75,21992.961 c 27241.93,12096.129 68001.12,30159.739 90575.98,40141.334 22574.88,9981.594 42702.2,19523.511 44727.37,21204.263 4744.71,3937.766 4754.59,20343.206 14.67,26546.586 -7018.95,9188.62 -17281.9,8362.2 -43260.91,-3483.57 z M 824323.87,13268.457 789731.02,-2029.1832 824323.87,-4063.12 c 36684.75,-2156.9444 43272.96,-1418.4002 51457.24,5768.3643 10189.66,8947.7327 2584.54,27207.0577 -11229.47,26961.1607 -3099.21,-55.14 -21201.71,-6984.245 -40227.77,-15397.948 z M -374279.31,-412520.33 c 227979.7,-100591.18 251906.24,-111304.26 250879.47,-112331.03 -552.89,-552.89 -16666.3,1130.19 -35807.53,3740.18 -215310.42,29358.42 -350593.98,70874.85 -381996.49,117228.81 -10096.63,14903.83 -7828.14,36142.38 5307.95,49695.36 l 9429.59,9728.86 10888.69,-5260.84 c 5988.81,-2893.5 69573.03,-31154.07 141298.32,-62801.34 z"
                                   id="path4225" />
                                <path
                                   style="fill:#e8e4d9;stroke-width:2932.94"
                                   d="M -1110554.2,27300.24 V -707401.81 H 93418.7 1297391.6 V 27300.24 762002.29 H 93418.7 -1110554.2 Z M 191988.42,644732.32 c 123839.62,-5418.88 203839.09,-12471.84 302445.2,-26664.29 297188.15,-42774.47 506220.38,-127346.36 553840.78,-224077.12 13113.7,-26637.54 14066.2,-42991.3 14296.3,-245443.51 l 185.5,-163248.243 25663.2,-1900.371 c 14114.8,-1045.212 27643,-2171.521 30062.7,-2502.885 3844.5,-526.492 4494.8,-22489.801 5155.8,-174126.701 l 756.4,-173524.19 -15421.1,-3075.19 c -14699.3,-2931.24 -139850.69,-26804.86 -500823.09,-95536 -89528.07,-17046.64 -196433.82,-37490.73 -237568.34,-45431.31 -208653.32,-40278.31 -200489.3,-39015.68 -239034.82,-36968.76 -247661.24,13151.73 -458977.43,44926.52 -577789.67,86879.96 -49361.31,17429.82 -87491.17,40676.76 -97274.88,59306.31 -5633.6,10727.2 -5747.07,12308.35 -6381.18,88925.43 l -463.4,55992.42 -15709.43,3515.63 c -8640.18,1933.57 -35247.63,9378.81 -59127.65,16544.93 -154521.31,46370.17 -252386.77,104597.11 -284286.44,169141.699 l -10786.45,21824.875 258.81,204677.136 c 288.51,228192.92 -501.07,218761.66 20932.94,250032.9 71803.48,104758.1 328406.49,190780.53 666942.49,223582.85 134455.209,13027.96 296746.503,17648.25 424126.34,12074.43 z"
                                   id="path4223" />
                                </g>
                                </g>
                                </g>
                                </g>
                                </g>
                                </g>
                                </g>
                                </g>
                                </g>
                                </g>
                                </g>
                                </g>
                                </g>
                                </g>
                                </g>
                                </g>
                                </g>
                                </g>
                                </g>
                                </g>
                                </g>
                                </g>
                                </g>
                                </g>
                                </g>
                                </g>
                                </g>
                                </g>
                                </g>
                                </g>
                                </g>
                                </g>
                                </g>
                                </g>
                                </g>
                                </g>
                                </g>
                                </g>
                                </g>
                                </g>
                                </g>
                                </g>
                                </g>
                                </g>
                                </g>
                                </g>
                              </g>
                            </g>
                          </g>
                        </g>
                      </g>
                    </g>
                  </g>
                </g>
              </g>
            </g>
          </g>
        </g>
      </g>
    </g>
  </g>
</svg>
