<?xml version="1.0" encoding="UTF-8" standalone="no"?>
<!-- Created with Inkscape (http://www.inkscape.org/) -->

<svg
   width="64"
   height="64"
   viewBox="0 0 16.933333 16.933334"
   version="1.1"
   id="svg5"
   inkscape:version="1.2 (dc2aedaf03, 2022-05-15)"
   sodipodi:docname="brioche.svg"
   xmlns:inkscape="http://www.inkscape.org/namespaces/inkscape"
   xmlns:sodipodi="http://sodipodi.sourceforge.net/DTD/sodipodi-0.dtd"
   xmlns="http://www.w3.org/2000/svg"
   xmlns:svg="http://www.w3.org/2000/svg">
  <sodipodi:namedview
     id="namedview7"
     pagecolor="#ffffff"
     bordercolor="#666666"
     borderopacity="1.0"
     inkscape:pageshadow="2"
     inkscape:pageopacity="0.0"
     inkscape:pagecheckerboard="0"
     inkscape:document-units="mm"
     showgrid="false"
     units="px"
     inkscape:zoom="11.313709"
     inkscape:cx="42.249628"
     inkscape:cy="47.022599"
     inkscape:window-width="1920"
     inkscape:window-height="1017"
     inkscape:window-x="3832"
     inkscape:window-y="-8"
     inkscape:window-maximized="1"
     inkscape:current-layer="g8716"
     inkscape:showpageshadow="2"
     inkscape:deskcolor="#d1d1d1" />
  <defs
     id="defs2" />
  <g
     inkscape:label="Calque 1"
     inkscape:groupmode="layer"
     id="layer1">
    <g
       id="g4128"
       transform="translate(-0.63104184,0.12620835)">
      <g
         id="g5578"
         transform="translate(0.08924235,0.08924306)">
        <g
           id="g7501"
           transform="translate(-0.06310417,0.94656242)">
          <g
             id="g9467"
             transform="translate(-0.08924275,-0.80318511)">
            <g
               id="g10302"
               transform="translate(0.31234979,-0.04462139)">
              <g
                 id="g11479"
                 transform="translate(-0.12620833,0.06310418)">
                <g
                   id="g11873"
                   transform="translate(-0.23575769,0.66462456)">
                  <g
                     id="g12382"
                     transform="translate(-121.98459,-82.267525)">
                    <g
                       id="g13305"
                       transform="matrix(0.13266609,0,0,0.13266609,114.63867,78.215696)">
                      <g
                         id="g17429"
                         transform="translate(0.90513437,5.6640979)">
                        <g
                           id="g18595"
                           transform="translate(-3.3634362,-8.7449387)">
                          <g
                             id="g21002"
                             transform="translate(1.7082278,-2.8204445)">
                            <g
                               id="g23814"
                               transform="translate(8.7253043,-1.1218249)">
                              <g
                                 id="g24838"
                                 transform="translate(11.143454,-0.85716864)">
                                <g
                                   id="g25315"
                                   transform="translate(-3.490122,2.4929446)">
                                <g
                                   id="g27220"
                                   transform="translate(2.4678888,1.2339445)">
                                <g
                                   id="g29753"
                                   transform="translate(1.4759287,-2.3737724)">
                                <g
                                   id="g30615"
                                   transform="translate(0.92006037,1.3687834)">
                                <g
                                   id="g31433"
                                   transform="translate(-2.4678886,-1.410222)">
                                <g
                                   id="g31731"
                                   transform="translate(1.0576664,-0.70511063)">
                                <g
                                   id="g33243"
                                   transform="matrix(1.0772948,0,0,1.0772948,-7.3729128,-3.1743014)">
                                <g
                                   id="g35254"
                                   transform="translate(-2.2135012,-0.92031205)">
                                <g
                                   id="g36749"
                                   transform="translate(-0.98178042,-2.7817105)">
                                <g
                                   id="g37297"
                                   transform="translate(-6.7755742,-3.5033798)">
                                <g
                                   id="g38955"
                                   transform="matrix(1.2171094,0,0,1.2171094,-23.105122,-18.212482)">
                                <g
                                   id="g39618"
                                   transform="translate(-0.26888273,-0.26888316)">
                                <g
                                   id="g40032"
                                   transform="translate(-1.90129,-3.042064)">
                                <g
                                   id="g40543"
                                   transform="translate(0.3802582,-2.0914191)">
                                <g
                                   id="g41372"
                                   transform="translate(1.9657652,-7.9304203)">
                                <g
                                   id="g43278"
                                   transform="translate(1.5210324,-0.38025789)">
                                <g
                                   id="g44210"
                                   transform="matrix(1.1578947,0,0,1.1578947,-18.904476,-21.776183)">
                                <g
                                   id="g44833"
                                   transform="matrix(1.1196819,0,0,1.1196819,-12.538538,-14.547543)">
                                <g
                                   id="g47597"
                                   transform="translate(3.1109352,-1.2443743)">
                                <g
                                   id="g48754"
                                   transform="translate(-2.9035392,-6.6366609)">
                                <g
                                   id="g234"
                                   transform="matrix(0.04089637,0,0,0.04089637,104.63967,119.67231)">
                                <g
                                   id="g2138"
                                   transform="translate(-86.211222,-40.569988)">
                                <g
                                   id="g2696"
                                   transform="translate(-124306.44,-9412.2373)">
                                <g
                                   id="g3765"
                                   transform="translate(25.356243,-50.712489)">
                                <g
                                   id="g4557"
                                   transform="translate(46.61688,-35.859142)">
                                <g
                                   id="g5244"
                                   transform="translate(7.1718407,14.343658)">
                                <g
                                   id="g5807"
                                   transform="translate(-5.1984397,-21.113724)">
                                <g
                                   id="g6945"
                                   transform="translate(-10.142522,-243.41993)">
                                <g
                                   id="g11108"
                                   transform="translate(18.189368,-37.636113)">
                                <g
                                   id="g15049"
                                   transform="translate(-65.926228,141.99496)">
                                <g
                                   id="g19861"
                                   transform="matrix(0.07356842,0,0,0.07356842,115423.38,9039.2311)">
                                <g
                                   id="g20437"
                                   transform="translate(-478.38824,-785.88156)">
                                <g
                                   id="g21032"
                                   transform="translate(2047.1878,-1072.3367)">
                                <g
                                   id="g21869"
                                   transform="matrix(0.04321578,0,0,0.04321578,117368,10137.003)">
                                <g
                                   id="g25455"
                                   transform="translate(154741.46,-87178.414)">
                                <g
                                   id="g26278"
                                   transform="translate(-18012.371,-8233.4417)">
                                <g
                                   id="g27240"
                                   transform="translate(-0.00447131,5582.7624)">
                                <g
                                   id="g28306"
                                   transform="translate(-15790.441,-2255.7767)">
                                <g
                                   id="g33735"
                                   transform="translate(14662.549,-16918.328)">
                                <g
                                   id="g37868"
                                   transform="translate(-5075.4976,25941.433)">
                                <g
                                   id="g76752"
                                   transform="matrix(-1,0,0,1,9442.3174,-1595.0746)">
                                <g
                                   id="g82459"
                                   transform="translate(3383.6668,-1127.8885)">
                                <g
                                   id="g83208"
                                   transform="matrix(0.20332428,0,0,0.20332428,-15348.528,66747.475)">
                                <g
                                   id="g83934"
                                   transform="matrix(-1,0,0,1,240692.18,94139.78)">
                                <g
                                   id="g84550"
                                   transform="translate(-8.7627443e-5,55472.344)">
                                <g
                                   id="g8716"
                                   transform="translate(7844.9805,66682.336)">
                                <path
                                   style="fill:#f4d3b0;stroke-width:2889.6"
                                   d="m -549797.58,848146.37 c -54830.24,-4631.16 -217188.48,-16879.5 -360796.05,-27218.5 -298703.27,-21505.07 -277956.27,-18124.41 -293201.57,-47776.43 -14110.2,-27444.36 -11748.2,-41892.64 29052.3,-177710.64 19097.2,-63571.28 47406.4,-158071.01 62909.3,-209999.39 l 28187.1,-94415.2 -6774.1,-13944.94 c -12787,-26322.94 -6559.2,-68347.46 18951.8,-127883.3 44889.3,-104759.869 143529.28,-201828.715 241130.83,-237290.194 35691.52,-12967.786 61812.62,-17195.916 106235.08,-17195.916 h 39016.99 l 15339.9,-13105.28 c 32825.35,-28043.58 80792.84,-51489.97 131435.37,-64245.31 17204.21,-4333.23 84791.91,-4826.81 772448.75,-5641.1 821962.98,-973.33 782097.78,-1705.48 832797.78,15294.77 48668,16318.92 86754.8,40634.25 123369.2,78761.097 28161.9,29325.232 41508.7,48682.601 58722,85166.7403 18863.2,39981.1667 24756.2,65471.8067 26518.9,114710.1627 1640.8,45834.93 3699,30338.36 -27823.8,209496.29 -7829.7,44499.9 -26026.2,148525.64 -40436.7,231168.31 -14410.5,82642.67 -28207.7,158544.56 -30660.6,168670.89 -5892.7,24327.78 -13466.8,38594.3 -29770.6,56075.88 -16192.1,17361.78 -30589.3,26842.78 -51890.4,34171.42 -15431.6,5309.27 -33895.6,5480.56 -590716.23,5480.56 H -70539.014 l -12072.967,7073.76 c -6640.137,3890.56 -19874.899,9107.97 -29410.589,11594.27 -16356.84,4264.83 -23606.57,4019.09 -128155.44,-4343.74 -101686.73,-8133.86 -111329.6,-8487.23 -117028.97,-4288.29 -30178.39,22233.51 -53248.87,32478.26 -77788.51,34543.02 -8310.91,699.29 -59971.86,-2517.74 -114802.09,-7148.94 z"
                                   id="path8728" />
                                <path
                                   style="fill:#e5b58b;stroke-width:2889.6"
                                   d="m -597476.05,843870.63 c -65160.57,-5331.5 -219898.87,-16974.52 -343862.88,-25873.37 -123963.97,-8898.88 -229529.37,-17500.89 -234589.67,-19115.57 -22930.3,-7316.77 -38192,-38998.15 -34491.4,-71599.88 1015,-8941.27 30194.8,-110991.36 64844.2,-226777.96 l 62998.8,-210521.08 -6677.8,-13190.52 c -9205.1,-18182.34 -8972.2,-44101.95 696,-77464.94 20832.6,-71889.12 57268.2,-132146.726 115376.44,-190810.9154 37368.27,-37725.8306 69396.61,-61090.6766 112635.55,-82168.2566 48967.57,-23870.151 70333.13,-28998.818 128660.14,-30884.198 l 47634.43,-1539.76 15269.33,-12438.3 c 36496.42,-29729.77 77793.89,-50112.46 126871.93,-62618.61 l 25543.84,-6509.12 H 249177.93 1014923 l 27664.4,7650.8 c 57556.2,15917.56 98412.2,38383.04 137736,75736.78 62972.1,59817.286 96108.8,136476.397 96108.8,222339.85 0,25316.37 -2688.4,46880.5 -12838.7,102984.12 -7061.3,39029.48 -23391.9,131427.66 -36290.3,205329.28 -49809.8,285386.55 -51681.2,295104.93 -60441.8,313878.54 -14891.1,31910.91 -40612.3,54162.04 -74823.3,64728.72 -18148.9,5605.62 -28962.8,5710.05 -591255.85,5710.05 H -71986.647 l -16860.349,9131.96 c -23670.104,12820.28 -39544.924,13196.07 -160862.864,3808.18 l -102892.16,-7962.04 -13724.32,10479.29 c -7548.36,5763.61 -21034.72,14016.98 -29969.67,18340.81 -14454.46,6994.83 -19908.79,7927.02 -49475.83,8455.62 -18276.74,326.75 -86543.64,-3768.02 -151704.21,-9099.48 z m -5779.21,-355474.74 c 113505.46,-19835.82 136053.88,-15911.91 277785.32,-85843.51 7429.46,-3978.27 16340.02,-18462.35 49708.1,-80800.41 48048.88,-89764.65 52684.82,-99654.03 62697.1,-133745.32 9330.15,-31768.82 12568.13,-78897.31 7286.68,-106056.723 -8161.54,-41969.791 -36121.52,-78048.9522 -71574.42,-92358.531 l -16715.15,-6746.618 h -228278.71 -228278.72 l -25027.67,8204.2789 C -857419.19,17852.792 -942329.89,98198.257 -986187.03,190263.98 c -11491.01,24122.16 -48845.07,140525.6 -62307.07,194162.69 -1335.9,5322.51 1681.9,9096.65 17055.7,21329.93 42108.68,18121.35 69855.04,43936.46 105975.91,56617.6 48898.72,17020.52 89766.24,24007.61 184951.04,31620.88 22674.46,1813.57 104263.62,-1514.73 137256.19,-5599.19 z m -140071.59,-14123.26 c -5262.14,-13840.48 4313.52,-32458.71 21179.82,-41180.64 25087.51,-12973.25 34289.74,16360.45 12095.07,38555.12 -12445.15,12445.15 -29043.52,13754.8 -33274.89,2625.52 z m 130869.27,-94127.49 c -8509.36,-3428.51 -12469.71,-11657.87 -12469.71,-25911.42 0,-32476 40939.51,-68438.22 66063.37,-58031.6 27092.01,11221.89 12897,60969.84 -22515.04,78906.39 -16608.95,8412.59 -20952.58,9116.52 -31078.62,5036.63 z m -285055.68,-10575.05 c -1059.53,-1059.5 -1926.41,-7063.93 -1926.41,-13343.15 0,-9409.1 1972.79,-13389.59 11218.45,-22635.25 27267.12,-27267.11 48710.2,-318.69 22152.81,27840.35 -7290.79,7730.5 -11814.09,10064.46 -19505.23,10064.46 -5507.27,0 -10880.11,-866.88 -11939.62,-1926.41 z m 517974.27,-18726.94 c -10271.79,-19193.01 21585.6,-53138.29 40413.36,-43061.98 11845.53,6339.56 5907.25,32792.32 -10076.34,44886.15 -8805.72,6662.79 -26359.86,5607.25 -30337.02,-1824.17 z m -381463.71,-6223.37 c -4442.16,-9749.53 -1569.63,-19957.02 9005.74,-32001.73 16031.73,-18259.12 34602.34,-16329.09 34602.34,3596.2 0,15039.26 -14458.39,31742.53 -29515.71,34098.48 -9485.18,1484.07 -11123.91,822.06 -14092.37,-5692.95 z m 354630.21,-129371.62 c -6491.81,-5106.45 -7613.7,-8216.5 -7613.7,-21106.3 0,-28861.13 25059.31,-56635.54 53205,-58969.62 13884.29,-1151.39 15772.16,-564.63 21463.58,6670.85 15596.46,19827.69 -2244.27,60148.96 -32744.53,74004.96 -15197.7,6904.16 -24988.14,6732.98 -34310.35,-599.89 z m -380444.26,-10626.28 c -17267.11,-21882.71 13806.88,-71312.16 47196.54,-75075.67 10643.51,-1199.68 14001.38,-331.84 19328.68,4995.46 5474.5,5474.5 6254.81,8769.34 5171.23,21835.84 -1613.58,19457.61 -12276.07,36160.71 -30434.52,47676.44 -17897.69,11350.4 -32594.15,11552.67 -41261.93,567.93 z m 209507.74,-5529.81 c -9898.08,-9898.08 912.28,-33021.29 19834.76,-42426.43 9972.2,-4956.51 11238.88,-5002.98 17873.56,-655.77 3927.41,2573.34 7140.73,7378 7140.73,10677.06 0,10376.42 -8916.62,25335.96 -18708.74,31387.8 -11460.49,7082.97 -19752,7405.68 -26140.31,1017.34 z m -309333.3,-22435.29 c -3267.27,-13017.87 6627.51,-29887.11 22277.43,-37980 24439.9,-12638.37 30739.35,18420.71 7672.77,37829.97 -11726.19,9866.93 -27491.61,9945.9 -29950.2,149.97 z m 257853.62,-92615.675 c -6023.59,-6023.582 -6048.38,-11019.649 -116.74,-23519.613 6380.53,-13445.992 18900.09,-21927.673 30689.58,-20791.423 8816.79,849.746 9464.09,1670.972 10290.72,13055.78 754.02,10384.832 -504.78,13637.832 -8668.81,22402.232 -11341.87,12175.895 -25091.07,15956.71 -32194.75,8853.024 z m 226938.83,-16530.933 c -8018.07,-8018.073 786.99,-31488.794 15083.62,-40206.873 27850.73,-16983.358 41385.43,9551.614 17205.48,33731.56 -10512.46,10512.465 -25288.68,13475.725 -32289.1,6475.313 z"
                                   id="path8726"
                                   sodipodi:nodetypes="ssssscssssscsscccsssssssscsscssssccsssscccsssccscsssssssssssssssssssssssssssssssssssssssssssssssssssssssss" />
                                <path
                                   style="fill:#e68d2d;stroke-width:2889.6"
                                   d="m -492005.5,851172.02 c -41612.5,-4058.19 -298211.41,-23483.67 -569280.4,-43096.59 -118593.6,-8580.71 -123168,-9429.39 -135529.1,-25143.89 -9293.9,-11815.33 -12578.2,-26988.03 -11247.8,-51962.88 1033.4,-19399.88 10665.8,-54325.68 64058.2,-232267.4 l 62841.9,-209434.1 -6662.6,-11620.6 c -14534.7,-25350.67 -5474,-78321.67 23968.9,-140126.92 42824.7,-89895.693 117570.99,-167485.719 201981.58,-209665.902 46662.05,-23317.168 77467.66,-30252.278 134379.77,-30252.278 h 41534.59 l 13901.36,-12060.51 c 32750.11,-28413.27 75903.08,-50755.72 123194.05,-63783.73 l 23629.1,-6509.47 h 772969.08 772969.07 l 24561.6,6699.87 c 91426,24938.9 162821.5,84683.422 202576.3,169517.9733 19329.5,41248.0557 26401.6,73662.7357 26804.3,122856.1667 315.1,38494.72 -769.9,47886.54 -13352.7,115584.15 -7532.6,40526.7 -29985.4,166657.91 -49895,280291.58 -19909.7,113633.67 -37652.9,211157.8 -39429.4,216720.29 -8148.8,25515.38 -32151.8,53910.59 -57007.2,67438.62 -31852.4,17336.23 5002.9,16359.89 -617558.89,16359.89 H -72364.059 l -19658.265,9199.2 c -11103.886,5196.15 -26019.756,9699.83 -34277.266,10349.61 -8040.46,632.74 -57159.17,-2206.59 -109152.68,-6309.59 -121581.97,-9594.5 -115446.33,-9718.32 -132323.35,2670.54 -25751.14,18903.09 -44608.81,25643.18 -73661.81,26328.16 -14303.54,337.25 -37059.17,-464.73 -50568.07,-1782.19 z m -60681.69,-88426.85 c 16926.03,-5333.48 44310.38,-25969.79 60681.69,-45728.5 7151.77,-8631.57 22656.49,-33665.76 34454.94,-55631.58 22074.53,-41097.33 120348.14,-222758.73 187873.56,-347289.33 58051.65,-107058.98 67576.94,-134592.54 67612.8,-195439.6 17.34,-31463.855 -1000.12,-40343.204 -6272.05,-54671.565 -17246.23,-46872.842 -48356.86,-74317.607 -93758.35,-82710.519 -10375.3,-1917.975 -92830.64,-2679.732 -232307.37,-2146.109 l -216223.09,827.207 -23116.83,8168.477 c -79269.27,28010.289 -152217.06,91583.395 -200589.35,174811.149 -18209.01,31329.84 -27279.56,55347.01 -49301.66,130542.4 -87140.9,297545.98 -107131.9,367204.04 -108717,378821.66 -3984.4,29201.3 11895.6,57704.35 34512.8,61947.36 15891.1,2981.18 514192.92,35212.08 523477.88,33859.34 4767.85,-694.66 14520.26,-3106.82 21672.03,-5360.39 z m 308908.84,-19836.2 c 31660.73,-11170.55 61613.44,-40383.98 82404.87,-80370.87 5966.48,-11474.99 14464.37,-27365.24 18884.16,-35311.65 8916.02,-16030.11 10922.25,-19745.94 69426.266,-128587.38 22637.996,-42115.97 46133.395,-85026.59 52211.966,-95356.92 6078.571,-10330.34 28669.7556,-51886.48 50202.651,-92347.01 C 82066.985,211882.32 94226.612,173927.03 90895.246,118831.44 86698.5,49423.043 47922.066,6481.0443 -16518.242,-121.06488 l -18928.9,-1939.32872 11504.091,24549.0926 c 15559.9401,33204.033 20660.958,57092.736 20613.4529,96535.391 -42.4771,35256.09 -5940.7369,66291.19 -18729.2569,98548.07 -6491.034,16372.52 -54249.195,107021.33 -172635.545,327676.11 -41706.84,77735.37 -42795.73,80210.52 -41314.84,93912.13 1888.1,17469.21 -5071.34,30029.22 -21197.56,38256.18 -9178.71,4682.64 -13834.93,10799.32 -27564.57,36210.41 -9086.15,16816.8 -16520.27,31237.95 -16520.27,32047.01 0,3375.84 46435.71,1143.36 57513.29,-2765.03 z M 994272.76,-17144.415 c 49395.14,-8435.476 81813.14,-22741.847 88586.44,-39094.058 3266.7,-7886.654 3038.5,-9895.68 -1900,-16725.663 -7295.8,-10090.006 -32485.5,-22659.696 -59218.2,-29549.874 -71121.92,-18331.24 -188985.55,-14046.36 -249031.9,9053.451 -57909.8,22277.864 -40128.65,56048.549 38496.81,73114.81 49922.82,10836.101 130145.71,12239.0037 183066.85,3201.334 z M 605719.18,-39076.566 c 92965.29,-23619.623 -3732.82,-67540.734 -112466.95,-51083.458 -36839.07,5575.722 -60930.48,19311.367 -56072.96,31969.826 9100.34,23715.124 106813.28,34796.466 168539.91,19113.632 z"
                                   id="path8722" />
                                <path
                                   style="fill:#d06e1a;stroke-width:2889.6"
                                   d="m -504654.89,849630.07 c -25233.93,-2206.88 -46580.88,-4713.49 -47437.67,-5570.32 -856.8,-856.79 1288.09,-1557.81 4766.43,-1557.81 10261.7,0 42356.79,-15918.4 60965.38,-30237.37 26586.76,-20458.05 39649.82,-38842.66 76041.46,-107018.82 36588.26,-68544.49 186688.13,-347815.69 198877.87,-370026.03 l 11514.78,-20980.52 -18075.8,5625.83 c -12274.43,3820.23 -24323.97,5357.38 -37543.88,4789.4 l -19468.1,-836.39 21782.42,-40127.56 c 40293.04,-74227.74 51134.89,-109196.6 51167.8,-165034.32 17.34,-31463.855 -1000.12,-40343.204 -6272.05,-54671.565 -17246.23,-46872.842 -48356.86,-74317.607 -93758.35,-82710.519 -10375.3,-1917.975 -92830.64,-2679.732 -232307.37,-2146.109 l -216223.09,827.207 -23116.83,8168.477 c -80070.32,28293.354 -153259.95,92465.244 -201606.15,176766.169 -16780.2,29259.55 -23165.06,45131.98 -38358.36,95356.93 l -12237.7,40454.46 -15976.4,859.57 c -22604.1,1216.17 -34308.3,-4470.68 -44345.3,-21546.54 -7295.1,-12411.16 -8187.2,-16594.62 -7912.1,-37105.11 1193.8,-88998.21 87835.7,-222454.452 187514.22,-288831.977 63340.76,-42179.577 108695,-56475.693 179168.63,-56475.693 h 41534.59 l 13901.36,-12060.51 c 32750.11,-28413.27 75903.08,-50755.72 123194.05,-63783.73 l 23629.1,-6509.47 h 772969.08 772969.07 l 24561.6,6699.87 c 54685.7,14917 103364.5,43021.52 141909.7,81931.103 38141.7,38502.18 65433.7,86566.2044 79778.3,140497.829 6483.3,24375.225 7463.3,33908.028 7487.7,72834.808 26,40154.89 -1045.7,50020.75 -10349.1,95356.93 l -10377.1,50568.07 -13924.6,12392.41 c -7658.5,6815.82 -20596.5,15669.86 -28751.1,19675.63 -33015.3,16218.19 -14368.2,15538.99 -427648.55,15576.12 l -381793.32,34.3 -3431.96,28173.64 c -8098.6,66483.02 -28898.17,146017.72 -62056.35,237294.94 -8873.8,24427.61 -16134.19,45115.67 -16134.19,45973.45 0,2292.55 232418.42,-1728.27 294739.61,-5099 244704.87,-13235.19 408713.86,-44558.21 517146.46,-98766.51 18225.7,-9111.56 33552.3,-16151.82 34059.1,-15645.07 875.6,875.61 -24157,150364.21 -32550.7,194384.93 -7279.6,38177.53 -27843,68669.03 -58445,86662.48 -26961.2,15852.72 -11089.3,15292.85 -434588.81,15329.9 -389482.07,34.1 -391936.15,70.22 -393438.03,5813.51 -1488.17,5690.81 -3941.44,5779.2 -160385.617,5779.2 H -72364.059 l -19515.085,9132.22 c -10733.286,5022.71 -25507.926,9700.63 -32832.486,10395.38 -11748.18,1114.35 -200810.78,-11815.82 -220197.54,-15059.49 -5560.7,-930.39 -11905.57,2063.61 -24561.63,11590.12 -34449.86,25931.19 -56803.29,29710.47 -135184.09,22855.55 z m 260876.54,-106721.1 c 31660.73,-11170.55 61613.44,-40383.98 82404.87,-80370.87 5966.48,-11474.99 14464.37,-27365.24 18884.16,-35311.65 8916.02,-16030.11 10922.25,-19745.94 69426.266,-128587.38 22637.996,-42115.97 46133.395,-85026.59 52211.966,-95356.92 C 11252.297,348723.51 69356.282,234764.03 77062.624,211243.81 96695.288,151323.71 96836.243,104709.57 77509.704,63409.709 60723.705,27538.83 31587.539,6827.8835 -10649.89,742.98448 -22609.383,-979.97074 -33076.511,-1707.5441 -33910.162,-873.89338 c -833.651,833.650725 2270.507,8564.12138 6898.15,17178.83938 17315.7494,32234.485 21925.1302,54269.449 21712.5709,103796.014 -295.1153,68768.91 -3282.0701,76708.82 -88140.8399,234296.25 -22608.319,41984.88 -45638.699,85438.42 -51178.619,96563.4 -5539.92,11124.97 -28712.2,54847.14 -51493.95,97160.36 -40320.99,74889.31 -41380.92,77307.42 -39898.41,91022.52 1890.29,17487.39 -5062.88,30042.84 -21195.54,38273.09 -9178.71,4682.64 -13834.93,10799.32 -27564.57,36210.41 -9086.15,16816.8 -16520.27,31237.95 -16520.27,32047.01 0,3375.84 46435.71,1143.36 57513.29,-2765.03 z m -322579.47,100480.11 c 2811.5,-732.64 6712.47,-684.47 8668.82,107.2 1956.34,791.55 -343.95,1390.97 -5111.8,1332.08 -4767.85,-58.95 -6368.51,-706.51 -3557.02,-1439.14 z m -49900.66,-21267.4 c -15098.18,-1220.51 -41104.61,-3042.32 -57792.08,-4048.48 -16687.46,-1006.16 -36842.45,-2427.33 -44788.86,-3158.17 -7946.41,-730.81 -61259.6,-4579.44 -118473.76,-8552.44 -347717.62,-24145.97 -318419.32,-20379.74 -333284.72,-42842.95 -6838.3,-10333.28 -7682.9,-14357.83 -7637.5,-36390.83 43.7,-21175.51 1987.2,-31066.48 13384.6,-68116.72 7333.4,-23839.23 26044.6,-85918.99 41580.5,-137955.04 22987.9,-76996.27 28969.3,-94011.5 32126.7,-91391.12 2960.7,2457.21 3879.7,2166.43 3879.7,-1227.53 0,-2446.08 -1398.5,-4913.6 -3107.8,-5483.34 -1908.1,-636.03 -2318.3,-4181.2 -1062.6,-9184.17 1521.4,-6061.7 2709.7,-7153.01 4640.3,-4261.71 1706.7,2555.89 2006.9,1339.77 876.9,-3551.84 -1135.2,-4914.26 -184.5,-8711.46 2801.8,-11189.85 2486.1,-2063.26 4520.2,-6766.23 4520.2,-10451.06 0,-3684.79 1389,-7558.07 3086.6,-8607.26 1697.6,-1049.22 2264.7,-4049.46 1260.1,-6667.27 -1015.9,-2647.4 2102.6,-995.44 7027,3722.5 8864.4,8492.64 11358.3,12179.63 5997,8866.17 -1625.2,-1004.45 -2129.8,128.3 -1170.7,2627.69 927.2,2416.23 3187.9,4109.17 5023.7,3762.1 5356.4,-1012.64 3338.7,6853.64 -36157.6,140959.55 -20726.8,70375.93 -38170.4,135019.38 -39069.1,144784.56 -2515.3,27331 6655.2,47945.96 25712.6,57800.92 13049.9,6748.35 523519.59,40176.82 543239.63,35574.41 26181.26,-6110.36 58209.14,-29533.81 78703.72,-57559.64 5229.89,-7151.77 32597.59,-55913.84 60817.12,-108360.15 28219.49,-52446.31 55217.44,-102508.7 59995.4,-111249.75 4777.96,-8741.05 13278.63,-24344.91 18890.38,-34675.24 5611.76,-10330.34 11851.57,-20732.91 13866.26,-23116.84 2014.72,-2383.92 3930.58,-5634.72 4257.54,-7224.01 1641.58,-7979.95 12978.17,-27469.32 16955.73,-29149.63 7889.92,-3333.07 27111.14,-6441.59 30882.39,-4994.42 4007.73,1537.91 2104.78,9582.42 -2266.78,9582.42 -1513.03,0 -1823.17,-1501.23 -689.17,-3336.08 1329.07,-2150.47 786.75,-2548.02 -1526.03,-1118.65 -2413.23,1491.44 -2633.33,3171.95 -672.3,5132.98 3678.53,3678.52 923.78,11496.98 -3161.25,8972.31 -1769.36,-1093.52 -2175.7,-487.05 -975.16,1455.46 2623.45,4244.83 -7066.78,20945.06 -10810.67,18631.21 -1573.07,-972.2 -1877.9,-232.61 -693.79,1683.28 1735.2,2807.66 -27012.89,59925.01 -63449.52,126062.9 -3502.29,6357.13 -27523.19,51218.23 -53379.83,99691.34 -53519.83,100332.97 -56660.66,105343.37 -79827.83,127344.87 -20974.62,19919.28 -37862.19,29956.84 -60176.64,35767.49 -18441.85,4802.23 -17936.67,4789.95 -59352.18,1442.03 z M -1078595.1,420619.77 c 0,-1589.28 -1300.3,-2889.61 -2889.6,-2889.61 -1589.3,0 -2889.6,1300.33 -2889.6,2889.61 0,1589.28 1300.3,2889.6 2889.6,2889.6 1589.3,0 2889.6,-1300.32 2889.6,-2889.6 z m 10529.1,-31785.64 c 339.6,-8309.96 -1689.4,-10766.15 -5634.6,-6820.97 -1016.3,1016.3 -927.8,3291.86 196.6,5056.8 1124.4,1764.95 2226.8,4184.21 2449.8,5376.17 1480.5,7913.24 2571.1,6594.97 2988.2,-3612 z m 788201.35,-3286.09 c -2027.31,-3280.25 9168.75,-13904.8 14693.06,-13943.03 1618.96,-11.56 1472.57,913.52 -332.94,2102.94 -1772.39,1167.63 -4135.57,5048.68 -5251.53,8624.57 -2209.48,7079.96 -5912.34,8387.16 -9108.59,3215.52 z"
                                   id="path8720"
                                   sodipodi:nodetypes="sssssscsscscssscssscssssscsscccssscscssscssssssssssscsssssssssssssssssssssssssssssssssssssssssssssssssssssssssssssssssssssssssssssssssssssssssss" />
                                <path
                                   style="fill:#b5572d;stroke-width:2889.6"
                                   d="m -156811.44,830160.47 c -794.64,-760.49 -16398.5,-2294.66 -34675.24,-3409.27 -18276.75,-1114.61 -37131.42,-2472.78 -41899.26,-3018.16 -4767.85,-545.42 -28173.64,-2452.27 -52012.87,-4237.46 -23839.24,-1785.23 -47558.35,-3897.41 -52709.16,-4693.79 l -9365.09,-1447.98 15457.16,-20823.58 c 8501.45,-11452.98 18481.56,-26349.96 22178.03,-33104.4 l 6720.81,-12280.82 h 23666.24 c 13406.02,0 28871.42,-1836.49 35672.47,-4236.04 31660.73,-11170.55 61613.44,-40383.98 82404.87,-80370.87 5966.48,-11474.99 14464.37,-27365.24 18884.16,-35311.65 8916.02,-16030.11 10922.25,-19745.94 69426.266,-128587.38 22637.996,-42115.97 46133.395,-85026.59 52211.966,-95356.92 6078.571,-10330.34 28669.7556,-51886.48 50202.651,-92347.01 C 82066.985,211882.32 94226.612,173927.03 90895.246,118831.44 86663.825,48849.919 47367.349,5873.1583 -17939.841,-196.51243 -37411.437,-2006.2136 -38064.488,-2333.8369 -47485.81,-15019.429 -57803.286,-28911.662 -82987.081,-50813.328 -96940.69,-58029.016 l -8527.91,-4409.969 8823.603,11083.451 c 12723.707,15982.4 22839.286,37686.706 28206.408,60520.5002 7067.913,30069.5358 4331.603,86704.4148 -5848.443,121049.6138 -25933.238,87492.67 -73565.018,156097.41 -126313.748,181931.48 -18721.49,9169 -25930.96,11070.04 -46956.07,12381.78 -18587.35,1159.6 -24838.75,653.8 -24838.75,-2009.75 0,-1957.65 9583.66,-21320.68 21297.05,-43028.95 38776.52,-71864.18 49001.7,-105402.81 49034.35,-160832.98 17.34,-31463.855 -1000.12,-40343.204 -6272.05,-54671.565 -17246.23,-46872.842 -48356.86,-74317.607 -93758.35,-82710.519 -10375.3,-1917.975 -92830.64,-2679.732 -232307.37,-2146.109 l -216223.09,827.207 -23116.83,8168.477 c -80070.32,28293.354 -153259.95,92465.244 -201606.15,176766.169 -16781.98,29262.65 -23167.16,45136.92 -38355.86,95356.93 l -12235.1,40454.46 -13879,903.34 c -21656.3,1409.58 -37264,-5969.4 -46747,-22100.96 -6962.1,-11843.21 -7885.3,-16280.95 -7612.9,-36594.46 1193.8,-88998.21 87835.7,-222454.452 187514.22,-288831.977 63340.76,-42179.577 108695,-56475.693 179168.63,-56475.693 h 41534.59 l 13901.36,-12060.51 c 32750.11,-28413.27 75903.08,-50755.72 123194.05,-63783.73 l 23629.1,-6509.47 h 772969.08 772969.07 l 24561.6,6699.87 c 54685.7,14917 103364.5,43021.52 141909.7,81931.103 38141.7,38502.18 65433.7,86566.2044 79778.3,140497.829 6467.1,24314.37 7469.8,34005.206 7535.9,72834.808 114.7,67452.8 -8320.7,97530.2 -34485,122958.94 -14252.1,13851.49 -33775.1,22377.62 -62822.2,27435.96 -13239.6,2305.58 -130351.2,3407.85 -396818.28,3734.9 l -378035.28,464.01 -1444.8,20227.23 -1444.8,20227.22 -90466.31,264.98 -90466.31,264.98 -23966.17,44523.85 C 94450.643,543254.79 56714.351,614881.45 58106.302,616273.43 c 887.311,887.31 5231.772,2043.62 9654.34,2569.58 18796.961,2235.46 240425.548,6844.93 244985.138,5095.24 6382.7,-2449.26 8310.99,-8079.76 -31308.77,91421.06 L 248645,797713.02 93896.706,799157.82 c -140082.339,1307.87 -155260.389,1908.41 -160151.593,6336.44 -2971.784,2690.4 -14385.691,9095.03 -25364.221,14232.48 -15400.752,7206.91 -24962.572,9623.63 -41854.242,10578.64 -12041.29,680.76 -22543.44,615.55 -23338.09,-145.06 z M -263082.78,671576.49 c 4017.59,-6910.43 10841.48,-19592.41 15164.15,-28182.19 5858.24,-11641.14 8513.82,-14584.18 10429.42,-11558.41 8452.82,13351.53 -1996.83,36540.25 -20785.79,46125.67 l -12112.52,6179.36 z"
                                   id="path8718"
                                   sodipodi:nodetypes="ssssscsscssssssssssscssssssscssscssscsscsscsscccssssssscccccssssscsssssssssscs" />
                                </g>
                                </g>
                                </g>
                                </g>
                                </g>
                                </g>
                                </g>
                                </g>
                                </g>
                                </g>
                                </g>
                                </g>
                                </g>
                                </g>
                                </g>
                                </g>
                                </g>
                                </g>
                                </g>
                                </g>
                                </g>
                                </g>
                                </g>
                                </g>
                                </g>
                                </g>
                                </g>
                                </g>
                                </g>
                                </g>
                                </g>
                                </g>
                                </g>
                                </g>
                                </g>
                                </g>
                                </g>
                                </g>
                                </g>
                                </g>
                                </g>
                                </g>
                                </g>
                                </g>
                                </g>
                                </g>
                              </g>
                            </g>
                          </g>
                        </g>
                      </g>
                    </g>
                  </g>
                </g>
              </g>
            </g>
          </g>
        </g>
      </g>
    </g>
  </g>
</svg>
