<?xml version="1.0" encoding="UTF-8" standalone="no"?>
<!-- Created with Inkscape (http://www.inkscape.org/) -->

<svg
   width="64"
   height="64"
   viewBox="0 0 16.933333 16.933334"
   version="1.1"
   id="svg5"
   inkscape:version="1.2 (dc2aedaf03, 2022-05-15)"
   sodipodi:docname="cacao_amer.svg"
   xmlns:inkscape="http://www.inkscape.org/namespaces/inkscape"
   xmlns:sodipodi="http://sodipodi.sourceforge.net/DTD/sodipodi-0.dtd"
   xmlns="http://www.w3.org/2000/svg"
   xmlns:svg="http://www.w3.org/2000/svg">
  <sodipodi:namedview
     id="namedview7"
     pagecolor="#ffffff"
     bordercolor="#666666"
     borderopacity="1.0"
     inkscape:pageshadow="2"
     inkscape:pageopacity="0.0"
     inkscape:pagecheckerboard="0"
     inkscape:document-units="mm"
     showgrid="false"
     units="px"
     inkscape:zoom="16"
     inkscape:cx="11.8125"
     inkscape:cy="39.25"
     inkscape:window-width="1920"
     inkscape:window-height="1017"
     inkscape:window-x="3832"
     inkscape:window-y="-8"
     inkscape:window-maximized="1"
     inkscape:current-layer="g11985"
     inkscape:showpageshadow="2"
     inkscape:deskcolor="#d1d1d1" />
  <defs
     id="defs2" />
  <g
     inkscape:label="Calque 1"
     inkscape:groupmode="layer"
     id="layer1">
    <g
       id="g4128"
       transform="translate(-0.63104184,0.12620835)">
      <g
         id="g5578"
         transform="translate(0.08924235,0.08924306)">
        <g
           id="g7501"
           transform="translate(-0.06310417,0.94656242)">
          <g
             id="g9467"
             transform="translate(-0.08924275,-0.80318511)">
            <g
               id="g10302"
               transform="translate(0.31234979,-0.04462139)">
              <g
                 id="g11479"
                 transform="translate(-0.12620833,0.06310418)">
                <g
                   id="g11873"
                   transform="translate(-0.23575769,0.66462456)">
                  <g
                     id="g12382"
                     transform="translate(-121.98459,-82.267525)">
                    <g
                       id="g13305"
                       transform="matrix(0.13266609,0,0,0.13266609,114.63867,78.215696)">
                      <g
                         id="g17429"
                         transform="translate(0.90513437,5.6640979)">
                        <g
                           id="g18595"
                           transform="translate(-3.3634362,-8.7449387)">
                          <g
                             id="g21002"
                             transform="translate(1.7082278,-2.8204445)">
                            <g
                               id="g23814"
                               transform="translate(8.7253043,-1.1218249)">
                              <g
                                 id="g24838"
                                 transform="translate(11.143454,-0.85716864)">
                                <g
                                   id="g25315"
                                   transform="translate(-3.490122,2.4929446)">
                                <g
                                   id="g27220"
                                   transform="translate(2.4678888,1.2339445)">
                                <g
                                   id="g29753"
                                   transform="translate(1.4759287,-2.3737724)">
                                <g
                                   id="g30615"
                                   transform="translate(0.92006037,1.3687834)">
                                <g
                                   id="g31433"
                                   transform="translate(-2.4678886,-1.410222)">
                                <g
                                   id="g31731"
                                   transform="translate(1.0576664,-0.70511063)">
                                <g
                                   id="g33243"
                                   transform="matrix(1.0772948,0,0,1.0772948,-7.3729128,-3.1743014)">
                                <g
                                   id="g35254"
                                   transform="translate(-2.2135012,-0.92031205)">
                                <g
                                   id="g36749"
                                   transform="translate(-0.98178042,-2.7817105)">
                                <g
                                   id="g37297"
                                   transform="translate(-6.7755742,-3.5033798)">
                                <g
                                   id="g38955"
                                   transform="matrix(1.2171094,0,0,1.2171094,-23.105122,-18.212482)">
                                <g
                                   id="g39618"
                                   transform="translate(-0.26888273,-0.26888316)">
                                <g
                                   id="g40032"
                                   transform="translate(-1.90129,-3.042064)">
                                <g
                                   id="g40543"
                                   transform="translate(0.3802582,-2.0914191)">
                                <g
                                   id="g41372"
                                   transform="translate(1.9657652,-7.9304203)">
                                <g
                                   id="g43278"
                                   transform="translate(1.5210324,-0.38025789)">
                                <g
                                   id="g44210"
                                   transform="matrix(1.1578947,0,0,1.1578947,-18.904476,-21.776183)">
                                <g
                                   id="g44833"
                                   transform="matrix(1.1196819,0,0,1.1196819,-12.538538,-14.547543)">
                                <g
                                   id="g47597"
                                   transform="translate(3.1109352,-1.2443743)">
                                <g
                                   id="g48754"
                                   transform="translate(-2.9035392,-6.6366609)">
                                <g
                                   id="g234"
                                   transform="matrix(0.04089637,0,0,0.04089637,104.63967,119.67231)">
                                <g
                                   id="g2138"
                                   transform="translate(-86.211222,-40.569988)">
                                <g
                                   id="g2696"
                                   transform="translate(-124306.44,-9412.2373)">
                                <g
                                   id="g3765"
                                   transform="translate(25.356243,-50.712489)">
                                <g
                                   id="g4557"
                                   transform="translate(46.61688,-35.859142)">
                                <g
                                   id="g5244"
                                   transform="translate(7.1718407,14.343658)">
                                <g
                                   id="g5807"
                                   transform="translate(-5.1984397,-21.113724)">
                                <g
                                   id="g6945"
                                   transform="translate(-10.142522,-243.41993)">
                                <g
                                   id="g11108"
                                   transform="translate(18.189368,-37.636113)">
                                <g
                                   id="g15049"
                                   transform="translate(-65.926228,141.99496)">
                                <g
                                   id="g19861"
                                   transform="matrix(0.07356842,0,0,0.07356842,115423.38,9039.2311)">
                                <g
                                   id="g20437"
                                   transform="translate(-478.38824,-785.88156)">
                                <g
                                   id="g21032"
                                   transform="translate(2047.1878,-1072.3367)">
                                <g
                                   id="g21869"
                                   transform="matrix(0.04321578,0,0,0.04321578,117368,10137.003)">
                                <g
                                   id="g25455"
                                   transform="translate(154741.46,-87178.414)">
                                <g
                                   id="g26278"
                                   transform="translate(-18012.371,-8233.4417)">
                                <g
                                   id="g27240"
                                   transform="translate(-0.00447131,5582.7624)">
                                <g
                                   id="g28306"
                                   transform="translate(-15790.441,-2255.7767)">
                                <g
                                   id="g33735"
                                   transform="translate(14662.549,-16918.328)">
                                <g
                                   id="g37868"
                                   transform="translate(-5075.4976,25941.433)">
                                <g
                                   id="g76752"
                                   transform="matrix(-1,0,0,1,9442.3174,-1595.0746)">
                                <g
                                   id="g82459"
                                   transform="translate(3383.6668,-1127.8885)">
                                <g
                                   id="g83208"
                                   transform="matrix(0.20332428,0,0,0.20332428,-15348.528,66747.475)">
                                <g
                                   id="g83934"
                                   transform="matrix(-1,0,0,1,240692.18,94139.78)">
                                <g
                                   id="g84550"
                                   transform="translate(-8.7627443e-5,55472.344)">
                                <g
                                   id="g9096"
                                   transform="translate(31379.925,-62759.843)">
                                <g
                                   id="g11527"
                                   transform="translate(61019.625,105397.54)">
                                <g
                                   id="g13422"
                                   transform="translate(-44377.907,44377.908)">
                                <g
                                   id="g1137"
                                   transform="translate(-3.3240812e-4,138680.92)">
                                <g
                                   id="g3632"
                                   transform="translate(177511.65,-22188.943)">
                                <ellipse
                                   style="fill:#ffffff;stroke-width:388960;stroke-linecap:round;stroke-linejoin:bevel;stroke-dasharray:388960, 777918"
                                   id="path6066"
                                   cx="-790235.44"
                                   cy="-265009.34"
                                   rx="129442.18"
                                   ry="123558.44" />
                                <g
                                   id="g5936"
                                   transform="translate(11767.473,-47069.909)">
                                <g
                                   id="g7318">
                                <g
                                   id="g11619"
                                   transform="translate(27457.436,-223581.94)" />
                                <g
                                   id="g11985"
                                   transform="translate(70604.821,-133364.68)">
                                <path
                                   style="fill:#502d16;stroke-width:4741.91"
                                   d="m 548867.28,1101294 c 62995.57,-15338.5 130822.15,-58873.9 171143.65,-109850.7 40394.2,-51068.8 35169.7,-35742.24 203158.1,-595984.96 19787.2,-65990.59 19855.8,-66123.46 36305,-70345.09 39668.7,-10180.92 64227.97,-44790.51 60358.77,-85058.89 -2502.2,-26040.53 -13279.5,-43486.96 -36717.47,-59438.7 -13818.3,-9404.68 -21624.1,-10669.29 -65855.6,-10669.29 h -50179.1 L 485261.82,-211031.37 C 198127.17,-497533.49 95062.582,-597479.63 69648.512,-614069.34 c -43637.04,-28485.19 -83829.61,-46977.29 -136914.24,-62992.5 -38633.712,-11655.49 -50090.212,-12911.99 -120918.682,-13261.84 -71415.62,-352.75 -82279,742.43 -124520.97,12553.49 -52685.27,14731.07 -110263.95,42006.03 -155251.67,73542.59 -18300.69,12828.83 -183972.85,174338.29 -407804.19,397557.65 l -376981.76,375951.07 -52161,1518.08 c -59755.5,1739.14 -75714,8985.35 -92574.6,42034.79 -11975.2,23473.26 -11875.1,43795 340.4,69028.26 10417.3,21519.35 23651.5,32356.89 51128.8,41869.78 19650.1,6803.03 13507.1,-9098.25 71570.3,185260.84 133197.5,445861.62 133906.8,447745.91 190034.1,504815.33 36823,37441.1 74423.6,61153.7 125706.11,79275.8 l 37889.51,13389.4 720770.2,835.7 c 614321.02,712.2 724925.57,-175.9 748906.46,-6015.1 z"
                                   id="path11995" />
                                <path
                                   style="fill:#2b1100;stroke-width:4741.91"
                                   d="m 548867.28,1101294 c 62995.57,-15338.5 130822.15,-58873.9 171143.65,-109850.7 40394.2,-51068.8 35169.7,-35742.24 203158.1,-595984.96 19787.2,-65990.59 19855.8,-66123.46 36305,-70345.09 39668.7,-10180.92 64227.97,-44790.51 60358.77,-85058.89 -2502.2,-26040.53 -13279.5,-43486.96 -36717.47,-59438.7 l -15676.4,-10669.29 -306337.4,-1122.51 -306337.34,-1122.5 250178.18,-2433.93 250178.16,-2433.93 -378209.69,-377742.43 C 172615.89,-518827.89 91556.412,-597265.99 62142.972,-616263.47 c -90524.24,-58467.5 -200618.092,-84495.71 -304924.542,-72089.73 -47435.26,5641.85 -58277.82,8798.24 -44982.93,13095 3912.07,1264.34 21094.43,16442.68 38182.99,33729.65 37586.74,38023.1 34377.08,31866.72 243830.1518,467686.5 C 79481.052,3505.3489 152310.23,153419.44 156091.33,159300.35 l 6874.68,10692.58 -753563.91,-75.87 c -414460.1,-42.68 -757534,1362.11 -762386.5,3119.32 -29403.2,10647.82 -53870.7,44014.93 -53870.7,73465.22 0,20336.48 16499.9,53510.31 31504.9,63341.9 6639.2,4350.27 19842.6,10599.97 29340.6,13888.29 19650.1,6803.03 13507.1,-9098.25 71570.3,185260.85 133197.4,445861.61 133906.7,447745.9 190034.1,504815.36 36822.9,37441.1 74423.6,61153.7 125706.07,79275.8 l 37889.75,13389.6 720770.2,835.7 c 614321.02,712.2 724925.57,-175.9 748906.46,-6015.1 z M 60032.862,-190111.59 c -35997.11,-21949.54 -19140.19,-73666.31 23615.09,-72450.68 32365.708,920.26 49346.538,44458.43 25722.438,65951.52 -19287.098,17547.24 -29099.058,18839.79 -49337.528,6499.16 z"
                                   id="path11993" />
                                <path
                                   style="fill:#b8906d;stroke-width:4741.91"
                                   d="m 548867.28,1101294 c 62995.57,-15338.5 130822.15,-58873.9 171143.65,-109850.7 40394.2,-51068.8 35169.7,-35742.24 203158.1,-595984.96 19787.2,-65990.59 19855.8,-66123.46 36305,-70345.09 67539.77,-17333.95 83015.97,-100829.77 26509.1,-143019.11 l -13094.7,-9776.82 -1108073.85,-2370.95 c -609440.55,-1304.03 -1133680.08,-1304.03 -1164976.68,0 -64916.9,2704.87 -80268.2,9470.2 -97316.5,42887.62 -11975.2,23473.26 -11875.1,43795 340.4,69028.26 10417.3,21519.35 23651.5,32356.89 51128.8,41869.78 19650.1,6803.03 13507.1,-9098.25 71570.3,185260.84 133197.5,445861.62 133906.8,447745.91 190034.1,504815.33 36823,37441.1 74423.6,61153.7 125706.11,79275.8 l 37889.51,13389.4 720770.2,835.7 c 614321.02,712.2 724925.57,-175.9 748906.46,-6015.1 z"
                                   id="path11991" />
                                <path
                                   style="fill:#a0775a;stroke-width:4741.91"
                                   d="m 539698.65,1101134.3 c 86574.38,-18482.5 169157.38,-80441.7 210431.38,-157879.61 14479.8,-27167.02 68894.3,-200985.87 168981.7,-539787.22 l 22768.9,-77073.95 18284.6,-4923.52 c 69235.67,-18643.25 79975.67,-110967.6 16484.1,-141703.38 -19836.1,-9602.46 -26683.3,-9820.25 -308746.6,-9820.25 H 379442.18 l 15999.62,10782.15 c 49219.22,33168.8 50610.02,97434.28 2857.24,132026.23 l -18877.3,13674.62 h -852832.18 c -469057.7,0 -852832.16,1608.46 -852832.16,3574.31 0,1965.9 8582.8,30239.53 19073,62830.3 10490.2,32590.8 23258.9,75259.93 28374.8,94820.3 5115.9,19560.38 17936.6,63304.49 28490.4,97209.14 10553.8,33904.65 37333.4,121217.61 59510.3,194028.82 24229,79548.9 47316.2,145787.11 57847.3,165966.82 24696,47322.88 77312.7,99025.34 126783.1,124580.34 77133.7,39845 6552.66,36532.4 803753.56,37722.7 613787.84,916.5 713369.55,107.6 742108.79,-6027.8 z"
                                   id="path11989" />
                                <path
                                   style="fill:#744f4f;stroke-width:4741.91"
                                   d="m 870851.43,566236.73 c 12165.7,-40248.9 22119.5,-76243.45 22119.5,-79987.9 0,-5903.11 -144185.3,-6497.98 -1084711.77,-4475.18 -596591.45,1283.07 -1085386.56,2916.84 -1086211.36,3630.6 -824.8,713.8 8820.3,35120.33 21433.8,76458.97 l 22933.4,75161.2 1041158.52,1196.05 1041158.51,1196.05 z"
                                   id="path11987" />
                                </g>
                                </g>
                                </g>
                                </g>
                                </g>
                                </g>
                                </g>
                                </g>
                                </g>
                                </g>
                                </g>
                                </g>
                                </g>
                                </g>
                                </g>
                                </g>
                                </g>
                                </g>
                                </g>
                                </g>
                                </g>
                                </g>
                                </g>
                                </g>
                                </g>
                                </g>
                                </g>
                                </g>
                                </g>
                                </g>
                                </g>
                                </g>
                                </g>
                                </g>
                                </g>
                                </g>
                                </g>
                                </g>
                                </g>
                                </g>
                                </g>
                                </g>
                                </g>
                                </g>
                                </g>
                                </g>
                                </g>
                                </g>
                                </g>
                                </g>
                                </g>
                                </g>
                                </g>
                              </g>
                            </g>
                          </g>
                        </g>
                      </g>
                    </g>
                  </g>
                </g>
              </g>
            </g>
          </g>
        </g>
      </g>
    </g>
  </g>
</svg>
