<?xml version="1.0" encoding="UTF-8" standalone="no"?>
<!-- Created with Inkscape (http://www.inkscape.org/) -->

<svg
   width="64"
   height="64"
   viewBox="0 0 16.933333 16.933334"
   version="1.1"
   id="svg5"
   inkscape:version="1.2 (dc2aedaf03, 2022-05-15)"
   sodipodi:docname="campari.svg"
   xmlns:inkscape="http://www.inkscape.org/namespaces/inkscape"
   xmlns:sodipodi="http://sodipodi.sourceforge.net/DTD/sodipodi-0.dtd"
   xmlns="http://www.w3.org/2000/svg"
   xmlns:svg="http://www.w3.org/2000/svg">
  <sodipodi:namedview
     id="namedview7"
     pagecolor="#ffffff"
     bordercolor="#666666"
     borderopacity="1.0"
     inkscape:pageshadow="2"
     inkscape:pageopacity="0.0"
     inkscape:pagecheckerboard="0"
     inkscape:document-units="mm"
     showgrid="false"
     units="px"
     inkscape:zoom="16"
     inkscape:cx="20.3125"
     inkscape:cy="24.9375"
     inkscape:window-width="1920"
     inkscape:window-height="1017"
     inkscape:window-x="3832"
     inkscape:window-y="-8"
     inkscape:window-maximized="1"
     inkscape:current-layer="g9996"
     inkscape:showpageshadow="2"
     inkscape:deskcolor="#d1d1d1" />
  <defs
     id="defs2" />
  <g
     inkscape:label="Calque 1"
     inkscape:groupmode="layer"
     id="layer1">
    <g
       id="g4128"
       transform="translate(-0.63104184,0.12620835)">
      <g
         id="g5578"
         transform="translate(0.08924235,0.08924306)">
        <g
           id="g7501"
           transform="translate(-0.06310417,0.94656242)">
          <g
             id="g9467"
             transform="translate(-0.08924275,-0.80318511)">
            <g
               id="g10302"
               transform="translate(0.31234979,-0.04462139)">
              <g
                 id="g11479"
                 transform="translate(-0.12620833,0.06310418)">
                <g
                   id="g11873"
                   transform="translate(-0.23575769,0.66462456)">
                  <g
                     id="g12382"
                     transform="translate(-121.98459,-82.267525)">
                    <g
                       id="g13305"
                       transform="matrix(0.13266609,0,0,0.13266609,114.63867,78.215696)">
                      <g
                         id="g17429"
                         transform="translate(0.90513437,5.6640979)">
                        <g
                           id="g18595"
                           transform="translate(-3.3634362,-8.7449387)">
                          <g
                             id="g21002"
                             transform="translate(1.7082278,-2.8204445)">
                            <g
                               id="g23814"
                               transform="translate(8.7253043,-1.1218249)">
                              <g
                                 id="g24838"
                                 transform="translate(11.143454,-0.85716864)">
                                <g
                                   id="g25315"
                                   transform="translate(-3.490122,2.4929446)">
                                <g
                                   id="g27220"
                                   transform="translate(2.4678888,1.2339445)">
                                <g
                                   id="g29753"
                                   transform="translate(1.4759287,-2.3737724)">
                                <g
                                   id="g30615"
                                   transform="translate(0.92006037,1.3687834)">
                                <g
                                   id="g31433"
                                   transform="translate(-2.4678886,-1.410222)">
                                <g
                                   id="g31731"
                                   transform="translate(1.0576664,-0.70511063)">
                                <g
                                   id="g33243"
                                   transform="matrix(1.0772948,0,0,1.0772948,-7.3729128,-3.1743014)">
                                <g
                                   id="g35254"
                                   transform="translate(-2.2135012,-0.92031205)">
                                <g
                                   id="g36749"
                                   transform="translate(-0.98178042,-2.7817105)">
                                <g
                                   id="g37297"
                                   transform="translate(-6.7755742,-3.5033798)">
                                <g
                                   id="g38955"
                                   transform="matrix(1.2171094,0,0,1.2171094,-23.105122,-18.212482)">
                                <g
                                   id="g39618"
                                   transform="translate(-0.26888273,-0.26888316)">
                                <g
                                   id="g40032"
                                   transform="translate(-1.90129,-3.042064)">
                                <g
                                   id="g40543"
                                   transform="translate(0.3802582,-2.0914191)">
                                <g
                                   id="g41372"
                                   transform="translate(1.9657652,-7.9304203)">
                                <g
                                   id="g43278"
                                   transform="translate(1.5210324,-0.38025789)">
                                <g
                                   id="g44210"
                                   transform="matrix(1.1578947,0,0,1.1578947,-18.904476,-21.776183)">
                                <g
                                   id="g44833"
                                   transform="matrix(1.1196819,0,0,1.1196819,-12.538538,-14.547543)">
                                <g
                                   id="g47597"
                                   transform="translate(3.1109352,-1.2443743)">
                                <g
                                   id="g48754"
                                   transform="translate(-2.9035392,-6.6366609)">
                                <g
                                   id="g234"
                                   transform="matrix(0.04089637,0,0,0.04089637,104.63967,119.67231)">
                                <g
                                   id="g2138"
                                   transform="translate(-86.211222,-40.569988)">
                                <g
                                   id="g2696"
                                   transform="translate(-124306.44,-9412.2373)">
                                <g
                                   id="g3765"
                                   transform="translate(25.356243,-50.712489)">
                                <g
                                   id="g4557"
                                   transform="translate(46.61688,-35.859142)">
                                <g
                                   id="g5244"
                                   transform="translate(7.1718407,14.343658)">
                                <g
                                   id="g5807"
                                   transform="translate(-5.1984397,-21.113724)">
                                <g
                                   id="g6945"
                                   transform="translate(-10.142522,-243.41993)">
                                <g
                                   id="g11108"
                                   transform="translate(18.189368,-37.636113)">
                                <g
                                   id="g15049"
                                   transform="translate(-65.926228,141.99496)">
                                <g
                                   id="g19861"
                                   transform="matrix(0.07356842,0,0,0.07356842,115423.38,9039.2311)">
                                <g
                                   id="g20437"
                                   transform="translate(-478.38824,-785.88156)">
                                <g
                                   id="g21032"
                                   transform="translate(2047.1878,-1072.3367)">
                                <g
                                   id="g21869"
                                   transform="matrix(0.04321578,0,0,0.04321578,117368,10137.003)">
                                <g
                                   id="g25455"
                                   transform="translate(154741.46,-87178.414)">
                                <g
                                   id="g26278"
                                   transform="translate(-18012.371,-8233.4417)">
                                <g
                                   id="g27240"
                                   transform="translate(-0.00447131,5582.7624)">
                                <g
                                   id="g28306"
                                   transform="translate(-15790.441,-2255.7767)">
                                <g
                                   id="g33735"
                                   transform="translate(14662.549,-16918.328)">
                                <g
                                   id="g37868"
                                   transform="translate(-5075.4976,25941.433)">
                                <g
                                   id="g76752"
                                   transform="matrix(-1,0,0,1,9442.3174,-1595.0746)">
                                <g
                                   id="g82459"
                                   transform="translate(3383.6668,-1127.8885)">
                                <g
                                   id="g83208"
                                   transform="matrix(0.20332428,0,0,0.20332428,-15348.528,66747.475)">
                                <g
                                   id="g83934"
                                   transform="matrix(-1,0,0,1,240692.18,94139.78)">
                                <g
                                   id="g84550"
                                   transform="translate(-8.7627443e-5,55472.344)">
                                <g
                                   id="g9096"
                                   transform="translate(31379.925,-62759.843)">
                                <g
                                   id="g11527"
                                   transform="translate(61019.625,105397.54)">
                                <g
                                   id="g13422"
                                   transform="translate(-44377.907,44377.908)">
                                <g
                                   id="g1137"
                                   transform="translate(-3.3240812e-4,138680.92)">
                                <g
                                   id="g3632"
                                   transform="translate(177511.65,-22188.943)">
                                <ellipse
                                   style="fill:#ffffff;stroke-width:388960;stroke-linecap:round;stroke-linejoin:bevel;stroke-dasharray:388960, 777918"
                                   id="path6066"
                                   cx="-790235.44"
                                   cy="-265009.34"
                                   rx="129442.18"
                                   ry="123558.44" />
                                <g
                                   id="g5936"
                                   transform="translate(11767.473,-47069.909)">
                                <g
                                   id="g7318">
                                <g
                                   id="g11619"
                                   transform="translate(27457.436,-223581.94)" />
                                <g
                                   id="g11985"
                                   transform="translate(70604.821,-133364.68)">
                                <g
                                   id="g2691"
                                   transform="translate(33283.438,22188.91)">
                                <g
                                   id="g8255"
                                   transform="translate(-61019.613,44377.912)">
                                <g
                                   id="g9996"
                                   transform="translate(-22188.958,-44377.912)">
                                <path
                                   style="fill:#ff5555;stroke-width:1425.09"
                                   d="m -245891.8,1239380.2 c -46598.44,-1169.4 -101762.86,-6315.1 -135383.33,-12628.7 -55888.28,-10495.2 -85858.64,-38746.1 -101242.03,-95433.8 -8319.98,-30658.9 -9284.08,-43416.9 -18469.35,-244403.7 -1594,-34879.02 -4475.83,-97404.75 -6404.08,-138946.05 -1928.24,-41541.31 -3851.96,-83225.13 -4274.94,-92630.71 -422.97,-9405.58 -1404.86,-29926.84 -2181.97,-45602.8 -777.11,-15675.97 -3016.56,-63131.39 -4976.55,-105456.5 -1959.99,-42325.1 -5496.96,-118317.91 -7859.93,-168872.89 -2362.97,-50554.99 -4919.01,-106026.53 -5680.09,-123270.09 -761.08,-17243.56 -2039.68,-44498.37 -2841.32,-60566.23 -801.65,-16067.86 -2388.88,-49735.56 -3527.17,-74817.107 -1138.3,-25081.544 -4028.62,-87607.268 -6422.93,-138946.054 -4393.85,-94213.089 -4928,-124076.219 -2638.21,-147496.579 3855.61,-39435.73 13877.98,-71044.53 29919.04,-94359.42 6173.41,-8972.74 18513.47,-21885.4 29377.36,-30740.51 8960.68,-7303.82 47699.51,-33797.35 49418.47,-33797.35 1847.78,0 42496.5,-26825.43 53526,-35323.57 16025.81,-12347.74 19995.17,-16124.34 30275.87,-28805.38 11055.22,-13636.42 18054.78,-28214.61 19637.85,-40900.3 1972.78,-15808.57 4081.9,-88229.32 5108.37,-175406.97 948.41,-80546.04 922.86,-81678.65 -1912.08,-84792.72 -5725.92,-6289.68 -6332.76,-9670.29 -8460.45,-47131.4 -3239.29,-57032.7 -3222.69,-103957.11 42.61,-120281.01 1451.85,-7258.29 2268.32,-14633.11 1814.35,-16388.51 -453.97,-1755.41 -3077.84,-5702.7 -5830.83,-8771.78 -2753,-3069.09 -5303.63,-7558.11 -5668.09,-9975.62 -1214.73,-8057.62 -2001.77,-206659.35 -843.98,-212968.65 1639.13,-8932.3 5374.01,-13044.3 17294.13,-19040.4 17743.89,-8925.6 48507.71,-15628.7 90340.96,-19684.3 21078.58,-2043.5 90540.31,-2856.1 116144.65,-1358.8 64320.324,3761.5 113398.465,17061.9 122160.6031,33106.1 2377.0464,4352.6 2500.6727,11249.8 2011.4116,112219.2 -286.7134,59169.85 -1034.9415,108932.53 -1662.7212,110583.72 -627.7796,1651.18 -3141.8197,5183.92 -5586.7715,7850.53 -6165.599,6724.56 -6586,9786.52 -3487.318,25399.09 2264.037,11407.23 2668.819,19273.86 2462.252,47853.48 -282.766,39124.67 -3858.695,106514.07 -5942.929,111996.01 -1430.631,3762.86 -9294.665,11274.08 -11803.631,11274.08 -2632.793,0 1378.017,223896.5 4522.858,252480.34 747.515,6794.19 2666.595,15403.32 4264.632,19131.41 4456.178,10395.83 14431.2221,24552.48 24409.9289,34642.73 16594.8481,16780.35 28462.4371,25232.86 87333.2111,62201.73 51188.814,32144.87 72204.704,55920.35 85614.354,96856.37 14298.15,43648.4 14965.16,80646.16 4919.66,272882.8661 -798.67,15284.0659 -3042.93,62739.4879 -4987.24,105456.4939 -1944.29,42717 -4492.9,97867.9 -5663.55,122557.54 -1170.67,24689.65 -3085.7,65411.53 -4255.61,90493.07 -1169.93,25081.55 -2464.93,52657 -2877.8,61278.78 -412.87,8621.78 -1373.47,29784.33 -2134.68,47027.89 -761.19,17243.56 -1705.07,37123.54 -2097.5,44177.72 -392.43,7054.19 -1051.37,20200.62 -1464.32,29214.3 -412.95,9013.68 -2040.25,44605.25 -3616.22,79092.37 -1575.97,34487.12 -4133.91,89638.02 -5684.3,122557.54 -6482.34,137639.68 -11058.61,236463.81 -14254.23,307818.94 -3306.5,73831.2 -7824.5,104342.4 -19998.42,135054 -6849.92,17280.5 -15395.427,30589.8 -26619.618,41459.1 -24582.379,23805.2 -50355.604,31997.5 -123643.892,39301.6 -45980.342,4582.7 -136862.63,6671.3 -210200.44,4830.9 z M -460027.76,721295.29 c -288.78,-4141.16 -528.1,-1116.56 -531.8,6721.43 -4.28,7837.98 232.56,11226.27 525.06,7529.45 292.49,-3696.68 295.53,-10109.57 7.12,-14250.88 z M 105748.52,248118.42 c -204.08,-73089.18 -371.05,-13288.94 -371.05,132889.43 0,146178.38 166.97,205978.62 371.05,132889.44 204.07,-73089.19 204.07,-192689.68 0,-265778.87 z m -565855.08,364911.53 c -454.91,-1136.79 -792.6,-799.19 -860.98,861.04 -61.85,1502.18 274.93,2343.98 748.49,1870.43 473.54,-473.56 524.16,-1702.7 112.44,-2731.47 z M -36760.168,113447.72 c -77400.082,-203.65 -204054.752,-203.65 -281454.832,0 -77400.08,203.63 -14072.74,370.25 140727.42,370.25 154800.153,0 218127.491,-166.62 140727.412,-370.25 z M -146491.93,-720227.07 c -16263.81,-228.64 -42877.32,-228.64 -59141.14,0 -16263.81,228.64 -2957.05,415.73 29570.57,415.73 32527.63,0 45834.39,-187.09 29570.57,-415.73 z m -102558.55,-1403.44 c -3696.76,-292.5 -10109.65,-295.53 -14250.87,-7.12 -4141.22,288.78 -1116.59,528.09 6721.39,531.8 7837.99,4.27 11226.25,-232.56 7529.48,-525.06 z m 161034.921,0 c -3696.763,-292.5 -10109.658,-295.53 -14250.881,-7.12 -4141.22,288.78 -1116.58,528.09 6721.402,531.8 7837.982,4.27 11226.242,-232.56 7529.479,-525.06 z M -277600,-723030.77 c -2155.44,-326.53 -5682.54,-326.53 -7837.98,0 -2155.45,326.52 -391.9,593.68 3918.99,593.68 4310.89,0 6074.44,-267.16 3918.99,-593.68 z m 219107.243,-394.55 c 4935.293,-807.31 2745.161,-930.45 -7125.438,-400.63 -7837.983,420.71 -14518.082,1001.4 -14844.669,1290.41 -1064.883,942.4 14663.825,305.38 21970.107,-889.78 z m -235468.633,-944.59 c -964.83,-390.36 -2888.7,-414.12 -4275.26,-52.87 -1386.57,361.32 -597.16,680.71 1754.24,709.75 2351.39,29.07 3485.85,-266.58 2521.02,-656.95 z"
                                   id="path10006"
                                   sodipodi:nodetypes="ssssssssssssssssssssssssssssssssssssssssssssssssssssssssssssscssssssssssssssssssssccccccccccsssssssssssss" />
                                <path
                                   style="fill:#d8e2ee;stroke-width:1425.09"
                                   d="m -281745.24,1237371.7 c -21698.07,-1078.2 -56266.71,-4760.2 -86704.1,-9235.3 -67391.89,-9908.2 -98914.99,-38081 -114711.89,-102520.2 -6504.75,-26534.4 -8264.9,-47041.9 -12843.09,-149634.22 -1189.21,-26649.14 -3098.88,-67691.66 -4243.7,-91205.61 -2295.31,-47144.33 -2211.31,-45347.43 -7129.04,-152484.39 -1906.8,-41541.31 -3826.57,-82263.19 -4266.15,-90493.07 -439.59,-8229.88 -2067.47,-43180.16 -3617.52,-77667.28 -1550.05,-34487.12 -3779.29,-82583.84 -4953.85,-106881.58 -1174.57,-24297.75 -3754.8,-79448.64 -5733.85,-122557.55 -3097.39,-67469.07 -7329.37,-157678.69 -9961.38,-212338.07 -415.16,-8621.78 -1380.21,-30425.622 -2144.54,-48452.982 -764.33,-18027.36 -1718.93,-38227.978 -2121.34,-44890.264 -7290.98,-120709.562 -9205.34,-230603.574 -4503.64,-258531.324 5133.52,-30492.76 14868.23,-56135.66 28719.35,-75651.75 13271.8,-18699.83 36894.81,-37829.14 78393.88,-63481.34 42856.95,-26491.57 57695.03,-37109.27 72089.13,-51584.92 12119.03,-12187.69 18719.11,-21237.84 24690.06,-33855.41 7971.22,-16844.49 8887.77,-32516.94 10276.02,-175712.9 832.16,-85835.67 1246.34,-99362.5 3021.65,-98681.26 1131.52,434.21 3761.29,1111.22 5843.91,1504.47 2082.64,393.24 1077.85,-298.64 -2232.84,-1537.53 -7958.13,-2978 -12686.37,-8882.2 -14461.15,-18057.78 -1946.16,-10061.64 -6228.85,-116289.74 -5190.24,-128738.97 452.65,-5425.78 1848.05,-16949.7 3100.88,-25608.71 2109.2,-14577.96 2103.1,-16081.56 -82.23,-20307.5 -1298.01,-2510.12 -3020.93,-4563.86 -3828.67,-4563.86 -807.74,0 -2652.13,-2725.48 -4098.64,-6056.62 -2463.21,-5672.5 -2661.48,-12789.88 -3126.31,-112225.68 -469.64,-100466 -356.66,-106449.7 2103.31,-111393.7 8156.18,-16392.1 52629.65,-28900 119245.39,-33537 23979.85,-1669.2 100699.08,-1092.9 119707.37,899.1 43829.244,4593.4 72180.994,10854.8 90064.492,19890.5 17753.6577,8970.2 16045.3195,-3683 16486.8687,122113.1 376.2232,107183.04 335.9787,109011.87 -2522.8614,114615.65 -1597.8511,3132.06 -3543.8223,5694.65 -4324.3713,5694.65 -780.55,0 -2497.723,2261.72 -3815.929,5026.02 -2248.404,4714.94 -2245.112,5927.71 53.013,19594.95 3818.95,22711.14 4283.671,36944.58 2468.266,75597.44 -3196.358,68055.67 -4082.321,80209.69 -6219.81,85325.39 -2212.106,5294.32 -7482.081,9731.56 -14522.442,12227.7 -3649.351,1293.85 -3805.825,1532.24 -1068.816,1628.28 l 3206.505,112.51 20.093,51659.43 c 24.512,63030.33 2324.532,163333.65 4318.316,188316.89 806.528,10106.35 2599.231,21730.72 3983.79,25831.91 8585.127,25430.06 35868.888,52285.37 82418.354,81124.1 50209.392,31106.18 63224.262,40348.84 80029.712,56834.04 25527.42,25041 38517.47,53772.31 45341.41,100285.89 3221.91,21961.33 3235.48,73134.76 36.06,135812.128 -2099.33,41125.51 -8298.36,172857.199 -12339.35,262216.142 -797.52,17635.46 -1784,37836.08 -2192.17,44890.26 -408.17,7054.19 -1999.1,41042.53 -3535.37,75529.65 -1536.29,34487.13 -3147.69,69116.76 -3580.91,76954.74 -433.21,7837.98 -1388.64,28038.6 -2123.18,44890.27 -2824.14,64791.04 -8466.07,186556.95 -9211.24,198799.73 -429.35,7054.19 -1751.15,34629.64 -2937.3,61278.78 -1186.17,26649.14 -3749.64,82441.32 -5696.59,123982.63 -1946.96,41541.31 -4815.1,103425.74 -6373.65,137520.97 -6135.16,134214.65 -7399.58,151747.05 -12824.79,177828.05 -12561.32,60387 -37762.761,90547.3 -87783.37,105056.6 -22631.463,6564.5 -72382.16,12560.3 -123840.682,14924.5 -35663.478,1638.7 -161203.208,1587.2 -194750.728,-79.8 z m 158410.99,-36136.9 c 38545.688,-660.4 70405.976,-3376.8 101893.775,-8687.6 49571.336,-8360.9 75197.535,-26636.5 91477.851,-65238.7 12959.99,-30729.3 17111.684,-57929.8 20867.945,-136719.37 l 1681.518,-35270.92 H -179971.34 c -218715.7,0 -272558.18,355.85 -272558.18,1801.45 0,8443.51 3151.68,72921.44 4335.24,88691.64 5724.27,76271.8 23559.11,120084.4 55355.16,135984 14890.43,7445.9 25268.37,9792.5 54316.62,12281.4 13716.47,1175.3 33275.8,3158.3 43465.18,4406.9 17619.71,2159 95297,4581.1 121132.45,3777.2 6270.39,-195.2 29036.17,-656.9 50590.62,-1026 z M 108740.32,563419.08 c 1819.13,-32426.87 10348.32,-219758.93 13690.51,-300693.51 1181.4,-28608.63 2485.44,-57466.66 2897.86,-64128.95 412.43,-6662.28 1404.06,-28786.77 2203.64,-49165.52 1458.59,-37174.7 3595.29,-87896.221 7894.43,-187399.039 2835.1,-65617.821 3113.76,-120821.991 715.76,-141796.231 -4211.6,-36837.15 -13746.34,-67626.91 -27436.26,-88597.79 -9671.013,-14814.5 -29324.94,-33993.34 -51626.395,-50378.47 -58433.2292,-42931.54 -70656.862,-53202.12 -83072.085,-69799.09 -8534.836,-11409.55 -15685.613,-25166.55 -18154.15,-34925.78 -3599.714,-14231.21 -5148.799,-61287.75 -6069.035,-184359.51 l -877.783,-117391.52 -8687.592,843.83 c -52787.3,5127.26 -213912.74,4319.76 -245608.43,-1230.88 l -4631.54,-811.09 -11.4,93051.56 c -9.97,90015.32 -1714.36,171768.03 -4123.82,197879.97 -963.07,10437.07 -2182.13,14766.85 -6962.79,24730.01 -12923.76,26933.84 -29940.02,44426.44 -72270.03,74293.1 -49623.01,35012.35 -69758.28,54696.87 -83024.58,81166.01 -10412.17,20774.55 -17335.11,47585.28 -20238.84,78379.83 -2606.96,27647.11 -1403.58,97120.153 3443.52,198799.736 1418.6,29758.71 2288.92,49804.265 3681.45,84792.724 1464.6,36799.41 5010.85,120110.24 6339.06,148921.66 1673.1,36292.43 4999.13,111069.06 6433.82,144646.41 837.25,19594.96 2454.05,55507.17 3592.89,79804.91 1138.84,24297.75 2732,60209.96 3540.35,79804.92 808.35,19594.95 2398.47,55186.52 3533.6,79092.36 1797.94,37864.73 4310.52,100203.48 5485.39,136095.88 205.24,6270.39 502.23,-139783.29 659.97,-324563.73 l 287.2,-335964.43 h 282167.38 282167.37 l 309.2,420044.61 c 249.89,339474.14 482.14,385328.9 1210.81,239058.46 527.91,-105972.23 1580.9,-193094.68 2540.52,-210200.44 z M -38214.941,-725721.22 c -473.542,-473.54 -1702.695,-524.16 -2731.423,-112.44 -1136.835,454.92 -799.16,792.6 860.996,860.98 1502.27,61.85 2343.97,-274.94 1870.427,-748.48 z"
                                   id="path10004" />
                                <path
                                   style="fill:#aaccff;stroke-width:1425.09"
                                   d="m -459177.09,836087.82 c 520.97,-64792.9 947.22,-253652.65 947.22,-419688.34 V 114516.45 h 280742.29 280742.28 v 419688.34 419688.33 h -281689.5 -281689.48 z m 196184.24,-1559068.73 c -36072.99,-1642.18 -58885.11,-4680.87 -65940.58,-8783.62 -8537.07,-4964.33 -9404.95,-9470.68 -11728.88,-60901.68 -2356.8,-52157.87 -2583.45,-87091.12 -641.88,-98929.28 707.02,-4310.89 1705.8,-12369.72 2219.52,-17908.52 903.06,-9736.66 793.05,-10232.76 -3318.17,-14963.42 -8730.55,-10045.99 -8200.04,-2720.51 -8610.6,-118899.87 -428.69,-121312.3 -1225.16,-112928.8 11539.11,-121459.3 13062.88,-8730.1 45464.73,-16956.2 82891.67,-21044.3 93604.44,-10224.3 204382.321,-1133.7 238640.861,19583.2 14888.7896,9003.6 13545.9009,-2217.9 13997.5825,116967.4 261.1758,68918.33 -112.1544,106653.85 -1100.7093,111272.04 -990.8493,4628.68 -3222.5937,8899.26 -6610.1412,12648.85 -5731.489,6344.09 -5638.93,4608.29 -1916.558,35941.55 1775.303,14943.64 1170.482,60118.57 -1545.037,115403.05 -1970.825,40123.37 -3613.567,42893.91 -27863.986,46993.83 -22408.123,3788.44 -57994.022,5043.7 -135219.482,4769.72 -41541.31,-147.37 -79698.03,-457.73 -84792.72,-689.65 z"
                                   id="path10002" />
                                <path
                                   style="fill:#fff6d5;stroke-width:1425.09"
                                   d="m -458229.87,534924.46 v -418968.8 l 280742.31,-363.33 280742.32,-363.34 v 419332.07 419332.06 h -280742.28 -280742.29 z m 409955.876,352313.03 c 18431.458,-1017.37 23016.607,-2113.54 19062.444,-4557.43 -2797.547,-1728.91 -193403.55,-1820.26 -259432.88,-123.98 -79655.07,2046 -105456.49,3144.17 -105456.49,4488.46 0,655.25 6252.57,1433.78 13894.6,1729.91 23345.56,904.79 311903.986,-431.23 331932.326,-1536.81 z m -10931.307,-45863.74 c 20966.305,-1756.84 22801.405,-2102.29 22801.405,-4293.07 0,-981.32 -16695.987,-1480.24 -50234.344,-1501.19 l -50234.34,-31.35 6053.46,-2747.86 c 12523.07,-5684.39 27152.88,-16561.37 41043.108,-30514.69 C -20211.437,732405.28 12059.063,588058.71 -12320.298,455824.82 -31311.203,352817.91 -82293.375,274159.91 -143465.88,253486.16 c -9681.32,-3271.86 -15159.53,-4153.28 -29033.9,-4671.44 -19668.03,-734.63 -28691.13,624.05 -44416.41,6688.37 -49773.88,19194.93 -95569.35,82521.27 -117195.78,162059.55 -17906.64,65857.58 -21557.63,143413.84 -9952.2,211410.34 16484.93,96585.75 61133.96,174116.22 116480.35,202261.27 3407.08,1732.63 5972.24,3369.48 5700.35,3637.54 -831.75,819.85 -44539.32,-2073.5 -105950.87,-7013.85 -32135.73,-2585.11 -58695.81,-4463.52 -59022.39,-4174.09 -1552.72,1375.78 2681.17,2318.19 24996.32,5563.26 33924.33,4933.23 78179.59,8861.34 120386.64,10685.59 19908.34,860.47 40686,2042.58 46172.59,2626.87 14608.97,1555.77 113678.337,692.45 136095.879,-1185.96 z M -196526.81,809266.1 c -48078.92,-10008.53 -91010.16,-63767.55 -112086.53,-140356.18 -25661.19,-93249.33 -18134.1,-204568.92 19133.72,-282972.26 45496.22,-95713.88 123879.12,-118510.15 184783.47,-53740.77 32799.759,34881.16 54959.147,87949.15 65607.132,157117.63 2704.389,17567.49 3197.27,26749.47 3289.359,61278.77 67.691,25396.78 -586.367,46221.73 -1745.661,55578.43 -6904.65,55727.62 -24959.073,109581.69 -48571.395,144882.54 -29939.185,44759.58 -71010.195,66413.5 -110410.095,58211.84 z m 32302.09,-21383.87 c 49548.33,-12905.59 88745.972,-77892.44 103911.884,-172278.14 2834.257,-17639.03 3232.256,-25305.43 3227.054,-62160.62 -4.275,-33477.59 -535.662,-45523.14 -2606.87,-59141.14 -13636.864,-89661.25 -48657.598,-153056.13 -95521.148,-172913.16 -7589.94,-3216.14 -10791.11,-3707.8 -24411.42,-3749.55 -15122.83,-47.03 -16053.1,132.53 -26364.12,5090.55 -13900.52,6683.38 -26559.56,16357.3 -35798.92,27357.56 -50506.45,60131.86 -72465.01,170561.48 -54731.32,275243.86 18090.62,106789.24 75510.53,177341.06 132294.86,162550.64 z M -300045.13,221277.61 c 19206.39,-1691.15 51518.63,-6650.46 53003.23,-8135.11 567.28,-567.19 517.18,-1863.45 -111.3,-2880.39 -1957.51,-3167.26 -42859.61,793.77 -93863.18,9089.92 -3978.21,647.13 -6056.62,1714.67 -6056.62,3110.97 0,2291.97 10556.88,2025.76 47027.9,-1185.39 z m -95339.6,-31142.59 c 49398.39,-12488.04 103195.15,-13842.87 257087.06,-6474.74 48518.765,2323.04 92797.039,2722.2 93955.992,846.93 1778.139,-2877.11 -3980.512,-4252.6 -26976.869,-6443.39 -35664.143,-3397.84 -64561.743,-4846.21 -128970.443,-6464.06 -31743.83,-797.35 -64770.24,-1791.39 -73392.02,-2208.97 -20660.93,-1000.65 -62692.2,1480.27 -84080.18,4962.9 -26353.52,4291.14 -55172.5,13384.76 -56039.18,17682.69 -595.49,2953.06 -919.32,2986.41 18415.64,-1901.36 z m 127646.98,-913600.31 c -40819.97,-2193.16 -56451.46,-4811.68 -63343.66,-10611.08 -5761.53,-4848 -7182.38,-11190.83 -8151.01,-36386.66 -467.06,-12148.88 -1122.73,-25615.96 -1457.06,-29926.85 -334.31,-4310.89 -1036.78,-22908.28 -1561.01,-41327.54 -807.72,-28379.24 -555.53,-36316.55 1652.75,-52015.7 3284.18,-23348.16 3125.93,-25831.37 -1991.22,-31245.09 -8154.41,-8626.99 -7770.83,-3257.57 -8406.58,-117676.59 l -589.9,-106169 3325.03,-6329.6 c 9593.5,-18262.6 56669.73,-29623.7 141558.53,-34163.1 35074.6,-1875.6 62911.58,-963.1 107594.122,3526.9 49854.216,5009.6 85953.313,16644.8 92616.8526,29851.5 1863.9151,3694.2 2138.2445,18454.6 2052.4684,110433.1 -54.4383,58393 -531.1302,107866.79 -1059.2534,109941.78 -528.1376,2074.99 -3209.0554,6464.38 -5957.6076,9754.18 -5878.516,7036.13 -6047.161,9098.81 -2685.421,32845.69 1872.565,13227.58 2135.437,22831.26 1383.19,50533.39 -510.809,18811.15 -1204.128,38691.13 -1540.72,44177.72 -336.577,5486.58 -990.379,18953.66 -1452.891,29926.84 -462.512,10973.17 -1440.621,22226.28 -2173.586,25006.91 -2987.797,11334.73 -12766.92,15493.2 -43548.63,18518.56 -19686.205,1934.84 -176239.054,2947.82 -206264.394,1334.64 z"
                                   id="path9998" />
                                </g>
                                </g>
                                </g>
                                </g>
                                </g>
                                </g>
                                </g>
                                </g>
                                </g>
                                </g>
                                </g>
                                </g>
                                </g>
                                </g>
                                </g>
                                </g>
                                </g>
                                </g>
                                </g>
                                </g>
                                </g>
                                </g>
                                </g>
                                </g>
                                </g>
                                </g>
                                </g>
                                </g>
                                </g>
                                </g>
                                </g>
                                </g>
                                </g>
                                </g>
                                </g>
                                </g>
                                </g>
                                </g>
                                </g>
                                </g>
                                </g>
                                </g>
                                </g>
                                </g>
                                </g>
                                </g>
                                </g>
                                </g>
                                </g>
                                </g>
                                </g>
                                </g>
                                </g>
                                </g>
                                </g>
                                </g>
                              </g>
                            </g>
                          </g>
                        </g>
                      </g>
                    </g>
                  </g>
                </g>
              </g>
            </g>
          </g>
        </g>
      </g>
    </g>
  </g>
</svg>
