<?xml version="1.0" encoding="UTF-8" standalone="no"?>
<!-- Created with Inkscape (http://www.inkscape.org/) -->

<svg
   width="64"
   height="64"
   viewBox="0 0 16.933333 16.933334"
   version="1.1"
   id="svg5"
   inkscape:version="1.2 (dc2aedaf03, 2022-05-15)"
   sodipodi:docname="cap_corse.svg"
   xmlns:inkscape="http://www.inkscape.org/namespaces/inkscape"
   xmlns:sodipodi="http://sodipodi.sourceforge.net/DTD/sodipodi-0.dtd"
   xmlns="http://www.w3.org/2000/svg"
   xmlns:svg="http://www.w3.org/2000/svg">
  <sodipodi:namedview
     id="namedview7"
     pagecolor="#ffffff"
     bordercolor="#666666"
     borderopacity="1.0"
     inkscape:pageshadow="2"
     inkscape:pageopacity="0.0"
     inkscape:pagecheckerboard="0"
     inkscape:document-units="mm"
     showgrid="false"
     units="px"
     inkscape:zoom="11.313709"
     inkscape:cx="38.714093"
     inkscape:cy="33.499181"
     inkscape:window-width="1920"
     inkscape:window-height="1017"
     inkscape:window-x="1912"
     inkscape:window-y="-8"
     inkscape:window-maximized="1"
     inkscape:current-layer="g4541"
     inkscape:showpageshadow="2"
     inkscape:deskcolor="#d1d1d1" />
  <defs
     id="defs2" />
  <g
     inkscape:label="Calque 1"
     inkscape:groupmode="layer"
     id="layer1">
    <g
       id="g4128"
       transform="translate(-0.63104184,0.12620835)">
      <g
         id="g5578"
         transform="translate(0.08924235,0.08924306)">
        <g
           id="g7501"
           transform="translate(-0.06310417,0.94656242)">
          <g
             id="g9467"
             transform="translate(-0.08924275,-0.80318511)">
            <g
               id="g10302"
               transform="translate(0.31234979,-0.04462139)">
              <g
                 id="g11479"
                 transform="translate(-0.12620833,0.06310418)">
                <g
                   id="g11873"
                   transform="translate(-0.23575769,0.66462456)">
                  <g
                     id="g12382"
                     transform="translate(-121.98459,-82.267525)">
                    <g
                       id="g13305"
                       transform="matrix(0.13266609,0,0,0.13266609,114.63867,78.215696)">
                      <g
                         id="g17429"
                         transform="translate(0.90513437,5.6640979)">
                        <g
                           id="g18595"
                           transform="translate(-3.3634362,-8.7449387)">
                          <g
                             id="g21002"
                             transform="translate(1.7082278,-2.8204445)">
                            <g
                               id="g23814"
                               transform="translate(8.7253043,-1.1218249)">
                              <g
                                 id="g24838"
                                 transform="translate(11.143454,-0.85716864)">
                                <g
                                   id="g25315"
                                   transform="translate(-3.490122,2.4929446)">
                                <g
                                   id="g27220"
                                   transform="translate(2.4678888,1.2339445)">
                                <g
                                   id="g29753"
                                   transform="translate(1.4759287,-2.3737724)">
                                <g
                                   id="g30615"
                                   transform="translate(0.92006037,1.3687834)">
                                <g
                                   id="g31433"
                                   transform="translate(-2.4678886,-1.410222)">
                                <g
                                   id="g31731"
                                   transform="translate(1.0576664,-0.70511063)">
                                <g
                                   id="g33243"
                                   transform="matrix(1.0772948,0,0,1.0772948,-7.3729128,-3.1743014)">
                                <g
                                   id="g35254"
                                   transform="translate(-2.2135012,-0.92031205)">
                                <g
                                   id="g36749"
                                   transform="translate(-0.98178042,-2.7817105)">
                                <g
                                   id="g37297"
                                   transform="translate(-6.7755742,-3.5033798)">
                                <g
                                   id="g38955"
                                   transform="matrix(1.2171094,0,0,1.2171094,-23.105122,-18.212482)">
                                <g
                                   id="g39618"
                                   transform="translate(-0.26888273,-0.26888316)">
                                <g
                                   id="g40032"
                                   transform="translate(-1.90129,-3.042064)">
                                <g
                                   id="g40543"
                                   transform="translate(0.3802582,-2.0914191)">
                                <g
                                   id="g41372"
                                   transform="translate(1.9657652,-7.9304203)">
                                <g
                                   id="g43278"
                                   transform="translate(1.5210324,-0.38025789)">
                                <g
                                   id="g44210"
                                   transform="matrix(1.1578947,0,0,1.1578947,-18.904476,-21.776183)">
                                <g
                                   id="g44833"
                                   transform="matrix(1.1196819,0,0,1.1196819,-12.538538,-14.547543)">
                                <g
                                   id="g47597"
                                   transform="translate(3.1109352,-1.2443743)">
                                <g
                                   id="g48754"
                                   transform="translate(-2.9035392,-6.6366609)">
                                <g
                                   id="g234"
                                   transform="matrix(0.04089637,0,0,0.04089637,104.63967,119.67231)">
                                <g
                                   id="g2138"
                                   transform="translate(-86.211222,-40.569988)">
                                <g
                                   id="g2696"
                                   transform="translate(-124306.44,-9412.2373)">
                                <g
                                   id="g3765"
                                   transform="translate(25.356243,-50.712489)">
                                <g
                                   id="g4557"
                                   transform="translate(46.61688,-35.859142)">
                                <g
                                   id="g5244"
                                   transform="translate(7.1718407,14.343658)">
                                <g
                                   id="g5807"
                                   transform="translate(-5.1984397,-21.113724)">
                                <g
                                   id="g6945"
                                   transform="translate(-10.142522,-243.41993)">
                                <g
                                   id="g11108"
                                   transform="translate(18.189368,-37.636113)">
                                <g
                                   id="g15049"
                                   transform="translate(-65.926228,141.99496)">
                                <g
                                   id="g19861"
                                   transform="matrix(0.07356842,0,0,0.07356842,115423.38,9039.2311)">
                                <g
                                   id="g20437"
                                   transform="translate(-478.38824,-785.88156)">
                                <g
                                   id="g21032"
                                   transform="translate(2047.1878,-1072.3367)">
                                <g
                                   id="g21869"
                                   transform="matrix(0.04321578,0,0,0.04321578,117368,10137.003)">
                                <g
                                   id="g25455"
                                   transform="translate(154741.46,-87178.414)">
                                <g
                                   id="g26278"
                                   transform="translate(-18012.371,-8233.4417)">
                                <g
                                   id="g27240"
                                   transform="translate(-0.00447131,5582.7624)">
                                <g
                                   id="g28306"
                                   transform="translate(-15790.441,-2255.7767)">
                                <g
                                   id="g33735"
                                   transform="translate(14662.549,-16918.328)">
                                <g
                                   id="g37868"
                                   transform="translate(-5075.4976,25941.433)">
                                <g
                                   id="g76752"
                                   transform="matrix(-1,0,0,1,9442.3174,-1595.0746)">
                                <g
                                   id="g82459"
                                   transform="translate(3383.6668,-1127.8885)">
                                <g
                                   id="g83208"
                                   transform="matrix(0.20332428,0,0,0.20332428,-15348.528,66747.475)">
                                <g
                                   id="g83934"
                                   transform="matrix(-1,0,0,1,240692.18,94139.78)">
                                <g
                                   id="g84550"
                                   transform="translate(-8.7627443e-5,55472.344)">
                                <g
                                   id="g1274"
                                   transform="translate(-66682.337,-43147.393)">
                                <g
                                   id="g2352"
                                   transform="translate(-74780.623,-22188.943)">
                                <g
                                   id="g4123"
                                   transform="translate(-47069.882,-15689.961)">
                                <g
                                   id="g5928">
                                <g
                                   id="g12050"
                                   transform="translate(78161.555,35375.784)">
                                <g
                                   id="g1529"
                                   transform="translate(-39224.905,-7845.0125)">
                                <g
                                   id="g4541"
                                   transform="translate(55472.386,33283.435)">
                                <path
                                   style="fill:#ff5555;stroke-width:1515.86"
                                   d="m -299099.63,-137113.14 c -9339.79,-261208.78 19716.52,-393938.36 237410.476,-439134.78 51139.711,-5036.85 61157.1296,-35334.44 67836.093,-66428.56 0.7883,-14157.54 -550.5317,-21601.07 -1599.9041,-21601.07 -880.6112,0 -2935.4566,-3016.52 -4566.329851,-6703.39 -2565.873649,-5800.6 -3387.396549,-14834.53 -6099.748149,-67077.01 -1072.3016,-128261.09 -13234.4309,-235911.04 -11929.4449,-373712.55 1540.058,-8421.9 5681.582,-13381.7 15252.0382,-18265.5 32651.4358,-16662 103179.2598,-25967.7 197669.7298,-26081.3 90527.36,-108.9 160065.43,8659.1 192788.87,24308.5 12093.96,5783.7 16331.68,10150.6 18837.86,19412.2 -4680.36,152749.38 -9082.73,314437.23 -13746.78,407948.64 -1360.4,27161.23 -3699.97,37251.07 -9337.09,40267.97 -2584.29,1383.08 -2849.45,3537.62 -2849.45,23154.05 -2115.08,28854.26 -9327.53,59814.6 9224.99,76857.33 426493,163945.31 332108.91,1144984.77 229608.24,1461633.08 C -423797.81,1243003.3 -321623.64,433871.68 -299099.63,-137113.14 Z"
                                   id="path4555"
                                   sodipodi:nodetypes="cccssccsssccscccc" />
                                <path
                                   style="fill:#241c1c;stroke-width:1515.86"
                                   d="m -173332.11,1327189.6 c 3571.35,-69347.3 -88338.57,-35076.2 -142631.58,-58656.3 -81909.33,-35574.2 -52750.52,-166443.6 -55334.79,-233013.4 -16559.72,-426571.56 -34030.87,-859456.83 -17447.33,-1289047.35 5086.71,-81055.67 4909.3,-179657.86 83541.79,-227619.56 83804.41,-63985.2 190944.22,-78006.08 288246.822,-107960.8 21461.34,-34593.85 13275.7782,-19980.5 25894.1681,-72615.59 108686.4199,2234.05 262537.5899,18172.96 370113.8599,774.3 -16149.18,106219.62 85438.08,85145.61 197517.47,129407.38 60742.8,23988.22 179367.92,58256.41 189147.51,174188.46 26438.1,244277.64 14554.58,490751.63 13494.66,735992.65 -7780.1,269615.42 -11963.98,799540.41 -30517.48,808730.11 -13095.29,7203.1 -25488.61,2761.2 -37217.07,4313.9 -280564.81,37142.1 -180661.46,137689.6 -208063.18,141948.7 h -675950.86 l -566.58,-4597.3 z M 550198.67,885538.82 C 595772.6,570774.58 637830.6,255451.24 682464.63,-59447.555 c -247045.93,-337.795 -494097.37,-70.815 -741138.851,-948.753 94867.643,-430.167 189744.181,397.563 284597.511,1954.383 -160296.94,983.725 -320607.522,-230.112 -480909.02,-473.676 43253.44,313878.121 87298.06,627647.901 132103.29,941308.261 242156.3,18371.82 439684.07,13413.22 673081.11,3146.16 z M -243849.84,30620.074 c 2187.83,-4037.16 676.21,6535.543 0,0 z"
                                   id="path4545"
                                   sodipodi:nodetypes="ssscsccsssscscsssccsssccss" />
                                <path
                                   style="fill:#241c1c;stroke-width:1515.86"
                                   d="m 597455.01,553593.42 c 2187.8,-4037.28 676.24,6535.56 0,0 z m 7579.32,-54571.13 c 2187.81,-4037.28 676.24,6535.59 0,0 z M -278834.41,-498183.7 c 8294.2,-7284.12 7938.55,-1346.94 0,0 z m 12126.92,-7523.81 c 690.87,-4070.15 8963.86,1358.52 0,0 z m 30317.29,-15158.65 c 690.88,-4070.14 8963.85,1358.53 0,0 z m 16270.28,-7171.67 c 8138.45,-4516.34 -3693.71,4658.75 0,0 z m 148674.738,-44807.48 c 6644.645,-2171.37 657.252,2917.87 0,0 z m 31833.156,-6063.45 c 6644.659,-2171.36 657.228,2917.84 0,0 z m 16958.735,-5679.22 c 8294.183,-7284.1 7938.551,-1346.96 0,0 z"
                                   id="path4543"
                                   sodipodi:nodetypes="ccssssssssssssssss" />
                                </g>
                                </g>
                                </g>
                                </g>
                                </g>
                                </g>
                                </g>
                                </g>
                                </g>
                                </g>
                                </g>
                                </g>
                                </g>
                                </g>
                                </g>
                                </g>
                                </g>
                                </g>
                                </g>
                                </g>
                                </g>
                                </g>
                                </g>
                                </g>
                                </g>
                                </g>
                                </g>
                                </g>
                                </g>
                                </g>
                                </g>
                                </g>
                                </g>
                                </g>
                                </g>
                                </g>
                                </g>
                                </g>
                                </g>
                                </g>
                                </g>
                                </g>
                                </g>
                                </g>
                                </g>
                                </g>
                                </g>
                                </g>
                                </g>
                                </g>
                                </g>
                                </g>
                              </g>
                            </g>
                          </g>
                        </g>
                      </g>
                    </g>
                  </g>
                </g>
              </g>
            </g>
          </g>
        </g>
      </g>
    </g>
  </g>
</svg>
