<?xml version="1.0" encoding="UTF-8" standalone="no"?>
<svg
   width="64"
   height="64"
   version="1.1"
   viewBox="0 0 16.933 16.933"
   id="svg146"
   sodipodi:docname="cardamome.svg"
   inkscape:version="1.1.1 (3bf5ae0d25, 2021-09-20)"
   xmlns:inkscape="http://www.inkscape.org/namespaces/inkscape"
   xmlns:sodipodi="http://sodipodi.sourceforge.net/DTD/sodipodi-0.dtd"
   xmlns="http://www.w3.org/2000/svg"
   xmlns:svg="http://www.w3.org/2000/svg">
  <defs
     id="defs150">
    <pattern
       id="EMFhbasepattern"
       patternUnits="userSpaceOnUse"
       width="6"
       height="6"
       x="0"
       y="0" />
    <pattern
       id="EMFhbasepattern-1"
       patternUnits="userSpaceOnUse"
       width="6"
       height="6"
       x="0"
       y="0" />
    <pattern
       id="EMFhbasepattern-4"
       patternUnits="userSpaceOnUse"
       width="6"
       height="6"
       x="0"
       y="0" />
    <pattern
       id="EMFhbasepattern-0"
       patternUnits="userSpaceOnUse"
       width="6"
       height="6"
       x="0"
       y="0" />
    <pattern
       id="EMFhbasepattern-3"
       patternUnits="userSpaceOnUse"
       width="6"
       height="6"
       x="0"
       y="0" />
  </defs>
  <sodipodi:namedview
     id="namedview148"
     pagecolor="#ffffff"
     bordercolor="#666666"
     borderopacity="1.0"
     inkscape:pageshadow="2"
     inkscape:pageopacity="0.0"
     inkscape:pagecheckerboard="0"
     showgrid="false"
     inkscape:zoom="7.2407734"
     inkscape:cx="44.953761"
     inkscape:cy="26.585558"
     inkscape:window-width="1920"
     inkscape:window-height="1017"
     inkscape:window-x="1912"
     inkscape:window-y="-8"
     inkscape:window-maximized="1"
     inkscape:current-layer="g3762" />
  <g
     transform="translate(-.63104 .12621)"
     id="g144">
    <g
       transform="translate(.089242 .089243)"
       id="g142">
      <g
         transform="translate(-.063104 .94656)"
         id="g140">
        <g
           transform="translate(-.089243 -.80319)"
           id="g138">
          <g
             transform="translate(.31235 -.044621)"
             id="g136">
            <g
               transform="translate(-.12621 .063104)"
               id="g134">
              <g
                 transform="translate(-.23576 .66462)"
                 id="g132">
                <g
                   transform="translate(-121.98 -82.268)"
                   id="g130">
                  <g
                     transform="matrix(.13267 0 0 .13267 114.64 78.216)"
                     id="g128">
                    <g
                       transform="translate(.90513 5.6641)"
                       id="g126">
                      <g
                         transform="translate(-3.3634 -8.7449)"
                         id="g124">
                        <g
                           id="g2243"
                           transform="matrix(1.1930023,0,0,1.1930023,-33.651497,-20.118288)">
                          <g
                             id="g2622"
                             transform="translate(-3.5913905,-3.2649007)">
                            <g
                               id="g3762"
                               transform="translate(-4.1555401,0.11543139)">
                              <g
                                 id="g4411"
                                 transform="translate(1.0704362,-2.0105993)">
                                <path
                                   style="fill:#b5db4c;stroke-width:0.0193354"
                                   d="m 136.47108,127.95238 c -4.51261,-0.81997 -1.62664,-5.9116 -1.115,-8.74785 2.26697,-5.04684 7.5249,-8.88669 13.11467,-9.04338 1.13725,-1.59463 5.62767,-3.28067 4.40684,0.17141 -3.26208,2.70153 -1.05051,7.72714 -4.01016,10.65198 -2.92969,3.7977 -7.47153,6.94079 -12.39635,6.96784 z m 7.02786,-5.85468 c 2.84778,-2.6909 -2.6103,-0.47103 0,0 z m 3.77877,-8.66118 c 2.34727,-2.11703 -2.21193,-0.64857 0,0 z m 30.18751,6.72407 c -3.15132,-1.52171 -6.98682,-0.7997 -9.97333,-2.81207 -3.2941,-1.3986 -6.36987,-3.43733 -8.18454,-6.61554 -1.9758,-3.11713 -4.25728,-7.53127 -1.72132,-10.964067 2.98533,-1.94177 7.07134,-0.161396 10.02643,1.219267 3.53995,2.24646 5.76901,6.04095 7.77655,9.59444 -0.38903,3.41564 2.29104,5.381 4.07778,7.5564 -0.0981,0.90196 -0.93496,2.26975 -2.00157,2.02157 z m -9.4245,-7.6083 c 0.99851,-1.86888 -3.10535,-1.10427 -0.31165,0.0352 l 0.31174,-0.0352 z m -7.78761,-3.60135 c 1.0876,-1.77886 -2.6204,-2.50278 -0.66421,-0.24444 l 0.29552,0.26615 0.36868,-0.0217 z m -33.95778,4.91521 c -5.65126,-0.55084 -10.39134,-4.19619 -14.17104,-8.1842 -2.55673,-2.47708 -2.88539,-6.413815 -5.84459,-8.495853 -0.5037,-4.080187 5.23012,0.523725 7.51203,-0.614509 4.45372,-0.08864 7.10165,3.933522 10.62888,5.936972 2.84364,2.49096 5.07851,6.70283 3.70168,10.50431 -0.29203,0.69285 -1.13087,0.95412 -1.82696,0.85328 z m -2.50225,-4.97773 c 1.32007,-1.79425 -2.23656,-0.9015 0,0 z M 111.8088,102.4955 c 0.98531,-1.55019 -1.98085,-0.67479 0,0 z m 36.12287,0.48334 c -4.31295,-0.33714 -7.63118,-4.020489 -9.30444,-7.751868 -0.68024,-3.709611 -2.80514,-7.050529 -3.02325,-10.839017 0.002,-3.433592 2.12534,-6.511006 1.60011,-9.992191 0.50061,-4.262458 3.74656,0.0053 4.1068,2.055617 5.65117,4.432146 8.29898,11.556373 9.37089,18.434133 -0.31896,2.421153 0.91192,8.043396 -2.75011,8.093326 z m -2.40518,-6.135067 c 1.11187,-2.312913 -2.60132,-0.684381 0,0 z m -2.41235,-15.511691 c 1.31375,-1.970765 -2.55458,-1.142433 0,0 z m 24.41397,6.138599 c -4.47857,-0.118714 -9.10636,-1.488792 -12.22533,-4.864977 -2.72302,-1.817706 -4.17203,-4.808884 -5.85819,-7.483221 -3.45377,-1.860419 0.50203,-5.959603 2.72991,-2.810293 3.19524,1.38703 6.54813,-1.310912 9.82034,0.4417 4.33693,0.632606 8.67313,2.653555 10.9616,6.55963 3.26746,2.897489 1.4919,7.92299 -2.88018,7.998695 -0.84083,0.138169 -1.69755,0.190071 -2.54815,0.158466 z m -0.75034,-1.315847 c 1.17139,-2.102988 -3.95248,-0.365751 -0.39985,-0.0066 l 0.40011,0.0066 z m -6.72873,-5.587936 c 1.23032,-1.789616 -3.09085,-1.288531 -0.27439,0.0096 l 0.27443,-0.0096 z m -41.6909,3.480863 c -3.42513,-1.483473 1.70032,-4.901824 -0.0685,-7.646779 0.57928,-5.774621 4.33057,-11.553993 10.10624,-13.20542 3.42581,-3.01973 7.00047,1.146819 5.50925,4.792128 -0.74812,4.595351 -3.18948,9.160618 -7.1637,11.687352 -3.22672,0.750902 -6.11981,2.281181 -8.3833,4.372719 z m 2.5129,-5.770287 c 2.13915,-2.133852 -1.95402,-1.021237 0,0 z m 7.87989,-5.236062 c 2.57577,-3.245995 -2.60242,-0.100729 0,0 z"
                                   id="path4419" />
                                <path
                                   style="fill:#89ae2a;stroke-width:0.0193354"
                                   d="m 136.73646,127.10124 c -1.06553,-1.57373 3.92086,-1.06259 4.96571,-2.52971 3.07299,-1.47819 5.77774,-4.33019 6.77399,-7.60778 0.43104,-1.53206 0.35894,-6.89891 2.41386,-5.85317 -1.54594,2.51908 -0.79219,5.79478 -2.34677,8.32277 -1.95394,2.9505 -4.52122,5.51954 -7.92141,6.70722 -1.22936,0.50047 -2.52513,1.08379 -3.88538,0.96067 z m 0.45613,-3.3483 c -0.15544,-2.49762 3.65554,-5.10176 5.51069,-7.11575 1.38418,1.39902 -3.34257,3.71658 -4.01759,5.63085 -0.51887,0.39265 -0.73437,1.47784 -1.4931,1.4849 z m -0.44821,-3.78423 c -0.084,-3.08398 3.96565,-5.92864 6.69097,-7.39531 3.49312,-0.58788 -1.89715,2.09236 -2.73161,2.90442 -1.75471,1.01652 -2.41171,3.62159 -3.95936,4.49089 z m 40.88949,-0.15562 c -1.01459,-1.4953 2.49987,-3.14152 0.94524,-0.63063 -0.22024,0.28078 -0.51056,0.72848 -0.94524,0.63063 z m -4.98187,-2.0205 c -4.15005,-1.03194 -8.14286,-3.14737 -11.12043,-6.23962 1.15682,-1.61057 3.68729,2.96438 5.71725,3.05531 1.3509,1.7195 5.84796,1.21533 5.89761,3.15296 l -0.22111,0.0642 -0.27332,-0.0328 z m 3.57239,-0.41583 c -3.7414,-1.99644 -1.88897,-6.85748 -4.95539,-9.4001 -2.00201,-2.61021 -3.99902,-5.69584 -7.53325,-6.22516 -2.14929,-0.85047 -4.89383,-1.45294 -5.73966,0.99584 -1.19631,-3.937253 4.75641,-2.70097 6.97873,-1.5991 3.97119,0.97064 5.88641,4.99718 8.25936,7.92865 1.73304,2.48534 0.72023,6.05001 3.61313,7.85262 0.006,0.31609 -0.33684,0.5606 -0.62292,0.44725 z m -49.44079,-4.77859 c 0.0141,-2.83394 -0.66838,-6.11226 -3.16943,-8.00935 -2.83063,-1.90779 -5.22655,-4.704138 -8.50725,-5.80132 -2.1608,-0.35614 -7.75612,-0.233915 -7.51181,-2.617488 2.83357,2.078124 6.5158,0.963553 9.51782,2.480509 2.90486,2.265779 6.22112,4.151689 8.60416,7.002299 1.20753,1.69426 2.87572,5.63728 1.06651,6.94535 z m -3.21456,-0.46652 c -4.33936,-1.29876 -7.98581,-4.27751 -10.99475,-7.57576 1.44355,-0.98053 3.87173,3.4813 5.92453,4.13834 0.67359,1.58224 6.36412,2.03285 5.07022,3.43742 z m 28.68409,-2.16949 c -3.08476,-1.23186 1.33261,-2.22574 0.32094,0.0192 l -0.32095,-0.0191 z m 15.95528,-2.47931 c -1.36263,-2.81079 -5.7889,-2.8731 -7.05392,-4.67222 2.81999,-0.0646 6.65622,1.71093 7.52717,4.48669 l -0.2023,0.15755 -0.27095,0.028 z m -46.12355,-1.60968 c -1.41254,-2.11952 -6.48391,-3.49581 -6.17686,-5.73532 1.80079,1.94035 6.33947,3.34769 6.34338,5.75312 z m 25.7598,-4.02305 c -5.04397,-0.84907 -7.85606,-5.756581 -8.85522,-10.364975 -1.01471,-3.355329 -2.84117,-6.864093 -1.46073,-10.406414 1.57678,-2.075906 -0.21688,-5.966063 1.2534,-7.14381 1.35145,3.271175 -0.33123,6.597635 -0.79392,9.852595 0.18985,3.734954 2.06365,7.168347 2.99623,10.763425 1.15124,3.261461 3.97764,5.893929 7.43154,6.483629 0.52451,0.37474 -0.0397,1.11605 -0.5713,0.81555 z m 0.82038,-3.826067 c -0.4818,-2.884332 -0.39178,-6.162819 -1.69935,-9.000654 0.0421,-1.832061 -3.57313,-5.878402 -1.58007,-6.109613 2.3097,4.595364 4.3791,9.723342 3.87374,14.951616 l -0.26874,0.18444 -0.32544,-0.02579 z M 142.4316,94.09393 c -1.62746,-2.854184 -2.31409,-6.457044 -3.13116,-9.530501 2.37017,1.085747 1.90204,5.742327 3.40972,8.126337 0.21643,0.44709 0.81957,1.568177 -0.27856,1.404164 z m 29.41723,-8.66809 c -0.37375,-1.211829 2.08356,-2.619859 -0.0726,-4.072011 -1.84364,-3.079246 -4.658,-5.422548 -8.28322,-5.96156 -3.49322,-2.060081 -7.12784,0.07531 -10.62887,-0.733917 -2.36155,-0.2236 -1.85875,-2.554429 0.18388,-0.960694 3.08588,0.957756 6.32117,-1.463735 9.45427,0.42254 3.08597,0.861045 6.58575,1.574257 8.39489,4.527149 1.45231,1.709878 4.95305,5.726739 0.95163,6.778493 z m -10.11167,-0.278932 c -3.84983,-1.763957 -7.33133,-4.560503 -9.69586,-8.092086 1.49405,-1.332325 3.03211,3.484724 5.01955,3.993875 1.124,1.956307 5.24781,2.260521 5.37375,4.171038 l -0.23151,0.06424 -0.46593,-0.137068 z m -43.54633,-1.560962 c -3.39144,-2.709986 3.02927,-0.79291 0,0 z m 51.60602,-0.996662 c -1.26675,-2.771427 -4.63036,-3.949651 -6.38289,-5.534031 2.90213,-0.175977 6.08584,2.643863 6.9632,5.345951 l -0.1939,0.171227 -0.38641,0.01685 z m -50.25599,-1.179892 c 0.38011,-3.190281 6.20127,-2.252924 7.9493,-4.998818 2.80931,-2.577615 4.28527,-6.146624 4.72268,-9.877787 -0.70352,-1.738342 1.00329,-3.392303 0.9844,-0.634311 -0.28941,3.726345 -1.46229,7.520963 -4.1651,10.216999 -1.90926,3.312494 -6.13693,2.959205 -8.82207,5.125612 l -0.27491,0.190319 -0.39448,-0.02201 z m 0.48013,-6.273908 c -0.2507,-3.494702 2.58221,-7.116334 5.34166,-9.334889 1.82571,0.963043 -2.97644,3.098016 -3.08829,4.926225 -1.13301,1.101144 -0.88865,3.89612 -2.25337,4.408664 z m 28.53948,-1.566848 c -0.98275,-1.953709 3.06044,-2.615783 0.79305,-0.435444 l -0.4627,0.383818 z m -24.40183,-0.61522 c -0.37795,-2.410882 3.05899,-4.84479 4.4954,-6.943495 2.85328,-1.425928 -1.18328,2.817004 -1.86329,3.70661 -1.0033,0.81233 -1.46443,2.842809 -2.63211,3.236885 z"
                                   id="path4417" />
                                <path
                                   style="fill:#282828;stroke-width:0.0193354"
                                   d="m 177.58032,119.78364 c -0.73733,-1.90268 2.69129,-2.88264 0.81301,-0.36653 l -0.40069,0.34001 -0.41232,0.0265 z m -25.33741,-9.83162 c -3.55304,-2.21924 2.14994,-1.17356 0,0 z M 118.11645,83.559456 c -2.54163,-2.173421 2.24373,-1.070528 0.32313,0.02553 l -0.32314,-0.02553 z m 30.38434,-10.040949 c -0.80147,-1.89358 3.02272,-2.514423 0.91681,-0.458821 -0.17501,0.09604 -0.57685,0.693244 -0.91681,0.458821 z"
                                   id="path4415" />
                                <path
                                   style="fill:#272727;stroke-width:0.0193354"
                                   d="m 177.68678,119.80712 c -0.4437,-0.11449 -0.0686,-1.07762 0.16521,-1.36651 0.0339,-0.51503 0.95028,-0.95797 1.00745,-0.5665 -0.018,0.0603 0.26516,0.38591 -0.0255,0.7321 -0.11613,0.36086 -0.26707,0.50621 -0.4334,0.74691 0.0561,0.0233 -0.46514,0.53461 -0.71376,0.454 z m 0.1293,-0.0518 c -0.27713,-0.0578 0.0881,0.0641 0,0 z m 0.2816,-0.15652 c -0.12268,-0.11399 0.0481,0.11289 0,0 z m 0.12292,-0.0859 c -0.0295,-0.0916 -0.05,0.069 0,0 z m 0.058,-0.0559 c -0.0719,-0.0582 -0.0484,0.06 0,0 z m -0.76375,-0.0999 c -0.10794,-0.0254 0.009,0.12279 0,0 z m 0.82843,0.0282 c -0.0296,-0.074 -0.0297,0.0465 0,0 z m 0.0151,-0.0527 c -0.044,0.0147 0.0649,0.0716 0,0 z m -0.82498,-0.10952 c 0.0232,-0.0689 -0.0589,0.009 0,0 z m 0.97332,-0.0585 c -0.0997,-0.1137 0.0711,0.12719 0,0 z m 0.0619,-0.0363 c -0.0727,-0.0583 -0.0475,0.0601 0,0 z m -0.89322,-0.0564 c 0.0974,-0.22001 -0.21789,0.0819 0,0 z m -0.001,-0.18751 c -0.10296,0.007 0.0631,0.0789 0,0 z m 0.99812,-0.0397 c -0.0179,-0.10208 -0.0457,0.10137 0,0 z m -0.8697,-0.13635 c -0.0473,-0.23606 -0.0786,0.0883 0,0 z m 1.04144,-0.15686 c -0.0544,-0.11336 -0.0567,0.0658 0,0 z m -0.90174,-0.0929 c -0.0228,-0.13667 -0.0286,0.0957 0,0 z m 0.9513,-0.0784 c -0.0682,0.003 0.0202,0.0804 0,0 z m -0.0604,-0.0128 c -0.0375,0.009 0.0283,0.0847 0,0 z m -0.83274,-0.1043 c 0.0145,-0.0691 -0.15196,0.18153 0,0 z m 0.11033,-0.13391 c -0.20833,-0.0294 0.1159,0.0812 0,0 z m 0.0349,-0.0627 c -0.0224,-0.0411 -0.0823,0.1017 0,0 z m 0.13127,-0.0505 c -0.0115,-0.0907 -0.16217,0.0246 0,0 z m 0.58167,-0.0196 c -0.003,-0.0911 -0.0991,0.011 0,0 z m -0.55826,-0.0459 c -0.0244,-0.0428 -0.062,0.11854 0,0 z m 0.16084,-0.11542 c -1.2e-4,-0.0827 -0.10885,0.0101 0,0 z m 0.29375,0.004 c -6.1e-4,-0.252 -0.183,-0.0331 0,0 z m -0.051,0.002 c -0.003,-0.0911 -0.0992,0.011 0,0 z M 152.379,109.9832 c -0.70691,-0.24322 -1.14879,-0.71457 -1.25892,-1.17201 0.36002,-0.44371 1.14257,-0.22988 1.41899,0.0611 0.32277,0.39585 0.19649,1.24622 -0.0417,1.00227 -0.0444,0.0866 0.16076,0.20844 -0.11837,0.10865 z m -0.0746,-0.1248 c -0.28217,-0.089 -0.15663,0.0649 0,0 z m -0.28308,-0.0999 c -0.01,-0.0528 -0.11362,0.0193 0,0 z m -0.0856,-0.0513 c -0.14481,-0.11024 0.0132,0.11136 0,0 z m 0.79459,0.0128 c -0.14055,-0.0324 -0.0297,0.026 0,0 z m 0.0193,-0.0787 c -0.0187,-0.0648 -0.0397,0.0527 0,0 z m -0.0363,-0.083 c 0.1891,-0.2217 -0.0955,-0.0148 0,0 z m -0.0445,-0.0787 c 0.1348,-0.16836 -0.11334,-0.0176 0,0 z m -1.1425,-0.10331 c -0.11006,0.0751 -0.008,0.0923 0,0 z m -0.14479,-0.15474 c -0.0673,-0.1261 -0.008,0.12676 0,0 z m -0.009,-0.0719 c -0.0813,-0.12188 -0.13651,-0.004 0,0 z m 0.0176,-0.0689 c -0.0158,-0.0632 -0.0686,0.0644 0,0 z m 1.14117,-0.059 c -0.0841,-0.10824 0.0214,0.1082 0,0 z m 0.0964,-8.3e-4 c -0.0296,-0.074 -0.0297,0.0465 0,0 z m -0.0643,-0.0274 c -0.0839,-0.27275 -0.0511,0.10359 0,0 z m -1.39902,-0.0869 c -0.0187,-0.0648 -0.0397,0.0524 0,0 z m 1.21629,-0.0478 c -0.0965,-0.34674 0.007,0.17742 0,0 z m 0.0632,0.003 c 0.08,-0.16415 -0.099,0.0229 0,0 z m -1.23433,-0.0242 c -0.0247,-0.0705 -0.0478,0.0686 0,0 z m -0.004,-0.0875 c -0.0682,0.003 0.0202,0.0804 0,0 z m 0.16338,-0.0324 c 0.0784,-0.11175 -0.16348,0.0463 0,0 z m -0.15385,-0.0282 c -0.0551,-0.0718 -0.0155,0.0887 0,0 z m 0.86429,0.005 c -0.0754,-0.0631 -0.0775,0.0356 0,0 z m 0.11602,-0.0417 c -0.0953,-0.0489 -0.0181,0.0618 0,0 z m -0.10864,-0.0194 c -9.9e-4,-0.0624 -0.0605,0.0598 0,0 z m -0.69378,-0.009 c -0.0536,-0.0768 -0.0393,0.0373 0,0 z M 118.2493,83.571332 c -0.56883,-0.0033 -1.0852,-1.076576 -0.61987,-1.504872 0.51581,-0.04549 1.17934,0.731411 1.22267,0.84793 -0.19116,-0.04508 0.4315,0.414741 -0.0111,0.568872 0.21089,-0.02587 -0.48699,0.121774 -0.5917,0.08807 z m -0.34715,-0.165625 c -0.11361,-0.06058 0.0595,0.116367 0,0 z m -0.10002,-0.04574 c -0.0474,-0.117823 0.003,0.11848 0,0 z m 1.18212,-0.03538 c -9.9e-4,-0.06246 -0.0605,0.05987 0,0 z m -1.14816,-0.01597 c -0.003,-0.09255 -0.0989,0.01264 0,0 z m -0.0403,-0.08233 c -0.16229,-0.0246 -0.0113,0.0906 0,0 z m 1.14907,0.02112 c -0.0296,-0.07401 -0.0297,0.04657 0,0 z m -1.28034,-0.158684 c -0.0773,-0.03331 -0.0676,0.100875 0,0 z m 1.293,0.0145 c -0.0247,-0.07058 -0.0478,0.06875 0,0 z m -1.29547,-0.088 c -0.0846,0.01902 -0.0435,0.100582 0,0 z m -0.0494,-0.02967 c -0.0873,-0.03678 -0.006,0.09459 0,0 z m 0.0415,-0.04001 c -0.12027,-0.3585 -0.0247,0.129646 0,0 z m 0.99392,-0.306379 c -0.0247,-0.07058 -0.0478,0.06875 0,0 z m -1.16625,-0.08097 c -0.0375,0.0089 0.0283,0.0846 0,0 z m 1.0438,-0.02829 c -0.0714,-0.02697 -0.0662,0.08236 0,0 z m -0.18691,-0.122764 c -0.0478,-0.06878 -0.0247,0.07058 0,0 z m -0.81862,-0.236859 c -0.0347,0.01922 0.032,0.106442 0,0 z m 31.01816,-8.634504 c -0.49531,-0.37644 0.20763,-1.146338 0.18193,-1.091259 0.31327,-0.501983 0.81494,-1.06981 1.27118,-0.750176 0.31772,0.705115 -0.86673,1.614242 -1.20284,1.853357 l -0.24891,-0.01209 z m 0.15333,-0.05245 c -0.0681,0.0028 0.0199,0.08063 0,0 z m -0.10963,-0.0051 c -0.11059,-0.01527 -0.004,0.05296 0,0 z m -0.12638,-0.24608 c -0.0325,-0.150136 -0.063,0.181455 0,0 z m 0.68446,0.02989 c -0.0775,-0.03433 -0.0755,0.06305 0,0 z m 0.0771,-0.07312 c -0.0325,-4.54e-4 -0.23858,0.0376 0,0 z m -0.78571,-0.129896 c -0.0115,-0.140693 -0.0646,0.113279 0,0 z m 1.03092,-0.116631 c -0.0577,-0.08094 -0.0577,0.08094 0,0 z m -0.89054,-0.111685 c -0.0368,-0.03888 -0.10548,0.08348 0,0 z m -0.0416,-0.05133 c 0.0233,-0.06901 -0.0589,0.0087 0,0 z m 1.08039,-0.0096 c -0.0996,-0.136363 -0.041,0.0045 0,0 z m -1.00222,-0.146429 c -0.0536,-0.07687 -0.0393,0.03727 0,0 z m 1.1798,-0.131779 c -0.11719,-0.06322 -0.0409,0.197676 0,0 z m -1.17014,0.07377 c -0.0247,-0.07058 -0.0478,0.06875 0,0 z m 1.10452,-0.159841 c -0.0439,0.0146 0.0647,0.07172 0,0 z m 0.23473,-0.127555 c -0.0332,-0.114234 -0.17295,0.07292 0,0 z m -0.76866,-0.370324 c 0.21858,-0.123643 -0.16407,0.07266 0,0 z m 0.76356,-0.19353 c -0.0997,0.02127 -0.11025,0.123565 0,0 z m -0.42285,-0.0061 c -0.005,-0.129488 -0.0566,0.05861 0,0 z m 0.19082,-0.09766 c -0.009,-0.05191 -0.11433,0.01733 0,0 z"
                                   id="path4413" />
                              </g>
                            </g>
                          </g>
                        </g>
                      </g>
                    </g>
                  </g>
                </g>
              </g>
            </g>
          </g>
        </g>
      </g>
    </g>
  </g>
</svg>
