<?xml version="1.0" encoding="UTF-8" standalone="no"?>
<!-- Created with Inkscape (http://www.inkscape.org/) -->

<svg
   width="64"
   height="64"
   viewBox="0 0 16.933333 16.933334"
   version="1.1"
   id="svg5"
   inkscape:version="1.2 (dc2aedaf03, 2022-05-15)"
   sodipodi:docname="caroube.svg"
   xmlns:inkscape="http://www.inkscape.org/namespaces/inkscape"
   xmlns:sodipodi="http://sodipodi.sourceforge.net/DTD/sodipodi-0.dtd"
   xmlns="http://www.w3.org/2000/svg"
   xmlns:svg="http://www.w3.org/2000/svg">
  <sodipodi:namedview
     id="namedview7"
     pagecolor="#ffffff"
     bordercolor="#666666"
     borderopacity="1.0"
     inkscape:pageshadow="2"
     inkscape:pageopacity="0.0"
     inkscape:pagecheckerboard="0"
     inkscape:document-units="mm"
     showgrid="false"
     units="px"
     inkscape:zoom="22.627417"
     inkscape:cx="19.136077"
     inkscape:cy="43.531261"
     inkscape:window-width="1920"
     inkscape:window-height="1017"
     inkscape:window-x="1912"
     inkscape:window-y="-8"
     inkscape:window-maximized="1"
     inkscape:current-layer="g3632"
     inkscape:showpageshadow="2"
     inkscape:deskcolor="#d1d1d1" />
  <defs
     id="defs2" />
  <g
     inkscape:label="Calque 1"
     inkscape:groupmode="layer"
     id="layer1">
    <g
       id="g4128"
       transform="translate(-0.63104184,0.12620835)">
      <g
         id="g5578"
         transform="translate(0.08924235,0.08924306)">
        <g
           id="g7501"
           transform="translate(-0.06310417,0.94656242)">
          <g
             id="g9467"
             transform="translate(-0.08924275,-0.80318511)">
            <g
               id="g10302"
               transform="translate(0.31234979,-0.04462139)">
              <g
                 id="g11479"
                 transform="translate(-0.12620833,0.06310418)">
                <g
                   id="g11873"
                   transform="translate(-0.23575769,0.66462456)">
                  <g
                     id="g12382"
                     transform="translate(-121.98459,-82.267525)">
                    <g
                       id="g13305"
                       transform="matrix(0.13266609,0,0,0.13266609,114.63867,78.215696)">
                      <g
                         id="g17429"
                         transform="translate(0.90513437,5.6640979)">
                        <g
                           id="g18595"
                           transform="translate(-3.3634362,-8.7449387)">
                          <g
                             id="g21002"
                             transform="translate(1.7082278,-2.8204445)">
                            <g
                               id="g23814"
                               transform="translate(8.7253043,-1.1218249)">
                              <g
                                 id="g24838"
                                 transform="translate(11.143454,-0.85716864)">
                                <g
                                   id="g25315"
                                   transform="translate(-3.490122,2.4929446)">
                                <g
                                   id="g27220"
                                   transform="translate(2.4678888,1.2339445)">
                                <g
                                   id="g29753"
                                   transform="translate(1.4759287,-2.3737724)">
                                <g
                                   id="g30615"
                                   transform="translate(0.92006037,1.3687834)">
                                <g
                                   id="g31433"
                                   transform="translate(-2.4678886,-1.410222)">
                                <g
                                   id="g31731"
                                   transform="translate(1.0576664,-0.70511063)">
                                <g
                                   id="g33243"
                                   transform="matrix(1.0772948,0,0,1.0772948,-7.3729128,-3.1743014)">
                                <g
                                   id="g35254"
                                   transform="translate(-2.2135012,-0.92031205)">
                                <g
                                   id="g36749"
                                   transform="translate(-0.98178042,-2.7817105)">
                                <g
                                   id="g37297"
                                   transform="translate(-6.7755742,-3.5033798)">
                                <g
                                   id="g38955"
                                   transform="matrix(1.2171094,0,0,1.2171094,-23.105122,-18.212482)">
                                <g
                                   id="g39618"
                                   transform="translate(-0.26888273,-0.26888316)">
                                <g
                                   id="g40032"
                                   transform="translate(-1.90129,-3.042064)">
                                <g
                                   id="g40543"
                                   transform="translate(0.3802582,-2.0914191)">
                                <g
                                   id="g41372"
                                   transform="translate(1.9657652,-7.9304203)">
                                <g
                                   id="g43278"
                                   transform="translate(1.5210324,-0.38025789)">
                                <g
                                   id="g44210"
                                   transform="matrix(1.1578947,0,0,1.1578947,-18.904476,-21.776183)">
                                <g
                                   id="g44833"
                                   transform="matrix(1.1196819,0,0,1.1196819,-12.538538,-14.547543)">
                                <g
                                   id="g47597"
                                   transform="translate(3.1109352,-1.2443743)">
                                <g
                                   id="g48754"
                                   transform="translate(-2.9035392,-6.6366609)">
                                <g
                                   id="g234"
                                   transform="matrix(0.04089637,0,0,0.04089637,104.63967,119.67231)">
                                <g
                                   id="g2138"
                                   transform="translate(-86.211222,-40.569988)">
                                <g
                                   id="g2696"
                                   transform="translate(-124306.44,-9412.2373)">
                                <g
                                   id="g3765"
                                   transform="translate(25.356243,-50.712489)">
                                <g
                                   id="g4557"
                                   transform="translate(46.61688,-35.859142)">
                                <g
                                   id="g5244"
                                   transform="translate(7.1718407,14.343658)">
                                <g
                                   id="g5807"
                                   transform="translate(-5.1984397,-21.113724)">
                                <g
                                   id="g6945"
                                   transform="translate(-10.142522,-243.41993)">
                                <g
                                   id="g11108"
                                   transform="translate(18.189368,-37.636113)">
                                <g
                                   id="g15049"
                                   transform="translate(-65.926228,141.99496)">
                                <g
                                   id="g19861"
                                   transform="matrix(0.07356842,0,0,0.07356842,115423.38,9039.2311)">
                                <g
                                   id="g20437"
                                   transform="translate(-478.38824,-785.88156)">
                                <g
                                   id="g21032"
                                   transform="translate(2047.1878,-1072.3367)">
                                <g
                                   id="g21869"
                                   transform="matrix(0.04321578,0,0,0.04321578,117368,10137.003)">
                                <g
                                   id="g25455"
                                   transform="translate(154741.46,-87178.414)">
                                <g
                                   id="g26278"
                                   transform="translate(-18012.371,-8233.4417)">
                                <g
                                   id="g27240"
                                   transform="translate(-0.00447131,5582.7624)">
                                <g
                                   id="g28306"
                                   transform="translate(-15790.441,-2255.7767)">
                                <g
                                   id="g33735"
                                   transform="translate(14662.549,-16918.328)">
                                <g
                                   id="g37868"
                                   transform="translate(-5075.4976,25941.433)">
                                <g
                                   id="g76752"
                                   transform="matrix(-1,0,0,1,9442.3174,-1595.0746)">
                                <g
                                   id="g82459"
                                   transform="translate(3383.6668,-1127.8885)">
                                <g
                                   id="g83208"
                                   transform="matrix(0.20332428,0,0,0.20332428,-15348.528,66747.475)">
                                <g
                                   id="g83934"
                                   transform="matrix(-1,0,0,1,240692.18,94139.78)">
                                <g
                                   id="g84550"
                                   transform="translate(-8.7627443e-5,55472.344)">
                                <g
                                   id="g9096"
                                   transform="translate(31379.925,-62759.843)">
                                <g
                                   id="g11527"
                                   transform="translate(61019.625,105397.54)">
                                <g
                                   id="g13422"
                                   transform="translate(-44377.907,44377.908)">
                                <g
                                   id="g1137"
                                   transform="translate(-3.3240812e-4,138680.92)">
                                <g
                                   id="g3632"
                                   transform="translate(177511.65,-22188.943)">
                                <g
                                   id="g5936"
                                   transform="translate(11767.473,-47069.909)">
                                <g
                                   id="g7318">
                                <g
                                   id="g11619"
                                   transform="translate(27457.436,-223581.94)" />
                                <g
                                   id="g11985"
                                   transform="translate(70604.821,-133364.68)">
                                <ellipse
                                   style="fill:#ffffff;stroke-width:388960;stroke-linecap:round;stroke-linejoin:bevel;stroke-dasharray:388960, 777918"
                                   id="path12839"
                                   cx="-140593.53"
                                   cy="-132003.06"
                                   rx="312425"
                                   ry="257623.73" />
                                <ellipse
                                   style="fill:#ffffff;stroke-width:205283;stroke-linecap:round;stroke-linejoin:bevel;stroke-dasharray:205283, 410567"
                                   id="path12839-8"
                                   cx="-145840.16"
                                   cy="-521514.06"
                                   rx="107870.56"
                                   ry="207838.89" />
                                <g
                                   id="g12707"
                                   transform="matrix(1.186974,0,0,1.186974,95904.637,-164033.62)">
                                <g
                                   id="g1055"
                                   transform="translate(107488.86,-168243.46)">
                                <g
                                   id="g1411"
                                   transform="translate(-142539.59,93468.584)">
                                <g
                                   id="g6084"
                                   transform="translate(-51720.16,-182205.61)">
                                <g
                                   id="g6831"
                                   transform="translate(-4673.4286,56081.154)">
                                <g
                                   id="g1117"
                                   transform="translate(56081.169,-130856.01)">
                                <g
                                   id="g1732"
                                   transform="translate(33354.657,98782.663)">
                                <path
                                   style="fill:#704d46;stroke-width:782.976"
                                   d="m -438052.16,389891.13 c 249130.5,-216069.5 511708.258,-400713.942 832634.75,-494420.14 82489.52,-42159.99 165196.4,18248.924 253945.93,-30543.07 246581.29,-67985.83 -39710.8,55043.125 -37358.17,96267.956 C 559415.38,51218.184 485166.89,127024.79 391035.26,172618.84 -64734.336,404552.09 -427276.72,776906.12 -755714.44,1161279.8 c -65195.87,78466.4 -147204.28,181575.9 -262635.66,160264.6 -283837.2,-171653 220761.59,-471232.61 330718.2,-656453.36 64678.42,-107467.1 154855.79,-194399.31 249579.74,-275199.91 z"
                                   id="path1740"
                                   sodipodi:nodetypes="ccccccccc" />
                                <path
                                   style="fill:#4e342d;stroke-width:782.976"
                                   d="m -456045.67,406084.3 c 253724.55,-221538.43 529867.815,-435739.252 857386.73,-532959.8 138922.22,5312.34 197927.2,16638.8 186421.44,52866.54 C 614440.59,-75813.58 537914.68,85518.539 429524.9,149679.29 209195.22,266051.42 -634.7893,403438.5 -186300.89,570277.75 c -236513.1,204668.46 -440766.82,442349.45 -646307.12,676999.75 -60688.79,69973 -185239.29,114287.7 -254576.79,31904.4 -90524.3,-291071.96 258133.33,-377764.41 399515.06,-613220.5 60551.2,-100372.17 143215.94,-183897.25 231624.07,-259877.1 z m 113426.37,-28614.2 c -236049.73,251672.57 -463351.38,511748.22 -685640.4,775620 -41666.5,69553.4 -32780.1,104385.6 3930,34780.1 C -876127.76,956675.58 -649532.86,792094.01 -484327.74,574427.44 -381862.6,445356.61 -264132.93,323483.43 -112785.52,252617.15 -20603.301,195202.3 44476.22,101007.45 147245.87,58509.283 265297.05,-894.35711 560038.1,-91438.146 508858.85,-104146.47 379850.21,-98708.002 166117.35,-23960.671 -17489.862,129732.71 -210692.32,297676.19 -203856.73,240264.61 -342619.3,377470.1 Z"
                                   id="path1736"
                                   sodipodi:nodetypes="cccccccccccccccccc" />
                                <path
                                   style="fill:#210a0d;stroke-width:782.976"
                                   d="m -483613.94,431436.81 c -26154.22,24430.1 -26967.54,23501.28 0,0 z m -8118.9,18155.6 c 52089.05,-46580.33 2724.15,36301.49 27846.04,1239.68 -187355.21,195453.91 -180339.59,137530.6 -27846.04,-1239.68 z m -373149.41,426338.64 c -18267.88,18074.29 34029.06,-30773.58 2327.14,-2312.92 z m -122760.32,111144.21 c -21947.33,21122.04 -5132.61,3395.73 0,0 z m 108482.25,-77626.47 c 104488.12,-76906.3 -231999.28,261307.31 -151048.78,169732.81 1993.8,-82940.2 139561.93,-160275.62 87632.19,-106202.43 20092.24,-22188.52 40944.62,-43730.46 63416.59,-63530.38 z m -105903.16,138054.81 c 53005.74,2753.4 -61819.52,112188.3 -83818.72,108794.6 21710.8,-39749.7 53773.5,-75074.1 83818.72,-108794.6 z M -86000.726,280269.31 C -46552.507,250627.05 12174.402,235362.36 29583.827,213765.64 -11692.395,274441.87 -169165.05,386652.66 -86000.726,280269.31 Z M 123774.54,127221 C 197568.94,79047.292 260677.43,2494.8373 353410.73,-6292.0146 267545.81,49145.246 144519.84,166571.34 187137.18,123806.29 159969.01,160619.07 81005.913,214378.42 123774.54,127221 Z M -977979.74,1182842.3 c 15908.5,9450.2 10896.09,-9365.9 67255.36,-37028.7 -155562.22,37551.4 -172320.02,169377.8 -67255.36,37028.7 z m 796639.79,-715904.24 c 55097.42,-37961.69 111299.989,-49558.08 38715.33,5820.6 -232766.68,194181.32 -256548.63,243421.87 -38715.33,-5820.6 z m -310795.58,321679.67 c 41804.89,-27868.48 -38994.12,47015.7 15880.28,12537.12 -391509.85,520470.05 -285121.85,219782.45 -15880.28,-12537.12 z M 127710.13,235489.11 C 218254.59,169938.36 334145.24,148153.32 415528.98,68083.36 458438.55,39856.413 535119.64,-19861.192 565478.93,-27417.63 528155.68,54017.792 94697.507,347524.9 172913.95,244016.55 149089.1,277223.75 60777.98,297939.29 127710.13,235489.11 Z M -1030900.1,1316974.1 c 5153.2,2831.1 -6530.8,-1666.6 0,0 z m 6000.3,1960.8 c 5153.3,2831 -6530.8,-1666.4 0,0 z m 11368.7,2645.4 c 15688.09,3850.2 -21115.1,-3677.9 0,0 z m 794015.82,-722614.21 c -51065.79,46714.21 -29587.6,25895.1 0,0 z m -775241.93,724679.31 c 25165.3,3089.6 -40978.39,-2878.8 0,0 z m 550795.5,-507756.7 c -6923.39,7734.45 -2356.43,625.06 0,0 z M -565101.1,944564.55 c -4326.15,5451.21 -1863.79,57.32 0,0 z m -5875.89,6328.86 c -2343.27,3835.98 -1499.85,-490.65 0,0 z m -406951.95,372673.09 c 6701.94,1495 -14310.83,-468.8 0,0 z m 7764.05,-757.4 c 11003.3,-668.2 -11270.09,1654.3 0,0 z m 11186.23,-1712.7 c 5394.41,-372.7 -7298.62,1830.2 0,0 z m 283509.74,-253391.2 c -1791.39,3135 -1263.29,-889.3 0,0 z m -277344.77,252034.2 c 5394.43,-372.5 -7298.57,1830.1 0,0 z m 273556.58,-247541.8 c -3677.73,4973.6 -1708.43,-152.1 0,0 z m -5027.91,5602.2 c -1791.46,3134.9 -1263.24,-889.5 0,0 z m -3787.96,4492.6 c -3677.73,4973.6 -1708.43,-152.1 0,0 z m -4422.29,5031.6 c -2343.23,3836.1 -1499.92,-490.7 0,0 z M 727271.25,-166220.17 c 50091.67,24058.56 42551.72,32493.84 14128.86,42411.7 -15527.97,-10702.28 -34519.85,-28449.94 -14128.86,-42411.7 z M -810678.85,1223951.5 c -4326.15,5451.3 -1863.79,57.4 0,0 z m -6160.9,6619.6 c -3047.94,4322.6 -1614.05,-290.2 0,0 z m -5835.87,6364.5 c -6316.79,7260.1 -2172.73,408.7 0,0 z M 565183.67,27837.218 c -1791.39,3134.96 -1263.35,-889.424 0,0 z"
                                   id="path1734"
                                   sodipodi:nodetypes="ccccccccccccccccccccccccccccccccccccccccccccccccccccccccccccccccccccccccccccccccccc" />
                                </g>
                                </g>
                                </g>
                                </g>
                                </g>
                                </g>
                                </g>
                                </g>
                                </g>
                                </g>
                                </g>
                                </g>
                                </g>
                                </g>
                                </g>
                                </g>
                                </g>
                                </g>
                                </g>
                                </g>
                                </g>
                                </g>
                                </g>
                                </g>
                                </g>
                                </g>
                                </g>
                                </g>
                                </g>
                                </g>
                                </g>
                                </g>
                                </g>
                                </g>
                                </g>
                                </g>
                                </g>
                                </g>
                                </g>
                                </g>
                                </g>
                                </g>
                                </g>
                                </g>
                                </g>
                                </g>
                                </g>
                                </g>
                                </g>
                                </g>
                                </g>
                                </g>
                                </g>
                                </g>
                                </g>
                                </g>
                                </g>
                                </g>
                                </g>
                                </g>
                              </g>
                            </g>
                          </g>
                        </g>
                      </g>
                    </g>
                  </g>
                </g>
              </g>
            </g>
          </g>
        </g>
      </g>
    </g>
  </g>
</svg>
