<?xml version="1.0" encoding="UTF-8" standalone="no"?>
<!-- Created with Inkscape (http://www.inkscape.org/) -->

<svg
   width="64"
   height="64"
   viewBox="0 0 16.933333 16.933334"
   version="1.1"
   id="svg5"
   inkscape:version="1.2 (dc2aedaf03, 2022-05-15)"
   sodipodi:docname="celeri.svg"
   xmlns:inkscape="http://www.inkscape.org/namespaces/inkscape"
   xmlns:sodipodi="http://sodipodi.sourceforge.net/DTD/sodipodi-0.dtd"
   xmlns="http://www.w3.org/2000/svg"
   xmlns:svg="http://www.w3.org/2000/svg">
  <sodipodi:namedview
     id="namedview7"
     pagecolor="#ffffff"
     bordercolor="#666666"
     borderopacity="1.0"
     inkscape:pageshadow="2"
     inkscape:pageopacity="0.0"
     inkscape:pagecheckerboard="0"
     inkscape:document-units="mm"
     showgrid="false"
     units="px"
     inkscape:zoom="11.313709"
     inkscape:cx="47.552929"
     inkscape:cy="29.610095"
     inkscape:window-width="1920"
     inkscape:window-height="1017"
     inkscape:window-x="1912"
     inkscape:window-y="-8"
     inkscape:window-maximized="1"
     inkscape:current-layer="g1418"
     inkscape:showpageshadow="2"
     inkscape:deskcolor="#d1d1d1" />
  <defs
     id="defs2" />
  <g
     inkscape:label="Calque 1"
     inkscape:groupmode="layer"
     id="layer1">
    <g
       id="g4128"
       transform="translate(-0.63104184,0.12620835)">
      <g
         id="g5578"
         transform="translate(0.08924235,0.08924306)">
        <g
           id="g7501"
           transform="translate(-0.06310417,0.94656242)">
          <g
             id="g9467"
             transform="translate(-0.08924275,-0.80318511)">
            <g
               id="g10302"
               transform="translate(0.31234979,-0.04462139)">
              <g
                 id="g11479"
                 transform="translate(-0.12620833,0.06310418)">
                <g
                   id="g11873"
                   transform="translate(-0.23575769,0.66462456)">
                  <g
                     id="g12382"
                     transform="translate(-121.98459,-82.267525)">
                    <g
                       id="g13305"
                       transform="matrix(0.13266609,0,0,0.13266609,114.63867,78.215696)">
                      <g
                         id="g17429"
                         transform="translate(0.90513437,5.6640979)">
                        <g
                           id="g18595"
                           transform="translate(-3.3634362,-8.7449387)">
                          <g
                             id="g21002"
                             transform="translate(1.7082278,-2.8204445)">
                            <g
                               id="g23814"
                               transform="translate(8.7253043,-1.1218249)">
                              <g
                                 id="g24838"
                                 transform="translate(11.143454,-0.85716864)">
                                <g
                                   id="g25315"
                                   transform="translate(-3.490122,2.4929446)">
                                <g
                                   id="g27220"
                                   transform="translate(2.4678888,1.2339445)">
                                <g
                                   id="g29753"
                                   transform="translate(1.4759287,-2.3737724)">
                                <g
                                   id="g30615"
                                   transform="translate(0.92006037,1.3687834)">
                                <g
                                   id="g31433"
                                   transform="translate(-2.4678886,-1.410222)">
                                <g
                                   id="g31731"
                                   transform="translate(1.0576664,-0.70511063)">
                                <g
                                   id="g33243"
                                   transform="matrix(1.0772948,0,0,1.0772948,-7.3729128,-3.1743014)">
                                <g
                                   id="g35254"
                                   transform="translate(-2.2135012,-0.92031205)">
                                <g
                                   id="g36749"
                                   transform="translate(-0.98178042,-2.7817105)">
                                <g
                                   id="g37297"
                                   transform="translate(-6.7755742,-3.5033798)">
                                <g
                                   id="g38955"
                                   transform="matrix(1.2171094,0,0,1.2171094,-23.105122,-18.212482)">
                                <g
                                   id="g39618"
                                   transform="translate(-0.26888273,-0.26888316)">
                                <g
                                   id="g40032"
                                   transform="translate(-1.90129,-3.042064)">
                                <g
                                   id="g40543"
                                   transform="translate(0.3802582,-2.0914191)">
                                <g
                                   id="g41372"
                                   transform="translate(1.9657652,-7.9304203)">
                                <g
                                   id="g43278"
                                   transform="translate(1.5210324,-0.38025789)">
                                <g
                                   id="g44210"
                                   transform="matrix(1.1578947,0,0,1.1578947,-18.904476,-21.776183)">
                                <g
                                   id="g44833"
                                   transform="matrix(1.1196819,0,0,1.1196819,-12.538538,-14.547543)">
                                <g
                                   id="g47597"
                                   transform="translate(3.1109352,-1.2443743)">
                                <g
                                   id="g48754"
                                   transform="translate(-2.9035392,-6.6366609)">
                                <g
                                   id="g234"
                                   transform="matrix(0.04089637,0,0,0.04089637,104.63967,119.67231)">
                                <g
                                   id="g2138"
                                   transform="translate(-86.211222,-40.569988)">
                                <g
                                   id="g2696"
                                   transform="translate(-124306.44,-9412.2373)">
                                <g
                                   id="g3765"
                                   transform="translate(25.356243,-50.712489)">
                                <g
                                   id="g4557"
                                   transform="translate(46.61688,-35.859142)">
                                <g
                                   id="g5244"
                                   transform="translate(7.1718407,14.343658)">
                                <g
                                   id="g5807"
                                   transform="translate(-5.1984397,-21.113724)">
                                <g
                                   id="g6945"
                                   transform="translate(-10.142522,-243.41993)">
                                <g
                                   id="g11108"
                                   transform="translate(18.189368,-37.636113)">
                                <g
                                   id="g15049"
                                   transform="translate(-65.926228,141.99496)">
                                <g
                                   id="g19861"
                                   transform="matrix(0.07356842,0,0,0.07356842,115423.38,9039.2311)">
                                <g
                                   id="g20437"
                                   transform="translate(-478.38824,-785.88156)">
                                <g
                                   id="g21032"
                                   transform="translate(2047.1878,-1072.3367)">
                                <g
                                   id="g21869"
                                   transform="matrix(0.04321578,0,0,0.04321578,117368,10137.003)">
                                <g
                                   id="g25455"
                                   transform="translate(154741.46,-87178.414)">
                                <g
                                   id="g26278"
                                   transform="translate(-18012.371,-8233.4417)">
                                <g
                                   id="g27240"
                                   transform="translate(-0.00447131,5582.7624)">
                                <g
                                   id="g28306"
                                   transform="translate(-15790.441,-2255.7767)">
                                <g
                                   id="g33735"
                                   transform="translate(14662.549,-16918.328)">
                                <g
                                   id="g37868"
                                   transform="translate(-5075.4976,25941.433)">
                                <g
                                   id="g76752"
                                   transform="matrix(-1,0,0,1,9442.3174,-1595.0746)">
                                <g
                                   id="g82459"
                                   transform="translate(3383.6668,-1127.8885)">
                                <g
                                   id="g83208"
                                   transform="matrix(0.20332428,0,0,0.20332428,-15348.528,66747.475)">
                                <g
                                   id="g83934"
                                   transform="matrix(-1,0,0,1,240692.18,94139.78)">
                                <g
                                   id="g84550"
                                   transform="translate(-8.7627443e-5,55472.344)">
                                <g
                                   id="g9096"
                                   transform="translate(31379.925,-62759.843)">
                                <g
                                   id="g11527"
                                   transform="translate(61019.625,105397.54)">
                                <g
                                   id="g13422"
                                   transform="translate(-44377.907,44377.908)">
                                <g
                                   id="g1137"
                                   transform="translate(-3.3240812e-4,138680.92)">
                                <g
                                   id="g3632"
                                   transform="translate(177511.65,-22188.943)">
                                <g
                                   id="g5936"
                                   transform="translate(11767.473,-47069.909)">
                                <g
                                   id="g7318">
                                <g
                                   id="g11619"
                                   transform="translate(27457.436,-223581.94)" />
                                <g
                                   id="g11985"
                                   transform="translate(70604.821,-133364.68)">
                                <g
                                   id="g12707"
                                   transform="matrix(1.186974,0,0,1.186974,95904.637,-164033.62)">
                                <g
                                   id="g4721"
                                   transform="matrix(-1,0,0,1,-561251.4,-59483.037)">
                                <g
                                   id="g7072">
                                <g
                                   id="g10426"
                                   transform="translate(66928.962,-211126.69)">
                                <g
                                   id="g11693"
                                   transform="translate(967399.8,-74774.864)">
                                <g
                                   id="g12809"
                                   transform="translate(37387.427,-102815.44)">
                                <g
                                   id="g1418"
                                   transform="translate(37387.422,-37387.43)">
                                <path
                                   style="fill:#d0fdc4;stroke-width:3222.72"
                                   d="M -1442534.2,572706.41 -1625817.6,389444.25 -1809100.9,206182.1 c -50182,-212370.404 -393267.5,-62182.31 -58525.5,112266.62 l 140836,140836 140836,140836.09 c 239317,209755.65 150988.8,-38724.51 143420.2,-27414.4 z"
                                   id="path1428"
                                   sodipodi:nodetypes="ccccccc" />
                                <path
                                   style="fill:#88d64e;stroke-width:3222.72"
                                   d="m -673907.2,1454131.9 83753.15,-83799.7 -369792.54,-369803 -369792.51,-369803.05 V 483711.37 336696.59 l 18792.3,-3697.17 c -2647,-219986.79 -248785.2,-102779.9 -203512.7,-8373.52 16201.2,8092.02 22365.1,9356.84 45337.8,9303.47 l 26587.5,-61.88 V 511261.7 688655.91 l -42812.7,-42724.56 -42812.7,-42724.53 -133438.9,207.55 c -532985.3,-93845.08 -109253.1,113505.89 -106510.3,124814.06 l 7265.8,-13701.16 89160.7,901.4 89160.7,901.36 410791.3,410800.77 c 225935.21,225940.4 411528.96,410800.7 412430.6,410800.7 901.64,0 39328.26,-37709.8 85392.5,-83799.6 z"
                                   id="path1426"
                                   sodipodi:nodetypes="scccccccsccccccccccsss" />
                                <path
                                   style="fill:#6fb347;stroke-width:3222.72"
                                   d="m -843804.44,1285652.5 c 9245.05,-9361.3 16809.18,-18428.1 16809.18,-20148.5 0,-1720.3 -133805.54,-136927.6 -297345.64,-300460.48 l -297345.7,-297332.63 -20052.1,20231.9 -20052,20231.93 297262.2,297249.18 c 163494.3,163487.1 298759.11,297249.3 300588.58,297249.3 1829.47,0 10890.43,-7659.3 20135.48,-17020.7 z"
                                   id="path1424"
                                   sodipodi:nodetypes="ssscccsss" />
                                <path
                                   style="fill:#2f7c44;stroke-width:3222.72"
                                   d="m -1898131.2,898461.18 c 16221.8,-5075.43 27778.3,-12776.91 24538,-16352.68 -1318.1,-1454.57 -706.5,-1677.36 1359,-495.07 5701.8,3263.61 21272.9,-11544.45 31072.9,-29550.32 5571.2,-10236.09 10080.6,-25486.22 12412.9,-41978.63 l 3663.1,-25902.27 25781.9,-23393.12 c 34165.2,-30999.8 42333.7,-47821.13 40298.1,-82985.68 -1959.8,-33853.35 -12512.9,-52883.53 -43258.4,-78006.55 l -23127.8,-18898.46 -2314.6,-20198.93 c -5366.6,-46833.49 -27453.2,-78811.39 -63712.4,-92245.22 -23210.9,-8599.5 -39528.4,-8710.46 -68361.9,-464.84 -12396.1,3544.99 -29073.7,6445.43 -37061.2,6445.43 -7987.5,0 -24665.1,-2900.44 -37061.2,-6445.43 -41137.7,-11764.31 -70839.7,-6345.89 -97726.8,17827.94 -20169.9,18134.49 -28876.5,35827.4 -34300.6,69703.02 -3772.7,23562.12 -5376.7,27379.82 -14591.9,34730.55 -43910.3,35026.13 -56299.4,55319.87 -56124.7,91934.29 180.8,37900.99 11423.4,55991.04 58514.1,94153.55 5440.9,4409.32 8501.8,12666.38 12329,33258.67 6409,34483.65 13400.3,50051.89 29182.9,64984.67 21612.3,20448.72 37811.7,26883.2 67268.1,26719.39 20829.6,-116.02 30025.1,-1910.04 47874.1,-9340.92 l 22092.4,-9197.54 29994.4,10146.6 c 32042.4,10839.38 49910.8,12231.4 71260.6,5551.55 z m 585146.8,-566222.64 c 18725.7,-2775.57 45487.4,-17009.18 56538.1,-30070.66 12854.1,-15193.08 22653.7,-39755.35 26156,-65558.96 2734.3,-20146.18 4496.2,-24495.55 12297.3,-30357.68 5008.2,-3763.35 17882.3,-15659.95 28609.2,-26436.89 22290.9,-22394.85 29055.7,-39284.52 28500.5,-71157.91 -555.7,-31907.913 -12752.9,-52150.934 -50487,-83790.647 -14925.1,-12514.655 -15506.3,-13672.213 -19913,-39663.382 -6853.8,-40423.905 -20914.9,-63507.696 -48503.7,-79627.236 -24798.3,-14489.075 -44592.5,-15252.875 -96182.3,-3711.355 -22936,5131.182 -44726.9,3658.873 -64953.6,-4388.62 -5317.5,-2115.63 -19428.3,-3898.52 -31357.4,-3961.96 -18000.9,-95.73 -25229,1627.19 -42503.4,10131.361 -32717.2,16106.617 -49788.1,43966.493 -54995.8,89753.5762 -2205.3,19390.0578 -2837.4,20500.9188 -17996.8,31628.9868 -45196.6,33177.297 -61243.3,74797.716 -46178.3,119772.216 6819.6,20358.99 16835.1,33149.01 41326.4,52775.17 l 20237.3,16217.14 3591.1,25393.85 c 1975.2,13966.61 6667.8,31938.97 10428,39938.49 8391.1,17851.24 30768.9,38991.91 50523.4,47730.25 20575.3,9101.47 58653.2,6792.33 87460.1,-5303.82 l 20534.6,-8622.57 21360.7,8557.99 c 26217.7,10503.86 45658.5,13694.9 65508.6,10752.66 z m -580350.9,-3859.05 c 40283.7,-15063.69 58586,-41016.2 67047.6,-95072.93 2573.1,-16438.69 4927.4,-21714.07 12193.3,-27322.31 41452.9,-31995.72 56781.7,-56984.49 56956.8,-92850.31 156,-31937.087 -13398.4,-57586.045 -43123.5,-81602.894 -12368,-9992.831 -23142.1,-21381.381 -23942.6,-25307.8885 -800.5,-3926.5039 -3148.5,-16893.6095 -5217.8,-28815.7835 -11258.6,-64865.597 -65524.8,-97444.204 -130367.5,-78265.934 -24288.1,7183.61 -51017.4,7174.583 -72692,-24.55 -27281.3,-9061.42 -54156.5,-7459.19 -78858,4701.29 -33744.8,16612.529 -49550.2,42690.41 -54984.2,90720.5329 -1771.6,15659.5531 -3727.7,20474.9861 -9981.6,24572.6871 -4278,2803.039 -7088.7,6893.108 -6246,9089.045 968.1,2522.814 -553.8,3447.147 -4134,2510.9 -8256.8,-2159.211 -37042,30559.061 -43461.9,49400.313 -6518.4,19130.513 -6639.7,47756.242 -278.7,65785.212 6638.5,18815.6 17588.9,32440.83 41420.9,51538.61 l 20063.8,16078.05 3820.7,26213.91 c 6377.2,43754.34 24115.3,69854.52 58229.3,85680.06 15230,7065.26 20320.7,7812.19 43506.7,6383.49 18356.1,-1131.08 32438.1,-4212.86 46792.9,-10240.54 l 20534.6,-8622.57 21360.8,8696.44 c 25578,10413.37 63219.7,13538.66 81360.4,6755.17 z"
                                   id="path1422"
                                   sodipodi:nodetypes="ssssscssscsssssssssssssscssssssssssssssssssscsssscssssssssssssssssssscsssscss" />
                                <path
                                   style="fill:#296d3b;stroke-width:3222.72"
                                   d="m -1901771.4,898749.52 c 7089.9,-2339.86 16937.7,-6387.53 21883.9,-8994.77 l 8993.1,-4740.49 -18661.2,-7602.74 c -120516.2,-49099.29 -202286.7,-137994.91 -280602.5,-249897.61 -21624,-30897.79 -16364.8,-33211.1 -33650.2,-17114.11 -21170.2,19714.61 -31443.1,43270.52 -31482.9,72191.25 -45.7,33090.89 11323.5,54507.07 42899.1,80809.95 l 23852.2,19869.28 2268.3,20048.84 c 9100.3,80436.32 70113.8,117539.33 144453.9,87844.25 l 24976.1,-9976.66 24769.7,9618.1 c 28981.2,11253.44 52292.3,13887.82 70300.5,7944.71 z m 601543.8,-569255.39 c 4710.2,-1422.95 12981.1,-5196.47 18379.9,-8385.6 l 9816,-5798.41 -28524.4,-11943.2 c -117713.8,-49286.82 -236581.5,-176781.79 -276054,-252230.281 l -13232.4,-25292.632 -17664,17245.53 c -23156.7,22608.247 -32952.2,46882.562 -30692,76058.053 2400.9,30990.47 14117.5,51649.09 42400.4,74759.89 l 23533.3,19229.77 3680.6,24746.06 c 6735.5,45286.75 24284.2,71137.68 58808.8,86631.4 17383.6,7801.33 22690.6,8711.88 42739,7333.14 14378.9,-988.86 30961.3,-4850.29 44594.4,-10384.34 l 21703.6,-8810.1 27611.3,9990.94 c 28120.2,10175.08 53880.2,12595.53 72899.5,6849.78 z m -597775,210.13 c 15770.3,-4005.39 37041.5,-18873.88 48600.3,-33971.5 5760.6,-7524.24 10473.8,-15071.72 10473.8,-16772.22 0,-1700.46 -10514.1,-5763.12 -23364.7,-9028.12 -25717.1,-6534.06 -81442,-20358.35 -103220.8,-39268.61 -113204.1,-98293.64 -138225.9,-113165.72 -201203.9,-173986.795 -12952.1,-12508.498 -19479.3,-26921.19 -20489.6,-26941.068 -5689.1,-111.925 -28730.1,24272.169 -36938.3,39091.505 -8500.8,15347.688 -9565.5,20319.039 -9565.5,44663.068 0,24354.48 1062.9,29312.13 9582,44693.27 6265.8,11312.97 17481.5,23755.11 32407.8,35951.87 l 22825.9,18651.69 3863.4,24850.45 c 6703.8,43120.63 23645,69759.77 54332.7,85435.39 23082,11790.47 61869,11161.82 92314.5,-1496.24 l 21963.4,-9131.51 23154.7,9162 c 24354.2,9636.6 55858.1,13025.77 75264.3,8096.88 z"
                                   id="path1420"
                                   sodipodi:nodetypes="sscssssscsscsssscsscssscsssscssssssssssssscssscsss" />
                                </g>
                                </g>
                                </g>
                                </g>
                                </g>
                                </g>
                                </g>
                                </g>
                                </g>
                                </g>
                                </g>
                                </g>
                                </g>
                                </g>
                                </g>
                                </g>
                                </g>
                                </g>
                                </g>
                                </g>
                                </g>
                                </g>
                                </g>
                                </g>
                                </g>
                                </g>
                                </g>
                                </g>
                                </g>
                                </g>
                                </g>
                                </g>
                                </g>
                                </g>
                                </g>
                                </g>
                                </g>
                                </g>
                                </g>
                                </g>
                                </g>
                                </g>
                                </g>
                                </g>
                                </g>
                                </g>
                                </g>
                                </g>
                                </g>
                                </g>
                                </g>
                                </g>
                                </g>
                                </g>
                                </g>
                                </g>
                                </g>
                                </g>
                                </g>
                                </g>
                              </g>
                            </g>
                          </g>
                        </g>
                      </g>
                    </g>
                  </g>
                </g>
              </g>
            </g>
          </g>
        </g>
      </g>
    </g>
  </g>
</svg>
