<?xml version="1.0" encoding="UTF-8" standalone="no"?>
<!-- Created with Inkscape (http://www.inkscape.org/) -->

<svg
   width="64"
   height="64"
   viewBox="0 0 16.933333 16.933334"
   version="1.1"
   id="svg5"
   inkscape:version="1.2 (dc2aedaf03, 2022-05-15)"
   sodipodi:docname="chair_de_tourteau.svg"
   xmlns:inkscape="http://www.inkscape.org/namespaces/inkscape"
   xmlns:sodipodi="http://sodipodi.sourceforge.net/DTD/sodipodi-0.dtd"
   xmlns="http://www.w3.org/2000/svg"
   xmlns:svg="http://www.w3.org/2000/svg">
  <sodipodi:namedview
     id="namedview7"
     pagecolor="#ffffff"
     bordercolor="#666666"
     borderopacity="1.0"
     inkscape:pageshadow="2"
     inkscape:pageopacity="0.0"
     inkscape:pagecheckerboard="0"
     inkscape:document-units="mm"
     showgrid="false"
     units="px"
     inkscape:zoom="11.313709"
     inkscape:cx="20.019959"
     inkscape:cy="28.107493"
     inkscape:window-width="1920"
     inkscape:window-height="1017"
     inkscape:window-x="1912"
     inkscape:window-y="-8"
     inkscape:window-maximized="1"
     inkscape:current-layer="g4008"
     inkscape:showpageshadow="2"
     inkscape:deskcolor="#d1d1d1" />
  <defs
     id="defs2" />
  <g
     inkscape:label="Calque 1"
     inkscape:groupmode="layer"
     id="layer1">
    <g
       id="g4128"
       transform="translate(-0.63104184,0.12620835)">
      <g
         id="g5578"
         transform="translate(0.08924235,0.08924306)">
        <g
           id="g7501"
           transform="translate(-0.06310417,0.94656242)">
          <g
             id="g9467"
             transform="translate(-0.08924275,-0.80318511)">
            <g
               id="g10302"
               transform="translate(0.31234979,-0.04462139)">
              <g
                 id="g11479"
                 transform="translate(-0.12620833,0.06310418)">
                <g
                   id="g11873"
                   transform="translate(-0.23575769,0.66462456)">
                  <g
                     id="g12382"
                     transform="translate(-121.98459,-82.267525)">
                    <g
                       id="g13305"
                       transform="matrix(0.13266609,0,0,0.13266609,114.63867,78.215696)">
                      <g
                         id="g17429"
                         transform="translate(0.90513437,5.6640979)">
                        <g
                           id="g18595"
                           transform="translate(-3.3634362,-8.7449387)">
                          <g
                             id="g21002"
                             transform="translate(1.7082278,-2.8204445)">
                            <g
                               id="g23814"
                               transform="translate(8.7253043,-1.1218249)">
                              <g
                                 id="g24838"
                                 transform="translate(11.143454,-0.85716864)">
                                <g
                                   id="g25315"
                                   transform="translate(-3.490122,2.4929446)">
                                <g
                                   id="g27220"
                                   transform="translate(2.4678888,1.2339445)">
                                <g
                                   id="g29753"
                                   transform="translate(1.4759287,-2.3737724)">
                                <g
                                   id="g30615"
                                   transform="translate(0.92006037,1.3687834)">
                                <g
                                   id="g31433"
                                   transform="translate(-2.4678886,-1.410222)">
                                <g
                                   id="g31731"
                                   transform="translate(1.0576664,-0.70511063)">
                                <g
                                   id="g33243"
                                   transform="matrix(1.0772948,0,0,1.0772948,-7.3729128,-3.1743014)">
                                <g
                                   id="g35254"
                                   transform="translate(-2.2135012,-0.92031205)">
                                <g
                                   id="g36749"
                                   transform="translate(-0.98178042,-2.7817105)">
                                <g
                                   id="g37297"
                                   transform="translate(-6.7755742,-3.5033798)">
                                <g
                                   id="g38955"
                                   transform="matrix(1.2171094,0,0,1.2171094,-23.105122,-18.212482)">
                                <g
                                   id="g39618"
                                   transform="translate(-0.26888273,-0.26888316)">
                                <g
                                   id="g40032"
                                   transform="translate(-1.90129,-3.042064)">
                                <g
                                   id="g40543"
                                   transform="translate(0.3802582,-2.0914191)">
                                <g
                                   id="g41372"
                                   transform="translate(1.9657652,-7.9304203)">
                                <g
                                   id="g43278"
                                   transform="translate(1.5210324,-0.38025789)">
                                <g
                                   id="g44210"
                                   transform="matrix(1.1578947,0,0,1.1578947,-18.904476,-21.776183)">
                                <g
                                   id="g44833"
                                   transform="matrix(1.1196819,0,0,1.1196819,-12.538538,-14.547543)">
                                <g
                                   id="g47597"
                                   transform="translate(3.1109352,-1.2443743)">
                                <g
                                   id="g48754"
                                   transform="translate(-2.9035392,-6.6366609)">
                                <g
                                   id="g234"
                                   transform="matrix(0.04089637,0,0,0.04089637,104.63967,119.67231)">
                                <g
                                   id="g2138"
                                   transform="translate(-86.211222,-40.569988)">
                                <g
                                   id="g2696"
                                   transform="translate(-124306.44,-9412.2373)">
                                <g
                                   id="g3765"
                                   transform="translate(25.356243,-50.712489)">
                                <g
                                   id="g4557"
                                   transform="translate(46.61688,-35.859142)">
                                <g
                                   id="g5244"
                                   transform="translate(7.1718407,14.343658)">
                                <g
                                   id="g5807"
                                   transform="translate(-5.1984397,-21.113724)">
                                <g
                                   id="g6945"
                                   transform="translate(-10.142522,-243.41993)">
                                <g
                                   id="g11108"
                                   transform="translate(18.189368,-37.636113)">
                                <g
                                   id="g15049"
                                   transform="translate(-65.926228,141.99496)">
                                <g
                                   id="g19861"
                                   transform="matrix(0.07356842,0,0,0.07356842,115423.38,9039.2311)">
                                <g
                                   id="g20437"
                                   transform="translate(-478.38824,-785.88156)">
                                <g
                                   id="g21032"
                                   transform="translate(2047.1878,-1072.3367)">
                                <g
                                   id="g21869"
                                   transform="matrix(0.04321578,0,0,0.04321578,117368,10137.003)">
                                <g
                                   id="g25455"
                                   transform="translate(154741.46,-87178.414)">
                                <g
                                   id="g26278"
                                   transform="translate(-18012.371,-8233.4417)">
                                <g
                                   id="g27240"
                                   transform="translate(-0.00447131,5582.7624)">
                                <g
                                   id="g28306"
                                   transform="translate(-15790.441,-2255.7767)">
                                <g
                                   id="g33735"
                                   transform="translate(14662.549,-16918.328)">
                                <g
                                   id="g37868"
                                   transform="translate(-5075.4976,25941.433)">
                                <g
                                   id="g76752"
                                   transform="matrix(-1,0,0,1,9442.3174,-1595.0746)">
                                <g
                                   id="g82459"
                                   transform="translate(3383.6668,-1127.8885)">
                                <g
                                   id="g83208"
                                   transform="matrix(0.20332428,0,0,0.20332428,-15348.528,66747.475)">
                                <g
                                   id="g83934"
                                   transform="matrix(-1,0,0,1,240692.18,94139.78)">
                                <g
                                   id="g84550"
                                   transform="translate(-8.7627443e-5,55472.344)">
                                <g
                                   id="g1274"
                                   transform="translate(-66682.337,-43147.393)">
                                <g
                                   id="g2352"
                                   transform="translate(-74780.623,-22188.943)">
                                <g
                                   id="g4123"
                                   transform="translate(-47069.882,-15689.961)">
                                <g
                                   id="g5928">
                                <g
                                   id="g12050"
                                   transform="translate(78161.555,35375.784)">
                                <g
                                   id="g4008">
                                <ellipse
                                   style="fill:#ffe6d5;stroke-width:15170.5;stroke-linecap:round;stroke-linejoin:round"
                                   id="path4070"
                                   cx="108099.75"
                                   cy="176961.27"
                                   rx="1055362.1"
                                   ry="564431.5" />
                                <path
                                   style="fill:#fd9798;stroke-width:3168.61"
                                   d="m 69233.257,968395.27 c -153306.659,-7731.91 -310312.887,-40835.91 -438852.277,-92529.92 -38808.61,-15607.46 -141322.22,-65416.12 -157778.99,-76660.62 -6612.64,-4518.28 -12721.14,-8215.03 -13574.42,-8215.03 -3971.66,0 -80109.96,-54035.68 -107062.4,-75982.63 -57528.08,-46844.3 -110217.8,-103013.97 -160564.13,-171168.84 -73665.4,-99722.42 -138532.4,-240322.23 -175423.92,-380233.02 -14810.59,-56169.04 -18897.62,-84808.319 -18765.52,-131497.259 201.7,-71300.505 13214.18,-122175.937 49126.51,-192072.491 113860.91,-221608.78 431045.21,-395724.52 821688.51,-451059.26 147323.816,-20868.46 340633.97,-23316.21 491134.32,-6218.88 326479.38,37089.13 610714.72,155476.73 776929.36,323600.82 77106.5,77992.25 126045.4,164563.52 145635.6,257624.727 8431.8,40053.8104 7555.2,111453.714 -1906.1,155261.823 -24762.3,114655.84 -79431.8,255536.17 -134427.9,346413.42 -7199.8,11897.08 -15942.2,26467.04 -19427.7,32377.66 -16240.5,27540.47 -72147.4,100055.76 -101152.1,131201.4 -34522.74,37071.11 -71664.35,70850.16 -121215.18,110241.12 -10854.54,8628.92 -51078.76,35649.61 -83403.44,56026.36 -29373.13,18516.17 -127919.71,67105.39 -166351.95,82021.27 -177741.16,68982.7 -383728.19,101000.57 -584608.273,90869.35 z M 324705.84,624898.34 C 681046,588212.22 978953.63,460802.06 1121669.1,284050.39 c 41957.7,-51964.23 43537.7,-67471.94 12270.3,-120436.15 -8742.1,-14808.27 -20979.9,-42185.27 -27195.2,-60837.79 -12682.2,-38060.285 -20433.1,-51400.729 -35933.3,-61846.301 -13633.5,-9187.602 -27949.4,-13158.534 -56431.4,-15652.894 l -22863.64,-2002.339 6017.79,-8451.186 c 9750.95,-13693.9975 10776.65,-23528.4395 4033.95,-38676.987 -6978.28,-15677.894 -28921.98,-37136.44 -47851.34,-46793.472 -14725.73,-7512.517 -35462.87,-8440.349 -65391.4,-2925.83 -17533.65,3230.714 -21110.25,2965.533 -32051.39,-2376.456 -17221.8,-8408.473 -20886.77,-18373.018 -22522.37,-61235.195 -1625.85,-42606.98 -4641.64,-54774.95 -15739.46,-63504.46 -7390.91,-5813.7 -11135.13,-6174.89 -45086.96,-4349.33 -49199.55,2645.44 -54116.95,789.93 -90983.65,-34331.08 -41787.73,-39809.04 -70235.21,-51202.56 -127910.67,-51229.49 -22256.24,-9.51 -38773.15,2193.72 -63372.17,8456.76 -18298.71,4658.96 -37720.8,8472.67 -43160.16,8474.95 -9443.27,3.17 -9982.35,-693.9 -11940.77,-15457.17 -3981.61,-30014.99 -25106.94,-48529.78 -62185.68,-54501.15 -29795.76,-4798.44 -50618.24,487.84 -102449.39,26009.24 -36464.47,17954.92 -49012.51,22608.28 -64833.06,24042.83 l -19617.36,1778.86 v -9477.34 c 0,-15920.93 -12096.35,-29925.57 -36363.9,-42100.57 -19765.49,-9916.32 -24796.07,-11090.13 -47529.13,-11090.13 -31867.105,0 -48871.759,7789.01 -86670.566,39699.56 l -26391.91,22280.64 -18902.842,-16731.36 c -42806.887,-37889.43 -56235.703,-42150.1 -118429.852,-37575.04 -53664.53,3947.61 -66690.62,8691.9 -93623.6,34099.14 l -21527.34,20307.8 -61247.36,15488.73 c -138637.52,35059.83 -156488.23,47156.28 -175563.98,118970.13 -17815.19,67068.318 -33340.67,80174.729 -78679.91,66420.623 -42154.6,-12788.063 -82709.11,2820.125 -115350.31,44394.804 -19791.54,25208.246 -27769.62,44467.3019 -41240.99,99555.685 -6943.85,28395.39 -13827.94,52799.948 -15297.95,54232.318 -1470.04,1432.37 -13550.24,1021.53 -26844.92,-913 -42280.43,-6152.236 -94440.98,8820.33 -127385.66,36565.77 l -12139.02,10223.26 17506.54,34971.05 c 25200.07,50339.62 51715.24,86066.28 98651.52,132923.51 95115.83,94955.59 232936.04,173916.24 400838.61,229650.45 73441.85,24378.54 187305.03,51512.48 258241.59,61539.73 58821.543,8314.75 106850.201,13281.79 183779.295,19006.2 39280.796,2922.95 237334.005,-1109.14 282405.755,-5749.37 z"
                                   id="path4014" />
                                <path
                                   style="fill:#fd6768;stroke-width:3168.61"
                                   d="M 51805.91,966491.13 C -221635.69,945438.77 -441493.52,869015.42 -626429.04,730734.3 -665678.18,701386.68 -755397.27,612489.62 -786272.13,572355.71 -852158.55,486710.63 -903748.9,392353.68 -944289.47,283347.49 c -15169.43,-40787.82 -38622.7,-115223.6 -38317.62,-121612.08 75.73,-1585.73 4835.56,8523.87 10577.41,22465.75 15221.4,36959.35 24441.23,54005.04 49073.6,90727.66 88101.33,131343.8 247509.74,243263.71 455647.11,319907.72 265227.43,97666.69 596522.28,127719.99 900932.21,81727.8 C 678998,639491.52 893186.65,557236.79 1051023,439464.71 c 49125.4,-36655.76 117632.4,-104637.53 147086.7,-145959.13 18795.4,-26368.15 54119.1,-91167.37 64766.6,-118810.24 l 3661.4,-9505.83 -1833.3,9505.83 c -1008.3,5228.2 -7465.9,27329.24 -14350.3,49113.43 C 1208983.4,354717.9 1141439.9,484684.9 1064748.7,580949.89 932479.9,746977.63 737998.19,865020.78 497196.84,925432.71 379098.07,955061.17 295306.79,965411.55 162707.21,966750.8 c -52282.04,528.05 -102187.626,411.22 -110901.3,-259.83 z M 1154481.7,219829.95 c 0,-22142.46 -646.4,-24085.74 -18274.2,-54941.24 -19972.5,-47131.72 -43222.9,-97822.475 -72507.9,-129046.174 -18624.5,-4649.649 -64437.62,-21088.741 -64519.95,-21117.508 2931.55,-3239.364 6100.25,-11631.3919 7041.55,-18648.9092 2400.5,-17897.0298 -9938.58,-37942.9788 -34472.64,-56003.8888 -43180.13,-28315.138 -90125.98,-14508.077 -129315.19,-27804.73 -2792.43,-4430.063 -5112.87,-22237.29 -6475.85,-49696.08 -3309.39,-66670.56 -7634.6,-71611.44 -59826.02,-68341.65 -49019.26,3071.07 -59314.64,-716.59 -93427.59,-34371.8 -55511.56,-54544.22 -117983.43,-54299.39 -184124.2,-44968.45 -17427.35,4155.63 -38271.88,8490.73 -46321.16,9633.52 l -14635.1,2077.78 -1496.92,-15578.84 c -2174.42,-22629.6 -12111.24,-36578.55 -33561.2,-47111.95 -46217.11,-17410.69 -77051.32,-9672.87 -126014.45,14108.39 -66300.86,32202.12 -90079.11,36382.56 -90079.11,15836.67 -13914.86,-37411.43 -54901.12,-44652.14 -86512.643,-50804.3 -27566.482,413.54 -45273.142,8861.24 -81346.672,38809.85 -14770.9123,12262.99 -27906.3472,22296.33 -29189.855,22296.33 -1283.477,0 -11270.646,-7974.35 -22193.663,-17720.76 -33028.752,-29471.01 -43452.048,-34198 -78514.287,-35606.26 -53010.75,-2986.6 -94244.08,5917.8 -132385.76,36576.01 l -17869.94,18303.47 -65129.1,16288.32 c -132740.42,33197.42 -157749.65,50301.66 -174597.11,119410 -11208.19,45976.13 -23844.57,66978.87 -42391.48,70458.287 -5747.79,1078.278 -20897.29,-1018.929 -36413.43,-5040.907 -31103.95,-8062.52 -41321.63,-7099.39 -68943.38,6498.752 -75380.42,40105.815 -81237.36,145204.167 -114429.29,192959.798 -18078.49,-4199.51 -57384.07,-3312.84 -76297.59,1721.19 -23221.81,6180.69 -47081.53,18271.5 -63079.7,31965.34 l -13358.55,11434.43 -3450.34,-8950.63 c -15253.51,-39569.39 -21901.03,-117428.723 -13923.7,-163081.718 35625.01,-203876.542 253422.04,-381090.042 587700.26,-478190.332 192028.69,-55968.03 390902.543,-68773.41 593416.72,-61766.43 12582.7,917.82 34284.63,2404.68 48226.51,3304.13 37944.97,2447.98 106853.94,10784.31 144171.68,17441.3 241122.46,43013.09 420535.76,112963.32 567180.95,221134.36 44437.4,32778.72 115616.1,103296.73 140821.6,139514.56 84455.7,121354.288 96907.1,247552.995 36479.4,369728.49 -10343.5,20912.82 -21316,41223.37 -24383.5,45134.61 -5465.1,6968.28 -5577.2,6649.7 -5577.2,-15843.04 z"
                                   id="path4012"
                                   sodipodi:nodetypes="sssssssssssscsssssssscccsccssccscsccccssscccssssccsscssccssssssss" />
                                <path
                                   style="fill:#fa2424;stroke-width:3168.61"
                                   d="M 56558.823,966512.68 C -84100.874,954468.45 -157237.21,941560.74 -265159.95,909733.14 -390556.14,872752.44 -507255.99,816403.33 -603204.09,746506.93 -767558.01,626778.11 -882865.35,463471.04 -956754.98,245780.98 c -22313.96,-65740.27 -22416.11,-69310.37 -764.67,-26725.12 10632.62,20912.81 28891.98,51569.1 40576.36,68125.08 26411.49,37423.29 105361.11,117073.11 146495.29,147794.55 187860.18,140305.07 435115.6,226514.73 735117.176,256310.64 69384.605,6891.22 220106.254,9475.44 291511.984,4998.17 146907.88,-9211.37 272192.44,-29926.84 397353.52,-65701.35 282288.58,-80685.83 497696.32,-229225.1 586567.02,-404480.46 11290.6,-22265.33 20528.4,-39068.72 20528.4,-37340.85 0,7983.73 -34114.1,104027.83 -51177.2,144083.19 C 1114737.2,555188.76 972005.15,713685.38 769124.44,821806.95 633973.59,893833.13 474164,941141.88 300067.37,960662.82 c -42851.25,4804.75 -209077.654,8798.06 -243508.547,5849.86 z"
                                   id="path4010" />
                                <path
                                   style="fill:#ff9955;stroke:none;stroke-width:44377.9px;stroke-linecap:butt;stroke-linejoin:miter;stroke-opacity:1"
                                   d="m -425821.97,23025.471 c 0,0 36057.05,110944.779 141454.59,97076.679 105397.55,-13868.09 116492.02,-69340.484 116492.02,-69340.484 0,0 16641.68,95689.874 -55472.39,109557.964 -72114.1,13868.1 -127093.71,14807.91 -176124.83,-9707.66 -24037.29,-10960.12 -52086.41,-74191.374 -26349.39,-127586.499 z"
                                   id="path4126"
                                   sodipodi:nodetypes="cscscc" />
                                <path
                                   style="fill:#ff9955;stroke:none;stroke-width:26618.4px;stroke-linecap:butt;stroke-linejoin:miter;stroke-opacity:1"
                                   d="m 408357.05,100877.23 c 0,0 21627.46,66546.04 84846.2,58227.79 63218.74,-8318.25 69873.34,-41591.28 69873.34,-41591.28 0,0 9981.88,57395.96 -33273.02,65714.22 -43254.92,8318.25 -76232.37,8881.96 -105641.84,-5822.78 -14417.86,-6574.01 -31242.06,-44500.9 -15804.68,-76527.95 z"
                                   id="path4126-4"
                                   sodipodi:nodetypes="cscscc" />
                                <path
                                   style="fill:#ff9955;stroke:none;stroke-width:26618.4px;stroke-linecap:butt;stroke-linejoin:miter;stroke-opacity:1"
                                   d="m 71022.898,371529.05 c 0,0 21627.461,66546.03 84846.202,58227.78 63218.74,-8318.25 69873.34,-41591.27 69873.34,-41591.27 0,0 9981.88,57395.96 -33273.02,65714.21 -43254.92,8318.25 -76232.37,8881.96 -105641.835,-5822.78 C 72409.724,441482.98 55585.518,403556.1 71022.898,371529.05 Z"
                                   id="path4126-41"
                                   sodipodi:nodetypes="cscscc" />
                                <path
                                   style="fill:#ff9955;stroke:none;stroke-width:31354.3px;stroke-linecap:butt;stroke-linejoin:miter;stroke-opacity:1"
                                   d="m 108709.38,-173697.07 c 0,0 25475.35,78385.699 99941.77,68587.48 74466.42,-9798.2 82304.99,-48991.06 82304.99,-48991.06 0,0 11757.83,67607.672 -39192.85,77405.879 -50950.71,9798.215 -89795.39,10462.218 -124437.3,-6858.743 -16983.04,-7743.642 -36800.56,-52418.356 -18616.61,-90143.556 z"
                                   id="path4126-8"
                                   sodipodi:nodetypes="cscscc" />
                                <path
                                   style="fill:#ff9955;stroke:none;stroke-width:26618.4px;stroke-linecap:butt;stroke-linejoin:miter;stroke-opacity:1"
                                   d="m 847675.9,126373.42 c 0,0 21627.46,66546.03 84846.2,58227.78 63218.76,-8318.25 69873.3,-41591.27 69873.3,-41591.27 0,0 9981.9,57395.96 -33272.95,65714.21 -43254.95,8318.25 -76232.39,8881.96 -105641.86,-5822.78 -14417.86,-6574.01 -31242.07,-44500.89 -15804.69,-76527.94 z"
                                   id="path4126-6"
                                   sodipodi:nodetypes="cscscc" />
                                <path
                                   style="fill:#ff9955;stroke:none;stroke-width:26618.4px;stroke-linecap:butt;stroke-linejoin:miter;stroke-opacity:1"
                                   d="m 518186.77,379374.03 c 0,0 21627.46,66546.03 84846.2,58227.78 63218.74,-8318.25 69873.34,-41591.27 69873.34,-41591.27 0,0 9981.88,57395.96 -33273.02,65714.21 -43254.92,8318.25 -76232.37,8881.96 -105641.83,-5822.78 -14417.87,-6574.01 -31242.07,-44500.89 -15804.69,-76527.94 z"
                                   id="path4126-5"
                                   sodipodi:nodetypes="cscscc" />
                                <path
                                   style="fill:#ff9955;stroke:none;stroke-width:21882.5px;stroke-linecap:butt;stroke-linejoin:miter;stroke-opacity:1"
                                   d="m -482471.02,393102.74 c 0,0 17779.57,54706.37 69750.62,47868.07 51971.06,-6838.29 57441.7,-34191.48 57441.7,-34191.48 0,0 8205.93,47184.25 -27353.19,54022.54 -35559.14,6838.3 -62669.34,7301.72 -86846.37,-4786.8 -11852.68,-5404.39 -25683.57,-36583.43 -12992.76,-62912.33 z"
                                   id="path4126-67"
                                   sodipodi:nodetypes="cscscc" />
                                <path
                                   style="fill:#ff9955;stroke:none;stroke-width:20698.6px;stroke-linecap:butt;stroke-linejoin:miter;stroke-opacity:1"
                                   d="m -194764.02,420560.17 c 0,0 16817.59,51746.46 65976.73,45278.15 49159.14,-6468.3 54333.783,-32341.53 54333.783,-32341.53 0,0 7761.951,44631.32 -25873.233,51099.62 -33635.19,6468.31 -59278.58,6906.65 -82147.5,-4527.81 -11211.38,-5111.98 -24293.95,-34604.07 -12289.78,-59508.43 z"
                                   id="path4126-83"
                                   sodipodi:nodetypes="cscscc" />
                                <path
                                   style="fill:#ff9955;stroke:none;stroke-width:14778.7px;stroke-linecap:butt;stroke-linejoin:miter;stroke-opacity:1"
                                   d="m 116055.08,128334.66 c 0,0 12007.74,36946.88 47107.28,32328.52 35099.54,-4618.36 38794.22,-23091.8 38794.22,-23091.8 0,0 5542.02,31866.69 -18473.44,36485.05 -24015.47,4618.36 -42324.8,4931.33 -58653.17,-3232.85 -8004.91,-3649.95 -17345.84,-24707.25 -8774.89,-42488.92 z"
                                   id="path4126-2"
                                   sodipodi:nodetypes="cscscc" />
                                <path
                                   style="fill:#ff9955;stroke:none;stroke-width:23735.2px;stroke-linecap:butt;stroke-linejoin:miter;stroke-opacity:1"
                                   d="m -109156.05,205676.72 c 0,0 19284.883,59338.1 75656.072,51920.83 56371.195,-7417.26 62305,-37086.3 62305,-37086.3 0,0 8900.694,51179.1 -29669.04738,58596.36 -38569.75762,7417.26 -67975.24462,7919.91 -94199.22062,-5192.08 -12856.184,-5861.95 -27858.074,-39680.77 -14092.804,-68238.81 z"
                                   id="path4126-9"
                                   sodipodi:nodetypes="cscscc" />
                                <path
                                   style="fill:#ff9955;stroke:none;stroke-width:27802.4px;stroke-linecap:butt;stroke-linejoin:miter;stroke-opacity:1"
                                   d="m 475635.4,-134472.17 c 0,0 22589.43,69505.956 88620.09,60817.71 66030.66,-8688.24 72981.25,-43441.22 72981.25,-43441.22 0,0 10425.87,59948.887 -34752.98,68637.127 -45178.86,8688.246 -79623.12,9277.029 -110340.7,-6081.766 -15059.15,-6866.422 -32631.69,-46480.261 -16507.66,-79931.851 z"
                                   id="path4126-21"
                                   sodipodi:nodetypes="cscscc" />
                                </g>
                                </g>
                                </g>
                                </g>
                                </g>
                                </g>
                                </g>
                                </g>
                                </g>
                                </g>
                                </g>
                                </g>
                                </g>
                                </g>
                                </g>
                                </g>
                                </g>
                                </g>
                                </g>
                                </g>
                                </g>
                                </g>
                                </g>
                                </g>
                                </g>
                                </g>
                                </g>
                                </g>
                                </g>
                                </g>
                                </g>
                                </g>
                                </g>
                                </g>
                                </g>
                                </g>
                                </g>
                                </g>
                                </g>
                                </g>
                                </g>
                                </g>
                                </g>
                                </g>
                                </g>
                                </g>
                                </g>
                                </g>
                                </g>
                                </g>
                                </g>
                              </g>
                            </g>
                          </g>
                        </g>
                      </g>
                    </g>
                  </g>
                </g>
              </g>
            </g>
          </g>
        </g>
      </g>
    </g>
  </g>
</svg>
