<?xml version="1.0" encoding="UTF-8" standalone="no"?>
<!-- Created with Inkscape (http://www.inkscape.org/) -->

<svg
   width="64"
   height="64"
   viewBox="0 0 16.933333 16.933334"
   version="1.1"
   id="svg5"
   inkscape:version="1.2 (dc2aedaf03, 2022-05-15)"
   sodipodi:docname="champignon_noir.svg"
   xmlns:inkscape="http://www.inkscape.org/namespaces/inkscape"
   xmlns:sodipodi="http://sodipodi.sourceforge.net/DTD/sodipodi-0.dtd"
   xmlns="http://www.w3.org/2000/svg"
   xmlns:svg="http://www.w3.org/2000/svg">
  <sodipodi:namedview
     id="namedview7"
     pagecolor="#ffffff"
     bordercolor="#666666"
     borderopacity="1.0"
     inkscape:pageshadow="2"
     inkscape:pageopacity="0.0"
     inkscape:pagecheckerboard="0"
     inkscape:document-units="mm"
     showgrid="false"
     units="px"
     inkscape:zoom="11.313709"
     inkscape:cx="37.123104"
     inkscape:cy="41.542522"
     inkscape:window-width="1920"
     inkscape:window-height="1017"
     inkscape:window-x="3832"
     inkscape:window-y="-8"
     inkscape:window-maximized="1"
     inkscape:current-layer="g15476"
     inkscape:showpageshadow="2"
     inkscape:deskcolor="#d1d1d1" />
  <defs
     id="defs2" />
  <g
     inkscape:label="Calque 1"
     inkscape:groupmode="layer"
     id="layer1">
    <g
       id="g4128"
       transform="translate(-0.63104184,0.12620835)">
      <g
         id="g5578"
         transform="translate(0.08924235,0.08924306)">
        <g
           id="g7501"
           transform="translate(-0.06310417,0.94656242)">
          <g
             id="g9467"
             transform="translate(-0.08924275,-0.80318511)">
            <g
               id="g10302"
               transform="translate(0.31234979,-0.04462139)">
              <g
                 id="g11479"
                 transform="translate(-0.12620833,0.06310418)">
                <g
                   id="g11873"
                   transform="translate(-0.23575769,0.66462456)">
                  <g
                     id="g12382"
                     transform="translate(-121.98459,-82.267525)">
                    <g
                       id="g13305"
                       transform="matrix(0.13266609,0,0,0.13266609,114.63867,78.215696)">
                      <g
                         id="g17429"
                         transform="translate(0.90513437,5.6640979)">
                        <g
                           id="g18595"
                           transform="translate(-3.3634362,-8.7449387)">
                          <g
                             id="g21002"
                             transform="translate(1.7082278,-2.8204445)">
                            <g
                               id="g23814"
                               transform="translate(8.7253043,-1.1218249)">
                              <g
                                 id="g24838"
                                 transform="translate(11.143454,-0.85716864)">
                                <g
                                   id="g25315"
                                   transform="translate(-3.490122,2.4929446)">
                                <g
                                   id="g27220"
                                   transform="translate(2.4678888,1.2339445)">
                                <g
                                   id="g29753"
                                   transform="translate(1.4759287,-2.3737724)">
                                <g
                                   id="g30615"
                                   transform="translate(0.92006037,1.3687834)">
                                <g
                                   id="g31433"
                                   transform="translate(-2.4678886,-1.410222)">
                                <g
                                   id="g31731"
                                   transform="translate(1.0576664,-0.70511063)">
                                <g
                                   id="g33243"
                                   transform="matrix(1.0772948,0,0,1.0772948,-7.3729128,-3.1743014)">
                                <g
                                   id="g35254"
                                   transform="translate(-2.2135012,-0.92031205)">
                                <g
                                   id="g36749"
                                   transform="translate(-0.98178042,-2.7817105)">
                                <g
                                   id="g37297"
                                   transform="translate(-6.7755742,-3.5033798)">
                                <g
                                   id="g38955"
                                   transform="matrix(1.2171094,0,0,1.2171094,-23.105122,-18.212482)">
                                <g
                                   id="g39618"
                                   transform="translate(-0.26888273,-0.26888316)">
                                <g
                                   id="g40032"
                                   transform="translate(-1.90129,-3.042064)">
                                <g
                                   id="g40543"
                                   transform="translate(0.3802582,-2.0914191)">
                                <g
                                   id="g41372"
                                   transform="translate(1.9657652,-7.9304203)">
                                <g
                                   id="g43278"
                                   transform="translate(1.5210324,-0.38025789)">
                                <g
                                   id="g44210"
                                   transform="matrix(1.1578947,0,0,1.1578947,-18.904476,-21.776183)">
                                <g
                                   id="g44833"
                                   transform="matrix(1.1196819,0,0,1.1196819,-12.538538,-14.547543)">
                                <g
                                   id="g47597"
                                   transform="translate(3.1109352,-1.2443743)">
                                <g
                                   id="g48754"
                                   transform="translate(-2.9035392,-6.6366609)">
                                <g
                                   id="g234"
                                   transform="matrix(0.04089637,0,0,0.04089637,104.63967,119.67231)">
                                <g
                                   id="g2138"
                                   transform="translate(-86.211222,-40.569988)">
                                <g
                                   id="g2696"
                                   transform="translate(-124306.44,-9412.2373)">
                                <g
                                   id="g3765"
                                   transform="translate(25.356243,-50.712489)">
                                <g
                                   id="g4557"
                                   transform="translate(46.61688,-35.859142)">
                                <g
                                   id="g5244"
                                   transform="translate(7.1718407,14.343658)">
                                <g
                                   id="g5807"
                                   transform="translate(-5.1984397,-21.113724)">
                                <g
                                   id="g6945"
                                   transform="translate(-10.142522,-243.41993)">
                                <g
                                   id="g11108"
                                   transform="translate(18.189368,-37.636113)">
                                <g
                                   id="g15049"
                                   transform="translate(-65.926228,141.99496)">
                                <g
                                   id="g19861"
                                   transform="matrix(0.07356842,0,0,0.07356842,115423.38,9039.2311)">
                                <g
                                   id="g20437"
                                   transform="translate(-478.38824,-785.88156)">
                                <g
                                   id="g21032"
                                   transform="translate(2047.1878,-1072.3367)">
                                <g
                                   id="g21869"
                                   transform="matrix(0.04321578,0,0,0.04321578,117368,10137.003)">
                                <g
                                   id="g25455"
                                   transform="translate(154741.46,-87178.414)">
                                <g
                                   id="g26278"
                                   transform="translate(-18012.371,-8233.4417)">
                                <g
                                   id="g27240"
                                   transform="translate(-0.00447131,5582.7624)">
                                <g
                                   id="g28306"
                                   transform="translate(-15790.441,-2255.7767)">
                                <g
                                   id="g33735"
                                   transform="translate(14662.549,-16918.328)">
                                <g
                                   id="g37868"
                                   transform="translate(-5075.4976,25941.433)">
                                <g
                                   id="g76752"
                                   transform="matrix(-1,0,0,1,9442.3174,-1595.0746)">
                                <g
                                   id="g82459"
                                   transform="translate(3383.6668,-1127.8885)">
                                <g
                                   id="g83208"
                                   transform="matrix(0.20332428,0,0,0.20332428,-15348.528,66747.475)">
                                <g
                                   id="g83934"
                                   transform="matrix(-1,0,0,1,240692.18,94139.78)">
                                <g
                                   id="g84550"
                                   transform="translate(-8.7627443e-5,55472.344)">
                                <g
                                   id="g9096"
                                   transform="translate(31379.925,-62759.843)">
                                <g
                                   id="g11527"
                                   transform="translate(61019.625,105397.54)">
                                <g
                                   id="g13422"
                                   transform="translate(-44377.907,44377.908)">
                                <g
                                   id="g1137"
                                   transform="translate(-3.3240812e-4,138680.92)">
                                <g
                                   id="g3632"
                                   transform="translate(177511.65,-22188.943)">
                                <g
                                   id="g5936"
                                   transform="translate(11767.473,-47069.909)">
                                <g
                                   id="g7318">
                                <g
                                   id="g11619"
                                   transform="translate(27457.436,-223581.94)" />
                                <g
                                   id="g11985"
                                   transform="translate(70604.821,-133364.68)">
                                <g
                                   id="g12707"
                                   transform="matrix(1.186974,0,0,1.186974,95904.637,-164033.62)">
                                <g
                                   id="g4721"
                                   transform="matrix(-1,0,0,1,-561251.4,-59483.037)">
                                <g
                                   id="g7072">
                                <g
                                   id="g10426"
                                   transform="translate(66928.962,-211126.69)">
                                <g
                                   id="g11693"
                                   transform="translate(967399.8,-74774.864)">
                                <g
                                   id="g12809"
                                   transform="translate(37387.427,-102815.44)">
                                <g
                                   id="g2473"
                                   transform="translate(132184.53,-3304.6135)">
                                <g
                                   id="g4713"
                                   transform="translate(98142.015,-79448.29)">
                                <g
                                   id="g6093"
                                   transform="translate(-28040.619,-18693.712)">
                                <g
                                   id="g10695"
                                   transform="translate(51630.439,7541.1673)">
                                <g
                                   id="g11274"
                                   transform="translate(10950.525,104212.74)">
                                <g
                                   id="g12675"
                                   transform="translate(-91131.868,23367.145)">
                                <g
                                   id="g13439">
                                <g
                                   id="g14292"
                                   transform="translate(9346.8309,-46734.289)">
                                <g
                                   id="g15476"
                                   transform="translate(52404.124,-6609.2261)">
                                <path
                                   style="fill:#a98970;stroke-width:1127.12"
                                   d="m -1615251.3,1477411.4 c 30546.2,-3034.3 47147.2,-5680.8 67627.4,-10780.7 38149.2,-9499.8 76808.1,-26927.3 103478.1,-46648.1 5409.8,-4000.3 15533.5,-10103 22497,-13561.6 15515.8,-7706.2 23199.5,-12292.4 36330.5,-21684.8 56549.4,-40448.4 96253.3,-103004.1 112704,-177571.5 11283.6,-51146.2 29894.1,-205506.4 38875.2,-322440.37 1282.9,-16702.49 2445.9,-30439.75 2584.5,-30527.33 138.7,-87.91 6085,307.71 13214,878.37 15581.8,1247.39 69175.6,-585.2 90733.4,-3102.52 66499.1,-7765.04 138057.31,-30666.64 199269.02,-63774.33 16386.27,-8862.88 17716.82,-9765.82 15354.49,-10419.91 -40604.54,-11242.7 -81681.62,-32473.38 -116563.91,-60245.98 -15616.3,-12433.42 -46229.8,-42640.55 -57368,-56606.39 -19591.9,-24565.73 -40275,-60963.54 -54121.5,-95241.86 -12271,-30378.18 -21250.1,-44176.32 -35306.3,-54255.63 -15957.9,-11442.83 -33923.6,-16829.45 -52704.9,-15802.41 -20531.7,1122.78 -36364.6,5635.35 -59737.5,17025.92 -26732.9,13028.13 -50456.7,30435.51 -77625.6,56958.04 -18460,18020.77 -31778.5,33840.27 -43645.1,51840.62 -4281.6,6494.82 -7784.8,11158.44 -7784.8,10363.59 0,-2367.91 11886.3,-148642.84 12884.1,-158554.19 249.6,-2479.67 1094.3,-12691.28 1877,-22692.45 l 1423.1,-18183.96 11841.8,-1332.5 c 43750.7,-4923.04 91554.5,-29083.69 124248.7,-62796.91 14876.2,-15339.9 32223.8,-37453.57 42957.3,-54759.59 l 5650.3,-9110.09 -3598.2,-13621.92 c -35239,-133408.74 -77559.8,-267610.451 -112171.9,-355703.64 -38559.6,-98140.19 -73611.5,-158303.68 -100701.7,-172845.73 -7476.2,-4013.21 -17382.3,-5188.6 -22299.4,-2645.89 -14697.9,7600.59 -31268.2,41953.89 -43226,89615.47 -30079.3,119890.862 -58041.1,293222.55 -74401.7,461207.99 -1237.7,12708.31 -2773.7,31092.96 -3413.3,40854.78 -1154.8,17625.13 -1144,17786.12 1554.3,23111 11325.1,22349.02 42379.4,42001.57 80389.1,50873.87 12118.9,2828.83 31472.4,5712.33 38538,5741.82 l 4945.8,20.63 -739.5,8171.64 c -406.7,4494.4 -1221.5,13750.89 -1810.7,20569.99 -589.2,6819.09 -1840.2,21274.44 -2780,32122.99 -1915.4,22110.2 -7940.1,94494.03 -9662.7,116093.63 -618,7748.97 -1374.5,17132.27 -1681,20851.77 -1236,14996.27 -5138.9,67256.67 -7281.2,97496.11 -1251.7,17667.65 -2533.5,35673.43 -2848.6,40012.85 -1296.8,17862.38 -4048.8,60381.93 -5617.2,86788.45 -920.6,15497.93 -1944.6,32742.91 -2275.8,38322.17 -1125.2,18957.75 -1618.8,28156.2 -2238.1,41703.54 -340,7439 -856.3,17583.11 -1147.4,22542.45 -291,4959.34 -1042.6,23218.72 -1670.1,40576.41 -627.4,17357.7 -1391.4,36377.9 -1697.6,42267.1 -1012.4,19469.5 -609.6,116328.4 560.2,134691.2 4631.4,72703.9 15066,132060.4 29983.9,170561.6 2271,5860.8 4816.7,11980.2 5657.2,13598.4 1980.5,3813 733.2,4148.8 -6610.3,1779.9 -31020.1,-10006.6 -59251.5,-43781.7 -75274.2,-90055.5 -18427.2,-53218.1 -28551.8,-137547.4 -28685.7,-238928.8 l -22.2,-16806.7 7326.3,-1486.7 c 16758.8,-3401.2 32206.4,-11967.38 44889.9,-24892.77 8122.7,-8277.57 18228.9,-23079.05 18228.9,-26697.91 0,-3169.24 -8945.1,-62351.75 -14748.4,-97578.27 -18304.1,-111107.48 -35070.9,-183608.1 -49399.4,-213605.3 -6440.2,-13482.84 -10022.4,-17470.4 -15694.5,-17470.4 -3409.4,0 -4971.2,981.16 -10316.1,6480.96 -23543.4,24225.86 -52951.5,120381.07 -82223.1,268843.54 l -6838.4,34683.71 3542.3,7019.83 c 12139.4,24056.18 35125.8,47252.36 56068.6,56580.11 l 4938.1,2199.3 -761.9,33294.1 c -1164,50869.5 1074.5,104870.5 6215.9,149951.3 7176.4,62924.1 19178,108710.5 36431.3,138986.1 2716.4,4766.9 4669.4,8666.9 4339.8,8666.9 -963.1,0 -17000,-11064.9 -26796,-18488.3 -51143.9,-38756.6 -101927,-100908.1 -133627.7,-163542 -8494.9,-16784.2 -21441.5,-47023.7 -21302.8,-49757.6 26.8,-529.5 3653.5,-3498.9 8059.3,-6598.5 8700.6,-6121.1 24578.4,-20422.4 24578.4,-22138 0,-3299.1 -39042.2,-57659.9 -55292.8,-76987.6 l -9114.3,-10839.97 -2765.1,-14898.87 c -17360.9,-93542.05 -27506.1,-219230.54 -27506.1,-340772.91 v -38557.69 l 8735.2,-686.37 c 45015,-3537.06 74783.4,-10387.09 107857.9,-24819.29 21348.6,-9315.52 36440.5,-18009.23 54469.8,-31377.23 l 10447.9,-7746.73 -7995.7,-8561.69 c -29451.9,-31536.81 -47888.5,-63240.03 -58988.2,-101434.77 -9607.7,-33061.09 -13100.2,-59030.2 -18150.6,-134961.42 -4626.7,-69562.34 -8812.9,-102118.2 -17671.5,-137429.1 -9791.1,-39028.47 -23678.2,-69393.676 -41376,-90471.726 -10053.2,-11973.401 -25487.3,-22104.284 -38264.9,-25117.06 -8624.1,-2033.464 -24466.1,-1787.537 -32342,502.066 -24821.1,7215.692 -48654,28368.628 -69891.2,62032.096 -27015.6,42822.894 -64236.6,144953.084 -77636.6,213026.174 -7457.6,37884.57 -20843.4,140877.53 -26074.3,200619.83 l -1874.4,21407.33 4908.7,4413.68 c 7824.3,7035.16 27433.2,19385.89 42103.8,26519.28 27484.8,13364.08 57413.7,22833.87 89832.4,28423.85 l 14374.2,2478.57 94.1,71658.48 c 51.7,39412.15 272.3,74194.49 490.2,77294.08 217.8,3099.59 712.5,14511.7 1099.4,25360.26 386.8,10848.55 933.9,23275.08 1215.7,27614.5 281.9,4339.43 1048.3,16258.75 1703.1,26487.38 1626.3,25400.5 6676.6,80149.81 7530.4,81635.02 382.1,664.66 -6617.8,-5899.14 -15555.3,-14586.1 -53469.6,-51971.26 -87987.6,-72973.43 -117127.5,-71265.23 -22301.5,1307.34 -61825.9,21075.68 -101167,50599.33 -41639.3,31248.35 -82025.1,70699.67 -89529.1,87457.73 -1891.4,4223.89 -1993.7,5612.28 -872,11834.78 3740.6,20749.99 22316,50909.22 47296.5,76791.22 32949,34138.2 76306.9,59958.7 129203.9,76943.6 l 17055.2,5476.3 666.8,6357.2 c 1913.7,18248 13642.7,69411.4 21926.6,95647.4 22791.4,72182.3 54057.7,128707.5 93736.2,169462.1 55840.8,57355.2 114379.9,78980.6 217001.9,80164.3 17357.7,200.1 33588.3,162.5 36067.9,-83.4 z m -41140,-48931.9 c -17162.1,-1489.7 -37298.6,-4920.1 -56176.8,-9570.3 -46780.6,-11523.2 -78582.8,-29297.7 -111828.7,-62501.7 -31164.5,-31125.5 -55544.9,-68358.9 -77054.5,-117676.8 -15421.9,-35359.7 -36871.5,-102158.7 -32803.8,-102158.7 827.4,0 8273.1,808 16546,1795.6 29655.5,3540.2 71365.4,2000.5 97321.5,-3592.6 16424.6,-3539.1 14266.4,-4414.6 18889,7662.4 19193.9,50145.7 42295,89319.7 77882,132069.2 53049.1,63725.8 112884.1,106910.1 178009.7,128473.8 6646.5,2200.7 13856.9,4333.8 16023.2,4740.1 2166.3,406.4 3938.7,1130.1 3938.7,1608.1 0,948.9 -23428.7,8928 -34554.8,11768.5 -28987,7400 -64546.9,10129.1 -96191.5,7382.4 z m 252163.4,-114667.5 c -8647.5,-11915.6 -16991.3,-31504.2 -24365.2,-57201.4 -13207.6,-46027.3 -14817.7,-60983 -14803.4,-137509 15,-80200.9 3638.7,-161288.33 15338.1,-343208.85 1050.7,-16338.66 554.7,-16000.45 9468.6,-6455.49 16513.6,17682.58 41945.6,36177.94 67648.7,49197.33 16671.1,8444.39 42647.1,18758.58 57201.5,22712.83 l 9298.8,2526.34 -9,5177.03 c -32,19036.42 -9734.5,128323.25 -15819.9,178190.31 -14155.8,116002.6 -28900.8,173754.4 -59281.2,232187.3 -11730.6,22562.5 -36228.6,59608.3 -39479,59700.3 -722.1,20.3 -3061.3,-2372.1 -5198.3,-5316.7 z"
                                   id="path15482" />
                                <path
                                   style="fill:#614339;stroke-width:1127.12"
                                   d="m -1851947,1139253.1 c 34184.7,-3500.3 67752.5,-12986.8 91696.4,-25914.1 18597.2,-10040.6 47606.4,-33568.4 45552.5,-36945.1 -3696.6,-6077.4 -24322.2,-35742.9 -32999.3,-47462.1 -12659.2,-17097.3 -56666,-70126.32 -79603.2,-95923.34 -20621.1,-23191.9 -64032,-65913.57 -79875.4,-78607 -28165.3,-22565.52 -48635.8,-33714.22 -67559.1,-36794.06 -34093.4,-5548.84 -104795.3,35458.99 -169019.9,98033.23 -25154.5,24508.15 -34494,36980.22 -34494,46063.7 0,15027.13 15615.8,44658.47 36914.1,70045.27 45711.4,54486.3 122265,92354.8 212180,104958.4 15675.5,2197.3 64792.2,3816.4 77207.9,2545.1 z m 290234,-127151.9 c 10090.9,-2146.4 21314.6,-6391.6 28877.4,-10922.3 12302.4,-7370.06 28445.4,-24478.88 34684.8,-36760.12 1770.5,-3484.84 1646.7,-5025.96 -2761.5,-34377.24 -5836.3,-38860.38 -15569.3,-97779.08 -21461.2,-129915.65 -16723.1,-91214.15 -35063.5,-155277.2 -47433.6,-165685.95 -4212.3,-3544.41 -7203.9,-3556.55 -12364,-50.16 -23483.3,15957.35 -55227.8,116318.24 -85983,271837.34 -3449.1,17441.1 -6271.1,32796.79 -6271.1,34123.64 0,3426.79 6652.6,16111.32 13649.6,26025.72 15324.5,21714.01 37990.7,38159.32 60740.5,44069.82 11182.6,2905.3 28856.4,3668.6 38322.1,1654.9 z m 379840.3,-156941.86 c 61128.5,-1916.22 106954.4,-9746.46 160051.4,-27347.97 34421.5,-11410.59 64515.98,-24268.41 94379.98,-40323.67 l 16044.93,-8625.96 -18299.18,-6019.71 C -1000384.7,749588.11 -1070753,692781.66 -1111012.8,626469.5 c -9083.5,-14961.52 -22781,-42720.42 -30820.4,-62459.67 -9835.5,-24149.23 -15866.6,-34530.85 -25910.5,-44601.37 -10034.7,-10061.26 -18331.6,-14959.38 -34417.2,-20318.42 -8398.9,-2798.16 -11179.2,-3181.17 -22542.4,-3105.3 -21386.3,142.76 -39023.2,4924.5 -64246,17418.46 -43348,21472.1 -89586.5,62480.98 -118043.4,104692.38 -10721.5,15903.72 -13676.8,20864.3 -20058.2,33668.81 -12561.8,25205.27 -20128.8,49553.65 -20210.9,65032.26 -45,8482.96 275.3,9748.22 4760.8,18807.04 15248.9,30796.13 53465,64653.86 95875.6,84941.49 30972,14815.82 68938.1,26650.14 100506.7,31328.6 12532.2,1857.27 43572.3,4201.01 50528.4,3815.31 2275.4,-126.24 8448.3,-364.63 13717.6,-529.75 z m -619917.4,-260365 c 55305.6,-2449.23 109636,-19617.89 152725.1,-48261.77 6819.1,-4533.06 14302.2,-9940.02 16629,-12015.46 l 4230.6,-3773.53 -9692.6,-10707.67 c -38741.3,-42798.7 -57284.5,-83557.93 -66917.4,-147089.5 -2323,-15321.29 -4810.7,-42321.9 -6801.8,-73826.54 -3579.7,-56641.21 -7376.2,-94612.81 -11937,-119390.6 -14594.2,-79288.32 -43023.4,-130619.615 -79926.6,-144314.29 -9750.3,-3618.312 -26308.3,-4405.641 -36360.1,-1728.905 -21672.1,5771.161 -42562.3,21841.811 -61413.1,47244.518 -21289,28688.507 -42894.5,76387.677 -65134.1,143799.187 -16775.3,50848.5 -25064.3,88665.77 -33228.3,151597.99 -9793,75489.92 -11406.4,89280.4 -15229.5,130182.67 l -2265,24233.14 4247,3769.21 c 2335.7,2073.07 9065.3,6978.15 14954.5,10900.17 40531.3,26992.55 97569,44964.26 155350.8,48948.71 16311.6,1124.8 23433,1200.37 40768.5,432.67 z m 411399.8,-163909.89 c 45606.9,-5089.9 98307.3,-32490.49 129236.6,-67194.13 18634.3,-20908.2 44863.4,-57134.55 43757.7,-60435.97 -242.5,-724.17 -3305.2,-12221.58 -6806,-25549.81 -33497.6,-127531.69 -78924.4,-269273.812 -114751.6,-358051.232 -36530.2,-90519.298 -70338.3,-145936.028 -96373.1,-157970.498 -9051.5,-4183.98 -17493.5,-4107.45 -23153.8,209.89 -13025.4,9934.91 -28618.7,43938.61 -39352.6,85814.55 -30037.3,117183.621 -61212,312973.04 -76273.6,479027.13 -1237,13638.18 -2251.3,29373.11 -2254,34966.5 -4.5,9763.65 156,10416.36 4023.7,16343.28 22831.3,34987.3 76551,54373.17 149444,53929.95 13227.1,-80.42 27853.3,-570.76 32502.7,-1089.66 z"
                                   id="path15480" />
                                <path
                                   style="fill:#502c20;stroke-width:1127.12"
                                   d="m -1856455.5,1139221.4 c 1859.7,-216.7 8199.8,-942.4 14089,-1612.3 46312.6,-5268.5 90056.8,-24050.7 119180.4,-51171.5 l 9285.8,-8647.4 -4163.8,-5872.3 -4163.9,-5872.4 -5019.3,4809.3 c -9889.2,9475.5 -30895.4,18209.8 -54254.6,22558.5 -13513.1,2515.9 -63926.5,2839.6 -82279.9,528.4 -48477.2,-6104.6 -82107.4,-20732.3 -112039.9,-48732.7 -27254,-25494.7 -50140,-67894.59 -56543.8,-104756.35 -2540.1,-14620.47 -1726.4,-35921.28 1764.1,-46187.68 9875.8,-29046.74 30933.6,-49519 56342,-54775.18 16896.9,-3495.46 34109.2,1845.82 59193.5,18368.67 24946.5,16432.21 53908.3,42878 99092.6,90484.05 14079.4,14834.06 8990.9,8310.28 -12747.6,-16343.28 -16247,-18425.63 -54589.1,-56794.58 -69438.1,-69486.77 -29115.4,-24886.13 -52572.9,-39250.3 -71482.8,-43772.26 -9672.6,-2313.02 -25592.5,-888.29 -37859.9,3388.21 -39946.3,13925.57 -94493.1,52002.77 -140338.2,97965.14 -20732.4,20785.5 -29218.4,31991.46 -30091.5,39736.82 -702.3,6231.3 4576.1,22614.48 11187.8,34724.17 40174.3,73581.36 126366,125486.26 234770.9,141379.76 23335.6,3421.3 60492.5,5038.7 75517.2,3287.1 z m 294742.5,-127338.6 c 23417.2,-4446.8 46633.8,-20855.7 60398.9,-42688.52 1811.7,-2873.37 1117.8,-2529.37 -4618.6,2289.86 -14064.2,11815.74 -23287.6,17076.59 -35582.2,20295.2 -8496.2,2224.26 -21316.7,1710.3 -27157.3,-1088.69 -15428,-7393.92 -23473.1,-58267.84 -23473.1,-148435.17 0,-78549.51 6111.2,-139398.19 16878.8,-168059.9 2140.4,-5697.42 6538.6,-11015.09 9110.6,-11015.09 4046.5,0 13940.8,15129.26 17924.4,27408.24 767.7,2366.22 1635.5,4062.57 1928.4,3769.66 837.6,-837.68 -7202.9,-26793.36 -11968.8,-38636.4 -4751.4,-11806.98 -10466.2,-21003.01 -14341,-23076.72 -7678.4,-4109.36 -19953.3,10100.57 -31911.4,36941.89 -18697.6,41969.1 -41350.3,126390.25 -62755.8,233875.36 l -7560.4,37963.63 3870.8,7658.01 c 11427.3,22608.16 31258,43045.83 51773.5,53357.94 14704,7391 22304.5,9247 39449.3,9633.1 8368.9,188.5 16484.1,101.5 18033.9,-192.4 z m -237822.8,-46069.89 c -1456,-1549.79 -2900.8,-2817.8 -3210.8,-2817.8 -309.9,0 627.7,1268.01 2083.7,2817.8 1455.9,1549.8 2900.8,2817.81 3210.7,2817.81 310,0 -627.7,-1268.01 -2083.6,-2817.81 z m 644714.1,-112162.79 c 54480.8,-3120.32 112067.8,-16437.06 167932.26,-38833.71 17084.59,-6849.4 47707.5,-20906.02 47027.02,-21586.5 -187.75,-187.75 -4883.97,1112.73 -10436.02,2889.97 -5552.06,1777.23 -15960.74,4540.61 -23130.4,6140.82 -46155.56,10301.58 -107761.06,7929.06 -161104.66,-6204.36 -78999.8,-20931.03 -126299.4,-72722.24 -134219.4,-146964.89 -5147.8,-48254.99 13470.7,-99759.1 43441.4,-120171.54 9835,-6698.43 17955.1,-9359.5 28222.7,-9248.96 18963.8,204.14 35304.2,12182.68 49667.6,36409.32 2748.8,4636.42 4997.8,8070.42 4997.8,7631.11 0,-1866.77 -10454,-24167.31 -14314.8,-30536.38 -7116.2,-11739.54 -17874.1,-21330 -31121,-27743.73 -14796,-7163.8 -22520.1,-9064.94 -36829.8,-9064.94 -42969.8,0 -96094.3,28195.16 -144293.6,76581.95 -38715.7,38866.31 -66522.4,86026.13 -76096,129057.67 -3171.4,14254.5 -2826.9,21345.15 1478.5,30437.28 12545.8,26494.16 40399.5,54784.29 74225.3,75388.5 34786.9,21189.58 80741.9,37194.66 127201.1,44301.4 13428.8,2054.18 62955.1,2914.17 87352,1516.99 z m -628036,-260434.65 c 35863.1,-3464.25 75830.6,-15340 108432.5,-32219.06 13783,-7135.92 37661.8,-22232.43 40416.9,-25552.2 763.1,-919.41 -3073.3,250.68 -8525.3,2600.2 -32020.6,13799.22 -61691.8,20648.76 -89374.9,20632.05 -27657,-16.68 -47369.8,-6432.72 -64246,-20910.44 -15226.9,-13062.91 -27305.3,-36241.88 -32569.9,-62503.33 -11982.8,-59773.59 -20746.1,-173265.53 -18779.3,-243206.61 2604.1,-92603.36 13430.4,-145399.93 32850.1,-160200.335 15722.6,-11982.7 44738.5,9063.013 65157.8,47260.025 12279.7,22970.93 21005.5,48935.18 28675.3,85325.8 2302.1,10923.06 1142.1,277.72 -2002.8,-18379.14 -14014.3,-83137.82 -43591.8,-137778.697 -81533.5,-150623.195 -34394.6,-11643.706 -71595.4,7860.644 -102222,53594.907 -15022.5,22432.838 -29367.5,52530.978 -45009.8,94438.058 -26923.4,72130.09 -37645.4,115614.44 -47969.8,194546.26 -9057.3,69245.16 -15406.8,126140.36 -16579.2,148559.27 -298.6,5712.27 142.7,6159.11 18138.7,18358.95 35938.5,24363.4 86563.3,41598.51 140409.4,47802.02 15722.6,1811.37 58115.8,2081.83 74731.8,476.77 z m 384013.9,-161764.42 c 28779.6,-2909.08 51191.5,-9359.04 76184.6,-21925.33 30021.2,-15094.36 55292,-36636.94 79270.1,-67575.19 11566.3,-14923.74 25448.5,-35743.52 25448.5,-38166.4 0,-909.55 -2386.8,-10695.09 -5303.9,-21745.62 l -5304,-20091.9 -5121.9,9851.43 c -7330.5,14099.3 -11551.6,19864.7 -22496.1,30726.05 -18571.4,18430.44 -40338.6,29656.74 -68850.7,35509.29 -11429.4,2346.06 -28603.5,2626.86 -37195.1,608.15 -39559.7,-9295.14 -60518.9,-53608.22 -70404.3,-148852.55 -8819.4,-84973.7 -11134.5,-253326.137 -4479.5,-325738.45 2934.4,-31928.11 7189.8,-51221.31 12048.4,-54624.37 4078.6,-2856.79 12059.6,-2203.5 17811.6,1457.99 17209.8,10955 41496,50383.17 65891,106972.547 3003.1,6966.407 5626.4,12500.06 5829.4,12297.009 203.1,-203.051 -2620.4,-7678.049 -6274.4,-16611.116 -41427.3,-101279.41 -77805.6,-154314.46 -105848.7,-154314.46 -9355,0 -13966.2,3551.68 -23044,17749.16 -14949.1,23380.07 -27704.1,66527 -46488.3,157257.671 -12574.2,60735.7924 -28577,157477.698 -39475.1,238639.499 -7566.4,56350.05 -17842.8,153496.69 -19327.5,182709.76 -718.1,14131.04 -706.3,14225.59 2542.9,20277.16 3970.7,7395.39 16621,20440.58 25806.9,26612.51 20120.3,13518.68 45906.2,22214.2 79513.9,26813.67 12289.5,1681.91 59455.9,3155.13 69266.2,2163.49 z M -1718561,214585.67 c 0,-1549.79 -255.8,-2183.8 -568.5,-1408.9 -312.6,774.9 -312.6,2042.91 0,2817.81 312.7,774.89 568.5,140.89 568.5,-1408.91 z m 468902.5,-27050.94 c 0,-929.88 -435.9,-2705.09 -968.6,-3944.93 -610.6,-1420.89 -968.7,-1629.23 -968.7,-563.56 0,929.88 435.9,2705.09 968.7,3944.93 610.5,1420.9 968.6,1629.23 968.6,563.56 z m -3381.3,-11271.23 c 0,-929.87 -435.9,-2705.09 -968.7,-3944.92 -610.6,-1420.9 -968.7,-1629.24 -968.7,-563.57 0,929.88 435.9,2705.1 968.7,3944.93 610.6,1420.9 968.7,1629.24 968.7,563.56 z m -2254.3,-7889.85 c 0,-929.88 -435.9,-2705.1 -968.7,-3944.93 -610.5,-1420.9 -968.6,-1629.24 -968.6,-563.56 0,929.87 435.9,2705.09 968.6,3944.92 610.6,1420.9 968.7,1629.24 968.7,563.57 z m -3394.4,-11271.23 c 0,-929.88 -683.6,-3465.9 -1519.2,-5635.61 -835.5,-2169.71 -1519.2,-3184.12 -1519.2,-2254.25 0,929.88 683.7,3465.9 1519.2,5635.61 835.6,2169.72 1519.2,3184.13 1519.2,2254.25 z m -3368.3,-11271.23 c 0,-929.87 -435.9,-2705.09 -968.7,-3944.93 -610.6,-1420.89 -968.7,-1629.23 -968.7,-563.56 0,929.88 435.9,2705.1 968.7,3944.93 610.6,1420.9 968.7,1629.24 968.7,563.56 z m -3381.4,-11271.22 c 0,-929.88 -435.9,-2705.1 -968.7,-3944.93 -610.5,-1420.9 -968.6,-1629.24 -968.6,-563.56 0,929.87 435.9,2705.09 968.6,3944.93 610.6,1420.89 968.7,1629.23 968.7,563.56 z m -3394.4,-11271.23 c 0,-929.88 -683.6,-3465.9 -1519.2,-5635.61 -835.5,-2169.71 -1519.2,-3184.12 -1519.2,-2254.25 0,929.88 683.7,3465.9 1519.2,5635.62 835.6,2169.71 1519.2,3184.12 1519.2,2254.24 z m -5553.1,-18691.45 c -54.1,-1313.04 -321.2,-1580.11 -681,-680.97 -325.6,813.64 -285.5,1785.79 89,2160.32 374.5,374.53 640.9,-291.18 591.9,-1479.35 z m -56301.7,-163338.856 c 0,-619.917 -491.6,-1887.93 -1092.6,-2817.806 -600.9,-929.877 -1092.6,-1183.479 -1092.6,-563.562 0,619.918 491.7,1887.931 1092.6,2817.807 601,929.876 1092.6,1183.479 1092.6,563.561 z m -2254.2,-5635.613 c 0,-619.918 -491.7,-1887.931 -1092.6,-2817.807 -601,-929.876 -1092.6,-1183.478 -1092.6,-563.561 0,619.917 491.6,1887.93 1092.6,2817.807 600.9,929.876 1092.6,1183.478 1092.6,563.561 z"
                                   id="path15478" />
                                </g>
                                </g>
                                </g>
                                </g>
                                </g>
                                </g>
                                </g>
                                </g>
                                </g>
                                </g>
                                </g>
                                </g>
                                </g>
                                </g>
                                </g>
                                </g>
                                </g>
                                </g>
                                </g>
                                </g>
                                </g>
                                </g>
                                </g>
                                </g>
                                </g>
                                </g>
                                </g>
                                </g>
                                </g>
                                </g>
                                </g>
                                </g>
                                </g>
                                </g>
                                </g>
                                </g>
                                </g>
                                </g>
                                </g>
                                </g>
                                </g>
                                </g>
                                </g>
                                </g>
                                </g>
                                </g>
                                </g>
                                </g>
                                </g>
                                </g>
                                </g>
                                </g>
                                </g>
                                </g>
                                </g>
                                </g>
                                </g>
                                </g>
                                </g>
                                </g>
                                </g>
                                </g>
                                </g>
                                </g>
                                </g>
                                </g>
                                </g>
                                </g>
                              </g>
                            </g>
                          </g>
                        </g>
                      </g>
                    </g>
                  </g>
                </g>
              </g>
            </g>
          </g>
        </g>
      </g>
    </g>
  </g>
</svg>
