<?xml version="1.0" encoding="UTF-8" standalone="no"?>
<!-- Created with Inkscape (http://www.inkscape.org/) -->

<svg
   width="64"
   height="64"
   viewBox="0 0 16.933333 16.933334"
   version="1.1"
   id="svg5"
   inkscape:version="1.2 (dc2aedaf03, 2022-05-15)"
   sodipodi:docname="champignon_de_paris.svg"
   xmlns:inkscape="http://www.inkscape.org/namespaces/inkscape"
   xmlns:sodipodi="http://sodipodi.sourceforge.net/DTD/sodipodi-0.dtd"
   xmlns="http://www.w3.org/2000/svg"
   xmlns:svg="http://www.w3.org/2000/svg">
  <sodipodi:namedview
     id="namedview7"
     pagecolor="#ffffff"
     bordercolor="#666666"
     borderopacity="1.0"
     inkscape:pageshadow="2"
     inkscape:pageopacity="0.0"
     inkscape:pagecheckerboard="0"
     inkscape:document-units="mm"
     showgrid="false"
     units="px"
     inkscape:zoom="4.0000002"
     inkscape:cx="-14.749999"
     inkscape:cy="42.749998"
     inkscape:window-width="1920"
     inkscape:window-height="1017"
     inkscape:window-x="3832"
     inkscape:window-y="-8"
     inkscape:window-maximized="1"
     inkscape:current-layer="g13439"
     inkscape:showpageshadow="2"
     inkscape:deskcolor="#d1d1d1" />
  <defs
     id="defs2" />
  <g
     inkscape:label="Calque 1"
     inkscape:groupmode="layer"
     id="layer1">
    <g
       id="g4128"
       transform="translate(-0.63104184,0.12620835)">
      <g
         id="g5578"
         transform="translate(0.08924235,0.08924306)">
        <g
           id="g7501"
           transform="translate(-0.06310417,0.94656242)">
          <g
             id="g9467"
             transform="translate(-0.08924275,-0.80318511)">
            <g
               id="g10302"
               transform="translate(0.31234979,-0.04462139)">
              <g
                 id="g11479"
                 transform="translate(-0.12620833,0.06310418)">
                <g
                   id="g11873"
                   transform="translate(-0.23575769,0.66462456)">
                  <g
                     id="g12382"
                     transform="translate(-121.98459,-82.267525)">
                    <g
                       id="g13305"
                       transform="matrix(0.13266609,0,0,0.13266609,114.63867,78.215696)">
                      <g
                         id="g17429"
                         transform="translate(0.90513437,5.6640979)">
                        <g
                           id="g18595"
                           transform="translate(-3.3634362,-8.7449387)">
                          <g
                             id="g21002"
                             transform="translate(1.7082278,-2.8204445)">
                            <g
                               id="g23814"
                               transform="translate(8.7253043,-1.1218249)">
                              <g
                                 id="g24838"
                                 transform="translate(11.143454,-0.85716864)">
                                <g
                                   id="g25315"
                                   transform="translate(-3.490122,2.4929446)">
                                <g
                                   id="g27220"
                                   transform="translate(2.4678888,1.2339445)">
                                <g
                                   id="g29753"
                                   transform="translate(1.4759287,-2.3737724)">
                                <g
                                   id="g30615"
                                   transform="translate(0.92006037,1.3687834)">
                                <g
                                   id="g31433"
                                   transform="translate(-2.4678886,-1.410222)">
                                <g
                                   id="g31731"
                                   transform="translate(1.0576664,-0.70511063)">
                                <g
                                   id="g33243"
                                   transform="matrix(1.0772948,0,0,1.0772948,-7.3729128,-3.1743014)">
                                <g
                                   id="g35254"
                                   transform="translate(-2.2135012,-0.92031205)">
                                <g
                                   id="g36749"
                                   transform="translate(-0.98178042,-2.7817105)">
                                <g
                                   id="g37297"
                                   transform="translate(-6.7755742,-3.5033798)">
                                <g
                                   id="g38955"
                                   transform="matrix(1.2171094,0,0,1.2171094,-23.105122,-18.212482)">
                                <g
                                   id="g39618"
                                   transform="translate(-0.26888273,-0.26888316)">
                                <g
                                   id="g40032"
                                   transform="translate(-1.90129,-3.042064)">
                                <g
                                   id="g40543"
                                   transform="translate(0.3802582,-2.0914191)">
                                <g
                                   id="g41372"
                                   transform="translate(1.9657652,-7.9304203)">
                                <g
                                   id="g43278"
                                   transform="translate(1.5210324,-0.38025789)">
                                <g
                                   id="g44210"
                                   transform="matrix(1.1578947,0,0,1.1578947,-18.904476,-21.776183)">
                                <g
                                   id="g44833"
                                   transform="matrix(1.1196819,0,0,1.1196819,-12.538538,-14.547543)">
                                <g
                                   id="g47597"
                                   transform="translate(3.1109352,-1.2443743)">
                                <g
                                   id="g48754"
                                   transform="translate(-2.9035392,-6.6366609)">
                                <g
                                   id="g234"
                                   transform="matrix(0.04089637,0,0,0.04089637,104.63967,119.67231)">
                                <g
                                   id="g2138"
                                   transform="translate(-86.211222,-40.569988)">
                                <g
                                   id="g2696"
                                   transform="translate(-124306.44,-9412.2373)">
                                <g
                                   id="g3765"
                                   transform="translate(25.356243,-50.712489)">
                                <g
                                   id="g4557"
                                   transform="translate(46.61688,-35.859142)">
                                <g
                                   id="g5244"
                                   transform="translate(7.1718407,14.343658)">
                                <g
                                   id="g5807"
                                   transform="translate(-5.1984397,-21.113724)">
                                <g
                                   id="g6945"
                                   transform="translate(-10.142522,-243.41993)">
                                <g
                                   id="g11108"
                                   transform="translate(18.189368,-37.636113)">
                                <g
                                   id="g15049"
                                   transform="translate(-65.926228,141.99496)">
                                <g
                                   id="g19861"
                                   transform="matrix(0.07356842,0,0,0.07356842,115423.38,9039.2311)">
                                <g
                                   id="g20437"
                                   transform="translate(-478.38824,-785.88156)">
                                <g
                                   id="g21032"
                                   transform="translate(2047.1878,-1072.3367)">
                                <g
                                   id="g21869"
                                   transform="matrix(0.04321578,0,0,0.04321578,117368,10137.003)">
                                <g
                                   id="g25455"
                                   transform="translate(154741.46,-87178.414)">
                                <g
                                   id="g26278"
                                   transform="translate(-18012.371,-8233.4417)">
                                <g
                                   id="g27240"
                                   transform="translate(-0.00447131,5582.7624)">
                                <g
                                   id="g28306"
                                   transform="translate(-15790.441,-2255.7767)">
                                <g
                                   id="g33735"
                                   transform="translate(14662.549,-16918.328)">
                                <g
                                   id="g37868"
                                   transform="translate(-5075.4976,25941.433)">
                                <g
                                   id="g76752"
                                   transform="matrix(-1,0,0,1,9442.3174,-1595.0746)">
                                <g
                                   id="g82459"
                                   transform="translate(3383.6668,-1127.8885)">
                                <g
                                   id="g83208"
                                   transform="matrix(0.20332428,0,0,0.20332428,-15348.528,66747.475)">
                                <g
                                   id="g83934"
                                   transform="matrix(-1,0,0,1,240692.18,94139.78)">
                                <g
                                   id="g84550"
                                   transform="translate(-8.7627443e-5,55472.344)">
                                <g
                                   id="g9096"
                                   transform="translate(31379.925,-62759.843)">
                                <g
                                   id="g11527"
                                   transform="translate(61019.625,105397.54)">
                                <g
                                   id="g13422"
                                   transform="translate(-44377.907,44377.908)">
                                <g
                                   id="g1137"
                                   transform="translate(-3.3240812e-4,138680.92)">
                                <g
                                   id="g3632"
                                   transform="translate(177511.65,-22188.943)">
                                <g
                                   id="g5936"
                                   transform="translate(11767.473,-47069.909)">
                                <g
                                   id="g7318">
                                <g
                                   id="g11619"
                                   transform="translate(27457.436,-223581.94)" />
                                <g
                                   id="g11985"
                                   transform="translate(70604.821,-133364.68)">
                                <g
                                   id="g12707"
                                   transform="matrix(1.186974,0,0,1.186974,95904.637,-164033.62)">
                                <g
                                   id="g4721"
                                   transform="matrix(-1,0,0,1,-561251.4,-59483.037)">
                                <g
                                   id="g7072">
                                <g
                                   id="g10426"
                                   transform="translate(66928.962,-211126.69)">
                                <g
                                   id="g11693"
                                   transform="translate(967399.8,-74774.864)">
                                <g
                                   id="g12809"
                                   transform="translate(37387.427,-102815.44)">
                                <g
                                   id="g2473"
                                   transform="translate(132184.53,-3304.6135)">
                                <g
                                   id="g4713"
                                   transform="translate(98142.015,-79448.29)">
                                <g
                                   id="g6093"
                                   transform="translate(-28040.619,-18693.712)">
                                <g
                                   id="g10695"
                                   transform="translate(51630.439,7541.1673)">
                                <g
                                   id="g11274"
                                   transform="translate(10950.525,104212.74)">
                                <g
                                   id="g12675"
                                   transform="translate(-91131.868,23367.145)">
                                <g
                                   id="g13439">
                                <g
                                   id="g14292"
                                   transform="translate(9346.8309,-46734.289)">
                                <path
                                   style="fill:#fdf5d5;stroke-width:3006.09"
                                   d="m -1689748.7,1305828.4 c 63585.7,-12594.9 117003.1,-40886.1 155276.2,-82238.1 48473.3,-52372.8 60737,-128564.8 30859,-191721.7 -27036,-57149.4 -97854.8,-105040.34 -175355.6,-118583.47 -10604.8,-1853.16 -33516.7,-3015.53 -50915.4,-2583.04 -23479.8,583.66 -31962.2,-198.4 -32907.4,-3034.05 -700.4,-2101.23 3821.4,-14129.14 10048.4,-26728.66 8089.8,-16368.55 17410.3,-28959.53 32649.2,-44105.69 36464.1,-36241.92 72673.2,-50983.07 125037.5,-50904.22 26586.1,39.98 35356.6,1357.64 55612.7,8354.8 40401.9,13956.2 61810.5,29604.86 88187.2,64460.57 48050.5,63496.76 199526.2,280508.46 225949.3,323706.26 23511.4,38437.6 75203.2,75230.1 123249.7,87724.9 26341.9,6850.3 76332.7,6722.4 101946.9,-261 21731.49,-5924.8 52940.01,-20949.8 70903.37,-34135.8 18978.32,-13930.9 57436.21,-50884.4 84144.74,-80853 41943.77,-47063.6 58684.61,-88943.7 58600.15,-146598.4 -55.13,-37627.83 -5653.66,-62271.71 -21390.97,-94159.6 -19805,-40130.08 -40246.32,-59477.37 -116222.72,-110002.46 -63122.91,-41977.41 -224157.47,-155688.76 -272075.97,-192121.02 -51106.3,-38855.92 -77095.2,-89756.55 -77208.2,-151216.05 -88.7,-48204.06 16182.5,-87293.22 50772.2,-121973.23 23038.7,-23098.8 62079.2,-47054.16 71065.4,-43605.85 3096,1188.01 3627.6,7543.22 2342.6,28005.2 -4432.5,70582.42 23436,145327.15 72674.3,194916.53 37332.5,37598.6 71730.8,52499.61 121192.84,52499.61 13880.79,0 33549.51,-2144.33 43708.27,-4765.2 71569.67,-18464.34 129595.38,-87067.03 152831.37,-180689.63 9504.1,-38293.97 9482.12,-115485.15 -45.42,-159494.53 -12488.43,-57686.26 -36637.03,-112999.96 -68888.97,-157793.967 -35171.02,-48848.269 -125832.57,-129031.569 -194355.09,-171892.443 -178005.5,-111342.46 -400071.6,-151025.45 -604440.3,-108012.85 -177929.2,37447.99 -337961.8,133154.967 -459724.3,274936.643 -183984.7,214233.987 -245377.4,500522.667 -165946.8,773849.967 28521.1,98143.52 82774.1,201537.68 148219.6,282473.58 32418.2,40091.4 83365.6,91247 112077.2,112535.4 42494.2,31507.5 102345.8,58078 159565.5,70837.2 30816.7,6871.8 114489.2,8734.2 142563.5,3173.3 z"
                                   id="path14298" />
                                <path
                                   style="fill:#fdf0bb;stroke-width:3006.09"
                                   d="m -1707785.2,1307035.1 c 24165.9,-3188 43141,-8211.2 32606.4,-8631.8 -11639.3,-464.6 -68086.2,-21550.5 -95477.6,-35665.9 -37164.5,-19151.7 -70040.6,-44264.3 -106353,-81238.2 -139109,-141643.2 -221155.7,-322243.35 -236724.2,-521074.24 -1817.7,-23215.2 -1384.4,-26894.74 4070.9,-34570.04 5532.9,-7784.37 6233,-14366.38 7467.9,-70214.44 1123.3,-50799.4 2754.2,-68551.39 9284.2,-101054.71 8981,-44703.79 25265.6,-98529.27 38546.6,-127408.21 13099.3,-28483.98 14245,-33734.02 9713.8,-44510.68 -3811.9,-9065.65 -3100,-11218.82 16993.1,-51398.87 22595.1,-45183.26 61997.9,-106564.51 94739.5,-147583.824 26229.4,-32860.654 97565.7,-104280.39 130440.5,-130592.972 113919.9,-91179.984 252890,-151937.914 396804,-173483.244 l 25551.8,-3825.35 -25551.8,-2518.71 c -33047.6,-3257.59 -111886,-553.22 -157819.7,5413.66 -149279.4,19391.65 -297983.6,83883.42 -413968.6,179534.682 -65770.6,54240.151 -140017.8,137983.104 -181873.1,205133.348 -90301.8,144875.34 -134296.8,316240.95 -124121.3,483466.73 7170.8,117846.4 32675.8,214544.99 84180.9,319159.57 40532.4,82327.4 84256.3,144542.5 148345.6,211082.3 64736,67211.2 134697.3,106428.5 221372.3,124091.7 34709.8,7073.4 91848.6,9836.8 121771.8,5889.2 z m 707227.4,-38798 c 33852.46,-9170.9 34239.34,-9766.4 13846.43,-21312.6 -22635.33,-12815.8 -59554.33,-49959.1 -74582.23,-75035.4 -14947.2,-24941.5 -69739.4,-104800.8 -135094.3,-196898.93 -98100.4,-138243.39 -109820.2,-152605.56 -145042.9,-177745.74 -47115.1,-33628.27 -103963.7,-44414.45 -162524.5,-30836.54 -13620.6,3158.08 -16499.9,2972.45 -22545.7,-1453.39 -53155.5,-38912.76 -100561.1,-56003.38 -155341.2,-56003.38 -66668.8,0 -124167.9,24027.5 -172001.6,71875.36 -36777.4,36788.27 -58201.5,76591.26 -67563.9,125524.2 -24383.7,127442.32 54395.7,250546.52 181777.8,284054.02 29980.2,7886.2 82875.2,8439.8 114512.2,1198.6 29799.8,-6820.9 78728.5,-30853.9 98592.4,-48427.2 8758.7,-7748.7 15472.8,-14540.6 14920.2,-15093.1 -552.5,-552.5 -10424.2,2581.3 -21937,6964.1 -18294.5,6964.5 -25478.4,7988.6 -57005.5,8126.5 -44966.9,196.6 -68913.8,-6518.1 -101879.4,-28566.9 -51783.5,-34634.9 -80052.6,-87682.5 -79944.7,-150017.9 90.5,-52280.17 15691.7,-90934.38 51059.1,-126505.9 25905.4,-26054.97 48775,-39299.08 82956.1,-48041.16 69646.9,-17812.65 143224.2,8477.93 187468.1,66985.96 34165.8,45180.74 140710.7,196267 186000,263757.9 60292.8,89849.4 62295.5,92422.7 85505,109869.6 39364.7,29591 70705.6,40545.8 120913.9,42263.8 29272.3,1001.6 40190.2,119 57911.7,-4681.9 z m -236203,-695311.6 c -24963.7,-32987.1 -36644.2,-68503.89 -36644.2,-111423.02 0,-62682.29 28536.6,-115104.7 81180.2,-149129.89 24951.9,-16127.23 52191,-24509.44 86016.9,-26469.74 65836.6,-3815.42 123899.83,24755.7 160001.14,78731.65 23255.84,34770.35 29051.69,55302.52 28884.81,102326.29 -123.67,34849.79 -1003.18,41344.6 -8126.44,60011.62 -4393.26,11512.84 -7509.3,21410.88 -6924.53,21995.66 2764.9,2764.91 33129.54,-39565.51 43731.42,-60964.64 17707.26,-35740.83 24662.03,-65404.61 25019.97,-106716.23 333.75,-38518.58 -3369.01,-59610.55 -16469.64,-93815.78 -17724.47,-46277.87 -58301.57,-94742.58 -101080.98,-120729.69 -100798.25,-61231.7 -237030.25,-38815.79 -311814.65,51306.67 -19776.6,23832.77 -43748.3,71330.03 -51284.1,101613.93 -7777.9,31257.03 -7165,83114.45 1364.9,115469.13 14072.5,53378.88 41929.2,95674.31 87744.3,133224.09 15593.1,12780.03 29311.4,23263.78 30485.1,23297.2 1173.8,33.37 -4264.1,-8393.81 -12084.2,-18727.25 z"
                                   id="path14296" />
                                <path
                                   style="fill:#faaa30;stroke-width:3006.09"
                                   d="m -1643154.2,1193855.8 c 20806.4,-3497.6 53513.3,-14086.4 71520.8,-23154.8 19402.2,-9770.8 59160.2,-37474 56950.9,-39683.2 -589.2,-589.2 -7849.8,1504.4 -16134.8,4652.4 -23883.7,9075.1 -61187.6,13106.8 -85857.4,9279.1 -42600.8,-6609.7 -75381.1,-22875.8 -103958.7,-51585.8 -100382.1,-100847.34 -54031.1,-270562.22 83309.8,-305040.16 13902,-3489.92 27882.1,-4480.22 49600.5,-3513.49 36805.2,1638.29 64108,10146.4 91513.9,28517.62 10552.3,7073.66 19846.3,12861.2 20653.2,12861.2 806.9,0 -3650.4,-6425.52 -9905.1,-14278.94 -54845.1,-68863.77 -116729.3,-100543.91 -196772.3,-100732.93 -51921.6,-122.65 -90255.6,10996.31 -132847.8,38532.94 -68451.5,44255.16 -108654.6,119268.71 -108654.6,202734.75 0,119010.51 81180.6,216648.41 198930,239257.81 20475.5,3931.6 64212,5085.1 81651.6,2153.5 z m -471273,-565961.46 c 7438.7,-5851.21 7521.6,-6441.24 9189.8,-65382.48 2653.4,-93752.59 17228.8,-161950.3 51803,-242384.16 12792.7,-29761.08 12383.7,-38715.11 -2140.9,-46867.54 -11495.1,-6452 -23164.7,-1516.18 -31642,13383.45 -11327.1,19908.53 -30647.4,71832.74 -40018.9,107552.97 -16696.1,63637.6 -21874.8,102982.49 -22172.9,168455.15 -269.4,59174.69 -218.6,59660.69 6825.2,65382.48 9074,7370.67 18669.2,7323.02 28156.7,-139.78 z m 875099.9,-56471.89 c -24805.1,-32275.61 -39476,-82705.53 -35814.6,-123109.98 6678.5,-73700.66 51509.8,-130819.91 121847.7,-155245.72 50172,-17422.91 110950.4,-10160.32 155182.19,18543.22 25434,16505.01 52896.63,47210.99 65553.85,73295.84 10927.39,22519.92 19884.03,58804.04 19884.03,80551.93 0,15488.26 -7721.61,53278.16 -13915.16,68101.43 -4461.79,10678.54 -4433.64,11052.26 522.52,6938.99 10306.06,-8553.26 34180.67,-45715.97 43011.28,-66950.45 19985.53,-48058.11 23975.59,-114525.13 9779.23,-162903.65 -24515.48,-83544.08 -90753.08,-148270.3 -174297.04,-170319.98 -32550.9,-8591.11 -86294.4,-8484.69 -119115.5,235.98 -72236.8,19193.32 -127202.2,65050.76 -159145.8,132774.74 -14069.1,29828 -19733.7,52541.9 -21833.3,87547.26 -4341,72375.52 22289.2,141105.19 73200.3,188922.09 16356.6,15362.39 41747,35897.24 44385.4,35897.24 950.9,0 -3209.5,-6425.52 -9245.1,-14278.94 z"
                                   id="path14294" />
                                </g>
                                </g>
                                </g>
                                </g>
                                </g>
                                </g>
                                </g>
                                </g>
                                </g>
                                </g>
                                </g>
                                </g>
                                </g>
                                </g>
                                </g>
                                </g>
                                </g>
                                </g>
                                </g>
                                </g>
                                </g>
                                </g>
                                </g>
                                </g>
                                </g>
                                </g>
                                </g>
                                </g>
                                </g>
                                </g>
                                </g>
                                </g>
                                </g>
                                </g>
                                </g>
                                </g>
                                </g>
                                </g>
                                </g>
                                </g>
                                </g>
                                </g>
                                </g>
                                </g>
                                </g>
                                </g>
                                </g>
                                </g>
                                </g>
                                </g>
                                </g>
                                </g>
                                </g>
                                </g>
                                </g>
                                </g>
                                </g>
                                </g>
                                </g>
                                </g>
                                </g>
                                </g>
                                </g>
                                </g>
                                </g>
                                </g>
                                </g>
                              </g>
                            </g>
                          </g>
                        </g>
                      </g>
                    </g>
                  </g>
                </g>
              </g>
            </g>
          </g>
        </g>
      </g>
    </g>
  </g>
</svg>
