<?xml version="1.0" encoding="UTF-8" standalone="no"?>
<!-- Created with Inkscape (http://www.inkscape.org/) -->

<svg
   width="64"
   height="64"
   viewBox="0 0 16.933333 16.933334"
   version="1.1"
   id="svg5"
   inkscape:version="1.2 (dc2aedaf03, 2022-05-15)"
   sodipodi:docname="chaume.svg"
   xmlns:inkscape="http://www.inkscape.org/namespaces/inkscape"
   xmlns:sodipodi="http://sodipodi.sourceforge.net/DTD/sodipodi-0.dtd"
   xmlns="http://www.w3.org/2000/svg"
   xmlns:svg="http://www.w3.org/2000/svg">
  <sodipodi:namedview
     id="namedview7"
     pagecolor="#ffffff"
     bordercolor="#666666"
     borderopacity="1.0"
     inkscape:pageshadow="2"
     inkscape:pageopacity="0.0"
     inkscape:pagecheckerboard="0"
     inkscape:document-units="mm"
     showgrid="false"
     units="px"
     inkscape:zoom="11.313709"
     inkscape:cx="16.52862"
     inkscape:cy="32.084969"
     inkscape:window-width="1920"
     inkscape:window-height="1017"
     inkscape:window-x="3832"
     inkscape:window-y="-8"
     inkscape:window-maximized="1"
     inkscape:current-layer="g24529"
     inkscape:showpageshadow="2"
     inkscape:deskcolor="#d1d1d1" />
  <defs
     id="defs2" />
  <g
     inkscape:label="Calque 1"
     inkscape:groupmode="layer"
     id="layer1">
    <g
       id="g4128"
       transform="translate(-0.63104184,0.12620835)">
      <g
         id="g5578"
         transform="translate(0.08924235,0.08924306)">
        <g
           id="g7501"
           transform="translate(-0.06310417,0.94656242)">
          <g
             id="g9467"
             transform="translate(-0.08924275,-0.80318511)">
            <g
               id="g10302"
               transform="translate(0.31234979,-0.04462139)">
              <g
                 id="g11479"
                 transform="translate(-0.12620833,0.06310418)">
                <g
                   id="g11873"
                   transform="translate(-0.23575769,0.66462456)">
                  <g
                     id="g12382"
                     transform="translate(-121.98459,-82.267525)">
                    <g
                       id="g13305"
                       transform="matrix(0.13266609,0,0,0.13266609,114.63867,78.215696)">
                      <g
                         id="g17429"
                         transform="translate(0.90513437,5.6640979)">
                        <g
                           id="g18595"
                           transform="translate(-3.3634362,-8.7449387)">
                          <g
                             id="g21002"
                             transform="translate(1.7082278,-2.8204445)">
                            <g
                               id="g23814"
                               transform="translate(8.7253043,-1.1218249)">
                              <g
                                 id="g24838"
                                 transform="translate(11.143454,-0.85716864)">
                                <g
                                   id="g25315"
                                   transform="translate(-3.490122,2.4929446)">
                                <g
                                   id="g27220"
                                   transform="translate(2.4678888,1.2339445)">
                                <g
                                   id="g29753"
                                   transform="translate(1.4759287,-2.3737724)">
                                <g
                                   id="g30615"
                                   transform="translate(0.92006037,1.3687834)">
                                <g
                                   id="g31433"
                                   transform="translate(-2.4678886,-1.410222)">
                                <g
                                   id="g31731"
                                   transform="translate(1.0576664,-0.70511063)">
                                <g
                                   id="g33243"
                                   transform="matrix(1.0772948,0,0,1.0772948,-7.3729128,-3.1743014)">
                                <g
                                   id="g35254"
                                   transform="translate(-2.2135012,-0.92031205)">
                                <g
                                   id="g36749"
                                   transform="translate(-0.98178042,-2.7817105)">
                                <g
                                   id="g37297"
                                   transform="translate(-6.7755742,-3.5033798)">
                                <g
                                   id="g38955"
                                   transform="matrix(1.2171094,0,0,1.2171094,-23.105122,-18.212482)">
                                <g
                                   id="g39618"
                                   transform="translate(-0.26888273,-0.26888316)">
                                <g
                                   id="g40032"
                                   transform="translate(-1.90129,-3.042064)">
                                <g
                                   id="g40543"
                                   transform="translate(0.3802582,-2.0914191)">
                                <g
                                   id="g41372"
                                   transform="translate(1.9657652,-7.9304203)">
                                <g
                                   id="g43278"
                                   transform="translate(1.5210324,-0.38025789)">
                                <g
                                   id="g44210"
                                   transform="matrix(1.1578947,0,0,1.1578947,-18.904476,-21.776183)">
                                <g
                                   id="g44833"
                                   transform="matrix(1.1196819,0,0,1.1196819,-12.538538,-14.547543)">
                                <g
                                   id="g47597"
                                   transform="translate(3.1109352,-1.2443743)">
                                <g
                                   id="g48754"
                                   transform="translate(-2.9035392,-6.6366609)">
                                <g
                                   id="g234"
                                   transform="matrix(0.04089637,0,0,0.04089637,104.63967,119.67231)">
                                <g
                                   id="g2138"
                                   transform="translate(-86.211222,-40.569988)">
                                <g
                                   id="g2696"
                                   transform="translate(-124306.44,-9412.2373)">
                                <g
                                   id="g3765"
                                   transform="translate(25.356243,-50.712489)">
                                <g
                                   id="g4557"
                                   transform="translate(46.61688,-35.859142)">
                                <g
                                   id="g5244"
                                   transform="translate(7.1718407,14.343658)">
                                <g
                                   id="g5807"
                                   transform="translate(-5.1984397,-21.113724)">
                                <g
                                   id="g6945"
                                   transform="translate(-10.142522,-243.41993)">
                                <g
                                   id="g11108"
                                   transform="translate(18.189368,-37.636113)">
                                <g
                                   id="g15049"
                                   transform="translate(-65.926228,141.99496)">
                                <g
                                   id="g19861"
                                   transform="matrix(0.07356842,0,0,0.07356842,115423.38,9039.2311)">
                                <g
                                   id="g20437"
                                   transform="translate(-478.38824,-785.88156)">
                                <g
                                   id="g21032"
                                   transform="translate(2047.1878,-1072.3367)">
                                <g
                                   id="g21869"
                                   transform="matrix(0.04321578,0,0,0.04321578,117368,10137.003)">
                                <g
                                   id="g25455"
                                   transform="translate(154741.46,-87178.414)">
                                <g
                                   id="g26278"
                                   transform="translate(-18012.371,-8233.4417)">
                                <g
                                   id="g27240"
                                   transform="translate(-0.00447131,5582.7624)">
                                <g
                                   id="g28306"
                                   transform="translate(-15790.441,-2255.7767)">
                                <g
                                   id="g33735"
                                   transform="translate(14662.549,-16918.328)">
                                <g
                                   id="g37868"
                                   transform="translate(-5075.4976,25941.433)">
                                <g
                                   id="g76752"
                                   transform="matrix(-1,0,0,1,9442.3174,-1595.0746)">
                                <g
                                   id="g82459"
                                   transform="translate(3383.6668,-1127.8885)">
                                <g
                                   id="g83208"
                                   transform="matrix(0.20332428,0,0,0.20332428,-15348.528,66747.475)">
                                <g
                                   id="g83934"
                                   transform="matrix(-1,0,0,1,240692.18,94139.78)">
                                <g
                                   id="g84550"
                                   transform="translate(-8.7627443e-5,55472.344)">
                                <g
                                   id="g9096"
                                   transform="translate(31379.925,-62759.843)">
                                <g
                                   id="g11527"
                                   transform="translate(61019.625,105397.54)">
                                <g
                                   id="g13422"
                                   transform="translate(-44377.907,44377.908)">
                                <g
                                   id="g1137"
                                   transform="translate(-3.3240812e-4,138680.92)">
                                <g
                                   id="g3632"
                                   transform="translate(177511.65,-22188.943)">
                                <g
                                   id="g5936"
                                   transform="translate(11767.473,-47069.909)">
                                <g
                                   id="g7318">
                                <g
                                   id="g11619"
                                   transform="translate(27457.436,-223581.94)" />
                                <g
                                   id="g11985"
                                   transform="translate(70604.821,-133364.68)">
                                <g
                                   id="g12707"
                                   transform="matrix(1.186974,0,0,1.186974,95904.637,-164033.62)">
                                <g
                                   id="g4721"
                                   transform="matrix(-1,0,0,1,-561251.4,-59483.037)">
                                <g
                                   id="g7072">
                                <g
                                   id="g10426"
                                   transform="translate(66928.962,-211126.69)">
                                <g
                                   id="g11693"
                                   transform="translate(967399.8,-74774.864)">
                                <g
                                   id="g12809"
                                   transform="translate(37387.427,-102815.44)">
                                <g
                                   id="g2473"
                                   transform="translate(132184.53,-3304.6135)">
                                <g
                                   id="g4713"
                                   transform="translate(98142.015,-79448.29)">
                                <g
                                   id="g6093"
                                   transform="translate(-28040.619,-18693.712)">
                                <g
                                   id="g10695"
                                   transform="translate(51630.439,7541.1673)">
                                <g
                                   id="g11274"
                                   transform="translate(10950.525,104212.74)">
                                <g
                                   id="g12675"
                                   transform="translate(-91131.868,23367.145)">
                                <g
                                   id="g13439">
                                <g
                                   id="g14292"
                                   transform="translate(9346.8309,-46734.289)">
                                <g
                                   id="g16374"
                                   transform="translate(-112356.85,125575.3)">
                                <g
                                   id="g17065"
                                   transform="translate(74774.872,-56081.146)">
                                <g
                                   id="g17792"
                                   transform="translate(0.01429257,-42959.977)">
                                <g
                                   id="g19043"
                                   transform="translate(16341.79,212504.01)">
                                <g
                                   id="g20969"
                                   transform="translate(-118966.09,26436.908)">
                                <g
                                   id="g22628"
                                   transform="translate(-18693.728,-37387.434)">
                                <g
                                   id="g23177"
                                   transform="translate(102815.45,-28040.575)">
                                <g
                                   id="g24529"
                                   transform="matrix(0.75901216,0,0,0.75901216,-371896.03,177286.32)">
                                <path
                                   style="fill:#fbcc71;stroke-width:4804.65"
                                   d="m -1413060.1,1408268.9 c 46084.3,-2504.6 130132.2,-10927.1 190936.6,-19134 l 58809,-7937.5 1249.1,-219083.8 1249.1,-219083.69 368132.84,-1230.85 368132.84,-1230.8 16973.53,-44413.31 c 35208.61,-92127.58 65719.17,-220759.88 83470.33,-351910.39 11879.88,-87771.85 11962.1,-305926.11 148.48,-393980.72 -11113.19,-82833.815 -28769.03,-169120.825 -49647.27,-242634.455 -9381.24,-33031.915 -21054.82,-76519.365 -25941.29,-96638.755 -43658.94,-179760.09 -231679.9,-334956.61 -523144.24,-431814.47 -398802.92,-132528.01 -916481.82,-125372.72 -1295146.72,17901.35 -145355.7,54997.73 -258892.8,123586.03 -344031.1,207830.75 -69674.1,68942.96 -105095.8,127639.46 -124039.3,205542.95 -4964.4,20416.08 -15763.3,60179.59 -23997.6,88363.34 -19975.5,68371.938 -40996.8,169605.666 -51714.8,249046.98 -12236,90692.62 -12277.5,317046.71 -74,403589.99 33527,237764.14 90427.5,403523.74 174654.7,508794.58 108126.9,135142.1 339394.8,253971.1 598276.8,307404.2 166643.5,34394.9 394461.5,50468.6 575703.2,40618.6 z"
                                   id="path24539" />
                                <path
                                   style="fill:#fbb93b;stroke-width:4804.65"
                                   d="m -1415462.4,1406351.6 c 198556.1,5808.2 254374,-68492.4 251579.2,-102489.2 1146.1,-121054.5 489.3,-242116.8 664.6,-363175.14 245813.2,-820.67 491626.5,-1641.33 737439.75,-2461.99 138760.21,-350981.55 144210.24,-748884.73 28453.71,-1106924.65 -41341.43,-210586.66 -243647.61,-334185.62 -426092.85,-413330.29 -365199.71,-146792 -775693.91,-163393.92 -1159224.51,-87109.47 -245947.5,56487.63 -510679.2,152317.88 -656662.3,371571.19 -59740.3,115773.4 -81890.6,247485.997 -109175.5,374078.374 -47118.7,294171.576 -23382.1,606546.726 97548.2,880730.486 114257.6,225510.59 365533.8,333633.59 598199.9,394603.49 207828.2,49024.7 424298.2,64801.7 637269.8,54507.2 z m 248736.6,-982050.42 c -87567.1,-136583.03 -175429.4,-272977.51 -262633.1,-409792.9 290828.6,-11064.587 582649.24,-2112.797 873908.9,-3668.553 96882.95,74665.716 90088.52,484619.963 10454.84,761625.363 h -618223.44 c -2423.9,-114980.47 3537,-243987.81 -3507.2,-348163.91 z m 258153.24,93517.84 c 18289.7,-57139.69 -111217.44,-44182.4 -73308.15,-43241.78 -27994.99,29485.12 6217.93,75943.63 11110.4,86483.56 41657.77,-3284.72 75101.12,17955.44 62197.75,-43241.78 z M -695126.41,333962.4 c 112628.52,-63730.53 -184671.38,-15882.82 -108502.09,-122636.7 -57782.98,68660.95 32491.56,170221.78 108502.09,122636.7 z m -341569.99,-73992.55 c 11456.3,-51614.16 -118015.3,-63613.92 -53026.2,-83280.47 -52912.8,-14000.13 -38421.8,117228.58 -30254.2,86483.57 27734.2,-700.53 55867.4,2012.88 83280.4,-3203.1 z"
                                   id="path24537"
                                   sodipodi:nodetypes="ccccccccccccccccccccccccccccc" />
                                <path
                                   style="fill:#f39819;stroke-width:4804.65"
                                   d="m -1449094.9,1406184.6 c 50208.5,-1592.7 105341.9,-4410.4 122518.4,-6261.6 50244.6,-5415.2 140813.2,-17185.3 152547.4,-19824.5 l 10810.5,-2431.4 V 905273.05 432879.09 l -135274.3,-210974.94 c -74400.7,-116036.21 -157961.3,-246649.417 -185690.2,-290251.551 -27729,-43602.129 -53674.2,-83060.259 -57656.2,-87684.729 -6889.6,-8001.22 20581.1,-8408.13 567659.43,-8408.13 566619.06,0 574899.44,-134.82 574899.44,-9361.27 0,-21419.24 -25441.44,-86943.32 -47735.37,-122941.77 -107407.09,-173432.43 -359392.42,-311575.18 -687375,-376830.96 -135319.2,-26923.27 -259883.1,-38545.13 -413199.2,-38551.66 -423473.2,-18.27 -799565.1,116247.44 -1003605,310255.58 -91183.4,86700.28 -141862,187487.02 -141130.4,280671.87 192.3,24456.399 -28.7,24993.462 -2967.1,7206.96 l -3174.6,-19218.57 -11060.8,39998.124 c -54570.5,197337.926 -73762.2,416434.196 -53312.5,608628.666 16653.9,156521.57 60867.7,333878.46 107798.5,432417.84 42771.2,89805.75 113628.2,170056.75 204179,231248.45 243397,164481 578803.8,240518.1 1001768,227101.6 z"
                                   id="path24535"
                                   sodipodi:nodetypes="ssscccssssssssssscsssss" />
                                <path
                                   style="fill:#f9a300;stroke-width:4804.65"
                                   d="m -1389036.8,1403479.1 c 55882.5,-3928.3 136167.9,-12500.7 175369.4,-18724.8 23782.9,-3776 44863.4,-6874.3 46845.3,-6884.9 1981.8,-9.7 3597.5,-26504.9 3590.2,-58876.2 l -14.4,-58856.8 -109292.3,-17975.5 c -517194.2,-85064 -941909.5,-267034.68 -1229976.8,-526987.71 -90525.8,-81690.9 -186144.5,-195793.53 -240534.7,-287032.06 l -24920.4,-41803.75 4.7,38114.12 c 19.3,119785.08 48544.4,366488.83 93949.6,477634.2 66804.9,163529 166407.6,260705.1 364888,355999.1 211265.3,101432.1 464699.4,149670.2 775949.9,147692.8 67385.1,-428.1 132247.8,-1462.4 144139.3,-2298.5 z m -63221,-934308.77 c 91808.2,-5194.01 273610.3,-30413.72 282366.6,-39170.09 1982.4,-1982.35 -74646.8,-122838.43 -335018.9,-528376.658 l -42415.7,-66063.842 h 574636.81 574636.7 l -3212.65,-20090.85 c -9785.44,-61194.81 -55298.78,-138144.72 -120346.61,-203471.33 -306802.96,-308118.07 -1047023.15,-417537.71 -1616773.95,-238992.19 -181167.3,56773.31 -320641.3,134860.74 -422840.1,236736.16 -74657.8,74421.32 -106180.3,128589.73 -122917.6,211222.53 -35811.8,176802.9704 89501,355475.87 337198.2,480783.06 285088.3,130543.55 586379,182807.15 894687.2,167423.21 z"
                                   id="path24533"
                                   sodipodi:nodetypes="sscccsssccssssscsscccssssscc" />
                                <path
                                   style="fill:#ef8f09;stroke-width:4804.65"
                                   d="m -1389036.8,1403479.1 c 55882.5,-3928.3 136167.9,-12500.7 175369.4,-18724.8 23782.9,-3776 44863.4,-6874.3 46845.3,-6884.9 1981.8,-9.7 3597.5,-26504.9 3590.2,-58876.2 l -14.4,-58856.8 -109292.3,-17975.5 c -517194.2,-85064 -941909.5,-267034.68 -1229976.8,-526987.71 -90525.8,-81690.9 -186144.5,-195793.53 -240534.7,-287032.06 l -24920.4,-41803.75 4.7,38114.12 c 19.3,119785.08 48544.4,366488.83 93949.6,477634.2 66804.9,163529 166407.6,260705.1 364888,355999.1 211265.3,101432.1 464699.4,149670.2 775949.9,147692.8 67385.1,-428.1 132247.8,-1462.4 144139.3,-2298.5 z"
                                   id="path24531" />
                                </g>
                                </g>
                                </g>
                                </g>
                                </g>
                                </g>
                                </g>
                                </g>
                                </g>
                                </g>
                                </g>
                                </g>
                                </g>
                                </g>
                                </g>
                                </g>
                                </g>
                                </g>
                                </g>
                                </g>
                                </g>
                                </g>
                                </g>
                                </g>
                                </g>
                                </g>
                                </g>
                                </g>
                                </g>
                                </g>
                                </g>
                                </g>
                                </g>
                                </g>
                                </g>
                                </g>
                                </g>
                                </g>
                                </g>
                                </g>
                                </g>
                                </g>
                                </g>
                                </g>
                                </g>
                                </g>
                                </g>
                                </g>
                                </g>
                                </g>
                                </g>
                                </g>
                                </g>
                                </g>
                                </g>
                                </g>
                                </g>
                                </g>
                                </g>
                                </g>
                                </g>
                                </g>
                                </g>
                                </g>
                                </g>
                                </g>
                                </g>
                                </g>
                                </g>
                                </g>
                                </g>
                                </g>
                                </g>
                                </g>
                                </g>
                              </g>
                            </g>
                          </g>
                        </g>
                      </g>
                    </g>
                  </g>
                </g>
              </g>
            </g>
          </g>
        </g>
      </g>
    </g>
  </g>
</svg>
