<?xml version="1.0" encoding="UTF-8" standalone="no"?>
<!-- Created with Inkscape (http://www.inkscape.org/) -->

<svg
   width="64"
   height="64"
   viewBox="0 0 16.933333 16.933334"
   version="1.1"
   id="svg5"
   inkscape:version="1.2 (dc2aedaf03, 2022-05-15)"
   sodipodi:docname="chocolat_aux_noisettes.svg"
   xmlns:inkscape="http://www.inkscape.org/namespaces/inkscape"
   xmlns:sodipodi="http://sodipodi.sourceforge.net/DTD/sodipodi-0.dtd"
   xmlns="http://www.w3.org/2000/svg"
   xmlns:svg="http://www.w3.org/2000/svg">
  <sodipodi:namedview
     id="namedview7"
     pagecolor="#ffffff"
     bordercolor="#666666"
     borderopacity="1.0"
     inkscape:pageshadow="2"
     inkscape:pageopacity="0.0"
     inkscape:pagecheckerboard="0"
     inkscape:document-units="mm"
     showgrid="false"
     units="px"
     inkscape:zoom="11.313709"
     inkscape:cx="27.400387"
     inkscape:cy="25.190678"
     inkscape:window-width="1920"
     inkscape:window-height="1017"
     inkscape:window-x="1912"
     inkscape:window-y="-8"
     inkscape:window-maximized="1"
     inkscape:current-layer="g16839"
     inkscape:showpageshadow="2"
     inkscape:deskcolor="#d1d1d1" />
  <defs
     id="defs2" />
  <g
     inkscape:label="Calque 1"
     inkscape:groupmode="layer"
     id="layer1">
    <g
       id="g4128"
       transform="translate(-0.63104184,0.12620835)">
      <g
         id="g5578"
         transform="translate(0.08924235,0.08924306)">
        <g
           id="g7501"
           transform="translate(-0.06310417,0.94656242)">
          <g
             id="g9467"
             transform="translate(-0.08924275,-0.80318511)">
            <g
               id="g10302"
               transform="translate(0.31234979,-0.04462139)">
              <g
                 id="g11479"
                 transform="translate(-0.12620833,0.06310418)">
                <g
                   id="g11873"
                   transform="translate(-0.23575769,0.66462456)">
                  <g
                     id="g12382"
                     transform="translate(-121.98459,-82.267525)">
                    <g
                       id="g13305"
                       transform="matrix(0.13266609,0,0,0.13266609,114.63867,78.215696)">
                      <g
                         id="g17429"
                         transform="translate(0.90513437,5.6640979)">
                        <g
                           id="g18595"
                           transform="translate(-3.3634362,-8.7449387)">
                          <g
                             id="g21002"
                             transform="translate(1.7082278,-2.8204445)">
                            <g
                               id="g23814"
                               transform="translate(8.7253043,-1.1218249)">
                              <g
                                 id="g24838"
                                 transform="translate(11.143454,-0.85716864)">
                                <g
                                   id="g25315"
                                   transform="translate(-3.490122,2.4929446)">
                                <g
                                   id="g27220"
                                   transform="translate(2.4678888,1.2339445)">
                                <g
                                   id="g29753"
                                   transform="translate(1.4759287,-2.3737724)">
                                <g
                                   id="g30615"
                                   transform="translate(0.92006037,1.3687834)">
                                <g
                                   id="g31433"
                                   transform="translate(-2.4678886,-1.410222)">
                                <g
                                   id="g31731"
                                   transform="translate(1.0576664,-0.70511063)">
                                <g
                                   id="g33243"
                                   transform="matrix(1.0772948,0,0,1.0772948,-7.3729128,-3.1743014)">
                                <g
                                   id="g35254"
                                   transform="translate(-2.2135012,-0.92031205)">
                                <g
                                   id="g36749"
                                   transform="translate(-0.98178042,-2.7817105)">
                                <g
                                   id="g37297"
                                   transform="translate(-6.7755742,-3.5033798)">
                                <g
                                   id="g38955"
                                   transform="matrix(1.2171094,0,0,1.2171094,-23.105122,-18.212482)">
                                <g
                                   id="g39618"
                                   transform="translate(-0.26888273,-0.26888316)">
                                <g
                                   id="g40032"
                                   transform="translate(-1.90129,-3.042064)">
                                <g
                                   id="g40543"
                                   transform="translate(0.3802582,-2.0914191)">
                                <g
                                   id="g41372"
                                   transform="translate(1.9657652,-7.9304203)">
                                <g
                                   id="g43278"
                                   transform="translate(1.5210324,-0.38025789)">
                                <g
                                   id="g44210"
                                   transform="matrix(1.1578947,0,0,1.1578947,-18.904476,-21.776183)">
                                <g
                                   id="g44833"
                                   transform="matrix(1.1196819,0,0,1.1196819,-12.538538,-14.547543)">
                                <g
                                   id="g47597"
                                   transform="translate(3.1109352,-1.2443743)">
                                <g
                                   id="g48754"
                                   transform="translate(-2.9035392,-6.6366609)">
                                <g
                                   id="g234"
                                   transform="matrix(0.04089637,0,0,0.04089637,104.63967,119.67231)">
                                <g
                                   id="g2138"
                                   transform="translate(-86.211222,-40.569988)">
                                <g
                                   id="g2696"
                                   transform="translate(-124306.44,-9412.2373)">
                                <g
                                   id="g3765"
                                   transform="translate(25.356243,-50.712489)">
                                <g
                                   id="g4557"
                                   transform="translate(46.61688,-35.859142)">
                                <g
                                   id="g5244"
                                   transform="translate(7.1718407,14.343658)">
                                <g
                                   id="g5807"
                                   transform="translate(-5.1984397,-21.113724)">
                                <g
                                   id="g6945"
                                   transform="translate(-10.142522,-243.41993)">
                                <g
                                   id="g11108"
                                   transform="translate(18.189368,-37.636113)">
                                <g
                                   id="g15049"
                                   transform="translate(-65.926228,141.99496)">
                                <g
                                   id="g19861"
                                   transform="matrix(0.07356842,0,0,0.07356842,115423.38,9039.2311)">
                                <g
                                   id="g20437"
                                   transform="translate(-478.38824,-785.88156)">
                                <g
                                   id="g21032"
                                   transform="translate(2047.1878,-1072.3367)">
                                <g
                                   id="g21869"
                                   transform="matrix(0.04321578,0,0,0.04321578,117368,10137.003)">
                                <g
                                   id="g25455"
                                   transform="translate(154741.46,-87178.414)">
                                <g
                                   id="g26278"
                                   transform="translate(-18012.371,-8233.4417)">
                                <g
                                   id="g27240"
                                   transform="translate(-0.00447131,5582.7624)">
                                <g
                                   id="g28306"
                                   transform="translate(-15790.441,-2255.7767)">
                                <g
                                   id="g33735"
                                   transform="translate(14662.549,-16918.328)">
                                <g
                                   id="g37868"
                                   transform="translate(-5075.4976,25941.433)">
                                <g
                                   id="g76752"
                                   transform="matrix(-1,0,0,1,9442.3174,-1595.0746)">
                                <g
                                   id="g82459"
                                   transform="translate(3383.6668,-1127.8885)">
                                <g
                                   id="g83208"
                                   transform="matrix(0.20332428,0,0,0.20332428,-15348.528,66747.475)">
                                <g
                                   id="g83934"
                                   transform="matrix(-1,0,0,1,240692.18,94139.78)">
                                <g
                                   id="g84550"
                                   transform="translate(-8.7627443e-5,55472.344)">
                                <g
                                   id="g1274"
                                   transform="translate(-66682.337,-43147.393)">
                                <g
                                   id="g2352"
                                   transform="translate(-74780.623,-22188.943)">
                                <g
                                   id="g4123"
                                   transform="translate(-47069.882,-15689.961)">
                                <g
                                   id="g5928">
                                <g
                                   id="g12050"
                                   transform="translate(78161.555,35375.784)">
                                <g
                                   id="g1093"
                                   transform="matrix(0.06385153,0,0,0.06385153,-151090.08,201736.02)">
                                <g
                                   id="g1970"
                                   transform="translate(-477269.04,568882.2)">
                                <g
                                   id="g1097"
                                   transform="rotate(180,7281171.5,-2851818.8)">
                                <g
                                   id="g1814"
                                   transform="translate(2547662.7,480719.64)">
                                <g
                                   id="g3865"
                                   transform="translate(552882.75,-3993042.7)">
                                <g
                                   id="g4873"
                                   transform="matrix(-1,0,0,1,8458829.5,2171928.6)">
                                <g
                                   id="g7483"
                                   transform="matrix(1.1002204,0,0,1.1002204,477121.62,-2453467.8)">
                                <g
                                   id="g8018"
                                   transform="translate(0.2655037,670026.67)">
                                <g
                                   id="g13730"
                                   transform="translate(446684.45,111671.19)">
                                <g
                                   id="g14695"
                                   transform="translate(-394816.71,-1342377.9)">
                                <g
                                   id="g16168"
                                   transform="translate(-344955.87,1017335.2)">
                                <g
                                   id="g16839"
                                   transform="matrix(0.60827628,0,0,0.60827628,1436551,1438799.3)">
                                <g
                                   id="g1049"
                                   transform="translate(-1835861.8,-550758.52)">
                                <path
                                   style="fill:#8c3421;stroke-width:75069.8"
                                   d="M -8976940.3,4282504.8 8655450.9,22161342 13044023,17833262 c 4158393,-4101072 4381747,-4331026 4258440,-4384253 -985646,-425464 -1100474,-495056 -1539548,-933048 -646638,-645049 -936362,-1284975 -1026724,-2267785 l -40995,-445885.1 -329992,-180277.5 c -743378,-406113.9 -1455851,-1378935.7 -1635521,-2233166.2 -213119,-1013260.8 31382,-2234816.9 592055,-2957983 475783,-613675.2 497274,-651984 392431,-699551.6 -201177,-91275.2 -748997,-946712.8 -916814,-1431631.6 -315698,-912232.6 -228845,-1990301.64 236726,-2938371.47 144151,-293544.66 347751,-555789.53 729391,-939484.53 631938,-635341 1192715,-938621.3 2034321,-1100208 l 536602,-103026.6 11306,-328583.4 c 15478,-449862.3 141513,-930985.8 380177,-1451284.7 218202,-475689.9 818518,-1146065.7 1417473,-1582899.6 l 321960,-234813.1 L 5548888.4,-19475944 -7367533.4,-32572897 l -9620898.6,9488282 -9620899,9488283 z"
                                   id="path1057" />
                                <path
                                   style="fill:#722211;stroke-width:75069.8"
                                   d="m -26511639,-13604184 c 24334,24674 203974,38444 399202,30600 l 354959,-14262 2337327,2369996 c 2194035,2224700.1 2338970,2383791 2364122,2595018.8 14737,123762.6 63670,249150.7 108738,278639.9 45069,29489.2 43463,40034.2 -3569,23433.3 -181699,-64134.7 -111115,349316.9 95380,558698.7 l 202681,205513.6 1602111,-1580026.7 1602110,-1580026.6 237068,77271 c 130387,42500 250105,90492 266041,106651 15935,16158 -632463,681697.9 -1440886,1478977.2 l -1469859,1449598.7 2372771,2405935.6 2372772,2405935.6 1790039,-1793126.2 1790039,-1793126.2 -2334811,-2395258.7 -2334813,-2395259 7888,-418553 7887,-418553 2751757,2790218.4 2751758,2790218.3 -2247950,2216963.5 -2247950,2216963.4 240465,210951.1 240464,210951 2231523,-2200763.1 2231523,-2200763.1 2754229.1,2792741.6 2754228.4,2792742.08 -2244876.4,2213932.62 -2244876.5,2213932.5 210850.8,213797.8 c 133127.9,134988.7 235762.6,189797.5 278432.6,148687.8 37168.2,-35812.4 1049386.8,-1030029.6 2249378.1,-2209368 L -4293694.5,50837.031 -1530777.3,2852371.1 1232139.3,5653904.7 -1012737.1,7867837.3 -3257613.6,10081770 l 210850.8,213798 c 115967.8,117588 229577.2,196704 252465.9,175812 22886,-20894 1035726.6,-1014480.3 2250756.53,-2207969.9 l 2209143.47,-2169983.2 2761535,2800132.7 2761535.5,2800133.4 -2244876.4,2213932 -2244876.4,2213933 210850.7,213798 210850.7,213797 2244876.4,-2213932 2244876.5,-2213933 2741058.9,2779371 2741060,2779371 181354,-178855 c 116065,-114465 163017,-220811 130418,-295396 -28015,-64098 -1246893,-1329213 -2708616,-2811367 L 8037968,11699584 10282844,9485651.6 c 2102269,-2073290.4 2250750,-2208003.3 2337324,-2120593.2 64570,65151.7 74778,15311.8 33897,-165224.3 -32202,-142210.4 -52780,-377904.4 -45729,-523764.2 7052,-145860.4 -18775,-272891.5 -57394,-282291.5 C 12502082,6381885.2 7585641,1439668.7 7044700.8,858668.47 6998455.1,808996.76 9946284.2,-2114420.1 10062591,-2134230 c 119284,-20317.5 430253,72807.3 508682,152332.6 38322,38857.2 -385534,492586.6 -1333507,1427492.88 L 7848080.6,816125.17 10193795,3194625.1 l 2345714,2378500 146960,-144986.6 c 80827,-79742.9 226960,-319830.8 324739,-533527.7 97779,-213697.5 309160,-552617 469735,-753155.1 283133,-353595.5 273391,-347898.7 -322345,188500.9 L 12544298,4883071.4 10514041,2852434.8 8483782.8,821798.69 9754422.3,-430166.28 C 10453271,-1118749.2 11129960,-1756174.7 11258170,-1846673.2 l 233108,-164543 704725,714574.1 c 753592,764125.48 799430,783647.65 920918,392215.59 45131,-145413.49 -14655,-221649.89 -791772,-1009628.19 l -840589,-852338.4 -2906,-377128.3 c -1598,-207420.5 20585,-360637.3 49295,-340481.3 28712,20154.5 81510,55187.7 117332,77849.2 35822,22661.1 488948,465393.3 1006947,983849.3 l 941816,942647.7 213797,-210850.8 213798,-210850.7 -1034011,-1048463.6 -1034012,-1048463.7 377866,-17762.2 377866,-17762.3 867452,905076 c 477098,497791.8 895516,898004.7 929819,889360.8 34302,-8642.8 157142,-76085.6 272977,-149871.6 179253,-114182.6 194967,-147457.3 105550,-223490.6 -57785,-49131.2 -391825,-387733.6 -742300,-752461.6 l -637282,-663087.3 1443135,-1423242.4 1443134,-1423242.4 579840,587943.8 579839,587943.9 187073,-184494.4 187074,-184494.4 -761401,-772042.4 -761400,-772042.4 -13789,-387652.2 c -11527,-324090.2 -53105,-427603.6 -253577,-631303.9 -205086,-208379.3 -292751,-243192.7 -605682,-240475.9 l -365892,3176.2 -2368684,-2401791.4 -2368684,-2401791 13073,-360927 c 11463,-316501 -18532,-392972 -243691,-621278 -224240.5,-227375 -303107.4,-259949 -622654.5,-257175 l -365891.8,3176 -2368985.3,-2402096 -2368984.8,-2402096 29482.2,-344288 c 26653.4,-311259 3304.5,-370831 -243389.8,-620974 -242650.2,-246041 -313394.1,-276333 -638763.2,-273509 l -365891.9,3176 -2351389.76,-2384254 -2351389.84,-2384255 8254.3,-365813 c 7302,-323605 -22665.5,-397164 -259726,-637538 -237974.5,-241301 -308411.2,-270825 -629073,-263683 l -361092.9,8042 -2352387.1,-2385266 -2352387.2,-2385266 -1974.8,-397882 -1974.3,-397881 -9578297.3,9446267 c -5268063,5195448 -9558388,9466455 -9534054,9491129 z m 7170174,-1603070 2725401,2763493 -419688,2083 -419688,2082 -2330118,-2362685 -2330119,-2362686 -14303,-361958 c -7867,-199078 3116,-380378 24405,-402891 21289,-22513 1265140,1202640 2764110,2722562 z m 751488,-841646 2338190,2370870 34690,329176 c 19080,181046 16652,346966 -5395,368711 -22046,21745 -1254495,-1191847 -2738772,-2696870 l -2698687,-2736406 365892,-3176 365892,-3177 z m 4128806,-4045493 c 1478591,1499257 2671452,2742583 2650804,2762946 -20648,20364 -192673,38372 -382276,40017 l -344734,2993 -2348601,-2381330 -2348600,-2381329 5240,-342239 c 2881,-188232 22020,-361306 42530,-384609 20510,-23304 1247046,1184294 2725637,2683551 z m 861607,-831585 c 2496028,2528178 2347795,2338456 2291469,2932912 l -20794,219461 -2708358,-2748886 -2708359,-2748885 430431,15390 430430,15390 z m 4051418.5,-4013718 c 1481803,1496088 2676949.6,2737161 2655884.7,2757936 -21065,20774 -193430.6,39118 -383033.8,40764 l -344733.6,2993 -2333539.7,-2366156 -2333540.1,-2366155 -20443,-352531 c -11243,-193893 -1168,-371541 22389,-394774 23558,-23233 1255215,1181832 2737016.5,2677923 z m -1849145.5,-3191177 319497,32061 2355743,2382308 2355742.9,2382308 -5906.5,322691 c -3244,177476 -17098.8,333730 -30784,347226 -13685.2,13497 -1234637.7,-1202125 -2713228.4,-2701382 -1478591,-1499257 -2668595,-2741975 -2644454,-2761597 24141,-19622 187667,-21249 363390,-3615 z m -8782123,13677596 2003929,2031937 -1470522,1422199 -1470523,1422199.7 -1255513,-1239527.7 c -690532,-681740 -1577476,-1598108 -1970985,-2036374 l -715471,-796847 1437578,-1417763 1437578,-1417762 z m 4916500,-4850428 2003082,2031079 -1443135,1423242 -1443135,1423243 -2003082,-2031079 -2003082,-2031078 1443135,-1423243 1443135,-1423242 z m 4918197,-4848706 2003928.9,2031938 -1470522.5,1422199 -1470522.4,1422199 -1937825,-1936821 c -1065804,-1065251 -1956001,-1978411 -1978219,-2029240 -31011,-70953 295189,-423375 1404419,-1517316 l 1444812,-1424896 z m 4916499.7,-4850427 2003081.8,2031079 -1443134.8,1423242 -1443134.9,1423243 -2003081.8,-2031079 -2003082,-2031079 1443135.1,-1423242 1443134.8,-1423242 z M -18664855,-10993185 c 65571,66488 69760,141463 11082,198328 -80627,78134 -90116,72399 -65268,-39453 15991,-71985 9254,-112059 -14973,-89054 -24227,23005 -52904,3114 -63728,-44201 -30520,-133419 17452,-142668 132887,-25620 z m -642900,818116 c -291925,306695.3 -784996,792969.7 -1095713,1080610.1 -310717,287640.4 -71869,36708.1 530773,-557627.4 602642,-594335.7 856866,-829677.7 564940,-522982.7 z m 885747,-571874 c 11394,11553 -15362,56587 -59458,100075 -44095,43488 -103150,55771 -131232,27297 -28082,-28475 -1326,-73509 59457,-100076 60784,-26566 119839,-38850 131233,-27296 z m 5104408,19235 c 932517,933989.8 2017985,2008767.9 2412152,2388396 l 716666,690232.6 312445.7,-308138.8 c 300423.8,-296282.7 323791.1,-305128.8 607315.8,-229920.1 l 294870.2,78218.7 -636040.3,627273 -636040.4,627273.5 -161873,-130306.6 c -89030,-71668.7 -1328748,-1326416 -2754930,-2788325.6 l -2593056,-2658020.7 371501,2578 371502,2578 1695485,1698163 z m 4823659.9,-3316051 2751757.4,2790218 -419688.3,2083 -419688.2,2082 -2345972,-2378761 -2345971.8,-2378761 -1974,-397882 c -1087,-218834 5170,-404927 13902,-413539 8733,-8612 1254168,1239940 2767634.9,2774560 z m 841416.3,-847448 2315207.8,2349941 8085.5,362129 c 4447.9,199171 -7112.8,377119 -25689.7,395440 -18576.4,18320 -1260272.8,-1210329 -2759324.9,-2730334 l -2725548.9,-2763643 436031,18263 436030.3,18264 2315207.8,2349941 z m 4873329.7,-4796075 2405915.15,2438409 -46352.32,327182 -46352.32,327182 -2724788.51,-2762873 -2724789,-2762873 365223.5,-2715 365223,-2716 2405915.1,2438409 z m -813770.2,777355 c 1443055.5,1463225 2623510.94,2693098 2623233.67,2733051 -277.28,39953 -156488.07,73995 -347134.47,75650 l -346630.4,3009 -2346042.6,-2378833 -2346042.6,-2378833 -2956.9,-340665 c -1626.2,-187367 29621.3,-348119 69439.3,-357227 39818.1,-9109 1253078.6,1180623 2696134,2643848 z m -10629916.7,10496436.1 2003929,2031937.5 -1470523,1422199.3 -1470522,1422199.2 -1937825,-1936821.5 c -1065804,-1065251.5 -1956003,-1978409.3 -1978219,-2029240.1 -31012,-70952.6 295189,-423375.1 1404419,-1517315.2 l 1444812,-1424896.3 z m 4916499.7,-4850427.1 2003081.8,2031079 -1470185.6,1449919.8 -1470184.9,1449919.8 -252250,-304764.1 c -138737,-167620.4 -1027951,-1093610.6 -1976031,-2057756.5 l -1723780,-1752990 1443135,-1423243 1443134,-1423242 2003082.3,2031079 z m 4918197.1,-4848706 2003928.9,2031937 -1470522.5,1422200 -1470522.5,1422199 -1937825.2,-1936822 c -1065804,-1065251 -1956000.7,-1978411 -1978219.1,-2029240 -31011.1,-70952 295189,-423375 1404419.4,-1517315 l 1444812.1,-1424897 z m 4916499.68,-4850427 2003081.82,2031078 -1443134.9,1423243 -1443134.82,1423242 -2003081.78,-2031079 -2003081.8,-2031078 1443134.8,-1423243 1443134.9,-1423242 z M -8040423.3,-7803048.5 c 137317.8,17369 270190.4,52388.9 295272.7,77821.7 25082.2,25432.9 -243023.2,330889.8 -595789.5,678793.5 l -641393.2,632552.1 2372771.6,2405935.6 2372771.6,2405935.6 1790039.4,-1793126.2 1790039.29,-1793126.2 -2329852.39,-2390271.6 -2329852.3,-2390272.7 -2982.2,-343595.3 c -1640.5,-188977 16351.5,-362663 39982,-385967 23630.5,-23305 1264580.6,1196318.2 2757667.2,2710273.5 L 192953.92,-5235449.4 -2050973.3,-3022453 -4294900.4,-809456.62 -7028331.3,-3552466.3 c -1503387.1,-1508655.3 -2733284.3,-2762902.3 -2733100.2,-2787220.2 181.5,-24315.3 331307.3,-370624.9 735835.1,-769576.6 730914.7,-720839.5 737060,-725171 985173.1,-693785.4 z m 6252362,-1146674.8 c 1222073.81,1245282.7 2268117.89,2337235.2 2324543.75,2426561 56425.86,89325.7 88899.81,311063.7 72165.03,492750.5 l -30427.39,330340 -2731736.59,-2772590.5 -2731736.6,-2772590.7 437619.7,15690 437620.7,15690 2221950.8,2264150.3 z M 2366745.3,-12861924 c 1477890.5,1499948 2671024.2,2743005 2651414.1,2762345 -19610,19340 -190785.3,36510 -380388.6,38156 l -344733.5,2993 -2346042.6,-2378833 -2346042.66,-2378833 -2991.84,-344734 c -1646.22,-189604 16066.64,-363530 39361.51,-386504 23294.87,-22974 1251535.81,1185461 2729423.59,2685410 z m -1906432.12,-3209990 309364.81,-18032 2371944.11,2408229 2371944.6,2408229 13288.1,329560 c 7307.1,181260 921.5,341757 -14191.3,356662 -15113.4,14905 -1237234.3,-1199565 -2715825,-2698822 -1478590.6,-1499257 -2678793.61,-2735343 -2667118.11,-2746857 11676.03,-11516 160443,-29051 330592.79,-38969 z m -3810160.18,8847784 2003081.8,2031078.7 -1469859.6,1449598.7 -1469859.5,1449598.7 -2003081.8,-2031078.7 -2003081.8,-2031078.6 1469859.5,-1449598.7 1469859.6,-1449598.7 z m 4887127.2,-4880210 c 1795796,1820895 1966430.6,2009835 1901220.3,2105176.9 -39402.4,57607.9 -699868.3,710911.9 -1467703.6,1451784.8 L 574734.55,-7200334.6 -1365141.6,-9167324.1 C -2432073.1,-10249168 -3304796.7,-11166162 -3304526,-11205088 c 271.2,-38925 645894.2,-707279 1434719.2,-1485230 l 1434226.4,-1414457 z m 4921212.2,-4845649 1976725.5,2004354 -1316146.4,1311460 c -723880.1,721304 -1364669.6,1370504 -1423975.4,1442670 l -107829.5,131209 -1995884.9,-2023781 -1995884.5,-2023781 1443134.9,-1423243 1443134.8,-1423242 z M 528020.58,-4655153.9 679662.73,-4741937.9 3415146.1,-1968221.1 6150630,805496.37 3878640.6,3018664.3 C 2629046.5,4235906.8 1594874.2,5207863.4 1580479.5,5178567.5 1566084.8,5149271.6 333739.48,3887674.6 -1158065.7,2375018.7 l -2712373.1,-2750283.6 2123408.1,-2096553 C -579156.52,-3624922.4 444616.66,-4607423.5 528020.06,-4655154.5 Z M -1235085,-2166535.2 -3024399.5,-372674.02 -653030,2031839.8 1718339.5,4436353.6 3535620.4,2644122.5 5352901.3,851891.36 2954474.4,-1580058.1 C 1635339.6,-2917630.2 555638.36,-4000395.1 555138.02,-3986202.4 c -499.81,14193.2 -806100.13,833043.5 -1790223.02,1819667.2 z M 2606685.8,-1184343.5 4609767.6,846735.13 3139908,2296333.8 1670048.4,3745932.5 -333033.39,1714853.9 -2336115.2,-316224.72 -866255.62,-1765823.4 603603.95,-3215422.1 Z m -819712.7,-4041620.1 c 40938.6,-40374.3 -134424.5,-212123.4 2641780.6,2587333.4 l 2206935.2,2225418.3 1094341,-1079256.3 1094340.9,-1079256.3 237067,77271.4 c 130386.9,42499.6 250499.3,90891.3 266916.2,107537.6 16417.3,16646.8 -603288.7,642028.7 -1377125.4,1389737.54 L 6544253.6,362293.86 4200356.7,-2017998.3 C 2911213.4,-3327159.1 1682311.2,-4576156.1 1469459.7,-4793543.5 l -387004.9,-395247 334887.6,-1455 c 184187.6,-799.4 350522,-16872.8 369630.7,-35718.1 z m 7326267.6,-2409784.6 2356447.3,2402452.5 -1686,368929 -1685,368929.5 -2735787.7,-2774025.8 -2735788.1,-2774026 381026,2644 381026.4,2644 z m -824402.3,775677.5 c 1460263.9,1477787.2 2654790.6,2720305.2 2654507.6,2761148.4 -284,40843.2 -156499,75614.5 -347146,77269.4 l -346630,3008.9 -2373315.1,-2406486.6 -2373315.1,-2406486.7 27281.2,-319792.3 c 15004.8,-175885.6 44452,-336837.2 65438.8,-357670.8 21001.6,-20817.5 1232916.9,1171221.3 2693178.6,2649009.7 z m -778120.3,812934.2 1989765.7,2017852.3 L 8047725.6,-2562620.9 6594966.9,-1095958.2 4588100.3,-3130874.5 2581233.2,-5165791.3 4051092.8,-6615390 5520952.3,-8064988.7 7510695.6,-6047114.3 Z m 4901116.9,-4866300.5 1973534,2001117.8 -1413403,1426662.4 c -777371,784664.5 -1437289,1426496.6 -1466484,1426294 -29195,-202.6 -929818,-903079.7 -2001385.1,-2006393 l -1948304.1,-2006025.2 1441254,-1421387 1441254.2,-1421387 z M 9343325.7,4042816 12106019,6844123.5 9865596.9,9053663.5 C 8422877.3,10476496 7600104.8,11250472 7554763.5,11227445 7516038,11207777 6271527.3,9949032.7 4789183.4,8430234.2 L 2094015.3,5668781.8 4337321,3455143.6 6580626.8,1241505.3 9343320.5,4042812.8 Z M 4721448.8,3873252.4 2932134.3,5667113.5 5277147.5,8044902.6 7622160.6,10422692 9439441.5,8630460.6 11256722,6838229.5 8884651.9,4433004.8 C 7580013.1,3110131.2 6512172.2,2039392.4 6511671.8,2053585.1 c -499.8,14193.2 -806100.1,833043.5 -1790223,1819667.3 z M 8537709.3,4829577.2 10567994,6888239.5 9097472,8310438.7 7626949.5,9732638 5596692.2,7702001.4 3566434.4,5671365.3 5036929.5,4221139.8 6507424,2770914.9 Z M -11526910,841621 -9154138.4,3247556.6 -7364099.1,1454430.4 -5574059.8,-338695.82 -7919039.3,-2744279.3 -10264019,-5149862.2 l -1817832,1792773.8 -1817831,1792773.8 z M -8266336.2,-2373692.2 -6262407.3,-341754.59 -7732929.7,1080444.7 -9203464.3,2502631.6 -11141290,565810.07 c -1065803,-1065251.51 -1956002,-1978409.37 -1978218,-2029240.07 -31012,-70952.7 295188,-423375.1 1404418,-1517315.3 l 1444813,-1424896.7 2003928.7,2031937.5 z M -5570377.3,6881407.5 -3197605.7,9287343 -1407566.4,7494216.8 382472.94,5701090.6 -1962506.6,3295507.2 -4307486.6,889924.27 -6125317.8,2682698.1 -7943149,4475471.9 Z M -2309803.4,3666094.3 -305874.52,5698031.9 -1776397,7120231.1 -3246931.6,8542418.1 -5250840.3,6538513.9 -7254749.1,4534609.6 -5784246.7,3084377 -4313744.4,1634144.5 -2309815.5,3666082 Z M 327101.91,12861315 2704812.2,15272258 4522093.1,13480027 6339374.1,11687796 3993659.8,9309296.1 1647945.6,6930796.1 -84789.684,8639647 C -1037794,9579514.9 -1869968.4,10371420 -1934066.7,10399435 c -105208.9,45984 114664.6,285375 2261168.61,2461880 z M 3620360.9,9679143.8 5650646.1,11737806 4180123.6,13160005 2709601.1,14582205 745406.38,12618628 C -334901.21,11538660 -1236960.1,10613476 -1259168.8,10562663 c -30994.4,-70913 295456.84,-423596 1404432.05,-1517284.8 L 1590075.6,7620481.5 Z M 12570015,5938422.6 c 17122,150341.7 20876,150367.8 40083,278.2 11655,-91082.3 12235,-174685 1289,-185783.7 -43385,-43991.1 -59353,27609.8 -41372,185505.5 z M 6315581.9,18933593 8687652.4,21338818 10490423,19531824 12293193,17724830 9950192.6,15349083 7607192.5,12973335 5775352.2,14750852 3943511.3,16528368 Z M 9576893.7,15718930 11607179,17777593 10136656,19199792 8666133.9,20621991 6701939,18658414 C 5621631.7,17578447 4719572.7,16653263 4697364,16602450 c -30994.5,-70914 295456.8,-423596 1404432,-1517285 l 1444812.4,-1424897 z m 1656085.3,-1634952 2345714,2378500 1607085,-1584933 1607086,-1584932 -154938,-84428 c -85216,-46435 -193833,-86188 -241372,-88340 -47539,-2152 -699928,593798 -1449753,1324334 l -1363319,1328245 -2003082,-2031078 -2003081.3,-2031079 1442472.3,-1450642 1442472,-1450641.5 835128,838686.7 c 459318,461279.8 998186,1009998.8 1197484,1219374.8 l 362357,380686 -83763,-458888 -83763,-458889 L 13606070,9225185.9 12522434,8120417.2 10704849,9912947.7 8887264.9,11705478 Z m 5813133,-520168 c 27281,27662 87871,41541 134644,30841 48766,-11155 36567,-41446 -28595,-71011 -126853,-57554 -181872,-36713 -106049,40170 z"
                                   id="path1053" />
                                </g>
                                <g
                                   id="g17564"
                                   transform="rotate(89.373811,25780116,8240999.4)">
                                <path
                                   style="fill:#ccad9c;stroke-width:19247"
                                   d="m 19538008,17217210 c -174672,-10648 -537172,-63092 -721763,-104419 -95273,-21330 -283408,-50831 -418079,-65558 -426240,-46610 -638747,-135380 -860692,-359535 -148412,-149891 -228088,-284987 -292755,-496390 -40557,-132586 -44275,-182241 -46105,-615767 -1095,-259353 -13334,-623122 -27198,-808374 -66123,-883546 54017,-1972992 326862,-2964039 277203,-1006872 674816,-1807168.9 1203490,-2422325.9 385953,-449089.9 939630,-885853.9 1455700,-1148319.6 119781,-60919.1 220919,-113441.3 224749,-116716 3831,-3274.7 -22929,-43238.6 -59466,-88808.7 -101725,-126873.7 -245827,-335757.1 -245827,-356339.4 0,-10111.9 32479,-28740.3 72176,-41396.5 661682,-210957.3 847503,-242865.9 1409843,-242093.8 322827,443.2 481839,9112.9 624701,34060.1 811663,141735.7 1544257,474318.3 2289372,1039328 467693,354644.7 1017481,903633.2 1400699,1398664.1 374900,484285.7 717164,1118526.7 888048,1645618.7 148995,459578 196237,776862 193441,1299173 -1925,359598 -8746,447851 -52067,673645 -41013,213765 -173004,702310 -196892,728770 -7403,8200 -91538,-42002 -312359,-186381 -87811,-57414 -162074,-101170 -165030,-97236 -2956,3934 -49474,98094 -103373,209246 -271379,559635 -784598,1200515 -1282854,1601956 -979250,788974 -2482682,1328657 -4085854,1466689 -312167,26877 -915052,35063 -1218767,16549 z"
                                   id="path17574" />
                                <path
                                   style="fill:#9c9560;stroke-width:19247"
                                   d="m 19603895,17211986 c -311413,-19415 -610976,-62615 -870676,-125559 -109179,-26463 -239097,-48179 -288705,-48259 -225194,-364 -513660,-76736 -695475,-184131 -58774,-34717 -151825,-109225 -206780,-165575 -273861,-280807 -368553,-620638 -342288,-1228403 8326,-192672 4669,-369903 -10327,-500422 -31995,-278467 -27727,-1097223 7676,-1472396 149448,-1583776 649352,-3013541 1379806,-3946358.5 173645,-221750.5 536973,-583882.7 787659,-785064.8 242852,-194896 511475,-368995 793003,-513959.5 141480,-72850.7 241276,-135010.6 228968,-142617.3 -40684,-25143.9 -310180,-422332.6 -295523,-435547.7 52387,-47234.2 586477,-190980.4 899924,-242207.7 284391,-46478.6 860545,-46323.3 1145197,308.8 1118351,183210.1 2104478,729026.6 3080486,1705034.5 847672,847672.2 1383559,1729543.2 1614611,2657052.2 193395,776340 167534,1492233 -81863,2266149 -24699,76646 -48600,142801 -53113,147011 -4512,4210 -111286,-59679 -237274,-141977 l -229068,-149631 -120309,243209 c -351005,709572 -950318,1387195 -1638360,1852436 -886066,599141 -2245693,1047588 -3576784,1179733 -370315,36764 -969153,51226 -1290785,31175 z"
                                   id="path17572" />
                                <path
                                   style="fill:#ad7c54;stroke-width:19247"
                                   d="m 19605372,17211397 c -284387,-16874 -670149,-73093 -913105,-133072 -80014,-19753 -219567,-41087 -310117,-47409 -211887,-14793 -432158,-71581 -582415,-150152 -162197,-84814 -375348,-301242 -452981,-459944 -122729,-250889 -179193,-648667 -141844,-999255 12393,-116335 9848,-230326 -8810,-394564 -35863,-315672 -35005,-1132869 1596,-1520513 147924,-1566703 618578,-2950526 1324637,-3894716.5 388748,-519860.3 1047068,-1069969.4 1647182,-1376427.5 187601,-95801.8 222168,-107652.4 250047,-85723.5 17793,13995.7 -2785,-17859 -45729,-70788.3 -42944,-52929.3 -127126,-166572.5 -187071,-252540.5 l -108991,-156305.5 167988,-59247.4 c 427503,-150775.7 805749,-213747.7 1303561,-217022.3 487089,-3204.1 846749,55478 1337178,218173.9 1189381,394568 2448176,1419086.2 3259474,2652846.6 389538,592380 631315,1188481 756678,1865590 43341,234092 49281,983820 9759,1231808 -44106,276753 -174358,770637 -214968,815107 -14724,16123 -267903,-134453 -408546,-242978 -51221,-39524 -72176,-47459 -72176,-27330 0,45048 -231839,488205 -349342,667763 -331476,506534 -762544,964685 -1233991,1311520 -905562,666205 -2315407,1152034 -3757711,1294895 -375190,37163 -931037,50414 -1270303,30285 z m 2795227,-4592276 c -6396,-6396 -22996,-7080 -36890,-1519 -15354,6144 -10794,10705 11628,11628 20290,836 31658,-3713 25262,-10109 z m 606682,-1119 c -13233,-5339 -34886,-5339 -48118,0 -13232,5340 -2406,9708 24059,9708 26464,0 37291,-4368 24059,-9708 z m 1881394,-757133 c 0,-52929 -6496,-96241 -14435,-96247 -7939,-7 -11434,43299 -7766,96235 8605,124175 22201,124182 22201,12 z m -3355078,-3609 c -6144,-15354 -10705,-10793 -11628,11629 -835,20289 3713,31657 10109,25261 6395,-6396 7079,-22996 1518,-36890 z m -19057,-183683 c -4880,-18727 -9193,-8065 -9585,23692 -393,31758 3600,47080 8872,34049 5272,-13031 5593,-39014 714,-57741 z m 0,-461928 c -4880,-18727 -9193,-8065 -9585,23692 -393,31758 3600,47080 8872,34049 5272,-13031 5593,-39015 714,-57741 z m 19057,-162763 c -6144,-15354 -10705,-10794 -11628,11628 -835,20290 3713,31658 10109,25262 6395,-6396 7079,-22996 1518,-36890 z m 19247,-134729 c -6144,-15354 -10705,-10794 -11628,11628 -835,20290 3713,31658 10109,25262 6395,-6396 7079,-22996 1518,-36890 z m 662953,-1435105.1 c 23940,-30526.9 23260,-31207.7 -7267,-7266.9 -32061,25143.7 -42257,40949.2 -26416,40949.2 3997,0 19154,-15157.1 33683,-33682.3 z m -161644,-247404.2 c -6396,-6395.6 -22996,-7079.4 -36890,-1519.6 -15354,6144.2 -10794,10704.9 11628,11628.4 20290,835.7 31657,-3713.3 25262,-10108.9 z"
                                   id="path17570" />
                                <path
                                   style="fill:#688924;stroke-width:19247"
                                   d="m 19682360,17209718 c -337989,-15355 -638030,-54795 -904609,-118910 l -173223,-41662 182847,-12937 c 558871,-39540 1150228,-215941 1802434,-537664 352499,-173882 727954,-408721 976764,-610944 309009,-251152 697294,-687458 800884,-899935 62581,-128362 1992,-265264 -128208,-289690 -102049,-19144 -173148,22735 -261155,153826 -535595,797802 -1637641,1470934 -2827270,1726901 -235049,50574 -697410,69589 -890207,36610 -166202,-28430 -332310,-104947 -384543,-177139 -34297,-47402 -35388,-61495 -13414,-173223 52960,-269277 246527,-693765 507459,-1112844 266104,-427385 600679,-811597 969362,-1113177 121437,-99335 155600,-180660 115844,-275769 -35231,-84285 -73359,-113758 -161962,-125195 -96248,-12425 -192763,52105 -461862,308799 -440365,420066 -877551,1035565 -1143241,1609529 l -93550,202094 52,-125106 c 197,-483132 203155,-1217428 500925,-1812333 301301,-601960 748379,-1172093 1139150,-1452697 250744,-180053 303171,-237703 303171,-333376 0,-63569 -11962,-92695 -56261,-136994 -86351,-86351 -171427,-77959 -338508,33394 -533670,355670 -1016271,934865 -1385048,1662271 -256932,506793 -389463,887132 -512910,1471948 l -24376,115482 -23315,-192470 c -33360,-275401 -32360,-1073980 1819,-1453149 153877,-1707035 687105,-3174412 1505154,-4141999.9 318853,-377138.8 807607,-780515.2 1266502,-1045264 279567,-161289.7 422891,-222984.5 453791,-195337.7 13715,12271 -9722,-20994.9 -52083,-73924.2 -42361,-52929.3 -126066,-166572.5 -186011,-252540.5 l -108991,-156305.5 167988,-59247.4 c 427503,-150775.7 805749,-213747.7 1303561,-217022.3 487089,-3204.1 846749,55478 1337178,218173.9 1189381,394568 2448176,1419086.2 3259474,2652846.6 389538,592380 631315,1188481 756678,1865590 43341,234092 49281,983820 9759,1231808 -43882,275348 -174307,770518 -214595,814734 -14491,15903 -268713,-136454 -452225,-271023 -52929,-38813 -80392,-52164 -61028,-29670 34535,40119 33307,44689 -64442,239792 -228826,456730 -491815,825645 -868568,1218410 -357991,373206 -708741,640258 -1197433,911692 -1181958,656496 -2882376,1031312 -4371758,963648 z m 6264901,-3526652 c 0,-3448 -23818,-27266 -52930,-52929 l -52929,-46661 46661,52929 c 43611,49471 59198,61756 59198,46661 z m -269458,-253566 c -46752,-47636 -89334,-86612 -94627,-86612 -5293,0 28628,38976 75380,86612 46751,47636 89333,86611 94626,86611 5293,0 -28628,-38975 -75379,-86611 z m -192470,-209361 c 0,-3996 -15157,-19153 -33683,-33682 -30527,-23941 -31207,-23260 -7267,7267 25144,32061 40950,42256 40950,26415 z m -2718640,-584290 c -50283,-3965 -132564,-3965 -182847,0 -50282,3965 -9142,7209 91424,7209 100565,0 141706,-3244 91423,-7209 z m -384940,-18367 c -18525,-4841 -48839,-4841 -67365,0 -18525,4841 -3368,8802 33683,8802 37050,0 52207,-3961 33682,-8802 z m 654398,0 c -18525,-4841 -48839,-4841 -67364,0 -18526,4841 -3369,8802 33682,8802 37050,0 52207,-3961 33682,-8802 z m -798751,-18727 c -13232,-5339 -34885,-5339 -48117,0 -13233,5339 -2406,9708 24059,9708 26464,0 37291,-4369 24058,-9708 z m 943470,116 c -13031,-5272 -39014,-5593 -57741,-714 -18727,4879 -8065,9193 23692,9585 31758,393 47080,-3600 34049,-8872 z m -1049729,-18251 c -6396,-6396 -22996,-7079 -36890,-1519 -15354,6145 -10794,10705 11628,11629 20290,835 31657,-3714 25262,-10109 z m 1154820,0 c -6395,-6396 -22996,-7079 -36890,-1519 -15354,6145 -10793,10705 11629,11629 20289,835 31657,-3714 25261,-10109 z m 76988,-19247 c -6395,-6396 -22996,-7079 -36890,-1519 -15354,6145 -10793,10705 11629,11629 20289,835 31657,-3714 25261,-10109 z m -1385784,-19247 c -6396,-6396 -22997,-7079 -36890,-1519 -15354,6145 -10794,10705 11628,11629 20290,835 31657,-3714 25262,-10109 z m 1462772,0 c -6395,-6396 -22996,-7079 -36890,-1519 -15354,6145 -10793,10705 11629,11629 20289,835 31657,-3714 25261,-10109 z m -1630783,-46106 c -15878,-10262 -37531,-18657 -48117,-18657 -10586,0 -6255,8395 9623,18657 15879,10262 37532,18658 48118,18658 10586,0 6255,-8396 -9624,-18658 z m -76988,-26811 c 0,-4161 -13441,-12722 -29870,-19027 -17128,-6573 -24854,-3346 -18111,7564 11303,18289 47981,27051 47981,11463 z m 2136418,-69424 c 15879,-10262 20209,-18657 9624,-18657 -10586,0 -32239,8395 -48118,18657 -15879,10262 -20209,18657 -9623,18657 10585,0 32238,-8395 48117,-18657 z m 134729,-57741 c 15879,-10262 20209,-18657 9624,-18657 -10586,0 -32239,8395 -48118,18657 -15879,10262 -20209,18657 -9623,18657 10585,0 32238,-8395 48117,-18657 z m 192470,-106641 c 0,-5293 -34644,8051 -76988,29653 -42343,21602 -76988,43607 -76988,48900 0,5293 34645,-8051 76988,-29653 42344,-21602 76988,-43607 76988,-48900 z m -2585198,-12450 c -6144,-15354 -10705,-10793 -11628,11629 -835,20289 3713,31657 10109,25261 6395,-6395 7079,-22996 1518,-36890 z m -19247,-76988 c -6144,-15354 -10705,-10793 -11628,11629 -835,20289 3713,31657 10109,25261 6395,-6395 7079,-22996 1518,-36890 z m 2913669,-96290 46846,-38040 -59013,32534 c -32456,17893 -80093,49652 -105858,70575 l -46846,38040 59012,-32534 c 32457,-17894 80093,-49652 105859,-70575 z m 396816,38549 c -6144,-15354 -10705,-10793 -11628,11629 -835,20289 3713,31657 10109,25261 6395,-6395 7079,-22996 1518,-36890 z m -3348979,-96235 c -6144,-15354 -10705,-10793 -11628,11629 -835,20289 3713,31657 10109,25261 6395,-6396 7079,-22996 1518,-36890 z m 3049581,-10826 c 23941,-30527 23260,-31208 -7266,-7267 -32061,25143 -42257,40949 -26416,40949 3997,0 19154,-15157 33682,-33682 z m 277194,-212754 c -6109,-6109 -26058,5225 -44331,25187 -31515,34427 -31491,34989 458,10933 31056,-23384 33966,-16550 37321,87666 l 3640,113026 7010,-112852 c 3855,-62069 2011,-117851 -4098,-123960 z m -200206,155013 c 23941,-30527 23260,-31208 -7266,-7267 -32061,25143 -42257,40949 -26416,40949 3997,0 19154,-15157 33682,-33682 z m -3145626,-57375 c -4880,-18727 -9193,-8065 -9585,23692 -393,31758 3600,47080 8872,34049 5272,-13031 5593,-39014 714,-57741 z m 3229783,-5178 c 19160,-21172 30506,-38494 25213,-38494 -5293,0 -25300,17322 -44460,38494 -19160,21172 -30506,38494 -25213,38494 5293,0 25300,-17322 44460,-38494 z m -3248784,-178035 c -4588,-23818 -8342,-4331 -8342,43306 0,47636 3754,67124 8342,43306 4587,-23819 4587,-62794 0,-86612 z m 0,-519669 c -4588,-23818 -8342,-4331 -8342,43306 0,47636 3754,67124 8342,43305 4587,-23818 4587,-62793 0,-86611 z m 19001,-143986 c -4880,-18727 -9193,-8065 -9585,23692 -393,31758 3600,47079 8872,34049 5272,-13031 5593,-39015 714,-57741 z m 18656,-125472 c -5339,-13232 -9708,-2406 -9708,24059 0,26464 4369,37291 9708,24058 5340,-13232 5340,-34885 0,-48117 z m 19648,-75785 c -6144,-15354 -10705,-10794 -11628,11628 -835,20290 3713,31657 10109,25262 6395,-6396 7079,-22996 1518,-36890 z m 19247,-96235 c -6144,-15354 -10705,-10794 -11628,11628 -835,20290 3713,31657 10109,25262 6395,-6396 7079,-22996 1518,-36890 z m 41888,-131121 c 0,-18197 -6115,-14640 -16542,9624 -9098,21172 -16541,51486 -16541,67365 0,18197 6115,14640 16541,-9624 9098,-21172 16542,-51486 16542,-67365 z m 117598,-317575 c 0,-10586 -8396,-6255 -18658,9623 -10261,15879 -18657,37532 -18657,48118 0,10586 8396,6255 18657,-9624 10262,-15878 18658,-37531 18658,-48117 z m 57741,-134729 c 0,-10586 -8396,-6255 -18658,9623 -10261,15879 -18657,37532 -18657,48118 0,10586 8396,6255 18657,-9624 10262,-15878 18658,-37531 18658,-48117 z m 58330,-105859 c 21603,-42343.1 34946,-76987.7 29653,-76987.7 -5293,0 -27297,34644.6 -48900,76987.7 -21602,42344 -34945,76988 -29652,76988 5292,0 27297,-34644 48899,-76988 z m 115482,-211716.8 c 11331,-21171.7 16271,-38494 10978,-38494 -5293,0 -18894,17322.3 -30225,38494 -11330,21171.8 -16270,38494.1 -10977,38494.1 5292,0 18894,-17322.3 30224,-38494.1 z m 250212,-365693.1 c 33536,-42343.4 56645,-76988 51352,-76988 -5293,0 -37063,34644.6 -70599,76988 -33537,42343.4 -56646,76988.1 -51353,76988.1 5293,0 37063,-34644.7 70600,-76988.1 z m 105858,-134729 c 19160,-21171.7 30506,-38494 25213,-38494 -5293,0 -25300,17322.3 -44460,38494 -19160,21171.7 -30506,38494 -25213,38494 5293,0 25300,-17322.3 44460,-38494 z m -149164,-71008.5 c -18525,-4841.1 -48839,-4841.1 -67365,0 -18525,4841.2 -3368,8802.1 33683,8802.1 37050,0 52207,-3960.9 33682,-8802.1 z m -144353,-18726.5 c -13232,-5339.3 -34885,-5339.3 -48117,0 -13233,5339.4 -2406,9708 24058,9708 26465,0 37292,-4368.6 24059,-9708 z m -1063397,-514189 c 0,-3996.7 -15157,-19153.8 -33682,-33682.3 -30527,-23940.7 -31208,-23260 -7267,7266.8 25144,32060.7 40949,42256.4 40949,26415.5 z m -153976,-133484.8 c 0,-3312.4 -28149,-31461.1 -62553,-62552.8 l -62552,-56530.2 56530,62552.8 c 52694,58307.9 68575,71399.7 68575,56530.2 z m -134729,-134729 c 0,-3312.4 -28149,-31461.2 -62553,-62552.8 l -62552,-56530.2 56530,62552.8 c 52694,58307.9 68575,71399.7 68575,56530.2 z m -153976,-173841 c 0,-3652.2 -19488,-23139.8 -43306,-43305.7 l -43305,-36665.4 36665,43305.8 c 34456,40696.7 49946,52067.8 49946,36665.3 z"
                                   id="path17568" />
                                <path
                                   style="fill:#904c2a;stroke-width:19247"
                                   d="m 19682360,17209718 c -337989,-15355 -638030,-54795 -904609,-118910 l -173223,-41662 182847,-12937 c 558871,-39540 1150228,-215941 1802434,-537664 352499,-173882 727954,-408721 976764,-610944 309009,-251152 697294,-687458 800884,-899935 62581,-128362 1992,-265264 -128208,-289690 -102049,-19144 -173148,22735 -261155,153826 -535595,797802 -1637641,1470934 -2827270,1726901 -235049,50574 -697410,69589 -890207,36610 -166202,-28430 -332310,-104947 -384543,-177139 -34297,-47402 -35388,-61495 -13414,-173223 52960,-269277 246527,-693765 507459,-1112844 266104,-427385 600679,-811597 969362,-1113177 121437,-99335 155600,-180660 115844,-275769 -35231,-84285 -73359,-113758 -161962,-125195 -96248,-12425 -192763,52105 -461862,308799 -440365,420066 -877551,1035565 -1143241,1609529 l -93550,202094 52,-125106 c 197,-483132 203155,-1217428 500925,-1812333 301301,-601960 748379,-1172093 1139150,-1452697 250744,-180053 303171,-237703 303171,-333376 0,-63569 -11962,-92695 -56261,-136994 -86351,-86351 -171427,-77959 -338508,33394 -533670,355670 -1016271,934865 -1385048,1662271 -256932,506793 -389463,887132 -512910,1471948 l -24376,115482 -23315,-192470 c -33360,-275401 -32360,-1073980 1819,-1453149 153877,-1707035 687105,-3174412 1505154,-4141999.9 393532,-465468.2 1059508,-976155 1577798,-1209893.3 l 118827,-53588.1 117709,140579.6 c 122941,146828.4 365484,377813.8 530001,504744.8 374722,289113.7 774182,457961.1 1138997,481442.2 l 176646,11369.8 -102169,127172.3 c -342114,425838.1 -599531,956597.6 -706602,1456919.6 -39246,183388 -44916,262476 -44726,623824 204,387532 3583,427117 53192,623345 29135,115243 68991,245746 88569,290005 33265,75200 44684,83339 174360,124265 930560,293690 1955667,85181 2835387,-576723 l 197253,-148414 14704,156525 c 58775,625637 463483,1256581 1164175,1814963 97919,78032 178035,146684 178035,152561 0,21561 -198872,406840 -285782,553651 -329274,556222 -927994,1178737 -1484943,1543959 -1235394,810118 -3085000,1275914 -4763634,1199652 z"
                                   id="path17566" />
                                </g>
                                </g>
                                </g>
                                </g>
                                </g>
                                </g>
                                </g>
                                </g>
                                </g>
                                </g>
                                </g>
                                </g>
                                </g>
                                </g>
                                </g>
                                </g>
                                </g>
                                </g>
                                </g>
                                </g>
                                </g>
                                </g>
                                </g>
                                </g>
                                </g>
                                </g>
                                </g>
                                </g>
                                </g>
                                </g>
                                </g>
                                </g>
                                </g>
                                </g>
                                </g>
                                </g>
                                </g>
                                </g>
                                </g>
                                </g>
                                </g>
                                </g>
                                </g>
                                </g>
                                </g>
                                </g>
                                </g>
                                </g>
                                </g>
                                </g>
                                </g>
                                </g>
                                </g>
                                </g>
                                </g>
                                </g>
                                </g>
                                </g>
                                </g>
                                </g>
                                </g>
                                </g>
                                </g>
                              </g>
                            </g>
                          </g>
                        </g>
                      </g>
                    </g>
                  </g>
                </g>
              </g>
            </g>
          </g>
        </g>
      </g>
    </g>
  </g>
</svg>
