<?xml version="1.0" encoding="UTF-8" standalone="no"?>
<!-- Created with Inkscape (http://www.inkscape.org/) -->

<svg
   width="64"
   height="64"
   viewBox="0 0 16.933333 16.933334"
   version="1.1"
   id="svg5"
   inkscape:version="1.1.1 (3bf5ae0d25, 2021-09-20)"
   sodipodi:docname="citronat.svg"
   xmlns:inkscape="http://www.inkscape.org/namespaces/inkscape"
   xmlns:sodipodi="http://sodipodi.sourceforge.net/DTD/sodipodi-0.dtd"
   xmlns="http://www.w3.org/2000/svg"
   xmlns:svg="http://www.w3.org/2000/svg">
  <sodipodi:namedview
     id="namedview7"
     pagecolor="#ffffff"
     bordercolor="#666666"
     borderopacity="1.0"
     inkscape:pageshadow="2"
     inkscape:pageopacity="0.0"
     inkscape:pagecheckerboard="0"
     inkscape:document-units="mm"
     showgrid="false"
     units="px"
     inkscape:zoom="8.0000004"
     inkscape:cx="5.4374998"
     inkscape:cy="32.437499"
     inkscape:window-width="1920"
     inkscape:window-height="1017"
     inkscape:window-x="1912"
     inkscape:window-y="-8"
     inkscape:window-maximized="1"
     inkscape:current-layer="g1379" />
  <defs
     id="defs2">
    <pattern
       id="EMFhbasepattern"
       patternUnits="userSpaceOnUse"
       width="6"
       height="6"
       x="0"
       y="0" />
    <pattern
       id="EMFhbasepattern-5"
       patternUnits="userSpaceOnUse"
       width="6"
       height="6"
       x="0"
       y="0" />
    <pattern
       id="EMFhbasepattern-56"
       patternUnits="userSpaceOnUse"
       width="6"
       height="6"
       x="0"
       y="0" />
    <pattern
       id="EMFhbasepattern-6"
       patternUnits="userSpaceOnUse"
       width="6"
       height="6"
       x="0"
       y="0" />
    <pattern
       id="EMFhbasepattern-62"
       patternUnits="userSpaceOnUse"
       width="6"
       height="6"
       x="0"
       y="0" />
    <pattern
       id="EMFhbasepattern-8"
       patternUnits="userSpaceOnUse"
       width="6"
       height="6"
       x="0"
       y="0" />
    <pattern
       id="EMFhbasepattern-81"
       patternUnits="userSpaceOnUse"
       width="6"
       height="6"
       x="0"
       y="0" />
    <pattern
       id="EMFhbasepattern-9"
       patternUnits="userSpaceOnUse"
       width="6"
       height="6"
       x="0"
       y="0" />
    <pattern
       id="EMFhbasepattern-52"
       patternUnits="userSpaceOnUse"
       width="6"
       height="6"
       x="0"
       y="0" />
    <pattern
       id="EMFhbasepattern-0"
       patternUnits="userSpaceOnUse"
       width="6"
       height="6"
       x="0"
       y="0" />
    <pattern
       id="EMFhbasepattern-7"
       patternUnits="userSpaceOnUse"
       width="6"
       height="6"
       x="0"
       y="0" />
    <pattern
       id="EMFhbasepattern-65"
       patternUnits="userSpaceOnUse"
       width="6"
       height="6"
       x="0"
       y="0" />
    <pattern
       id="EMFhbasepattern-3"
       patternUnits="userSpaceOnUse"
       width="6"
       height="6"
       x="0"
       y="0" />
    <pattern
       id="EMFhbasepattern-90"
       patternUnits="userSpaceOnUse"
       width="6"
       height="6"
       x="0"
       y="0" />
    <pattern
       id="EMFhbasepattern-4"
       patternUnits="userSpaceOnUse"
       width="6"
       height="6"
       x="0"
       y="0" />
    <pattern
       id="EMFhbasepattern-2"
       patternUnits="userSpaceOnUse"
       width="6"
       height="6"
       x="0"
       y="0" />
    <pattern
       id="EMFhbasepattern-40"
       patternUnits="userSpaceOnUse"
       width="6"
       height="6"
       x="0"
       y="0" />
    <pattern
       id="EMFhbasepattern-74"
       patternUnits="userSpaceOnUse"
       width="6"
       height="6"
       x="0"
       y="0" />
    <pattern
       id="EMFhbasepattern-656"
       patternUnits="userSpaceOnUse"
       width="6"
       height="6"
       x="0"
       y="0" />
    <pattern
       id="EMFhbasepattern-76"
       patternUnits="userSpaceOnUse"
       width="6"
       height="6"
       x="0"
       y="0" />
    <pattern
       id="EMFhbasepattern-1"
       patternUnits="userSpaceOnUse"
       width="6"
       height="6"
       x="0"
       y="0" />
    <pattern
       id="EMFhbasepattern-42"
       patternUnits="userSpaceOnUse"
       width="6"
       height="6"
       x="0"
       y="0" />
    <pattern
       id="EMFhbasepattern-73"
       patternUnits="userSpaceOnUse"
       width="6"
       height="6"
       x="0"
       y="0" />
    <pattern
       id="EMFhbasepattern-566"
       patternUnits="userSpaceOnUse"
       width="6"
       height="6"
       x="0"
       y="0" />
    <pattern
       id="EMFhbasepattern-71"
       patternUnits="userSpaceOnUse"
       width="6"
       height="6"
       x="0"
       y="0" />
    <pattern
       id="EMFhbasepattern-31"
       patternUnits="userSpaceOnUse"
       width="6"
       height="6"
       x="0"
       y="0" />
    <pattern
       id="EMFhbasepattern-60"
       patternUnits="userSpaceOnUse"
       width="6"
       height="6"
       x="0"
       y="0" />
    <pattern
       id="EMFhbasepattern-28"
       patternUnits="userSpaceOnUse"
       width="6"
       height="6"
       x="0"
       y="0" />
    <pattern
       id="EMFhbasepattern-02"
       patternUnits="userSpaceOnUse"
       width="6"
       height="6"
       x="0"
       y="0" />
    <pattern
       id="EMFhbasepattern-57"
       patternUnits="userSpaceOnUse"
       width="6"
       height="6"
       x="0"
       y="0" />
    <pattern
       id="EMFhbasepattern-50"
       patternUnits="userSpaceOnUse"
       width="6"
       height="6"
       x="0"
       y="0" />
    <pattern
       id="EMFhbasepattern-45"
       patternUnits="userSpaceOnUse"
       width="6"
       height="6"
       x="0"
       y="0" />
    <pattern
       id="EMFhbasepattern-33"
       patternUnits="userSpaceOnUse"
       width="6"
       height="6"
       x="0"
       y="0" />
    <pattern
       id="EMFhbasepattern-21"
       patternUnits="userSpaceOnUse"
       width="6"
       height="6"
       x="0"
       y="0" />
    <pattern
       id="EMFhbasepattern-818"
       patternUnits="userSpaceOnUse"
       width="6"
       height="6"
       x="0"
       y="0" />
    <pattern
       id="EMFhbasepattern-32"
       patternUnits="userSpaceOnUse"
       width="6"
       height="6"
       x="0"
       y="0" />
    <pattern
       id="EMFhbasepattern-38"
       patternUnits="userSpaceOnUse"
       width="6"
       height="6"
       x="0"
       y="0" />
    <pattern
       id="EMFhbasepattern-39"
       patternUnits="userSpaceOnUse"
       width="6"
       height="6"
       x="0"
       y="0" />
    <pattern
       id="EMFhbasepattern-86"
       patternUnits="userSpaceOnUse"
       width="6"
       height="6"
       x="0"
       y="0" />
    <pattern
       id="EMFhbasepattern-07"
       patternUnits="userSpaceOnUse"
       width="6"
       height="6"
       x="0"
       y="0" />
    <pattern
       id="EMFhbasepattern-524"
       patternUnits="userSpaceOnUse"
       width="6"
       height="6"
       x="0"
       y="0" />
    <pattern
       id="EMFhbasepattern-508"
       patternUnits="userSpaceOnUse"
       width="6"
       height="6"
       x="0"
       y="0" />
    <pattern
       id="EMFhbasepattern-217"
       patternUnits="userSpaceOnUse"
       width="6"
       height="6"
       x="0"
       y="0" />
    <pattern
       id="EMFhbasepattern-84"
       patternUnits="userSpaceOnUse"
       width="6"
       height="6"
       x="0"
       y="0" />
    <pattern
       id="EMFhbasepattern-96"
       patternUnits="userSpaceOnUse"
       width="6"
       height="6"
       x="0"
       y="0" />
    <pattern
       id="EMFhbasepattern-48"
       patternUnits="userSpaceOnUse"
       width="6"
       height="6"
       x="0"
       y="0" />
    <pattern
       id="EMFhbasepattern-23"
       patternUnits="userSpaceOnUse"
       width="6"
       height="6"
       x="0"
       y="0" />
    <pattern
       id="EMFhbasepattern-36"
       patternUnits="userSpaceOnUse"
       width="6"
       height="6"
       x="0"
       y="0" />
    <pattern
       id="EMFhbasepattern-900"
       patternUnits="userSpaceOnUse"
       width="6"
       height="6"
       x="0"
       y="0" />
    <pattern
       id="EMFhbasepattern-37"
       patternUnits="userSpaceOnUse"
       width="6"
       height="6"
       x="0"
       y="0" />
    <pattern
       id="EMFhbasepattern-11"
       patternUnits="userSpaceOnUse"
       width="6"
       height="6"
       x="0"
       y="0" />
    <pattern
       id="EMFhbasepattern-95"
       patternUnits="userSpaceOnUse"
       width="6"
       height="6"
       x="0"
       y="0" />
    <pattern
       id="EMFhbasepattern-10"
       patternUnits="userSpaceOnUse"
       width="6"
       height="6"
       x="0"
       y="0" />
    <pattern
       id="EMFhbasepattern-909"
       patternUnits="userSpaceOnUse"
       width="6"
       height="6"
       x="0"
       y="0" />
    <pattern
       id="EMFhbasepattern-06"
       patternUnits="userSpaceOnUse"
       width="6"
       height="6"
       x="0"
       y="0" />
    <pattern
       id="EMFhbasepattern-34"
       patternUnits="userSpaceOnUse"
       width="6"
       height="6"
       x="0"
       y="0" />
    <pattern
       id="EMFhbasepattern-41"
       patternUnits="userSpaceOnUse"
       width="6"
       height="6"
       x="0"
       y="0" />
    <pattern
       id="EMFhbasepattern-82"
       patternUnits="userSpaceOnUse"
       width="6"
       height="6"
       x="0"
       y="0" />
    <pattern
       id="EMFhbasepattern-94"
       patternUnits="userSpaceOnUse"
       width="6"
       height="6"
       x="0"
       y="0" />
    <pattern
       id="EMFhbasepattern-738"
       patternUnits="userSpaceOnUse"
       width="6"
       height="6"
       x="0"
       y="0" />
    <pattern
       id="EMFhbasepattern-19"
       patternUnits="userSpaceOnUse"
       width="6"
       height="6"
       x="0"
       y="0" />
    <pattern
       id="EMFhbasepattern-24"
       patternUnits="userSpaceOnUse"
       width="6"
       height="6"
       x="0"
       y="0" />
    <pattern
       id="EMFhbasepattern-320"
       patternUnits="userSpaceOnUse"
       width="6"
       height="6"
       x="0"
       y="0" />
    <pattern
       id="EMFhbasepattern-91"
       patternUnits="userSpaceOnUse"
       width="6"
       height="6"
       x="0"
       y="0" />
    <pattern
       id="EMFhbasepattern-64"
       patternUnits="userSpaceOnUse"
       width="6"
       height="6"
       x="0"
       y="0" />
    <pattern
       id="EMFhbasepattern-89"
       patternUnits="userSpaceOnUse"
       width="6"
       height="6"
       x="0"
       y="0" />
    <pattern
       id="EMFhbasepattern-940"
       patternUnits="userSpaceOnUse"
       width="6"
       height="6"
       x="0"
       y="0" />
    <pattern
       id="EMFhbasepattern-16"
       patternUnits="userSpaceOnUse"
       width="6"
       height="6"
       x="0"
       y="0" />
  </defs>
  <g
     inkscape:label="Calque 1"
     inkscape:groupmode="layer"
     id="layer1">
    <g
       id="g4128"
       transform="translate(-0.63104184,0.12620835)">
      <g
         id="g5578"
         transform="translate(0.08924235,0.08924306)">
        <g
           id="g7501"
           transform="translate(-0.06310417,0.94656242)">
          <g
             id="g9467"
             transform="translate(-0.08924275,-0.80318511)">
            <g
               id="g10302"
               transform="translate(0.31234979,-0.04462139)">
              <g
                 id="g11479"
                 transform="translate(-0.12620833,0.06310418)">
                <g
                   id="g11873"
                   transform="translate(-0.23575769,0.66462456)">
                  <g
                     id="g12382"
                     transform="translate(-121.98459,-82.267525)">
                    <g
                       id="g13305"
                       transform="matrix(0.13266609,0,0,0.13266609,114.63867,78.215696)">
                      <g
                         id="g17429"
                         transform="translate(0.90513437,5.6640979)">
                        <g
                           id="g18595"
                           transform="translate(-3.3634362,-8.7449387)">
                          <g
                             id="g21002"
                             transform="translate(1.7082278,-2.8204445)">
                            <g
                               id="g23814"
                               transform="translate(8.7253043,-1.1218249)">
                              <g
                                 id="g24838"
                                 transform="translate(11.143454,-0.85716864)">
                                <g
                                   id="g25315"
                                   transform="translate(-3.490122,2.4929446)">
                                <g
                                   id="g27220"
                                   transform="translate(2.4678888,1.2339445)">
                                <g
                                   id="g29753"
                                   transform="translate(1.4759287,-2.3737724)">
                                <g
                                   id="g30615"
                                   transform="translate(0.92006037,1.3687834)">
                                <g
                                   id="g31433"
                                   transform="translate(-2.4678886,-1.410222)">
                                <g
                                   id="g31731"
                                   transform="translate(1.0576664,-0.70511063)">
                                <g
                                   id="g33243"
                                   transform="matrix(1.0772948,0,0,1.0772948,-7.3729128,-3.1743014)">
                                <g
                                   id="g35254"
                                   transform="translate(-2.2135012,-0.92031205)">
                                <g
                                   id="g36749"
                                   transform="translate(-0.98178042,-2.7817105)">
                                <g
                                   id="g37297"
                                   transform="translate(-6.7755742,-3.5033798)">
                                <g
                                   id="g38955"
                                   transform="matrix(1.2171094,0,0,1.2171094,-23.105122,-18.212482)">
                                <g
                                   id="g39618"
                                   transform="translate(-0.26888273,-0.26888316)">
                                <g
                                   id="g40032"
                                   transform="translate(-1.90129,-3.042064)">
                                <g
                                   id="g40543"
                                   transform="translate(0.3802582,-2.0914191)">
                                <g
                                   id="g41372"
                                   transform="translate(1.9657652,-7.9304203)">
                                <g
                                   id="g43278"
                                   transform="translate(1.5210324,-0.38025789)">
                                <g
                                   id="g44210"
                                   transform="matrix(1.1578947,0,0,1.1578947,-18.904476,-21.776183)">
                                <g
                                   id="g44833"
                                   transform="matrix(1.1196819,0,0,1.1196819,-12.538538,-14.547543)">
                                <g
                                   id="g47597"
                                   transform="translate(3.1109352,-1.2443743)">
                                <g
                                   id="g48754"
                                   transform="translate(-2.9035392,-6.6366609)">
                                <g
                                   id="g234"
                                   transform="matrix(0.04089637,0,0,0.04089637,104.63967,119.67231)">
                                <g
                                   id="g2138"
                                   transform="translate(-86.211222,-40.569988)">
                                <g
                                   id="g2696"
                                   transform="translate(-124306.44,-9412.2373)">
                                <g
                                   id="g3765"
                                   transform="translate(25.356243,-50.712489)">
                                <g
                                   id="g4250"
                                   transform="translate(-70.997493,-101.42497)">
                                <g
                                   id="g1279"
                                   transform="translate(40.569973,-76.068725)">
                                <g
                                   id="g9841"
                                   transform="translate(-70.997479,30.427518)">
                                <g
                                   id="g10661"
                                   transform="translate(-64.546403,-46.616886)">
                                <g
                                   id="g22277"
                                   transform="translate(-53.248112,-70.99748)">
                                <g
                                   id="g22858"
                                   transform="rotate(90,124804.94,9867.6838)"
                                   style="fill:#b0483e;fill-opacity:1">
                                <g
                                   id="g24066"
                                   transform="translate(389.27024,27.849438)">
                                <g
                                   id="g24937"
                                   transform="translate(76.068724,10.142496)">
                                <g
                                   id="g25295"
                                   transform="translate(-10.142497,164.81558)">
                                <g
                                   id="g28493"
                                   transform="translate(-93.481136,-15.710404)">
                                <g
                                   id="g1379"
                                   transform="translate(13.806012,2.5851495)">
                                <path
                                   style="fill:#d0d2d3;stroke-width:2.54946"
                                   d="m 125021.4,9973.965 c -7.4,40.208 -38.87,88.073 -84.8,80.363 -244.38,-0.443 -488.77,-0.886 -733.15,-1.33 -43.52,-11.748 -75.79,-44.103 -100.65,-80.2177 -39.39,-48.6468 -104.04,-60.8107 -163.34,-56.1781 -20.35,0 -40.71,0 -61.06,0 -1.21,37.7105 9.18,89.3188 -35.66,105.5678 -41.31,3.302 -117.99,16.715 -122.37,-43.0333 -5.01,-179.5069 -0.75,-359.2065 -1.41,-538.7991 0.84,-18.1523 -4.81,-38.7061 11.71,-51.6709 34.76,-27.3929 97.57,-24.9866 133.24,-1.6641 20.5,25.7919 9.26,60.6623 11.94,91.0929 68.31,-3.232 144.93,14.0752 202.41,-32.604 42.69,-36.2206 70.4,-99.8934 134.39,-101.7444 195.43,-6.2306 391.09,-2.2147 586.62,-3.3029 54.66,0.8912 110.16,-1.7995 164.3,1.3064 42.01,17.4925 63.87,65.8776 58.3,109.5684 -0,174.2133 1.24,348.4436 -0.47,522.646 z"
                                   id="path1389" />
                                <path
                                   style="fill:#9ed1e1;stroke-width:2.54946"
                                   d="m 125019.3,9976.8343 c -6.83,31.3987 -25,59.5237 -45.55,70.5157 l -10.56,5.648 h -376.04 c -357.81,0 -376.79,-0.227 -391.24,-4.686 -32.75,-10.107 -57.02,-28.179 -78.78,-58.681 -16.63,-23.3068 -41.8,-45.6866 -63.34,-56.3271 -32.09,-15.8512 -39.93,-17.1612 -111.02,-18.5534 l -64.37,-1.2606 V 9480.645 h 55.86 c 63.12,0 85.8,-3.0716 111.5,-15.0969 30.95,-14.4845 53.06,-33.2077 72.25,-61.2017 19.36,-28.2229 44.6,-47.3483 75.24,-57.0166 l 17.85,-5.6303 h 376.05 376.04 l 10.56,5.6484 c 20.96,11.2084 38.77,39.1757 45.66,71.6943 5.15,24.305 5.05,534.0629 -0.11,557.7921 z"
                                   id="path1387"
                                   sodipodi:nodetypes="cccscccsccscccccccsc" />
                                <path
                                   style="fill:#8ebccb;stroke-width:2.54946"
                                   d="m 125019.3,9976.8343 c -7.54,36.9237 -36.5,84.2437 -79.9,76.1217 -243.4,-1.262 -486.87,1.274 -730.22,-3.589 -54.48,-4.313 -84.65,-53.7046 -117.59,-90.5215 -40.17,-40.7525 -99.26,-47.241 -153.5,-44.3555 -19.89,-0.2937 -39.79,-0.5874 -59.69,-0.8811 V 9480.645 c 15.89,2.0952 40.05,-4.085 50.98,2.9733 v 297.168 c 99.97,2.9029 208.55,-3.7122 293.09,59.6246 68.12,40.7447 149.6,45.1408 226.54,53.2361 18.56,-39.2587 15.19,-84.7029 -6,-122.3639 -31.27,-72.7343 -14.72,-155.5842 8.24,-228.3362 19.55,-51.5784 0.68,-103.089 -20.29,-150.3997 -9.26,-34.9237 37.26,-48.4236 64.4,-50.8477 h 467.83 c 52.22,22.5261 61.84,85.3598 58.56,135.8106 1.31,166.3932 3.88,333.0395 -2.45,499.3242 z"
                                   id="path1385"
                                   sodipodi:nodetypes="cccccccccccccccccc" />
                                <path
                                   style="fill:#eeffaa;stroke-width:2.54946"
                                   d="m 125019.3,9976.8343 c -7.03,31.5107 -25.86,65.5707 -57.97,76.1637 -158.3,0 -316.59,0 -474.89,0 -32.12,-14.227 -61.46,-45.6 -61.45,-82.1353 8.59,-54.0028 49.56,-104.2877 34.12,-160.8027 -9.58,-35.2579 -33.89,-66.47 -30.9,-104.7455 -2.78,-47.1643 2.36,-94.5001 17.87,-139.2627 11.89,-42.5096 24.85,-90.1718 2.59,-131.7577 -11.41,-23.9827 -34.83,-64.2177 2.05,-78.4142 20.62,-8.9348 42.21,-16.7482 64.99,-14.1804 149.16,0 298.32,0 447.48,0 43.12,18.6772 60.91,69.4874 58.08,113.6948 2.57,170.4841 3.45,341.0795 -1.06,511.5323 l -0.44,6.2888 z"
                                   id="path1383" />
                                <path
                                   style="fill:#e5ff80;stroke-width:2.54946"
                                   d="m 125019.45,9970.1408 c -11.86,42.5462 -45.66,73.7122 -88.54,81.6382 -9.28,1.716 -89.22,2.387 -229.36,1.926 l -215.11,-0.707 -12.25,-6.257 c -15.95,-8.151 -32.49,-26.055 -42.64,-46.163 -10.5,-20.7922 -9.71,-29.8466 6.47,-74.4669 l 12.24,-33.7287 21.91,1.6901 c 55.37,4.2696 406.28,-0.4472 429.83,-5.7777 55.36,-12.5259 96.3,-60.4847 116.1,-135.9874 l 4.72,-17.9914 -0.1,112.1761 c -0.1,81.9041 -0.95,115.2722 -3.28,123.6487 z m -556.42,-124.4454 c -0.74,-1.8404 -0.65,-4.0393 0.2,-4.8865 0.85,-0.8471 1.45,0.6587 1.34,3.3462 -0.12,2.97 -0.73,3.5741 -1.54,1.5403 z m -35.71,-138.7861 c -0.64,-2.4538 -0.64,-6.4692 0,-8.9231 0.64,-2.4538 1.17,-0.4461 1.17,4.4616 0,4.9077 -0.53,6.9154 -1.17,4.4615 z m 0.1,-49.7144 c -0.71,-1.7528 -0.71,-4.6209 0,-6.3737 0.71,-1.7527 1.29,-0.3186 1.29,3.1869 0,3.5055 -0.58,4.9395 -1.29,3.1868 z"
                                   id="path1381" />
                                </g>
                                </g>
                                </g>
                                </g>
                                </g>
                                </g>
                                </g>
                                </g>
                                </g>
                                </g>
                                </g>
                                </g>
                                </g>
                                </g>
                                </g>
                                </g>
                                </g>
                                </g>
                                </g>
                                </g>
                                </g>
                                </g>
                                </g>
                                </g>
                                </g>
                                </g>
                                </g>
                                </g>
                                </g>
                                </g>
                                </g>
                                </g>
                                </g>
                                </g>
                                </g>
                              </g>
                            </g>
                          </g>
                        </g>
                      </g>
                    </g>
                  </g>
                </g>
              </g>
            </g>
          </g>
        </g>
      </g>
    </g>
  </g>
</svg>
