<?xml version="1.0" encoding="UTF-8" standalone="no"?>
<!-- Created with Inkscape (http://www.inkscape.org/) -->

<svg
   width="64"
   height="64"
   viewBox="0 0 16.933333 16.933334"
   version="1.1"
   id="svg5"
   inkscape:version="1.1.1 (3bf5ae0d25, 2021-09-20)"
   sodipodi:docname="cola.svg"
   xmlns:inkscape="http://www.inkscape.org/namespaces/inkscape"
   xmlns:sodipodi="http://sodipodi.sourceforge.net/DTD/sodipodi-0.dtd"
   xmlns="http://www.w3.org/2000/svg"
   xmlns:svg="http://www.w3.org/2000/svg">
  <sodipodi:namedview
     id="namedview7"
     pagecolor="#ffffff"
     bordercolor="#666666"
     borderopacity="1.0"
     inkscape:pageshadow="2"
     inkscape:pageopacity="0.0"
     inkscape:pagecheckerboard="0"
     inkscape:document-units="mm"
     showgrid="false"
     units="px"
     inkscape:zoom="16.000001"
     inkscape:cx="28.406249"
     inkscape:cy="36.343748"
     inkscape:window-width="1920"
     inkscape:window-height="1017"
     inkscape:window-x="1912"
     inkscape:window-y="-8"
     inkscape:window-maximized="1"
     inkscape:current-layer="g17560" />
  <defs
     id="defs2">
    <pattern
       id="EMFhbasepattern"
       patternUnits="userSpaceOnUse"
       width="6"
       height="6"
       x="0"
       y="0" />
    <pattern
       id="EMFhbasepattern-5"
       patternUnits="userSpaceOnUse"
       width="6"
       height="6"
       x="0"
       y="0" />
    <pattern
       id="EMFhbasepattern-56"
       patternUnits="userSpaceOnUse"
       width="6"
       height="6"
       x="0"
       y="0" />
    <pattern
       id="EMFhbasepattern-6"
       patternUnits="userSpaceOnUse"
       width="6"
       height="6"
       x="0"
       y="0" />
    <pattern
       id="EMFhbasepattern-62"
       patternUnits="userSpaceOnUse"
       width="6"
       height="6"
       x="0"
       y="0" />
    <pattern
       id="EMFhbasepattern-8"
       patternUnits="userSpaceOnUse"
       width="6"
       height="6"
       x="0"
       y="0" />
    <pattern
       id="EMFhbasepattern-81"
       patternUnits="userSpaceOnUse"
       width="6"
       height="6"
       x="0"
       y="0" />
    <pattern
       id="EMFhbasepattern-9"
       patternUnits="userSpaceOnUse"
       width="6"
       height="6"
       x="0"
       y="0" />
    <pattern
       id="EMFhbasepattern-52"
       patternUnits="userSpaceOnUse"
       width="6"
       height="6"
       x="0"
       y="0" />
    <pattern
       id="EMFhbasepattern-0"
       patternUnits="userSpaceOnUse"
       width="6"
       height="6"
       x="0"
       y="0" />
    <pattern
       id="EMFhbasepattern-7"
       patternUnits="userSpaceOnUse"
       width="6"
       height="6"
       x="0"
       y="0" />
    <pattern
       id="EMFhbasepattern-65"
       patternUnits="userSpaceOnUse"
       width="6"
       height="6"
       x="0"
       y="0" />
    <pattern
       id="EMFhbasepattern-3"
       patternUnits="userSpaceOnUse"
       width="6"
       height="6"
       x="0"
       y="0" />
    <pattern
       id="EMFhbasepattern-90"
       patternUnits="userSpaceOnUse"
       width="6"
       height="6"
       x="0"
       y="0" />
    <pattern
       id="EMFhbasepattern-4"
       patternUnits="userSpaceOnUse"
       width="6"
       height="6"
       x="0"
       y="0" />
    <pattern
       id="EMFhbasepattern-2"
       patternUnits="userSpaceOnUse"
       width="6"
       height="6"
       x="0"
       y="0" />
    <pattern
       id="EMFhbasepattern-40"
       patternUnits="userSpaceOnUse"
       width="6"
       height="6"
       x="0"
       y="0" />
    <pattern
       id="EMFhbasepattern-74"
       patternUnits="userSpaceOnUse"
       width="6"
       height="6"
       x="0"
       y="0" />
    <pattern
       id="EMFhbasepattern-656"
       patternUnits="userSpaceOnUse"
       width="6"
       height="6"
       x="0"
       y="0" />
    <pattern
       id="EMFhbasepattern-76"
       patternUnits="userSpaceOnUse"
       width="6"
       height="6"
       x="0"
       y="0" />
    <pattern
       id="EMFhbasepattern-1"
       patternUnits="userSpaceOnUse"
       width="6"
       height="6"
       x="0"
       y="0" />
    <pattern
       id="EMFhbasepattern-42"
       patternUnits="userSpaceOnUse"
       width="6"
       height="6"
       x="0"
       y="0" />
    <pattern
       id="EMFhbasepattern-73"
       patternUnits="userSpaceOnUse"
       width="6"
       height="6"
       x="0"
       y="0" />
    <pattern
       id="EMFhbasepattern-566"
       patternUnits="userSpaceOnUse"
       width="6"
       height="6"
       x="0"
       y="0" />
    <pattern
       id="EMFhbasepattern-71"
       patternUnits="userSpaceOnUse"
       width="6"
       height="6"
       x="0"
       y="0" />
    <pattern
       id="EMFhbasepattern-31"
       patternUnits="userSpaceOnUse"
       width="6"
       height="6"
       x="0"
       y="0" />
    <pattern
       id="EMFhbasepattern-60"
       patternUnits="userSpaceOnUse"
       width="6"
       height="6"
       x="0"
       y="0" />
    <pattern
       id="EMFhbasepattern-28"
       patternUnits="userSpaceOnUse"
       width="6"
       height="6"
       x="0"
       y="0" />
    <pattern
       id="EMFhbasepattern-02"
       patternUnits="userSpaceOnUse"
       width="6"
       height="6"
       x="0"
       y="0" />
    <pattern
       id="EMFhbasepattern-57"
       patternUnits="userSpaceOnUse"
       width="6"
       height="6"
       x="0"
       y="0" />
    <pattern
       id="EMFhbasepattern-50"
       patternUnits="userSpaceOnUse"
       width="6"
       height="6"
       x="0"
       y="0" />
    <pattern
       id="EMFhbasepattern-45"
       patternUnits="userSpaceOnUse"
       width="6"
       height="6"
       x="0"
       y="0" />
    <pattern
       id="EMFhbasepattern-33"
       patternUnits="userSpaceOnUse"
       width="6"
       height="6"
       x="0"
       y="0" />
    <pattern
       id="EMFhbasepattern-21"
       patternUnits="userSpaceOnUse"
       width="6"
       height="6"
       x="0"
       y="0" />
    <pattern
       id="EMFhbasepattern-818"
       patternUnits="userSpaceOnUse"
       width="6"
       height="6"
       x="0"
       y="0" />
    <pattern
       id="EMFhbasepattern-32"
       patternUnits="userSpaceOnUse"
       width="6"
       height="6"
       x="0"
       y="0" />
    <pattern
       id="EMFhbasepattern-38"
       patternUnits="userSpaceOnUse"
       width="6"
       height="6"
       x="0"
       y="0" />
    <pattern
       id="EMFhbasepattern-39"
       patternUnits="userSpaceOnUse"
       width="6"
       height="6"
       x="0"
       y="0" />
    <pattern
       id="EMFhbasepattern-86"
       patternUnits="userSpaceOnUse"
       width="6"
       height="6"
       x="0"
       y="0" />
    <pattern
       id="EMFhbasepattern-07"
       patternUnits="userSpaceOnUse"
       width="6"
       height="6"
       x="0"
       y="0" />
    <pattern
       id="EMFhbasepattern-524"
       patternUnits="userSpaceOnUse"
       width="6"
       height="6"
       x="0"
       y="0" />
    <pattern
       id="EMFhbasepattern-508"
       patternUnits="userSpaceOnUse"
       width="6"
       height="6"
       x="0"
       y="0" />
    <pattern
       id="EMFhbasepattern-217"
       patternUnits="userSpaceOnUse"
       width="6"
       height="6"
       x="0"
       y="0" />
    <pattern
       id="EMFhbasepattern-84"
       patternUnits="userSpaceOnUse"
       width="6"
       height="6"
       x="0"
       y="0" />
    <pattern
       id="EMFhbasepattern-96"
       patternUnits="userSpaceOnUse"
       width="6"
       height="6"
       x="0"
       y="0" />
    <pattern
       id="EMFhbasepattern-48"
       patternUnits="userSpaceOnUse"
       width="6"
       height="6"
       x="0"
       y="0" />
    <pattern
       id="EMFhbasepattern-23"
       patternUnits="userSpaceOnUse"
       width="6"
       height="6"
       x="0"
       y="0" />
    <pattern
       id="EMFhbasepattern-36"
       patternUnits="userSpaceOnUse"
       width="6"
       height="6"
       x="0"
       y="0" />
    <pattern
       id="EMFhbasepattern-900"
       patternUnits="userSpaceOnUse"
       width="6"
       height="6"
       x="0"
       y="0" />
    <pattern
       id="EMFhbasepattern-37"
       patternUnits="userSpaceOnUse"
       width="6"
       height="6"
       x="0"
       y="0" />
    <pattern
       id="EMFhbasepattern-11"
       patternUnits="userSpaceOnUse"
       width="6"
       height="6"
       x="0"
       y="0" />
    <pattern
       id="EMFhbasepattern-95"
       patternUnits="userSpaceOnUse"
       width="6"
       height="6"
       x="0"
       y="0" />
    <pattern
       id="EMFhbasepattern-10"
       patternUnits="userSpaceOnUse"
       width="6"
       height="6"
       x="0"
       y="0" />
    <pattern
       id="EMFhbasepattern-909"
       patternUnits="userSpaceOnUse"
       width="6"
       height="6"
       x="0"
       y="0" />
    <pattern
       id="EMFhbasepattern-06"
       patternUnits="userSpaceOnUse"
       width="6"
       height="6"
       x="0"
       y="0" />
    <pattern
       id="EMFhbasepattern-34"
       patternUnits="userSpaceOnUse"
       width="6"
       height="6"
       x="0"
       y="0" />
    <pattern
       id="EMFhbasepattern-41"
       patternUnits="userSpaceOnUse"
       width="6"
       height="6"
       x="0"
       y="0" />
    <pattern
       id="EMFhbasepattern-82"
       patternUnits="userSpaceOnUse"
       width="6"
       height="6"
       x="0"
       y="0" />
    <pattern
       id="EMFhbasepattern-94"
       patternUnits="userSpaceOnUse"
       width="6"
       height="6"
       x="0"
       y="0" />
    <pattern
       id="EMFhbasepattern-738"
       patternUnits="userSpaceOnUse"
       width="6"
       height="6"
       x="0"
       y="0" />
    <pattern
       id="EMFhbasepattern-19"
       patternUnits="userSpaceOnUse"
       width="6"
       height="6"
       x="0"
       y="0" />
    <pattern
       id="EMFhbasepattern-342"
       patternUnits="userSpaceOnUse"
       width="6"
       height="6"
       x="0"
       y="0" />
    <pattern
       id="EMFhbasepattern-77"
       patternUnits="userSpaceOnUse"
       width="6"
       height="6"
       x="0"
       y="0" />
    <pattern
       id="EMFhbasepattern-29"
       patternUnits="userSpaceOnUse"
       width="6"
       height="6"
       x="0"
       y="0" />
    <pattern
       id="EMFhbasepattern-219"
       patternUnits="userSpaceOnUse"
       width="6"
       height="6"
       x="0"
       y="0" />
    <pattern
       id="EMFhbasepattern-105"
       patternUnits="userSpaceOnUse"
       width="6"
       height="6"
       x="0"
       y="0" />
    <pattern
       id="EMFhbasepattern-104"
       patternUnits="userSpaceOnUse"
       width="6"
       height="6"
       x="0"
       y="0" />
    <pattern
       id="EMFhbasepattern-44"
       patternUnits="userSpaceOnUse"
       width="6"
       height="6"
       x="0"
       y="0" />
    <pattern
       id="EMFhbasepattern-87"
       patternUnits="userSpaceOnUse"
       width="6"
       height="6"
       x="0"
       y="0" />
    <pattern
       id="EMFhbasepattern-93"
       patternUnits="userSpaceOnUse"
       width="6"
       height="6"
       x="0"
       y="0" />
    <pattern
       id="EMFhbasepattern-324"
       patternUnits="userSpaceOnUse"
       width="6"
       height="6"
       x="0"
       y="0" />
    <pattern
       id="EMFhbasepattern-20"
       patternUnits="userSpaceOnUse"
       width="6"
       height="6"
       x="0"
       y="0" />
    <pattern
       id="EMFhbasepattern-78"
       patternUnits="userSpaceOnUse"
       width="6"
       height="6"
       x="0"
       y="0" />
    <pattern
       id="EMFhbasepattern-313"
       patternUnits="userSpaceOnUse"
       width="6"
       height="6"
       x="0"
       y="0" />
    <pattern
       id="EMFhbasepattern-3422"
       patternUnits="userSpaceOnUse"
       width="6"
       height="6"
       x="0"
       y="0" />
    <pattern
       id="EMFhbasepattern-957"
       patternUnits="userSpaceOnUse"
       width="6"
       height="6"
       x="0"
       y="0" />
    <pattern
       id="EMFhbasepattern-75"
       patternUnits="userSpaceOnUse"
       width="6"
       height="6"
       x="0"
       y="0" />
    <pattern
       id="EMFhbasepattern-429"
       patternUnits="userSpaceOnUse"
       width="6"
       height="6"
       x="0"
       y="0" />
    <pattern
       id="EMFhbasepattern-102"
       patternUnits="userSpaceOnUse"
       width="6"
       height="6"
       x="0"
       y="0" />
    <pattern
       id="EMFhbasepattern-233"
       patternUnits="userSpaceOnUse"
       width="6"
       height="6"
       x="0"
       y="0" />
    <pattern
       id="EMFhbasepattern-18"
       patternUnits="userSpaceOnUse"
       width="6"
       height="6"
       x="0"
       y="0" />
    <pattern
       id="EMFhbasepattern-334"
       patternUnits="userSpaceOnUse"
       width="6"
       height="6"
       x="0"
       y="0" />
    <pattern
       id="EMFhbasepattern-317"
       patternUnits="userSpaceOnUse"
       width="6"
       height="6"
       x="0"
       y="0" />
    <pattern
       id="EMFhbasepattern-509"
       patternUnits="userSpaceOnUse"
       width="6"
       height="6"
       x="0"
       y="0" />
    <pattern
       id="EMFhbasepattern-657"
       patternUnits="userSpaceOnUse"
       width="6"
       height="6"
       x="0"
       y="0" />
    <pattern
       id="EMFhbasepattern-83"
       patternUnits="userSpaceOnUse"
       width="6"
       height="6"
       x="0"
       y="0" />
    <pattern
       id="EMFhbasepattern-390"
       patternUnits="userSpaceOnUse"
       width="6"
       height="6"
       x="0"
       y="0" />
    <pattern
       id="EMFhbasepattern-24"
       patternUnits="userSpaceOnUse"
       width="6"
       height="6"
       x="0"
       y="0" />
    <pattern
       id="EMFhbasepattern-63"
       patternUnits="userSpaceOnUse"
       width="6"
       height="6"
       x="0"
       y="0" />
    <pattern
       id="EMFhbasepattern-631"
       patternUnits="userSpaceOnUse"
       width="6"
       height="6"
       x="0"
       y="0" />
    <pattern
       id="EMFhbasepattern-98"
       patternUnits="userSpaceOnUse"
       width="6"
       height="6"
       x="0"
       y="0" />
    <pattern
       id="EMFhbasepattern-79"
       patternUnits="userSpaceOnUse"
       width="6"
       height="6"
       x="0"
       y="0" />
    <pattern
       id="EMFhbasepattern-489"
       patternUnits="userSpaceOnUse"
       width="6"
       height="6"
       x="0"
       y="0" />
    <pattern
       id="EMFhbasepattern-811"
       patternUnits="userSpaceOnUse"
       width="6"
       height="6"
       x="0"
       y="0" />
    <pattern
       id="EMFhbasepattern-450"
       patternUnits="userSpaceOnUse"
       width="6"
       height="6"
       x="0"
       y="0" />
    <pattern
       id="EMFhbasepattern-321"
       patternUnits="userSpaceOnUse"
       width="6"
       height="6"
       x="0"
       y="0" />
    <pattern
       id="EMFhbasepattern-371"
       patternUnits="userSpaceOnUse"
       width="6"
       height="6"
       x="0"
       y="0" />
    <pattern
       id="EMFhbasepattern-49"
       patternUnits="userSpaceOnUse"
       width="6"
       height="6"
       x="0"
       y="0" />
    <pattern
       id="EMFhbasepattern-576"
       patternUnits="userSpaceOnUse"
       width="6"
       height="6"
       x="0"
       y="0" />
    <pattern
       id="EMFhbasepattern-03"
       patternUnits="userSpaceOnUse"
       width="6"
       height="6"
       x="0"
       y="0" />
    <pattern
       id="EMFhbasepattern-795"
       patternUnits="userSpaceOnUse"
       width="6"
       height="6"
       x="0"
       y="0" />
    <pattern
       id="EMFhbasepattern-54"
       patternUnits="userSpaceOnUse"
       width="6"
       height="6"
       x="0"
       y="0" />
    <pattern
       id="EMFhbasepattern-22"
       patternUnits="userSpaceOnUse"
       width="6"
       height="6"
       x="0"
       y="0" />
    <pattern
       id="EMFhbasepattern-418"
       patternUnits="userSpaceOnUse"
       width="6"
       height="6"
       x="0"
       y="0" />
    <pattern
       id="EMFhbasepattern-26"
       patternUnits="userSpaceOnUse"
       width="6"
       height="6"
       x="0"
       y="0" />
    <pattern
       id="EMFhbasepattern-832"
       patternUnits="userSpaceOnUse"
       width="6"
       height="6"
       x="0"
       y="0" />
    <pattern
       id="EMFhbasepattern-824"
       patternUnits="userSpaceOnUse"
       width="6"
       height="6"
       x="0"
       y="0" />
    <pattern
       id="EMFhbasepattern-8182"
       patternUnits="userSpaceOnUse"
       width="6"
       height="6"
       x="0"
       y="0" />
    <pattern
       id="EMFhbasepattern-779"
       patternUnits="userSpaceOnUse"
       width="6"
       height="6"
       x="0"
       y="0" />
    <pattern
       id="EMFhbasepattern-714"
       patternUnits="userSpaceOnUse"
       width="6"
       height="6"
       x="0"
       y="0" />
    <pattern
       id="EMFhbasepattern-500"
       patternUnits="userSpaceOnUse"
       width="6"
       height="6"
       x="0"
       y="0" />
    <pattern
       id="EMFhbasepattern-839"
       patternUnits="userSpaceOnUse"
       width="6"
       height="6"
       x="0"
       y="0" />
    <pattern
       id="EMFhbasepattern-320"
       patternUnits="userSpaceOnUse"
       width="6"
       height="6"
       x="0"
       y="0" />
    <pattern
       id="EMFhbasepattern-66"
       patternUnits="userSpaceOnUse"
       width="6"
       height="6"
       x="0"
       y="0" />
    <pattern
       id="EMFhbasepattern-542"
       patternUnits="userSpaceOnUse"
       width="6"
       height="6"
       x="0"
       y="0" />
    <pattern
       id="EMFhbasepattern-88"
       patternUnits="userSpaceOnUse"
       width="6"
       height="6"
       x="0"
       y="0" />
    <pattern
       id="EMFhbasepattern-941"
       patternUnits="userSpaceOnUse"
       width="6"
       height="6"
       x="0"
       y="0" />
    <pattern
       id="EMFhbasepattern-92"
       patternUnits="userSpaceOnUse"
       width="6"
       height="6"
       x="0"
       y="0" />
    <pattern
       id="EMFhbasepattern-934"
       patternUnits="userSpaceOnUse"
       width="6"
       height="6"
       x="0"
       y="0" />
    <pattern
       id="EMFhbasepattern-30"
       patternUnits="userSpaceOnUse"
       width="6"
       height="6"
       x="0"
       y="0" />
    <pattern
       id="EMFhbasepattern-936"
       patternUnits="userSpaceOnUse"
       width="6"
       height="6"
       x="0"
       y="0" />
    <pattern
       id="EMFhbasepattern-867"
       patternUnits="userSpaceOnUse"
       width="6"
       height="6"
       x="0"
       y="0" />
    <pattern
       id="EMFhbasepattern-35"
       patternUnits="userSpaceOnUse"
       width="6"
       height="6"
       x="0"
       y="0" />
    <pattern
       id="EMFhbasepattern-9007"
       patternUnits="userSpaceOnUse"
       width="6"
       height="6"
       x="0"
       y="0" />
    <pattern
       id="EMFhbasepattern-224"
       patternUnits="userSpaceOnUse"
       width="6"
       height="6"
       x="0"
       y="0" />
    <pattern
       id="EMFhbasepattern-43"
       patternUnits="userSpaceOnUse"
       width="6"
       height="6"
       x="0"
       y="0" />
    <pattern
       id="EMFhbasepattern-04"
       patternUnits="userSpaceOnUse"
       width="6"
       height="6"
       x="0"
       y="0" />
    <pattern
       id="EMFhbasepattern-61"
       patternUnits="userSpaceOnUse"
       width="6"
       height="6"
       x="0"
       y="0" />
    <pattern
       id="EMFhbasepattern-346"
       patternUnits="userSpaceOnUse"
       width="6"
       height="6"
       x="0"
       y="0" />
    <pattern
       id="EMFhbasepattern-032"
       patternUnits="userSpaceOnUse"
       width="6"
       height="6"
       x="0"
       y="0" />
    <pattern
       id="EMFhbasepattern-769"
       patternUnits="userSpaceOnUse"
       width="6"
       height="6"
       x="0"
       y="0" />
    <pattern
       id="EMFhbasepattern-484"
       patternUnits="userSpaceOnUse"
       width="6"
       height="6"
       x="0"
       y="0" />
    <pattern
       id="EMFhbasepattern-05"
       patternUnits="userSpaceOnUse"
       width="6"
       height="6"
       x="0"
       y="0" />
    <pattern
       id="EMFhbasepattern-354"
       patternUnits="userSpaceOnUse"
       width="6"
       height="6"
       x="0"
       y="0" />
    <pattern
       id="EMFhbasepattern-8390"
       patternUnits="userSpaceOnUse"
       width="6"
       height="6"
       x="0"
       y="0" />
    <pattern
       id="EMFhbasepattern-225"
       patternUnits="userSpaceOnUse"
       width="6"
       height="6"
       x="0"
       y="0" />
    <pattern
       id="EMFhbasepattern-09"
       patternUnits="userSpaceOnUse"
       width="6"
       height="6"
       x="0"
       y="0" />
    <pattern
       id="EMFhbasepattern-040"
       patternUnits="userSpaceOnUse"
       width="6"
       height="6"
       x="0"
       y="0" />
    <pattern
       id="EMFhbasepattern-3349"
       patternUnits="userSpaceOnUse"
       width="6"
       height="6"
       x="0"
       y="0" />
    <pattern
       id="EMFhbasepattern-523"
       patternUnits="userSpaceOnUse"
       width="6"
       height="6"
       x="0"
       y="0" />
  </defs>
  <g
     inkscape:label="Calque 1"
     inkscape:groupmode="layer"
     id="layer1">
    <g
       id="g4128"
       transform="translate(-0.63104184,0.12620835)">
      <g
         id="g5578"
         transform="translate(0.08924235,0.08924306)">
        <g
           id="g7501"
           transform="translate(-0.06310417,0.94656242)">
          <g
             id="g9467"
             transform="translate(-0.08924275,-0.80318511)">
            <g
               id="g10302"
               transform="translate(0.31234979,-0.04462139)">
              <g
                 id="g11479"
                 transform="translate(-0.12620833,0.06310418)">
                <g
                   id="g11873"
                   transform="translate(-0.23575769,0.66462456)">
                  <g
                     id="g12382"
                     transform="translate(-121.98459,-82.267525)">
                    <g
                       id="g13305"
                       transform="matrix(0.13266609,0,0,0.13266609,114.63867,78.215696)">
                      <g
                         id="g17429"
                         transform="translate(0.90513437,5.6640979)">
                        <g
                           id="g18595"
                           transform="translate(-3.3634362,-8.7449387)">
                          <g
                             id="g21002"
                             transform="translate(1.7082278,-2.8204445)">
                            <g
                               id="g23814"
                               transform="translate(8.7253043,-1.1218249)">
                              <g
                                 id="g24838"
                                 transform="translate(11.143454,-0.85716864)">
                                <g
                                   id="g25315"
                                   transform="translate(-3.490122,2.4929446)">
                                <g
                                   id="g27220"
                                   transform="translate(2.4678888,1.2339445)">
                                <g
                                   id="g29753"
                                   transform="translate(1.4759287,-2.3737724)">
                                <g
                                   id="g30615"
                                   transform="translate(0.92006037,1.3687834)">
                                <g
                                   id="g31433"
                                   transform="translate(-2.4678886,-1.410222)">
                                <g
                                   id="g31731"
                                   transform="translate(1.0576664,-0.70511063)">
                                <g
                                   id="g33243"
                                   transform="matrix(1.0772948,0,0,1.0772948,-7.3729128,-3.1743014)">
                                <g
                                   id="g35254"
                                   transform="translate(-2.2135012,-0.92031205)">
                                <g
                                   id="g36749"
                                   transform="translate(-0.98178042,-2.7817105)">
                                <g
                                   id="g37297"
                                   transform="translate(-6.7755742,-3.5033798)">
                                <g
                                   id="g38955"
                                   transform="matrix(1.2171094,0,0,1.2171094,-23.105122,-18.212482)">
                                <g
                                   id="g39618"
                                   transform="translate(-0.26888273,-0.26888316)">
                                <g
                                   id="g40032"
                                   transform="translate(-1.90129,-3.042064)">
                                <g
                                   id="g40543"
                                   transform="translate(0.3802582,-2.0914191)">
                                <g
                                   id="g41372"
                                   transform="translate(1.9657652,-7.9304203)">
                                <g
                                   id="g43278"
                                   transform="translate(1.5210324,-0.38025789)">
                                <g
                                   id="g44210"
                                   transform="matrix(1.1578947,0,0,1.1578947,-18.904476,-21.776183)">
                                <g
                                   id="g44833"
                                   transform="matrix(1.1196819,0,0,1.1196819,-12.538538,-14.547543)">
                                <g
                                   id="g47597"
                                   transform="translate(3.1109352,-1.2443743)">
                                <g
                                   id="g48754"
                                   transform="translate(-2.9035392,-6.6366609)">
                                <g
                                   id="g234"
                                   transform="matrix(0.04089637,0,0,0.04089637,104.63967,119.67231)">
                                <g
                                   id="g2138"
                                   transform="translate(-86.211222,-40.569988)">
                                <g
                                   id="g2696"
                                   transform="translate(-124306.44,-9412.2373)">
                                <g
                                   id="g3765"
                                   transform="translate(25.356243,-50.712489)">
                                <g
                                   id="g4557"
                                   transform="translate(46.61688,-35.859142)">
                                <g
                                   id="g5244"
                                   transform="translate(7.1718407,14.343658)">
                                <g
                                   id="g5807"
                                   transform="translate(-5.1984397,-21.113724)">
                                <g
                                   id="g6945"
                                   transform="translate(-10.142522,-243.41993)">
                                <g
                                   id="g11108"
                                   transform="translate(18.189368,-37.636113)">
                                <g
                                   id="g15049"
                                   transform="translate(-65.926228,141.99496)">
                                <g
                                   id="g19861"
                                   transform="matrix(0.07356842,0,0,0.07356842,115423.38,9039.2311)">
                                <g
                                   id="g20437"
                                   transform="translate(-478.38824,-785.88156)">
                                <g
                                   id="g21032"
                                   transform="translate(2047.1878,-1072.3367)">
                                <g
                                   id="g21869"
                                   transform="matrix(0.04321578,0,0,0.04321578,117368,10137.003)">
                                <g
                                   id="g25455"
                                   transform="translate(154741.46,-87178.414)">
                                <g
                                   id="g26278"
                                   transform="translate(-18012.371,-8233.4417)">
                                <g
                                   id="g27240"
                                   transform="translate(-0.00447131,5582.7624)">
                                <g
                                   id="g28306"
                                   transform="translate(-15790.441,-2255.7767)">
                                <g
                                   id="g33735"
                                   transform="translate(14662.549,-16918.328)">
                                <g
                                   id="g37868"
                                   transform="translate(-5075.4976,25941.433)">
                                <g
                                   id="g76752"
                                   transform="matrix(-1,0,0,1,9442.3174,-1595.0746)">
                                <g
                                   id="g82459"
                                   transform="translate(3383.6668,-1127.8885)">
                                <g
                                   id="g83208"
                                   transform="matrix(0.20332428,0,0,0.20332428,-15348.528,66747.475)">
                                <g
                                   id="g83934"
                                   transform="matrix(-1,0,0,1,240692.18,94139.78)">
                                <g
                                   id="g84550"
                                   transform="translate(-8.7627443e-5,55472.344)">
                                <g
                                   id="g9096"
                                   transform="translate(31379.925,-62759.843)">
                                <g
                                   id="g11527"
                                   transform="translate(61019.625,105397.54)">
                                <g
                                   id="g13422"
                                   transform="translate(-44377.907,44377.908)">
                                <g
                                   id="g1137"
                                   transform="translate(-3.3240812e-4,138680.92)">
                                <g
                                   id="g3632"
                                   transform="translate(177511.65,-22188.943)">
                                <g
                                   id="g5936"
                                   transform="translate(11767.473,-47069.909)">
                                <g
                                   id="g7318">
                                <g
                                   id="g11619"
                                   transform="translate(27457.436,-223581.94)" />
                                <g
                                   id="g11985"
                                   transform="translate(70604.821,-133364.68)">
                                <g
                                   id="g12707"
                                   transform="matrix(1.186974,0,0,1.186974,95904.637,-164033.62)">
                                <g
                                   id="g4721"
                                   transform="matrix(-1,0,0,1,-561251.4,-59483.037)">
                                <g
                                   id="g7072">
                                <g
                                   id="g10426"
                                   transform="translate(66928.962,-211126.69)">
                                <g
                                   id="g1231"
                                   transform="translate(-14020.287,4673.4667)">
                                <g
                                   id="g2516"
                                   transform="matrix(1.1495428,0,0,1.1495428,-144709.4,-78762.736)">
                                <g
                                   id="g3795"
                                   transform="translate(-22559.428,121623.52)">
                                <g
                                   id="g5627"
                                   transform="translate(-106364.63,2874.7178)">
                                <g
                                   id="g6621"
                                   transform="translate(-12196.407,40654.68)">
                                <g
                                   id="g7772"
                                   transform="translate(28747.2,74742.673)">
                                <g
                                   id="g8880"
                                   transform="translate(-60982.018,187011.51)">
                                <g
                                   id="g11165"
                                   transform="translate(-44309.499,5172.6179)">
                                <g
                                   id="g12249"
                                   transform="translate(48785.608,-8130.9328)">
                                <g
                                   id="g14000"
                                   transform="matrix(1.0831477,0,0,1.0831477,-5722.2619,28128.151)">
                                <g
                                   id="g15203"
                                   transform="translate(53158.943,24797.103)">
                                <g
                                   id="g16076"
                                   transform="translate(-37533.822,-30027.061)">
                                <g
                                   id="g17560"
                                   transform="translate(-21232.337,7962.1264)">
                                <path
                                   style="fill:#d6d5d4;stroke-width:4109.75"
                                   d="m 284526.31,794075.91 c 9525.51,-10333.94 22244.43,-29290.18 28264.26,-42124.99 l 10945.16,-23335.97 1173.02,-204382.89 c 1017.56,-177297.26 336.75,-206000.04 -5137.19,-216585.49 -9152.15,-17698.29 -9289.27,-563761.79 -145.58,-579757 3253.97,-5692.21 5938.32,-21393.16 6019,-35205.56 495.61,-84846.22 -44766.84,-189731.8 -105195.95,-243768.01 -42468.96,-37976.1 -56056.36,-52433.54 -64190.41,-68300.74 -13973.98,-27259.2 -15166.66,-36337.3 -5424.95,-41291.96 5714.99,-2906.66 8157.57,-7637.18 7433.64,-14396.64 -593.01,-5537.11 -879.14,-11916.87 -635.84,-14177.24 2431.47,-22589.29 3755.72,-100182.16 1840.04,-107814.84 -4225.9,-16837.32 -21571.24,-20568.51 -99284.941,-21357.35 -69905.5283,-709.58 -84561.519,1447.08 -93011.628,13686.86 -1717.055,2487.07 -2825.127,34733.06 -2462.442,71657.76 583.175,59372.59 1501.541,67661.72 7941.897,71683.81 6956.993,4344.71 6942.814,5442.04 -317.273,24549.06 -8615.444,22674.01 -24845.032,45513.17 -43068.754,60608.74 -62968.479,52159.74 -99346.959,107784.66 -121418.769,185656.79 -12113.42,42737.63 -15361.36,100468.47 -6605.03,117401.32 6026.66,11654.32 6701.94,41622.53 6571.25,291629.088 -122.06,233812.232 -1090.53,280292.942 -6018.99,288914.392 -4864.63,8509.82 -5898.4,44669.75 -6018.98,210543.58 l -145.48,200269.19 11281.07,27469.97 c 6204.62,15108.49 19321.72,36413.09 29149.14,47343.56 l 17867.9,19873.58 h 50222.189 50222.194 l 11842.464,-12360.87 11842.465,-12360.87 12753.1702,12360.87 12753.1782,12360.87 H 60711.405 117856.67 l 12982.42,-12583.04 12982.43,-12583.09 12583.06,12583.09 12583.07,12583.04 h 49109.77 49109.78 z"
                                   id="path17570" />
                                <path
                                   style="fill:#ee5351;stroke-width:4109.75"
                                   d="m 248413.21,791181.86 c 13084.71,-9904.84 22402.74,-22643.43 35252.41,-48193.25 l 17466.46,-34729.69 V 526169.23 344079.59 l -10343.62,-20412.13 -10343.62,-20412.17 -218775.229,32.88 -218775.221,32.88 -9243.34,16187.91 c -9203.42,16117.93 -9244.64,17005.02 -9535.2,205239.2 -278.65,180438.56 82.6,189897.49 7924.18,207625.12 20148.69,45546.94 47954.59,72272.14 75197.257,72272.14 20318.67,0 48632.129,-15867.85 63499.661,-35587.31 l 12887.592,-17093.46 12336.6425,17502.13 c 32284.7485,45802.73 95055.3635,45836.88 130000.4475,70.69 l 13587.4,-17794.87 15270.35,18268.19 c 30352.88,36311.78 63644.13,43842.33 93593.83,21171.07 z M 62631.758,712106.35 C 39387.127,700086.1 31605.273,669462.83 45856.564,646092.34 c 15151.537,-24846.76 50609.033,-28553.55 71670.096,-7492.49 38017.05,38017.08 -6987.71,98280.27 -54894.902,73506.5 z M -90795.291,611188.64 c -29371.969,-23103.97 3735.438,-68345.43 33708.992,-46063.53 16034.456,11919.81 17197.229,34243.38 2390.316,45890.47 -13879.876,10917.94 -22387.562,10958.7 -36099.308,173.02 z M -33999.75,461667.65 c -5548.169,-5548.17 -10087.599,-14879.16 -10087.599,-20735.56 0,-13702.38 17120.787,-30823.16 30823.163,-30823.16 13702.3795,0 30823.163,17120.78 30823.163,30823.16 0,13702.38 -17120.7835,30823.16 -30823.163,30823.16 -5856.401,0 -15187.395,-4539.43 -20735.564,-10087.6 z M -82836.463,350223.92 c -8075.669,-8075.67 -8357.433,-23837.16 -542.077,-30323.34 10276.854,-8529.06 28397.792,-3599.07 32773.078,8916.24 7133.014,20403.7 -17123.664,36514.43 -32231.001,21407.1 z M 308324.15,275722.69 c 4034.83,-1508.49 5137.19,-57300.72 5137.19,-260000.128 V -242356.91 l -248948.818,-3060.82 c -152859.591,-1879.39 -250428.012,-1581.6 -252781.092,771.48 -2311.37,2311.37 -3412.17,106494.28 -2773.68,262510.2 l 1058.6,258677.93 246585.3,550.71 c 135621.92,302.89 248897.04,-313.57 251722.5,-1369.9 z m -18227.64,-558246.95 c 9078.04,-19036.84 8723.29,-49689.41 -1044.75,-90275.17 -18607.58,-77313.53 -48223.83,-126577.05 -104673.01,-174112.49 -34870.17,-29363.92 -50469.89,-50135.68 -59828.82,-79664.89 l -4884.52,-15411.58 H 60711.405 1757.3961 l -4884.5138,15411.58 c -9316.0503,29393.93 -24185.7733,49022.61 -60968.6153,80481.25 -36827.437,31496.76 -65804.417,68643.2 -80683.327,103430.29 -26769.63,62587.71 -37290.4,130207.07 -24627.75,158287.88 l 7384.9,16376.72 H 60574.394 283170.7 Z m -182969.07,-378805 c 37836.85,-1206.85 46882.21,-2695.35 48938.22,-8053.23 1387.21,-3615.01 418.81,-9940.81 -2152,-14057.32 -2975,-4763.74 -3210.79,-8389.02 -648.6,-9972.54 2278.58,-1408.24 4025.59,-24676.87 4025.59,-53617.34 0,-71441.66 5536.23,-67568.42 -96579.245,-67568.42 -103122.303,0 -97785.334,-3873.04 -95176.338,69069.91 1026.288,28692.33 2275.407,54017.26 2775.893,56277.62 500.486,2260.37 -215.762,6883.84 -1591.256,10274.39 -1375.659,3390.55 -741.77,8938.72 1408.618,12329.27 4226.596,6664.06 46310.739,8274.07 138999.118,5317.66 z"
                                   id="path17568" />
                                <path
                                   style="fill:#695245;stroke-width:4109.75"
                                   d="m 248413.21,791181.86 c 13084.71,-9904.84 22402.74,-22643.43 35252.41,-48193.25 l 17466.46,-34729.69 V 526169.23 344079.59 l -10343.62,-20412.13 -10343.62,-20412.17 -218775.229,32.88 -218775.221,32.88 -9243.34,16187.91 c -9203.42,16117.93 -9244.64,17005.02 -9535.2,205239.2 -278.65,180438.56 82.6,189897.49 7924.18,207625.12 20148.69,45546.94 47954.59,72272.14 75197.257,72272.14 20318.67,0 48632.129,-15867.85 63499.661,-35587.31 l 12887.592,-17093.46 12336.6425,17502.13 c 32284.7485,45802.73 95055.3635,45836.88 130000.4475,70.69 l 13587.4,-17794.87 15270.35,18268.19 c 30352.88,36311.78 63644.13,43842.33 93593.83,21171.07 z M 62631.758,712106.35 C 39387.127,700086.1 31605.273,669462.83 45856.564,646092.34 c 15151.537,-24846.76 50609.033,-28553.55 71670.096,-7492.49 38017.05,38017.08 -6987.71,98280.27 -54894.902,73506.5 z M -90795.291,611188.64 c -29371.969,-23103.97 3735.438,-68345.43 33708.992,-46063.53 16034.456,11919.81 17197.229,34243.38 2390.316,45890.47 -13879.876,10917.94 -22387.562,10958.7 -36099.308,173.02 z M -33999.75,461667.65 c -5548.169,-5548.17 -10087.599,-14879.16 -10087.599,-20735.56 0,-13702.38 17120.787,-30823.16 30823.163,-30823.16 13702.3795,0 30823.163,17120.78 30823.163,30823.16 0,13702.38 -17120.7835,30823.16 -30823.163,30823.16 -5856.401,0 -15187.395,-4539.43 -20735.564,-10087.6 z M -82836.463,350223.92 c -8075.669,-8075.67 -8357.433,-23837.16 -542.077,-30323.34 10276.854,-8529.06 28397.792,-3599.07 32773.078,8916.24 7133.014,20403.7 -17123.664,36514.43 -32231.001,21407.1 z M 290096.51,-282524.26 c 9078.04,-19036.84 8723.29,-49689.41 -1044.75,-90275.17 -18607.58,-77313.53 -48223.83,-126577.05 -104673.01,-174112.49 -34870.17,-29363.92 -50469.89,-50135.68 -59828.82,-79664.89 l -4884.52,-15411.58 H 60711.405 1757.3961 l -4884.5138,15411.58 c -9316.0503,29393.93 -24185.7733,49022.61 -60968.6153,80481.25 -36827.437,31496.76 -65804.417,68643.2 -80683.327,103430.29 -26769.63,62587.71 -37290.4,130207.07 -24627.75,158287.88 l 7384.9,16376.72 H 60574.394 283170.7 Z"
                                   id="path17566" />
                                <circle
                                   style="fill:#d6d5d4;stroke-width:263179;stroke-linecap:round;stroke-linejoin:bevel;stroke-dasharray:263179, 526356;fill-opacity:1"
                                   id="path18175"
                                   cx="-222180.2"
                                   cy="418173.16"
                                   r="25335.33"
                                   transform="scale(-1,1)" />
                                <circle
                                   style="fill:#d6d5d4;fill-opacity:1;stroke-width:126716;stroke-linecap:round;stroke-linejoin:bevel;stroke-dasharray:126716, 253431"
                                   id="path18175-6"
                                   cx="-95503.516"
                                   cy="499809.28"
                                   r="12198.491"
                                   transform="scale(-1,1)" />
                                <circle
                                   style="fill:#d6d5d4;fill-opacity:1;stroke-width:263179;stroke-linecap:round;stroke-linejoin:bevel;stroke-dasharray:263179, 526356"
                                   id="path18175-3"
                                   cx="-187461.39"
                                   cy="672464.88"
                                   r="25335.33"
                                   transform="scale(-1,1)" />
                                <circle
                                   style="fill:#d6d5d4;fill-opacity:1;stroke-width:331411;stroke-linecap:round;stroke-linejoin:bevel;stroke-dasharray:331411, 662819"
                                   id="path18175-8"
                                   cx="-179016.27"
                                   cy="-375667.16"
                                   r="31903.75"
                                   transform="scale(-1,1)" />
                                <circle
                                   style="fill:#d6d5d4;fill-opacity:1;stroke-width:155958;stroke-linecap:round;stroke-linejoin:bevel;stroke-dasharray:155958, 311915"
                                   id="path18175-2"
                                   cx="12406.226"
                                   cy="-390680.72"
                                   r="15013.528"
                                   transform="scale(-1,1)" />
                                </g>
                                </g>
                                </g>
                                </g>
                                </g>
                                </g>
                                </g>
                                </g>
                                </g>
                                </g>
                                </g>
                                </g>
                                </g>
                                </g>
                                </g>
                                </g>
                                </g>
                                </g>
                                </g>
                                </g>
                                </g>
                                </g>
                                </g>
                                </g>
                                </g>
                                </g>
                                </g>
                                </g>
                                </g>
                                </g>
                                </g>
                                </g>
                                </g>
                                </g>
                                </g>
                                </g>
                                </g>
                                </g>
                                </g>
                                </g>
                                </g>
                                </g>
                                </g>
                                </g>
                                </g>
                                </g>
                                </g>
                                </g>
                                </g>
                                </g>
                                </g>
                                </g>
                                </g>
                                </g>
                                </g>
                                </g>
                                </g>
                                </g>
                                </g>
                                </g>
                                </g>
                                </g>
                                </g>
                                </g>
                                </g>
                                </g>
                                </g>
                                </g>
                                </g>
                                </g>
                              </g>
                            </g>
                          </g>
                        </g>
                      </g>
                    </g>
                  </g>
                </g>
              </g>
            </g>
          </g>
        </g>
      </g>
    </g>
  </g>
</svg>
