<?xml version="1.0" encoding="UTF-8" standalone="no"?>
<!-- Created with Inkscape (http://www.inkscape.org/) -->

<svg
   width="64"
   height="64"
   viewBox="0 0 16.933333 16.933334"
   version="1.1"
   id="svg5"
   inkscape:version="1.2 (dc2aedaf03, 2022-05-15)"
   sodipodi:docname="corossol.svg"
   xmlns:inkscape="http://www.inkscape.org/namespaces/inkscape"
   xmlns:sodipodi="http://sodipodi.sourceforge.net/DTD/sodipodi-0.dtd"
   xmlns="http://www.w3.org/2000/svg"
   xmlns:svg="http://www.w3.org/2000/svg">
  <sodipodi:namedview
     id="namedview7"
     pagecolor="#ffffff"
     bordercolor="#666666"
     borderopacity="1.0"
     inkscape:pageshadow="2"
     inkscape:pageopacity="0.0"
     inkscape:pagecheckerboard="0"
     inkscape:document-units="mm"
     showgrid="false"
     units="px"
     inkscape:zoom="15.999999"
     inkscape:cx="37.250002"
     inkscape:cy="32.812502"
     inkscape:window-width="1920"
     inkscape:window-height="1017"
     inkscape:window-x="3832"
     inkscape:window-y="-8"
     inkscape:window-maximized="1"
     inkscape:current-layer="g1224"
     inkscape:showpageshadow="2"
     inkscape:deskcolor="#d1d1d1" />
  <defs
     id="defs2" />
  <g
     inkscape:label="Calque 1"
     inkscape:groupmode="layer"
     id="layer1">
    <g
       id="g4128"
       transform="translate(-0.63104184,0.12620835)">
      <g
         id="g5578"
         transform="translate(0.08924235,0.08924306)">
        <g
           id="g7501"
           transform="translate(-0.06310417,0.94656242)">
          <g
             id="g9467"
             transform="translate(-0.08924275,-0.80318511)">
            <g
               id="g10302"
               transform="translate(0.31234979,-0.04462139)">
              <g
                 id="g11479"
                 transform="translate(-0.12620833,0.06310418)">
                <g
                   id="g11873"
                   transform="translate(-0.23575769,0.66462456)">
                  <g
                     id="g12382"
                     transform="translate(-121.98459,-82.267525)">
                    <g
                       id="g13305"
                       transform="matrix(0.13266609,0,0,0.13266609,114.63867,78.215696)">
                      <g
                         id="g17429"
                         transform="translate(0.90513437,5.6640979)">
                        <g
                           id="g18595"
                           transform="translate(-3.3634362,-8.7449387)">
                          <g
                             id="g21002"
                             transform="translate(1.7082278,-2.8204445)">
                            <g
                               id="g23814"
                               transform="translate(8.7253043,-1.1218249)">
                              <g
                                 id="g24838"
                                 transform="translate(11.143454,-0.85716864)">
                                <g
                                   id="g25315"
                                   transform="translate(-3.490122,2.4929446)">
                                <g
                                   id="g27220"
                                   transform="translate(2.4678888,1.2339445)">
                                <g
                                   id="g29753"
                                   transform="translate(1.4759287,-2.3737724)">
                                <g
                                   id="g30615"
                                   transform="translate(0.92006037,1.3687834)">
                                <g
                                   id="g31433"
                                   transform="translate(-2.4678886,-1.410222)">
                                <g
                                   id="g31731"
                                   transform="translate(1.0576664,-0.70511063)">
                                <g
                                   id="g33243"
                                   transform="matrix(1.0772948,0,0,1.0772948,-7.3729128,-3.1743014)">
                                <g
                                   id="g35254"
                                   transform="translate(-2.2135012,-0.92031205)">
                                <g
                                   id="g36749"
                                   transform="translate(-0.98178042,-2.7817105)">
                                <g
                                   id="g37297"
                                   transform="translate(-6.7755742,-3.5033798)">
                                <g
                                   id="g38955"
                                   transform="matrix(1.2171094,0,0,1.2171094,-23.105122,-18.212482)">
                                <g
                                   id="g39618"
                                   transform="translate(-0.26888273,-0.26888316)">
                                <g
                                   id="g40032"
                                   transform="translate(-1.90129,-3.042064)">
                                <g
                                   id="g40543"
                                   transform="translate(0.3802582,-2.0914191)">
                                <g
                                   id="g41372"
                                   transform="translate(1.9657652,-7.9304203)">
                                <g
                                   id="g43278"
                                   transform="translate(1.5210324,-0.38025789)">
                                <g
                                   id="g44210"
                                   transform="matrix(1.1578947,0,0,1.1578947,-18.904476,-21.776183)">
                                <g
                                   id="g44833"
                                   transform="matrix(1.1196819,0,0,1.1196819,-12.538538,-14.547543)">
                                <g
                                   id="g47597"
                                   transform="translate(3.1109352,-1.2443743)">
                                <g
                                   id="g48754"
                                   transform="translate(-2.9035392,-6.6366609)">
                                <g
                                   id="g234"
                                   transform="matrix(0.04089637,0,0,0.04089637,104.63967,119.67231)">
                                <g
                                   id="g2138"
                                   transform="translate(-86.211222,-40.569988)">
                                <g
                                   id="g2696"
                                   transform="translate(-124306.44,-9412.2373)">
                                <g
                                   id="g3765"
                                   transform="translate(25.356243,-50.712489)">
                                <g
                                   id="g4557"
                                   transform="translate(46.61688,-35.859142)">
                                <g
                                   id="g5244"
                                   transform="translate(7.1718407,14.343658)">
                                <g
                                   id="g5807"
                                   transform="translate(-5.1984397,-21.113724)">
                                <g
                                   id="g6945"
                                   transform="translate(-10.142522,-243.41993)">
                                <g
                                   id="g11108"
                                   transform="translate(18.189368,-37.636113)">
                                <g
                                   id="g15049"
                                   transform="translate(-65.926228,141.99496)">
                                <g
                                   id="g19861"
                                   transform="matrix(0.07356842,0,0,0.07356842,115423.38,9039.2311)">
                                <g
                                   id="g20437"
                                   transform="translate(-478.38824,-785.88156)">
                                <g
                                   id="g21032"
                                   transform="translate(2047.1878,-1072.3367)">
                                <g
                                   id="g21869"
                                   transform="matrix(0.04321578,0,0,0.04321578,117368,10137.003)">
                                <g
                                   id="g25455"
                                   transform="translate(154741.46,-87178.414)">
                                <g
                                   id="g26278"
                                   transform="translate(-18012.371,-8233.4417)">
                                <g
                                   id="g27240"
                                   transform="translate(-0.00447131,5582.7624)">
                                <g
                                   id="g28306"
                                   transform="translate(-15790.441,-2255.7767)">
                                <g
                                   id="g33735"
                                   transform="translate(14662.549,-16918.328)">
                                <g
                                   id="g37868"
                                   transform="translate(-5075.4976,25941.433)">
                                <g
                                   id="g76752"
                                   transform="matrix(-1,0,0,1,9442.3174,-1595.0746)">
                                <g
                                   id="g82459"
                                   transform="translate(3383.6668,-1127.8885)">
                                <g
                                   id="g83208"
                                   transform="matrix(0.20332428,0,0,0.20332428,-15348.528,66747.475)">
                                <g
                                   id="g83934"
                                   transform="matrix(-1,0,0,1,240692.18,94139.78)">
                                <g
                                   id="g84550"
                                   transform="translate(-8.7627443e-5,55472.344)">
                                <g
                                   id="g9096"
                                   transform="translate(31379.925,-62759.843)">
                                <g
                                   id="g11527"
                                   transform="translate(61019.625,105397.54)">
                                <g
                                   id="g13422"
                                   transform="translate(-44377.907,44377.908)">
                                <g
                                   id="g1137"
                                   transform="translate(-3.3240812e-4,138680.92)">
                                <g
                                   id="g3632"
                                   transform="translate(177511.65,-22188.943)">
                                <g
                                   id="g5936"
                                   transform="translate(11767.473,-47069.909)">
                                <g
                                   id="g7318">
                                <g
                                   id="g11619"
                                   transform="translate(27457.436,-223581.94)" />
                                <g
                                   id="g11985"
                                   transform="translate(70604.821,-133364.68)">
                                <g
                                   id="g12707"
                                   transform="matrix(1.186974,0,0,1.186974,95904.637,-164033.62)">
                                <g
                                   id="g4721"
                                   transform="matrix(-1,0,0,1,-561251.4,-59483.037)">
                                <g
                                   id="g7072">
                                <g
                                   id="g10426"
                                   transform="translate(66928.962,-211126.69)">
                                <g
                                   id="g1231"
                                   transform="translate(-14020.287,4673.4667)">
                                <g
                                   id="g2516"
                                   transform="matrix(1.1495428,0,0,1.1495428,-144709.4,-78762.736)">
                                <g
                                   id="g3795"
                                   transform="translate(-22559.428,121623.52)">
                                <g
                                   id="g5627"
                                   transform="translate(-106364.63,2874.7178)">
                                <g
                                   id="g6621"
                                   transform="translate(-12196.407,40654.68)">
                                <g
                                   id="g7772"
                                   transform="translate(28747.2,74742.673)">
                                <g
                                   id="g8880"
                                   transform="translate(-60982.018,187011.51)">
                                <g
                                   id="g11165"
                                   transform="translate(-44309.499,5172.6179)">
                                <g
                                   id="g12249"
                                   transform="translate(48785.608,-8130.9328)">
                                <g
                                   id="g14000"
                                   transform="matrix(1.0831477,0,0,1.0831477,-5722.2619,28128.151)">
                                <g
                                   id="g15203"
                                   transform="translate(53158.943,24797.103)">
                                <g
                                   id="g16076"
                                   transform="translate(-37533.822,-30027.061)">
                                <g
                                   id="g17560"
                                   transform="translate(-21232.337,7962.1264)">
                                <g
                                   id="g25114"
                                   transform="translate(-67560.839,7506.7636)">
                                <g
                                   id="g29358"
                                   transform="translate(-21232.382,-47772.762)" />
                                </g>
                                <g
                                   id="g54846"
                                   transform="translate(-89414.803,-58825.532)">
                                <g
                                   id="g56152"
                                   transform="translate(-3.3655809e-4,28236.25)">
                                <g
                                   id="g56999"
                                   transform="translate(-65884.586,-28236.251)">
                                <g
                                   id="g58386"
                                   transform="translate(-26621.369,66553.488)">
                                <g
                                   id="g59580"
                                   transform="matrix(1.3336607,0,0,1.3336607,-147290.21,2462.1241)">
                                <g
                                   id="g60913"
                                   transform="translate(52929.981,10585.996)">
                                <g
                                   id="g61494"
                                   transform="translate(83376.512,12462.173)">
                                <g
                                   id="g64263"
                                   transform="translate(12959.021,17102.931)">
                                <g
                                   id="g66681"
                                   transform="translate(34932.003,-24951.435)">
                                <g
                                   id="g67253"
                                   transform="translate(-56458.648,35286.648)">
                                <g
                                   id="g67911"
                                   transform="translate(-35291.329,-19495.235)">
                                <g
                                   id="g68553"
                                   transform="translate(-128708.75,-9980.5274)">
                                <g
                                   id="g69435"
                                   transform="translate(24951.434,-1.4872907e-4)">
                                <g
                                   id="g70136"
                                   transform="translate(44108.319,-44108.311)">
                                <g
                                   id="g73710"
                                   transform="translate(2814.3438,42215.187)">
                                <g
                                   id="g75109"
                                   transform="matrix(0.86843181,0,0,0.86843181,6682.2729,-19586.27)">
                                <g
                                   id="g76838"
                                   transform="translate(18332.288,-98536.062)">
                                <g
                                   id="g77594"
                                   transform="translate(-123147.4,-132869.59)">
                                <g
                                   id="g79315"
                                   transform="translate(-41162.31,27678.708)">
                                <g
                                   id="g1224"
                                   transform="translate(18332.291,-43539.192)">
                                <path
                                   style="fill:#ffffff;stroke:none;stroke-width:25925.8px;stroke-linecap:butt;stroke-linejoin:miter;stroke-opacity:1;fill-opacity:1"
                                   d="M -52701.268,199783.22 505273.7,609578.87 354371.38,729628.59 13010.02,715920.13 -158748.24,437218.05 Z"
                                   id="path1762" />
                                <g
                                   id="g1607"
                                   transform="translate(12962.915,38888.66)">
                                <path
                                   style="fill:#ccd69d;stroke-width:893.16"
                                   d="M -8483.403,191049.3 C 1399.9961,226799.71 107402.33,296453.31 81014.084,268928.55 202456.3,358355.58 324275.13,447273.71 445558.65,536916.9 c -31424.71,21715.46 -55312.64,38284.48 -81247.21,70907.59 -41952.56,52772.15 -103797.72,59044.38 -155487.12,32390.88 -32550.75,11126.01 -67514.39,39564.34 -107445.5,21284.56 C 54646.305,640106.59 30059.855,588751.15 19067.546,592627.04 -46634.548,615793.62 -108652.31,519732.8 -101725.11,451025.99 c -50888.05,-52599.9 -73292.24,-145038.37 -22694.1,-205074.87 -4373.45,-37464.6 58397.168,-83765.82 29046.545,-106190.77 -23427.265,-17899.28 -93769.175,-63913.037 -78578.695,-52506.993 -35012.34,35170.293 -47729.01,86941.983 -41581.11,135261.393 -22851.82,31487.25 -36830.13,150494.67 -39035.18,109813.26 -63.66,59233.29 26309.22,116631.4 66594.81,159344.62 -8063,71874.52 97711.49,154169.97 162197.372,182762.46 75965.445,76028.65 258764.208,74064.02 233152.988,71189.6 131499.63,-2439.96 270228.28,-8668.6 388820.79,-71719.35 60888.72,-31306.4 108680.94,-97763.06 95243.51,-168590.44 C 672032.41,401601.05 589288.82,324428.03 505519.24,267613.99 357205.87,170888.96 161025.97,122049.69 -8483.403,191049.3 Z M 278961.29,563110.78 c 78582.17,-11658.08 -39235.51,-212445.9 -53.93,-123276.54 -16441.65,-23971.31 -110293.43,-41090.33 -81535.8,-60034.09 5903.21,55147.22 15140.59,111872.77 40763.11,161619.8 8315.02,13674.12 24106.17,24889.47 40826.62,21690.83 z M 259167.48,519119.8 c -3843.17,-19420.37 33060.75,17364.84 24801.4,-21749.16 -426.61,11168.76 -13535.52,24870.16 -24801.4,21749.16 z M 98025.284,559957.84 C 148276.79,521558.4 156906.85,407799.08 148264.69,442911.77 158422.33,414248.92 66919.219,422004.38 112304.68,373515.19 87889.969,409712.7 65916.027,448176.53 46558.729,487301.18 c -15478.103,33784.21 12848.314,79896.04 51466.555,72656.66 z m -9337.988,-41149.13 c 6257.562,-29666.49 3141.514,-55437.43 16418.424,-18107.21 4178.56,9307.74 -6902.319,23614.34 -16418.424,18107.21 z M 61164.66,270511.29 C 204396.66,155906.7 347628.66,41302.116 490860.67,-73302.47 347628.66,41302.117 204396.66,155906.7 61164.66,270511.29 Z"
                                   id="path1627"
                                   sodipodi:nodetypes="ssssssssssssssccsssssssssssssssssssscsc" />
                                <path
                                   style="fill:#aebe20;stroke-width:893.16"
                                   d="m 504926.5,866270.27 c 85546.48,-49745.73 160374.87,-97213.2 141199.98,-92955.71 40684.12,-22309.81 48865.51,-116588.48 70651.02,-112311.21 54383.06,10677.34 85565.74,-73793.7 105198.62,-124442.6 804.33,-47543.28 66770.72,-137228.72 44983.17,-111671.78 -35604.27,41764.05 59448.64,-113138.1 22437.43,-161952.06 42205.79,-69706.73 25226.35,-163126.576 -30853.42,-220073.688 2192.27,-69895.149 -40194.95,-142950.712 -112415.18,-156939.862 -42492.98,-26441.52 -113629.43,-70325.1 -225269.61,-123349.7 -8493.01,-39258.86 -42598.7,-153005.42 -23186.78,-127790.2 -12292.31,60544.9 -20980.97,122782.6 -24855.58,184257.33 -73722.96,-47604.05 -181147.96,-30275.82 -241548.3,31457.12 C 154634.49,-125416.48 77681.099,-55304.892 98159.888,-74274.751 62450.294,-34823.327 57825.867,124534.77 53357.013,72337.502 12306.576,101625.38 -6579.6167,154365.48 -8406.9664,203194.83 158921.42,325076.82 325511.84,448052.81 492310.82,570690.23 426221.58,591759.59 273801.39,722400.51 334100.6,692178.48 205287.69,759735.77 87859.496,740617.04 11490.584,685722.8 -55770.7,661667.37 -236570.76,491621.92 -138205.49,588142.22 c -1354.23,55542.91 20323.12,32962.96 -70249.36,-161634.86 -41113.14,-88332.87 -34078.39,-143411.55 13534.51,-197147.91 82.78,-74039.62 39851.03,-115769.75 24581.41,-136487.706 -66974.36,13759.066 -99085.67,200568.946 -62867.17,157221.996 -44362.88,78618.47 -13253.38,178906.34 44835.84,241706.67 -7186.69,89684.31 67796.58,179016.41 158776.735,183395.97 36062.3777,37989.38 206596.735,74130.89 146605.395,75780.93 15500.87,-21220.14 194755.13,111720.77 96429.04,28307.63 28150.98,53972.62 71012.48,112095.01 148718.67,70601.12 45524.29,7410.79 89270.54,25602.95 142766.92,16384.21 z M 710045.4,421436.68 c 319564.5,-702437.93 159782.24,-351218.967 0,0 z M 56920.721,337385.37 C 200691.51,214290.91 344462.29,91196.449 488233.07,-31898.011 344462.29,91196.45 200691.51,214290.91 56920.721,337385.37 Z M 13380.6,311239.76 c 81543.545,-5294.16 37087.905,-46164.17 33528.88,-49405.47 -97884.179,-55252.26 -131803.233,6517.72 -137126.898,34389.88 28658.091,23142.56 69385.756,18684.67 103598.018,15015.59 z"
                                   id="path1623"
                                   sodipodi:nodetypes="sssssssccsssssscccssscssssscsccssscscc" />
                                <path
                                   style="fill:#9aa81b;stroke-width:893.16"
                                   d="M 282221.76,845831.47 C 245645.45,789792 335302.96,748817.59 329908.57,754797.14 304397.86,708318.69 281485.61,712353.09 212958.85,713179.79 66024.184,761332.16 -173530.7,610024.7 -168847.08,483042.65 -231905.24,419087.74 -259647.32,304895.7 -196267.1,232044.78 c 56734.63,-313824.333 -78775.4,61883.87 -36939,18048.96 -44358.38,78650.31 -13255.02,178890.74 44835.85,241706.67 -7206.12,89654.23 67731.19,179117.68 158776.725,183395.97 -612.77,73612.09 267156.435,139489.41 253583.245,119448.58 15345.01,21092.5 33667.69,41162.55 58232.04,51186.51 z m 222156.6,-4979.01 c 56835.82,1277.72 -22717.2,-134953.28 44619.14,-112170.72 -79864.23,-26179.18 -133080.79,93569.34 -129787.52,78726.43 12242.79,21954.14 57960.09,35221.76 85168.38,33444.29 z m -167673.84,-1396.19 c 35608.25,6334.85 71971.21,-13735.96 52322.22,-48611.92 -92121.45,-16971.01 -55901.61,-48901.07 -110307.83,29518.5 -1894.12,17493.92 43928.72,19757.01 57985.61,19093.42 z m 260570.59,-67019.6 c 59273.94,-10625.09 88671.52,-50909.45 114248.5,-119324.21 -102345.19,17146.22 -162184.09,103622.5 -114248.5,119324.21 z m -181877.66,-602.79 c 43457.65,-12481.31 61729.33,-42755.1 57430.17,-107992.03 -70702.1,-72984.42 -252490.52,93330.56 -57430.17,107992.03 z m 165422.34,-62353.29 c 35797.41,-29579.88 71347.12,-59458.93 103447.31,-93208.66 -75970.71,-92183.15 -128335.48,-85649.14 -181726.64,-13474.56 -78468.63,41775.77 87131.66,118268.46 48362.79,102120.97 9478.02,-546.77 21548.56,13022.03 29916.54,4562.25 z m 137264.05,-84987.56 c 53612.28,-32235.16 82434.12,-89664.96 49811.47,-128232.33 -27111.18,-38355 -74755.8,25339.12 -85719.79,26209.26 4616.91,22609.54 11803.02,90775.04 35908.32,102023.07 z M 515783.1,576752.2 c 39680.67,-25555.49 31520.08,-77598.77 23195.35,-94110.75 -6673.4,-60873.1 -93239.26,-60635.15 -110830.15,-48817.94 -45913.29,42926.18 -68674.35,48531.09 -19123.46,75485.61 34806.12,17046.98 72878.76,70125.66 106758.26,67443.08 z M 252720.97,405091.51 c 624447.44,-691541.15 312223.72,-345770.577 0,0 z M 99727.558,559163.73 c 448.152,-3428.41 -6897.294,1757.69 -10305.749,1176.93 z M 89477.832,520078.6 c -7894.551,-36496.2 6528.719,37921.45 14712.578,-7260.49 -2767.07,3269.43 -9123.191,10567.16 -14712.578,7260.49 z m 561729.898,11537.58 c 33217.92,-46737.12 86807.68,-52352.65 69265.49,-129591.68 -15680.73,-61176.77 -208594.6,98617.86 -185202.35,39955.39 19402.64,51361.37 57878.3,105885.62 115936.86,89636.29 z m -271840.71,-69421.4 c 72329.58,-38636.28 -38266.31,-188611.9 -34177.48,-136174.4 -31510.78,-2566.79 -56615.36,-83171.8 -72626.31,-51496.81 59045.36,40090.74 84391.98,3464.02 129943.58,-50028.77 C 458761.27,171789.72 365461.84,32285.596 384022.39,80548.473 384396.72,53505.512 356863.1,22801.831 337555.59,41088.475 414558.15,68970.223 494136.26,-38581.061 458295.7,-13596.755 576724.15,-96956.968 467411.29,-139186.96 420489.94,-203671.69 349465.4,-217487.65 265658.39,-196708.41 220831.43,-136848.1 117854.73,-132321.88 39774.349,-27743.481 53357.013,72337.502 12365.036,101786.68 -10184.096,252116.62 -8406.9664,203194.83 115803.82,293425.72 239262,384766.91 363052.74,475604.33 c 6103.58,-3607.88 10973.96,-8841.71 16314.28,-13409.55 z M 768100.8,439911.24 C 875543.26,414756 872513.07,388239.52 889374.48,301717.55 c 14269.16,-55556.87 -59154.34,-41722.03 -95400.92,-40369.44 -82768.95,84494.76 4936.66,189024.91 -52329.21,134027.55 9823.36,9001.54 9601.11,49324.12 26456.45,44535.58 z M 518151.82,423543.82 c 84860.81,-65578.27 9607.07,-168082.99 28005.22,-136683.21 -9541.97,-50391.93 -64559.42,-88474.64 -98304.77,-78870.18 -34127.44,30000.48 -60571.45,69188.24 -92370.12,102107.65 29050.41,40602.29 166042.26,102830.65 105649.29,109715.18 18218.6,-1680.51 40746.67,10799.21 57020.38,3730.56 z M 701113.8,331750.41 C 904131.9,170281.65 641672.63,60654.32 564364.96,285954.83 590737.12,343129.1 650429.24,335328.7 701113.8,331750.41 Z M 875214.16,227609.88 C 903560.53,139489.09 891122.97,89226.968 843807.77,41525.214 806716.26,36523.028 753218.24,163910.06 763122.6,127265.05 c 27102.88,39805.44 66899.9,91522.52 94145.37,103918.71 3320.46,-1524.56 17869.05,7323.18 17946.19,-3573.88 z M 530520.24,222060.01 C 693312.81,82260.204 637521.24,2594.0897 556958.05,-54168.663 482544.71,-28368.637 394600.51,65658.429 424234.2,39422.065 c -60605.18,35354.501 63514.03,190057.455 37512.72,153912.475 23431.67,7654.56 47056.57,20652 68773.32,28725.47 z M 755165.94,107581.92 C 771258.97,67504.168 843807.77,41525.214 828761.73,674.61061 821358.66,-71716.17 745310.5,-118940.73 677293.56,-108996.44 635974.45,-81387.016 678444.46,51556.661 637521.24,2594.0897 711794.28,127445.22 652017.53,31178.296 731322.17,104488.76 c 6540.1,-1532.77 19956.3,12969.87 23843.77,3093.16 z M 606554.83,-59155.816 C 676100.71,-160904.36 469585.87,-220250.66 511022.5,-110212.18 c 1988.23,44283.458 68356.84,58350.315 95532.33,51056.364 z M 491600.47,-169153.36 c 17933.94,-191778.01 11226.46,-176523.71 -10835.04,-5249.93 l 7879.98,5433.62 z"
                                   id="path1619"
                                   sodipodi:nodetypes="cccccccccccccccccccccccccccccccccccccccccccccccccccccccccccccccccccccccccccccccccccccccccccccccccccc" />
                                <path
                                   style="fill:#6d9225;stroke-width:893.16"
                                   d="m 472813.53,827706.66 c -3600.42,-10778.21 -8820.66,-34154.61 -11082.5,-49627.99 -1075.79,-7359.46 -590.22,-13832.63 1477.21,-19692.3 680.48,-1928.69 1077.97,-3665.97 883.31,-3860.59 -541.13,-541.17 -19810.8,13568.88 -29724.52,21765.5 -4848.8,4008.95 -11114.39,9698.65 -13923.56,12643.75 l -5107.56,5354.77 4069.54,11948.15 c 3541.58,10398.08 4321.56,11951.02 6012.18,11969.87 10572.36,118.25 10454.43,76.81 19891.04,7039.44 7482.13,5520.8 10738.02,7267.19 19129.68,10260.62 5562.08,1984.15 10579.38,3607.47 11149.56,3607.47 641.99,0 -414.26,-4343.52 -2774.38,-11408.69 z m -152547.47,9456.96 c -4278.22,-14737.5 -4379.05,-15419.6 -4465.06,-30202.03 -47.16,-8105.42 227.38,-16488.62 610.09,-18629.44 l 695.84,-3892.3 -3821.9,2802.82 c -6796.89,4984.64 -15418.67,13124.9 -26580.03,25095.48 l -10920.86,11712.63 2995.52,2223.52 c 7548.04,5602.79 23192.17,10907.9 36385.03,12338.47 5654.14,613.15 5696.56,601.1 5101.37,-1449.15 z M 263368.97,804505.4 c -8258.71,-28862.6 -8914.38,-49270.61 -9281.75,-77085.69 -32612.48,-13264.33 -54689.85,-9330.22 -72186.25,9976.15 -1278.38,2266.04 -3746.42,5368.7 -5484.53,6894.75 -1738.11,1526.05 -3160.2,2944.66 -3160.2,3152.32 0,207.75 2913.93,1097.34 6475.41,1977.01 6724.68,1660.83 28271.11,2374.37 32828.41,1087.15 2017.06,-569.74 2401.69,-235.52 3901.12,3389.72 10998.99,19850.22 26516.62,37333.83 42266.12,52001.48 3043.28,2058.55 5734.61,3742.78 5980.73,3742.78 246.11,0 -356.46,-2311.05 -1339.06,-5135.67 z m 331388.8,-30649.59 c 10958.25,-7566.5 28124.91,-11230.92 38980.11,-15571.44 -10450.84,-21923.2 -7151.45,-40457.06 -2198.3,-59996.95 4860.93,-10745.25 4968.55,-10646.46 -3904.46,-3581.12 -20217.12,12167.64 -34296.36,26288.41 -43604.11,46161.45 4522.78,10962.22 7887.62,23079.3 10726.76,32988.06 z M 426604.78,763275.26 c 8811.96,-6183.7 17007.97,-11955.48 18213.37,-12826.22 l 2191.63,-1583.22 -3678.48,525.45 c -4690.97,670.05 -16838.68,-949.07 -24902.64,-3319.07 -20741.49,-6096.09 -39663.07,-23432.5 -46819.88,-42897.5 l -887.27,-2413.14 -8746.77,4113.54 c -4810.72,2262.38 -15931.12,6827.41 -24711.99,10144.33 l -15965.24,6030.8 13354.97,13704.74 c 18584.95,23052.76 42934.74,27167.5 69582.03,37320.06 l 6348.53,2443.15 z m 169987.06,-69208.2 -7357.45,-3661.77 C 548246.91,671101.75 527658.7,638061.38 520047.58,597345.16 l 443.63,-7315.69 -18402.86,13865.68 c -10121.57,7626.16 -21128.46,15457.56 -24459.76,17403.13 -3331.3,1945.66 -6056.91,3955.81 -6056.91,4467.14 29380.61,55946.27 50590.66,69840.37 103732.41,86254.52 8611.75,-5221.4 13158.76,-10426.58 21287.75,-17952.88 z m 123730.54,-71345.8 c 5722.08,-2533.82 10450.58,-6609.8 15672.2,-9912.37 -23807.86,-27001.11 -30688.97,-63617.75 -28661.46,-94633.34 1085.01,-8267.89 1758.93,-15246.24 1497.61,-15507.58 -261.32,-261.34 -8233.84,5718.54 -17716.7,13288.52 -13927.35,9743.58 -27647.54,22297.76 -39124.01,33478.14 16623.51,27837.44 36518.06,55036.75 59357.81,77082.56 1003,-14.29 5041.56,-1722.54 8974.57,-3795.93 z M 283809.69,561368.14 c 9960.21,-3584.07 17763.4,-11828.83 21792.58,-23025.58 2634.84,-7321.94 3208.27,-23037.09 1230.26,-33715.62 -4906.77,-26489.7 -18206.2,-53060.94 -43379.35,-86668.77 -13265.01,-17709.66 -31327.48,-33752.7 -46758.82,-41531.08 -7283.27,-3671.23 -13044.92,-4573.9 -16702.04,-2616.67 -3244.53,1736.43 -2081.71,18127.86 3672.74,51771.86 9459.42,55305.54 24142.67,102062.64 37724.89,120130.46 10986.2,14614.42 27932.42,20868.6 42419.74,15655.4 z M 258442.55,518951.7 c -702.9,-1831.78 3825.8,-24610.04 6102.9,-30696.12 1811.31,-4841.19 5801.6,-9976.86 7751.77,-9976.86 1942.99,0 7216,5621.28 9417.89,10039.92 4216.6,8461.62 2552.81,17147.42 -4613.71,24085.75 -6405.3,6201.39 -17321.7,10031.89 -18658.85,6547.31 z M 99727.558,559163.73 c 8892.392,-2780.49 17142.422,-10916.38 22565.522,-22253.35 10300.38,-21532.92 24053.52,-76816.85 28806.37,-115793.9 628.97,-5158 1146.69,-17215.66 1150.51,-26794.8 7.14,-18507.76 -944.03,-24346.83 -5060.59,-31058.96 -5464.63,-8910.2 -17162.06,-6952.71 -29474.55,4932.38 -28761.208,39985.66 -99819.391,131645.99 -61106.348,175907.99 6578.838,7184.4 14056.374,12187.88 21779.171,14573.24 6583.661,2033.46 15727.476,2242.28 21339.915,487.4 z M 89477.832,520078.6 c -1330.987,-1330.98 -1383.951,-4714.54 -110.93,-7093.2 528.482,-987.48 1542.755,-7090.36 2253.978,-13561.92 1449.42,-13188.94 1778.907,-14682.66 3727.961,-16902.25 1757.381,-2001.31 4003.857,-1991.3 5829.569,25.9 3876.49,4283.5 5906.2,24682.56 3012,30270.98 -2914.47,5627.53 -11907.52,10065.37 -14712.578,7260.32 z m 556245.438,16282.85 c 12155.64,-12241.58 25622.78,-23654.02 37947.07,-34679.62 -68901.95,-13967.78 -107674.43,-63317.54 -107271.32,-112834.87 787.71,-4603.09 1998.36,-10579.83 2690.32,-13281.64 l 1258.13,-4912.38 -1914.75,2603.25 c -1053.11,1431.78 -4125.31,5451 -6827.12,8931.6 -14125.09,19801.87 -24852.85,35392.98 -37508.58,53216.21 -2.68,735.16 1022.11,4418.19 2276.41,8184.56 24683.28,64413.09 40431.68,73094.37 103762.01,92603.1 4583.6,1852.32 4685.69,1855.45 5587.83,169.79 z m -252999.2,-48995.01 c 89.79,-6182.63 753.56,-11889.12 1888.2,-16233 962.35,-3684.29 1663.71,-6792.66 1558.56,-6907.61 -105.15,-114.86 -4657.58,4545.91 -10116.51,10357.35 l -9925.32,10566.17 7305.85,5355.3 c 4018.22,2945.46 7720.96,5589.48 8228.3,5875.65 605.85,341.81 969.98,-2751.91 1060.92,-9013.86 z m 383861.75,-50222.47 c 16705.83,-4674.71 25071.22,-6202.73 33958.54,-6202.73 7272.86,0 7494.71,-65.2 11735.7,-3466.71 2377.5,-1906.72 5813.38,-5021.62 7635.3,-6921.99 l 3312.58,-3455.28 -11797.6,-28.58 c -10648.27,-25.91 -12384.64,-261.34 -17823.4,-2415.02 -23008.91,-9111.03 -38703.51,-27622.31 -45076.94,-53166.59 -1924.94,-7715.03 -2128.61,-30111.9 -355.24,-39064.41 1665.82,-8409.61 5616.91,-20405.46 9462.19,-28728.06 1736.85,-3759.19 3021.07,-6971.75 2853.8,-7139.01 -634.11,-634.12 -39048.01,37944.33 -43868.75,44056.68 -5523.49,7003.39 -13897.12,20434.45 -13897.12,22290.57 16829.64,21203.39 27946.13,47041.04 39743.83,71786.63 5879.22,12763.71 7986.96,16102.34 10110.66,16015.35 826.21,-33.94 7129.12,-1636.09 14006.45,-3560.5 z M 518673.46,422232.93 c 4490.1,-5437.56 10953.62,-14097.37 10953.62,-14675.69 0,-245.44 -5325.47,-454.17 -11834.37,-464 -74528.41,-460.39 -122202.84,-60259.01 -116851.44,-125130.3 958.72,-9462.97 3607.93,-24297.15 5056.55,-28313.96 354.32,-982.48 -900.81,223.29 -2789.19,2679.48 -6534.19,8498.99 -16315.23,19720.11 -31530.65,36172.98 -9081.24,9819.8 -15286.14,17248.18 -15294.12,18309.78 40193.29,100033.88 64411.59,101361.07 158005.54,115664.22 429.43,0 2357.26,-1909.13 4284.06,-4242.51 z M 247687.78,379794.39 c 5645.19,-18388.71 15893.93,-39052.59 27347.59,-55139.19 6369.95,-8946.57 7562.6,-11377.75 6693.09,-13643.66 -684.5,-1783.79 -37238.93,-13832.35 -37706.9,-12428.42 -660.7,1982.08 -18525.53,30451.38 -28529.33,45464.17 -9758.43,14644.58 -10252.88,15600.26 -8653,16724.73 933.26,655.94 9682.54,7066.23 19442.86,14245.08 9760.31,7178.85 17999.72,13046.38 18309.78,13039.06 310.06,-8.93 1703.23,-3725.21 3095.91,-8261.77 z m -48187.77,-34423.34 c 5322.57,-6184.27 10911.7,-13472.23 26161.49,-34113.25 4899.57,-6631.71 11119.38,-14624 13821.79,-17760.64 l 4913.48,-5702.97 -3019.59,-3228.63 c -1660.77,-1775.74 -8518.56,-10664.18 -15239.52,-19752.08 -22183.23,-28629.23 -44382.75,-60971.88 -62493.84,-88110.26 -853.65,-564.94 -7078.51,-2335.02 -13833.03,-3933.51 -6754.52,-1598.49 -12280.95,-3267.74 -12280.95,-3709.47 0,-441.72 2186,-3695.66 4857.77,-7230.99 8554.34,-11319.21 7849.47,-10709.78 11746.86,-10156.25 3418.16,485.46 3619.31,353.9 9579.96,-6266.36 35837.38,-39091.01 74719.79,-84390.757 97964.65,-123839.978 -19483.29,-39283.61 -15288.73,-56136.609 -15051.18,-90348.438 8181.02,27557.526 18729.23,54441.814 31815.94,79362.374 15143.43,12172.127 29401.59,19285.709 48435.95,24165.345 19779.98,4527.269 37284.25,13131.702 54205.04,21808.35 l 11526.65,-10581.882 c 6339.63,-5820.036 16952.57,-15789.702 23584.28,-22154.807 l 12057.66,-11572.924 -4190.73,459.165 C 410312.75,14210.373 380151.13,4594.4073 352960.78,-9964.4845 l -9198.79,-4925.4375 455.1,-3723.772 c 13330.95,-58026.988 30805.02,-123637.176 60367.59,-167640.016 -38537.82,-8156.28 -70538.22,-509.34 -106286.04,9782.79 -4666.76,1877.28 -8619.81,3295.07 -8784.54,3150.66 -355.59,-311.71 7937.15,-12801.7 11713.66,-17642.33 1454.85,-1864.8 2422.47,-3613.25 2150.26,-3885.46 -502.4,-502.41 -18807.73,7098.78 -30798.77,12789.02 -13897.53,6594.95 -40204.27,28956.78 -48412.89,41152.98 -3061.65,4548.93 -3218.07,4645.3 -7591.86,4677.13 -5300.57,38.58 -24925.7,3039.55 -31260.6,4780.23 -12243.08,3364.12 -40671.43,16909.3 -50910.12,24257.02 -19846.37,14242.601 -31826.77,26139.475 -47469.221,47138.282 C 78586.46,-48846.722 75187.808,-42697.476 67659.63,-25179 56687.249,354.1928 52018.702,26071.502 52889.711,56182.9 l 467.302,16154.602 -3688.037,2396.357 C 42640.343,79300.801 36101.519,85993.365 27040.41,97894.534 14273.403,114662.99 3960.7987,135925.31 -1394.9459,156521.82 c -2877.6722,11066.71 -6371.4462,29941.66 -7160.1064,38682.41 l -609.6711,6755.92 100733.0854,74075.05 c 55403.198,40741.28 101194.988,74353.95 101759.548,74694.81 612.91,370.07 3099.62,-1789.04 6172.1,-5358.96 z m 501749.04,-14602.11 c 1749.23,-2625.7 4658.13,-6535.97 6464.26,-8689.5 1806.11,-2153.52 3103.69,-4095.64 2883.52,-4315.81 -220.17,-220.17 -4687.6,-772.59 -9927.6,-1227.59 -58618.23,-7652.49 -104247.2,-45984.4 -110663.49,-99953.2 -4.46,-10676.96 360.07,-14362.18 2075.29,-20989.26 1961.86,-7579.99 5271.01,-17243.36 8487.52,-24785.19 785.66,-1842.14 1284.04,-3349.35 1107.51,-3349.35 -176.52,0 -8393.87,8741.8 -18260.79,19426.23 -9866.91,10684.43 -25000.91,26455.56 -33631.11,35046.96 -43937.87,71634.6 97457.3,109684.77 144704.41,113038.24 3537.83,565.72 3617.62,516.13 6760.48,-4201.53 z m -320708.04,-79126.1 c -42594.28,6928.64 -87767.83,-10202.59 -116455.6,-31695.29 l -7010.65,-5336.75 602.45,-9955.19 C 260994.85,152078.12 292556.65,90944.248 328099.85,48712.232 310093.54,43678.806 292382.19,38492.146 273736.74,32635.254 239376.05,80585.835 208203.48,117862.04 171190.52,158276.53 c -1762.33,1977.42 -1761.68,1994.95 278.08,7591.86 19496.93,38310.04 45065.57,65979.71 69994.88,98170.68 33034.02,11960.84 65911.89,19840.66 100920.01,28462.37 14713.51,-13768.76 26797.95,-27932.93 38157.52,-40858.6 z m 492576.25,-20905.1 c 738.42,-1427.96 1138.32,-2926.78 888.67,-3330.73 -249.65,-403.95 -2350.92,-1458.91 -4669.47,-2344.38 -3748.6,-1431.61 -14324.89,-7205.4 -15492.3,-8457.54 -245.62,-263.45 -1959.33,-1606.67 -3808.25,-2984.95 -38415,-62152.32 -30678.78,-123654.758 -5823.45,-170627.659 -2369.64,-3393.586 -1551.1,-6842.509 -2425.96,-10701.852 -23008.76,25263.284 -49743.19,50449.007 -69375.27,71307.471 -5193.77,6847.81 -9669.39,15712.49 -9669.39,19151.75 12483.09,34870.48 29392.01,60387.37 45497,96192.43 2586.71,6525.33 3164.19,7328.14 5625.31,7820.36 2640.22,528.05 9422.52,1145.8 35625.12,3244.84 6692.72,536.14 14444.86,1503.94 17226.99,2150.67 l 5058.41,1175.86 z M 536887.64,214191.05 c 4112.12,-4523.98 13593.41,-13954.46 21069.54,-20956.61 7476.12,-7002.15 13463.13,-12861.02 13304.45,-13019.7 -158.69,-158.68 -2457.26,177.02 -5107.94,745.99 -11319.29,2429.72 -40461.44,-1049.6 -57942.67,-6917.86 -17407.03,-5843.35 -33696.71,-20291.62 -42376.07,-37585.83 -7298.02,-14541.79 -10340.15,-29990.08 -10340.15,-52508.458 0,-28757.215 7035.96,-56759.915 21463.67,-85424.1614 L 482316.04,-12119.724 468813.07,-805.99523 C 461386.43,5416.5522 447693.32,17787.72 438383.92,26685.478 418557.75,45634.993 405964.96,57351.483 399373.25,62981.49 l -4731.71,4041.389 3999.37,10695.751 c 8407.46,22484.58 16896.26,41203.02 36850.27,81257.65 l 14684.32,29476.54 16280.34,6135.04 c 21163.52,7975.19 38653.92,15463.88 52122.02,22316.58 l 10833.2,5512.03 z M 768975.68,88234.446 759383.35,87699.639 C 673965.72,42375.865 647049.41,-45294.542 699567.42,-108973.98 c -5681.98,16.44 -11403.42,-1097.53 -16960.97,-1632.42 -540.35,-333.96 -4014.01,1420.42 -7719.23,3898.63 -9009.94,6026.21 -55948.24,51260.962 -55933.94,53903.903 28676.94,110577.138 37844.98,132384.584 134024.1,163804.477 3684.14,-9064.55 11066.5,-16391.394 15998.3,-22766.164 z M 601920.72,-54627.566 c 1025.02,-1303.094 1724.98,-2507.931 1555.48,-2677.426 -169.48,-169.495 -3336.13,-1082.59 -7036.97,-2029.107 -46053.24,-20797.213 -64830.2,-58485.791 -57359.5,-107615.921 647.77,-1641.28 264.01,-1684.93 -9971.73,-1134.36 -5854.98,314.92 -12855.99,1170.18 -15557.8,1900.56 -5894.28,1593.41 -20542.68,7748.63 -20542.68,8631.98 18569.62,68039.273 26955.59,78837.408 81564.72,97173.011 12684.51,4466.283 23607.71,8120.513 24273.78,8120.513 666.08,0 2049.69,-1066.165 3074.7,-2369.25 z M 499259.64,-173352.08 c 9657.08,-4940.32 21632.45,-9307.59 25522.06,-9307.59 h 2207.7 c -32874.1,-75888.33 -27318.6,-208585.8 -45668.14,8379.84 4336.96,3250.89 8037.2,5869.01 8222.78,5818.06 185.58,-50.96 4557.6,-2251.6 9715.6,-4890.31 z"
                                   id="path1615"
                                   sodipodi:nodetypes="sssssscscssssssscsscssscccssssccscccccccsscssscssccccsccccssccccccscccscssssssssssssssssssssccsssssssssscccscscccccsssscssscssscsssssssccsccssccsssccsssssssscsssscsccssssccccccsscssccccssssssssssscsssscssssssccssssccscccccccccccssssccccccssscssssssssscssscsscsscsccccscccssccssccssssccss" />
                                <path
                                   style="fill:#57751d;stroke-width:893.16"
                                   d="m 225301.09,758268.21 c 21877.14,-43281.65 -63290.59,19750.79 -43751.55,-20023.73 -23135.21,16733.73 42411,10002.52 43941.57,24107.14 l -133.21,-2862.54 z m 47042.24,-328023.36 c -10992.66,-25895.52 -59036.58,38108.79 -72136.06,-26701.3 6233.41,24870.49 57130.92,5910.86 72136.06,26701.3 z M 79713.728,353281.4 c 739785.602,-657001.08 369892.802,-328500.541 0,0 z m 131661.062,9556.39 c 9680.74,-31903.93 -13515.64,2341.26 0,0 z M 76125.09,282518.76 c 742178.02,-609825.99 371089.01,-304912.994 0,0 z m 16549.898,-8574.02 c -688.613,-37556.57 43054.092,-89124.81 39020.072,-105499.51 -59205.4,-19538.21 -76966.947,101501.21 -78532.454,79320.63 11889.67,6518.95 29380.369,25841.82 39512.382,26178.88 z m 172210.382,-3438.71 c -35620.99,-96000.65 -48349.57,-67536.89 -49219.82,-160612.39 -38842.38,75735.53 10939.37,157944.41 49219.82,160612.39 z M 38644.97,229782.57 C 124359.74,215088.32 79682.664,120291.55 68347.989,109003.76 50042.47,63639.049 5933.5677,195188.39 10278.66,171679.68 c -15069.6575,30561 -1039.9996,58011.37 28366.31,58102.89 z m 131857.36,-92375.34 c 27732.3,-34780.15 40527.6,-40311.069 -181.92,-37613.569 C 242848.1,45838.138 244228.88,5667.8642 225061.45,-91977.958 178258.16,-124636.59 93817.514,-55925.893 118851.01,-78230.443 65685.648,-29364.491 50518.915,55641.452 88744.24,118086.59 c 2257.645,31350.39 67059.15,42303.13 81758.09,19320.64 z M 342530.91,36141.488 c 8906.2,-60799.382 -18805.14,-95452.913 -27445.04,-79801.8 -23978.94,-41639.278 -17656.88,-93152.848 -5309.95,-136543.678 -27528.12,10562.42 -78926.08,45484.45 -77363.24,58121.26 50297.73,125996.2891 22723.78,138828.606 110118.23,158224.218 z"
                                   id="path1613"
                                   sodipodi:nodetypes="cccccccccccccccccccccccccccccccccccc" />
                                <path
                                   style="fill:#754a26;stroke-width:893.16"
                                   d="m 283809.69,561368.14 c 9960.21,-3584.07 17763.4,-11828.83 21792.58,-23025.58 2634.84,-7321.94 3208.27,-23037.09 1230.26,-33715.62 -4906.77,-26489.7 -18206.2,-53060.94 -43379.35,-86668.77 -13265.01,-17709.66 -31327.48,-33752.7 -46758.82,-41531.08 -7283.27,-3671.23 -13044.92,-4573.9 -16702.04,-2616.67 -3244.53,1736.43 -2081.71,18127.86 3672.74,51771.86 9459.42,55305.54 24142.67,102062.64 37724.89,120130.46 10986.2,14614.42 27932.42,20868.6 42419.74,15655.4 z M 258442.55,518951.7 c -702.9,-1831.78 3825.8,-24610.04 6102.9,-30696.12 1811.31,-4841.19 5801.6,-9976.86 7751.77,-9976.86 1942.99,0 7216,5621.28 9417.89,10039.92 4216.6,8461.62 2552.81,17147.42 -4613.71,24085.75 -6405.3,6201.39 -17321.7,10031.89 -18658.85,6547.31 z M 99727.558,559163.73 c 8892.392,-2780.49 17142.422,-10916.38 22565.522,-22253.35 10300.38,-21532.92 24053.52,-76816.85 28806.37,-115793.9 628.97,-5158 1146.69,-17215.66 1150.51,-26794.8 7.14,-18507.76 -944.03,-24346.83 -5060.59,-31058.96 -5464.63,-8910.2 -17162.06,-6952.71 -29474.55,4932.38 -28761.208,39985.66 -99819.391,131645.99 -61106.348,175907.99 6578.838,7184.4 14056.374,12187.88 21779.171,14573.24 6583.661,2033.46 15727.476,2242.28 21339.915,487.4 z M 89477.832,520078.6 c -1330.987,-1330.98 -1383.951,-4714.54 -110.93,-7093.2 528.482,-987.48 1542.755,-7090.36 2253.978,-13561.92 1449.42,-13188.94 1778.907,-14682.66 3727.961,-16902.25 1757.381,-2001.31 4003.857,-1991.3 5829.569,25.9 3876.49,4283.5 5906.2,24682.56 3012,30270.98 -2914.47,5627.53 -11907.52,10065.37 -14712.578,7260.32 z M 499259.64,-173389.41 c 9668.3,-4921.08 21642.08,-9270.26 25522.06,-9270.26 h 2207.7 l -690.77,-7368.57 c -1316.33,-14041.52 -693.82,-71327.08 948.74,-87306.39 99516.4,-327593.74 -72773.53,-223729.08 -57397.42,54929.34 1265.58,21239.98 3246.59,41646.89 4115.4,42393.7 2706.36,2326.3 15250.13,11619.26 15548.56,11519.04 202.15,-67.88 4587.73,-2271.47 9745.73,-4896.86 z"
                                   id="path1611"
                                   sodipodi:nodetypes="ssssssssssssssssssssccsssssssssssscsccsss" />
                                <path
                                   style="fill:#383634;stroke-width:893.16"
                                   d="m 281966.28,561885.99 c 24957.3,-8150.17 32738.43,-37148.31 20142.61,-75065.98 -9095.21,-27379.65 -37409.96,-71888.49 -56570.9,-88925.69 -23168.24,-20600.31 -38359.19,-28471.37 -45413.26,-23530.51 -2065.17,1446.5 -2099.58,1698.54 -1615.88,11834.4 1205.53,25261.6 12974.19,83599.86 23440.33,116195.83 4482.34,13959.91 10461.5,28426.96 14910.15,36076.34 5176.71,8901.23 14197.52,17709.13 21763.12,21249.52 7109.08,3326.76 16983.96,4243.05 23343.83,2166.09 z m -23554.42,-43014.31 c -527,-1373.33 1096.97,-11132.71 3856.52,-23176.34 1981.35,-8647.31 5326.59,-15546.7 8037.76,-16577.5 5990.22,-2277.47 13710.68,8225.65 13693.56,18629.17 -14.38,8727.96 -5649.71,16322.86 -15392.96,20745.43 -4671.98,2120.63 -9458.32,2298.73 -10194.88,379.24 z M 98868.516,559205.8 c 9768.044,-3187.96 16505.774,-9471.52 22403.014,-20893.07 4545.39,-8803.34 7219.34,-16319.91 13127.36,-36901.62 17012.86,-59267.59 23072.77,-117659.71 14039.29,-135279.96 -3053.33,-5955.68 -5897.96,-7982.45 -11203.58,-7982.45 -6561.25,0 -12262.42,3123.46 -20306.3,11125.06 -8499.67,8455.04 -13448.58,15467.03 -20514.991,29067.14 -3062.825,5894.85 -11102.962,19588.69 -17866.952,30430.76 -6763.99,10841.98 -14365.764,23301.56 -16892.96,27687.96 -15912.181,27618.74 -21631.531,48972.86 -17433.411,65090.64 3724.745,14300.39 14770.812,27705.47 28391.413,34454.72 7003.088,3470.11 8586.215,3903.83 15156.567,4152.03 4546.274,171.67 8768.331,-190.06 11100.55,-951.21 z M 89818.84,520608.25 c -1750.772,-671.84 -1825.44,-4315.75 -183.901,-8968.49 675.943,-1915.74 1501.848,-6889.84 1835.354,-11053.48 1232.65,-15388.97 2813.812,-19628.08 7321.144,-19628.08 3114.183,0 5470.153,5718.99 6488.983,15751.77 1413.34,13917.84 -501.86,19112.01 -8389.36,22752.35 -3893.999,1797.13 -4935.424,1965.94 -7072.22,1145.93 z M 18292.98,415463.13 c 40758.463,-32709.92 57807.548,-50292.34 61678.504,-63608.09 1214.876,-4178.93 1222.11,-5089.04 62.521,-7865.04 -1959.057,-4688.8 -5641.377,-6213.83 -16096.083,-6666.27 -11249.082,-486.82 -21500.862,907.67 -39218.566,5334.66 -115963.03,25149.17 -106075.866,152426.29 -6426.376,72804.74 z M 68928.185,298466.45 c 5880.566,-2600.67 11439.415,-7308.64 11439.415,-9688.43 0,-2928.68 -8717.51,-10685.08 -21594.822,-19214.09 -183117.258,-99140.84 -243804.568,101525.27 10155.407,28902.52 z"
                                   id="path1609"
                                   sodipodi:nodetypes="ssssssssssssssssssssssssssssssssssscscscccscc" />
                                </g>
                                </g>
                                </g>
                                </g>
                                </g>
                                </g>
                                </g>
                                </g>
                                </g>
                                </g>
                                </g>
                                </g>
                                </g>
                                </g>
                                </g>
                                </g>
                                </g>
                                </g>
                                </g>
                                </g>
                                </g>
                                </g>
                                </g>
                                </g>
                                </g>
                                </g>
                                </g>
                                </g>
                                </g>
                                </g>
                                </g>
                                </g>
                                </g>
                                </g>
                                </g>
                                </g>
                                </g>
                                </g>
                                </g>
                                </g>
                                </g>
                                </g>
                                </g>
                                </g>
                                </g>
                                </g>
                                </g>
                                </g>
                                </g>
                                </g>
                                </g>
                                </g>
                                </g>
                                </g>
                                </g>
                                </g>
                                </g>
                                </g>
                                </g>
                                </g>
                                </g>
                                </g>
                                </g>
                                </g>
                                </g>
                                </g>
                                </g>
                                </g>
                                </g>
                                </g>
                                </g>
                                </g>
                                </g>
                                </g>
                                </g>
                                </g>
                                </g>
                                </g>
                                </g>
                                </g>
                                </g>
                                </g>
                                </g>
                                </g>
                                </g>
                                </g>
                                </g>
                                </g>
                                </g>
                                </g>
                                </g>
                              </g>
                            </g>
                          </g>
                        </g>
                      </g>
                    </g>
                  </g>
                </g>
              </g>
            </g>
          </g>
        </g>
      </g>
    </g>
  </g>
</svg>
