<?xml version="1.0" encoding="UTF-8" standalone="no"?>
<!-- Created with Inkscape (http://www.inkscape.org/) -->

<svg
   width="64"
   height="64"
   viewBox="0 0 16.933333 16.933333"
   version="1.1"
   id="svg5"
   inkscape:version="1.1.1 (3bf5ae0d25, 2021-09-20)"
   sodipodi:docname="couenne.svg"
   xmlns:inkscape="http://www.inkscape.org/namespaces/inkscape"
   xmlns:sodipodi="http://sodipodi.sourceforge.net/DTD/sodipodi-0.dtd"
   xmlns="http://www.w3.org/2000/svg"
   xmlns:svg="http://www.w3.org/2000/svg">
  <sodipodi:namedview
     id="namedview7"
     pagecolor="#ffffff"
     bordercolor="#999999"
     borderopacity="1"
     inkscape:pageshadow="0"
     inkscape:pageopacity="0"
     inkscape:pagecheckerboard="0"
     inkscape:document-units="mm"
     showgrid="false"
     width="64mm"
     units="px"
     inkscape:zoom="11.745006"
     inkscape:cx="31.971035"
     inkscape:cy="34.355027"
     inkscape:window-width="1920"
     inkscape:window-height="1017"
     inkscape:window-x="3832"
     inkscape:window-y="-8"
     inkscape:window-maximized="1"
     inkscape:current-layer="g2039" />
  <defs
     id="defs2">
    <pattern
       id="EMFhbasepattern"
       patternUnits="userSpaceOnUse"
       width="6"
       height="6"
       x="0"
       y="0" />
    <pattern
       id="EMFhbasepattern-7"
       patternUnits="userSpaceOnUse"
       width="6"
       height="6"
       x="0"
       y="0" />
  </defs>
  <g
     inkscape:label="Calque 1"
     inkscape:groupmode="layer"
     id="layer1">
    <g
       id="g57"
       transform="translate(0.03185842,-0.66902684)">
      <g
         id="g916"
         transform="translate(-0.38230104,-0.15929215)">
        <g
           id="g2039"
           transform="translate(-0.47787631,-0.41415949)">
          <path
             style="fill:#fdc4bb;fill-opacity:1;stroke:none;stroke-width:0.264583px;stroke-linecap:butt;stroke-linejoin:miter;stroke-opacity:1"
             d="m 5.3672089,12.698094 c 0,0 -0.9033012,-0.26227 -1.1413683,-0.818458 C 3.9877736,11.323447 3.3595312,10.896028 3.2991284,10.395688 3.2387256,9.8953482 3.2432314,9.680292 3.2432314,9.680292 c 0,0 2.9090106,-2.1664299 4.3625999,-2.6723376 C 8.8889681,6.5613711 9.2708002,7.05664 9.2708002,7.05664 L 7.9566405,12.114164 6.292038,12.679651 Z"
             id="path2671"
             sodipodi:nodetypes="csscscccc" />
          <path
             style="fill:#fdc4bb;stroke-width:0.0145939"
             d="m 9.7367748,13.104797 c -1.4281234,-0.01 -2.8574203,-0.03419 -4.2849119,-0.0033 -0.4445691,6.88e-4 -0.036449,-0.43302 -0.084654,-0.403403 -0.2861579,-0.0599 -0.9398051,-0.325887 -0.8637812,-0.542412 0.5226184,-0.213546 1.0547732,0.01429 1.5767436,0.05297 C 7.5677421,12.02494 6.2877502,11.894868 5.5521635,11.760663 5.0934806,11.629014 4.5752501,11.578409 4.2258406,11.879636 3.6714271,11.636853 4.3364343,11.1625 4.686317,11.153614 7.4242111,11.027952 6.529612,11.943946 8.2648559,10.269729 8.736526,9.8590373 8.5755341,9.1115743 8.2155145,8.6830861 8.0230026,8.4641369 8.5872668,7.7901868 8.2695949,7.8715171 7.9546288,7.7177507 7.5526077,7.8386682 7.2130838,7.885886 6.5091709,8.0311694 5.9195255,8.4740493 5.4046192,8.952003 4.8935915,9.2255224 4.2274404,9.253763 3.8871949,9.7876364 3.7334491,9.9588104 3.2211739,10.743589 3.3097606,10.153136 3.5175781,9.6351122 4.0887894,9.4060828 4.5522481,9.1627463 5.1195215,8.9135518 5.6853523,8.6348132 6.1277031,8.1909574 6.7954062,7.6935879 7.6673157,7.6331147 8.4707547,7.6638489 8.4639358,7.3699371 8.8157498,7.0558554 8.670965,6.8157826 8.4333323,6.9555923 7.9773635,6.9396962 7.6396224,7.1093274 6.1772058,7.6291911 4.8409874,8.4687402 3.6565187,9.4615585 3.6119666,9.6865574 3.128865,10.157731 3.2432314,9.6802921 3.5467258,9.2691005 4.0104341,8.999608 4.387281,8.6558437 6.1342582,7.3007203 8.3129135,6.2942351 10.568551,6.4727868 c 1.300684,0.083856 2.570145,0.6955447 3.374195,1.7338573 0.273277,0.3523503 0.545472,0.7144381 0.768249,1.0980527 -0.02275,0.3115779 -0.166808,0.4814402 -0.0083,0.8015342 0.04367,0.768173 -0.203004,1.524142 -0.494848,2.220383 0.04982,0.380984 -0.02997,0.922696 -0.550924,0.788101 -1.306567,0.03564 -2.613527,-0.01056 -3.9201342,-0.0099 z m -2.380308,-1.795755 c -0.048049,-0.05211 -0.036588,0.05077 0,0 z M 8.160634,7.8818896 c 0.08068,-0.075406 0.030081,0.062615 0,0 z"
             id="path2047"
             sodipodi:nodetypes="ccccccccccccccccccccccccccccccccccc" />
          <path
             style="fill:#e55f51;stroke-width:0.0145939"
             d="m 9.8243382,13.097571 c -1.4684129,-0.01968 -2.9374506,-0.0066 -4.4055465,-0.02507 -0.5376089,-0.155014 0.2371068,-0.511236 0.4969019,-0.36587 2.0379825,0.02132 4.0770565,0.0082 6.1143644,0.05457 0.692298,0.03413 1.384992,0.06141 2.077539,0.08846 0.15844,0.400163 -0.665017,0.21698 -0.926557,0.263816 -1.118899,0.0034 -2.237896,-0.0072 -3.3567018,-0.01591 z m 3.9403508,-0.416203 c -0.299189,-0.09197 -0.793966,-0.0801 -0.981335,-0.07106 0.44665,-0.188232 0.892035,0.09686 1.348178,0.0372 -0.105426,0.06164 -0.248672,0.03482 -0.366843,0.03386 z M 4.9411324,12.554115 c -0.1777842,-0.14803 -0.7915555,-0.393873 -0.2503981,-0.43555 0.4379303,-0.127415 0.8620687,0.03322 1.2881132,0.113713 0.7338793,0.09136 1.4696057,-0.05214 2.2062311,-0.01338 0.6133225,0.02987 1.2265934,0.03906 1.8378834,-0.03605 0.643324,-0.04336 1.300194,-0.115668 1.93917,-0.01207 0.403145,0.286795 0.876613,0.175762 1.328256,0.128596 0.30064,0.02735 0.763994,0.121307 0.932384,0.272529 -0.335508,-0.06497 -0.728522,-0.22275 -1.103675,-0.19959 -0.485201,0.115749 -0.960716,0.04058 -1.43912,-0.05882 -1.226602,-0.06223 -2.4575805,0.07275 -3.6808876,-0.06804 -0.4912979,-0.04966 -0.9741006,0.05295 -1.4418682,0.191201 -0.5102624,0.172492 -1.0767121,-0.215033 -1.5358064,0.114769 l -0.043949,0.02229 -0.036317,-0.01959 z m 2.4549271,-0.0024 c -0.3127989,-0.1965 0.473843,-0.139632 0.616686,-0.07956 0.1955043,0.07914 0.744235,0.06418 0.2274434,0.08565 -0.2814455,-0.01651 -0.5634027,0.0032 -0.8441294,-0.0061 z M 13.897844,12.33833 c -0.427116,-0.0444 -0.07836,-0.591914 0.126966,-0.2016 0.171229,0.196068 0.09074,0.261685 -0.126966,0.2016 z m 0.225937,-0.1897 c -0.218994,-0.577995 -0.7783,0.118167 -1.198529,-0.137453 C 12.469678,11.908038 12.18708,11.492941 11.690378,11.48901 10.89531,11.277142 10.044974,11.280073 9.2662997,11.559304 8.0572583,11.974436 6.7406448,12.024053 5.4965112,11.741296 5.0895747,11.680365 4.525966,11.466825 4.2541196,11.891469 3.688762,11.716861 4.2754406,11.175653 4.6348219,11.173891 c 0.8926786,-0.196769 1.7513363,0.282773 2.6469643,0.209241 0.6727244,0.0235 1.2741284,-0.296352 1.8683226,-0.562529 1.0255492,-0.307023 2.1225442,-0.245065 3.1734002,-0.12297 0.427023,0.06651 0.587525,0.592819 0.974595,0.777246 0.31713,0.275609 0.787047,-0.108351 0.993159,0.400569 0.132095,0.117184 -0.03565,0.614223 -0.167482,0.273182 z M 9.853526,11.984287 c -0.1790304,-0.06032 0.454464,0.0104 0.573039,-0.107139 0.492284,-0.121539 -0.0037,-0.41825 -0.137749,-0.34264 0.309518,-0.106891 0.933392,0.257237 0.334088,0.358372 -0.251224,0.06132 -0.509597,0.112062 -0.769378,0.09141 z m -0.7661794,-0.16428 c 0.4046227,-0.192383 0.8643305,-0.198599 1.3025054,-0.174706 0.107136,0.157129 -0.457626,0.353001 -0.121608,0.07505 -0.4217203,-0.159594 -0.8934928,0.04095 -1.307078,0.159814 0.035951,-0.03105 0.084794,-0.03947 0.1261806,-0.06015 z m 2.9041844,0.02414 c -0.347122,-0.197813 -0.829932,0.117375 -1.070212,-0.294491 0.255751,0.273763 0.580749,0.134382 0.909872,0.186693 0.02153,-0.03106 0.307221,0.183454 0.16034,0.107798 z M 3.2991284,10.395688 C 3.2360944,9.9049603 3.748549,9.6417484 4.0952587,9.4088073 4.7205267,9.0436428 5.4546753,8.8560671 5.9752408,8.3271228 6.7915355,7.6052648 7.950796,7.6112638 8.9709336,7.7294374 c 0.6021027,0.069876 1.2138954,0.025252 1.7908164,-0.1658356 0.672705,-0.1442172 1.322797,0.1964659 1.930288,0.4386812 0.54001,0.3717526 0.855861,0.975717 1.313649,1.4301021 0.186171,0.2023534 0.789715,0.2801352 0.650034,0.5664646 C 14.301524,9.6494087 13.711769,9.6090307 13.528878,9.0704718 13.294819,8.6600594 12.768436,8.6311932 12.425104,8.3434257 11.712409,7.9233098 10.866969,7.9841088 10.07568,8.0295506 9.5485583,8.0731256 9.032097,7.9641451 8.5247359,7.8360002 7.5789545,7.6859169 6.5760323,7.9367538 5.8409443,8.5589105 5.5417067,8.897038 5.1427644,9.1205832 4.7018304,9.2148421 4.1384421,9.3155582 3.856078,9.8640202 3.4927386,10.243409 c -0.039254,0.0047 -0.2014101,0.328416 -0.1936102,0.152279 z M 3.2387256,9.8953483 C 3.1619835,9.4549004 3.8623301,9.2068331 4.113443,8.8758024 5.820695,7.5109763 7.9106682,6.4300741 10.145427,6.4585367 c 1.235317,0.00245 2.485978,0.4265643 3.381919,1.2954832 0.421722,0.4355433 0.794769,0.9253137 1.108773,1.4442185 0.294989,0.3203749 -0.126578,0.6006172 -0.28314,0.2005485 C 13.681684,8.7157146 12.986237,8.0536954 12.268815,7.4199956 11.077302,6.5722849 9.4944714,6.5702622 8.1333422,6.9474439 6.5588829,7.3898835 5.135963,8.2607783 3.865082,9.2730676 3.5769323,9.3768297 3.5227626,9.9102092 3.2387256,9.8953483 Z M 13.297171,9.0660612 C 13.006609,8.6963931 12.419859,8.8119624 12.127533,8.3926759 c 0.352961,0.2466206 0.914953,0.1975557 1.135871,0.5920202 -0.0033,0.015715 0.183552,0.1729334 0.03377,0.081365 z"
             id="path2043"
             sodipodi:nodetypes="cccccccccccccccccccccccccccccccccccccccccccccccccccccccccccccccccccccccccccccccccccccccccccsccss" />
        </g>
      </g>
    </g>
  </g>
</svg>
