<?xml version="1.0" encoding="UTF-8" standalone="no"?>
<!-- Created with Inkscape (http://www.inkscape.org/) -->

<svg
   width="64"
   height="64"
   viewBox="0 0 16.933333 16.933333"
   version="1.1"
   id="svg5"
   inkscape:version="1.1.1 (3bf5ae0d25, 2021-09-20)"
   sodipodi:docname="coulis_de_cerise.svg"
   xmlns:inkscape="http://www.inkscape.org/namespaces/inkscape"
   xmlns:sodipodi="http://sodipodi.sourceforge.net/DTD/sodipodi-0.dtd"
   xmlns="http://www.w3.org/2000/svg"
   xmlns:svg="http://www.w3.org/2000/svg">
  <sodipodi:namedview
     id="namedview7"
     pagecolor="#ffffff"
     bordercolor="#999999"
     borderopacity="1"
     inkscape:pageshadow="0"
     inkscape:pageopacity="0"
     inkscape:pagecheckerboard="0"
     inkscape:document-units="mm"
     showgrid="false"
     width="64mm"
     units="px"
     inkscape:zoom="11.745006"
     inkscape:cx="25.925913"
     inkscape:cy="26.692196"
     inkscape:window-width="1920"
     inkscape:window-height="1017"
     inkscape:window-x="1912"
     inkscape:window-y="-8"
     inkscape:window-maximized="1"
     inkscape:current-layer="g7441" />
  <defs
     id="defs2">
    <pattern
       id="EMFhbasepattern"
       patternUnits="userSpaceOnUse"
       width="6"
       height="6"
       x="0"
       y="0" />
    <pattern
       id="EMFhbasepattern-7"
       patternUnits="userSpaceOnUse"
       width="6"
       height="6"
       x="0"
       y="0" />
    <pattern
       id="EMFhbasepattern-4"
       patternUnits="userSpaceOnUse"
       width="6"
       height="6"
       x="0"
       y="0" />
  </defs>
  <g
     inkscape:label="Calque 1"
     inkscape:groupmode="layer"
     id="layer1">
    <g
       id="g57"
       transform="translate(0.03185842,-0.66902684)">
      <g
         id="g916"
         transform="translate(-0.38230104,-0.15929215)">
        <g
           id="g2039"
           transform="translate(-0.47787631,-0.41415949)">
          <g
             id="g6856"
             transform="translate(-0.78845573,0.20274575)">
            <g
               id="g7441"
               transform="matrix(0.09340124,0,0,0.09340124,9.881272,8.9403992)">
              <path
                 style="fill:#d0d2d3;stroke-width:0.282222"
                 d="m -21.413468,79.922339 c -3.438046,-0.833413 -6.278091,-2.748508 -7.392548,-4.984933 L -29.533752,73.47703 V 32.105072 c 0,-45.526432 -0.09899,-42.882857 1.734589,-46.323002 1.25157,-2.348187 2.539191,-3.733266 5.510991,-5.928111 2.970151,-2.193629 4.768774,-4.289292 6.145598,-7.160542 1.567192,-3.268243 1.848822,-5.179068 1.848822,-12.544045 v -6.505954 l -3.457223,-0.0016 c -4.270531,-0.0019 -5.376257,-0.29097 -6.884942,-1.799655 -1.605532,-1.605532 -1.864162,-2.756209 -1.747679,-7.775636 0.08675,-3.738265 0.157474,-4.219288 0.780188,-5.306478 0.376634,-0.65756 1.191245,-1.54656 1.810248,-1.975555 l 1.125459,-0.77999 31.7306845,-0.07415 c 21.8109995,-0.05097 32.0801455,0.01995 32.8485235,0.226852 1.431914,0.385573 3.207758,1.988922 3.680663,3.323139 0.243129,0.685947 0.367705,2.528142 0.366124,5.41416 -0.0023,3.923372 -0.06453,4.490849 -0.604968,5.503333 -1.345966,2.521593 -2.452345,2.963333 -7.421953,2.963333 h -3.965127 v 6.869299 c 0,7.800202 0.303243,9.684938 2.109657,13.112169 1.385217,2.628109 2.931089,4.329836 5.976501,6.579048 3.897302,2.878381 6.017542,5.914028 6.83744,9.789484 0.2256,1.066354 0.314624,13.2964251 0.310204,42.615553 -0.006,39.498265 -0.02692,41.165643 -0.531833,42.277423 -1.092593,2.405834 -4.089891,4.477625 -7.71407,5.332112 -2.548789,0.600938 -59.883949,0.588117 -62.367613,-0.01394 z"
                 id="path7451" />
              <path
                 style="fill:#9ed1e1;stroke-width:0.282222"
                 d="m -21.067086,79.91906 c -3.91641,-0.848112 -7.489806,-3.469293 -8.169184,-5.992312 -0.215805,-0.80144 -0.284394,-13.415813 -0.231514,-42.578305 l 0.07514,-41.439471 0.744495,-2.036521 c 1.125242,-3.078032 2.893172,-5.339094 5.982015,-7.650593 3.323127,-2.486823 4.996037,-4.378488 6.408256,-7.246219 1.796899,-3.648885 1.964123,-4.711169 1.964123,-12.477071 v -6.85515 l 1.905,1.46e-4 1.905,1.46e-4 -0.07832,-8.890145 -0.07832,-8.890146 h 2.2733061 2.2733059 l -0.07832,8.890146 -0.07832,8.890145 6.98499986,-1.46e-4 6.98499984,-1.46e-4 c 3.2046783,0 0,0 3.2046783,0 h 11.500513 11.500513 l 0.09415,7.549444 c 0.09153,7.339787 0.114862,7.606374 0.840212,9.59943 1.33067,3.656299 3.901717,6.980428 7.063469,9.132417 3.594571,2.446579 6.061831,5.956382 6.868332,9.770544 0.338704,1.6018116 0.4039,8.4118532 0.40734,42.54705 0.0028,26.739416 -0.09425,40.994209 -0.283424,41.675572 -0.714209,2.572397 -4.306322,5.17113 -8.316892,6.016899 -2.865757,0.604345 -58.86815,0.590073 -61.665554,-0.01572 z"
                 id="path7449"
                 sodipodi:nodetypes="ssscssssccccccccccccccsssscssss" />
              <path
                 style="fill:#ff5555;stroke-width:0.282222"
                 d="m -21.067086,79.91906 c -3.921439,-0.849201 -7.489714,-3.468952 -8.170971,-5.998949 -0.218172,-0.810226 -0.285929,-13.230273 -0.231514,-42.437195 l 0.07693,-41.2917221 0.624876,-1.8344439 c 1.132962,-3.326032 3.270067,-6.102748 6.292606,-8.17591 2.41825,-1.658679 5.161612,-4.747621 6.31583,-7.11143 1.735274,-3.553801 1.924358,-4.687423 2.075105,-12.440992 l 0.135804,-6.985 1.732334,1.46e-4 1.732334,1.46e-4 -0.07832,-8.890145 -0.07832,-8.890146 h 2.2733061 2.2733059 l -0.07832,8.890146 -0.07832,8.890145 6.98499986,-1.46e-4 C 10.924255,-46.356582 11.763564,-46.356582 22.30414,-46.356582 h 11.379883 v 2.822222 2.822222 H 17.218892 0.75376039 l -0.1765808,6.420555 c -0.35460939,12.893644 -1.70485639,18.449462 -6.21387899,25.5680482 -3.192529,5.040181 -4.9111656,11.4117735 -5.8594606,21.7230808 -0.191889,2.086508 -0.227208,3.712794 -0.08346,3.843042 0.567492,0.514204 3.2105292,1.197514 5.2021364,1.344922 2.5412107,0.188084 4.2048424,-0.229184 8.1855774,-2.053091 3.1489085,-1.442776 5.1303398,-1.799615 10.0372982,-1.807636 4.122933,-0.0067 7.223974,0.496542 12.101968,1.964075 4.317946,1.299046 6.539738,1.724564 9.119305,1.746529 2.361379,0.0201 3.555726,-0.302327 7.163141,-1.933798 1.579894,-0.714516 3.419001,-1.360714 4.0869,-1.435997 1.115461,-0.125727 1.304013,-0.04722 2.31515,0.963913 0.769344,0.769346 1.301395,1.693788 1.767036,3.070239 l 0.666245,1.969448 0.07765,26.049051 c 0.05177,17.366439 -0.02007,26.411878 -0.215463,27.137587 -0.704105,2.614842 -4.278449,5.222773 -8.328855,6.076944 -2.865757,0.604345 -58.86815,0.590073 -61.665554,-0.01572 z"
                 id="path7447"
                 sodipodi:nodetypes="ssscssssccccccccccccccccsssssscsssssscscsss" />
              <path
                 style="fill:#8ebdcb;stroke-width:0.282222"
                 d="m -29.457721,5.5723041 c 0.07865,-14.9587083 0.09781,-15.4314897 0.69785,-17.2155541 1.113915,-3.31196 3.255795,-6.098374 6.284712,-8.17591 2.41825,-1.658679 5.161612,-4.747621 6.31583,-7.11143 1.735274,-3.553801 1.924358,-4.687423 2.075105,-12.440992 l 0.135804,-6.985 H 9.8678023 33.684024 v 2.822222 2.822222 H 17.218892 0.75376039 l -0.1765808,6.420555 C 0.2225702,-21.397939 -1.1276768,-15.842121 -5.6366994,-8.7235348 -8.8467801,-3.6556452 -10.573751,2.7782845 -11.50394,13.135202 c -0.291724,3.24812 -0.397622,3.728132 -0.787325,3.568756 -3.774678,-1.543719 -6.669444,-2.471349 -8.081722,-2.589798 -1.512878,-0.126884 -1.906046,-0.04139 -3.492565,0.759485 -2.104963,1.062581 -4.343572,3.196573 -5.120264,4.880974 l -0.552773,1.198795 z"
                 id="path7443" />
            </g>
          </g>
        </g>
      </g>
    </g>
  </g>
</svg>
