<?xml version="1.0" encoding="UTF-8" standalone="no"?>
<!-- Created with Inkscape (http://www.inkscape.org/) -->

<svg
   width="64"
   height="64"
   viewBox="0 0 16.933333 16.933334"
   version="1.1"
   id="svg5"
   inkscape:version="1.2 (dc2aedaf03, 2022-05-15)"
   sodipodi:docname="crevette_grise.svg"
   xmlns:inkscape="http://www.inkscape.org/namespaces/inkscape"
   xmlns:sodipodi="http://sodipodi.sourceforge.net/DTD/sodipodi-0.dtd"
   xmlns="http://www.w3.org/2000/svg"
   xmlns:svg="http://www.w3.org/2000/svg">
  <sodipodi:namedview
     id="namedview7"
     pagecolor="#ffffff"
     bordercolor="#666666"
     borderopacity="1.0"
     inkscape:pageshadow="2"
     inkscape:pageopacity="0.0"
     inkscape:pagecheckerboard="0"
     inkscape:document-units="mm"
     showgrid="false"
     units="px"
     inkscape:zoom="9.0234377"
     inkscape:cx="34.798268"
     inkscape:cy="33.246752"
     inkscape:window-width="1920"
     inkscape:window-height="1017"
     inkscape:window-x="3832"
     inkscape:window-y="-8"
     inkscape:window-maximized="1"
     inkscape:current-layer="g6577"
     inkscape:showpageshadow="2"
     inkscape:deskcolor="#d1d1d1" />
  <defs
     id="defs2" />
  <g
     inkscape:label="Calque 1"
     inkscape:groupmode="layer"
     id="layer1">
    <g
       id="g4128"
       transform="translate(-0.63104184,0.12620835)">
      <g
         id="g5578"
         transform="translate(0.08924235,0.08924306)">
        <g
           id="g7501"
           transform="translate(-0.06310417,0.94656242)">
          <g
             id="g9467"
             transform="translate(-0.08924275,-0.80318511)">
            <g
               id="g10302"
               transform="translate(0.31234979,-0.04462139)">
              <g
                 id="g11479"
                 transform="translate(-0.12620833,0.06310418)">
                <g
                   id="g11873"
                   transform="translate(-0.23575769,0.66462456)">
                  <g
                     id="g12382"
                     transform="translate(-121.98459,-82.267525)">
                    <g
                       id="g13305"
                       transform="matrix(0.13266609,0,0,0.13266609,114.63867,78.215696)">
                      <g
                         id="g17429"
                         transform="translate(0.90513437,5.6640979)">
                        <g
                           id="g18595"
                           transform="translate(-3.3634362,-8.7449387)">
                          <g
                             id="g21002"
                             transform="translate(1.7082278,-2.8204445)">
                            <g
                               id="g23814"
                               transform="translate(8.7253043,-1.1218249)">
                              <g
                                 id="g24838"
                                 transform="translate(11.143454,-0.85716864)">
                                <g
                                   id="g25315"
                                   transform="translate(-3.490122,2.4929446)">
                                <g
                                   id="g27220"
                                   transform="translate(2.4678888,1.2339445)">
                                <g
                                   id="g29753"
                                   transform="translate(1.4759287,-2.3737724)">
                                <g
                                   id="g30615"
                                   transform="translate(0.92006037,1.3687834)">
                                <g
                                   id="g31433"
                                   transform="translate(-2.4678886,-1.410222)">
                                <g
                                   id="g31731"
                                   transform="translate(1.0576664,-0.70511063)">
                                <g
                                   id="g33243"
                                   transform="matrix(1.0772948,0,0,1.0772948,-7.3729128,-3.1743014)">
                                <g
                                   id="g35254"
                                   transform="translate(-2.2135012,-0.92031205)">
                                <g
                                   id="g36749"
                                   transform="translate(-0.98178042,-2.7817105)">
                                <g
                                   id="g37297"
                                   transform="translate(-6.7755742,-3.5033798)">
                                <g
                                   id="g38955"
                                   transform="matrix(1.2171094,0,0,1.2171094,-23.105122,-18.212482)">
                                <g
                                   id="g39618"
                                   transform="translate(-0.26888273,-0.26888316)">
                                <g
                                   id="g40032"
                                   transform="translate(-1.90129,-3.042064)">
                                <g
                                   id="g40543"
                                   transform="translate(0.3802582,-2.0914191)">
                                <g
                                   id="g41372"
                                   transform="translate(1.9657652,-7.9304203)">
                                <g
                                   id="g43278"
                                   transform="translate(1.5210324,-0.38025789)">
                                <g
                                   id="g44210"
                                   transform="matrix(1.1578947,0,0,1.1578947,-18.904476,-21.776183)">
                                <g
                                   id="g44833"
                                   transform="matrix(1.1196819,0,0,1.1196819,-12.538538,-14.547543)">
                                <g
                                   id="g47597"
                                   transform="translate(3.1109352,-1.2443743)">
                                <g
                                   id="g48754"
                                   transform="translate(-2.9035392,-6.6366609)">
                                <g
                                   id="g234"
                                   transform="matrix(0.04089637,0,0,0.04089637,104.63967,119.67231)">
                                <g
                                   id="g2138"
                                   transform="translate(-86.211222,-40.569988)">
                                <g
                                   id="g2696"
                                   transform="translate(-124306.44,-9412.2373)">
                                <g
                                   id="g3765"
                                   transform="translate(25.356243,-50.712489)">
                                <g
                                   id="g4557"
                                   transform="translate(46.61688,-35.859142)">
                                <g
                                   id="g5244"
                                   transform="translate(7.1718407,14.343658)">
                                <g
                                   id="g5807"
                                   transform="translate(-5.1984397,-21.113724)">
                                <g
                                   id="g6945"
                                   transform="translate(-10.142522,-243.41993)">
                                <g
                                   id="g11108"
                                   transform="translate(18.189368,-37.636113)">
                                <g
                                   id="g15049"
                                   transform="translate(-65.926228,141.99496)">
                                <g
                                   id="g19861"
                                   transform="matrix(0.07356842,0,0,0.07356842,115423.38,9039.2311)">
                                <g
                                   id="g20437"
                                   transform="translate(-478.38824,-785.88156)">
                                <g
                                   id="g21032"
                                   transform="translate(2047.1878,-1072.3367)">
                                <g
                                   id="g21869"
                                   transform="matrix(0.04321578,0,0,0.04321578,117368,10137.003)">
                                <g
                                   id="g25455"
                                   transform="translate(154741.46,-87178.414)">
                                <g
                                   id="g26278"
                                   transform="translate(-18012.371,-8233.4417)">
                                <g
                                   id="g27240"
                                   transform="translate(-0.00447131,5582.7624)">
                                <g
                                   id="g28306"
                                   transform="translate(-15790.441,-2255.7767)">
                                <g
                                   id="g33735"
                                   transform="translate(14662.549,-16918.328)">
                                <g
                                   id="g37868"
                                   transform="translate(-5075.4976,25941.433)">
                                <g
                                   id="g76752"
                                   transform="matrix(-1,0,0,1,9442.3174,-1595.0746)">
                                <g
                                   id="g82459"
                                   transform="translate(3383.6668,-1127.8885)">
                                <g
                                   id="g83208"
                                   transform="matrix(0.20332428,0,0,0.20332428,-15348.528,66747.475)">
                                <g
                                   id="g83934"
                                   transform="matrix(-1,0,0,1,240692.18,94139.78)">
                                <g
                                   id="g84550"
                                   transform="translate(-8.7627443e-5,55472.344)">
                                <g
                                   id="g9096"
                                   transform="translate(31379.925,-62759.843)">
                                <g
                                   id="g11527"
                                   transform="translate(61019.625,105397.54)">
                                <g
                                   id="g13422"
                                   transform="translate(-44377.907,44377.908)">
                                <g
                                   id="g1137"
                                   transform="translate(-3.3240812e-4,138680.92)">
                                <g
                                   id="g3632"
                                   transform="translate(177511.65,-22188.943)">
                                <g
                                   id="g5936"
                                   transform="translate(11767.473,-47069.909)">
                                <g
                                   id="g7318">
                                <g
                                   id="g11619"
                                   transform="translate(27457.436,-223581.94)" />
                                <g
                                   id="g11985"
                                   transform="translate(70604.821,-133364.68)">
                                <g
                                   id="g12707"
                                   transform="matrix(1.186974,0,0,1.186974,95904.637,-164033.62)">
                                <g
                                   id="g4721"
                                   transform="matrix(-1,0,0,1,-561251.4,-59483.037)">
                                <g
                                   id="g7072">
                                <g
                                   id="g10426"
                                   transform="translate(66928.962,-211126.69)">
                                <g
                                   id="g1231"
                                   transform="translate(-14020.287,4673.4667)">
                                <g
                                   id="g2516"
                                   transform="matrix(1.1495428,0,0,1.1495428,-144709.4,-78762.736)">
                                <g
                                   id="g3795"
                                   transform="translate(-22559.428,121623.52)">
                                <g
                                   id="g5627"
                                   transform="translate(-106364.63,2874.7178)">
                                <g
                                   id="g6621"
                                   transform="translate(-12196.407,40654.68)">
                                <g
                                   id="g7772"
                                   transform="translate(28747.2,74742.673)">
                                <g
                                   id="g8880"
                                   transform="translate(-60982.018,187011.51)">
                                <g
                                   id="g11165"
                                   transform="translate(-44309.499,5172.6179)">
                                <g
                                   id="g12249"
                                   transform="translate(48785.608,-8130.9328)">
                                <g
                                   id="g14000"
                                   transform="matrix(1.0831477,0,0,1.0831477,-5722.2619,28128.151)">
                                <g
                                   id="g15203"
                                   transform="translate(53158.943,24797.103)">
                                <g
                                   id="g16076"
                                   transform="translate(-37533.822,-30027.061)">
                                <g
                                   id="g17560"
                                   transform="translate(-21232.337,7962.1264)">
                                <g
                                   id="g25114"
                                   transform="translate(-67560.839,7506.7636)">
                                <g
                                   id="g29358"
                                   transform="translate(-21232.382,-47772.762)" />
                                </g>
                                <g
                                   id="g54846"
                                   transform="translate(-89414.803,-58825.532)">
                                <g
                                   id="g56152"
                                   transform="translate(-3.3655809e-4,28236.25)">
                                <g
                                   id="g56999"
                                   transform="translate(-65884.586,-28236.251)">
                                <g
                                   id="g58386"
                                   transform="translate(-26621.369,66553.488)">
                                <g
                                   id="g59580"
                                   transform="matrix(1.3336607,0,0,1.3336607,-147290.21,2462.1241)">
                                <g
                                   id="g60913"
                                   transform="translate(52929.981,10585.996)">
                                <g
                                   id="g61494"
                                   transform="translate(83376.512,12462.173)">
                                <g
                                   id="g64263"
                                   transform="translate(12959.021,17102.931)">
                                <g
                                   id="g66681"
                                   transform="translate(34932.003,-24951.435)">
                                <g
                                   id="g67253"
                                   transform="translate(-56458.648,35286.648)">
                                <g
                                   id="g67911"
                                   transform="translate(-35291.329,-19495.235)">
                                <g
                                   id="g68553"
                                   transform="translate(-128708.75,-9980.5274)">
                                <g
                                   id="g69435"
                                   transform="translate(24951.434,-1.4872907e-4)">
                                <g
                                   id="g1677"
                                   transform="translate(69864.007,119766.87)">
                                <g
                                   id="g2812"
                                   transform="translate(59883.43,-24951.431)">
                                <g
                                   id="g4619"
                                   transform="translate(-56881.524,-27822.735)">
                                <g
                                   id="g6577"
                                   transform="translate(-2495.1435,74854.293)">
                                <path
                                   style="fill:#e3e2db;stroke-width:2439.52"
                                   d="m 16693.416,475531.26 c 9015.82,-1748.63 19301.851,-15779.81 21080.41,-28755.76 4744.165,-34612.45 -14508.237,-86082.68 -64175.47,-171569.73 -21822.098,-37560.08 -25128.775,-48397.05 -18612.344,-60998.43 8323.142,-16095.2 26621.373,-18405.94 88732.493,-11205.27 44073.699,5109.56 78501.525,4048.61 86006.495,-2650.42 14765.05,-13179.48 13695.56,-34661.94 -2650.13,-53231.6 C 115139.33,133560.55 105332.18,129597.42 74652.541,125935.82 34179.237,121105.34 -2631.1961,113113.68 -45511.334,99847.871 l -20240.189,-6261.696 7078.399,-4304.637 c 0,0 -217868.936,53633.632 -229710.086,56127.262 9473.11,50.25 11293.7,1307.05 28708.82,19819.42 28520.25,30317.2 112501.84,130828.81 150627.3,180275.07 21629.281,28051.82 42685.027,59832.02 58468.988,88249.37 20008.678,36023.57 38317.668,47394.26 67271.518,41778.6 z"
                                   id="path6587"
                                   sodipodi:nodetypes="ssssssssscccssss" />
                                <path
                                   style="fill:#c8c4b7;stroke-width:2439.52"
                                   d="m -276542.06,142915.17 c 37255.62,-7633.47 207544.312,-49287.865 212911.898,-52080.46 15222.48,-7919.84 22502.115,-21116.954 22502.115,-40793.711 0,-16221.782 -3949.905,-23112.582 -30953.186,-53999.437 l -22927.495,-26224.877 h 17461.987 C -8015.7517,-88954.838 -439420.25,-53754.71 -350652.27,-33533.537 l 18001.17,1519.799 L -334282.09,5.3972153 C -335179.15,17615.927 -336276.94,49040.209 -336721.61,69837.146 c -804.09,37604.984 -771.33,37875.894 5965,49335.504 11052.72,18802.53 32494.77,28192.79 54214.55,23742.52 z m 42081.78,-174923.761 c 21803.24,-404.302 57481.27,-404.302 79284.51,0 1479.4,-7891.241 -108024.1,378.668 -79284.51,0 z"
                                   id="path6585"
                                   sodipodi:nodetypes="ssssccccssssccc" />
                                <path
                                   style="fill:#aca793;stroke-width:2439.52"
                                   d="m -52366.102,-34587.045 c 15455.625,-6493.182 28513.004,-23860.247 32028.576,-42599.861 1178.534,-6282.114 -358.829,-17330.228 -5138.465,-36927.264 -6291.604,-25796.32 -7178.493,-27771.43 -11445.025,-25488.04 -2543.691,1361.33 -5114.973,1985.09 -5713.949,1386.11 -598.976,-598.97 2244.557,-2469.87 6318.976,-4157.53 8117.392,-3362.35 20066.544,-15818.65 25215.353,-26285.57 1806.1256,-3671.66 7494.9235,-20629.71 12641.7325,-37684.54 l 9357.8165,-31008.78 11074.851,19608.93 c 32848.696,58161.46 96747.406,97297.91 158859.816,97297.91 16903.16,0 19263.87,-599.44 24559.44,-6236.33 8219.09,-8748.81 8061.52,-23274.68 -343.63,-31679.84 -5145.96,-5145.96 -9707.06,-6583.84 -26779.31,-8442.17 -26322.48,-2865.22 -36158.57,-5737.76 -57169.82,-16696.05 -20515.34,-10699.63 -45952.935,-34996.08 -56891.832,-54339.7 -4265.555,-7542.88 -7755.537,-14404.04 -7755.537,-15247.02 0,-842.98 8507.838,-1544.56 18906.306,-1559.08 17523.292,-24.39 36354.023,-3844.32 46248.563,-9381.57 3251.76,-1819.79 7165.53,433.23 18376.56,10578.6 18023.69,16310.51 37855.7,26904.75 61854.43,33042.61 39399.14,10076.6 58286.56,3551.46 57619.62,-19906.12 -361.66,-12719.33 -8529.33,-18563.04 -31566.38,-22584.79 -23074.63,-4028.29 -41661.62,-12108.09 -55428.73,-24094.95 l -9625.09,-8380.45 c 37969.05,-286318.14 225856.77,3214.24 530716.87,-264851.8 735.87,-10346.07 -498.24,-15207.21 -4702.2,-18521.81 -3136.59,-2473.03 -3416.09,-3630.77 -1086.7,-4501.31 10813.4,-4041.17 50078.86,-32950.47 64942.43,-47814.03 30595.15,-30595.16 47209.3,-64721.36 49542.51,-101762.55 1257.42,-19962.34 1044.95,-21108.66 -5312.78,-28664.4 -5123.27,-6088.66 -8542.8,-7870.48 -15104.42,-7870.48 -17584.71,0 -22628.59,6869.4 -25427.15,34629.89 -1390.45,13792.76 -4122.67,23482.14 -10003.12,35474.46 -14884.79,30355.38 -55425.14,64862.94 -98022.27,83435.64 l -17981.21,7839.95 c -414208.64,-74501.72 -1159064.65,179536.37 -974045.7,302118.54 14768.24,9764.8 26851.37,17934.3 26851.37,18154.44 0,220.05 -19972.93,39315.97 -44384.32,86879.68 l -44384.32,86479.45 -137.1,19696.489 c -123.69,17766.415 580.16,20850.778 7181.59,31476.293 4025.21,6478.886 11479.54,15133.388 16565.14,19232.227 9151.17,7375.509 9642.12,7471.04 47570.71,9255.844 21078.29,991.862 91449.63,2136.291 156380.82,2543.179 92948.306,582.436 119668.553,62.696 125635.456,-2444.207 z m -22349.084,-99799.365 c 3665.75,-556.63 10252.463,-567.83 14637.141,-24.89 4384.677,542.95 1385.429,998.38 -6664.998,1012.07 -8050.427,14.63 -11637.893,-430.53 -7972.143,-987.18 z m -22009.21,-5315.87 c -4978.064,-2540.71 -11238.734,-7206.3 -13912.624,-10367.97 l -4861.58,-5748.52 6081.34,5337.5 c 3344.76,2935.63 11021.4,7577.12 17059.221,10314.41 6037.82,2737.29 9561.883,5001 7831.26,5030.47 -1730.622,29.51 -7219.55,-2025.2 -12197.617,-4565.89 z m -73698.394,-49814.09 c -17253.92,-11409.43 -27990.07,-19671.81 -19516.19,-15019.34 6796.66,3731.61 40232.77,26187.11 42691.66,28671.5 3599.47,3636.76 -2169.27,238.58 -23175.47,-13652.16 z m -101850.1,-67086.34 c -7044.13,-4656.1 -12807.5,-8985.35 -12807.5,-9620.57 0,-635.23 3018.91,806.14 6708.69,3202.99 22704.5,14748.78 32323.68,21427.9 32323.68,22444.15 0,1164.39 -2876.19,-593.31 -26224.87,-16026.57 z"
                                   id="path6583"
                                   sodipodi:nodetypes="sssssssscsssssssssssssssccsssssssssccsscssssssssscssscsssssssssssss" />
                                <path
                                   style="fill:#918a6f;stroke-width:2439.52"
                                   d="m 201223.24,-123026.58 c 59837.4,-46427.77 -101781.826,-78058.96 -92547.5,-67524.89 -15661.404,-9071.96 -20693.42,-69388.7 -44305.274,-64853.6 22345.23,5065.42 84917.424,-10301.1 65272.524,-9020.42 29634.83,31753.85 75230.96,55112.01 119083.51,44802.28 61865.05,-25325.01 -101556.17,-108625.44 -82057.24,-72509.62 -404.42,-20443.33 76255.81,-98008.38 45097.25,-63373.73 12220.68,-14865.83 24443.15,-29730.18 36664.56,-44595.4 -33891.21,-7156.82 -66814.21,-21736.06 -90737.86,-47378.33 74462.62,50519.64 171515.2,44337.65 255503.37,25777.53 99088.32,-25254.37 192728.02,-71620.24 275262.39,-131610.92 19484.7,-53181.75 -126332.3,20719.3 -89826.58,4365.69 -71820,16360.68 -106255.77,19287.81 -90972.29,-30766.91 34976.64,-14022.85 -2519.61,-30361.58 111490.64,-28240.82 -44274.61,-31704.17 -97486.15,-49714.91 -145563.74,-75419.02 -68925.45,-31531.92 -136450.66,-75479.75 -215175.1,-73538.79 -89639.31,4432.33 -151065.52,31951.65 -138999.27,32448.4 -96101.917,14681.46 -192963.73,26331.48 -287881.74,47465.55 -69250.44,29357.27 -41830.75,125927.12 -42437.79,106415.2 2918.56,19926.27 -25587.48,15120.96 -4321.37,27409.28 -52153.21,43304.99 -108463.66,82086.58 -157207.12,129194.6 -23911.15,32989.36 -15320.53,89368.79 19616.26,116469.33 84642.52,56550.68 175330.38,110735.63 259843.907,167140.15 37775.947,17081.73 83894.1935,-20034.14 89272.5704,-60688.17 2302.8143,-17165.37 14091.8776,-39149.03 17166.6466,-44309.11 31757.098,71152.89 108252.446,124293.71 187759.246,112341.72 z"
                                   id="path6581"
                                   sodipodi:nodetypes="cccccccccccccccccccccccccc" />
                                <path
                                   d="m 284690.14,-619997.13 c 7287.88,-2859.58 15583.96,-14195.74 15583.96,-21294.62 0,-10942.54 -7156.95,-22173.58 -15987.15,-25087.8 -22792.56,-7522.22 -40276.38,21156.67 -23655.1,38801.7 7430.93,7888.61 16217.52,10657.25 24058.29,7580.72 z"
                                   style="fill:#241f1c;stroke-width:54925200"
                                   id="path6712" />
                                <path
                                   style="fill:#6c6753;stroke-width:2439.52"
                                   d="m 94265.504,-255821.23 c 1341.738,-449.12 8789.266,-2720.07 16550.046,-5046.59 7760.76,-2326.5 13798.58,-4891.44 13417.38,-5699.85 -381.23,-808.41 -5343.02,-9191.61 -11026.21,-18629.3 -11571.71,-19216.44 -20160.978,-48368.33 -20160.978,-68426.27 0,-10121.73 1285.458,-14367.64 6072.072,-20056.2 15813.626,-18793.43 42718.396,-5593.8 42718.396,20957.9 0,14759.26 16980.6,55718.89 22214.98,53585.69 829.74,-338.14 16642.02,-19277.16 35138.39,-42086.7 18496.37,-22809.55 36960.36,-45023.26 41031.1,-49363.81 4070.71,-4340.55 6927.44,-8295.28 6348.3,-8788.31 -579.17,-493.03 -6541.95,-2213.18 -13250.64,-3822.59 -20257.07,-4859.62 -54949.78,-23160.29 -68322,-36040.37 -14495.33,-13961.85 -38278.51,-50773.85 -47596.27,-73670.24 -11285.87,-27732.61 -15182.7,-49503.67 -15118.44,-84464.64 97.09,-52872.11 8406.28,-84170.49 29905.12,-112645.5 5307.21,-7029.34 9648.58,-13102.16 9647.51,-13495.17 -14.64,-5274.87 -282995.4,36458.96 -310301.33,45763.02 -25793.3,8788.67 -45547.73,36314.49 -47705.57,66472.99 -2082.4,29104.29 19033.58,98362.52 48122.41,157836.54 32326.17,66093.06 68753.723,112302.36 115925.763,147054.93 15831.97,11663.73 45890.3876,29810.52 49378.2718,29810.52 1220.7619,0 1356.8873,-7492.9 313.5032,-17257.83 -2653.4453,-24833.44 3143.42349,-37325.97 18672.015,-40239.15 9031.725,-1694.37 21583.098,3684.43 25447.645,10905.42 1350.471,2523.35 3543.285,13764.31 4872.923,24979.87 3143.838,26518.64 6590.422,38054.78 12278.878,41099.16 4233.305,2265.59 29719.86,3176.73 35426.735,1266.48 z"
                                   id="path6579"
                                   sodipodi:nodetypes="sssssssssssssssscsssssssssss" />
                                </g>
                                </g>
                                </g>
                                </g>
                                </g>
                                </g>
                                </g>
                                </g>
                                </g>
                                </g>
                                </g>
                                </g>
                                </g>
                                </g>
                                </g>
                                </g>
                                </g>
                                </g>
                                </g>
                                </g>
                                </g>
                                </g>
                                </g>
                                </g>
                                </g>
                                </g>
                                </g>
                                </g>
                                </g>
                                </g>
                                </g>
                                </g>
                                </g>
                                </g>
                                </g>
                                </g>
                                </g>
                                </g>
                                </g>
                                </g>
                                </g>
                                </g>
                                </g>
                                </g>
                                </g>
                                </g>
                                </g>
                                </g>
                                </g>
                                </g>
                                </g>
                                </g>
                                </g>
                                </g>
                                </g>
                                </g>
                                </g>
                                </g>
                                </g>
                                </g>
                                </g>
                                </g>
                                </g>
                                </g>
                                </g>
                                </g>
                                </g>
                                </g>
                                </g>
                                </g>
                                </g>
                                </g>
                                </g>
                                </g>
                                </g>
                                </g>
                                </g>
                                </g>
                                </g>
                                </g>
                                </g>
                                </g>
                                </g>
                                </g>
                                </g>
                                </g>
                                </g>
                              </g>
                            </g>
                          </g>
                        </g>
                      </g>
                    </g>
                  </g>
                </g>
              </g>
            </g>
          </g>
        </g>
      </g>
    </g>
  </g>
</svg>
