<?xml version="1.0" encoding="UTF-8" standalone="no"?>
<!-- Created with Inkscape (http://www.inkscape.org/) -->

<svg
   width="64"
   height="64"
   viewBox="0 0 16.933333 16.933334"
   version="1.1"
   id="svg5"
   inkscape:version="1.2 (dc2aedaf03, 2022-05-15)"
   sodipodi:docname="cuisse_de_dinde.svg"
   xmlns:inkscape="http://www.inkscape.org/namespaces/inkscape"
   xmlns:sodipodi="http://sodipodi.sourceforge.net/DTD/sodipodi-0.dtd"
   xmlns="http://www.w3.org/2000/svg"
   xmlns:svg="http://www.w3.org/2000/svg">
  <sodipodi:namedview
     id="namedview7"
     pagecolor="#ffffff"
     bordercolor="#666666"
     borderopacity="1.0"
     inkscape:pageshadow="2"
     inkscape:pageopacity="0.0"
     inkscape:pagecheckerboard="0"
     inkscape:document-units="mm"
     showgrid="false"
     units="px"
     inkscape:zoom="32.000001"
     inkscape:cx="24.249999"
     inkscape:cy="39.656248"
     inkscape:window-width="1920"
     inkscape:window-height="1017"
     inkscape:window-x="3832"
     inkscape:window-y="-8"
     inkscape:window-maximized="1"
     inkscape:current-layer="g5037"
     inkscape:showpageshadow="2"
     inkscape:deskcolor="#d1d1d1" />
  <defs
     id="defs2" />
  <g
     inkscape:label="Calque 1"
     inkscape:groupmode="layer"
     id="layer1">
    <g
       id="g4128"
       transform="translate(-0.63104184,0.12620835)">
      <g
         id="g5578"
         transform="translate(0.08924235,0.08924306)">
        <g
           id="g7501"
           transform="translate(-0.06310417,0.94656242)">
          <g
             id="g9467"
             transform="translate(-0.08924275,-0.80318511)">
            <g
               id="g10302"
               transform="translate(0.31234979,-0.04462139)">
              <g
                 id="g11479"
                 transform="translate(-0.12620833,0.06310418)">
                <g
                   id="g11873"
                   transform="translate(-0.23575769,0.66462456)">
                  <g
                     id="g12382"
                     transform="translate(-121.98459,-82.267525)">
                    <g
                       id="g13305"
                       transform="matrix(0.13266609,0,0,0.13266609,114.63867,78.215696)">
                      <g
                         id="g17429"
                         transform="translate(0.90513437,5.6640979)">
                        <g
                           id="g18595"
                           transform="translate(-3.3634362,-8.7449387)">
                          <g
                             id="g21002"
                             transform="translate(1.7082278,-2.8204445)">
                            <g
                               id="g23814"
                               transform="translate(8.7253043,-1.1218249)">
                              <g
                                 id="g24838"
                                 transform="translate(11.143454,-0.85716864)">
                                <g
                                   id="g25315"
                                   transform="translate(-3.490122,2.4929446)">
                                <g
                                   id="g27220"
                                   transform="translate(2.4678888,1.2339445)">
                                <g
                                   id="g29753"
                                   transform="translate(1.4759287,-2.3737724)">
                                <g
                                   id="g30615"
                                   transform="translate(0.92006037,1.3687834)">
                                <g
                                   id="g31433"
                                   transform="translate(-2.4678886,-1.410222)">
                                <g
                                   id="g31731"
                                   transform="translate(1.0576664,-0.70511063)">
                                <g
                                   id="g33243"
                                   transform="matrix(1.0772948,0,0,1.0772948,-7.3729128,-3.1743014)">
                                <g
                                   id="g35254"
                                   transform="translate(-2.2135012,-0.92031205)">
                                <g
                                   id="g36749"
                                   transform="translate(-0.98178042,-2.7817105)">
                                <g
                                   id="g37297"
                                   transform="translate(-6.7755742,-3.5033798)">
                                <g
                                   id="g38955"
                                   transform="matrix(1.2171094,0,0,1.2171094,-23.105122,-18.212482)">
                                <g
                                   id="g39618"
                                   transform="translate(-0.26888273,-0.26888316)">
                                <g
                                   id="g40032"
                                   transform="translate(-1.90129,-3.042064)">
                                <g
                                   id="g40543"
                                   transform="translate(0.3802582,-2.0914191)">
                                <g
                                   id="g41372"
                                   transform="translate(1.9657652,-7.9304203)">
                                <g
                                   id="g43278"
                                   transform="translate(1.5210324,-0.38025789)">
                                <g
                                   id="g44210"
                                   transform="matrix(1.1578947,0,0,1.1578947,-18.904476,-21.776183)">
                                <g
                                   id="g44833"
                                   transform="matrix(1.1196819,0,0,1.1196819,-12.538538,-14.547543)">
                                <g
                                   id="g47597"
                                   transform="translate(3.1109352,-1.2443743)">
                                <g
                                   id="g48754"
                                   transform="translate(-2.9035392,-6.6366609)">
                                <g
                                   id="g234"
                                   transform="matrix(0.04089637,0,0,0.04089637,104.63967,119.67231)">
                                <g
                                   id="g2138"
                                   transform="translate(-86.211222,-40.569988)">
                                <g
                                   id="g2696"
                                   transform="translate(-124306.44,-9412.2373)">
                                <g
                                   id="g3765"
                                   transform="translate(25.356243,-50.712489)">
                                <g
                                   id="g4557"
                                   transform="translate(46.61688,-35.859142)">
                                <g
                                   id="g5244"
                                   transform="translate(7.1718407,14.343658)">
                                <g
                                   id="g5807"
                                   transform="translate(-5.1984397,-21.113724)">
                                <g
                                   id="g6945"
                                   transform="translate(-10.142522,-243.41993)">
                                <g
                                   id="g11108"
                                   transform="translate(18.189368,-37.636113)">
                                <g
                                   id="g15049"
                                   transform="translate(-65.926228,141.99496)">
                                <g
                                   id="g19861"
                                   transform="matrix(0.07356842,0,0,0.07356842,115423.38,9039.2311)">
                                <g
                                   id="g20437"
                                   transform="translate(-478.38824,-785.88156)">
                                <g
                                   id="g21032"
                                   transform="translate(2047.1878,-1072.3367)">
                                <g
                                   id="g21869"
                                   transform="matrix(0.04321578,0,0,0.04321578,117368,10137.003)">
                                <g
                                   id="g25455"
                                   transform="translate(154741.46,-87178.414)">
                                <g
                                   id="g26278"
                                   transform="translate(-18012.371,-8233.4417)">
                                <g
                                   id="g27240"
                                   transform="translate(-0.00447131,5582.7624)">
                                <g
                                   id="g28306"
                                   transform="translate(-15790.441,-2255.7767)">
                                <g
                                   id="g33735"
                                   transform="translate(14662.549,-16918.328)">
                                <g
                                   id="g37868"
                                   transform="translate(-5075.4976,25941.433)">
                                <g
                                   id="g76752"
                                   transform="matrix(-1,0,0,1,9442.3174,-1595.0746)">
                                <g
                                   id="g82459"
                                   transform="translate(3383.6668,-1127.8885)">
                                <g
                                   id="g83208"
                                   transform="matrix(0.20332428,0,0,0.20332428,-15348.528,66747.475)">
                                <g
                                   id="g83934"
                                   transform="matrix(-1,0,0,1,240692.18,94139.78)">
                                <g
                                   id="g84550"
                                   transform="translate(-8.7627443e-5,55472.344)">
                                <g
                                   id="g9096"
                                   transform="translate(31379.925,-62759.843)">
                                <g
                                   id="g11527"
                                   transform="translate(61019.625,105397.54)">
                                <g
                                   id="g13422"
                                   transform="translate(-44377.907,44377.908)">
                                <g
                                   id="g1137"
                                   transform="translate(-3.3240812e-4,138680.92)">
                                <g
                                   id="g3632"
                                   transform="translate(177511.65,-22188.943)">
                                <g
                                   id="g5936"
                                   transform="translate(11767.473,-47069.909)">
                                <g
                                   id="g7318">
                                <g
                                   id="g11619"
                                   transform="translate(27457.436,-223581.94)" />
                                <g
                                   id="g11985"
                                   transform="translate(70604.821,-133364.68)">
                                <g
                                   id="g12707"
                                   transform="matrix(1.186974,0,0,1.186974,95904.637,-164033.62)">
                                <g
                                   id="g4721"
                                   transform="matrix(-1,0,0,1,-561251.4,-59483.037)">
                                <g
                                   id="g7072">
                                <g
                                   id="g10426"
                                   transform="translate(66928.962,-211126.69)">
                                <g
                                   id="g11693"
                                   transform="translate(967399.8,-74774.864)">
                                <g
                                   id="g12809"
                                   transform="translate(37387.427,-102815.44)">
                                <g
                                   id="g2473"
                                   transform="translate(132184.53,-3304.6135)">
                                <g
                                   id="g4713"
                                   transform="translate(98142.015,-79448.29)">
                                <g
                                   id="g6093"
                                   transform="translate(-28040.619,-18693.712)">
                                <g
                                   id="g10695"
                                   transform="translate(51630.439,7541.1673)">
                                <g
                                   id="g11274"
                                   transform="translate(10950.525,104212.74)">
                                <g
                                   id="g12675"
                                   transform="translate(-91131.868,23367.145)">
                                <g
                                   id="g13439">
                                <g
                                   id="g14292"
                                   transform="translate(9346.8309,-46734.289)">
                                <g
                                   id="g16374"
                                   transform="translate(-112356.85,125575.3)">
                                <g
                                   id="g17065"
                                   transform="translate(74774.872,-56081.146)">
                                <g
                                   id="g17792"
                                   transform="translate(0.01429257,-42959.977)">
                                <g
                                   id="g19043"
                                   transform="translate(16341.79,212504.01)">
                                <g
                                   id="g20969"
                                   transform="translate(-118966.09,26436.908)">
                                <g
                                   id="g22628"
                                   transform="translate(-18693.728,-37387.434)">
                                <g
                                   id="g23177"
                                   transform="translate(102815.45,-28040.575)">
                                <g
                                   id="g24529"
                                   transform="matrix(0.75901216,0,0,0.75901216,-371896.03,177286.32)">
                                <g
                                   id="g2014"
                                   transform="translate(70808.399,55415.268)">
                                <g
                                   id="g2337"
                                   transform="translate(48292.227,-13536.625)">
                                <g
                                   id="g5037"
                                   transform="translate(-126261.16,8707.6695)">
                                <path
                                   style="fill:#faddb5;stroke-width:2536.13"
                                   d="m -1298376.2,1132671.5 c 74146.7,77744.4 160874.2,130820.6 379269.34,232108.6 92344.7,42827.9 110843.6,49928.9 145555.9,55872.9 34452,5899.5 39544.6,5425.8 69320.74,-6446.9 63372.3,-25268.6 99912.41,-68664.1 119343.81,-141734.2 2971.05,-11172.4 10916.96,-32000.2 17657.56,-46284 39156.81,-82976.1 47806.5,-155658.6 35468.9,-298042.12 -13802.01,-159284.05 -14056.73,-223313.61 -1196.77,-300858.68 7318.85,-44132.41 16883.67,-76596.51 35559.45,-120692.93 26936.85,-63602.12 26574.67,-92520.89 -1588.08,-126802.8 -43692.85,-56823.67 -138161.11,-35362.9 -181767.01,-97882.74 -71937.5,-106329.27 -96035,-144963.75 -121759,-195210.645 -54109.85,-86097.49474 -52334.82,-205478.615 -90315.8,-279493.655 -14114.3,-18893.78 -17552.5,-22197.35 -30061.4,-28883.9 -16799.9,-8980.27 -42971.5,-14170.49 -66235,-13135.32 -9273.7,412.65 -34817.04,3965.58 -56762.94,7895.4 -30834.5,5521.5 -152221.3,21841.74 -158333.4,21287.66 -3356.6,-304.3 7322.6,-63700.55 17966.9,-106660.11 14062.2,-56753.58 18476.5,-90520.61 16831.7,-128754.88 -2687,-62463.14 -14309.3,-106390.32 -35882.7,-135620.97 -25271.7,-34241.73 -47040.5,-38026.14 -130530,-22692.09 -57249.5,10514.66 -88504.9,20138.37 -127396.8,39226.16 -53406.8,26211.55 -73323.4,64227.8 -62583.7,119458.12 4103.9,21104.65 7862.2,32043.48 31093.7,90500.82 16287.9,40985.07 23176.5,99192.7 18950.2,160126.17 -739.2,10657.91 -2617.3,19183.62 -4173.5,18946.03 -4249.1,-648.75 -103195.4,-57219.03 -148359.4,-84821.1 -90775.2,-55477.47 -151871.8,-105499.27 -187973.6,-153900.21 -26462.7,-35477.86 -40328.2,-68278.77 -66132.9,-156447.2 -5854.2,-20002.29 -16496.4,-49090.4 -23649.3,-64640.24 -11673.6,-25377.34 -16348,-32744.92 -45647.8,-71949.07 -28580,-38240.99 -34624.4,-45211.62 -48567.9,-56009.96 -22114.2,-17126.09 -38564,-24666.92 -57049.5,-26152.46 -24443.1,-1964.24 -34797.7,2713.27 -84419,38134.78 -40235.8,28721.68 -44328.5,32214.32 -66546.7,56789.24 -37964.9,41992.16 -54057.9,70291.35 -56318.4,99035.94 -2849.5,36233.95 20323.1,73277.18 74124.7,118493.67 36992.2,31089.39 46679.7,40175.81 63126.1,59209.06 30503.9,35302.08 66448.2,102016.73 94856.8,176059.96 27766.4,72369.49 54375.4,149686.99 71932.4,209013.579 30056.5,101563.606 52294.4,167084.901 73547.8,216700.711 11125.5,25972.23 23904,60421.38 28396.7,76553.62 10490.4,37668.59 25683.5,63459.06 72255,122654.02 41273.1,52460.33 57544.2,67937.33 143498.8,136495.89 l 65344.9,52119.96 3145.5,13709.32 c 5998.5,26142.99 19855.4,61917.52 55703.3,143809.57 83631.1,191049.58 122603.3,265798.58 179958.6,345161.8 18794.1,26005.7 36947.9,50194.7 40341.9,53753.1 z"
                                   id="path5043"
                                   sodipodi:nodetypes="sssssssssccccssssssssssssssssssssssssssssssscsssss" />
                                <path
                                   style="fill:#e2ac8d;stroke-width:2536.13"
                                   d="m -1287579.5,1143599.9 c 70868.5,70882.3 167951.4,128505.6 383135.44,227409.3 76659.8,35234.6 87862,39689.8 117874,46879.2 33512.4,8028 51980.4,7762.7 75518.75,-1084.8 11556.35,-4343.8 26014.39,-10652.3 32128.98,-14018.9 l 11117.43,-6121.1 -23870.8,1946.9 c -65228.76,5320.3 -103725.96,-5257.7 -208410.76,-57265.9 -171683.84,-85293.7 -276926.74,-157900.3 -354368.44,-244477.2 -29347.4,-32809.3 -110457.4,-145129.92 -138181.1,-191352.4 -65046.8,-108449.51 -121315.9,-221096.45 -144563.2,-289405.77 -25073.7,-73676.03 -33073.7,-163173.72 -23280.4,-260442.13 848.5,-4795.52 -3886.1,-8931.2 -5829.1,-13396.8 -84152,36503.76 -239376.1,-368368.106 -270993.1,-494293.23 -27801.5,-111033.47 -29308.3,-114865.89 -63017.1,-160279.55 -34391.1,-46332.95 -45292.7,-55942.69 -134126.2,-118233.4 -76002.4,-53469.98 -145056.7,-100457.88 -171814.5,-175423.49 1623,-20518.81 20885.9,-46286.86 59362.6,-79410.38 24533.3,-21119.63 38188.7,-26617.53 68307.1,-27501.86 40398.9,-1186.12 61435,8278.51 86230.4,38797.18 18314.6,22542 25827.3,39204.65 43774.8,97090.65 22782.4,73479.7 62792.2,141787.71 156714.5,267556.18 106927.8,143183.55 158776.7,193575.52 248621.3,241635.01 18335.3,9807.896 36272.9,19699.389 39861.4,21981.09 l 6524.6,4148.524 7115.1,-40211.158 c 3913.3,-22116.146 8510.3,-50435.886 10215.6,-62932.756 l 3100.5,-22721.62 -49193.1,-27770.34 c -161701.9,-91283.52 -228698.9,-139662.07 -280941.9,-202868.12 -33583,-40630.27 -47604.3,-70143.75 -70061.8,-147473.59 -23120,-79610.73 -43760.5,-121288.3 -85120.9,-171877.5 -126263.7,-103067.4 -219791.6,-17540.9 -289301.9,87021.71 652.7,122313.27 107527.5,154265.29 171360.2,233760.82 50964.9,63747.95 89915.4,137434.14 125191.5,236836.29 7012.1,19758.95 24816.3,76973.603 39564.9,127143.662 24765.1,84242.763 67617.7,208319.078 93436.7,270538.158 43994,115289.55 120178.7,199865.59 203973.6,262196.68 16315.4,12098.5 29079.8,23147.01 30084.7,26040.45 960,2764.19 1109.5,4933.71 332.2,4821.16 -73681.4,-48437.96 -149431.4,-120089.17 -190430.9,-175106.74 -27964.1,-37669.09 -38192.8,-53263.04 -52259.7,-79672.31 -15160.6,-28462.32 -37622.2,-75835.17 -42395.9,-89415.24 -3507.8,-9978.99 -4827.5,-699.61 -1763,12396.87 16327.3,104423.86 70785.2,173043.69 141975.5,250002.93 12614.2,11865.25 52539.1,45288.75 88722,74274.43 l 65787.1,52701.25 c 47846.7,145797.43 116343,297084.94 185244.2,420992.42 25342.7,45322.52 80122,122053.92 104648.7,146585.42 z m 9005.8,-90617.6 c 89407.4,108413.1 165277.4,159534.5 402158.14,270975 75757.5,35640 101422,44947.1 139986.3,50764.9 120661.39,4283.6 133493.01,-63834.8 167750.18,-147719.8 42177.12,-90448 49629.19,-160305.2 34340.19,-321911.92 -3144.78,-33240.91 -5980.68,-70019.12 -7133.57,-92514.38 l -1406.34,-27440.34 -3397.62,26750.77 c -1868.66,14712.91 -6958.4,42463.07 -11310.46,61667.01 -24315.63,97294.62 -10742.17,229623.66 -73791.43,304224.16 -14738.57,16724 -29294.41,25598.5 -48692.32,29687.2 -38178.73,8047.2 -86191.13,-16361.6 -134716.63,-68487.9 l -18672.4,-20058 -8312.9,10377.3 c -10874.7,13575.2 -21634.2,21424.5 -39144,28556.5 -21035.6,8568.1 -39615,10324 -63672.3,6017.4 -63364.34,-11342.9 -129738.54,-62042.3 -214138.14,-163567.5 -129563.8,-202275.19 -265477.4,-402462.51 -263000.7,-623058.04 1270.3,-77614.61 14573.3,-141746.57 66893.6,-322483.705 15406,-53219.0006 28069.7,-102844.729 29365,-115073.766 6484.2,-61216.889 -6213,-109055.539 -52417.3,-197490.309 -54876.9,-105034.23 -72041.6,-145692.91 -81632.5,-193366.66 -5005.3,-24880.47 -4542.2,-39190.46 1605.5,-49601.09 6560.7,-11110.18 29413.7,-27289.22 49704.6,-35188.99 23647.8,-9206.7 71453.3,-19994.03 85607.3,-19317.34 28955.9,1384.37 69180.9,23675.87 83622.5,46341.15 19238.2,30193.14 20709.3,62933.01 5698.6,126826.09 -20574.3,87574.38 -19341.5,163874.62 5465.2,338261.161 26467.1,206086.719 117103.7,349916.529 240237.94,514435.559 68983.28,39018.32 93325.83,96371.28 146709.3,155381.45 10217,2544.06 14838.9,-3429.65 20679.3,-26727.89 -943.72,-64929.98 -140664.06,-334361.94 22025.5,-327749.44 13018.8,740.84 23317.6,874.51 22886.2,297.01 -1366.5,-1829.22 -87548.3,-28342.69 -112450.3,-34594.87 -42093.6,-10568.47 -80017.7,-15726.52 -94165.2,-12807.34 -15629.7,3225.01 -11561.3,7347.91 -50828.34,-51509.06 -127759.4,-191497.572 -165514.3,-272159.588 -171483,-366367.21 -1923.8,-30365.01 979.7,-53125.58 12889.6,-101038.95 20950,-84282.08 23909.7,-107259.15 20495.5,-159114.03 -3677.1,-55848.06 -14828.4,-96015.98 -33846.7,-121918.4 -18005.6,-24523.09 -36219.2,-32917.76 -69131.8,-31862.88 -87451.8,6405.86 -161527.2,28111.41 -227528.6,78438.26 -4384.7,5839.36 -7568.7,15762.04 -9686.4,30187.09 -4100,27927.34 868.8,47646.54 28845.7,114478.91 11723.3,28005.07 23565.1,59180.19 26315.2,69278.08 13174.1,48373.65 19478,108611.73 17661.5,168767.03 -1327.9,43972.96 -17500.5,151095.0994 -31300,207321.545 -32034.3,130523.715 -38110.5,157248.515 -47596.7,209342.395 -39682.2,217916.41 -37648.3,294527.49 10713,403526.69 60129.5,135523.08 149243.1,283811.43 227799.8,379067.15 z m 734660.81,-278153.84 c 421.9,-315.18 826.66,-3110.5 899.45,-6211.83 119.93,-5110.51 -5.62,-5128.69 -1340.19,-194.05 -1401.62,5182.58 -1231.5,7655.1 440.74,6405.88 z"
                                   id="path5041"
                                   sodipodi:nodetypes="ssssscssssscccsccssssssscsscssscccssccsccssccsccsssccsscsccsscsssccssssssssscccccssssssssccssssssssssss" />
                                </g>
                                </g>
                                </g>
                                </g>
                                </g>
                                </g>
                                </g>
                                </g>
                                </g>
                                </g>
                                </g>
                                </g>
                                </g>
                                </g>
                                </g>
                                </g>
                                </g>
                                </g>
                                </g>
                                </g>
                                </g>
                                </g>
                                </g>
                                </g>
                                </g>
                                </g>
                                </g>
                                </g>
                                </g>
                                </g>
                                </g>
                                </g>
                                </g>
                                </g>
                                </g>
                                </g>
                                </g>
                                </g>
                                </g>
                                </g>
                                </g>
                                </g>
                                </g>
                                </g>
                                </g>
                                </g>
                                </g>
                                </g>
                                </g>
                                </g>
                                </g>
                                </g>
                                </g>
                                </g>
                                </g>
                                </g>
                                </g>
                                </g>
                                </g>
                                </g>
                                </g>
                                </g>
                                </g>
                                </g>
                                </g>
                                </g>
                                </g>
                                </g>
                                </g>
                                </g>
                                </g>
                                </g>
                                </g>
                                </g>
                                </g>
                                </g>
                                </g>
                                </g>
                              </g>
                            </g>
                          </g>
                        </g>
                      </g>
                    </g>
                  </g>
                </g>
              </g>
            </g>
          </g>
        </g>
      </g>
    </g>
  </g>
</svg>
