<?xml version="1.0" encoding="UTF-8" standalone="no"?>
<!-- Created with Inkscape (http://www.inkscape.org/) -->

<svg
   width="64"
   height="64"
   viewBox="0 0 16.933333 16.933334"
   version="1.1"
   id="svg5"
   inkscape:version="1.2 (dc2aedaf03, 2022-05-15)"
   sodipodi:docname="curry.svg"
   xmlns:inkscape="http://www.inkscape.org/namespaces/inkscape"
   xmlns:sodipodi="http://sodipodi.sourceforge.net/DTD/sodipodi-0.dtd"
   xmlns="http://www.w3.org/2000/svg"
   xmlns:svg="http://www.w3.org/2000/svg">
  <sodipodi:namedview
     id="namedview7"
     pagecolor="#ffffff"
     bordercolor="#666666"
     borderopacity="1.0"
     inkscape:pageshadow="2"
     inkscape:pageopacity="0.0"
     inkscape:pagecheckerboard="0"
     inkscape:document-units="mm"
     showgrid="false"
     units="px"
     inkscape:zoom="22.627417"
     inkscape:cx="35.620504"
     inkscape:cy="38.139572"
     inkscape:window-width="1920"
     inkscape:window-height="1017"
     inkscape:window-x="3832"
     inkscape:window-y="-8"
     inkscape:window-maximized="1"
     inkscape:current-layer="g1417"
     inkscape:showpageshadow="2"
     inkscape:deskcolor="#d1d1d1" />
  <defs
     id="defs2" />
  <g
     inkscape:label="Calque 1"
     inkscape:groupmode="layer"
     id="layer1">
    <g
       id="g4128"
       transform="translate(-0.63104184,0.12620835)">
      <g
         id="g5578"
         transform="translate(0.08924235,0.08924306)">
        <g
           id="g7501"
           transform="translate(-0.06310417,0.94656242)">
          <g
             id="g9467"
             transform="translate(-0.08924275,-0.80318511)">
            <g
               id="g10302"
               transform="translate(0.31234979,-0.04462139)">
              <g
                 id="g11479"
                 transform="translate(-0.12620833,0.06310418)">
                <g
                   id="g11873"
                   transform="translate(-0.23575769,0.66462456)">
                  <g
                     id="g12382"
                     transform="translate(-121.98459,-82.267525)">
                    <g
                       id="g13305"
                       transform="matrix(0.13266609,0,0,0.13266609,114.63867,78.215696)">
                      <g
                         id="g17429"
                         transform="translate(0.90513437,5.6640979)">
                        <g
                           id="g18595"
                           transform="translate(-3.3634362,-8.7449387)">
                          <g
                             id="g21002"
                             transform="translate(1.7082278,-2.8204445)">
                            <g
                               id="g23814"
                               transform="translate(8.7253043,-1.1218249)">
                              <g
                                 id="g24838"
                                 transform="translate(11.143454,-0.85716864)">
                                <g
                                   id="g25315"
                                   transform="translate(-3.490122,2.4929446)">
                                <g
                                   id="g27220"
                                   transform="translate(2.4678888,1.2339445)">
                                <g
                                   id="g29753"
                                   transform="translate(1.4759287,-2.3737724)">
                                <g
                                   id="g30615"
                                   transform="translate(0.92006037,1.3687834)">
                                <g
                                   id="g31433"
                                   transform="translate(-2.4678886,-1.410222)">
                                <g
                                   id="g31731"
                                   transform="translate(1.0576664,-0.70511063)">
                                <g
                                   id="g33243"
                                   transform="matrix(1.0772948,0,0,1.0772948,-7.3729128,-3.1743014)">
                                <g
                                   id="g35254"
                                   transform="translate(-2.2135012,-0.92031205)">
                                <g
                                   id="g36749"
                                   transform="translate(-0.98178042,-2.7817105)">
                                <g
                                   id="g37297"
                                   transform="translate(-6.7755742,-3.5033798)">
                                <g
                                   id="g38955"
                                   transform="matrix(1.2171094,0,0,1.2171094,-23.105122,-18.212482)">
                                <g
                                   id="g39618"
                                   transform="translate(-0.26888273,-0.26888316)">
                                <g
                                   id="g40032"
                                   transform="translate(-1.90129,-3.042064)">
                                <g
                                   id="g40543"
                                   transform="translate(0.3802582,-2.0914191)">
                                <g
                                   id="g41372"
                                   transform="translate(1.9657652,-7.9304203)">
                                <g
                                   id="g43278"
                                   transform="translate(1.5210324,-0.38025789)">
                                <g
                                   id="g44210"
                                   transform="matrix(1.1578947,0,0,1.1578947,-18.904476,-21.776183)">
                                <g
                                   id="g44833"
                                   transform="matrix(1.1196819,0,0,1.1196819,-12.538538,-14.547543)">
                                <g
                                   id="g47597"
                                   transform="translate(3.1109352,-1.2443743)">
                                <g
                                   id="g48754"
                                   transform="translate(-2.9035392,-6.6366609)">
                                <g
                                   id="g234"
                                   transform="matrix(0.04089637,0,0,0.04089637,104.63967,119.67231)">
                                <g
                                   id="g2138"
                                   transform="translate(-86.211222,-40.569988)">
                                <g
                                   id="g2696"
                                   transform="translate(-124306.44,-9412.2373)">
                                <g
                                   id="g3765"
                                   transform="translate(25.356243,-50.712489)">
                                <g
                                   id="g4557"
                                   transform="translate(46.61688,-35.859142)">
                                <g
                                   id="g5244"
                                   transform="translate(7.1718407,14.343658)">
                                <g
                                   id="g5807"
                                   transform="translate(-5.1984397,-21.113724)">
                                <g
                                   id="g6945"
                                   transform="translate(-10.142522,-243.41993)">
                                <g
                                   id="g11108"
                                   transform="translate(18.189368,-37.636113)">
                                <g
                                   id="g15049"
                                   transform="translate(-65.926228,141.99496)">
                                <g
                                   id="g19861"
                                   transform="matrix(0.07356842,0,0,0.07356842,115423.38,9039.2311)">
                                <g
                                   id="g20437"
                                   transform="translate(-478.38824,-785.88156)">
                                <g
                                   id="g21032"
                                   transform="translate(2047.1878,-1072.3367)">
                                <g
                                   id="g21869"
                                   transform="matrix(0.04321578,0,0,0.04321578,117368,10137.003)">
                                <g
                                   id="g25455"
                                   transform="translate(154741.46,-87178.414)">
                                <g
                                   id="g26278"
                                   transform="translate(-18012.371,-8233.4417)">
                                <g
                                   id="g27240"
                                   transform="translate(-0.00447131,5582.7624)">
                                <g
                                   id="g28306"
                                   transform="translate(-15790.441,-2255.7767)">
                                <g
                                   id="g33735"
                                   transform="translate(14662.549,-16918.328)">
                                <g
                                   id="g37868"
                                   transform="translate(-5075.4976,25941.433)">
                                <g
                                   id="g76752"
                                   transform="matrix(-1,0,0,1,9442.3174,-1595.0746)">
                                <g
                                   id="g82459"
                                   transform="translate(3383.6668,-1127.8885)">
                                <g
                                   id="g83208"
                                   transform="matrix(0.20332428,0,0,0.20332428,-15348.528,66747.475)">
                                <g
                                   id="g83934"
                                   transform="matrix(-1,0,0,1,240692.18,94139.78)">
                                <g
                                   id="g84550"
                                   transform="translate(-8.7627443e-5,55472.344)">
                                <g
                                   id="g9096"
                                   transform="translate(31379.925,-62759.843)">
                                <g
                                   id="g11527"
                                   transform="translate(61019.625,105397.54)">
                                <g
                                   id="g13422"
                                   transform="translate(-44377.907,44377.908)">
                                <g
                                   id="g1137"
                                   transform="translate(-3.3240812e-4,138680.92)">
                                <g
                                   id="g3632"
                                   transform="translate(177511.65,-22188.943)">
                                <g
                                   id="g5936"
                                   transform="translate(11767.473,-47069.909)">
                                <g
                                   id="g7318">
                                <g
                                   id="g11619"
                                   transform="translate(27457.436,-223581.94)" />
                                <g
                                   id="g11985"
                                   transform="translate(70604.821,-133364.68)">
                                <g
                                   id="g12707"
                                   transform="matrix(1.186974,0,0,1.186974,95904.637,-164033.62)">
                                <g
                                   id="g4721"
                                   transform="matrix(-1,0,0,1,-561251.4,-59483.037)">
                                <g
                                   id="g7072">
                                <g
                                   id="g10426"
                                   transform="translate(66928.962,-211126.69)">
                                <g
                                   id="g11693"
                                   transform="translate(967399.8,-74774.864)">
                                <g
                                   id="g12809"
                                   transform="translate(37387.427,-102815.44)">
                                <g
                                   id="g2473"
                                   transform="translate(132184.53,-3304.6135)">
                                <g
                                   id="g4713"
                                   transform="translate(98142.015,-79448.29)">
                                <g
                                   id="g6093"
                                   transform="translate(-28040.619,-18693.712)">
                                <g
                                   id="g10695"
                                   transform="translate(51630.439,7541.1673)">
                                <g
                                   id="g11274"
                                   transform="translate(10950.525,104212.74)">
                                <g
                                   id="g12675"
                                   transform="translate(-91131.868,23367.145)">
                                <g
                                   id="g13439">
                                <g
                                   id="g14292"
                                   transform="translate(9346.8309,-46734.289)">
                                <g
                                   id="g16374"
                                   transform="translate(-112356.85,125575.3)">
                                <g
                                   id="g17065"
                                   transform="translate(74774.872,-56081.146)">
                                <g
                                   id="g17792"
                                   transform="translate(0.01429257,-42959.977)">
                                <g
                                   id="g19043"
                                   transform="translate(16341.79,212504.01)">
                                <g
                                   id="g20969"
                                   transform="translate(-118966.09,26436.908)">
                                <g
                                   id="g1417"
                                   transform="translate(-9346.8626,46734.287)">
                                <path
                                   style="fill:#bb906c;stroke-width:3514.81"
                                   d="m -873002.32,1164916.8 c 46693.67,-11369.2 96968.22,-43638.6 126855.35,-81423.7 29941.05,-37853.3 26068.54,-26492.9 150585.16,-441756.84 14666.73,-48913.64 14717.55,-49012.13 26910.02,-52141.29 29403.3,-7546.32 47607.23,-33199.69 44739.24,-63047.48 -1854.66,-19301.8 -9843.02,-32233.47 -27215.74,-44057.24 -10242.45,-6970.95 -16028.25,-7908.31 -48813.59,-7908.31 h -37193.86 c -758220.06,-1755.25 -792154.36,3457.55 -1571258.86,-506.2 l -38662.9,1131.8 c -44291.5,1296.58 -56122.3,6669.66 -68618.3,31163.63 -8876.2,17398.88 -8802,32461.79 252.4,51165.23 7721.5,15950.61 17531,23983.62 37897.8,31034.78 14565,5042.55 10011.7,-6743.82 53049.4,137319.32 98728.8,330482.2 99254.6,331878.9 140857.3,374180 27294,27752.1 55164.4,45328.4 93176.1,58760.9 l 28084.5,9924.5 534250.4,619.5 c 455347.96,527.9 537330.43,-130.4 555105.58,-4458.6 z"
                                   id="path1427"
                                   sodipodi:nodetypes="cssssssccssssssscsc" />
                                <path
                                   style="fill:#ffd42a;stroke-width:3514.81"
                                   d="m -879798.31,1164798.4 c 64170.83,-13699.5 125383.07,-59625 155976.25,-117023.7 11022.69,-20680.7 54727.21,-160254.59 125833.45,-401859.3 l 16296.27,-55371.46 13552.9,-3649.43 c 51575.46,-13887.84 59514.84,-82137.76 12218.36,-105033.59 -11942.49,-5781.25 -21859.36,-7281.58 -48196.03,-7291.53 l -33159.65,-14.06 -281184.4,-280820.2 C -1220331,-107742.28 -1223798.5,-110866.5 -1285835.8,-137265.71 c -49708.7,-21152.94 -73182.1,-25534.16 -136999.9,-25570.52 -53154.6,-30.23 -60604.9,764.81 -89277.4,9527.51 -37431.5,11439.55 -75109.3,28436.58 -102955.8,46444.96 -13093,8467.191 -122203.8,114767.0334 -304283.9,296444.53 l -283871.3,283243.77 604340,1757.4 c 603539.6,1755.08 604352.89,1767 614045.88,9004.19 16591.07,12387.62 23509.83,24692.74 24993.11,44450.83 1722.96,22950.9 -6149.78,39068.67 -25766.23,52751.07 l -13690.34,9548.95 -631786.22,116.69 c -347482.4,64.33 -631786.2,1308.99 -631786.2,2766.12 0,1457.17 6361.8,22414.19 14137.4,46571.17 7775.5,24157.01 17239.9,55784.28 21031.9,70282.85 3792,14498.57 13295,46922.65 21117.7,72053.5 7822.7,25130.86 27672.4,89849.11 44110.3,143818.34 17959.1,58963.35 35071.8,108060.55 42877.7,123018.15 18305.2,35076.8 57305.9,73399.8 93974.3,92341.6 57173.2,29534 4857,27078.6 595759.5,27960.9 454952.75,679.3 528764.85,79.8 550066.99,-4467.9 z"
                                   id="path1425" />
                                <path
                                   style="fill:#a0775a;stroke-width:3514.81"
                                   d="m -879798.31,1164798.4 c 64170.83,-13699.5 125383.07,-59625 155976.25,-117023.7 11022.69,-20680.7 54727.21,-160254.59 125833.45,-401859.3 l 16296.27,-55371.46 13552.9,-3649.43 c 51575.46,-13887.84 59514.84,-82137.76 12218.36,-105033.59 -14717.98,-7124.82 -19609.03,-7276.06 -230965.9,-7141.41 -182953.99,116.69 -214319.22,853.29 -205385.09,4824.07 41250.46,18333.93 44948.1,74539.17 6660.73,101244.45 l -13690.34,9548.95 -631786.22,116.69 c -347482.4,64.33 -631786.2,1308.99 -631786.2,2766.12 0,1457.17 6361.8,22414.19 14137.4,46571.17 7775.5,24157.01 17239.9,55784.28 21031.9,70282.85 3792,14498.57 13295,46922.65 21117.7,72053.5 7822.7,25130.86 27672.4,89849.11 44110.3,143818.34 17959.1,58963.35 35071.8,108060.55 42877.7,123018.15 18305.2,35076.8 57305.9,73399.8 93974.3,92341.6 57173.2,29534 4857,27078.6 595759.5,27960.9 454952.75,679.3 528764.85,79.8 550066.99,-4467.9 z m -24286.14,-694591.94 259778.08,896.77 c -519556.13,-1793.5 -880643.03,-3039.94 -259778.08,-896.77 z"
                                   id="path1423"
                                   sodipodi:nodetypes="ssscssssscssssssssssccc" />
                                <path
                                   style="fill:#ffcc00;stroke-width:3514.81"
                                   d="m -634340.71,768320.88 c 9017.46,-29833.35 16395.38,-56513.29 16395.38,-59288.75 0,-4375.51 -106873.18,-4816.45 -804011.67,-3317.1 -442206.4,951.04 -804511.9,2162.03 -805123.2,2691.07 -611.4,529.09 6537.8,26031.95 15887.2,56673.04 l 16998.7,55711.1 771729.1,886.54 771729.11,886.54 z M -921975.97,193201.27 c -297519.63,-297768.66 -305484.93,-304968.26 -364650.93,-329599.11 -55019.3,-22904.63 -117043.4,-31884.36 -173693.1,-25146.98 -34902.2,4150.94 -42438.1,6401.17 -32817.3,9799.19 10221.5,3610.2 44088,39046.06 55739.8,58322.83 99053,198350.73 171546,351062.49 273535,562732.53 l 259778.05,896.73 259778.08,896.77 z"
                                   id="path1421"
                                   sodipodi:nodetypes="ssssscccsssssccccs" />
                                <path
                                   style="fill:#744f4f;stroke-width:3514.81"
                                   d="m -634340.71,768320.88 c 9017.46,-29833.35 16395.38,-56513.29 16395.38,-59288.75 0,-4375.51 -106873.18,-4816.45 -804011.67,-3317.1 -442206.4,951.04 -804511.9,2162.03 -805123.2,2691.07 -611.4,529.09 6537.8,26031.95 15887.2,56673.04 l 16998.7,55711.1 771729.1,886.54 771729.11,886.54 z"
                                   id="path1419" />
                                </g>
                                </g>
                                </g>
                                </g>
                                </g>
                                </g>
                                </g>
                                </g>
                                </g>
                                </g>
                                </g>
                                </g>
                                </g>
                                </g>
                                </g>
                                </g>
                                </g>
                                </g>
                                </g>
                                </g>
                                </g>
                                </g>
                                </g>
                                </g>
                                </g>
                                </g>
                                </g>
                                </g>
                                </g>
                                </g>
                                </g>
                                </g>
                                </g>
                                </g>
                                </g>
                                </g>
                                </g>
                                </g>
                                </g>
                                </g>
                                </g>
                                </g>
                                </g>
                                </g>
                                </g>
                                </g>
                                </g>
                                </g>
                                </g>
                                </g>
                                </g>
                                </g>
                                </g>
                                </g>
                                </g>
                                </g>
                                </g>
                                </g>
                                </g>
                                </g>
                                </g>
                                </g>
                                </g>
                                </g>
                                </g>
                                </g>
                                </g>
                                </g>
                                </g>
                                </g>
                                </g>
                                </g>
                                </g>
                              </g>
                            </g>
                          </g>
                        </g>
                      </g>
                    </g>
                  </g>
                </g>
              </g>
            </g>
          </g>
        </g>
      </g>
    </g>
  </g>
</svg>
