<?xml version="1.0" encoding="UTF-8" standalone="no"?>
<!-- Created with Inkscape (http://www.inkscape.org/) -->

<svg
   width="64"
   height="64"
   viewBox="0 0 16.933333 16.933334"
   version="1.1"
   id="svg5"
   inkscape:version="1.2 (dc2aedaf03, 2022-05-15)"
   sodipodi:docname="dakatine.svg"
   xmlns:inkscape="http://www.inkscape.org/namespaces/inkscape"
   xmlns:sodipodi="http://sodipodi.sourceforge.net/DTD/sodipodi-0.dtd"
   xmlns="http://www.w3.org/2000/svg"
   xmlns:svg="http://www.w3.org/2000/svg">
  <sodipodi:namedview
     id="namedview7"
     pagecolor="#ffffff"
     bordercolor="#666666"
     borderopacity="1.0"
     inkscape:pageshadow="2"
     inkscape:pageopacity="0.0"
     inkscape:pagecheckerboard="0"
     inkscape:document-units="mm"
     showgrid="false"
     units="px"
     inkscape:zoom="11.313709"
     inkscape:cx="22.141281"
     inkscape:cy="41.630912"
     inkscape:window-width="1920"
     inkscape:window-height="1017"
     inkscape:window-x="1912"
     inkscape:window-y="-8"
     inkscape:window-maximized="1"
     inkscape:current-layer="g14695"
     inkscape:showpageshadow="2"
     inkscape:deskcolor="#d1d1d1" />
  <defs
     id="defs2" />
  <g
     inkscape:label="Calque 1"
     inkscape:groupmode="layer"
     id="layer1">
    <g
       id="g4128"
       transform="translate(-0.63104184,0.12620835)">
      <g
         id="g5578"
         transform="translate(0.08924235,0.08924306)">
        <g
           id="g7501"
           transform="translate(-0.06310417,0.94656242)">
          <g
             id="g9467"
             transform="translate(-0.08924275,-0.80318511)">
            <g
               id="g10302"
               transform="translate(0.31234979,-0.04462139)">
              <g
                 id="g11479"
                 transform="translate(-0.12620833,0.06310418)">
                <g
                   id="g11873"
                   transform="translate(-0.23575769,0.66462456)">
                  <g
                     id="g12382"
                     transform="translate(-121.98459,-82.267525)">
                    <g
                       id="g13305"
                       transform="matrix(0.13266609,0,0,0.13266609,114.63867,78.215696)">
                      <g
                         id="g17429"
                         transform="translate(0.90513437,5.6640979)">
                        <g
                           id="g18595"
                           transform="translate(-3.3634362,-8.7449387)">
                          <g
                             id="g21002"
                             transform="translate(1.7082278,-2.8204445)">
                            <g
                               id="g23814"
                               transform="translate(8.7253043,-1.1218249)">
                              <g
                                 id="g24838"
                                 transform="translate(11.143454,-0.85716864)">
                                <g
                                   id="g25315"
                                   transform="translate(-3.490122,2.4929446)">
                                <g
                                   id="g27220"
                                   transform="translate(2.4678888,1.2339445)">
                                <g
                                   id="g29753"
                                   transform="translate(1.4759287,-2.3737724)">
                                <g
                                   id="g30615"
                                   transform="translate(0.92006037,1.3687834)">
                                <g
                                   id="g31433"
                                   transform="translate(-2.4678886,-1.410222)">
                                <g
                                   id="g31731"
                                   transform="translate(1.0576664,-0.70511063)">
                                <g
                                   id="g33243"
                                   transform="matrix(1.0772948,0,0,1.0772948,-7.3729128,-3.1743014)">
                                <g
                                   id="g35254"
                                   transform="translate(-2.2135012,-0.92031205)">
                                <g
                                   id="g36749"
                                   transform="translate(-0.98178042,-2.7817105)">
                                <g
                                   id="g37297"
                                   transform="translate(-6.7755742,-3.5033798)">
                                <g
                                   id="g38955"
                                   transform="matrix(1.2171094,0,0,1.2171094,-23.105122,-18.212482)">
                                <g
                                   id="g39618"
                                   transform="translate(-0.26888273,-0.26888316)">
                                <g
                                   id="g40032"
                                   transform="translate(-1.90129,-3.042064)">
                                <g
                                   id="g40543"
                                   transform="translate(0.3802582,-2.0914191)">
                                <g
                                   id="g41372"
                                   transform="translate(1.9657652,-7.9304203)">
                                <g
                                   id="g43278"
                                   transform="translate(1.5210324,-0.38025789)">
                                <g
                                   id="g44210"
                                   transform="matrix(1.1578947,0,0,1.1578947,-18.904476,-21.776183)">
                                <g
                                   id="g44833"
                                   transform="matrix(1.1196819,0,0,1.1196819,-12.538538,-14.547543)">
                                <g
                                   id="g47597"
                                   transform="translate(3.1109352,-1.2443743)">
                                <g
                                   id="g48754"
                                   transform="translate(-2.9035392,-6.6366609)">
                                <g
                                   id="g234"
                                   transform="matrix(0.04089637,0,0,0.04089637,104.63967,119.67231)">
                                <g
                                   id="g2138"
                                   transform="translate(-86.211222,-40.569988)">
                                <g
                                   id="g2696"
                                   transform="translate(-124306.44,-9412.2373)">
                                <g
                                   id="g3765"
                                   transform="translate(25.356243,-50.712489)">
                                <g
                                   id="g4557"
                                   transform="translate(46.61688,-35.859142)">
                                <g
                                   id="g5244"
                                   transform="translate(7.1718407,14.343658)">
                                <g
                                   id="g5807"
                                   transform="translate(-5.1984397,-21.113724)">
                                <g
                                   id="g6945"
                                   transform="translate(-10.142522,-243.41993)">
                                <g
                                   id="g11108"
                                   transform="translate(18.189368,-37.636113)">
                                <g
                                   id="g15049"
                                   transform="translate(-65.926228,141.99496)">
                                <g
                                   id="g19861"
                                   transform="matrix(0.07356842,0,0,0.07356842,115423.38,9039.2311)">
                                <g
                                   id="g20437"
                                   transform="translate(-478.38824,-785.88156)">
                                <g
                                   id="g21032"
                                   transform="translate(2047.1878,-1072.3367)">
                                <g
                                   id="g21869"
                                   transform="matrix(0.04321578,0,0,0.04321578,117368,10137.003)">
                                <g
                                   id="g25455"
                                   transform="translate(154741.46,-87178.414)">
                                <g
                                   id="g26278"
                                   transform="translate(-18012.371,-8233.4417)">
                                <g
                                   id="g27240"
                                   transform="translate(-0.00447131,5582.7624)">
                                <g
                                   id="g28306"
                                   transform="translate(-15790.441,-2255.7767)">
                                <g
                                   id="g33735"
                                   transform="translate(14662.549,-16918.328)">
                                <g
                                   id="g37868"
                                   transform="translate(-5075.4976,25941.433)">
                                <g
                                   id="g76752"
                                   transform="matrix(-1,0,0,1,9442.3174,-1595.0746)">
                                <g
                                   id="g82459"
                                   transform="translate(3383.6668,-1127.8885)">
                                <g
                                   id="g83208"
                                   transform="matrix(0.20332428,0,0,0.20332428,-15348.528,66747.475)">
                                <g
                                   id="g83934"
                                   transform="matrix(-1,0,0,1,240692.18,94139.78)">
                                <g
                                   id="g84550"
                                   transform="translate(-8.7627443e-5,55472.344)">
                                <g
                                   id="g1274"
                                   transform="translate(-66682.337,-43147.393)">
                                <g
                                   id="g2352"
                                   transform="translate(-74780.623,-22188.943)">
                                <g
                                   id="g4123"
                                   transform="translate(-47069.882,-15689.961)">
                                <g
                                   id="g5928">
                                <g
                                   id="g12050"
                                   transform="translate(78161.555,35375.784)">
                                <g
                                   id="g1093"
                                   transform="matrix(0.06385153,0,0,0.06385153,-151090.08,201736.02)">
                                <g
                                   id="g1970"
                                   transform="translate(-477269.04,568882.2)">
                                <g
                                   id="g1097"
                                   transform="rotate(180,7281171.5,-2851818.8)">
                                <g
                                   id="g1814"
                                   transform="translate(2547662.7,480719.64)">
                                <g
                                   id="g3865"
                                   transform="translate(552882.75,-3993042.7)">
                                <g
                                   id="g4873"
                                   transform="matrix(-1,0,0,1,8458829.5,2171928.6)">
                                <g
                                   id="g7483"
                                   transform="matrix(1.1002204,0,0,1.1002204,477121.62,-2453467.8)">
                                <g
                                   id="g8018"
                                   transform="translate(0.2655037,670026.67)">
                                <g
                                   id="g13730"
                                   transform="translate(446684.45,111671.19)">
                                <g
                                   id="g14695"
                                   transform="translate(-394816.71,-1342377.9)">
                                <path
                                   style="fill:#f2ecdd;stroke-width:10422"
                                   d="m -8076546.3,-7402518.1 c 41204.4,175399.4 41172.4,174483.4 120611.8,3460089.8 42824.3,1771211.6 83068,3485363.07 89430.2,3809225.4 13220.8,672981.21 6353.3,2636910.5 -10714.2,3064055.4 -16598,415395.3 -42454.5,948260.6 -52846.5,1089094.6 6026975.9,5427327.8 15313129.1,5382106.6 20890863,208439.1 -32078,-302981.9 -80165,-1071502.3 -99120,-1584137.5 -20117,-544000.1 -11411,-1174660.9 51791,-3752368.4 34287,-1398371.3 81033,-3328048.8 103883,-4288171.6 33380,-1402654.8 44815,-1765132.5 58194,-1844686.5 C 10421104,-9846811 -3109811.8,-10102160 -8076546.3,-7402518.1 Z m 13835534,2857046.2 c 639117.1,-207245.9 1399453.1,-120695.7 1912429.1,217693.8 829025.9,578089.1 1215373.4,1594932.9 1177270.6,2498682 -223538.5,585020.8 -788530.2,788464.7 -1277973.8,973608.83 -124836.2,26672.91 -150879.7,28608.27 -389128.7,28905.3 -227729.2,281.39 -356146.5,-8869.09 -454378.6,-32388.32 -20864.8,-4995.25 -22198.8,-104.22 -29100.2,107533.75 -23206.6,361760.73 -107915.2,685698.093 -261140.9,998635.08 -271633.7,554766 -729273.4,991661.76 -1380426.8,1317859.66 -183726.6,92039.4 -442532,194439.3 -651295.2,257694.3 -157287.2,47658.6 -166223,49218.8 -177173.3,30936.6 -6342.8,-10588.7 -31298.2,-49125 -55457.3,-85637.3 l -43924.4,-66384.7 43924.4,-11336 c 102746.9,-26515.5 418265.4,-137434.3 533757.4,-187639 966967.9,-420344.6 1575225.7,-1084559.91 1740447.1,-1900561.65 29370.1,-145048.63 57504.2,-369333.32 56999.7,-454384.83 l -343.9,-57384.34 -116907.3,-37944.26 C 3430764,-2270119.8 5008808.5,-4201836.3 5758987.7,-4545471.9 Z M -1880712.5,-1693891 C -1682847.2,-809143.96 -1118464.4,2081.3976 -244059.73,658580.29 295033.73,1063329.5 957517.95,1405881.5 1591652.4,1607776.7 l 74401.3,23688.1 -53786.7,63459.3 c -29583.8,34902.1 -61517.7,74520.1 -70965.2,88040.5 l -17177.5,24581.2 -86812.8,-28489.4 C 925040.01,1610937.7 382532.42,1347736.4 -61675.476,1051812.2 -1109405,353830.79 -1814963.9,-579507.59 -2063128.9,-1595781.8 c -16955.5,-69435.3 -30828.2,-134389.1 -30828.2,-144341 0,-15533.9 12901.3,-18585.5 91192.1,-21567.2 50155.6,-1910.4 94333.6,-4438.7 98173.3,-5617.4 3839.5,-1178.8 14585.2,31858.8 23879.2,73416.4 z"
                                   id="path14705"
                                   sodipodi:nodetypes="csssccsssccccccsscssssscsssscccssscsscsssssss" />
                                <path
                                   style="fill:#e9ddaf;stroke-width:10422"
                                   d="m -3744514.4,-7026885.8 c -140063.5,65630 -276510.5,142581.7 -412990.3,212999.8 85616.8,72703.4 153083.9,137734.9 239705,215671 0,7601.8 304.3,16035.2 675.4,18742.8 254180.9,661354.5 920388.3,894859.9 1428618.9,1041728.9 24976.9,1252.7 55634.5,3107.8 68128.2,4121.8 l 22715.8,1844.7 -24628.5,44293.3 c 303086.8,936692.2 -107992.5,1630743 1039782.6,1843410 1863394.18,345261.2 4483284,-561397.6 6181090.8,-1073762.1 -178430.2,-1585199.2 592921.3,-1379220.3 -1064255.6,-1977637 -1148465.3,-385145.1 -3123119.83,175734.2 -3614641.83,25364.7 -53347.081,-118354.9 -187155.841,-287550.1 -316846.99,-400640.9 -1367579.38,-577570.9 -2612098.38,-999506.5 -3547353.48,43863 z"
                                   id="path14703"
                                   sodipodi:nodetypes="cccccsccsccccc" />
                                <path
                                   style="fill:#c8ab37;stroke-width:10422"
                                   d="m -5844027.5,-11340029 c -1574463,1040551 -2248546,2266987.9 -2229772.5,3906868.2 1987.9,1988.6 36271.7,-8256.2 76186.1,-22764.6 6734721.8,-621833.9 15162589.7,-1181443.9 21087220.9,96727.2 l 5968,-37292.9 c 27561,-172238.5 35235,-543525.9 15742,-761618.9 -64704,-723902.9 -341985,-1405842.8 -809870,-1991775 -3476625.9,-3342222 -14623673.6,-2981877 -18145474.5,-1190144 z m 7700545.6,4058945.5 c -287233.3,105052.2 -682325.6,332021.6 -933570.82,536308.7 l -103967.36,84536.6 -177173.28,6688.8 c -231827.47,8752.4 -466612.7,27583.8 -478191.92,38354.9 -5232.13,4867.1 2124.31,36970.9 17047.83,74396.1 23436.16,58773.6 60320.93,211070.7 75260.39,310750.5 l 5467.04,36476.8 c 299088.2,-17694.6 637984.9,28432.6 862205.02,48497.6 l 127441.7,21011.7 44520.6,-35799.4 c 986736.5,-646457.3 2139999.6,-628425.6 3144867.3,-105389 216226.4,203977.5 317565.3,483293.3 283056.2,780172.1 -399139.9,1079047.5 -1733070.7,987018.8 -2704317.7,693734.5 -748180.8,377760 -801040.5,651880.7 -1507391.04,880452.2 -1361668.85,343239 -2111894.96,125256.8 -2344711.86,-291507.4 -10761.1,-17513.1 -26563.3,-59980.5 -35115.8,-94372.9 -66150.1,-266013.2 15135.1,-630797.3 198001.1,-888569.8 31259.2,-44064.1 41857,-66553.6 32654.6,-69296.7 -262872.5,-77531.9 -478993.9,-178316 -721667.5,-277135.5 -126216.8,41007.5 -101904.2,243001 -146419.5,349152.3 l -6794.2,62548.4 c -309346.9,-28502.7 -637519.1,2425.3 -903947.6,17313 -1402550.4,-593478.7 -2718258.7,-876799.8 -3602032.9,-246852.4 -294043.3,293519.8 -432092.9,597062.4 -432444.7,950856.6 659221.3,1423844.8 1115057.1,2031658.9 3016894.6,1831786.2 596241,364399.7 1207238,589492.2 1823566.1,752033.8 l 12963.8,77426.8 c 484761.5,1996788.84 2110577.21,3126564.7 3805663.6,3866186.6 l 149696.8,55194.7 -6624.2,47805.5 c -14022.9,559661.8 -17539.8,1192018.4 -16587.6,1644267 -3240062.3,104202.3 -6401414.3,45434.9 -9270128.9,326062.6 -119124.2,954028.2 -29710.7,2051117.9 325208.4,2808946.4 250893.6,382951.8 587276,637437.3 1131019.7,855657.6 647533.4,259874.2 1120432.2,674469.1 1444684.4,1266568.8 l 43495.4,79424.7 -172361.4,43135.8 C -1864464.9,12908253 10094770,10898677 10022815,9224983 c 532991,-932861.2 1404116,-1271708.8 2213419,-1768057.4 821099,-1102338.9 818728,-2137193.4 717963,-3227533.7 C 9931357.7,4113266 6942333.9,3925900.1 4342871.9,3902149.8 c -9214.9,-546314.4 -7709.8,-962567 -9272.4,-1549702.3 l 50899.8,-13541.3 c 0,0 2567439.2,-1373795.06 8225,-507729.6 -68241.9,20553.1 -131514.7,39621.1 -140605.7,42373.6 -11838.3,3584.1 -32062.1,-20414.5 -71263.3,-84564.8 -30102.8,-49262.5 -53148.9,-90659.6 -51213.5,-91993.6 1936.4,-1333 64489,-20034.1 139006,-41557.5 5203836.5,-3181225.1 -1169857.5,-2483492.62 754540.3,-5741944.1 l 57821,-60705.8 -240468.9,-236976.5 -240469,-236976.6 97533.9,-49741.9 97532.9,-49743 49413.6,41873.4 c 27177.3,23030.4 126743.5,119575.3 221257.1,214544.3 94514.7,94970.1 175148.3,172672 179186.8,172672 4038.5,0 50352.6,-27815.1 102922,-61810.5 52568.4,-33995.4 134636.1,-79400.7 182372.8,-100900.2 l 86793.1,-39089.6 -64532.8,-73434.2 c -35494.1,-40388.2 -145521.8,-154306.4 -244507.5,-253151.4 l -179974.7,-179718.3 47086.4,-63961.7 c 525682.8,-792452.3 191561.8,-1306969.2 -327317.2,-1731611.3 -1010164.3,-632242.3 -1907661.4,-770366.2 -2991319.5,-485842.4 z M 1522462,1580018.9 c 71651,23595.3 131085.3,47586.6 132076.5,53311.4 2607.5,15058.7 -123112.5,171950.9 -137786.7,171950.9 -1640626.78,-292906.3 -3373751.7,-2020014.06 -3621130.9,-3564712.8 0,-5760.2 45402.7,-10005 106825.1,-9986.3 h 106825 C -725604.79,-491910.34 157426.22,1082026.5 1522462,1580018.9 Z M 6602837.9,-3398918 c -243650,-147087.4 -473199,-290124.2 -733913.2,-444501.7 38824.9,373420.2 98629.2,528362.3 196914.6,897893.3 -170372.2,178821.2 -309316.1,400398.2 -447548,590766.6 0,31455.5 220243,65037.2 596410,90939.9 l 101368.1,6979.6 c 135050.9,228669.7 336497.1,466095.1 480162.5,647628.7 89728.5,-369249.3 110166.3,-568748.9 160190.7,-928121.1 334297.2,-39989.6 595922.4,-69632.9 950968.2,-111033.5 -886284.8,-323342.7 -744094.2,-488648.4 -673788.9,-1044172.7 34342.4,-234030.3 61309.2,-426197.6 59926.2,-427037.7 -241762.5,253095.9 -432648.8,452920 -690690.2,720658.6 z"
                                   id="path14701"
                                   sodipodi:nodetypes="ccccsscccscsssscccccccccssccccccccccccccccsscccccccccssscccccccssssscsscccccscccccccccsccccccc" />
                                <path
                                   style="fill:#aa0000;stroke-width:10422"
                                   d="m 5034270.8,-4902774.1 c -48937.3,46695.5 -120152.6,105522.3 -158256.4,130725.7 l -69278.9,45824.3 219720.9,217259.3 219719.9,217258.2 70430.6,-46399.6 c 38736.3,-25519.2 120117.2,-71110.1 180845.9,-101312.9 60728.8,-30202.9 110416.5,-57923.2 110416.5,-61601.1 0,-9754.9 -447809.6,-467068.3 -467755.2,-477681 -12937.8,-6883.7 -37588.8,10799.2 -105843.3,75927.1 z m -473961.4,303966.8 c -17111.8,8045.7 -73321.6,31525.3 -124910.3,52177.5 -89107.7,35673.3 -116416.4,44443.4 -276181.9,88697.1 -1604588.5,173625.5 -2813789,592645.2 -4264925.86,708202.2 156928.296,237344 248985.06,501023.1 357211.96,773264.4 10944.1,40643.6 10291.68,42184 -49135.57,116032.9 -549776.3,629954.7 -1402243.93,987686.1 -2087229.23,1097274.7 -2550.4,2550.3 6219.9,50249.5 19489.5,105997.6 210530.3,884483.37 780096.1,1685039.768 1663889.93,2338688.25 485010.38,358711.25 1106035.64,684613.15 1674700.37,878853.45 93002.4,31766.1 175308.8,59987.7 182901.2,62714.1 -10348.5,62227.1 -94208.8,137554.7 -131178.1,191533.7 l -154926.5,-52532.9 C 492734.09,1464625.9 -309425.62,973729.86 -926651.66,356608.25 -1530811,-247448.4 -1932222.5,-950001.92 -2088929.7,-1677621.3 l -17258.3,-80133.4 -53810.8,-5508 c -140246.5,-7551.8 -277160.2,-29006 -415973.9,-43533.5 -35599.6,-7449.7 -36007.9,-656.6 -8111.3,134921.6 238247.7,1157902.36 1027545.6,2204567.02 2287914.49,3033936 464124.67,305411.3 1033420.44,594170.3 1511183.81,766507.8 68784.9,24811.6 128731,48196.4 133212.4,51967 608877.5,235834 2099731.8,139465.2 2985387.4,172104.1 l 155110,-44026.6 C 6123013.9,1827490.7 7268977.9,774706.28 7226343,-806038.21 7040624.9,-814123.84 6883119,-834335.65 6716323.7,-849099.66 6274708,575614.22 5632274.9,1366234.1 4382999.6,1836163.5 c -62895.5,18065.4 -121793.1,34993.8 -130884.2,37618.1 -66109.7,-44836.9 -74575.5,-105963.8 -124167.2,-176428.2 69366,-25396.8 150861.8,-46957.7 213650.2,-66501.4 C 5642295.1,1108789.9 6287908.8,358302.33 6498512.1,-822330.86 l 6270.8,-79444.49 -91505.8,-28365.45 C 5037020.2,-1388720.3 4356130.4,-2858982.7 4985375.2,-4049798.4 l 81335,-96948.2 -85026.5,-93030.6 c -46765.4,-51166.6 -144305.5,-148236.7 -216757.9,-215710.5 -186218.5,-173424.5 -167891.5,-160587.8 -204619.5,-143319.6 z M -5465460.3,9341680 c -164549.5,53864.6 -302306.8,121805.9 -352924.4,174060.7 l -40265.7,41568.1 1696.5,288141 c -122439,663102.2 853.2,1021826.2 -4073.2,1863296.2 l -7154,1221975 21559.5,34086 c 2053242.2,916105 11685061.8,1367043 16673297.6,37163 145374,-851867 50894,-1286140 84564,-2494355 57295,0 113894,-100426 101232,-179623 -169519,-227394 -128230,-510221.8 -139907,-792475.6 C 4110062.9,8359526.4 -366004.84,8743143.3 -5465460.3,9341680 Z"
                                   id="path14699"
                                   sodipodi:nodetypes="sscccssssssscccccsssccssscccsssccccccccccccccsssscscccccccccc" />
                                <path
                                   style="fill:#d3bc5f;stroke-width:10422"
                                   d="m 2729004.7,1091955.5 c -661018.4,33288.3 -1030808.8,547632.7 -1340240.3,988207.8 -82185.1,627211.4 -51485,1209893.3 -48686.6,1786763.4 999483.4,10652.2 1999066,15077.6 2998411.7,35768.1 -5925.8,-562081.2 -49.7,-1124431.1 -17356.1,-1686281.6 -17093.2,-333344.1 -237947.1,-625322.7 -517981.4,-792640.6 -319730.5,-202800 -695752.8,-320304.8 -1074147.3,-331817.1 z"
                                   id="path14697"
                                   sodipodi:nodetypes="cccscsc" />
                                </g>
                                </g>
                                </g>
                                </g>
                                </g>
                                </g>
                                </g>
                                </g>
                                </g>
                                </g>
                                </g>
                                </g>
                                </g>
                                </g>
                                </g>
                                </g>
                                </g>
                                </g>
                                </g>
                                </g>
                                </g>
                                </g>
                                </g>
                                </g>
                                </g>
                                </g>
                                </g>
                                </g>
                                </g>
                                </g>
                                </g>
                                </g>
                                </g>
                                </g>
                                </g>
                                </g>
                                </g>
                                </g>
                                </g>
                                </g>
                                </g>
                                </g>
                                </g>
                                </g>
                                </g>
                                </g>
                                </g>
                                </g>
                                </g>
                                </g>
                                </g>
                                </g>
                                </g>
                                </g>
                                </g>
                                </g>
                                </g>
                                </g>
                                </g>
                                </g>
                              </g>
                            </g>
                          </g>
                        </g>
                      </g>
                    </g>
                  </g>
                </g>
              </g>
            </g>
          </g>
        </g>
      </g>
    </g>
  </g>
</svg>
