<?xml version="1.0" encoding="UTF-8" standalone="no"?>
<!-- Created with Inkscape (http://www.inkscape.org/) -->

<svg
   width="64"
   height="64"
   viewBox="0 0 16.933333 16.933334"
   version="1.1"
   id="svg5"
   inkscape:version="1.2 (dc2aedaf03, 2022-05-15)"
   sodipodi:docname="double_concentre_de_tomates.svg"
   xmlns:inkscape="http://www.inkscape.org/namespaces/inkscape"
   xmlns:sodipodi="http://sodipodi.sourceforge.net/DTD/sodipodi-0.dtd"
   xmlns="http://www.w3.org/2000/svg"
   xmlns:svg="http://www.w3.org/2000/svg">
  <sodipodi:namedview
     id="namedview7"
     pagecolor="#ffffff"
     bordercolor="#666666"
     borderopacity="1.0"
     inkscape:pageshadow="2"
     inkscape:pageopacity="0.0"
     inkscape:pagecheckerboard="0"
     inkscape:document-units="mm"
     showgrid="false"
     units="px"
     inkscape:zoom="8"
     inkscape:cx="-6.875"
     inkscape:cy="19.5"
     inkscape:window-width="1920"
     inkscape:window-height="1017"
     inkscape:window-x="3832"
     inkscape:window-y="-8"
     inkscape:window-maximized="1"
     inkscape:current-layer="g8328"
     inkscape:showpageshadow="2"
     inkscape:deskcolor="#d1d1d1" />
  <defs
     id="defs2" />
  <g
     inkscape:label="Calque 1"
     inkscape:groupmode="layer"
     id="layer1">
    <g
       id="g4128"
       transform="translate(-0.63104184,0.12620835)">
      <g
         id="g5578"
         transform="translate(0.08924235,0.08924306)">
        <g
           id="g7501"
           transform="translate(-0.06310417,0.94656242)">
          <g
             id="g9467"
             transform="translate(-0.08924275,-0.80318511)">
            <g
               id="g10302"
               transform="translate(0.31234979,-0.04462139)">
              <g
                 id="g11479"
                 transform="translate(-0.12620833,0.06310418)">
                <g
                   id="g11873"
                   transform="translate(-0.23575769,0.66462456)">
                  <g
                     id="g12382"
                     transform="translate(-121.98459,-82.267525)">
                    <g
                       id="g13305"
                       transform="matrix(0.13266609,0,0,0.13266609,114.63867,78.215696)">
                      <g
                         id="g17429"
                         transform="translate(0.90513437,5.6640979)">
                        <g
                           id="g18595"
                           transform="translate(-3.3634362,-8.7449387)">
                          <g
                             id="g21002"
                             transform="translate(1.7082278,-2.8204445)">
                            <g
                               id="g23814"
                               transform="translate(8.7253043,-1.1218249)">
                              <g
                                 id="g24838"
                                 transform="translate(11.143454,-0.85716864)">
                                <g
                                   id="g25315"
                                   transform="translate(-3.490122,2.4929446)">
                                <g
                                   id="g27220"
                                   transform="translate(2.4678888,1.2339445)">
                                <g
                                   id="g29753"
                                   transform="translate(1.4759287,-2.3737724)">
                                <g
                                   id="g30615"
                                   transform="translate(0.92006037,1.3687834)">
                                <g
                                   id="g31433"
                                   transform="translate(-2.4678886,-1.410222)">
                                <g
                                   id="g31731"
                                   transform="translate(1.0576664,-0.70511063)">
                                <g
                                   id="g33243"
                                   transform="matrix(1.0772948,0,0,1.0772948,-7.3729128,-3.1743014)">
                                <g
                                   id="g35254"
                                   transform="translate(-2.2135012,-0.92031205)">
                                <g
                                   id="g36749"
                                   transform="translate(-0.98178042,-2.7817105)">
                                <g
                                   id="g37297"
                                   transform="translate(-6.7755742,-3.5033798)">
                                <g
                                   id="g38955"
                                   transform="matrix(1.2171094,0,0,1.2171094,-23.105122,-18.212482)">
                                <g
                                   id="g39618"
                                   transform="translate(-0.26888273,-0.26888316)">
                                <g
                                   id="g40032"
                                   transform="translate(-1.90129,-3.042064)">
                                <g
                                   id="g40543"
                                   transform="translate(0.3802582,-2.0914191)">
                                <g
                                   id="g41372"
                                   transform="translate(1.9657652,-7.9304203)">
                                <g
                                   id="g43278"
                                   transform="translate(1.5210324,-0.38025789)">
                                <g
                                   id="g44210"
                                   transform="matrix(1.1578947,0,0,1.1578947,-18.904476,-21.776183)">
                                <g
                                   id="g44833"
                                   transform="matrix(1.1196819,0,0,1.1196819,-12.538538,-14.547543)">
                                <g
                                   id="g47597"
                                   transform="translate(3.1109352,-1.2443743)">
                                <g
                                   id="g48754"
                                   transform="translate(-2.9035392,-6.6366609)">
                                <g
                                   id="g234"
                                   transform="matrix(0.04089637,0,0,0.04089637,104.63967,119.67231)">
                                <g
                                   id="g2138"
                                   transform="translate(-86.211222,-40.569988)">
                                <g
                                   id="g2696"
                                   transform="translate(-124306.44,-9412.2373)">
                                <g
                                   id="g3765"
                                   transform="translate(25.356243,-50.712489)">
                                <g
                                   id="g4557"
                                   transform="translate(46.61688,-35.859142)">
                                <g
                                   id="g5244"
                                   transform="translate(7.1718407,14.343658)">
                                <g
                                   id="g5807"
                                   transform="translate(-5.1984397,-21.113724)">
                                <g
                                   id="g6945"
                                   transform="translate(-10.142522,-243.41993)">
                                <g
                                   id="g11108"
                                   transform="translate(18.189368,-37.636113)">
                                <g
                                   id="g15049"
                                   transform="translate(-65.926228,141.99496)">
                                <g
                                   id="g19861"
                                   transform="matrix(0.07356842,0,0,0.07356842,115423.38,9039.2311)">
                                <g
                                   id="g20437"
                                   transform="translate(-478.38824,-785.88156)">
                                <g
                                   id="g21032"
                                   transform="translate(2047.1878,-1072.3367)">
                                <g
                                   id="g21869"
                                   transform="matrix(0.04321578,0,0,0.04321578,117368,10137.003)">
                                <g
                                   id="g25455"
                                   transform="translate(154741.46,-87178.414)">
                                <g
                                   id="g26278"
                                   transform="translate(-18012.371,-8233.4417)">
                                <g
                                   id="g27240"
                                   transform="translate(-0.00447131,5582.7624)">
                                <g
                                   id="g28306"
                                   transform="translate(-15790.441,-2255.7767)">
                                <g
                                   id="g33735"
                                   transform="translate(14662.549,-16918.328)">
                                <g
                                   id="g37868"
                                   transform="translate(-5075.4976,25941.433)">
                                <g
                                   id="g76752"
                                   transform="matrix(-1,0,0,1,9442.3174,-1595.0746)">
                                <g
                                   id="g82459"
                                   transform="translate(3383.6668,-1127.8885)">
                                <g
                                   id="g83208"
                                   transform="matrix(0.20332428,0,0,0.20332428,-15348.528,66747.475)">
                                <g
                                   id="g83934"
                                   transform="matrix(-1,0,0,1,240692.18,94139.78)">
                                <g
                                   id="g84550"
                                   transform="translate(-8.7627443e-5,55472.344)">
                                <g
                                   id="g1274"
                                   transform="translate(-66682.337,-43147.393)">
                                <g
                                   id="g2352"
                                   transform="translate(-74780.623,-22188.943)">
                                <g
                                   id="g4123"
                                   transform="translate(-47069.882,-15689.961)">
                                <g
                                   id="g5928">
                                <g
                                   id="g12050"
                                   transform="translate(78161.555,35375.784)">
                                <g
                                   id="g1093"
                                   transform="matrix(0.06385153,0,0,0.06385153,-151090.08,201736.02)">
                                <g
                                   id="g1970"
                                   transform="translate(-477269.04,568882.2)">
                                <g
                                   id="g1097"
                                   transform="rotate(180,7281171.5,-2851818.8)">
                                <g
                                   id="g1814"
                                   transform="translate(2547662.7,480719.64)">
                                <g
                                   id="g3865"
                                   transform="translate(552882.75,-3993042.7)">
                                <g
                                   id="g4873"
                                   transform="matrix(-1,0,0,1,8458829.5,2171928.6)">
                                <g
                                   id="g7483"
                                   transform="matrix(1.1002204,0,0,1.1002204,477121.62,-2453467.8)">
                                <g
                                   id="g8018"
                                   transform="translate(0.2655037,670026.67)">
                                <g
                                   id="g13730"
                                   transform="translate(446684.45,111671.19)">
                                <g
                                   id="g14695"
                                   transform="translate(-394816.71,-1342377.9)">
                                <g
                                   id="g16168"
                                   transform="translate(-344955.87,1017335.2)">
                                <g
                                   id="g16839"
                                   transform="matrix(0.60827628,0,0,0.60827628,1436551,1438799.3)">
                                <g
                                   id="g1538"
                                   transform="translate(-780037.37,-179302.73)">
                                <g
                                   id="g2335"
                                   transform="translate(-2294827.3,-2661999.6)">
                                <g
                                   id="g2976"
                                   transform="matrix(0.01824278,0,0,0.01824278,4237702.3,-736203.59)">
                                <g
                                   id="g5263"
                                   transform="translate(167225240,-437632020)">
                                <g
                                   id="g1460"
                                   transform="translate(70444475,-5031751)">
                                <g
                                   id="g1976"
                                   transform="matrix(0.82103298,0,0,0.82103298,22231863,-28054828)">
                                <g
                                   id="g8328"
                                   transform="translate(49028462,-3.331111)">
                                <path
                                   style="fill:#ced4ca;stroke-width:2.39885e+06"
                                   d="m -539316080,-1231242900 c -54296830,1810900 -166584420,10575300 -225491860,17600600 -204740480,24417200 -392971760,75494900 -501910660,136196800 -14066300,7838000 -27111100,14840300 -28988500,15560700 -1877300,720300 -12461100,7539100 -23519300,15152500 -82016400,56467740 -121485900,110382360 -128960300,176158090 -4570600,40221270 -8376500,96355060 -8369300,123441670 12000,42418370 11899600,76409830 42518600,121569130 19552500,28837530 22394000,34484180 26703200,53065180 3830900,16518720 4322000,7343120 -14276000,266753970 -3310600,46177850 -9254000,129837720 -13207600,185910830 -21832800,309654190 -26824600,379799790 -30129800,423396910 -2000500,26387340 -11196800,154845720 -20436200,285463070 -15774800,223006180 -19253200,272036280 -31058800,437790050 -2584100,36282600 -5800900,81620800 -7148200,100751600 -1347400,19130900 -4094500,57452500 -6104600,85159200 -6694400,92271800 -20391500,284999200 -22759800,320246400 -3393400,50502700 -4851800,61913000 -9964400,77962600 -5554600,17437000 -12395100,28123300 -28993700,45294100 -26360300,27269200 -35674200,39988400 -48343200,66018100 -14344800,29473000 -17261700,44934200 -22899500,121376200 -5899800,79995600 -3991400,98449500 14426500,139499500 6904900,15389700 29660500,51201900 39020400,61409400 2856700,3115400 8434900,9381300 12396000,13924200 21192200,24304800 71622200,66265600 107343100,89316000 7586300,4895400 19460600,12552500 26387300,17015700 29120600,18764200 90200100,50611100 134935300,70355500 302404900,133469800 727601210,207747000 1152647260,201355100 54753740,-823500 123586261,-3128700 152961182,-5122800 339433598,-23042700 604631578,-98793600 739410878,-211204700 23635620,-19713000 36998410,-34146000 53237670,-57501000 16618030,-23900000 21685600,-33925600 27888540,-55173500 5760120,-19731900 6647220,-27050100 11304820,-93265300 4416760,-62792100 4382700,-80269300 -194300,-99842100 -7587330,-32448200 -16128670,-50324200 -42939890,-89869000 -22225820,-32781300 -26449480,-47818600 -24552950,-87415300 1264910,-26407700 8437000,-129789000 15992170,-230520100 3954510,-52722700 10647060,-146508300 38430290,-538541650 14493130,-204501910 27443800,-385854920 28779240,-403006690 1335680,-17151780 5120590,-70046400 8410850,-117543620 3290500,-47497220 7597390,-107948220 9570930,-134335570 1973770,-26387340 7903490,-109507470 13177120,-184711400 5273870,-75203923 11807140,-166959911 14518560,-203902191 2711420,-36942279 9059250,-124920079 14106190,-195506219 l 9176080,-128338440 7162010,-15592520 c 4976170,-10834170 13809930,-22794830 28946920,-39192880 33255490,-36026160 50734930,-64617570 58983630,-96481250 3860900,-14913880 9967700,-80944130 12665900,-136950550 2841700,-58986020 -12158100,-104181060 -52344790,-157718100 -64921510,-86488600 -182626100,-162553220 -359088890,-232055320 -29220530,-11508700 -106863250,-37012100 -151496900,-49762000 -251450750,-71828700 -546341165,-107018200 -882776660,-105342800 -52115010,259500 -103930160,777900 -115144780,1151900 z"
                                   id="path8346" />
                                <path
                                   style="fill:#b2b8ae;stroke-width:2.39885e+06"
                                   d="m -524922980,-1230366100 c -259538710,15136000 -533708620,37824800 -763438820,169855700 -89700200,23337400 83767900,-10559200 -59190900,135416340 372508260,-248692640 845804420,-258005140 1276696258,-215060240 326842272,43279700 678377372,89571500 945197192,299971600 102508240,80666160 114906240,209218260 135547950,71977440 -88610620,-196687820 -312829790,-277651940 -503142350,-343147240 -332829060,-102239400 -685224490,-126945500 -1031669330,-119013600 z m -68367220,316706400 c -278545690,17478530 -590389900,62673650 -793808000,272344110 -7439000,145116440 -16069200,382698340 -12870800,324138990 -46393400,639726760 -87324500,1279967840 -138603900,1919266100 97981400,1525400 554106640,-124502900 417806700,-110899100 419993730,-79651700 857223590,-57697300 1273518240,33782200 209214370,56168600 424242710,125826300 597329740,259587100 34400890,37867700 44856990,-278643500 22391310,-222361200 C 818123600,913149230 866424610,264250250 910587730,-384876300 825057750,-637176510 552140670,-748578430 316647770,-819077390 20564719,-896301610 -287878050,-923981800 -593290200,-913659700 Z m 1032704770,207050920 c -1093330,6441670 -14185130,-2150580 0,0 z m 350538130,207157440 c 8086130,10393900 -18731450,-13622530 0,0 z M -750414850,1673823500 c -1669216750,190072700 -194825190,661873800 550945380,678313200 280787692,-1968700 579186420,-8290800 832271040,-143908400 C 848202660,2003982700 428368720,1821011800 499184270,1876213000 107943870,1709106400 -328958880,1670163000 -750414850,1673823500 Z m 772715188,126572000 c 160371012,24827700 341845302,59088700 453400072,187231600 108990410,149419900 -348448010,255355100 -221770940,253409200 -162258198,17423900 -644006890,-139449700 -505076850,-20216500 -96713090,-141889200 -35878090,-418623900 164619206,-421706500 36215933,-2915400 72676981,-2134600 108828512,1282200 z m -115430389,95652700 c -160305839,29408000 -16219109,192943500 55868000,289916400 136790105,-153705400 71546751,-290721100 -55868000,-289916400 z m 319056591,51326800 c -108033330,43950800 -252720618,87716400 63430340,190967100 238614460,-29225300 -45190680,-211016300 30939950,-154756000 -30596110,-13650600 -60561270,-31881400 -94370290,-36211100 z"
                                   id="path8344"
                                   sodipodi:nodetypes="ccccccccccccccccccccccccccccccccccccccccc" />
                                <path
                                   style="fill:#c2c300;stroke-width:2.39885e+06"
                                   d="m -454156920,-845240920 c -306091150,12939870 -635911980,56568560 -882339080,254482560 -96106500,84222120 -97464100,465237980 -68033000,351931590 -38638100,590552910 -80495000,1181163750 -117256200,1771677370 202739000,-82786900 427307600,-129613400 648456360,-145153800 503468520,-32256300 1026297120,15282100 1489986620,226235600 155332590,63322700 129296300,138710300 146589250,-12591400 C 811527820,942203380 864479430,283347560 909755500,-375972950 771447650,-542691420 569038310,-650296580 368231520,-727487120 105666450,-825355140 -175877360,-851151950 -454156920,-845240920 Z"
                                   id="path8342" />
                                <path
                                   style="fill:#d34727;stroke-width:2.39885e+06"
                                   d="m -454156920,-845240920 c -190957950,5177440 -377547910,31737980 -522949220,74440130 -29699660,8722220 -37570460,11292350 -80361460,26241020 -119310300,41680000 -231427800,106180980 -299433200,172263530 -28921400,28103720 -26115500,18297460 -32812200,114676990 -6265400,90172990 -31737700,468390689 -39632100,588465570 -2602300,39581020 -5814400,87078240 -7138000,105549380 -1323600,18471140 -3117400,46384460 -3986100,62029630 -1525600,27474580 -1423100,28364980 3001100,26080490 25408100,-13119860 77630900,-30201690 114927600,-37592300 47050900,-9323460 50975500,-9639660 118743100,-9566300 51907400,56130 75297600,1076120 97153400,4236390 34507400,4989630 105323500,18416980 108948970,20657650 1808160,1117500 1887610,6948070 265070,19450420 -4212240,32457270 -2985340,105778270 2293160,137047100 11457940,67874100 30514540,116515260 67337650,171876620 34109290,51281260 74621860,92130740 130606740,131692870 296289700,37013920 436292100,78760610 1209928890,-48958160 l 10328370,-12410860 27965380,-6455800 c 38049450,-8783680 92998790,-25990000 149107260,-46689980 58708610,-21659260 75237970,-27106070 100751680,-33200010 46574870,-11124370 76957500,-8975510 112128710,7930530 21664490,10413710 22195600,10536610 23220870,5371980 576920,-2907050 4422990,-52243010 8546380,-109635480 4123380,-57392470 9003600,-123780620 10844720,-147529230 1841110,-23748610 5009990,-65848420 7042060,-93555130 3957860,-53965570 10105630,-136593330 18205110,-244682630 31978820,-426761540 30885910,-409860920 26907180,-416102010 -6504960,-10204230 -60501390,-62654350 -91750240,-89123490 -46767500,-39613640 -115615200,-89435820 -161922350,-117175870 -103774770,-62165950 -196032150,-105823800 -306362460,-144976620 -90462730,-32102130 -232464990,-68444930 -314939596,-80602540 -109079650,-16079490 -162309454,-21697830 -249480364,-26332410 -47929680,-2548300 -192745570,-4634580 -237486110,-3421480 z"
                                   id="path8338"
                                   sodipodi:nodetypes="sssssssssssssssscccssssssssssssssss" />
                                <path
                                   style="fill:#c33928;stroke-width:2.39885e+06"
                                   d="m -502133910,-842802250 c -292796000,16595040 -606717790,65341590 -839624590,257958500 -82699300,68300850 -81170000,383497000 -58374700,289307250 -13189900,206254522 -28956400,412365000 -40319300,618722040 139447100,-64142200 299012200,-56160230 445297560,-22241970 786733940,654925990 1832111400,330845040 1830379690,329753510 26060950,-336072460 49961010,-672315895 75821400,-1008406820 -248484790,-270033950 -613702510,-405982450 -971352077,-450000980 -146427203,-18659660 -294544883,-15336030 -441827983,-15091530 z m 323844700,60775090 c 57560530,905070 -39836060,35954120 123417114,30886680 -320570484,24989220 -648499654,36207820 -955817904,139642960 -101788600,42859160 -223275000,85625180 -273548100,192013590 -38143500,206375750 -73434000,413267428.1 -110061200,619896890 13625000,-239717578 32511300,-479362090 50394000,-718819050 216086800,-192132650 516484630,-246231550 796555750,-262430650 122893370,-5365050 246161740,-7279100 369060340,-1190420 z m 453382580,81552720 c 195106970,70197630 400368030,146305210 546679550,298782520 48130100,94480790 17135960,417006931 11391700,313816160 C 821365360,105918340 812619730,299932110 798354190,493560670 784369600,225284610 790130280,-45139382 767855130,-312320080 701373270,-444816330 562171890,-519497550 441813410,-597049970 383695530,-635129930 209896870,-743789090 255302860,-706999790 Z M 56981131,319332630 C 179095270,335836470 319645970,425256070 323729310,560061150 298625130,684117010 -33295810,559261940 48801893,611215740 -105830760,495683230 -155978730,332143610 56981131,319332630 Z"
                                   id="path8336"
                                   sodipodi:nodetypes="ccccccccccccccccccccccccccccc" />
                                <path
                                   style="fill:#a93121;stroke-width:2.39885e+06"
                                   d="m -298231690,-377654090 c -341522600,39083970 -631176690,329171774 -694320810,663070550 -35405800,176598960 35386580,369105280 186633450,470171540 30997510,53627880 79122610,195371560 132889570,121986900 -100990930,183299500 949286340,120567330 941439470,-48516400 C 368622880,799474590 481336260,596808120 444212260,670457410 555385550,492608090 522749720,259933030 433731370,79639690 304376480,-194418170 16452789,-413612800 -298231690,-377654090 Z m 309434614,92272460 c -6070602.4,4387640 -9550649.6,-7727520 0,0 z M -16945105,57145995 c 100012619,16612029 195184535,60274955 273265705,123070925 48757870,93354340 76018840,261454990 64215400,226097770 100155110,-125850070 93855600,198674380 87379350,143690420 C 389893240,667527830 259445850,737050670 147844540,704634990 42313694,689873060 -252993030,633133520 -132122980,587659600 -444080030,597475980 -456371540,330373140 -285038020,131630460 -220906590,60004361 -112255900,41406005 -16945105,57145995 Z m 112674494,-414041 c -9498871,5041234 -2241556,-5405600 0,0 z m -524616749,419548676 c -163583710,134284230 -231002430,-33077120 -255637110,-83829310 280532040,-676015510 278292770,182909370 255637110,83829310 z m 87915630,-279016160 c -4617830,-1040390 3436380,-10515040 0,0 z m 753238780,64768930 c -4617820,-1040380 3436370,-10515010 0,0 z M -60117898,589475330 c -21496299,4012550 -3877860,-3982010 0,0 z m -133763832,126483960 c 220753465,105114120 -416670580,284052710 -163372070,58978080 -50043510,102271910 -473206990,264712030 -230405930,31058570 89790380,-98171770 238600720,-89732460 360907460,-91551610 l 15021670,451720 z M -9662150.1,751043850 C 392014190,964232800 68240300,1152751600 26871735,821073410 31387114,803527780 -43100460,741893260 -9662150.1,751043850 Z M -1015533500,295241390 c 36566530,14652900 8404400,-3528250 0,0 z M 579747270,651310010 c -18362920,13106580 34440880,-13637390 0,0 z m -25187920,8482600 c -15696180,7448260 27103550,-6690740 0,0 z m -23988500,9595390 c -4179330,8160830 21054470,-8490930 0,0 z m -25909370,7164020 c -34436980,11004830 35471910,-6627100 0,0 z m -22067620,7229080 c -4179360,8160850 21054500,-8490950 0,0 z m -20390220,4797700 c -14448870,8073540 34776440,-7962800 0,0 z m -11244610,4037530 c 10515100,3436220 1040120,-4617520 0,0 z"
                                   id="path8332"
                                   sodipodi:nodetypes="cccccccccccccccccccccccccccccccccccccccccccccccccccccc" />
                                <path
                                   style="fill:#567117;stroke-width:2.39885e+06"
                                   d="m -346208690,684050490 c -76620540,9907820 -157454630,13787860 -225416550,54107530 -51571000,30428800 -81116330,85510950 -101402810,139421470 -7111050,19514070 -65164720,81382110 -50249360,65396330 -19672520,23732540 -101314750,37871400 -71516150,34005310 55204370,33517270 122523340,29305870 184241250,23030870 50948150,-8500950 75467290,13411500 118631940,-15290250 9589300,27403050 50844480,68749850 49804810,40746250 -28511170,30868500 -114588000,105905300 -77112500,87111400 -86292600,45707500 -192901350,72704100 -286970510,34146600 -7276800,28968500 68236200,132424500 44736980,105972300 177041490,87190900 304344620,-40249500 401286830,-158010300 80019620,59484700 157729380,92338300 245856250,113619400 -275950420,-188930400 163255907,-241676850 254880770,-198599200 48729340,20017100 114816280,-4642900 102131880,2833400 C 207010670,967714480 188750650,912902410 173342230,858731080 127113340,767768440 27925940,715908030 -68466656,695397870 -159749110,677754550 -253774770,682690630 -346208690,684050490 Z m -340311890,287415080 c -1248055220,1238810230 -624027620,619405130 0,0 z"
                                   id="path8330"
                                   sodipodi:nodetypes="cccccccccccccccccccc" />
                                </g>
                                </g>
                                </g>
                                </g>
                                </g>
                                </g>
                                </g>
                                </g>
                                </g>
                                </g>
                                </g>
                                </g>
                                </g>
                                </g>
                                </g>
                                </g>
                                </g>
                                </g>
                                </g>
                                </g>
                                </g>
                                </g>
                                </g>
                                </g>
                                </g>
                                </g>
                                </g>
                                </g>
                                </g>
                                </g>
                                </g>
                                </g>
                                </g>
                                </g>
                                </g>
                                </g>
                                </g>
                                </g>
                                </g>
                                </g>
                                </g>
                                </g>
                                </g>
                                </g>
                                </g>
                                </g>
                                </g>
                                </g>
                                </g>
                                </g>
                                </g>
                                </g>
                                </g>
                                </g>
                                </g>
                                </g>
                                </g>
                                </g>
                                </g>
                                </g>
                                </g>
                                </g>
                                </g>
                                </g>
                                </g>
                                </g>
                                </g>
                                </g>
                                </g>
                              </g>
                            </g>
                          </g>
                        </g>
                      </g>
                    </g>
                  </g>
                </g>
              </g>
            </g>
          </g>
        </g>
      </g>
    </g>
  </g>
</svg>
