<?xml version="1.0" encoding="UTF-8" standalone="no"?>
<svg
   width="64"
   height="64"
   version="1.1"
   viewBox="0 0 16.933 16.933"
   id="svg146"
   sodipodi:docname="fenouil.svg"
   inkscape:version="1.1.1 (3bf5ae0d25, 2021-09-20)"
   xmlns:inkscape="http://www.inkscape.org/namespaces/inkscape"
   xmlns:sodipodi="http://sodipodi.sourceforge.net/DTD/sodipodi-0.dtd"
   xmlns="http://www.w3.org/2000/svg"
   xmlns:svg="http://www.w3.org/2000/svg">
  <defs
     id="defs150">
    <pattern
       id="EMFhbasepattern"
       patternUnits="userSpaceOnUse"
       width="6"
       height="6"
       x="0"
       y="0" />
    <pattern
       id="EMFhbasepattern-1"
       patternUnits="userSpaceOnUse"
       width="6"
       height="6"
       x="0"
       y="0" />
    <pattern
       id="EMFhbasepattern-4"
       patternUnits="userSpaceOnUse"
       width="6"
       height="6"
       x="0"
       y="0" />
    <pattern
       id="EMFhbasepattern-0"
       patternUnits="userSpaceOnUse"
       width="6"
       height="6"
       x="0"
       y="0" />
    <pattern
       id="EMFhbasepattern-7"
       patternUnits="userSpaceOnUse"
       width="6"
       height="6"
       x="0"
       y="0" />
  </defs>
  <sodipodi:namedview
     id="namedview148"
     pagecolor="#ffffff"
     bordercolor="#666666"
     borderopacity="1.0"
     inkscape:pageshadow="2"
     inkscape:pageopacity="0.0"
     inkscape:pagecheckerboard="0"
     showgrid="false"
     inkscape:zoom="10.24"
     inkscape:cx="37.744141"
     inkscape:cy="34.619141"
     inkscape:window-width="1920"
     inkscape:window-height="1017"
     inkscape:window-x="1912"
     inkscape:window-y="-8"
     inkscape:window-maximized="1"
     inkscape:current-layer="g1493" />
  <g
     transform="translate(-.63104 .12621)"
     id="g144">
    <g
       transform="translate(.089242 .089243)"
       id="g142">
      <g
         transform="translate(-.063104 .94656)"
         id="g140">
        <g
           transform="translate(-.089243 -.80319)"
           id="g138">
          <g
             transform="translate(.31235 -.044621)"
             id="g136">
            <g
               transform="translate(-.12621 .063104)"
               id="g134">
              <g
                 transform="translate(-.23576 .66462)"
                 id="g132">
                <g
                   transform="translate(-121.98 -82.268)"
                   id="g130">
                  <g
                     transform="matrix(.13267 0 0 .13267 114.64 78.216)"
                     id="g128">
                    <g
                       transform="translate(.90513 5.6641)"
                       id="g126">
                      <g
                         transform="translate(-3.3634 -8.7449)"
                         id="g124">
                        <g
                           id="g2243"
                           transform="matrix(1.1930023,0,0,1.1930023,-33.651497,-20.118288)">
                          <g
                             id="g2622"
                             transform="translate(-3.5913905,-3.2649007)">
                            <g
                               id="g3762"
                               transform="translate(-4.1555401,0.11543139)">
                              <g
                                 id="g932"
                                 transform="translate(3.9178806,-0.97947018)">
                                <g
                                   id="g1493"
                                   transform="translate(-5.6814412,-2.5586263)">
                                <path
                                   style="fill:#eeecd3;stroke-width:0.161635"
                                   d="m 140.06488,139.96748 c -7.83277,-0.94869 -12.51889,-3.87511 -14.08545,-8.79618 -0.70013,-2.19933 -0.73237,-5.26743 -0.0826,-7.86346 1.21902,-4.87056 5.08629,-9.32961 10.14911,-11.70212 l 1.39636,-0.65436 9.7e-4,-2.21471 c 10e-4,-3.54299 0.38333,-4.97784 1.72924,-6.49803 l 0.64396,-0.72736 -3.52961,-16.89087 c -1.94127,-9.289977 -3.53012,-17.043251 -3.53078,-17.229496 -0.002,-0.49761 0.48989,-0.858513 1.3256,-0.973059 1.21099,-0.165985 1.18988,-0.07492 0.63638,-2.746299 -0.44849,-2.164508 -0.47388,-2.436135 -0.25841,-2.764977 0.13142,-0.200567 0.40167,-0.402677 0.60057,-0.449134 1.78355,-0.416584 5.54066,-1.08483 6.2196,-1.106227 l 0.84727,-0.0267 10e-4,-0.606132 c 8.6e-4,-0.389273 0.11699,-0.721789 0.3246,-0.929402 0.30059,-0.300584 0.53879,-0.32327 3.39434,-0.32327 2.85555,0 3.09375,0.02269 3.39434,0.32327 0.20012,0.20012 0.32327,0.538784 0.32327,0.888993 0,0.512186 0.0429,0.565723 0.45373,0.565723 0.24955,0 1.24966,0.149268 2.22248,0.331707 0.97281,0.182438 2.38701,0.442482 3.14265,0.577875 1.47354,0.264022 1.93962,0.536357 1.93962,1.133335 0,0.334624 -0.70429,3.929743 -0.90221,4.605453 -0.0612,0.208807 0.0837,0.286101 0.69533,0.370865 1.1288,0.156449 1.65281,0.405489 1.7611,0.836979 0.0551,0.219523 -1.40486,7.567543 -3.45614,17.394845 l -3.55155,17.014771 0.6481,0.72823 c 1.34834,1.51506 1.73187,2.95196 1.73337,6.49407 l 9.7e-4,2.20987 1.25267,0.59183 c 4.7158,2.22799 8.51677,6.28968 9.97449,10.65869 0.75264,2.25577 1.0027,5.54247 0.57861,7.6052 -1.22952,5.98032 -6.26407,9.34716 -15.33846,10.25753 -2.30053,0.2308 -8.4434,0.18038 -10.65475,-0.0874 z m -9.01875,-10.18162 c 0.57356,-0.57356 0.15463,-1.68563 -0.63499,-1.68563 -0.5142,0 -0.88899,0.40886 -0.88899,0.96981 0,0.56095 0.37479,0.96981 0.88899,0.96981 0.20955,0 0.4953,-0.1143 0.63499,-0.25399 z m -0.008,-2.70202 c 0.20142,-0.14728 0.33097,-0.58485 0.44269,-1.49513 0.31841,-2.59459 1.04584,-4.23029 2.75574,-6.19654 0.96106,-1.10514 2.33269,-2.08572 4.1341,-2.95543 1.8197,-0.87856 2.09597,-1.22513 1.59097,-1.99585 -0.35486,-0.54158 -0.80386,-0.51398 -2.22762,0.13694 -4.06403,1.85803 -7.04877,5.29421 -7.96119,9.16531 -0.33496,1.42114 -0.32748,2.87295 0.0168,3.25333 0.31251,0.34532 0.84484,0.38257 1.24855,0.0874 z m 11.64804,-18.09252 c 0.3152,-0.45001 0.34572,-2.91944 0.0435,-3.52 -0.25052,-0.49783 -1.07592,-0.6325 -1.46879,-0.23964 -0.37589,0.3759 -0.38293,3.49068 -0.009,3.86488 0.37701,0.37701 1.1352,0.32137 1.434,-0.10524 z"
                                   id="path1503" />
                                <path
                                   style="fill:#83c306;stroke-width:0.161635"
                                   d="m 141.70599,140.06262 c -9.09853,-0.76641 -14.28462,-3.88774 -15.8472,-9.53786 -0.4441,-1.60582 -0.40127,-5.28767 0.0824,-7.08616 1.34887,-5.01533 4.8356,-9.12773 9.83156,-11.59579 l 1.80567,-0.89202 0.0594,-2.94178 c 0.0694,-3.43699 0.2833,-4.21958 1.53353,-5.61014 l 0.74191,-0.82518 -3.52101,-16.841269 c -1.93656,-9.262695 -3.52296,-17.043712 -3.52534,-17.291148 -0.006,-0.623645 0.16331,-0.742166 1.35361,-0.947581 0.57181,-0.09868 1.06002,-0.196547 1.08492,-0.217484 0.0249,-0.02094 -0.17512,-1.077796 -0.44449,-2.348576 -0.26938,-1.27078 -0.48977,-2.430585 -0.48977,-2.577345 0,-0.557651 0.40702,-0.797213 1.77798,-1.046483 0.75565,-0.137391 2.13763,-0.39456 3.07107,-0.571486 1.96755,-0.372933 2.60762,-0.402531 2.87711,-0.133042 0.15086,0.15086 0.19396,-0.0087 0.19396,-0.718192 0,-1.37575 0.0996,-1.415391 3.55597,-1.415391 3.36667,0 3.55597,0.06594 3.55597,1.238722 0,0.604026 0.0457,0.717963 0.25548,0.637449 0.24427,-0.09373 1.87308,0.160743 5.56307,0.869138 0.93326,0.179167 1.71261,0.325758 1.73189,0.325758 0.0193,0 0.11208,0.143952 0.20624,0.319892 0.12976,0.242458 0.0486,0.912406 -0.33542,2.767645 -0.56689,2.738965 -0.59351,2.630538 0.68761,2.800485 0.86152,0.114284 1.50266,0.592958 1.38872,1.036822 -0.0378,0.147355 -1.65734,7.880482 -3.5989,17.184727 l -3.53013,16.916809 0.74665,0.83046 c 1.25412,1.39489 1.46885,2.17718 1.53811,5.60353 l 0.0592,2.92991 1.48257,0.74195 c 2.27741,1.13974 3.92832,2.30367 5.53357,3.90132 1.69579,1.68776 2.58098,2.9315 3.55437,4.99407 1.10093,2.33285 1.42748,3.80835 1.43527,6.48522 0.007,2.57359 -0.24449,3.82163 -1.1275,5.58455 -2.01539,4.02371 -6.31686,6.34054 -13.48956,7.26567 -1.83316,0.23644 -7.75602,0.33485 -9.79853,0.1628 z m 7.53564,-1.85163 c 3.74168,-0.14777 7.41338,-0.99714 9.85354,-2.2794 3.632,-1.90857 5.34389,-5.01085 5.12421,-9.28607 -0.24523,-4.77211 -2.83147,-9.0783 -7.13845,-11.88576 -2.4652,-1.60692 -4.17824,-2.26297 -6.3488,-2.43142 -1.55927,-0.121 -1.97541,-0.34081 -1.97541,-1.04342 0,-0.73562 0.36469,-0.88959 1.97599,-0.83423 l 1.44084,0.0495 -0.0516,-2.55485 c -0.0466,-2.3049 -0.0886,-2.62601 -0.42944,-3.28221 -0.52829,-1.01712 -1.22355,-1.69384 -2.18926,-2.13092 -0.76667,-0.34698 -1.0405,-0.37441 -3.73673,-0.37429 -3.29436,1.4e-4 -3.5976,0.0758 -4.82098,1.20352 -1.17424,1.08237 -1.43804,1.91277 -1.52926,4.81386 l -0.0774,2.46153 1.295,-0.0999 c 1.58811,-0.12247 2.03195,-0.0219 2.27707,0.51611 0.38102,0.83623 -0.30004,1.36854 -1.75097,1.36854 -2.7861,0 -6.26639,1.64754 -9.03015,4.2748 -1.98317,1.88523 -3.319,3.98906 -4.16194,6.55475 -0.41749,1.27072 -0.45155,1.56811 -0.45352,3.96006 -0.002,2.41451 0.026,2.65722 0.42218,3.65673 0.58211,1.4687 1.15259,2.32953 2.23621,3.3744 2.40472,2.31869 6.85727,3.73046 12.68434,4.02181 1.33349,0.0667 2.86094,0.0999 3.39434,0.0739 0.53339,-0.026 1.87901,-0.0832 2.99025,-0.1271 z"
                                   id="path1499" />
                                <path
                                   style="fill:#4bb30f;stroke-width:0.161635"
                                   d="m 139.91326,101.57369 -3.52101,-16.841269 c -1.93656,-9.262695 -3.52296,-17.043712 -3.52534,-17.291148 -0.006,-0.623645 0.16331,-0.742166 1.35361,-0.947581 0.57181,-0.09868 1.06002,-0.196547 1.08492,-0.217484 0.0249,-0.02094 -0.17512,-1.077796 -0.44449,-2.348576 -0.26938,-1.27078 -0.48977,-2.430585 -0.48977,-2.577345 0,-0.557651 0.40702,-0.797213 1.77798,-1.046483 0.75565,-0.137391 2.13763,-0.39456 3.07107,-0.571486 1.96755,-0.372933 2.60762,-0.402531 2.87711,-0.133042 0.15086,0.15086 0.19396,-0.0087 0.19396,-0.718192 0,-1.37575 0.0996,-1.415391 3.55597,-1.415391 3.36667,0 3.55597,0.06594 3.55597,1.238722 0,0.604026 0.0457,0.717963 0.25548,0.637449 0.24427,-0.09373 1.87308,0.160743 5.56307,0.869138 0.93326,0.179167 1.71261,0.325758 1.73189,0.325758 0.0193,0 0.11208,0.143952 0.20624,0.319892 0.12976,0.242458 0.0486,0.912406 -0.33542,2.767645 -0.56689,2.738965 -0.59351,2.630538 0.68761,2.800485 0.86152,0.114284 1.50266,0.592958 1.38872,1.036822 -0.0378,0.147355 -1.65734,7.880482 -3.5989,17.184727 l -3.53013,16.916809 z m 1.19203,-4.547806 c -0.0448,-0.111124 -0.0815,-0.0202 -0.0815,0.202044 0,0.222248 0.0367,0.313168 0.0815,0.202044 0.0448,-0.111124 0.0448,-0.292964 0,-0.404088 z m 9.53647,0 c -0.0448,-0.111124 -0.0815,-0.0202 -0.0815,0.202044 0,0.222248 0.0367,0.313168 0.0815,0.202044 0.0448,-0.111124 0.0448,-0.292964 0,-0.404088 z m -10.36799,-5.483052 c -0.51317,-3.449731 -1.35678,-7.948599 -2.6468,-14.115204 -1.82766,-8.736619 -1.90674,-9.053461 -2.27292,-9.106038 -0.32108,-0.0461 -0.36817,0.0036 -0.30644,0.32327 0.59539,3.083592 5.87027,28.070759 5.91616,28.024874 0.0348,-0.0348 -0.2757,-2.341902 -0.69,-5.126902 z m 13.48799,-9.074962 c 1.60641,-7.717984 2.87881,-14.10055 2.82756,-14.18348 -0.0513,-0.08293 -0.22105,-0.15078 -0.37733,-0.15078 -0.24369,0 -0.46462,0.868622 -1.55189,6.101725 -0.69726,3.355949 -1.51053,7.265498 -1.80727,8.687886 -0.67357,3.228742 -2.38745,14.596466 -2.07139,13.738984 0.0328,-0.0889 1.37392,-6.47635 2.98032,-14.194335 z m -8.32309,-8.127131 c 0.12827,-5.769753 0.26583,-11.490577 0.3057,-12.712942 l 0.0725,-2.222483 h -0.8138 -0.81381 l 0.0972,1.414307 c 0.0535,0.777869 0.25978,6.521045 0.45844,12.762613 0.19866,6.241568 0.38356,11.325954 0.41088,11.298634 0.0273,-0.02732 0.15461,-4.770375 0.28288,-10.540129 z m -4.17175,9.915972 c -0.0448,-0.111124 -0.0815,-0.0202 -0.0815,0.202044 0,0.222248 0.0367,0.313168 0.0815,0.202044 0.0448,-0.111124 0.0448,-0.292964 0,-0.404088 z m 9.2132,0 c -0.0448,-0.111124 -0.0815,-0.0202 -0.0815,0.202044 0,0.222248 0.0367,0.313168 0.0815,0.202044 0.0448,-0.111124 0.0448,-0.292964 0,-0.404088 z m -9.79117,-3.868825 c -0.27,-1.805941 -0.74267,-4.520037 -1.05037,-6.031325 -1.12621,-5.531366 -2.52437,-12.100479 -2.58927,-12.165376 -0.0367,-0.03666 -0.17058,-0.04204 -0.29761,-0.01195 -0.18549,0.04393 0.21647,2.198228 2.0419,10.943565 1.25007,5.988878 2.29837,10.812314 2.32956,10.718745 0.0312,-0.09357 -0.1642,-1.647715 -0.43421,-3.453656 z m 12.25599,-7.527162 c 2.1068,-10.063984 2.20861,-10.634649 1.92236,-10.775075 -0.53528,-0.262592 -0.37736,-0.8278 -2.07369,7.421859 -0.78991,3.841544 -2.6469,16.176451 -2.14735,14.263585 0.0407,-0.155965 1.07514,-5.065631 2.29868,-10.910369 z m -3.10799,1.061443 c -0.0516,-0.128941 -0.0899,-0.09064 -0.0977,0.09766 -0.007,0.170389 0.0312,0.265856 0.0849,0.212146 0.0537,-0.05371 0.0594,-0.193122 0.0127,-0.309801 z m -8.24676,-0.818278 c -0.0448,-0.111124 -0.0815,-0.0202 -0.0815,0.202044 0,0.222248 0.0367,0.313168 0.0815,0.202044 0.0448,-0.111124 0.0448,-0.292964 0,-0.404088 z m 8.40503,-0.161635 c -0.0448,-0.111124 -0.0815,-0.0202 -0.0815,0.202044 0,0.222248 0.0367,0.313168 0.0815,0.202044 0.0448,-0.111124 0.0448,-0.292964 0,-0.404088 z m -9.23156,-5.403697 c -0.93861,-6.326597 -0.83565,-5.870351 -1.32469,-5.870351 -0.30573,0 -0.38295,0.06782 -0.32209,0.282861 0.044,0.155574 0.57366,2.672771 1.17696,5.593772 0.6033,2.921001 1.1221,5.235348 1.15288,5.142993 0.0308,-0.09235 -0.27659,-2.409529 -0.68306,-5.149275 z m 10.49163,-0.213123 c 0.57869,-2.800328 1.08402,-5.223075 1.12296,-5.383883 0.0566,-0.233902 -0.0138,-0.282393 -0.35227,-0.242453 l -0.42306,0.04993 -0.77253,5.172323 c -1.13357,7.589624 -1.07207,7.64811 0.4249,0.404088 z"
                                   id="path1497"
                                   sodipodi:nodetypes="csssscssssssscssscsccccsssssssscsscscscssscsssccccscsssssssssssccsssssssscsccsccsssssssssscscsscscsss" />
                                <path
                                   style="fill:#333739;stroke-width:0.161635"
                                   d="m 141.70599,140.06262 c -9.09853,-0.76641 -14.28462,-3.88774 -15.8472,-9.53786 -0.4441,-1.60582 -0.40127,-5.28767 0.0824,-7.08616 1.34887,-5.01533 4.8356,-9.12773 9.83156,-11.59579 l 1.80567,-0.89202 0.0594,-2.94178 c 0.0694,-3.43699 0.2833,-4.21958 1.53353,-5.61014 l 0.74191,-0.82518 -3.52101,-16.841269 c -1.93656,-9.262695 -3.52296,-17.043712 -3.52534,-17.291148 -0.006,-0.623645 0.16331,-0.742166 1.35361,-0.947581 0.57181,-0.09868 1.06002,-0.196547 1.08492,-0.217484 0.0249,-0.02094 -0.17512,-1.077796 -0.44449,-2.348576 -0.26938,-1.27078 -0.48977,-2.430585 -0.48977,-2.577345 0,-0.557651 0.40702,-0.797213 1.77798,-1.046483 0.75565,-0.137391 2.13763,-0.39456 3.07107,-0.571486 1.96755,-0.372933 2.60762,-0.402531 2.87711,-0.133042 0.15086,0.15086 0.19396,-0.0087 0.19396,-0.718192 0,-1.37575 0.0996,-1.415391 3.55597,-1.415391 3.36667,0 3.55597,0.06594 3.55597,1.238722 0,0.604026 0.0457,0.717963 0.25548,0.637449 0.24427,-0.09373 1.87308,0.160743 5.56307,0.869138 0.93326,0.179167 1.71261,0.325758 1.73189,0.325758 0.0193,0 0.11208,0.143952 0.20624,0.319892 0.12976,0.242458 0.0486,0.912406 -0.33542,2.767645 -0.56689,2.738965 -0.59351,2.630538 0.68761,2.800485 0.86152,0.114284 1.50266,0.592958 1.38872,1.036822 -0.0378,0.147355 -1.65734,7.880482 -3.5989,17.184727 l -3.53013,16.916809 0.74665,0.83046 c 1.25412,1.39489 1.46885,2.17718 1.53811,5.60353 l 0.0592,2.92991 1.48257,0.74195 c 2.27741,1.13974 3.92832,2.30367 5.53357,3.90132 1.69579,1.68776 2.58098,2.9315 3.55437,4.99407 1.10093,2.33285 1.42748,3.80835 1.43527,6.48522 0.007,2.57359 -0.24449,3.82163 -1.1275,5.58455 -2.01539,4.02371 -6.31686,6.34054 -13.48956,7.26567 -1.83316,0.23644 -7.75602,0.33485 -9.79853,0.1628 z m 7.77809,-1.85194 c 0.97789,-0.0433 2.61592,-0.22248 3.64007,-0.39811 7.75665,-1.33014 11.41167,-5.00883 11.09523,-11.16705 -0.24523,-4.77211 -2.83147,-9.0783 -7.13845,-11.88576 -2.4652,-1.60692 -4.17824,-2.26297 -6.3488,-2.43142 -1.55927,-0.121 -1.97541,-0.34081 -1.97541,-1.04342 0,-0.73562 0.36469,-0.88959 1.97599,-0.83423 l 1.44084,0.0495 -0.0516,-2.55485 c -0.0466,-2.3049 -0.0886,-2.62601 -0.42944,-3.28221 -0.52829,-1.01712 -1.22355,-1.69384 -2.18926,-2.13092 -0.76667,-0.34698 -1.0405,-0.37441 -3.73673,-0.37429 -3.29436,1.4e-4 -3.5976,0.0758 -4.82098,1.20352 -1.17424,1.08237 -1.43804,1.91277 -1.52926,4.81386 l -0.0774,2.46153 1.295,-0.0999 c 1.58811,-0.12247 2.03195,-0.0219 2.27707,0.51611 0.38102,0.83623 -0.30004,1.36854 -1.75097,1.36854 -2.7861,0 -6.26639,1.64754 -9.03015,4.2748 -1.98317,1.88523 -3.319,3.98906 -4.16194,6.55475 -0.41749,1.27072 -0.45155,1.56811 -0.45352,3.96006 -0.002,2.41451 0.026,2.65722 0.42218,3.65673 1.18474,2.98916 3.27875,4.79602 7.01685,6.05463 2.87596,0.96834 7.7632,1.56787 11.54049,1.41571 0.66675,-0.0269 2.01236,-0.0843 2.99025,-0.12763 z M 142.3282,99.952933 c -0.0242,-0.209712 -0.84581,-4.236293 -1.82587,-8.947956 -0.98007,-4.711664 -2.44606,-11.767036 -3.25777,-15.678605 -0.81171,-3.91157 -1.49075,-7.133669 -1.50898,-7.16022 -0.0182,-0.02655 -0.20926,-0.0041 -0.4245,0.04995 l -0.39135,0.09822 3.19545,15.305389 c 1.7575,8.417962 3.27497,15.683302 3.37216,16.145198 0.16239,0.771741 0.20541,0.828851 0.53076,0.704571 0.24828,-0.0949 0.34091,-0.24914 0.3101,-0.516545 z m 7.79821,0.0632 c 0.30667,-1.220844 6.55043,-31.325287 6.55043,-31.583054 0,-0.208936 -0.11811,-0.299466 -0.39069,-0.299466 -0.3403,0 -0.41433,0.109469 -0.57389,0.848584 -0.10076,0.466721 -0.90979,4.339902 -1.79784,8.607069 -0.88805,4.267167 -2.30504,11.064039 -3.14885,15.10416 -0.84382,4.040121 -1.49781,7.440517 -1.45333,7.556437 0.15099,0.39348 0.69592,0.23704 0.81417,-0.23373 z m -3.95468,-0.88899 c 6.4e-4,-0.55562 0.2909,-9.12026 0.64501,-19.032533 0.35411,-9.912272 0.64453,-18.622384 0.64537,-19.355803 l 0.002,-1.33349 h -1.61635 -1.61635 l 10e-4,0.606132 c 8.1e-4,0.333372 0.21734,6.897778 0.48123,14.587568 0.26388,7.68979 0.56742,16.581741 0.67453,19.759891 0.18221,5.406381 0.21367,5.778455 0.48859,5.778455 0.25257,0 0.29401,-0.141909 0.29501,-1.01022 z m -2.68198,-5.091505 c -0.0923,-1.750879 -0.37225,-3.182332 -4.76564,-24.366492 -1.70922,-8.241537 -1.5823,-7.678274 -1.72942,-7.675192 -0.56268,0.01179 -0.50894,0.335113 2.2312,13.423496 1.51566,7.239652 3.09225,14.781375 3.50353,16.759384 0.41128,1.97801 0.7712,3.596381 0.79984,3.596381 0.0286,0 0.0108,-0.78191 -0.0395,-1.737577 z m 6.61935,-7.394806 c 3.14552,-14.99314 5.11303,-24.438747 5.11303,-24.546551 0,-0.05654 -0.21821,-0.102802 -0.48491,-0.102802 -0.2667,0 -0.4849,0.04962 -0.4849,0.110255 0,0.126694 -2.64316,12.898628 -4.54317,21.952936 -0.7089,3.378174 -1.32075,6.614917 -1.35967,7.192762 -0.13628,2.023392 -0.22783,4.406558 -0.16692,4.345225 0.0338,-0.03404 0.90075,-4.062363 1.92654,-8.951825 z m -7.2148,-8.687887 c -0.0704,-1.687701 -1.93668,-16.379232 -2.10156,-16.544108 -0.0542,-0.0542 -1.61438,0.247386 -1.69455,0.327557 -0.0785,0.07854 3.7271,18.356705 3.82218,18.357612 0.0348,3.23e-4 0.0231,-0.963145 -0.0261,-2.141061 z m 7.95494,-8.431868 c 0.8939,-4.259705 1.60108,-7.769124 1.57149,-7.798708 -0.0872,-0.08719 -1.63808,-0.355977 -1.69952,-0.294545 -0.0309,0.03091 -0.44479,2.916154 -0.91974,6.411652 -0.58331,4.293005 -0.89195,7.168478 -0.95107,8.860797 -0.10597,3.033427 -0.26158,3.592321 1.99884,-7.179196 z"
                                   id="path1495" />
                                </g>
                              </g>
                            </g>
                          </g>
                        </g>
                      </g>
                    </g>
                  </g>
                </g>
              </g>
            </g>
          </g>
        </g>
      </g>
    </g>
  </g>
</svg>
