<?xml version="1.0" encoding="UTF-8" standalone="no"?>
<svg
   width="64"
   height="64"
   version="1.1"
   viewBox="0 0 16.933 16.933"
   id="svg146"
   sodipodi:docname="figue_de_barbarie.svg"
   inkscape:version="1.2 (dc2aedaf03, 2022-05-15)"
   xml:space="preserve"
   xmlns:inkscape="http://www.inkscape.org/namespaces/inkscape"
   xmlns:sodipodi="http://sodipodi.sourceforge.net/DTD/sodipodi-0.dtd"
   xmlns="http://www.w3.org/2000/svg"
   xmlns:svg="http://www.w3.org/2000/svg"><defs
     id="defs150"><pattern
       id="EMFhbasepattern"
       patternUnits="userSpaceOnUse"
       width="6"
       height="6"
       x="0"
       y="0" /><pattern
       id="EMFhbasepattern-1"
       patternUnits="userSpaceOnUse"
       width="6"
       height="6"
       x="0"
       y="0" /><pattern
       id="EMFhbasepattern-4"
       patternUnits="userSpaceOnUse"
       width="6"
       height="6"
       x="0"
       y="0" /><pattern
       id="EMFhbasepattern-0"
       patternUnits="userSpaceOnUse"
       width="6"
       height="6"
       x="0"
       y="0" /><pattern
       id="EMFhbasepattern-7"
       patternUnits="userSpaceOnUse"
       width="6"
       height="6"
       x="0"
       y="0" /><pattern
       id="EMFhbasepattern-13"
       patternUnits="userSpaceOnUse"
       width="6"
       height="6"
       x="0"
       y="0" /><pattern
       id="EMFhbasepattern-9"
       patternUnits="userSpaceOnUse"
       width="6"
       height="6"
       x="0"
       y="0" /><pattern
       id="EMFhbasepattern-44"
       patternUnits="userSpaceOnUse"
       width="6"
       height="6"
       x="0"
       y="0" /><pattern
       id="EMFhbasepattern-90"
       patternUnits="userSpaceOnUse"
       width="6"
       height="6"
       x="0"
       y="0" /><pattern
       id="EMFhbasepattern-6"
       patternUnits="userSpaceOnUse"
       width="6"
       height="6"
       x="0"
       y="0" /><pattern
       id="EMFhbasepattern-76"
       patternUnits="userSpaceOnUse"
       width="6"
       height="6"
       x="0"
       y="0" /><pattern
       id="EMFhbasepattern-93"
       patternUnits="userSpaceOnUse"
       width="6"
       height="6"
       x="0"
       y="0" /></defs><sodipodi:namedview
     id="namedview148"
     pagecolor="#ffffff"
     bordercolor="#666666"
     borderopacity="1.0"
     inkscape:pageshadow="2"
     inkscape:pageopacity="0.0"
     inkscape:pagecheckerboard="0"
     showgrid="false"
     inkscape:zoom="16"
     inkscape:cx="29.65625"
     inkscape:cy="29.6875"
     inkscape:window-width="1920"
     inkscape:window-height="1009"
     inkscape:window-x="-8"
     inkscape:window-y="-8"
     inkscape:window-maximized="1"
     inkscape:current-layer="g810"
     inkscape:showpageshadow="0"
     inkscape:deskcolor="#d1d1d1" /><g
     transform="translate(-.63104 .12621)"
     id="g144"><g
       transform="translate(.089242 .089243)"
       id="g142"><g
         transform="translate(-.063104 .94656)"
         id="g140"><g
           transform="translate(-.089243 -.80319)"
           id="g138"><g
             transform="translate(.31235 -.044621)"
             id="g136"><g
               transform="translate(-.12621 .063104)"
               id="g134"><g
                 transform="translate(-.23576 .66462)"
                 id="g132"><g
                   transform="translate(-121.98 -82.268)"
                   id="g130"><g
                     transform="matrix(.13267 0 0 .13267 114.64 78.216)"
                     id="g128"><g
                       transform="translate(.90513 5.6641)"
                       id="g126"><g
                         transform="translate(-3.3634 -8.7449)"
                         id="g124"><g
                           id="g2243"
                           transform="matrix(1.1930023,0,0,1.1930023,-33.651497,-20.118288)"><g
                             id="g2622"
                             transform="translate(-3.5913905,-3.2649007)"><g
                               id="g3762"
                               transform="translate(-4.1555401,0.11543139)"><g
                                 id="g932"
                                 transform="translate(3.9178806,-0.97947018)"><g
                                   id="g1493"
                                   transform="translate(-5.6814412,-2.5586263)"><g
                                   id="g2924"
                                   transform="matrix(1.4252606,0,0,1.4252606,-67.958484,-35.929956)"><g
                                   id="g3496"
                                   transform="translate(-1.2958378,1.9437573)"><g
                                   id="g6616"
                                   transform="translate(-2.0796661,3.1194989)"><g
                                   id="g212"
                                   transform="translate(0.7798745,-0.25995826)"><g
                                   id="g393"
                                   transform="translate(-1.2867276,-2.205819)"><g
                                   id="g459"
                                   transform="translate(1.2867273,2.7572737)"><g
                                   id="g548"
                                   transform="translate(0.91909145,-0.73527303)"><g
                                   id="g618"
                                   transform="translate(0.12997889,1.949687)"><g
                                   id="g679"
                                   transform="translate(1.4705459,-1.654364)"><g
                                   id="g745"
                                   transform="translate(-3.0330013,-2.0220003)"><g
                                   id="g810"
                                   transform="translate(-0.90985432,-1.2997913)"><path
                                   style="fill:#f076a0;stroke-width:0.0435027"
                                   d="m 149.01175,120.58414 c -4.12522,-0.22248 -8.13726,-1.95963 -11.06407,-4.88565 -1.90047,-0.66381 -2.26958,-3.61736 -3.70371,-5.266 -1.22415,-1.79839 -1.16884,-4.34573 -2.76069,-5.80301 0.6504,-1.48816 -0.34247,-3.16981 -0.40846,-4.799852 -0.53619,-3.301666 -0.5627,-6.68575 -0.61195,-9.997197 -1.23769,-1.370264 1.07205,-2.726286 0.62839,-4.576587 0.57145,-3.107548 1.51888,-6.155913 2.92261,-8.990773 -0.60073,-1.775565 2.18386,-2.295536 2.56323,-4.168871 1.56977,-2.123336 3.53058,-3.958684 5.7681,-5.363217 -0.62116,-2.604757 1.97228,-0.157185 3.12933,-1.42424 1.60589,-0.627013 3.44275,-0.22348 4.17638,-1.781769 1.70674,1.359779 4.67029,1.680783 6.71048,2.084621 1.95651,-1.057447 1.4417,2.148004 3.34657,2.380106 2.26156,1.462071 3.65816,4.049307 5.59905,5.662476 1.16895,2.180824 2.25742,5.041484 3.25719,7.637215 1.2874,2.149252 0.36514,5.470284 2.24815,7.083696 -0.49191,1.278114 -0.7126,3.682339 -0.25113,4.805316 2.28299,-1.689986 4.52965,-3.431073 6.85625,-5.060625 1.86889,2.383588 3.2028,5.184689 3.85181,8.144374 2.04046,0.673709 -0.51031,2.495061 0.43261,4.078287 0.0145,3.79407 -1.16898,7.57645 -3.35623,10.67779 0.65389,1.6258 -1.8576,1.34879 -2.40982,2.73968 -2.71556,2.70509 -6.40947,4.20083 -10.08834,4.93184 -1.11556,1.52595 -2.91762,-0.69257 -4.72324,0.0115 -2.02096,-0.86038 -3.55729,0.97015 -5.48298,1.26771 -2.15227,0.60846 -4.40493,0.74576 -6.62953,0.61317 z"
                                   id="path830" /><path
                                   style="fill:#fa6b9e;stroke-width:0.0435027"
                                   d="m 149.49028,120.58899 c -4.24681,-0.1612 -8.50396,-1.79921 -11.47877,-4.88651 -1.96035,-0.29945 -1.78678,-3.13666 -3.31041,-4.43776 -1.13634,-1.81596 -1.66136,-4.07426 -2.54626,-5.9153 -1.08269,-1.18849 -0.0635,-3.26661 -0.97521,-4.96823 -0.56786,-3.471225 -0.71688,-6.995476 -0.62715,-10.507664 -1.56943,-1.299736 1.17651,-2.404398 0.50047,-4.27055 0.54097,-3.222793 1.53553,-6.366094 2.95037,-9.311465 -0.40683,-1.740207 2.11533,-2.470846 2.68669,-4.328486 1.54669,-2.059845 3.46539,-3.847653 5.65384,-5.209968 -0.73303,-1.938778 1.32375,-1.179262 2.12526,-1.053769 2.01913,-0.799749 4.23925,-0.853655 5.55001,-2.145352 1.30039,1.800057 4.60296,1.50285 6.38017,2.015133 2.03175,-0.988614 1.37277,2.345263 3.39513,2.501246 2.07371,1.50151 3.63682,3.635803 5.22654,5.536482 1.49537,0.992184 1.3358,3.555174 2.6123,5.188502 1.16064,2.856226 1.94705,5.859461 2.3903,8.909038 1.72581,1.119122 -0.49445,2.958283 0.34764,4.791987 0.11454,1.734762 2.73116,-1.665757 3.85853,-2.036411 1.59819,-1.056521 3.58125,-3.717316 4.4814,-0.452448 1.76778,1.911854 1.45119,5.274676 3.39268,6.733854 -0.93182,2.332721 -0.0264,5.692911 -1.05833,8.441921 -0.35733,2.59396 -2.62173,4.74472 -2.83304,7.04977 -1.85782,0.40008 -2.84414,2.50769 -4.60003,3.37996 -2.29638,1.63666 -5.09374,2.46784 -7.76523,3.07168 -1.05833,1.58633 -2.66715,-0.65898 -4.39665,0.0203 -1.70915,-0.63963 -3.10082,0.13452 -4.61504,0.86423 -2.34306,0.86188 -4.8632,1.11965 -7.34521,1.01985 z m -9.89294,-10.83811 c 2.04771,-2.08028 0.38406,-5.52606 0.21345,-8.14955 -1.29622,-5.64007 -1.06249,-11.456166 -0.43389,-17.163376 -0.0331,-3.960593 -4.28001,-1.586903 -4.65172,0.9911 -2.12479,5.206333 -1.84975,11.058076 -0.72277,16.449596 0.64819,1.66523 1.21135,5.32118 2.66805,5.58905 1.86359,-1.26267 2.03412,1.51077 1.72752,2.07163 0.36922,0.14913 0.79149,0.3483 1.19936,0.21155 z m -2.7392,-16.422696 c -3.09221,-1.506738 2.04367,-3.888298 1.29628,-0.549411 -0.20272,0.479784 -0.80339,0.753284 -1.29628,0.549411 z"
                                   id="path828" /><path
                                   style="fill:#fa528c;fill-opacity:1;stroke-width:0.0435027"
                                   d="m 139.85802,109.64785 c 1.56518,-2.19403 0.18565,-5.21574 0.0189,-7.69812 -1.26607,-5.574251 -1.22758,-11.331367 -0.52351,-16.977921 0.77664,-3.053679 -2.96455,-3.681851 -3.90478,-0.97621 -2.8404,5.122838 -2.5999,11.312369 -1.67147,16.907511 0.54687,2.41341 1.29945,4.84789 2.65208,6.93821 1.30952,-1.96992 2.68867,0.91206 2.03449,1.74199 0.42859,0.18299 0.96148,0.3155 1.39424,0.0645 z m -2.99988,-16.319666 c -3.09221,-1.506738 2.04367,-3.888298 1.29628,-0.549411 -0.20272,0.479784 -0.80339,0.753284 -1.29628,0.549411 z m 26.09469,15.163486 c 1.46258,-2.48741 6.01054,-0.55047 6.15599,-3.87949 0.5413,-2.36604 3.76503,-4.37424 1.10516,-6.79215 -0.24266,-1.562971 -0.2331,-5.345398 -2.35495,-2.590869 -4.2151,3.127422 -8.41771,6.271239 -12.61886,9.417169 1.05587,2.60118 4.70223,1.8767 6.5831,3.82914 l 0.58784,0.10497 0.54169,-0.0888 z"
                                   id="path826"
                                   sodipodi:nodetypes="ccsscssccscccsscccsssccccscsccssssssssccscscscssscccscscssss" /><path
                                   style="fill:#fa528c;stroke-width:0.0435027"
                                   d="m 149.49028,120.58899 c -4.27215,-0.16935 -8.54313,-1.82316 -11.53489,-4.93176 -1.92694,-0.47907 -2.09831,-3.46693 -3.56396,-4.9811 -0.87072,-2.58155 -2.86352,-5.11612 -2.67515,-7.52862 -1.01654,-4.35909 -1.24457,-8.847977 -1.17142,-13.309575 -1.52159,-1.35905 1.20524,-2.76955 0.59213,-4.693285 0.56007,-3.071127 1.50757,-6.085977 2.90798,-8.879681 -0.84549,-1.656114 1.7665,-1.632126 1.9373,-3.320202 1.68818,-2.452529 3.83171,-4.613276 6.36347,-6.193908 -0.55391,-2.751441 2.38049,-0.122117 3.61187,-1.573404 1.4772,-0.416614 3.03696,-0.292386 3.73933,-1.613722 1.49599,1.668393 4.36803,1.117966 6.5082,2.292099 1.99725,-1.77619 1.3918,1.891141 3.35074,2.048071 0.65696,0.707691 3.22267,2.017391 0.79324,1.628651 -1.56533,2.844342 2.51081,1.978907 1.75267,0.622123 1.4094,1.309289 2.22687,3.257733 3.8505,4.12118 -0.18245,2.14613 1.89501,3.895626 2.25977,6.042903 1.07008,2.94751 1.58101,6.450131 2.52053,9.008203 -1.02752,0.640826 -0.28992,3.652245 -0.0589,3.78121 2.23931,-1.650156 4.45069,-3.338207 6.70156,-4.972581 1.95601,2.344786 3.15643,5.215625 3.92864,8.143979 1.99766,0.744069 -0.77505,2.408529 0.36876,4.057739 0.0327,3.79062 -1.16652,7.57538 -3.34041,10.67764 0.61274,1.73519 -2.46359,1.54632 -2.96751,3.26575 -2.66288,2.36232 -6.08171,3.71518 -9.52081,4.37748 -0.91737,1.72687 -2.1616,-0.49314 -3.63495,0.0808 -1.79965,-0.25935 -3.44357,-0.45556 -4.99912,0.6894 -2.44554,0.96961 -5.10506,1.26814 -7.71952,1.16065 z m 9.64654,-2.1576 c -1.42437,-0.55555 -1.42414,-0.026 0,0 z m -14.40766,-0.2305 c 2.50329,-1.99084 -3.10154,-3.42588 -1.43423,-0.38944 0.33427,0.40846 0.93796,0.57094 1.43423,0.38944 z m -0.9052,-0.32804 c -2.68358,-2.70063 3.38845,-1.69245 0.40761,0.0577 l -0.40761,-0.0578 z m -3.96594,-8.225 c 1.56518,-2.19403 0.18565,-5.21574 0.0189,-7.69812 -1.26607,-5.574251 -1.22758,-11.331367 -0.52351,-16.977921 0.77757,-3.085963 -2.99797,-3.661762 -3.92263,-0.946013 -2.2658,4.022136 -2.49293,8.824019 -2.15448,13.328421 -2.00152,-2.273971 -3.10131,2.524517 -0.36664,1.66004 1.14548,-1.307749 0.56314,2.891433 1.29647,3.651063 0.62518,2.29101 1.80442,4.45236 2.63348,6.54026 0.95984,0.11139 2.04381,0.76113 3.01836,0.44227 z m -2.53406,-0.45521 c -2.6823,-1.35279 1.75098,-3.17586 0.99926,-0.39838 -0.17912,0.35641 -0.62958,0.50299 -0.99926,0.39838 z m -5.33797,-10.419288 c -2.5038,-1.543512 2.0282,-2.978262 1.10296,-0.341432 -0.19095,0.450023 -0.72189,0.449972 -1.10296,0.341432 z m 4.99726,-5.751623 c -3.11411,-1.855508 2.71368,-2.549107 0.48219,-0.03907 z m 25.96958,15.469941 c 1.46258,-2.48741 6.01054,-0.55047 6.15599,-3.87949 0.5413,-2.36604 3.76503,-4.37424 1.10516,-6.79215 -0.24077,-1.570879 -0.23724,-5.348174 -2.36241,-2.584684 -2.66749,1.978716 -5.3246,3.971376 -7.98592,5.958384 -0.623,-3.213199 -3.81987,0.0681 -1.41749,1.05232 -1.54877,1.02116 -4.82576,3.00592 -1.54914,4.1425 2.38419,-0.16714 3.7833,2.37664 6.05381,2.10312 z m -4.60927,-6.7224 c -2.3256,-1.43627 1.90415,-2.964026 1.16928,-0.38197 -0.25571,0.39206 -0.72695,0.5713 -1.16928,0.38197 z m -13.79716,0.0226 c 2.48744,-1.31836 -2.04893,-3.902266 -1.55963,-0.87606 0.16715,0.66974 0.92483,1.02362 1.55963,0.87606 z m -0.71659,-0.31754 c -2.46343,-1.26254 1.86941,-3.124428 1.06199,-0.36588 -0.19081,0.36304 -0.68084,0.53596 -1.06199,0.36588 z m 8.29546,-6.504186 c 2.37313,-3.434725 -4.50088,-1.610901 -0.39658,0.0763 z m -0.84173,-0.199108 c -2.74237,-2.136305 2.81528,-2.366719 0.73097,-0.03394 l -0.34255,0.09099 -0.38842,-0.05704 z m 13.75385,-3.196825 c 2.44737,-1.632258 -2.41832,-3.628372 -1.55761,-0.707492 0.28573,0.575088 0.94118,0.870462 1.55761,0.707492 z m -0.61148,-0.263963 c -2.61903,-1.027927 1.53306,-3.309488 0.98752,-0.470781 -0.15067,0.378863 -0.60374,0.56869 -0.98752,0.470781 z M 145.1541,87.442426 c 1.52365,-0.532304 -0.53377,-3.476624 0.4292,-1.008023 -0.83829,2.011956 -2.39654,-0.894333 -1.79619,-1.022549 -0.85341,0.95182 0.20029,2.406952 1.36699,2.030572 z m 13.69577,-0.812624 c 2.28504,-2.771426 -3.83218,-2.348264 -0.98392,-0.0152 l 0.52641,0.09974 0.45751,-0.08454 z m -0.91215,-0.211181 c -2.31569,-1.365933 1.70675,-3.029981 1.22014,-0.487507 -0.155,0.558072 -0.76398,0.618677 -1.22014,0.487507 z m -23.18939,-2.394978 c 2.03759,-2.205557 -3.14201,-2.930839 -1.59225,-0.304059 0.34754,0.458257 1.10537,0.597323 1.59225,0.304059 z m -0.86132,-0.107929 c -2.61881,-1.031004 1.53393,-3.310536 0.98966,-0.468923 -0.15172,0.378759 -0.60561,0.568427 -0.98966,0.468923 z m 34.1129,-1.193496 c 2.17369,-1.997601 -2.8617,-3.12561 -1.5484,-0.444017 0.32774,0.470271 1.01415,0.716554 1.5484,0.444017 z m -0.69527,-0.141139 c -2.56462,-0.850691 0.97538,-3.305237 1.02441,-0.786791 -0.0446,0.491372 -0.51628,0.92496 -1.02441,0.786791 z m -15.53047,-3.071601 c 2.1778,-1.755315 -2.58486,-3.539399 -1.71546,-0.645745 0.28341,0.650475 1.08148,0.908657 1.71546,0.645745 z m -1.08925,-0.286691 c -2.26025,-1.687211 2.29045,-2.717713 1.11179,-0.188473 -0.243,0.354735 -0.76273,0.295543 -1.11179,0.188473 z m -7.37953,-1.382842 c 2.19166,-1.936476 -2.77037,-3.405265 -1.76734,-0.599058 0.31266,0.610128 1.14485,0.951509 1.76734,0.599058 z m -0.91202,-0.260396 c -2.90799,-1.590488 2.39767,-2.969882 0.73167,-0.145101 l -0.40344,0.148753 -0.32823,-0.0037 z m 16.49788,-0.544416 c 1.66833,-0.38702 -0.58512,-3.39116 0.42181,-1.113146 -0.41545,2.026558 -2.41376,-0.267468 -1.95027,-0.573257 -0.48948,0.950986 0.56706,1.980458 1.52846,1.686403 z M 147.6559,76.237582 c -2.94519,0.09924 -6.23392,-3.705339 -2.77539,-5.642247 2.62868,-1.582059 5.98814,-1.734666 8.86444,-0.782532 0.60289,-2.547462 -4.14188,-1.47518 -5.84031,-1.508784 -2.25598,0.417878 -5.29652,1.430173 -5.6246,4.059803 -0.0645,2.505849 4.03692,3.782012 4.36979,3.70921 0.19998,0.167473 0.63286,0.162246 1.00607,0.16455 z m 0.30521,-0.04284 c -3.43235,-0.339311 -2.75982,-4.700401 0.49367,-4.677033 1.48062,-0.973756 4.86905,1.402916 4.79303,-0.717484 -2.72778,-0.951201 -6.37715,-0.851983 -8.37712,1.484415 -1.39329,2.0244 1.31862,3.768725 3.09042,3.910102 z m 0.75057,-0.257145 c 1.81443,-0.588326 5.52204,-3.901837 1.46075,-3.555577 -2.46618,-0.725247 -5.5905,2.829304 -2.02627,3.745759 l 0.56554,-0.190177 z m -2.78862,0.04204 c -2.25882,-0.536512 -5.4341,-2.356414 -4.46511,-5.108026 1.75702,-3.168586 5.89031,-3.884122 9.2192,-3.808279 1.20147,0.06095 4.94138,0.910587 2.45131,-0.760029 -4.03044,-0.604143 -8.75069,-0.175689 -11.80357,2.79977 -2.40274,2.352449 0.11989,5.651989 2.72993,6.327287 0.60649,0.202393 1.22639,0.499859 1.86824,0.549277 z m -6.72897,-2.899155 c 2.69887,-1.842629 -2.86774,-3.410201 -1.24095,-0.428504 0.29993,0.341944 0.78674,0.54929 1.24095,0.428504 z m -0.74555,-0.340612 c -2.63603,-2.589291 3.41611,-1.572566 0.33673,0.07299 z m 22.2714,-1.366707 c -2.53325,-1.930389 2.64761,-2.55836 0.87795,-0.05448 l -0.42694,0.09954 -0.45101,-0.04507 z"
                                   id="path824" /><path
                                   style="fill:#bb8279;stroke-width:0.0435027"
                                   d="m 147.6559,76.237575 c -2.94519,0.09924 -6.23392,-3.705339 -2.77539,-5.642247 2.62868,-1.582059 5.98814,-1.734666 8.86444,-0.782532 0.60289,-2.547462 -4.14188,-1.47518 -5.84031,-1.508784 -2.25598,0.417878 -5.29652,1.430173 -5.6246,4.059803 -0.0645,2.505849 4.03692,3.782012 4.36979,3.70921 0.19998,0.167473 0.63286,0.162246 1.00607,0.16455 z m 0.30521,-0.04284 c -3.43235,-0.339311 -2.75982,-4.700401 0.49367,-4.677033 1.48062,-0.973756 4.86905,1.402916 4.79303,-0.717484 -2.72778,-0.951201 -6.37715,-0.851983 -8.37712,1.484415 -1.39329,2.0244 1.31862,3.768725 3.09042,3.910102 z m 0.75057,-0.257145 c 1.81443,-0.588326 5.52204,-3.901837 1.46075,-3.555576 -2.46618,-0.725248 -5.5905,2.829303 -2.02627,3.745758 l 0.56554,-0.190177 z m -2.78862,0.04204 c -2.25882,-0.536512 -5.4341,-2.356414 -4.46511,-5.108026 1.75702,-3.168586 5.89031,-3.884122 9.2192,-3.808279 1.20147,0.06094 4.94138,0.910587 2.45131,-0.760029 -4.03044,-0.604143 -8.75069,-0.175689 -11.80357,2.79977 -2.40274,2.352449 0.11989,5.651989 2.72993,6.327287 0.60649,0.202393 1.22639,0.499859 1.86824,0.549277 z"
                                   id="path822"
                                   sodipodi:nodetypes="ccsssssscsccssssccsscsccccccsccsccccsscssccscsssscccsccccssscsssccccsscccssccscssscsscc" /><path
                                   style="fill:#e93b76;stroke-width:0.0435027"
                                   d="m 149.49028,120.58899 c -4.27215,-0.16935 -8.54313,-1.82316 -11.53489,-4.93176 -1.93155,-0.48594 -2.10869,-3.48686 -3.57697,-5.01001 -0.70102,-2.45618 -2.93483,-4.96542 -2.59359,-7.19751 -1.06869,-4.453278 -1.31759,-9.047138 -1.23997,-13.611775 -1.52159,-1.35905 1.20524,-2.76955 0.59213,-4.693285 0.56007,-3.071127 1.50757,-6.085977 2.90798,-8.879681 -0.84549,-1.656114 1.7665,-1.632126 1.9373,-3.320202 1.68696,-2.452227 3.83105,-4.610948 6.36347,-6.188565 -0.53311,-2.783162 1.93425,-0.05558 3.1196,-1.420461 1.76683,-0.418294 3.34076,-0.657428 4.41385,-1.772195 1.49202,1.5462 4.53647,1.514752 6.45077,2.097288 2.05919,-1.258121 1.20722,2.05721 3.18601,2.212374 0.99079,0.994175 2.96726,1.70346 0.67994,1.797619 -1.51178,1.967618 2.79314,2.899625 1.75581,0.333458 1.2067,1.835362 3.50576,3.238039 4.00122,5.075617 0.68812,2.010733 2.07876,4.075323 2.60809,6.259545 0.79408,2.676525 1.36857,5.728647 2.1715,7.98752 -1.21233,0.852292 0.15672,2.920143 -0.48836,4.099753 -3.44389,2.569901 -6.89975,5.123751 -10.33476,7.70552 -0.33337,-2.999532 -4.21681,-0.097 -1.41383,1.01065 -3.14656,2.45351 -6.38994,4.78226 -9.56329,7.20024 4.71282,6.3868 13.98686,8.96799 21.19199,5.44927 6.82769,-3.07128 10.55233,-11.30214 8.64337,-18.49369 -0.25351,-2.54536 -2.53307,-5.024761 -2.95972,-6.997311 2.30925,-2.889405 3.50871,2.274394 4.52146,3.941423 0.13628,1.847238 1.71359,3.05687 1.70489,4.475188 -1.15481,2.022011 0.22401,5.59187 -1.14051,8.00375 -0.35365,2.38004 -2.58307,4.24272 -2.5926,6.43717 -2.14753,0.45443 -3.21979,3.0271 -5.34508,3.87303 -2.09817,1.82196 -5.51913,1.58447 -7.42063,3.16255 -1.43663,0.13204 -2.71783,-0.86597 -4.50386,-0.52321 -1.8272,-0.77111 -3.23152,0.77673 -4.94689,1.14955 -2.12718,0.66732 -4.37549,0.85326 -6.59443,0.76814 z m 9.7011,-2.17554 c -1.3543,-0.57177 -1.79346,0.0182 0,0 z m -14.40187,-0.21626 c 2.23543,-1.63764 -2.3767,-3.64076 -1.75251,-0.81109 0.23163,0.73215 1.05557,1.08084 1.75251,0.81109 z m -1.01984,-0.36463 c -2.26721,-1.48605 1.87074,-2.847 1.2064,-0.40675 -0.18647,0.48494 -0.76131,0.6369 -1.2064,0.40675 z m -4.00225,-8.11381 c 1.82493,-2.38952 0.15254,-5.83777 -0.0189,-8.59141 -1.21449,-5.496692 -0.95196,-11.153514 -0.34757,-16.706784 -0.1764,-4.321891 -4.56167,-1.221326 -4.85016,1.343164 -1.42237,3.663325 -1.60715,7.686532 -1.27485,11.562826 -2.30999,-2.423723 -2.90856,3.106894 -0.14493,1.530209 0.76903,1.312455 1.05678,5.144175 2.29988,7.209005 0.89677,2.06946 1.62907,4.14595 4.33676,3.65297 z m -2.53696,-0.56711 c -2.4817,-1.41413 1.88734,-2.92482 1.09028,-0.3917 -0.1985,0.36688 -0.68186,0.62852 -1.09028,0.3917 z M 132.0097,98.784279 c -2.39424,-1.353194 1.76861,-3.052843 1.1124,-0.429298 -0.18301,0.457489 -0.69178,0.545068 -1.1124,0.429298 z m 4.93005,-5.771199 c -2.45674,-0.882798 0.96168,-3.299787 1.05707,-0.792866 -0.0248,0.511233 -0.55908,0.945806 -1.05707,0.792866 z m 7.74528,8.74406 c 2.30856,-1.67519 -2.49644,-3.635716 -1.67903,-0.73017 0.27194,0.64523 1.0171,0.97714 1.67903,0.73017 z m -0.89128,-0.29791 c -2.49056,-1.563907 2.12415,-2.872288 1.02816,-0.25785 -0.22411,0.3229 -0.68034,0.39884 -1.02816,0.25785 z m 8.41163,-6.511249 c 2.13693,-1.778789 -2.59423,-3.44238 -1.69224,-0.621283 0.26246,0.635755 1.09453,0.902181 1.69224,0.621283 z m -0.92355,-0.195742 c -2.39226,-1.29561 1.66562,-3.017163 1.13073,-0.475144 -0.17108,0.41355 -0.69201,0.727453 -1.13073,0.475144 z m 13.8516,-3.208404 c 2.31543,-1.77247 -2.66042,-3.594218 -1.64948,-0.617958 0.30349,0.554693 1.04882,0.907696 1.64948,0.617958 z m -0.68977,-0.236412 c -2.89807,-1.507845 2.18421,-2.934283 0.76481,-0.198253 -0.20385,0.160972 -0.49925,0.313492 -0.76481,0.198253 z m -19.34377,-3.830561 c 2.01902,-0.456916 -1.12859,-3.615031 0.47398,-1.50185 0.21284,2.383014 -3.33814,0.28439 -1.32567,-0.839475 -1.54966,0.475507 -0.57004,2.780793 0.85169,2.341325 z m 13.83948,-0.888436 c 1.99668,-1.865989 -2.74212,-3.295203 -1.67851,-0.496243 0.30763,0.561797 1.12537,0.84543 1.67851,0.496243 z m -1.03163,-0.208262 c -2.46655,-2.270117 2.93591,-2.117424 0.80291,0.03818 l -0.37672,0.06181 -0.42619,-0.09998 z m -13.08403,-1.229076 c -0.17235,-0.09136 -0.0406,0.09808 0,0 z m -10.32644,-0.977825 c 2.54666,-1.454018 -2.26661,-3.762983 -1.54131,-0.754585 0.24917,0.572234 0.93314,0.92395 1.54131,0.754585 z m -0.59251,-0.261301 c -2.89807,-1.507842 2.1842,-2.934283 0.7648,-0.198253 -0.20384,0.160975 -0.49924,0.313491 -0.7648,0.198253 z m 34.01135,-1.122287 c 2.30464,-1.525646 -2.2836,-3.655387 -1.6023,-0.743169 0.23727,0.597201 0.98856,0.993991 1.6023,0.743169 z m -0.67888,-0.236306 c -2.94454,-1.966487 2.75693,-2.497641 0.56516,-0.02469 l -0.26794,0.06103 z m -15.58129,-2.968301 c 2.71235,-2.295971 -3.57232,-3.243244 -1.19038,-0.205092 0.34301,0.223128 0.7899,0.352776 1.19038,0.205092 z m -0.97111,-0.383528 c -2.26698,-1.649464 2.22226,-2.696969 1.15034,-0.240894 -0.22777,0.390926 -0.78264,0.422072 -1.15034,0.240894 z m -7.48069,-1.283278 c 2.61759,-2.390161 -3.45414,-3.208989 -1.41101,-0.303039 0.36321,0.360769 0.93174,0.471245 1.41101,0.303039 z m -0.73955,-0.339995 c -2.63144,-0.875477 1.09153,-3.380285 0.98571,-0.673596 -0.10199,0.42055 -0.53599,0.77958 -0.98571,0.673596 z m 16.66845,-0.648895 c 1.43589,-0.844927 -1.32084,-3.33215 0.18858,-1.059244 -0.88983,2.676158 -2.27869,-1.270613 -2.0123,-0.424286 -0.40715,1.075135 0.8868,2.064474 1.82372,1.48353 z m -8.04432,-0.585167 c 1.16645,-0.21821 2.17701,-0.194601 3.36868,-0.819314 2.05162,-0.683523 4.30142,-3.151975 2.40629,-5.107551 -0.64622,-1.047544 -3.89202,-1.640476 -2.56624,-2.813451 2.51135,0.482629 5.69966,3.282687 3.51503,5.873212 -0.80862,1.2363 -3.2229,2.070985 -3.85345,2.357542 2.39976,-0.67409 5.5722,-2.19757 5.45975,-5.113031 -0.7395,-3.231715 -4.57597,-4.205494 -7.42699,-4.607355 -3.86366,-0.26644 -8.42359,0.262353 -11.04682,3.438282 -1.95171,2.694262 1.15208,5.51059 3.68422,6.112041 2.31229,0.796402 4.13296,0.701572 6.45953,0.679625 z m -2.38965,-0.0276 c 0.19076,-0.0623 0.0188,0.08365 0,0 z m -0.69876,-0.0426 c 0.23969,-0.07055 0.0433,0.07613 0,0 z m 0.14139,-0.05819 c -0.25776,-0.09712 0.47776,0.04819 0,0 z m 3.85082,-0.186478 c 1.96673,-0.446813 1.67146,-2.617905 0.52946,-3.388563 1.46801,-2.093127 3.07407,3.235756 0.17123,3.188393 0.0911,0.01268 -1.63547,0.59769 -0.70069,0.20017 z m 0.54345,-0.02531 c 2.95241,-0.389608 3.85965,-4.190591 0.91355,-5.257881 1.03262,-2.442112 4.94204,2.56785 2.07152,3.883058 -0.41255,0.64009 -3.49724,1.754801 -2.98507,1.374823 z m 1.03178,-0.07551 c -0.17235,-0.09136 -0.0406,0.09808 0,0 z m -14.21257,-2.899274 c 2.44925,-2.409531 -3.6011,-2.905151 -1.17171,-0.134747 0.33586,0.226318 0.79404,0.319651 1.17171,0.134747 z m -0.8327,-0.266697 c -2.38643,-1.102882 1.39205,-3.194052 1.12352,-0.584734 -0.13704,0.463533 -0.65824,0.792061 -1.12352,0.584734 z m 19.77678,28.974084 c -2.23102,-1.50799 1.83534,-2.828958 1.2467,-0.44046 -0.24162,0.43665 -0.77112,0.71778 -1.2467,0.44046 z m 2.33619,-30.418793 c -2.34199,-2.100613 2.90913,-2.179738 0.85286,0.05132 l -0.40228,0.06117 -0.45058,-0.112481 z"
                                   id="path818" /><path
                                   style="fill:#724721;stroke-width:0.0435027"
                                   d="m 164.57913,119.3981 c -2.05015,-1.01956 3.12731,-0.9109 0.35861,0.0306 l -0.35863,-0.0306 z m -20.54844,-1.49282 c -2.54834,-0.8829 1.03417,-3.28599 1.00657,-0.71932 -0.0433,0.46965 -0.5359,0.85641 -1.00657,0.71932 z m -6.85445,-2.35214 c -2.20058,-2.43712 2.07616,0.52044 1e-5,0 z m 12.0309,-1.26658 c -2.77219,-3.51469 3.14798,0.75745 0,0 z m 28.08137,-1.88146 c 0.50037,-1.50185 2.01603,-1.14487 0.66798,-0.0113 l -0.39933,0.0592 -0.26865,-0.0479 z m -40.17653,-3.31719 c -2.27661,-1.76911 2.32933,-2.58773 1.10717,-0.18025 -0.23906,0.37914 -0.7586,0.31338 -1.10717,0.18025 z m -5.04454,-3.79735 c -1.31869,-0.78948 0.15926,-2.75514 0.0885,-0.30272 0.0552,-0.0502 0.20982,0.63899 -0.0885,0.30272 z m 26.32655,-3.52226 c -2.34892,-1.29635 1.6708,-3.043834 1.13059,-0.44558 -0.23843,0.33831 -0.69217,0.68472 -1.13059,0.44558 z m -14.7131,-0.38038 c -2.30413,-1.91477 2.72815,-2.38675 0.94153,0.005 l -0.43543,0.10237 -0.5061,-0.10737 z m -11.56048,-2.598185 c -2.56154,-1.180319 1.57317,-3.141632 0.99687,-0.452791 -0.12823,0.400701 -0.62138,0.574349 -0.99687,0.452791 z m 49.32758,-1.529487 c -0.65118,-2.531645 1.83339,0.998029 0.0959,0.529989 l -0.0959,-0.529985 z m -30.21623,-2.52574 c -2.5554,-2.091725 2.86804,-2.328547 0.75195,0.0082 l -0.34481,0.0427 -0.4071,-0.0509 z m -14.45524,-1.788717 c -2.67398,-2.614285 3.31234,-1.66423 0.41974,0.05922 l -0.41974,-0.05922 z m 27.49372,-1.696606 c -2.47028,-1.680194 2.25793,-2.699655 0.98882,-0.207029 -0.22582,0.304569 -0.66349,0.304506 -0.98882,0.207029 z m -34.02836,-1.645413 c -0.97042,-1.557488 1.16043,-2.040187 0.31306,-0.05083 l -0.0494,0.279217 -0.26362,-0.228389 z m 39.99465,-0.0435 c -0.63598,-1.428118 0.33685,-2.435572 0.63104,-0.619938 0.0419,0.180237 -0.47055,0.956552 -0.63104,0.619938 z m -25.85136,-2.51344 c -2.38505,-1.355577 1.83573,-3.006213 1.09059,-0.375238 -0.17023,0.443014 -0.69754,0.466685 -1.09059,0.375238 z m 13.59667,-0.646912 c -2.56571,-1.866438 2.43015,-2.513314 0.92139,-0.12687 l -0.40201,0.199485 z m -24.25051,-2.546195 c -2.46963,-1.696669 2.23994,-2.670385 0.99776,-0.217743 -0.2208,0.329445 -0.66755,0.309018 -0.99776,0.217743 z m 33.36658,-1.348584 c -2.66825,-2.627793 3.31178,-1.634346 0.41974,0.05922 l -0.41974,-0.05922 z m -16.32592,-3.267573 c -2.30806,-1.313411 1.65928,-3.048708 1.15843,-0.474813 -0.14699,0.520791 -0.7216,0.617171 -1.15843,0.474813 z m -8.61223,-1.77546 c -2.28899,-1.710942 2.29092,-2.650796 1.09889,-0.178547 -0.23547,0.368986 -0.75509,0.313952 -1.09889,0.178547 z m 15.97975,-0.782658 c -2.48341,-1.313948 1.71947,-3.040028 1.06365,-0.416801 -0.16736,0.402527 -0.6748,0.55074 -1.06365,0.416801 z m -24.22148,-0.655839 c -0.55969,-1.503413 1.78304,-1.722419 0.32973,-0.210198 l -0.21925,0.4024 z m 31.8041,-1.088358 c -2.22303,-2.777301 1.29468,-0.547089 0,0 z m -27.41796,-2.277677 c -2.20659,-2.025752 2.76374,-2.286358 0.99698,0.007 l -0.48399,0.114564 -0.51332,-0.121523 z m 22.46296,-1.288698 c -2.4105,-1.377998 1.98861,-2.991993 1.02971,-0.287517 -0.20421,0.340426 -0.68205,0.404069 -1.02971,0.287517 z m -2.96683,-4.663255 c -1.65014,-0.117761 -1.81054,-1.955891 -0.13095,-1.156961 0.34971,0.01484 0.66187,1.523639 0.13095,1.156961 z m -15.51745,-0.133485 c -0.81685,-2.27274 3.31154,-0.719158 0.69878,-0.184235 -0.15063,-0.176106 -0.67813,0.693624 -0.69878,0.184235 z m 6.64189,-2.111879 c 1.21521,-2.235661 2.93509,1.050056 0.0187,0.126663 l -0.0187,-0.126669 z"
                                   id="path812" /></g></g></g></g></g></g></g></g></g></g></g></g></g></g></g></g></g></g></g></g></g></g></g></g></g></g></g></svg>
