<?xml version="1.0" encoding="UTF-8" standalone="no"?>
<svg
   width="64"
   height="64"
   version="1.1"
   viewBox="0 0 16.933 16.933"
   id="svg146"
   sodipodi:docname="fleurs_de_lavande_officinale.svg"
   inkscape:version="1.2 (dc2aedaf03, 2022-05-15)"
   xml:space="preserve"
   xmlns:inkscape="http://www.inkscape.org/namespaces/inkscape"
   xmlns:sodipodi="http://sodipodi.sourceforge.net/DTD/sodipodi-0.dtd"
   xmlns="http://www.w3.org/2000/svg"
   xmlns:svg="http://www.w3.org/2000/svg"><defs
     id="defs150"><pattern
       id="EMFhbasepattern"
       patternUnits="userSpaceOnUse"
       width="6"
       height="6"
       x="0"
       y="0" /><pattern
       id="EMFhbasepattern-1"
       patternUnits="userSpaceOnUse"
       width="6"
       height="6"
       x="0"
       y="0" /><pattern
       id="EMFhbasepattern-4"
       patternUnits="userSpaceOnUse"
       width="6"
       height="6"
       x="0"
       y="0" /><pattern
       id="EMFhbasepattern-0"
       patternUnits="userSpaceOnUse"
       width="6"
       height="6"
       x="0"
       y="0" /><pattern
       id="EMFhbasepattern-7"
       patternUnits="userSpaceOnUse"
       width="6"
       height="6"
       x="0"
       y="0" /><pattern
       id="EMFhbasepattern-13"
       patternUnits="userSpaceOnUse"
       width="6"
       height="6"
       x="0"
       y="0" /><pattern
       id="EMFhbasepattern-9"
       patternUnits="userSpaceOnUse"
       width="6"
       height="6"
       x="0"
       y="0" /><pattern
       id="EMFhbasepattern-44"
       patternUnits="userSpaceOnUse"
       width="6"
       height="6"
       x="0"
       y="0" /><pattern
       id="EMFhbasepattern-90"
       patternUnits="userSpaceOnUse"
       width="6"
       height="6"
       x="0"
       y="0" /><pattern
       id="EMFhbasepattern-6"
       patternUnits="userSpaceOnUse"
       width="6"
       height="6"
       x="0"
       y="0" /><pattern
       id="EMFhbasepattern-76"
       patternUnits="userSpaceOnUse"
       width="6"
       height="6"
       x="0"
       y="0" /><pattern
       id="EMFhbasepattern-93"
       patternUnits="userSpaceOnUse"
       width="6"
       height="6"
       x="0"
       y="0" /><pattern
       id="EMFhbasepattern-96"
       patternUnits="userSpaceOnUse"
       width="6"
       height="6"
       x="0"
       y="0" /><pattern
       id="EMFhbasepattern-2"
       patternUnits="userSpaceOnUse"
       width="6"
       height="6"
       x="0"
       y="0" /><pattern
       id="EMFhbasepattern-8"
       patternUnits="userSpaceOnUse"
       width="6"
       height="6"
       x="0"
       y="0" /><pattern
       id="EMFhbasepattern-5"
       patternUnits="userSpaceOnUse"
       width="6"
       height="6"
       x="0"
       y="0" /><pattern
       id="EMFhbasepattern-09"
       patternUnits="userSpaceOnUse"
       width="6"
       height="6"
       x="0"
       y="0" /><pattern
       id="EMFhbasepattern-969"
       patternUnits="userSpaceOnUse"
       width="6"
       height="6"
       x="0"
       y="0" /><pattern
       id="EMFhbasepattern-441"
       patternUnits="userSpaceOnUse"
       width="6"
       height="6"
       x="0"
       y="0" /><pattern
       id="EMFhbasepattern-26"
       patternUnits="userSpaceOnUse"
       width="6"
       height="6"
       x="0"
       y="0" /></defs><sodipodi:namedview
     id="namedview148"
     pagecolor="#ffffff"
     bordercolor="#666666"
     borderopacity="1.0"
     inkscape:pageshadow="2"
     inkscape:pageopacity="0.0"
     inkscape:pagecheckerboard="0"
     showgrid="false"
     inkscape:zoom="11.313709"
     inkscape:cx="42.24963"
     inkscape:cy="32.792077"
     inkscape:window-width="1920"
     inkscape:window-height="1009"
     inkscape:window-x="-8"
     inkscape:window-y="-8"
     inkscape:window-maximized="1"
     inkscape:current-layer="g6352"
     inkscape:showpageshadow="0"
     inkscape:deskcolor="#d1d1d1" /><g
     transform="translate(-.63104 .12621)"
     id="g144"><g
       transform="translate(.089242 .089243)"
       id="g142"><g
         transform="translate(-.063104 .94656)"
         id="g140"><g
           transform="translate(-.089243 -.80319)"
           id="g138"><g
             transform="translate(.31235 -.044621)"
             id="g136"><g
               transform="translate(-.12621 .063104)"
               id="g134"><g
                 transform="translate(-.23576 .66462)"
                 id="g132"><g
                   transform="translate(-121.98 -82.268)"
                   id="g130"><g
                     transform="matrix(.13267 0 0 .13267 114.64 78.216)"
                     id="g128"><g
                       transform="translate(.90513 5.6641)"
                       id="g126"><g
                         transform="translate(-3.3634 -8.7449)"
                         id="g124"><g
                           id="g2243"
                           transform="matrix(1.1930023,0,0,1.1930023,-33.651497,-20.118288)"><g
                             id="g2622"
                             transform="translate(-3.5913905,-3.2649007)"><g
                               id="g3762"
                               transform="translate(-4.1555401,0.11543139)"><g
                                 id="g932"
                                 transform="translate(3.9178806,-0.97947018)"><g
                                   id="g1493"
                                   transform="translate(-5.6814412,-2.5586263)"><g
                                   id="g2924"
                                   transform="matrix(1.4252606,0,0,1.4252606,-67.958484,-35.929956)"><g
                                   id="g3496"
                                   transform="translate(-1.2958378,1.9437573)"><g
                                   id="g6616"
                                   transform="translate(-2.0796661,3.1194989)"><g
                                   id="g212"
                                   transform="translate(0.7798745,-0.25995826)"><g
                                   id="g393"
                                   transform="translate(-1.2867276,-2.205819)"><g
                                   id="g459"
                                   transform="translate(1.2867273,2.7572737)"><g
                                   id="g548"
                                   transform="translate(0.91909145,-0.73527303)"><g
                                   id="g618"
                                   transform="translate(0.12997889,1.949687)"><g
                                   id="g679"
                                   transform="translate(1.4705459,-1.654364)"><g
                                   id="g745"
                                   transform="translate(-3.0330013,-2.0220003)"><g
                                   id="g810"
                                   transform="translate(-0.90985432,-1.2997913)"><g
                                   id="g2487"
                                   transform="translate(-1.4660728,-1.9058949)"><g
                                   id="g221"
                                   transform="translate(1.4513385,-0.4146681)"><g
                                   id="g344"><g
                                   id="g421"
                                   transform="translate(0.41466801,1.2440044)"><g
                                   id="g535"
                                   transform="translate(2.1991096,0.87964369)"><g
                                   id="g626"
                                   transform="translate(1.8660066,2.0733403)"><g
                                   id="g804"
                                   transform="translate(-3.5246785,3.4210116)"><g
                                   id="g881"
                                   transform="translate(3.0063444,-0.82933622)"><g
                                   id="g906"
                                   transform="translate(3.9583972,-2.7855391)"><g
                                   id="g6193"
                                   transform="translate(3.2253611,-0.14660729)"><g
                                   id="g6270"
                                   transform="translate(-1.4513386,5.1833516)"><g
                                   id="g6352"
                                   transform="translate(3.2253609,-0.29321465)"><path
                                   style="fill:#b093f2;stroke-width:0.016656"
                                   d="m 142.92228,85.886359 c -0.49548,-1.087389 -1.06096,-2.574502 -0.87356,-3.913658 0.0115,-0.85273 1.12811,-1.559532 1.51924,-0.856977 0.86963,-1.585938 1.89678,-0.213498 2.03187,0.729967 0.75396,-1.088208 2.16729,-0.230479 2.846,-1.090635 0.58814,-0.598464 1.44957,-1.052954 0.59759,-1.849322 -0.39601,-1.290311 -1.04757,-3.034138 0.12862,-4.107703 0.63109,-0.594893 0.82004,0.857152 1.19287,-0.139742 0.89616,-1.170232 1.63005,0.270699 1.68745,1.108196 0.67112,-0.886121 1.89895,-0.534829 2.61851,-0.940545 0.44837,-0.870602 2.42226,-1.573444 1.18236,-2.494618 -0.51102,-1.251856 -1.35294,-2.89548 -0.35618,-4.120299 0.6228,-0.773121 0.99578,0.790568 1.33368,-0.421197 1.00281,-1.367836 1.38878,0.837577 1.80887,0.948792 0.73042,-1.226357 2.29752,-0.236915 2.91522,-1.314941 0.29286,-0.440983 1.01879,-0.947021 1.12364,-1.360019 -0.7679,-0.876605 -1.09918,-2.12697 -1.26911,-3.272855 -0.27709,-1.024982 0.87717,-2.083204 1.46087,-1.443632 0.60023,-1.443368 1.94482,-0.613883 1.99563,0.607895 0.89844,-1.216996 3.42502,-1.391483 3.34861,0.585657 -0.23787,0.715512 -0.59726,1.232286 0.49197,1.220438 1.7977,0.0025 1.57006,2.273058 -0.0272,2.464174 -0.73891,0.03044 1.10184,1.077215 -0.10045,1.529482 -1.29156,0.640609 -2.74784,-0.08968 -4.04132,-0.392068 -1.21967,-1.346 -1.88342,0.604304 -2.79308,1.347256 0.42463,0.890154 -0.84329,2.018341 0.69465,1.95258 2.01297,0.196175 1.13534,2.471418 -0.42063,2.55614 1.65659,1.093415 -0.90367,2.223121 -1.97629,1.523048 -1.07695,0.08794 -2.32912,-1.102442 -3.08204,-0.862019 -0.97022,0.984138 -1.95817,1.77811 -1.78326,3.197235 -0.99737,1.144349 2.85666,0.872265 1.54628,2.578242 -0.44618,0.784291 -2.33217,0.432821 -1.12247,1.363719 -0.14938,1.757841 -2.47706,0.825388 -3.53116,0.448773 -1.02821,-0.03378 -1.79486,-1.828859 -2.50524,-0.369945 -1.24889,0.513681 -0.53189,1.863804 -1.13214,2.635212 1.10784,0.131192 2.92358,1.404248 1.38921,2.346937 -0.48411,0.442385 -1.66361,0.256193 -0.74635,0.934925 0.18016,1.731049 -2.22001,1.089917 -3.18408,0.681274 -1.04711,-0.232689 -2.06995,-0.914723 -2.18918,-1.608477 -0.25676,-0.07833 -0.51865,-0.138307 -0.77944,-0.20129 z"
                                   id="path6358"
                                   sodipodi:nodetypes="ccsccsccsccscccsccccscscssscccsscccccsscssssccsccssccscscscccssccsccccsscsccssscscssscsssscsccssssssccsccscsscsccsssccsssccsssccccsscssccccscsssccsccccsccssssccsccccsssccc" /><path
                                   style="fill:#a37ef2;stroke-width:0.016656"
                                   d="m 142.93413,85.879736 c -0.31551,-0.756572 -0.86213,-1.996906 -0.90492,-3.024102 -0.40356,-0.879988 0.95557,-2.985932 1.45177,-1.519498 -0.40497,1.071823 -0.87412,2.198476 -0.58837,3.371749 -0.0259,0.766349 0.23374,1.378482 0.86574,1.816442 -1.00579,0.831285 1.23667,-0.629927 -0.15379,-0.480379 -0.22561,-0.04543 -0.44945,-0.09986 -0.67043,-0.164212 z m -0.52747,-2.957115 c 0.40709,-0.476908 0.79484,-2.429175 0.19742,-0.938768 -0.0862,0.254804 -0.26645,0.851745 -0.19742,0.938768 z m 1.416,3.579027 c 1.31069,0.0061 2.62729,0.294896 3.94354,0.07344 1.55656,-0.615449 1.7615,1.854813 0.14844,1.586846 -1.32282,-0.148466 -2.65879,-0.591898 -3.791,-1.296734 -0.048,-0.09158 -0.39141,-0.252712 -0.30098,-0.363552 z m 2.20001,0.753561 c 0.67278,0.263915 1.95025,0.33681 2.32551,0.146255 -0.57437,-0.237526 -2.31961,-0.434049 -2.32551,-0.146255 z m -2.41871,-2.980404 c -0.0655,-0.648065 0.1494,-2.174936 0.4847,-2.188937 0.0593,0.538802 -0.22374,2.358998 -0.4847,2.188937 z m 1.87908,1.182996 c 1.03268,0.0062 2.53132,-0.106509 3.31398,0.08297 -1.02528,0.351113 -2.36888,0.606959 -3.31398,-0.08297 z m -0.84078,-0.971683 c 0.30594,-1.012584 0.3164,-2.395629 1.39493,-2.918779 1.05394,-0.730279 2.34624,-0.0755 3.02322,-1.415167 0.53123,-1.052689 1.7736,0.582506 0.54339,0.903679 -1.47692,0.557354 -0.23998,2.403793 -1.72284,2.926393 -0.99112,0.06308 -2.58976,0.864919 -3.2387,0.503874 z m 0.96697,-0.784209 c 0.55488,-0.437924 1.41934,-1.562507 1.3677,-1.973255 -0.60831,0.421566 -1.45549,1.645016 -1.3677,1.973255 z m 0.44716,0.161741 c 0.567,-0.100225 2.32068,-1.092917 1.82007,-1.1803 -0.48562,0.09799 -2.118,1.022394 -1.82007,1.1803 z m 3.13288,-4.591926 c -0.42663,-1.326551 -1.14579,-2.969263 -0.2338,-4.249913 1.0455,-1.071674 1.23506,0.739598 0.59272,1.367962 -0.47468,1.001322 -0.0325,2.394943 -0.067,3.252204 l -0.15861,-0.144277 -0.13332,-0.22598 z m -0.16707,-2.500408 c 0.34575,-0.505706 0.59848,-2.577675 0.10124,-0.912182 -0.0333,0.177645 -0.2516,1.065032 -0.10124,0.912182 z m 1.35456,3.604474 c 1.31014,0.02782 2.62347,0.303686 3.9395,0.08286 1.57443,-0.567353 1.6597,1.88017 0.0817,1.589375 -1.30512,-0.152142 -2.61802,-0.598353 -3.74527,-1.274747 -0.0335,-0.06429 -0.60308,-0.442224 -0.27598,-0.397488 z m 2.24061,0.771475 c 0.63799,0.239288 2.01439,0.346063 2.22816,0.10873 -0.49214,-0.197758 -2.45149,-0.434016 -2.22816,-0.10873 z m -2.51391,-3.101497 c -0.20014,-0.662509 0.63092,-3.311303 0.46838,-1.385975 0.0276,0.206356 -0.43452,2.233646 -0.46838,1.385975 z m 1.0976,1.347335 c 1.37968,-0.09753 2.7718,-0.101318 4.15132,-0.0026 -1.27131,0.523823 -2.79817,0.510868 -4.09266,0.06422 l -0.077,-0.04528 0.0183,-0.01632 z m -0.0544,-1.033266 c 0.26087,-1.289153 0.55463,-2.898102 2.0722,-3.248003 0.85076,-0.06987 1.53577,0.0084 1.99793,-0.866381 0.62308,-0.634313 1.18844,-1.854611 1.96831,-0.637741 1.31972,-0.132288 2.67348,0.04952 3.97973,-0.295769 1.53991,-0.7464 1.91847,1.699704 0.2741,1.569909 -1.40274,-0.06312 -2.90747,-0.337419 -4.09716,-1.112097 -0.72345,0.161146 -1.66177,1.458692 -2.11148,2.135799 0.56057,1.686116 -1.29721,2.236413 -2.56731,2.336954 -0.32588,-0.04374 -1.58217,0.613459 -1.51632,0.117329 z m 1.03233,-0.92568 c 0.53149,-0.38036 1.50394,-1.673343 1.36609,-1.968627 -0.60493,0.432744 -1.34148,1.489044 -1.36609,1.968627 z m 0.47732,0.139312 c 0.62832,-0.15373 2.03002,-0.938847 1.92892,-1.211069 -0.6332,0.120477 -2.08879,0.965131 -1.92892,1.211069 z m 6.9278,-3.527974 c 0.68097,0.214845 2.09655,0.148126 2.31236,-0.08859 -0.58111,-0.155392 -2.22969,-0.19534 -2.31236,0.08859 z m -3.6153,-1.49151 c -0.54059,-1.294066 -1.45216,-2.941937 -0.52511,-4.271484 1.25834,-0.977847 0.93365,1.079015 0.56882,1.731098 -0.35559,0.853639 0.53457,2.578146 0.16442,2.822593 l -0.11708,-0.139964 -0.0911,-0.142252 z m -0.483,-2.355755 c 0.36386,-0.534466 0.53234,-2.755982 0.0794,-1.133718 -0.0682,0.285181 -0.19808,1.102103 -0.0794,1.133718 z m 1.30963,1.162943 c -0.11019,-0.617434 -0.0531,-2.081847 0.28216,-2.224036 0.11779,0.494886 0.006,2.492256 -0.28216,2.224036 z m 1.22909,1.169661 c 1.19167,-0.165722 3.31793,-0.511717 3.96485,-0.291187 -1.24077,0.518007 -2.71386,0.711149 -4.0136,0.309894 l 0.0487,-0.0187 z m -0.16713,-1.019393 c 0.16677,-1.222568 0.22112,-2.765006 1.54855,-3.319684 1.04046,-0.431355 2.07547,-0.08034 2.65546,-1.324735 0.32168,-0.880168 1.22696,-0.749527 1.39376,-0.03551 -0.88309,0.98295 -1.98959,1.748121 -1.75962,3.159453 -0.65245,1.20936 -2.35079,1.054048 -3.47558,1.626054 -0.0566,-0.0601 -0.57546,0.311955 -0.36257,-0.105583 z m 0.90653,-0.951505 c 0.4525,-0.4001 1.40851,-1.955228 1.05063,-1.973324 -0.45119,0.406137 -1.2589,1.744224 -1.05063,1.973324 z m 0.51323,0.110084 c 0.50627,-0.159355 2.1347,-1.29354 1.63417,-1.32411 -0.66882,0.2403 -1.59685,0.956478 -1.84653,1.393382 l 0.21238,-0.06928 z m 2.88846,-5.375323 c -0.46991,-1.188548 -1.22588,-2.713913 -0.34263,-3.894749 1.33491,-0.97917 0.84532,1.180338 0.54806,1.832767 -0.223,0.904227 0.32945,2.121886 0.32253,2.828763 -0.28022,-0.160583 -0.39336,-0.492159 -0.52796,-0.766781 z m -0.30713,-1.970682 c 0.35275,-0.470952 0.5511,-2.756022 0.0995,-1.198955 -0.0823,0.336612 -0.20799,1.078515 -0.0995,1.198955 z m 1.7238,3.394604 c 1.30176,-0.12507 2.63263,0.05817 3.92015,-0.279536 1.7419,-0.77755 1.7948,1.919738 0.0629,1.574696 -1.29554,-0.157856 -2.6804,-0.365659 -3.79558,-1.081723 l -0.21155,-0.181449 0.0241,-0.03198 z m 2.74246,0.595499 c 0.73351,0.204849 3.01988,-0.160046 1.17287,-0.274108 -0.22853,-0.04536 -2.55309,0.06527 -1.17287,0.274108 z m -3.16648,-2.952644 c -0.11888,-0.602189 0.0205,-2.077904 0.29456,-2.091477 0.16407,0.373861 -0.0909,2.923713 -0.29456,2.091477 z m 1.23281,1.287926 c 1.2084,-0.161835 3.26832,-0.501671 3.98131,-0.289137 -1.24898,0.512563 -2.72448,0.713756 -4.02842,0.304966 z m -0.16133,-0.990034 c 0.15514,-1.224511 0.20678,-2.774945 1.53448,-3.334078 1.19001,-1.020968 3.02688,0.4049 2.30634,1.784374 -0.65954,1.213134 -2.3659,1.05637 -3.49686,1.63344 -0.0458,-0.07039 -0.53624,0.300832 -0.34396,-0.08374 z m 1.13337,-1.140291 c 0.53367,-0.317509 1.97183,-2.634451 0.67826,-1.3255 -0.16373,0.109435 -1.51663,2.078907 -0.67826,1.3255 z m 0.39686,0.280216 c 0.56463,-0.04092 2.87817,-1.559556 1.27409,-0.973907 -0.18991,0.0027 -2.2677,1.287376 -1.27409,0.973907 z"
                                   id="path6356"
                                   sodipodi:nodetypes="cccscsssccccscccsccccccsscssscsssssssccsccsscssccccccccccscccccscscssscccccccssccccccccscccsscsscsscscscssscccccccccccccccccscsssscccccsscsccsscccccccccscccsssscssssscssscsscscsssscsssccssssscccsccsccccssscssssssssccscsscscscscccsccccccccccccsscccssssccssccsccccscsssccccccssccccccccccscsssccccccsscccsccsccscccccssscsssccssscssssssssssccsccccccssssscccccssssssccsscccscccccssssscsscsss" /><path
                                   style="fill:#75a056;stroke-width:0.016656"
                                   d="m 111.72354,112.99003 c 0.16519,-1.98034 3.28245,-2.76311 4.54785,-4.30714 2.59975,-1.18706 2.52293,-4.1811 3.543,-6.46327 0.19694,-1.21391 2.51803,-4.63707 2.42732,-1.75893 -0.029,1.21094 -2.09433,5.77228 0.36692,3.30104 2.62902,-2.05715 5.28958,-4.083403 7.85756,-6.212122 1.067,-2.77911 1.17476,-5.910945 2.52934,-8.584527 2.38781,-1.263848 0.82405,3.02969 0.62331,4.227091 -0.37019,1.11025 -0.90862,2.778154 0.52556,1.093736 3.00593,-2.778567 5.92725,-5.646859 8.87684,-8.484457 1.51495,1.448539 -2.18979,2.882363 -2.98463,4.327107 -1.89025,1.844751 -3.80772,3.66148 -5.73258,5.469612 2.05946,0.121502 4.36103,-0.434342 6.42964,0.313664 1.63103,2.224774 -3.50567,1.517194 -4.85916,1.948612 -2.75247,0.0505 -5.49433,0.480791 -7.41111,2.643354 -2.15121,1.77185 -4.66659,3.51336 -6.61021,5.30167 1.86357,0.22901 6.46477,-0.56455 6.20487,2.11766 -2.21504,0.87952 -4.74077,0.0959 -7.0826,0.18459 -2.49957,-0.72598 -4.02328,1.63607 -5.86728,2.83962 -0.88805,0.19435 -2.91102,3.24567 -3.38464,2.04269 z m 36.29162,-31.797753 c 0.42947,-0.982368 2.53078,-2.041076 1.93027,-0.466262 -0.91632,0.638881 -0.9946,1.784967 -1.93027,0.466262 z m 6.46661,-6.163694 c 0.64611,-0.75168 2.33308,-3.046631 2.50179,-1.17623 -0.90836,0.575369 -1.60539,2.837095 -2.50179,1.17623 z m 6.57732,-7.051769 c 0.51158,-0.854091 2.44527,-2.745174 2.19785,-0.925472 -0.85027,0.559222 -1.30564,2.490376 -2.19785,0.925472 z"
                                   id="path6354" /></g></g></g></g></g></g></g></g></g></g></g></g></g></g></g></g></g></g></g></g></g></g></g></g></g></g></g></g></g></g></g></g></g></g></g></g></g></g></g></svg>
