<?xml version="1.0" encoding="UTF-8" standalone="no"?>
<svg
   width="64"
   height="64"
   version="1.1"
   viewBox="0 0 16.933 16.933"
   id="svg146"
   sodipodi:docname="fleur_dhibiscus.svg"
   inkscape:version="1.2 (dc2aedaf03, 2022-05-15)"
   xml:space="preserve"
   xmlns:inkscape="http://www.inkscape.org/namespaces/inkscape"
   xmlns:sodipodi="http://sodipodi.sourceforge.net/DTD/sodipodi-0.dtd"
   xmlns="http://www.w3.org/2000/svg"
   xmlns:svg="http://www.w3.org/2000/svg"><defs
     id="defs150"><pattern
       id="EMFhbasepattern"
       patternUnits="userSpaceOnUse"
       width="6"
       height="6"
       x="0"
       y="0" /><pattern
       id="EMFhbasepattern-1"
       patternUnits="userSpaceOnUse"
       width="6"
       height="6"
       x="0"
       y="0" /><pattern
       id="EMFhbasepattern-4"
       patternUnits="userSpaceOnUse"
       width="6"
       height="6"
       x="0"
       y="0" /><pattern
       id="EMFhbasepattern-0"
       patternUnits="userSpaceOnUse"
       width="6"
       height="6"
       x="0"
       y="0" /><pattern
       id="EMFhbasepattern-7"
       patternUnits="userSpaceOnUse"
       width="6"
       height="6"
       x="0"
       y="0" /><pattern
       id="EMFhbasepattern-13"
       patternUnits="userSpaceOnUse"
       width="6"
       height="6"
       x="0"
       y="0" /><pattern
       id="EMFhbasepattern-9"
       patternUnits="userSpaceOnUse"
       width="6"
       height="6"
       x="0"
       y="0" /><pattern
       id="EMFhbasepattern-44"
       patternUnits="userSpaceOnUse"
       width="6"
       height="6"
       x="0"
       y="0" /><pattern
       id="EMFhbasepattern-90"
       patternUnits="userSpaceOnUse"
       width="6"
       height="6"
       x="0"
       y="0" /><pattern
       id="EMFhbasepattern-6"
       patternUnits="userSpaceOnUse"
       width="6"
       height="6"
       x="0"
       y="0" /><pattern
       id="EMFhbasepattern-76"
       patternUnits="userSpaceOnUse"
       width="6"
       height="6"
       x="0"
       y="0" /><pattern
       id="EMFhbasepattern-93"
       patternUnits="userSpaceOnUse"
       width="6"
       height="6"
       x="0"
       y="0" /><pattern
       id="EMFhbasepattern-96"
       patternUnits="userSpaceOnUse"
       width="6"
       height="6"
       x="0"
       y="0" /><pattern
       id="EMFhbasepattern-2"
       patternUnits="userSpaceOnUse"
       width="6"
       height="6"
       x="0"
       y="0" /><pattern
       id="EMFhbasepattern-8"
       patternUnits="userSpaceOnUse"
       width="6"
       height="6"
       x="0"
       y="0" /></defs><sodipodi:namedview
     id="namedview148"
     pagecolor="#ffffff"
     bordercolor="#666666"
     borderopacity="1.0"
     inkscape:pageshadow="2"
     inkscape:pageopacity="0.0"
     inkscape:pagecheckerboard="0"
     showgrid="false"
     inkscape:zoom="16.000001"
     inkscape:cx="45.374998"
     inkscape:cy="29.624999"
     inkscape:window-width="1920"
     inkscape:window-height="1017"
     inkscape:window-x="1912"
     inkscape:window-y="-8"
     inkscape:window-maximized="1"
     inkscape:current-layer="g535"
     inkscape:showpageshadow="0"
     inkscape:deskcolor="#d1d1d1" /><g
     transform="translate(-.63104 .12621)"
     id="g144"><g
       transform="translate(.089242 .089243)"
       id="g142"><g
         transform="translate(-.063104 .94656)"
         id="g140"><g
           transform="translate(-.089243 -.80319)"
           id="g138"><g
             transform="translate(.31235 -.044621)"
             id="g136"><g
               transform="translate(-.12621 .063104)"
               id="g134"><g
                 transform="translate(-.23576 .66462)"
                 id="g132"><g
                   transform="translate(-121.98 -82.268)"
                   id="g130"><g
                     transform="matrix(.13267 0 0 .13267 114.64 78.216)"
                     id="g128"><g
                       transform="translate(.90513 5.6641)"
                       id="g126"><g
                         transform="translate(-3.3634 -8.7449)"
                         id="g124"><g
                           id="g2243"
                           transform="matrix(1.1930023,0,0,1.1930023,-33.651497,-20.118288)"><g
                             id="g2622"
                             transform="translate(-3.5913905,-3.2649007)"><g
                               id="g3762"
                               transform="translate(-4.1555401,0.11543139)"><g
                                 id="g932"
                                 transform="translate(3.9178806,-0.97947018)"><g
                                   id="g1493"
                                   transform="translate(-5.6814412,-2.5586263)"><g
                                   id="g2924"
                                   transform="matrix(1.4252606,0,0,1.4252606,-67.958484,-35.929956)"><g
                                   id="g3496"
                                   transform="translate(-1.2958378,1.9437573)"><g
                                   id="g6616"
                                   transform="translate(-2.0796661,3.1194989)"><g
                                   id="g212"
                                   transform="translate(0.7798745,-0.25995826)"><g
                                   id="g393"
                                   transform="translate(-1.2867276,-2.205819)"><g
                                   id="g459"
                                   transform="translate(1.2867273,2.7572737)"><g
                                   id="g548"
                                   transform="translate(0.91909145,-0.73527303)"><g
                                   id="g618"
                                   transform="translate(0.12997889,1.949687)"><g
                                   id="g679"
                                   transform="translate(1.4705459,-1.654364)"><g
                                   id="g745"
                                   transform="translate(-3.0330013,-2.0220003)"><g
                                   id="g810"
                                   transform="translate(-0.90985432,-1.2997913)"><g
                                   id="g2487"
                                   transform="translate(-1.4660728,-1.9058949)"><g
                                   id="g221"
                                   transform="translate(1.4513385,-0.4146681)"><g
                                   id="g344"><g
                                   id="g421"
                                   transform="translate(0.41466801,1.2440044)"><g
                                   id="g535"
                                   transform="translate(2.1991096,0.87964369)"><path
                                   style="fill:#fd5ab1;stroke-width:0.0220222"
                                   d="m 153.56311,114.50036 c -2.98575,0.856 -5.56049,-1.84615 -8.57283,-1.68616 -19.62279,6.9713 -7.75939,-6.27089 -13.38528,-13.197936 -2.80019,-1.76389 -5.85391,-4.487372 -5.28179,-8.160465 0.85387,-2.603114 2.1806,-4.83148 1.72245,-7.651453 1.86358,-3.122045 6.04387,-3.726072 9.36876,-3.975079 1.69789,-0.729816 5.45302,1.623589 5.9397,0.274043 -0.9494,-0.90345 -2.82355,-1.685546 -1.31605,-2.788413 0,0 3.40115,-6.799686 5.06338,-5.350511 3.31208,0.931439 5.73486,-1.720136 8.91505,-1.392468 6.19338,-1.246951 16.18671,-10.501188 15.4193,8.291133 -2.0849,3.665716 3.33717,1.001245 5.14002,2.715155 4.47882,1.126759 -0.64826,6.075066 3.24784,7.632531 3.0447,1.150161 5.2104,4.772846 3.53797,7.869247 -1.34631,3.544106 -5.98288,2.43783 -7.98135,5.130436 -0.48717,2.94613 -2.8718,6.23366 -6.27653,4.98175 -3.21448,8.43844 -11.29505,1.96345 -15.54064,7.30819 z m -13.74318,-1.15842 c -0.12135,-0.0332 -0.0224,0.0355 0,0 z m 0.36291,-0.0208 c -0.0898,-0.0462 -0.0163,0.0522 0,0 z m 15.94314,-4.08697 c -0.0449,0.01 0.0321,0.098 0,0 z M 145.42893,81.507494 c -0.67773,-0.538078 0.40793,0.600153 0,0 z"
                                   id="path553"
                                   sodipodi:nodetypes="ccccccccccccccccccccccccc" /><path
                                   style="fill:#fd3199;stroke-width:0.0220222"
                                   d="m 143.50316,104.2305 c -1.50447,-1.89903 -0.18899,-4.400658 1.05959,-6.047493 0.43537,-0.987891 3.68611,-3.247002 1.22946,-3.436014 -0.83862,0.137361 -2.19226,1.3919 -1.37362,-0.235176 0.77077,-1.290161 4.29804,-1.909364 3.02316,-3.602907 -2.09447,-0.936605 -4.48927,0.220196 -6.47356,1.022551 -2.06995,0.60137 -3.44567,2.981988 -5.45018,3.218912 -0.55084,-1.555102 1.51861,-2.963263 2.68137,-3.833543 1.22396,-0.131984 3.30551,-1.660832 1.15459,-2.342068 -1.79424,-0.339066 -1.83465,-1.755181 -0.0742,-2.093102 2.65352,-0.618852 5.1534,0.881134 7.62797,1.565023 1.33451,0.736036 1.32601,-1.54452 1.73669,-1.165186 0.71767,0.897587 2.99979,2.214171 1.96955,0.03704 -0.88199,-2.790506 -3.22323,-4.708966 -5.23854,-6.686242 -0.0483,2.072585 -2.81349,0.711641 -2.20389,-0.698177 -0.79058,-0.558181 -2.5385,-1.732544 -1.12176,-2.618383 -1.71837,-0.529836 -4.04642,-1.283745 -3.33287,-3.572764 -0.66371,-1.296156 -3.41195,-1.895312 -2.15372,-3.562602 -1.14472,-0.02611 -2.69453,-1.159921 -1.01963,-1.919372 1.94416,-1.240124 3.07662,2.514807 2.92355,2.528968 0.61513,-1.730407 3.34552,0.486578 1.26064,1.148698 0.005,1.195668 1.61121,2.910505 1.72764,3.25271 -1.35998,-1.849146 2.80202,-3.527247 1.85838,-0.794038 -1.50551,1.608054 1.07601,2.178276 2.01718,2.328135 0.85025,1.031829 1.38708,2.580915 0.84229,3.544066 1.65841,1.914305 4.40215,2.69632 5.61134,5.02795 2.18012,0.360646 0.90411,-3.115669 1.36072,-4.454924 0.1977,-1.762592 1.94003,-4.942141 3.92598,-3.413181 0.22548,1.627832 -1.08849,3.042419 -1.02019,4.705339 -0.44387,1.332081 1.01232,2.501306 1.50345,2.929844 -0.39088,0.772536 -1.21788,3.064274 -0.65292,3.208819 1.18955,-3.336778 4.1579,-5.69798 7.4466,-6.798906 2.23658,-0.868226 5.04672,-0.773275 6.65589,-2.840059 1.36484,-1.441771 0.12068,-3.210053 -0.24021,-4.757118 -0.44625,-1.914716 -1.14349,-3.836566 -1.1135,-5.814292 0.97209,1.352024 1.10015,3.384209 1.45456,5.062598 0.23428,2.164073 0.65384,4.403412 0.25276,6.562224 -0.8688,2.030623 -3.46026,1.839108 -5.18733,2.648441 -3.17624,1.778324 -6.41579,3.66703 -8.82192,6.469534 2.79447,-0.681107 5.04801,-3.42047 8.12682,-2.816226 2.20954,1.046878 -3.69447,2.627415 -0.66963,3.330227 3.3289,0.808794 6.96594,0.623823 10.01229,2.383397 -1.24508,1.601363 -3.48808,0.807046 -5.16672,0.568501 -2.15793,-0.305746 -4.43028,-0.678217 -6.54265,0.08177 -1.7703,1.226163 1.47606,1.478124 2.28879,1.747036 2.51733,1.30786 -0.77727,2.51397 -2.08177,1.434447 -2.33929,-0.507328 -4.75098,-0.672253 -7.12776,-0.833457 -1.96837,0.506575 -1.65162,3.05877 -2.82516,4.334864 -1.21471,0.910323 -1.95439,-0.163048 -1.77354,-1.348836 -1.22786,-2.102956 -3.2623,0.419925 -3.93933,1.74185 -1.06193,1.789505 -1.78016,4.388795 -4.14666,4.801115 z m 1.2298,-25.831579 c -1.52615,-1.648025 -0.18917,1.382983 0,0 z"
                                   id="path551"
                                   sodipodi:nodetypes="ccccccccccccccccccccccccccccccccccccccccccccccc" /><path
                                   style="fill:#fdb900;stroke-width:0.0220222"
                                   d="m 153.56708,93.23256 c -1.897,-1.86072 -1.66254,-5.10348 -3.4354,-7.207457 -1.21272,-2.098528 -3.02582,-3.734005 -4.75671,-5.392771 0.0781,1.881326 -2.79082,1.108166 -2.01909,-0.529501 -0.9247,-0.909183 -2.85635,-1.666545 -1.30429,-2.786735 -1.2986,-0.702067 -3.91027,-0.764008 -3.27915,-2.963941 0.19897,-1.850681 -2.63377,-1.731658 -2.58498,-3.482312 1.8659,-1.429584 -2.81558,-0.343519 -1.01852,-2.425887 2.04516,-1.175072 3.30764,0.916318 3.25277,2.692125 0.18793,-2.140388 3.56665,-0.279584 1.3075,0.948258 0.1118,0.923063 1.36057,2.5694 1.85076,3.29503 -1.50457,-2.006824 2.5676,-4.004265 1.73334,-0.981998 -1.28478,1.569269 0.35545,2.238437 1.88887,2.083244 0.64317,1.299441 2.01398,2.719259 0.79306,3.584627 3.85061,2.949981 6.54351,7.083196 9.30112,11.004225 0.67101,1.100334 -0.58403,2.429015 -1.72928,2.163093 z m -8.83412,-14.833639 c -1.7717,-1.594373 0.0533,1.522215 0,0 z"
                                   id="path549"
                                   sodipodi:nodetypes="cccccccccccccccccc" /><path
                                   style="fill:#fd8100;stroke-width:0.0220222"
                                   d="m 150.052,84.006288 c 0.0271,-0.04988 0.0716,0.134441 0,0 z m -0.28628,-0.352357 c 0.0271,-0.04987 0.0716,0.134441 0,0 z M 149.65549,83.5218 c 0.0271,-0.04987 0.0716,0.134441 0,0 z m -6.30002,-3.42295 c -1.04898,-0.781503 -2.70164,-1.710636 -1.32024,-2.788103 -2.07535,-0.490372 0.51024,-3.160229 0.89415,-1.071638 -1.77746,1.62026 0.8006,1.803015 1.64694,2.509162 0.77513,1.483776 -0.61046,0.924092 -1.22085,1.350579 z m 1.2086,-1.84027 c -1.38963,-0.697578 0.48558,-3.35409 1.12786,-0.840802 0.0184,0.49374 -0.77537,0.728768 -1.12786,0.840802 z m -5.40606,-2.242176 c -1.69438,-1.101057 0.6368,-5.140998 1.33968,-2.05552 -0.21839,1.044216 -0.11679,1.196168 -1.33968,2.05552 z m 4.07644,-1.821051 c -0.76855,-0.784939 -2.72567,-0.109358 -0.96506,-1.481571 0.91248,-0.327263 1.66014,1.198388 0.96506,1.481571 z m -6.22218,-1.976247 c -2.91354,-1.008409 2.10354,-3.336083 1.18904,-0.903739 -0.68431,0.01326 -0.45439,1.186143 -1.18904,0.903739 z m 2.72942,-0.300453 c -0.50672,-0.692166 -2.00183,-1.287263 -0.2759,-1.917382 1.18024,-0.11887 1.50593,1.790037 0.2759,1.917382 z m -4.11159,-1.795772 c -2.48565,-1.836299 2.88522,-2.996522 0.81639,-0.262165 0.2188,0.332267 -0.60127,0.301612 -0.81639,0.262165 z"
                                   id="path545"
                                   sodipodi:nodetypes="ccccccccccccccccccccccccccccc" /><path
                                   style="fill:#00aca0;stroke-width:0.0220222"
                                   d="m 167.81581,126.74852 c -2.39854,-1.58701 -2.4507,-5.09272 -4.45591,-6.98741 -2.94354,0.15018 -3.28682,-6.20125 -6.12019,-2.91212 -2.39225,-1.79598 -2.26812,-4.30438 -1.21033,-6.79321 -0.0436,-3.48586 2.41675,-6.2294 2.99422,-9.54698 0.26515,-1.230066 -0.67642,-3.663066 1.20708,-1.728546 3.16175,2.570806 4.67297,7.078566 8.81827,8.404146 0.39653,2.19559 1.7961,4.93096 0.6969,6.94317 -2.13457,1.48287 -0.57356,4.55572 -0.52226,6.67247 0.0917,1.75887 0.86153,5.42127 -1.40778,5.94848 z m -42.55968,-3.49005 c -1.44618,-1.77079 0.3732,-4.65353 0.28323,-6.83603 0.17732,-2.74947 1.12671,-5.34198 2.17397,-7.77816 -1.02055,-2.14941 2.25728,-3.30879 1.95376,-5.43225 1.53568,-1.79565 4.4242,-3.18235 6.11876,-3.513546 -1.56547,2.136076 -2.88031,5.082516 -1.15282,7.535906 2.07281,1.86484 2.39849,6.33952 5.77593,6.0636 1.23317,-0.22457 -1.94088,3.08365 -2.92988,1.61789 -1.83414,1.03015 -2.94955,3.51862 -5.04314,2.3252 -2.26542,1.96747 -3.78041,5.09843 -6.81574,6.03489 l -0.36508,-0.0184 z"
                                   id="path543"
                                   sodipodi:nodetypes="cccccccccccccccccccccc" /></g></g></g></g></g></g></g></g></g></g></g></g></g></g></g></g></g></g></g></g></g></g></g></g></g></g></g></g></g></g></g></g></svg>
