<?xml version="1.0" encoding="UTF-8" standalone="no"?>
<!-- Created with Inkscape (http://www.inkscape.org/) -->

<svg
   width="64"
   height="64"
   viewBox="0 0 16.933333 16.933334"
   version="1.1"
   id="svg5"
   inkscape:version="1.2 (dc2aedaf03, 2022-05-15)"
   sodipodi:docname="flute.svg"
   xmlns:inkscape="http://www.inkscape.org/namespaces/inkscape"
   xmlns:sodipodi="http://sodipodi.sourceforge.net/DTD/sodipodi-0.dtd"
   xmlns="http://www.w3.org/2000/svg"
   xmlns:svg="http://www.w3.org/2000/svg">
  <sodipodi:namedview
     id="namedview7"
     pagecolor="#ffffff"
     bordercolor="#666666"
     borderopacity="1.0"
     inkscape:pageshadow="2"
     inkscape:pageopacity="0.0"
     inkscape:pagecheckerboard="0"
     inkscape:document-units="mm"
     showgrid="false"
     units="px"
     inkscape:zoom="16.000001"
     inkscape:cx="14.687499"
     inkscape:cy="38.249998"
     inkscape:window-width="1920"
     inkscape:window-height="1017"
     inkscape:window-x="1912"
     inkscape:window-y="-8"
     inkscape:window-maximized="1"
     inkscape:current-layer="g6976"
     inkscape:showpageshadow="0"
     inkscape:deskcolor="#d1d1d1" />
  <defs
     id="defs2" />
  <g
     inkscape:label="Calque 1"
     inkscape:groupmode="layer"
     id="layer1">
    <g
       id="g4128"
       transform="translate(-0.63104184,0.12620835)">
      <g
         id="g5578"
         transform="translate(0.08924235,0.08924306)">
        <g
           id="g7501"
           transform="translate(-0.06310417,0.94656242)">
          <g
             id="g9467"
             transform="translate(-0.08924275,-0.80318511)">
            <g
               id="g10302"
               transform="translate(0.31234979,-0.04462139)">
              <g
                 id="g11479"
                 transform="translate(-0.12620833,0.06310418)">
                <g
                   id="g11873"
                   transform="translate(-0.23575769,0.66462456)">
                  <g
                     id="g12382"
                     transform="translate(-121.98459,-82.267525)">
                    <g
                       id="g13305"
                       transform="matrix(0.13266609,0,0,0.13266609,114.63867,78.215696)">
                      <g
                         id="g17429"
                         transform="translate(0.90513437,5.6640979)">
                        <g
                           id="g18595"
                           transform="translate(-3.3634362,-8.7449387)">
                          <g
                             id="g21002"
                             transform="translate(1.7082278,-2.8204445)">
                            <g
                               id="g23814"
                               transform="translate(8.7253043,-1.1218249)">
                              <g
                                 id="g24838"
                                 transform="translate(11.143454,-0.85716864)">
                                <g
                                   id="g25315"
                                   transform="translate(-3.490122,2.4929446)">
                                <g
                                   id="g27220"
                                   transform="translate(2.4678888,1.2339445)">
                                <g
                                   id="g29753"
                                   transform="translate(1.4759287,-2.3737724)">
                                <g
                                   id="g30615"
                                   transform="translate(0.92006037,1.3687834)">
                                <g
                                   id="g31433"
                                   transform="translate(-2.4678886,-1.410222)">
                                <g
                                   id="g31731"
                                   transform="translate(1.0576664,-0.70511063)">
                                <g
                                   id="g33243"
                                   transform="matrix(1.0772948,0,0,1.0772948,-7.3729128,-3.1743014)">
                                <g
                                   id="g35254"
                                   transform="translate(-2.2135012,-0.92031205)">
                                <g
                                   id="g36749"
                                   transform="translate(-0.98178042,-2.7817105)">
                                <g
                                   id="g37297"
                                   transform="translate(-6.7755742,-3.5033798)">
                                <g
                                   id="g38955"
                                   transform="matrix(1.2171094,0,0,1.2171094,-23.105122,-18.212482)">
                                <g
                                   id="g39618"
                                   transform="translate(-0.26888273,-0.26888316)">
                                <g
                                   id="g40032"
                                   transform="translate(-1.90129,-3.042064)">
                                <g
                                   id="g40543"
                                   transform="translate(0.3802582,-2.0914191)">
                                <g
                                   id="g41372"
                                   transform="translate(1.9657652,-7.9304203)">
                                <g
                                   id="g43278"
                                   transform="translate(1.5210324,-0.38025789)">
                                <g
                                   id="g44210"
                                   transform="matrix(1.1578947,0,0,1.1578947,-18.904476,-21.776183)">
                                <g
                                   id="g44833"
                                   transform="matrix(1.1196819,0,0,1.1196819,-12.538538,-14.547543)">
                                <g
                                   id="g47597"
                                   transform="translate(3.1109352,-1.2443743)">
                                <g
                                   id="g48754"
                                   transform="translate(-2.9035392,-6.6366609)">
                                <g
                                   id="g234"
                                   transform="matrix(0.04089637,0,0,0.04089637,104.63967,119.67231)">
                                <g
                                   id="g2138"
                                   transform="translate(-86.211222,-40.569988)">
                                <g
                                   id="g2696"
                                   transform="translate(-124306.44,-9412.2373)">
                                <g
                                   id="g3765"
                                   transform="translate(25.356243,-50.712489)">
                                <g
                                   id="g4557"
                                   transform="translate(46.61688,-35.859142)">
                                <g
                                   id="g5244"
                                   transform="translate(7.1718407,14.343658)">
                                <g
                                   id="g5807"
                                   transform="translate(-5.1984397,-21.113724)">
                                <g
                                   id="g6945"
                                   transform="translate(-10.142522,-243.41993)">
                                <g
                                   id="g11108"
                                   transform="translate(18.189368,-37.636113)">
                                <g
                                   id="g15049"
                                   transform="translate(-65.926228,141.99496)">
                                <g
                                   id="g19861"
                                   transform="matrix(0.07356842,0,0,0.07356842,115423.38,9039.2311)">
                                <g
                                   id="g20437"
                                   transform="translate(-478.38824,-785.88156)">
                                <g
                                   id="g21032"
                                   transform="translate(2047.1878,-1072.3367)">
                                <g
                                   id="g21869"
                                   transform="matrix(0.04321578,0,0,0.04321578,117368,10137.003)">
                                <g
                                   id="g25455"
                                   transform="translate(154741.46,-87178.414)">
                                <g
                                   id="g26278"
                                   transform="translate(-18012.371,-8233.4417)">
                                <g
                                   id="g27240"
                                   transform="translate(-0.00447131,5582.7624)">
                                <g
                                   id="g28306"
                                   transform="translate(-15790.441,-2255.7767)">
                                <g
                                   id="g33735"
                                   transform="translate(14662.549,-16918.328)">
                                <g
                                   id="g37868"
                                   transform="translate(-5075.4976,25941.433)">
                                <g
                                   id="g76752"
                                   transform="matrix(-1,0,0,1,9442.3174,-1595.0746)">
                                <g
                                   id="g82459"
                                   transform="translate(3383.6668,-1127.8885)">
                                <g
                                   id="g83208"
                                   transform="matrix(0.20332428,0,0,0.20332428,-15348.528,66747.475)">
                                <g
                                   id="g83934"
                                   transform="matrix(-1,0,0,1,240692.18,94139.78)">
                                <g
                                   id="g84550"
                                   transform="translate(-8.7627443e-5,55472.344)">
                                <g
                                   id="g1274"
                                   transform="translate(-66682.337,-43147.393)">
                                <g
                                   id="g2352"
                                   transform="translate(-74780.623,-22188.943)">
                                <g
                                   id="g4123"
                                   transform="translate(-47069.882,-15689.961)">
                                <g
                                   id="g5928">
                                <g
                                   id="g12050"
                                   transform="translate(78161.555,35375.784)">
                                <g
                                   id="g1093"
                                   transform="matrix(0.06385153,0,0,0.06385153,-151090.08,201736.02)">
                                <g
                                   id="g1970"
                                   transform="translate(-477269.04,568882.2)">
                                <g
                                   id="g1097"
                                   transform="rotate(180,7281171.5,-2851818.8)">
                                <g
                                   id="g1814"
                                   transform="translate(2547662.7,480719.64)">
                                <g
                                   id="g3865"
                                   transform="translate(552882.75,-3993042.7)">
                                <g
                                   id="g4873"
                                   transform="matrix(-1,0,0,1,8458829.5,2171928.6)">
                                <g
                                   id="g7483"
                                   transform="matrix(1.1002204,0,0,1.1002204,477121.62,-2453467.8)">
                                <g
                                   id="g8018"
                                   transform="translate(0.2655037,670026.67)">
                                <g
                                   id="g13730"
                                   transform="translate(446684.45,111671.19)">
                                <g
                                   id="g14695"
                                   transform="translate(-394816.71,-1342377.9)">
                                <g
                                   id="g16168"
                                   transform="translate(-344955.87,1017335.2)">
                                <g
                                   id="g16839"
                                   transform="matrix(0.60827628,0,0,0.60827628,1436551,1438799.3)">
                                <g
                                   id="g1538"
                                   transform="translate(-780037.37,-179302.73)">
                                <g
                                   id="g2335"
                                   transform="translate(-2294827.3,-2661999.6)">
                                <g
                                   id="g2976"
                                   transform="matrix(0.01824278,0,0,0.01824278,4237702.3,-736203.59)">
                                <g
                                   id="g5263"
                                   transform="translate(167225240,-437632020)">
                                <g
                                   id="g1460"
                                   transform="translate(70444475,-5031751)">
                                <g
                                   id="g1976"
                                   transform="matrix(0.82103298,0,0,0.82103298,22231863,-28054828)">
                                <g
                                   id="g6976"
                                   transform="translate(-91004408,3.5274086)">
                                <path
                                   style="fill:#cadce5;stroke-width:2.34332e+06"
                                   d="m -1185249300,-1599428400 c -16883600,171839900 -32745800,343777800 -48652400,515710200 -89606800,-19237900 -146980600,200413180 -146064800,163971970 -8893900,106723000 42985300,423879540 -12429100,339611510 156777200,72738930 334285600,69877980 503299340,81777990 519164350,16869240 1039707680,-20013630 1553049030,-97578690 76506280,-20650230 280039060,-139768630 239771020,-81258170 -14950030,-85120510 -73694020,-702664910 -43041380,-403510410 -16570000,-176654300 -32443240,-353379900 -50858160,-529855200 H -979851270 c -15052010,149886000 -30885530,299538700 -61993530,447083100 -9972900,-156202100 72644670,-440836300 -133402800,-447129400 l -6941400,3928300 z m 193334500,8982600 c 1992320,8832600 1873250,-11244400 0,0 z m -3549340,63559300 c -2078910,10251200 7828090,-12163500 0,0 z m -44308860,322999200 c 8843300,9141700 1835100,-8621700 0,0 z m -364900,26842300 c 3085000,8885000 5259600,-9074500 0,0 z"
                                   id="path6990"
                                   sodipodi:nodetypes="ssssccccccccssssssssss" />
                                <path
                                   style="fill:#fdce86;stroke-width:2.34332e+06"
                                   d="m -1422882900,-226807160 c 760800,40921160 969800,42474550 7120500,52937000 18753000,31899390 70932000,62714040 146565000,86554748 15205000,4793027 24019000,8758159 24019000,10805752 0,1778814 -14170400,59898541 -31489800,129154802 -156485800,625751768 -231209700,1003135658 -250895400,1267117358 -4488200,60186100 -4525400,163270900 -74100,205210500 8433000,79452600 27188400,133731600 57724100,167055900 24983500,27265100 50896100,39206400 85307600,39312200 42592000,131000 77192200,-17016500 118337700,-58646600 43885300,-44402400 80313000,-99743400 126655200,-192414600 107722800,-215415200 221907480,-565323100 381580250,-1169316670 47297690,-178912740 47257930,-178771580 45890440,-162860740 -7600730,88434930 -22484300,340365010 -29695210,502642140 -4017740,90417270 -4047460,398267970 -44290,459290770 12842680,195770200 38148220,316396900 81754200,389706400 43549670,73215000 114847580,95512900 179715640,56205000 95408770,-57814700 175774540,-274771900 237376240,-640825960 4918810,-29229030 9225390,-52861600 9570160,-52516830 344800,344770 2218820,33222630 4164530,73061910 27036620,553586980 80984210,845207280 178043696,962437180 42141781,50899400 99179276,65770500 153309034,39971500 33918750,-16166200 68977840,-59100800 93940270,-115042900 57640880,-129175900 93903200,-359492600 111151230,-705966400 7673620,-154146080 12782130,-359628200 13282670,-534276950 213240,-74401840 970370,-104133060 2387020,-93732800 1141100,8377370 6876360,52666120 12745010,98419440 101545420,791670210 203764570,1181009610 338443160,1289087910 52035770,41758100 117988760,39620700 163830660,-5309500 55560600,-54455800 87377500,-167918300 101422190,-361682000 3953880,-54550000 3948730,-304723300 0,-381961100 C 924310680,835912870 901959150,581237570 848557690,94206126 840220160,18165391 832918610,-46794721 832332540,-50149418 c -998720,-5714186 -239720,-6284785 12002490,-9024595 9899400,-653679507 -2181878930,-219919367 -2267217930,-167633147 z"
                                   id="path6986"
                                   sodipodi:nodetypes="cssssssssssssssssssssssssssssscsscc" />
                                <path
                                   style="fill:#fdc46d;stroke-width:2.34332e+06"
                                   d="m -1422881600,-225273930 c 756000,39249910 997000,40989830 7119200,51403770 14216600,24182830 49676400,49274400 96769400,68474390 89172200,43217282 81987100,388200 100039700,-69144110 12870400,-50668900 24140600,-92906070 25044800,-93860270 4792500,-5057360 110320600,-25333170 191263800,-36748650 72002010,-10154550 211511630,-24954250 213786620,-22679360 476980,477100 -9268650,40796270 -21656940,89598250 -112223620,436861680 -233457280,914705130 -348214880,1290853910 -17679700,57312700 -65852600,201479300 -85740000,256593600 -61945700,171670700 -128420800,316218600 -180880900,393319000 -5565800,8180100 -9220100,15722000 -8120600,16759800 4305400,4063900 26239100,9835000 41835500,11007500 63602200,4781500 123502300,-39485200 189291100,-139887900 112519100,-171719500 233073480,-505773500 390696800,-1082613890 79721960,-294998630 150231610,-568559309 221226150,-849796570 88535900,-4853170 175582760,-6591460 267569460,-9274860 l 35379230,-1387020 -1811010,13703970 c -996050,7537290 -3525500,34266840 -5620990,59398950 -2095510,25132110 -6389410,74693330 -9542020,110136040 -3152610,35442720 -7365570,82894948 -9362150,105449403 -21516000,221486917 -47984390,501987497 -66811350,664331227 -43828710,312307240 -69044360,652136750 -186525690,937021650 -7013120,16586300 -12257440,30650600 -11654090,31254000 2412660,2412600 19793020,5265200 32402010,5317900 19391300,81100 35833470,-3915500 55769190,-13555900 22385770,-10825200 56284210,-43744500 76196110,-73995300 67267710,-102194900 121271750,-284557300 172523520,-582582400 5208560,-30287410 10430840,-60340490 11605050,-66784620 5377360,-29511210 28861510,-198953010 39460460,-284713390 44068440,-365835930 58755360,-573222531 92226837,-903636690 75380048,48190 150755450,2800740 225961173,6685250 -13874710,553562680 22993940,1036306800 -7637200,1637440550 -14941320,285298500 -40605364,477621700 -81994681,614458300 -5820152,19241900 -10819931,36226000 -11110619,37742500 -365699,1907800 5920516,2967700 20405938,3440500 147788882,4824100 228394322,-248125500 257838582,-809128700 16940310,-566405770 20120680,-808142010 12228200,-1396321410 l -1884170,-79375750 17130580,1455440 c 9421810,800470 43492920,3608940 75713570,6241430 51987970,4247270 163592350,15798900 193946310,20074280 13226170,1862940 11589360,-3211990 18059740,55993870 30540110,319573773 79909020,659338050 100932200,939170190 -166380,10453790 1250160,23462960 3317900,30463160 5992580,20287770 28888220,294729790 39824970,477366790 7645780,127678600 9297820,182876900 9362730,312833200 67960,135570000 -1688590,183474300 -9408430,256593600 -4138540,39198100 -13197110,96221100 -19415580,122220400 l -4291560,17942600 6305880,1261200 c 9109190,1821800 33939710,-2153500 49276280,-7889000 18467940,-6906600 43387510,-26575700 57755340,-45586900 34635920,-45829300 59474410,-123516600 73341950,-229391800 35676350,-272381500 11833760,-713292610 -85544550,-1581944731 -5771600,-51485061 -10493860,-94287911 -10493860,-95117446 0,-829535 5938210,-2837058 13196180,-4461447 21550810,-4822787 54641540,-16404178 74678330,-26136454 54244590,-26347592 83444280,-64968782 94069280,-124421862 9197300,-51463290 1553900,-175833360 -15788320,-256897470 -23126690,-108102270 -65855500,-193805220 -129645130,-260033770 -47408890,-49221670 -94018230,-79273350 -153413200,-98913650 -34545930,-11423450 -64297660,-16401600 -98022730,-16401600 -53281950,0 -89975770,12240570 -291231600,97151000 -150492180,63492960 -230810984,95120050 -310489945,122261320 -140899375,47994710 -241836025,69256120 -329236505,69350320 -789332470,-187780890 -1110791070,-1051645810 -1108001370,327913660 z m 751182040,-111446660 c -778660,778690 -2799800,861880 -4491370,185120 -1869340,-747980 -1314090,-1303350 1415760,-1415830 2470230,-100760 3854270,452260 3075610,1230950 z m 308632740,36884560 c -13972140,14425480 -22420930,33621260 -22946140,52133720 -1189400,41924570 45734960,10890340 54655460,-36147350 3581700,-18886230 -598200,-28510240 -12382710,-28510240 -5622000,0 -9849850,2739810 -19326610,12523870 z m -672384380,10814420 c -15092000,6283620 -29852300,34894850 -31236000,60547410 -1024500,18994720 2505400,26250340 12771000,26250340 23481700,0 48785100,-66392110 32261900,-84650090 -4319600,-4773110 -6628200,-5132340 -13796900,-2147660 z m 397729290,1651360610 c -9480420,3814400 -13776290,28919500 -8927700,52173500 10228100,49054200 41829420,53577500 42007630,6012800 131220,-35018200 -16770870,-64748200 -33079930,-58186300 z"
                                   id="path6984"
                                   sodipodi:nodetypes="csccsssccsssssccccssscccssssssccccssscccsssccssssscsssssssssssssssccsscssssssssssssssss" />
                                <path
                                   style="fill:#d8b98d;stroke-width:2.34332e+06"
                                   d="m -1422881600,-225273930 c 756000,39249910 997000,40989830 7119200,51403770 14216600,24182830 49676400,49274400 96769400,68474390 29883100,12183394 73342300,26277995 75224000,24396309 17823900,-65612259 30536300,-117808709 49578700,-187209709 5277800,-5277860 109337900,-25345820 191545600,-36939630 310445250,-35826110 263288300,-30860590 577628410,-43548730 32990270,-1848650 255421920,-4230400 255421920,-2735120 -2572570,13224140 39093760,343147442.6 67936350,3216910 18740,-3995830 3363951,-4145100 62703758,-2795120 65627873,1492700 215929142,7083160 258702662,9622140 l 24956450,1481450 1347790,12016310 c 0,0 49519350,804700 67884090,-1783030 l -1322270,-6769150 18418310,1474420 c 133375750,10676400 206658410,17884450 278526870,27395050 49613720,6565510 44840610,4281950 46273780,22137810 2702060,14668880 28889550,7436610 43334320,11154910 -491390,-10632810 -46870,-19332390 986300,-19332390 1033880,0 9272990,1267740 18309300,2817370 15702590,2692710 16481280,3133260 17601850,9959110 106798210,97604480 112739360,229776478 94943610,228372476 0,-2618660 3920610,-4606499 13190790,-6681040 21550810,-4822787 54641540,-16404178 74678330,-26136454 54244590,-26347592 83444280,-64968782 94069280,-124421862 9197300,-51463290 1553900,-175833360 -15788320,-256897470 -23126690,-108102270 -65855500,-193805220 -129645130,-260033770 -47408890,-49221670 -94018230,-79273350 -153413200,-98913650 -34545930,-11423450 -64297660,-16401600 -98022730,-16401600 -53281950,0 -89975770,12240570 -291231600,97151000 -150492180,63492960 -230810984,95120050 -310489945,122261320 -175949365,59674330 -215857735,85337590 -487355295,22962040 -780825080,-464802130 -952482080,-911167330 -949882580,374301940 z m 1063624110,-78737420 c -13526050,12220180 -26513970,39291610 -26752030,55760940 31010030,45341280 44390430,-27363500 53767160,-55029590 -2104960,-6512560 -3872340,-8035720 -10013850,-8630690 -5868870,-568720 -9490990,1114250 -17001280,7899340 z m -677258210,15720860 c -49489500,75640080 -10138600,101716290 19634400,22493530 156500,-14616930 -452600,-17003600 -5355400,-20983030 -6493500,-5270360 -6787900,-5301520 -14279000,-1510500 z m 1233261990,27962840 c -33532980,95348980 27282620,97445910 21247100,2621710 -6375240,-8575620 -14844000,-9620510 -21247100,-2621710 z"
                                   id="path6982"
                                   sodipodi:nodetypes="cssccccccssccccssccssccsssssssscccsccssccscccc" />
                                <path
                                   style="fill:#e5b05d;stroke-width:2.34332e+06"
                                   d="m -975696560,-926309750 c -3866760,8686940 11846120,-8824010 0,0 z m 1559820390,86770090 c -297374370,86184250 -570173292,267985470 -885583000,287473350 -138549170,4023600 99763920,3693650 147020590,9533080 179456526,2309250 353748970,-45876700 529666190,-69734610 483621700,22048500 291651100,259112840 394520530,625234111 39625260,366203109 132437380,1071961729 109039960,1611233429 3563510,13110000 -6358120,41251800 -35871570,239731700 106723790,-151906000 91992790,-351074100 97686080,-528221700 -742150,-465932310 -63468080,-928683930 -109109450,-1391575413 148688650,-13177200 149628970,-427722177 180618740,-295341497 -8463900,-204896590 -117825040,-436814150 -335119470,-483580900 -30539090,-5313960 -61943310,-8026110 -92868600,-4751550 z m 343254720,613296770 c 8749050,10699860 -15782430,-12731770 0,0 z m 13308420,15879510 c -6631820,-4530060 -2783440,-10192850 0,0 z M -824401750,-824860160 c 8211770,10694200 -2966890,-9751370 0,0 z m 469099240,272690280 c 12904250,3803450 2341960,-4101430 0,0 z m 185708140,201100910 c -52333850,545799270 -84757780,1096877280 -209125660,1632386370 -34204250,105857200 -85878290,295048200 -91711700,266493200 136332790,-133754600 161415450,-336884900 204052870,-514714700 85459810,-456189810 122368940,-919533730 164720840,-1381191430 -18898300,-10434180 -46722280,-1640720 -67936350,-2973440 z m -476882980,12317660 c -208933810,588540730 -329458900,1266927060 -534078350,1783984510 -28050300,82114500 -128166900,237507400 -126644600,260561500 155833500,-131770600 215852800,-338678000 288610800,-522233300 173454590,-498736840 294507310,-1013413430 426814590,-1524041140 -18238310,429500 -36478210,864800 -54702440,1728430 z m 892472900,10403410 c 3193020,541669730 16527160,1084110860 -12502630,1625305200 -16769960,211195600 -28043360,428956200 -110042310,627093300 127432890,-134785600 133283180,-334914800 159456810,-509104900 53725670,-579675700 33947680,-1162820580 31141620,-1744108380 -7447920,-5375610 -79345730,-26395780 -68053490,814780 z m 409840920,42948830 c 48615010,150092940 63007840,-78969690 0,0 z m -1888404570,27948310 c -132352100,-1126450 33673100,13253740 9659600,96385850 -6449800,-27711340 68930400,-141561440 -9659600,-96385850 z M -53635656,1749801100 c -9000115,123945400 50809609,114709100 32265342,20732100 -3111782,-10230900 -18129286,-33273900 -32265342,-20732100 z"
                                   id="path6980"
                                   sodipodi:nodetypes="cccccccccccccccccccccccccccccccccccccccccccccccc" />
                                <path
                                   style="fill:#8c5729;stroke-width:2.34332e+06"
                                   d="m -744991100,-330155540 c -3927850,1710860 -11523610,8088900 -16879450,14173570 -18802950,21361240 -26827650,47441220 -17261350,56098610 4683130,4238130 5333420,4257580 15286120,456720 31211100,-11919770 58517160,-74308560 32357920,-73931520 -3498930,51560 -9575390,1491760 -13503240,3202620 z m 392400100,21286480 c -13940510,7578300 -30322870,37563190 -31995510,58561450 -967070,12140500 -446920,14715580 3733750,18484100 6574510,5926490 14401950,3649960 25201470,-7329200 18067490,-18368350 29421560,-54600290 21093280,-67310690 -4336760,-6618710 -9111480,-7255860 -18032990,-2405660 z m 1007845390,16180630 c 0,13924710 8903440,38079650 17329080,47013560 4306090,4565720 8906030,8301210 10222040,8301210 5557650,0 12682750,-8923600 14858760,-18609240 2257790,-10049330 932640,-32134650 -2212570,-36878000 -1283200,-1935350 -29623320,-7782400 -37719490,-7782400 -1362870,0 -2477820,3579650 -2477820,7954870 z m -1699465490,12549180 c -20111500,20695970 -29409900,61672430 -16845800,74236610 5465200,5465090 9389400,4556120 19408200,-4495190 24432600,-22073370 32560400,-78528870 11305600,-78528870 -3077200,0 -8936600,3712760 -13868000,8787450 z m 1240379950,21455910 c -15469150,16559770 -18844020,65724730 -5524370,80478510 4769240,5282780 12932010,5243410 17754700,-84360 16419370,-18143390 20075320,-67202430 6123960,-82177420 -6301330,-6763760 -10775450,-6328600 -18354290,1784440 z m -784873700,88189440 c -16954110,21553620 -9542120,83092723 10007970,83092723 11829200,0 19905610,-18064653 19905610,-44523083 0,-35267430 -16140830,-56078930 -29913580,-38569640 z m 568280229,1065510 c -16492148,19599760 -17929587,71100312 -2270841,81360304 4867311,3189024 6008226,3161842 11245079,-269482 3205474.4,-2100317 8209072.6,-8285042 11119101.52,-13743572 4539105.18,-8514450 5292599.88,-13479250 5302605.88,-34936790 9373.2,-21756560 -628876.9,-25873770 -4910076.294,-31634820 C -6835612.3,-177933470 -13069430,-178169680 -20424621,-169428390 Z m 415063121,-2918140 c -9674160,11090700 -12753050,28359560 -8872040,49762040 6229710,34355184 23414220,47983230 34552250,27401381 5000180,-9239711 5568200,-42387141 987480,-57615441 -3237300,-10761700 -14004390,-23648790 -19758640,-23648790 -1832710,0 -4941600,1845370 -6909050,4100810 z m -1308237080,77550304 c -24077610,14741123 -44715560,56555326 -34179480,69250496 9658720,11637865 37025450,-7294755 51959590,-35946529 6286500,-12060834 8548670,-29209719 4497140,-34091557 -3969330,-4782714 -13743250,-4437314 -22277250,787590 z m 631560640,82703731 c -8514360,11753624.58 -11684220,21726326 -13385560,42111617 -3240930,38832140 17394440,49974721 33100220,17873275 15207770,-31083554 12033910,-69680613 -5729870,-69680613 -5466170,0 -8469720,2082274 -13984790,9695721 z m -879311060,11308159.44 c -9093800,7153218.76 -16465600,26822086.56 -17701700,47230552.56 -1280100,21135153 2210300,34078364 10167600,37703949 22501200,10252260 43062900,-64122773 23214600,-83971162.69 -6749700,-6749464.71 -8210300,-6839213.81 -15680500,-963338.87 z M 591190590,20374438 c -11676070,10251651 -18520440,27858842 -19805750,50949917 -851330,15297006 -273700,20519681 2786910,25190691 12174260,18580254 37120070,-11135270 40614670,-48380443 1488710,-15867792 -237380,-23925298 -6457960,-30145899 -6110440,-6110441 -7715850,-5886888 -17137870,2385734 z M 127150010,39309495 c -26455290,20809713 -35408674,86673855 -10961820,80638755 22891970,-5651250 44530090,-65068119 30069060,-82567635 -3631910,-4395037 -12162480,-3533867 -19107240,1928880 z m -633659570,42623398 c -10952870,11658791 -15703510,27143617 -15729850,51271847 -21090,18951290 695270,23391840 4439330,27534010 6213690,6874360 12424660,6168900 20346040,-2310990 13545030,-14499970 20589210,-55034320 12802660,-73670182 -2758830,-6602796 -4659240,-8126353 -10136470,-8126353 -3971880,0 -8787080,2177882 -11721710,5301668 z m 410995442,114417357 c -19921532,15670270 -8400752,86493140 14069858,86493140 6962309,0 11801102,-7248710 15312309,-22938500 5278821,-23588260 -6045110,-63371950 -19002523,-66760390 -2723431,-712190 -7128357,648280 -10379644,3205750 z m 484579028,2385830 c -3704550,4098470 -4463790,8584240 -4462380,26362350 1170,18486570 887410,23315800 6465220,35226870 10149860,21675480 19857300,27581840 28905560,17587090 7048470,-7785710 7582750,-38997650 969430,-56617710 -9314930,-24817630 -21830610,-33674490 -31877830,-22558600 z m -1277781340,10533880 c -12010450,13644590 -19393950,32927630 -19846490,51831890 -290500,12135470 506930,15435990 4756260,19685930 4650230,4650880 5771150,4830190 12575660,2011700 15319220,-6345430 30773730,-37140100 31255190,-62279190 314210,-16405960 -2931330,-22036420 -12702440,-22036420 -4840060,0 -9015900,2808350 -16038180,10786090 z m -236549770,56019150 c -11952900,10057670 -22473100,34315880 -23473500,54126730 -739900,14652430 -210700,17475830 4080200,21766730 6165000,6164940 7118300,6141770 16886400,-410690 17588200,-11798240 33336700,-58598350 25013000,-74331730 -4371900,-8263770 -13498400,-8730530 -22506100,-1151040 z m 1849174010,22826750 c -14708780,16134810 -14152950,65267300 927020,81930430 13727410,15168640 31497510,-16602160 28000340,-50061300 -3220660,-30814170 -16526040,-45472690 -28927360,-31869130 z m -1358297800,41225000 c -19575700,20432620 -23308120,74805080 -5563390,81045570 5254800,1848010 7340000,1262330 12433930,-3492510 8515940,-7948980 14100260,-19722430 17463810,-36819110 7064270,-35906970 -6770980,-59066170 -24334350,-40733950 z m 306269980,-2142570 c -15169980,9250070 -31283310,40207290 -31283310,60102030 0,19537320 7160110,24385580 22245000,15062610 20578830,-12718420 38276730,-58677560 28400060,-73751270 -4648730,-7094840 -9467370,-7446600 -19361750,-1413370 z m 503191930,11326060 c -16520860,16520880 -19561150,68121390 -4800740,81479370 21316600,19291270 43345830,-54591010 24007670,-80517600 -6468220,-8671900 -11256980,-8911690 -19206930,-961770 z m 344619740,92112590 c -11108740,11923720 -13254280,55251900 -3647140,73650190 5281140,10113750 14418450,13557800 21149170,7971650 10695380,-8876290 15635800,-51486230 8124530,-70069630 -6772430,-16755440 -16636410,-21202010 -25626560,-11552210 z m -562126292,28466690 c -11845789,12609240 -17787933,43235240 -12483500,64340140 9829456,39108590 38286902,15518340 38656467,-32044900 124664,-16035850 -781052,-21516830 -4646453,-28119840 -5993745,-10238740 -14314149,-11852600 -21526514,-4175400 z m -1249388568,29744960 c -9792200,9147200 -21311400,34417930 -22957000,50362820 -3911300,37896950 23091100,36701600 40584000,-1796570 7320500,-16110850 10268400,-41950870 5749200,-50395020 -3925000,-7333990 -14448900,-6510660 -23376200,1828770 z m 302550610,46297110 c -17463410,8606860 -38138810,40422390 -38396310,59084850 -167100,12100090 1508700,14334320 10750900,14334320 19117340,0 46775080,-32536830 49869860,-58667360 2142050,-18086370 -5357820,-23064520 -22224450,-14751810 z m 493167560,17297270 c -16777570,13197230 -25911690,55420380 -16196310,74868460 12632000,25286440 38367440,-6803470 38916020,-48524970 179960,-13684100 -704340,-18132120 -4658450,-23433210 -6279990,-8419170 -10245520,-9058170 -18061260,-2910280 z m 1234808800,89258110 c -11294330,13194680 -16559070,29588890 -16617180,51744050 -39840,15452900 691270,18834500 5011650,23154910 15005460,15005450 38400460,-19063550 38981610,-56766670 434680,-28209810 -11808930,-36319190 -27376080,-18132290 z m -580472590,44847870 c -5261320,3529320 -11045970,11390480 -17052670,23174070 -7803640,15308770 -9130380,20140040 -9373290,34132190 -312520,18004060 2615380,24055430 11639070,24055430 22989090,0 47854770,-64322940 31931930,-82602030 -4691210,-5385420 -7579120,-5176490 -17145040,1240340 z m 289184520,7543190 c -14081950,9863340 -18533320,53183010 -7706010,74990160 6888190,13872870 14599820,16512670 22559140,7722360 7274140,-8033390 10207980,-19293190 10193450,-39121020 -23440,-21597850 -3223940,-34149300 -10618060,-41543580 -6526850,-6526820 -7780050,-6704700 -14428520,-2047920 z m -588418840,17822540 c -12889650,4865090 -22792780,45386290 -16996790,69546700 7779310,32427800 30744270,21119610 37849240,-18637340 5569490,-31165010 -4972780,-56903010 -20852450,-50909360 z m -1052051760,19554070 c -14437300,12148170 -27891200,47997830 -24669000,65733390 1565600,8616760 7022500,15231580 12565300,15231580 16230500,0 40672800,-48123200 36295000,-71459240 -2920100,-15565370 -12511000,-19334030 -24191300,-9505730 z m 547784430,45781660 c -8205250,15331660 -6830450,44918280 3094590,66597430 6278810,13714730 12961840,18974330 21413960,16853000 16941550,-4252050 15095980,-60014000 -2685720,-81146340 -7049840,-8378260 -17955790,-9529720 -21822830,-2304090 z m 291707360,25439080 c -27521590,16783720 -43798340,80043830 -20595180,80043830 7130210,0 19142610,-9668680 26759400,-21538420 14611820,-22770550 19865990,-47050300 12467570,-57613050 -4431620,-6327040 -9335040,-6561880 -18631790,-892360 z m 975137660,89489870 c -3286980,3906500 -7065580,11024330 -8396820,15817410 -3445150,12404810 -3015390,35371170 905920,48400290 12136760,40327270 39136030,16075360 35975360,-32314620 -1498790,-22946230 -9965670,-39005800 -20564510,-39005800 -1068790,0 -4632740,3196220 -7919950,7102720 z m -1993199950,34984760 c -17702100,17702090 -13278700,81052980 5997100,85890880 13134100,3296400 22070400,-15446160 21914500,-45962160 -173900,-34036700 -14010200,-53830140 -27911600,-39928720 z M 9934500.3,928363710 c -12822063.1,13835240 -17453588.8,53633110 -8529592.3,73293090 3846161.9,8473300 5561144.4,9959100 11495064,9959100 8920435,0 15521100,-8153400 20519097,-25345840 4824522,-16595730 3553809,-48688100 -2280379,-57592180 -5149141,-7858580 -14089518,-7991030 -21204189.7,-314170 z m -1107887400.3,76906390 c -26673100,20289200 -42239400,64125900 -24364100,68612300 21883900,5492500 61631800,-47469200 52887200,-70469100 -3351000,-8813980 -15537800,-8020650 -28523100,1856800 z m 522356510,36223200 c -15407540,16089200 -23145610,56001300 -14197400,73228700 12994390,25017200 38745020,-7326400 39024320,-49015900 183950,-27460600 -11140430,-38504900 -24826920,-24212800 z m 1386425920,67413000 c -20001170,20001200 -26996920,76670800 -10125720,82025500 15217050,4829700 34986240,-29852800 34986240,-61379100 0,-24261800 -11606230,-33900600 -24860520,-20646400 z m -287375900,29243100 c -11826030,9576200 -3116610,50754400 15116060,71467800 25087350,28500600 39264200,-4738100 19818400,-46465500 -6167160,-13233400 -17649430,-26100100 -25009560,-28024800 -2640450,-690500 -6966460,626900 -9924900,3022500 z m -338436940,9241600 c -20253160,12349400 -36275840,61192200 -25241690,76945600 13225590,18882200 42613030,-16568200 45036280,-54327700 979600,-15264400 541000,-17778400 -3871450,-22190800 -6075250,-6075300 -6635440,-6090300 -15923140,-427100 z m -299781070,17746800 c -6538030,9978300 -3643110,41464100 5524190,60082400 11468986,23292800 27112946,29006100 33490807,12231100 6503206,-17104700 -1823548,-53559100 -15756321,-68981000 -9850266,-10903100 -17573196,-12009600 -23258676,-3332500 z m -1233464520,35428200 c -14186600,11937200 -27723100,48150700 -24473500,65472600 4948100,26375700 29844800,13672500 43302600,-22094600 5648900,-15013300 6905800,-36442700 2597000,-44276600 -3904400,-7098500 -12342600,-6744600 -21426100,898600 z m 901647290,21362900 c -20914550,22318000 -27106780,72922400 -9883420,80769900 4825130,2198500 6886340,1845000 12184050,-2089000 13753790,-10213600 26178500,-46823200 22883760,-67427300 -2850200,-17824200 -14252330,-22919200 -25184390,-11253600 z m -195723620,147535300 c -6525710,9974000 -5791310,44992700 1266820,60405100 14813250,32347100 32516170,29480500 35031350,-5672500 2800480,-39140400 -22016460,-76560900 -36298170,-54732600 z m 1284972240,14407100 c -9614410,10623800 -13917920,44241200 -8268410,64589200 1402950,5053700 5643650,12281200 9423430,16061000 6362350,6362300 7259370,6617000 12081690,3430200 12498330,-8259400 18199400,-31003900 14730580,-58767600 -2910170,-23291700 -17690190,-36668900 -27967290,-25312800 z m -1894426210,17780400 c -24508400,22141900 -33772800,73580300 -13666400,75879500 5451300,623400 8786000,-1396900 17880800,-10832500 17924700,-18596600 28657900,-54288900 20205000,-67189800 -5448900,-8316000 -13638200,-7597400 -24419400,2142800 z m 1231231754,20156300 c -16429815,19525800 -17477420,73321000 -1593387,81821800 12342197.8,6605400 26571588.7,-16369000 27920732,-45079900 1055501.8,-22461900 -648537.3,-32187600 -6795652.4,-38785700 -6526967.3,-7005900 -12437219.6,-6387400 -19531692.6,2043800 z m -1439713254,85821300 c -1645500,661500 -5247300,5587100 -8004000,10945700 -6903400,13419200 -8438600,40812100 -3281300,58552300 7338000,25241900 23988000,26620900 32470800,2689300 5773100,-16286900 4517700,-47725100 -2442500,-61168700 -5837900,-11275800 -10819300,-14204300 -18743000,-11018600 z m 2265831270,27331500 c -7590720,8080000 -12088490,25231000 -12028730,45868500 112480,39039400 20032110,53302900 33561270,24032000 7187660,-15551200 7333420,-53899400 250730,-65998400 -6077630,-10382000 -14310190,-11856700 -21783270,-3902100 z m -680167640,53369900 c -8801600,9422200 -14678770,29458400 -14702480,50123300 -24140,20989300 4954760,31634800 14795420,31634800 16980870,0 32251140,-40897800 25881930,-69318600 -4612830,-20583200 -14116050,-25134400 -25974870,-12439500 z m 519385400,127090700 c -10587590,7741900 -5314410,44681400 9594490,67210200 17190370,25976500 35554970,20260800 33101510,-10302400 -2676300,-33342900 -28270280,-67456000 -42696000,-56907800 z m -700067134,37269500 c -4863139,8560200 -3434136,38251300 2588549,53783600 14435861,37229500 39378092,36987800 38578645,-373800 -606873,-28362100 -16865392,-58682300 -31467090,-58682300 -4503369,0 -7688223,1731100 -9700104,5272500 z"
                                   id="path6978" />
                                </g>
                                </g>
                                </g>
                                </g>
                                </g>
                                </g>
                                </g>
                                </g>
                                </g>
                                </g>
                                </g>
                                </g>
                                </g>
                                </g>
                                </g>
                                </g>
                                </g>
                                </g>
                                </g>
                                </g>
                                </g>
                                </g>
                                </g>
                                </g>
                                </g>
                                </g>
                                </g>
                                </g>
                                </g>
                                </g>
                                </g>
                                </g>
                                </g>
                                </g>
                                </g>
                                </g>
                                </g>
                                </g>
                                </g>
                                </g>
                                </g>
                                </g>
                                </g>
                                </g>
                                </g>
                                </g>
                                </g>
                                </g>
                                </g>
                                </g>
                                </g>
                                </g>
                                </g>
                                </g>
                                </g>
                                </g>
                                </g>
                                </g>
                                </g>
                                </g>
                                </g>
                                </g>
                                </g>
                                </g>
                                </g>
                                </g>
                                </g>
                                </g>
                                </g>
                              </g>
                            </g>
                          </g>
                        </g>
                      </g>
                    </g>
                  </g>
                </g>
              </g>
            </g>
          </g>
        </g>
      </g>
    </g>
  </g>
</svg>
