<?xml version="1.0" encoding="UTF-8" standalone="no"?>
<!-- Created with Inkscape (http://www.inkscape.org/) -->

<svg
   width="64"
   height="64"
   viewBox="0 0 16.933333 16.933334"
   version="1.1"
   id="svg5"
   inkscape:version="1.2 (dc2aedaf03, 2022-05-15)"
   sodipodi:docname="gnocchi.svg"
   xml:space="preserve"
   xmlns:inkscape="http://www.inkscape.org/namespaces/inkscape"
   xmlns:sodipodi="http://sodipodi.sourceforge.net/DTD/sodipodi-0.dtd"
   xmlns="http://www.w3.org/2000/svg"
   xmlns:svg="http://www.w3.org/2000/svg"><sodipodi:namedview
     id="namedview7"
     pagecolor="#ffffff"
     bordercolor="#666666"
     borderopacity="1.0"
     inkscape:pageshadow="2"
     inkscape:pageopacity="0.0"
     inkscape:pagecheckerboard="0"
     inkscape:document-units="mm"
     showgrid="false"
     units="px"
     inkscape:zoom="11.313709"
     inkscape:cx="26.251339"
     inkscape:cy="23.157747"
     inkscape:window-width="1920"
     inkscape:window-height="1009"
     inkscape:window-x="-8"
     inkscape:window-y="-8"
     inkscape:window-maximized="1"
     inkscape:current-layer="g13391"
     inkscape:showpageshadow="0"
     inkscape:deskcolor="#d1d1d1" /><defs
     id="defs2"><pattern
       id="EMFhbasepattern"
       patternUnits="userSpaceOnUse"
       width="6"
       height="6"
       x="0"
       y="0" /><pattern
       id="EMFhbasepattern-5"
       patternUnits="userSpaceOnUse"
       width="6"
       height="6"
       x="0"
       y="0" /><pattern
       id="EMFhbasepattern-56"
       patternUnits="userSpaceOnUse"
       width="6"
       height="6"
       x="0"
       y="0" /><pattern
       id="EMFhbasepattern-6"
       patternUnits="userSpaceOnUse"
       width="6"
       height="6"
       x="0"
       y="0" /><pattern
       id="EMFhbasepattern-62"
       patternUnits="userSpaceOnUse"
       width="6"
       height="6"
       x="0"
       y="0" /><pattern
       id="EMFhbasepattern-8"
       patternUnits="userSpaceOnUse"
       width="6"
       height="6"
       x="0"
       y="0" /><pattern
       id="EMFhbasepattern-81"
       patternUnits="userSpaceOnUse"
       width="6"
       height="6"
       x="0"
       y="0" /><pattern
       id="EMFhbasepattern-9"
       patternUnits="userSpaceOnUse"
       width="6"
       height="6"
       x="0"
       y="0" /><pattern
       id="EMFhbasepattern-52"
       patternUnits="userSpaceOnUse"
       width="6"
       height="6"
       x="0"
       y="0" /><pattern
       id="EMFhbasepattern-0"
       patternUnits="userSpaceOnUse"
       width="6"
       height="6"
       x="0"
       y="0" /><pattern
       id="EMFhbasepattern-7"
       patternUnits="userSpaceOnUse"
       width="6"
       height="6"
       x="0"
       y="0" /><pattern
       id="EMFhbasepattern-65"
       patternUnits="userSpaceOnUse"
       width="6"
       height="6"
       x="0"
       y="0" /><pattern
       id="EMFhbasepattern-3"
       patternUnits="userSpaceOnUse"
       width="6"
       height="6"
       x="0"
       y="0" /><pattern
       id="EMFhbasepattern-90"
       patternUnits="userSpaceOnUse"
       width="6"
       height="6"
       x="0"
       y="0" /><pattern
       id="EMFhbasepattern-4"
       patternUnits="userSpaceOnUse"
       width="6"
       height="6"
       x="0"
       y="0" /><pattern
       id="EMFhbasepattern-2"
       patternUnits="userSpaceOnUse"
       width="6"
       height="6"
       x="0"
       y="0" /><pattern
       id="EMFhbasepattern-40"
       patternUnits="userSpaceOnUse"
       width="6"
       height="6"
       x="0"
       y="0" /><pattern
       id="EMFhbasepattern-74"
       patternUnits="userSpaceOnUse"
       width="6"
       height="6"
       x="0"
       y="0" /><pattern
       id="EMFhbasepattern-656"
       patternUnits="userSpaceOnUse"
       width="6"
       height="6"
       x="0"
       y="0" /><pattern
       id="EMFhbasepattern-76"
       patternUnits="userSpaceOnUse"
       width="6"
       height="6"
       x="0"
       y="0" /><pattern
       id="EMFhbasepattern-1"
       patternUnits="userSpaceOnUse"
       width="6"
       height="6"
       x="0"
       y="0" /><pattern
       id="EMFhbasepattern-42"
       patternUnits="userSpaceOnUse"
       width="6"
       height="6"
       x="0"
       y="0" /><pattern
       id="EMFhbasepattern-73"
       patternUnits="userSpaceOnUse"
       width="6"
       height="6"
       x="0"
       y="0" /><pattern
       id="EMFhbasepattern-566"
       patternUnits="userSpaceOnUse"
       width="6"
       height="6"
       x="0"
       y="0" /><pattern
       id="EMFhbasepattern-71"
       patternUnits="userSpaceOnUse"
       width="6"
       height="6"
       x="0"
       y="0" /><pattern
       id="EMFhbasepattern-31"
       patternUnits="userSpaceOnUse"
       width="6"
       height="6"
       x="0"
       y="0" /><pattern
       id="EMFhbasepattern-60"
       patternUnits="userSpaceOnUse"
       width="6"
       height="6"
       x="0"
       y="0" /><pattern
       id="EMFhbasepattern-28"
       patternUnits="userSpaceOnUse"
       width="6"
       height="6"
       x="0"
       y="0" /><pattern
       id="EMFhbasepattern-02"
       patternUnits="userSpaceOnUse"
       width="6"
       height="6"
       x="0"
       y="0" /><pattern
       id="EMFhbasepattern-57"
       patternUnits="userSpaceOnUse"
       width="6"
       height="6"
       x="0"
       y="0" /><pattern
       id="EMFhbasepattern-50"
       patternUnits="userSpaceOnUse"
       width="6"
       height="6"
       x="0"
       y="0" /><pattern
       id="EMFhbasepattern-45"
       patternUnits="userSpaceOnUse"
       width="6"
       height="6"
       x="0"
       y="0" /><pattern
       id="EMFhbasepattern-33"
       patternUnits="userSpaceOnUse"
       width="6"
       height="6"
       x="0"
       y="0" /><pattern
       id="EMFhbasepattern-21"
       patternUnits="userSpaceOnUse"
       width="6"
       height="6"
       x="0"
       y="0" /><pattern
       id="EMFhbasepattern-818"
       patternUnits="userSpaceOnUse"
       width="6"
       height="6"
       x="0"
       y="0" /><pattern
       id="EMFhbasepattern-32"
       patternUnits="userSpaceOnUse"
       width="6"
       height="6"
       x="0"
       y="0" /><pattern
       id="EMFhbasepattern-38"
       patternUnits="userSpaceOnUse"
       width="6"
       height="6"
       x="0"
       y="0" /><pattern
       id="EMFhbasepattern-39"
       patternUnits="userSpaceOnUse"
       width="6"
       height="6"
       x="0"
       y="0" /><pattern
       id="EMFhbasepattern-86"
       patternUnits="userSpaceOnUse"
       width="6"
       height="6"
       x="0"
       y="0" /><pattern
       id="EMFhbasepattern-07"
       patternUnits="userSpaceOnUse"
       width="6"
       height="6"
       x="0"
       y="0" /><pattern
       id="EMFhbasepattern-524"
       patternUnits="userSpaceOnUse"
       width="6"
       height="6"
       x="0"
       y="0" /><pattern
       id="EMFhbasepattern-508"
       patternUnits="userSpaceOnUse"
       width="6"
       height="6"
       x="0"
       y="0" /><pattern
       id="EMFhbasepattern-217"
       patternUnits="userSpaceOnUse"
       width="6"
       height="6"
       x="0"
       y="0" /><pattern
       id="EMFhbasepattern-84"
       patternUnits="userSpaceOnUse"
       width="6"
       height="6"
       x="0"
       y="0" /><pattern
       id="EMFhbasepattern-96"
       patternUnits="userSpaceOnUse"
       width="6"
       height="6"
       x="0"
       y="0" /><pattern
       id="EMFhbasepattern-48"
       patternUnits="userSpaceOnUse"
       width="6"
       height="6"
       x="0"
       y="0" /><pattern
       id="EMFhbasepattern-23"
       patternUnits="userSpaceOnUse"
       width="6"
       height="6"
       x="0"
       y="0" /><pattern
       id="EMFhbasepattern-36"
       patternUnits="userSpaceOnUse"
       width="6"
       height="6"
       x="0"
       y="0" /><pattern
       id="EMFhbasepattern-900"
       patternUnits="userSpaceOnUse"
       width="6"
       height="6"
       x="0"
       y="0" /><pattern
       id="EMFhbasepattern-37"
       patternUnits="userSpaceOnUse"
       width="6"
       height="6"
       x="0"
       y="0" /><pattern
       id="EMFhbasepattern-11"
       patternUnits="userSpaceOnUse"
       width="6"
       height="6"
       x="0"
       y="0" /><pattern
       id="EMFhbasepattern-95"
       patternUnits="userSpaceOnUse"
       width="6"
       height="6"
       x="0"
       y="0" /><pattern
       id="EMFhbasepattern-10"
       patternUnits="userSpaceOnUse"
       width="6"
       height="6"
       x="0"
       y="0" /><pattern
       id="EMFhbasepattern-909"
       patternUnits="userSpaceOnUse"
       width="6"
       height="6"
       x="0"
       y="0" /><pattern
       id="EMFhbasepattern-06"
       patternUnits="userSpaceOnUse"
       width="6"
       height="6"
       x="0"
       y="0" /><pattern
       id="EMFhbasepattern-34"
       patternUnits="userSpaceOnUse"
       width="6"
       height="6"
       x="0"
       y="0" /><pattern
       id="EMFhbasepattern-41"
       patternUnits="userSpaceOnUse"
       width="6"
       height="6"
       x="0"
       y="0" /><pattern
       id="EMFhbasepattern-82"
       patternUnits="userSpaceOnUse"
       width="6"
       height="6"
       x="0"
       y="0" /><pattern
       id="EMFhbasepattern-94"
       patternUnits="userSpaceOnUse"
       width="6"
       height="6"
       x="0"
       y="0" /><pattern
       id="EMFhbasepattern-738"
       patternUnits="userSpaceOnUse"
       width="6"
       height="6"
       x="0"
       y="0" /><pattern
       id="EMFhbasepattern-19"
       patternUnits="userSpaceOnUse"
       width="6"
       height="6"
       x="0"
       y="0" /><pattern
       id="EMFhbasepattern-342"
       patternUnits="userSpaceOnUse"
       width="6"
       height="6"
       x="0"
       y="0" /><pattern
       id="EMFhbasepattern-77"
       patternUnits="userSpaceOnUse"
       width="6"
       height="6"
       x="0"
       y="0" /><pattern
       id="EMFhbasepattern-29"
       patternUnits="userSpaceOnUse"
       width="6"
       height="6"
       x="0"
       y="0" /><pattern
       id="EMFhbasepattern-219"
       patternUnits="userSpaceOnUse"
       width="6"
       height="6"
       x="0"
       y="0" /><pattern
       id="EMFhbasepattern-105"
       patternUnits="userSpaceOnUse"
       width="6"
       height="6"
       x="0"
       y="0" /><pattern
       id="EMFhbasepattern-104"
       patternUnits="userSpaceOnUse"
       width="6"
       height="6"
       x="0"
       y="0" /><pattern
       id="EMFhbasepattern-770"
       patternUnits="userSpaceOnUse"
       width="6"
       height="6"
       x="0"
       y="0" /><pattern
       id="EMFhbasepattern-16"
       patternUnits="userSpaceOnUse"
       width="6"
       height="6"
       x="0"
       y="0" /><pattern
       id="EMFhbasepattern-53"
       patternUnits="userSpaceOnUse"
       width="6"
       height="6"
       x="0"
       y="0" /><pattern
       id="EMFhbasepattern-284"
       patternUnits="userSpaceOnUse"
       width="6"
       height="6"
       x="0"
       y="0" /></defs><g
     inkscape:label="Calque 1"
     inkscape:groupmode="layer"
     id="layer1"><g
       id="g4128"
       transform="translate(-0.63104184,0.12620835)"><g
         id="g5578"
         transform="translate(0.08924235,0.08924306)"><g
           id="g7501"
           transform="translate(-0.06310417,0.94656242)"><g
             id="g9467"
             transform="translate(-0.08924275,-0.80318511)"><g
               id="g10302"
               transform="translate(0.31234979,-0.04462139)"><g
                 id="g11479"
                 transform="translate(-0.12620833,0.06310418)"><g
                   id="g11873"
                   transform="translate(-0.23575769,0.66462456)"><g
                     id="g12382"
                     transform="translate(-121.98459,-82.267525)"><g
                       id="g13305"
                       transform="matrix(0.13266609,0,0,0.13266609,114.63867,78.215696)"><g
                         id="g17429"
                         transform="translate(0.90513437,5.6640979)"><g
                           id="g18595"
                           transform="translate(-3.3634362,-8.7449387)"><g
                             id="g21002"
                             transform="translate(1.7082278,-2.8204445)"><g
                               id="g23814"
                               transform="translate(8.7253043,-1.1218249)"><g
                                 id="g24838"
                                 transform="translate(11.143454,-0.85716864)"><g
                                   id="g25315"
                                   transform="translate(-3.490122,2.4929446)"><g
                                   id="g27220"
                                   transform="translate(2.4678888,1.2339445)"><g
                                   id="g29753"
                                   transform="translate(1.4759287,-2.3737724)"><g
                                   id="g30615"
                                   transform="translate(0.92006037,1.3687834)"><g
                                   id="g31433"
                                   transform="translate(-2.4678886,-1.410222)"><g
                                   id="g31731"
                                   transform="translate(1.0576664,-0.70511063)"><g
                                   id="g33243"
                                   transform="matrix(1.0772948,0,0,1.0772948,-7.3729128,-3.1743014)"><g
                                   id="g35254"
                                   transform="translate(-2.2135012,-0.92031205)"><g
                                   id="g36749"
                                   transform="translate(-0.98178042,-2.7817105)"><g
                                   id="g37297"
                                   transform="translate(-6.7755742,-3.5033798)"><g
                                   id="g38955"
                                   transform="matrix(1.2171094,0,0,1.2171094,-23.105122,-18.212482)"><g
                                   id="g39618"
                                   transform="translate(-0.26888273,-0.26888316)"><g
                                   id="g40032"
                                   transform="translate(-1.90129,-3.042064)"><g
                                   id="g40543"
                                   transform="translate(0.3802582,-2.0914191)"><g
                                   id="g41372"
                                   transform="translate(1.9657652,-7.9304203)"><g
                                   id="g43278"
                                   transform="translate(1.5210324,-0.38025789)"><g
                                   id="g44210"
                                   transform="matrix(1.1578947,0,0,1.1578947,-18.904476,-21.776183)"><g
                                   id="g44833"
                                   transform="matrix(1.1196819,0,0,1.1196819,-12.538538,-14.547543)"><g
                                   id="g47597"
                                   transform="translate(3.1109352,-1.2443743)"><g
                                   id="g48754"
                                   transform="translate(-2.9035392,-6.6366609)"><g
                                   id="g234"
                                   transform="matrix(0.04089637,0,0,0.04089637,104.63967,119.67231)"><g
                                   id="g2138"
                                   transform="translate(-86.211222,-40.569988)"><g
                                   id="g2696"
                                   transform="translate(-124306.44,-9412.2373)"><g
                                   id="g3765"
                                   transform="translate(25.356243,-50.712489)"><g
                                   id="g4557"
                                   transform="translate(46.61688,-35.859142)"><g
                                   id="g5244"
                                   transform="translate(7.1718407,14.343658)"><g
                                   id="g5807"
                                   transform="translate(-5.1984397,-21.113724)"><g
                                   id="g6945"
                                   transform="translate(-10.142522,-243.41993)"><g
                                   id="g11108"
                                   transform="translate(18.189368,-37.636113)"><g
                                   id="g8763"
                                   transform="translate(5.3788677,23.308441)"><g
                                   id="g8908"
                                   transform="translate(71.718236,-14.343656)"><path
                                   style="fill:#ffffff;stroke:none;stroke-width:28.6873px;stroke-linecap:butt;stroke-linejoin:miter;stroke-opacity:1"
                                   d="m 124117.01,9626.8806 158.47,-38.0343 155.94,63.3906 50.72,96.3537 192.7,-15.2138 91.29,91.2825 -25.36,240.8847 -51.98,55.783 c 0,0 -103.96,-2.535 -111.57,-2.535 -7.6,0 -107.76,-98.89 -107.76,-98.89 l -64.66,24.089 -67.19,55.783 -225.67,-50.712 -46.91,-114.1031 z"
                                   id="path9075" /><g
                                   id="g9049"
                                   transform="translate(32.963117,-134.38808)"><g
                                   id="g11621"
                                   transform="translate(-17.929576,82.476029)"><g
                                   id="g13391"
                                   transform="translate(48.176865,15.213741)"><path
                                   style="fill:#fcd76f;stroke-width:1.29872"
                                   d="m 124209.2,10511.874 c -54.66,-6.697 -106.28,-26.768 -157.39,-46.147 -104.71,18.161 -211.73,-36.285 -272.78,-120.396 -64.86,8.161 -143.17,-42.56 -133.61,-113.973 12.26,-52.191 55.26,-94.462 106.07,-109.947 -5.41,-108.675 50.62,-221.4767 148.2,-272.9756 6.92,-55.3906 52.08,-107.3154 89.77,-150.9046 46.2,-63.9475 137.89,-62.0814 183.89,-120.653 65.16,-77.9506 186.33,-94.569 271.88,-41.2026 84.1,-59.2171 199.81,-69.5611 292.63,-24.8342 52.93,-41.8422 131,-38.9901 183.56,0.056 58.63,-38.4158 149.92,-39.8838 200.58,15.296 41.87,65.6479 14.74,148.0768 -2.46,217.462 -19.84,74.0356 -73.32,130.4527 -112.31,193.9339 -48.05,52.0486 1.22,133.5306 -57.38,184.8066 -28.2,43.032 -82.98,67.893 -126.41,76.408 8.58,104.902 -104.4,197.474 -205.21,169.694 -36.01,80.784 -139.26,123.46 -221.2,88.454 -48.4,49.865 -121.22,63.151 -187.83,54.922 z"
                                   id="path13397" /><path
                                   style="fill:#f7b61a;stroke-width:1.29872"
                                   d="m 124219.6,10512.432 c -59.47,-4.239 -115.22,-29.765 -170.59,-47.206 -103.84,17.804 -209.15,-37.501 -269.73,-120.493 -71.39,12.326 -162.91,-60.518 -125.75,-135.932 5.28,-63.254 102.93,-58.714 99.37,-111.901 -0.2,-101.2115 59.45,-199.4079 146.77,-249.3632 6.9,-46.9212 43.26,-91.8884 73.97,-131.9983 45.53,-56.5211 112.92,-88.1224 179.14,-111.3797 59.07,-97.1557 196.64,-128.2719 292.55,-68.0168 84.37,-58.9821 200.16,-69.5154 293.14,-24.6348 49.14,-38.8302 120.52,-40.1777 172.11,-6.4395 59.97,-12.1625 153.92,-45.6911 209.54,19.1982 43.06,64.8678 16.58,147.5173 -0.32,217.0248 -20.06,74.1612 -72.58,131.7435 -112.43,195.0243 -47.36,45.8207 -3.79,114.485 -43.84,165.58 -30.69,47.7 -80.42,93.264 -140.63,91.659 11.71,105.946 -99.76,200.534 -201.98,174.949 -29.05,50.355 -80.86,93.785 -142.07,99.001 -48.52,4.026 -90.42,-28.319 -124.91,21.028 -40.87,21.728 -88.61,28.413 -134.34,23.9 z m -383.07,-399.603 c 16.77,-37.28 53.22,-69.987 84.24,-82.119 -12.53,-31.4588 4.06,-156.1185 -48.73,-82.7601 -34.56,45.4995 -59.44,115.7701 -42.41,167.5591 z m 132.78,-133.095 c 52.4,-62.3208 125.73,-105.3796 204.59,-124.4164 -17.5,-46.1693 -4.17,-125.2416 -38.18,-150.9502 -96.59,12.0119 -160.13,101.0045 -202.28,181.1338 -13.79,37.853 7.1,82.029 7.72,121.7898 1.33,25.562 21.58,-28.9698 28.15,-27.557 z m 252.06,-156.6237 c 70.85,-52.8818 150.65,-94.6606 235.55,-119.7442 -19.37,-36.0216 12.83,-118.8603 -35.13,-128.7471 -76.8,-12.2218 -159.78,13.385 -206.84,77.748 -47.68,28.5421 -47.5,71.3725 -31.54,119.0967 11.62,22.2604 -3.92,105.6838 37.96,51.6466 z m 275.05,-146.3418 c 60.67,-33.3118 135.1,-20.0055 200.22,-8.7944 27.76,2.9259 20.92,-82.9293 13.94,-103.5234 -76.75,-37.8752 -172.71,-33.3759 -245.04,12.609 12.02,20.8256 -6.29,137.9407 30.88,99.7088 z m 284.65,-50.279 c 30.16,-30.988 90.13,-58.4019 113.81,-75.7939 -44.62,-14.0813 -131.79,-25.0598 -154.52,22.1873 5.76,18.3875 -22.34,121.6266 11.94,80.2916 9.38,-9.1139 18.92,-18.0749 28.77,-26.685 z"
                                   id="path13395" /><path
                                   style="fill:#e17a00;stroke-width:1.29872"
                                   d="m 124045.59,10440.669 c -54.52,-108.39 -86.81,-228.473 -112.47,-347.252 -17.37,-88.734 -30.55,-178.9164 -32.36,-269.36 39.68,-21.736 17.4,69.6124 28.36,91.7773 16.49,175.4317 64.21,346.6347 131.55,509.0987 3.58,8.922 -6.29,18.598 -15.08,15.736 z m 337.75,-11.966 c -100.19,-101.383 -129.56,-247.368 -166.04,-380.175 -35.34,-143.6082 -64.97,-289.5328 -78,-436.8429 40.77,-11.9085 21.07,73.0571 34.44,101.3393 29.16,189.5858 69.06,378.9786 137.45,558.6026 17.13,56.207 64.06,101.688 85.92,151.294 -2.38,4.844 -8.52,8.033 -13.77,5.782 z m 221.77,-69.223 c -34.19,-90.72 -55.15,-187.174 -78.61,-281.549 -38.9,-177.1552 -72.41,-356.4664 -86.48,-537.2932 43.26,-5.8596 18.98,81.9719 33.88,111.7768 28.75,235.3164 82.69,466.6874 148.21,694.2584 5.71,11.596 -8.17,18.327 -17,12.807 z m -826.33,-25.682 c -17.18,-49.304 -13.34,-109.06 -21.45,-162.512 -9.73,-21.113 0.94,-80.701 18.35,-36.745 6.8,65.223 15,130.501 18.22,195.978 -3.3,4.46 -10.22,7.001 -15.12,3.279 z m 1020.44,-151.217 c -34.79,-77.953 -50.43,-164.241 -65.85,-248.1509 -21.86,-136.3369 -25.99,-275.7664 -11.42,-413.0715 39.46,-30.1519 12.06,59.5153 15.92,82.4565 -11.74,192.8879 19.81,386.311 79.09,569.6319 0.6,9.054 -11.01,13.515 -17.74,9.134 z m 169.67,-202.3324 c -24.05,-46.692 -29.5,-103.533 -40.95,-155.2556 -19.29,-103.6892 -30.64,-209.4049 -28.55,-314.8774 41.97,-12.2452 13.96,73.1899 24.9,100.1007 6.13,120.8818 29.34,240.1577 60.6,356.8735 3.42,9.1694 -7.93,17.6477 -16,13.1588 z"
                                   id="path13393" /></g></g></g></g></g></g></g></g></g></g></g></g></g></g></g></g></g></g></g></g></g></g></g></g></g></g></g></g></g></g></g></g></g></g></g></g></g></g></g></g></g></g></g></g></g></g></g></g></g></svg>
