<?xml version="1.0" encoding="UTF-8" standalone="no"?>
<!-- Created with Inkscape (http://www.inkscape.org/) -->

<svg
   width="64"
   height="64"
   viewBox="0 0 16.933333 16.933334"
   version="1.1"
   id="svg5"
   inkscape:version="1.2 (dc2aedaf03, 2022-05-15)"
   sodipodi:docname="gomme_arabique.svg"
   xmlns:inkscape="http://www.inkscape.org/namespaces/inkscape"
   xmlns:sodipodi="http://sodipodi.sourceforge.net/DTD/sodipodi-0.dtd"
   xmlns="http://www.w3.org/2000/svg"
   xmlns:svg="http://www.w3.org/2000/svg">
  <sodipodi:namedview
     id="namedview7"
     pagecolor="#ffffff"
     bordercolor="#666666"
     borderopacity="1.0"
     inkscape:pageshadow="2"
     inkscape:pageopacity="0.0"
     inkscape:pagecheckerboard="0"
     inkscape:document-units="mm"
     showgrid="false"
     units="px"
     inkscape:zoom="11.313709"
     inkscape:cx="33.410794"
     inkscape:cy="22.892581"
     inkscape:window-width="1920"
     inkscape:window-height="1017"
     inkscape:window-x="3832"
     inkscape:window-y="-8"
     inkscape:window-maximized="1"
     inkscape:current-layer="g76838"
     inkscape:showpageshadow="0"
     inkscape:deskcolor="#d1d1d1" />
  <defs
     id="defs2" />
  <g
     inkscape:label="Calque 1"
     inkscape:groupmode="layer"
     id="layer1">
    <g
       id="g4128"
       transform="translate(-0.63104184,0.12620835)">
      <g
         id="g5578"
         transform="translate(0.08924235,0.08924306)">
        <g
           id="g7501"
           transform="translate(-0.06310417,0.94656242)">
          <g
             id="g9467"
             transform="translate(-0.08924275,-0.80318511)">
            <g
               id="g10302"
               transform="translate(0.31234979,-0.04462139)">
              <g
                 id="g11479"
                 transform="translate(-0.12620833,0.06310418)">
                <g
                   id="g11873"
                   transform="translate(-0.23575769,0.66462456)">
                  <g
                     id="g12382"
                     transform="translate(-121.98459,-82.267525)">
                    <g
                       id="g13305"
                       transform="matrix(0.13266609,0,0,0.13266609,114.63867,78.215696)">
                      <g
                         id="g17429"
                         transform="translate(0.90513437,5.6640979)">
                        <g
                           id="g18595"
                           transform="translate(-3.3634362,-8.7449387)">
                          <g
                             id="g21002"
                             transform="translate(1.7082278,-2.8204445)">
                            <g
                               id="g23814"
                               transform="translate(8.7253043,-1.1218249)">
                              <g
                                 id="g24838"
                                 transform="translate(11.143454,-0.85716864)">
                                <g
                                   id="g25315"
                                   transform="translate(-3.490122,2.4929446)">
                                <g
                                   id="g27220"
                                   transform="translate(2.4678888,1.2339445)">
                                <g
                                   id="g29753"
                                   transform="translate(1.4759287,-2.3737724)">
                                <g
                                   id="g30615"
                                   transform="translate(0.92006037,1.3687834)">
                                <g
                                   id="g31433"
                                   transform="translate(-2.4678886,-1.410222)">
                                <g
                                   id="g31731"
                                   transform="translate(1.0576664,-0.70511063)">
                                <g
                                   id="g33243"
                                   transform="matrix(1.0772948,0,0,1.0772948,-7.3729128,-3.1743014)">
                                <g
                                   id="g35254"
                                   transform="translate(-2.2135012,-0.92031205)">
                                <g
                                   id="g36749"
                                   transform="translate(-0.98178042,-2.7817105)">
                                <g
                                   id="g37297"
                                   transform="translate(-6.7755742,-3.5033798)">
                                <g
                                   id="g38955"
                                   transform="matrix(1.2171094,0,0,1.2171094,-23.105122,-18.212482)">
                                <g
                                   id="g39618"
                                   transform="translate(-0.26888273,-0.26888316)">
                                <g
                                   id="g40032"
                                   transform="translate(-1.90129,-3.042064)">
                                <g
                                   id="g40543"
                                   transform="translate(0.3802582,-2.0914191)">
                                <g
                                   id="g41372"
                                   transform="translate(1.9657652,-7.9304203)">
                                <g
                                   id="g43278"
                                   transform="translate(1.5210324,-0.38025789)">
                                <g
                                   id="g44210"
                                   transform="matrix(1.1578947,0,0,1.1578947,-18.904476,-21.776183)">
                                <g
                                   id="g44833"
                                   transform="matrix(1.1196819,0,0,1.1196819,-12.538538,-14.547543)">
                                <g
                                   id="g47597"
                                   transform="translate(3.1109352,-1.2443743)">
                                <g
                                   id="g48754"
                                   transform="translate(-2.9035392,-6.6366609)">
                                <g
                                   id="g234"
                                   transform="matrix(0.04089637,0,0,0.04089637,104.63967,119.67231)">
                                <g
                                   id="g2138"
                                   transform="translate(-86.211222,-40.569988)">
                                <g
                                   id="g2696"
                                   transform="translate(-124306.44,-9412.2373)">
                                <g
                                   id="g3765"
                                   transform="translate(25.356243,-50.712489)">
                                <g
                                   id="g4557"
                                   transform="translate(46.61688,-35.859142)">
                                <g
                                   id="g5244"
                                   transform="translate(7.1718407,14.343658)">
                                <g
                                   id="g5807"
                                   transform="translate(-5.1984397,-21.113724)">
                                <g
                                   id="g6945"
                                   transform="translate(-10.142522,-243.41993)">
                                <g
                                   id="g11108"
                                   transform="translate(18.189368,-37.636113)">
                                <g
                                   id="g15049"
                                   transform="translate(-65.926228,141.99496)">
                                <g
                                   id="g19861"
                                   transform="matrix(0.07356842,0,0,0.07356842,115423.38,9039.2311)">
                                <g
                                   id="g20437"
                                   transform="translate(-478.38824,-785.88156)">
                                <g
                                   id="g21032"
                                   transform="translate(2047.1878,-1072.3367)">
                                <g
                                   id="g21869"
                                   transform="matrix(0.04321578,0,0,0.04321578,117368,10137.003)">
                                <g
                                   id="g25455"
                                   transform="translate(154741.46,-87178.414)">
                                <g
                                   id="g26278"
                                   transform="translate(-18012.371,-8233.4417)">
                                <g
                                   id="g27240"
                                   transform="translate(-0.00447131,5582.7624)">
                                <g
                                   id="g28306"
                                   transform="translate(-15790.441,-2255.7767)">
                                <g
                                   id="g33735"
                                   transform="translate(14662.549,-16918.328)">
                                <g
                                   id="g37868"
                                   transform="translate(-5075.4976,25941.433)">
                                <g
                                   id="g76752"
                                   transform="matrix(-1,0,0,1,9442.3174,-1595.0746)">
                                <g
                                   id="g82459"
                                   transform="translate(3383.6668,-1127.8885)">
                                <g
                                   id="g83208"
                                   transform="matrix(0.20332428,0,0,0.20332428,-15348.528,66747.475)">
                                <g
                                   id="g83934"
                                   transform="matrix(-1,0,0,1,240692.18,94139.78)">
                                <g
                                   id="g84550"
                                   transform="translate(-8.7627443e-5,55472.344)">
                                <g
                                   id="g9096"
                                   transform="translate(31379.925,-62759.843)">
                                <g
                                   id="g11527"
                                   transform="translate(61019.625,105397.54)">
                                <g
                                   id="g13422"
                                   transform="translate(-44377.907,44377.908)">
                                <g
                                   id="g1137"
                                   transform="translate(-3.3240812e-4,138680.92)">
                                <g
                                   id="g3632"
                                   transform="translate(177511.65,-22188.943)">
                                <g
                                   id="g5936"
                                   transform="translate(11767.473,-47069.909)">
                                <g
                                   id="g7318">
                                <g
                                   id="g11619"
                                   transform="translate(27457.436,-223581.94)" />
                                <g
                                   id="g11985"
                                   transform="translate(70604.821,-133364.68)">
                                <g
                                   id="g12707"
                                   transform="matrix(1.186974,0,0,1.186974,95904.637,-164033.62)">
                                <g
                                   id="g4721"
                                   transform="matrix(-1,0,0,1,-561251.4,-59483.037)">
                                <g
                                   id="g7072">
                                <g
                                   id="g10426"
                                   transform="translate(66928.962,-211126.69)">
                                <g
                                   id="g1231"
                                   transform="translate(-14020.287,4673.4667)">
                                <g
                                   id="g2516"
                                   transform="matrix(1.1495428,0,0,1.1495428,-144709.4,-78762.736)">
                                <g
                                   id="g3795"
                                   transform="translate(-22559.428,121623.52)">
                                <g
                                   id="g5627"
                                   transform="translate(-106364.63,2874.7178)">
                                <g
                                   id="g6621"
                                   transform="translate(-12196.407,40654.68)">
                                <g
                                   id="g7772"
                                   transform="translate(28747.2,74742.673)">
                                <g
                                   id="g8880"
                                   transform="translate(-60982.018,187011.51)">
                                <g
                                   id="g11165"
                                   transform="translate(-44309.499,5172.6179)">
                                <g
                                   id="g12249"
                                   transform="translate(48785.608,-8130.9328)">
                                <g
                                   id="g14000"
                                   transform="matrix(1.0831477,0,0,1.0831477,-5722.2619,28128.151)">
                                <g
                                   id="g15203"
                                   transform="translate(53158.943,24797.103)">
                                <g
                                   id="g16076"
                                   transform="translate(-37533.822,-30027.061)">
                                <g
                                   id="g17560"
                                   transform="translate(-21232.337,7962.1264)">
                                <g
                                   id="g25114"
                                   transform="translate(-67560.839,7506.7636)">
                                <g
                                   id="g29358"
                                   transform="translate(-21232.382,-47772.762)" />
                                </g>
                                <g
                                   id="g54846"
                                   transform="translate(-89414.803,-58825.532)">
                                <g
                                   id="g56152"
                                   transform="translate(-3.3655809e-4,28236.25)">
                                <g
                                   id="g56999"
                                   transform="translate(-65884.586,-28236.251)">
                                <g
                                   id="g58386"
                                   transform="translate(-26621.369,66553.488)">
                                <g
                                   id="g59580"
                                   transform="matrix(1.3336607,0,0,1.3336607,-147290.21,2462.1241)">
                                <g
                                   id="g60913"
                                   transform="translate(52929.981,10585.996)">
                                <g
                                   id="g61494"
                                   transform="translate(83376.512,12462.173)">
                                <g
                                   id="g64263"
                                   transform="translate(12959.021,17102.931)">
                                <g
                                   id="g66681"
                                   transform="translate(34932.003,-24951.435)">
                                <g
                                   id="g67253"
                                   transform="translate(-56458.648,35286.648)">
                                <g
                                   id="g67911"
                                   transform="translate(-35291.329,-19495.235)">
                                <g
                                   id="g68553"
                                   transform="translate(-128708.75,-9980.5274)">
                                <g
                                   id="g69435"
                                   transform="translate(24951.434,-1.4872907e-4)">
                                <g
                                   id="g70136"
                                   transform="translate(44108.319,-44108.311)">
                                <g
                                   id="g73710"
                                   transform="translate(2814.3438,42215.187)">
                                <g
                                   id="g75109"
                                   transform="matrix(0.86843181,0,0,0.86843181,6682.2729,-19586.27)">
                                <g
                                   id="g76838"
                                   transform="translate(18332.288,-98536.062)">
                                <path
                                   style="fill:#ffccaa;stroke-width:1349.79"
                                   d="m 545782.17,131823.1 c 2136.3,-9847.4 1775.62,-20151.53 -1099.12,-31399.84 -1306.98,-5113.961 -2344.68,-17450.188 -2311.22,-27475.954 33.39,-10007.251 -815.8,-23293.814 -1887.09,-29525.686 -4865.31,-28302.343 -22385.38,-52322.5723 -60540.13,-83001.234 -19796.8,-15917.801 -26923.71,-17315.702 -50605.51,-9925.986 -17345.46,5412.507 -24975.29,11150.945 -31411.08,23624.449 -4125.06,7994.994 -4902.56,10708.788 -4659.51,16263.6246 283.67,6483.5154 187.2,6726.9372 -3498.14,8827.14643 -9444.25,5382.12047 -12119.14,8321.11337 -18069.3,19853.40397 -4982.36,9656.556 -5901.26,12533.887 -6021.46,18854.987 -128.95,6781.143 -943.3,9054.192 -8955.38,24997.2 -9696.22,19294.21 -11484.6,25920.766 -11342.94,42029.629 105.38,11985.69 5530.18,29089.16 12594.41,39708.11 16283.47,24477.35 47604.45,39888.25 85246.7,41944.02 15420.77,842.18 40886.57,-2445.49 55326.61,-7142.74 25494.33,-8293.14 42396.9,-25338.12 47233.16,-47631.13 z M 318126.41,327455.66 c 4117.65,-18408.04 3685.07,-32602.73 -1784.18,-58547.44 -2567.32,-12178.74 -3403.9,-21759.49 -3088.87,-35375.39 237.6,-10270.24 -62.14,-22763.76 -666.12,-27763.38 -1105.86,-9154.19 -7784.64,-29846.66 -10002.82,-30991.14 -656.56,-338.76 -3250.42,-6494.6 -5764.14,-13679.66 -6602.3,-18871.63 -14064.09,-27097.61 -24571.5,-27087.97 -4922.69,4.53 -13210.27,3153.72 -16203.17,6157.02 -1117.61,1121.51 -4837.64,3072.18 -8266.7,4334.84 -10963.42,4036.97 -16859.52,9236.57 -23161.46,20425.43 -4325.66,7680.07 -6042.05,12262.14 -7390.33,19729.26 -965.88,5349.26 -3058.57,15547.07 -4650.41,22661.8 -1591.84,7114.72 -3071.02,17629.06 -3287.07,23365.21 -501.84,13324.32 2190.26,32241.68 5720.9,40200.74 2014.64,4541.55 2439.13,8532.65 1591.29,14961.81 -2905.02,22029.19 -435.98,44534.55 6461.32,58894.82 4203.13,8750.96 18946.84,27896.92 28366.37,36836.13 9732.9,9236.61 18320.58,10047.74 27960.2,2640.93 2778.85,-2135.19 10178.05,-9692.67 16442.66,-16794.4 13343.05,-15126.04 19009.42,-25284.67 22294.03,-39968.61 z m 300070.15,-592063.57 c 722.08,-5467.11 103.16,-9754.96 -4545.98,-31494.65 -2365.93,-11063.31 -2936.96,-34378.32 -1050.39,-42886.6 4145.47,-18695.57 -5381.18,-41456.06 -23137.72,-55279.29 -7495.41,-5835.08 -20969.6,-11751.46 -30912.17,-13573.21 -4445.34,-814.51 -11899.96,-3818.89 -20747.03,-8361.5 -31621.84,-16236.55 -44661.51,-12674.49 -41852.24,11432.8 722.87,6203.19 431.28,8288.67 -1275.89,9125.33 -1217.1,596.5 -9229.25,2760.94 -17804.78,4809.89 -38015.38,9082.99 -61091.58,22714.76 -77694.4,45896.32 -20652.9,28836.42 -40253.66,94375.55 -37835.32,126510.08 388.58,5163.47 -501.15,10360.5 -2981.13,17413.23 -6543.68,18609.31 -3495.02,24988.99 23402.99,48973.41 19655.94,17526.8 39826.66,32794 52659.27,39857.74 l 9595.39,5281.79 6187.55,-4370.38 c 6696.5,-4729.84 6849.46,-4726.9 22693.28,436.32 10000.25,3258.88 26489.98,3846.19 37154.4,1323.29 10013.6,-2368.92 22700.45,-9753.4 30615.01,-17819.69 7840.91,-7991.21 13277.85,-18275.11 18809.03,-35577 l 4208.13,-13163.36 9605.63,-10845.99 c 5283.09,-5965.29 10626.25,-12108.67 11873.69,-13651.95 1247.45,-1543.3 9021.11,-15303.11 17274.77,-30577.36 11989.92,-22188.54 15157.71,-28914.8 15757.91,-33459.22 z M 112000.83,341486.71 c 2621.57,-9755.51 3384.24,-21677.01 1933.72,-30226.69 -788.54,-4647.93 -734.61,-10607.13 119.86,-13242.68 4971.43,-15334.05 -10297.04,-48297.47 -30270.142,-65350.8 -9299.007,-7939.65 -27648.31,-16532.72 -37659.809,-17636.31 -26711.544,-2944.46 -53432.2868,16029.31 -58131.039,41277.47 -689.691,3705.97 -1399.616,6737.77 -1577.616,6737.37 -178,-0.4 -6001.806,406.8 -12941.785,904.88 -30611.41,2197.03 -51880.283,15768.19 -65111.359,41546 -5779.923,11260.93 -6041.295,11558.79 -17452.29,19884.25 -17456.38,12736.32 -21919.12,17524.7 -28677.13,30769.69 -14893.25,29189.18 -11041.43,62563.94 10527.95,91221.38 23912.49,31770.52 56449.75,44177.07 86249.263,32887.06 14940.947,-5660.6 28193.043,-18440.23 34251.8969,-33030.71 l 2904.0873,-6993.39 12294.4755,-1159.43 c 20835.0963,-1964.86 36176.1793,-9034.5 50416.8433,-23233.61 2760.573,-2752.53 12395.876,-13843.08 21411.781,-24645.68 17161.35,-20562.22 28768.013,-38756.15 31711.293,-49708.8 z m 125596.39,-448572.7 c 5480.83,-16747.08 6936.07,-37956.01 3695.06,-53852.9 -2379.86,-11673.07 -11634.28,-29027.39 -19418.68,-36414.86 -3836,-3640.38 -8998.17,-6909.75 -16256.9,-10296.04 -9092.04,-4241.54 -12118.79,-4989.47 -20849.44,-5152.04 -11778.77,-219.33 -29551.91,4360.62 -40412.49,10413.88 l -7505.36,4183.17 -9300.8,-4067.24 c -21997.18,-9619.38 -50067.63,-2335.92 -72377.403,18779.81 -10294.571,9743.6 -22935.029,31571.32 -25349.441,43773.79 -2197.149,11104.38 -1809.689,20914.08 1184.843,29997.75 l 2514.876,7628.69 -6559.936,11339.91 c -10785.595,18644.651 -12887.76,33817.32 -7050.783,50890.071 5095.665,14904.437 21856.36,33027.3333 38353.668,41470.8142 30060.027,15384.9618 64701.676,8390.156 86896.516,-17546.0842 3179.67,-3715.672 6497.11,-8123.691 7372.08,-9795.583 1054.16,-2013.678 4362.57,-3895.236 9802.77,-5574.226 17866.15,-5513.976 36198.97,-17438.888 49427.32,-32150.895 6924.59,-7701.233 22912.77,-34701.691 25834.1,-43628.017 z"
                                   id="path76844" />
                                <path
                                   style="fill:#ffb380;stroke-width:1349.79"
                                   d="m 545687.04,128091.32 c 1442.26,-9017.44 884.33,-17208.41 -2056.62,-30192.858 -1071.24,-4729.58 -1903.49,-16189.519 -1849.44,-25466.532 216.39,-37147.591 -7852.28,-58434.974 -31729.05,-83709.941 -13258.93,-14035.37 -20728.36,-20086.743 -11391.29,-9228.682 12252.18,14248.0263 19696.37,28681.799 22602.18,43824.087 2049.08,10677.875 2708.31,30452.935 1426.69,42796.434 -427.02,4112.739 -17.84,11842.227 909.3,17176.628 3964.02,22807.514 -397.65,41220.774 -13629.89,57540.104 -14953.75,18442.45 -46753.99,30072.32 -78879.75,28847.59 -27762.99,-1058.41 -49023.53,-11059.24 -62856.4,-29567.3 -6439.03,-8615.28 -12710.48,-29409.34 -12409.6,-41146.207 399.59,-15587.291 2849.67,-24324.828 11906.25,-42460.44 6186.21,-12387.749 8124.1,-17412.066 8068.02,-20917.85 -205.91,-12876.239 7703.09,-27900.3223 19429.65,-36908.8732 l 5459.04,-4193.7342 529.81,-7548.3716 c 749.77,-10682.179 8154.21,-23539.387 17272.2,-29991.736 3555.43,-2516.001 6286.09,-4666.555 6068.15,-4779.003 -1748.41,-902.105 -16678.89,9253.519 -21336.56,14513.003 -6601.65,7454.628 -9800.66,16266.807 -9273.83,25546.1223 l 293.43,5168.1663 -5288.85,3108.56203 C 374116.95,9218.9695 365209.7,25686.707 366537.09,41938.287 c 227.83,2789.461 -1658.35,7307.732 -7855.4,18817.312 -13850.67,25724.33 -15999.6,41924.691 -8603.88,64862.471 7152,22181.84 18690.45,35302.41 41199.58,46848.7 15764.14,8086.37 30183.56,11940.04 49759.81,13298.56 29672.71,2059.17 63090.61,-5636.41 80622.51,-18566.02 8979.02,-6621.93 9996.52,-7819.15 16151.97,-19004.61 5078,-9227.55 6865.78,-13791.21 7875.36,-20103.38 z M 314839.38,336738.67 c 7190.08,-20123.95 7116.93,-36704.29 -328.87,-74547.97 -1340.33,-6812.26 -2124.49,-20106.3 -1848.09,-31330.75 655.38,-26613.93 -2863.49,-44749.2 -10934.45,-56353.31 -1757.08,-2526.25 -1886.87,-1888.89 -1174.58,5767.59 440.43,4734.22 571.97,16307.65 292.33,25718.75 -311.43,10479.81 575.95,23015.62 2289.74,32346.96 8587.04,46755.3 3036.97,74005.15 -20949.96,102860.7 -13400.54,16120.45 -17384.21,18214.82 -25930.71,13632.75 -3731.15,-2000.45 -7728.14,-6318.18 -14605.18,-15777.39 -11399.74,-15680.07 -17076.76,-26946.89 -19698.73,-39094.77 -1970.7,-9130.54 -2502.28,-32200.41 -1024.42,-44459.2 444.44,-3686.72 -481.6,-11018.06 -2099.3,-16619.84 -1592.01,-5512.8 -3225.25,-15483.53 -3629.43,-22157.21 -404.17,-6673.68 -1059.83,-11504.13 -1457,-10734.36 -397.16,769.77 -1558.95,6300.13 -2581.77,12289.68 -2510.65,14702.48 -1278.45,33211.47 3166.52,47564.23 2889.68,9330.81 3450.99,14176.97 2630.93,22714.98 -2451.15,25520.37 648.59,46150.6 9100.79,60569.84 7124.78,12154.72 23661.94,31092.95 31298.47,35842.77 6652.58,4137.81 7412.53,4298.46 13343.36,2820.65 6710.2,-1672.01 12339.38,-6488.51 26109.34,-22339.9 9398.83,-10819.55 14592.54,-19090.48 18031.01,-28714.2 z m 302217.57,-598436.31 c 1493.64,-7346.04 793,-13976.52 -3216.11,-30435.3 -1545.95,-6346.63 -2814.49,-17253.46 -2819,-24237.41 -4.52,-6983.94 -121.12,-13439.82 -259.14,-14346.4 -138.02,-906.59 307.9,-4435.69 990.95,-7842.46 1956.57,-9758.71 1530.86,-16643.78 -1623.67,-26260.95 -3144.69,-9587.1 -9828.15,-19614.54 -17283.91,-25931.66 -6946.47,-5885.61 -22842.62,-13703.68 -32012.74,-15744.58 -4791.53,-1066.4 -14585.55,-4963.5 -23892.57,-9506.99 -17583.9,-8584.1 -27269.26,-11001.69 -34218.42,-8541.37 -5632.98,1994.36 -7421.63,7683.2 -6067.98,19299.3 726.06,6230.54 434.82,8873.25 -1076.36,9766.78 -1139.47,673.75 -10205.33,3217.76 -20146.36,5653.36 -29312.8,7181.76 -49842.12,17459.71 -65655.46,32870.21 -6552.12,6385.22 -8165.98,8955.42 -19809.34,31547.9 -10701.72,20765.07 -13357.64,26965.4 -17051.74,39805.6 -8655.14,30084.18 -11993.1,50794.71 -10966.54,68042.4 331.14,5563.74 -463.94,10167.13 -2711.59,15699.51 -7100.72,17477.74 -3621.55,25491.15 20372.83,46923.81 22077.46,19720.38 32528.86,27839.52 56571.8,43947.62 5798.09,3884.56 6058.97,3917.54 9981.15,1261.49 9097.52,-6160.72 12286.86,-6731.25 20389.34,-3647.43 15915.25,6057.38 31594.25,6585.08 47238.44,1589.9 24280.93,-7752.87 36415.22,-22100.68 45969.16,-54354.71 2800.74,-9455.3 3068.51,-9875.53 13838.88,-21718.11 9489.35,-10434.04 12355.1,-14569.65 21073.85,-30412.07 5550.06,-10084.71 12561.66,-22528.97 15581.38,-27653.92 3420.75,-5805.59 5985.23,-11751.88 6803.15,-15774.52 z m -25965.46,30189.38 c -2804.38,5572.5 -6451.21,9529.55 -10473.38,11364.22 -3296.47,1503.66 -4912.21,3345.88 -7001.33,7982.78 -3715.35,8246.4 -11844.51,13405.95 -20763.53,13178.55 -7649.34,-195.04 -10959.77,-1675.74 -14314.59,-6402.76 -3538.96,-4986.45 -3776.56,-11331.34 -695.36,-18568.32 1476.17,-3467.16 3371.77,-8389.39 4212.43,-10938.3 985.39,-2987.66 3126.22,-5930.73 6025.01,-8282.8 2473.09,-2006.65 6398.51,-6290.78 8723.16,-9520.26 7379.8,-10252.24 20289.97,-14218.54 31325.3,-9623.86 5216.88,2172.09 6734.06,3460.8 8404.98,7140.48 2753.45,6063.05 2244.63,12703.82 -1335.9,17435.45 -1591.24,2102.8 -3439.29,4908.47 -4106.79,6234.82 z m -51798.42,80157.68 c -10068.23,13602.29 -22640.22,18871.01 -36139.02,15145.32 -6999.11,-1931.77 -8310.28,-1793.84 -14137.11,1487.14 -9911.5,5581.02 -19699.42,4949.42 -35739.03,-2306.12 -6985.31,-3159.82 -16890.3,-6900.14 -22011.09,-8311.83 -18860.14,-5199.36 -33650.3,-15057.81 -42600.38,-28395.52 -8548.81,-12739.74 -16934.8,-33361.32 -17952.2,-44145.44 -993.69,-10532.78 2682.17,-53446.85 4734.81,-55276.6 3185.52,-2839.66 6222.61,1687.79 5062.6,7546.97 -1640.71,8287.19 -1362.79,14660.74 1016.55,23312.35 2076.38,7550.04 2213.88,7714.42 6449.47,7710.53 2380.32,-2.18 6537.57,1136.14 9238.33,2529.61 4510.56,2327.26 5349.03,3789.66 10295.38,17956.66 8609.99,24660.14 14302.99,30629.71 34763.3,36452.03 5358.99,1524.98 13376.32,4395.47 17816.3,6378.86 10272.63,4588.89 13361.52,4485.18 18280.4,-613.75 5676.71,-5884.49 14762.72,-8400.73 23014.69,-6373.59 3728.76,915.97 7708.53,2591.18 8843.99,3722.68 1900.82,1894.25 2316.2,1569.31 5241.34,-4100.06 3358.72,-6509.68 6182.38,-9113.95 12379.63,-11417.7 7552.39,-2807.5 18235.03,1338.03 21603.31,8383.44 3040.4,6359.58 -708.62,17544.38 -10161.27,30315.02 z M 109592.02,345804.78 c 4190.83,-11579.4 5321.66,-20756.16 3962.42,-32154.94 -652.24,-5469.71 -525.11,-13650.15 282.49,-18178.74 1786.91,-10020.11 -1607.15,-22028.16 -10810.91,-38248.51 -8781.447,-15476.11 -19122.826,-25563.98 -34362.06,-33519.77 -18286.107,-9546.47 -30208.381,-10662.48 -47553.375,-4451.42 -18390.529,6585.46 -28278.2413,18631.85 -33474.74,40782.93 -747.013,3184.32 -1797.059,3538.89 -12276.41,4145.58 -16475.485,953.82 -33346.083,6688.29 -44332.289,15068.93 -10950.808,8353.65 -16545.367,15139.17 -23340.636,28309.42 -5057.275,9801.74 -5670.401,10471.08 -17446.06,19045.36 -13418.59,9770.54 -21333.82,17846.69 -25605.77,26126.37 -2758.4,5346.17 -2750.92,5390.85 604.21,3629.33 1868.33,-980.88 5654.91,-1601.16 8414.6,-1378.37 4899.75,395.54 5085.42,254.26 7903.84,-6013.83 2610.51,-5805.72 3158.14,-6324.96 5733.05,-5435.4 2663.42,920.12 2609.69,1443.09 -833.87,8117.22 -2460.79,4769.38 -3350.99,7909.84 -2685.88,9475.37 547.15,1287.88 1134.35,5946.34 1304.9,10352.12 360.84,9322.33 6677.23,35977.94 9859.76,41608.91 1201.68,2126.14 5523.547,6201.5 9604.174,9056.34 4080.623,2854.84 9308.202,6910.41 11616.836,9012.4 3700.692,3369.43 4909.906,3781.35 10216.381,3480.08 7235.317,-410.78 16417.669,3853.96 19307.746,8967.47 6408.194,11338.26 -7218.514,26068.92 -17252.515,18650.22 -1387.63,-1025.96 -5754.933,-1823.83 -9705.104,-1773.06 -8232.224,105.82 -15111.595,-2922.52 -18961.338,-8346.89 -1454.47,-2049.36 -6300.13,-6170.14 -10768.15,-9157.28 -9916.83,-6630.02 -13601.54,-10931.74 -18310.88,-21377.12 -4495.56,-9971.23 -10393.94,-34578.09 -11431.12,-47688.37 -427.55,-5404.46 -1050.92,-8600.45 -1385.27,-7102.2 -334.34,1498.23 -1224.49,4798.13 -1978.1,7333.11 -753.63,2534.97 -1544.3,10276.13 -1757.05,17202.6 -817.65,26620.76 13488.93,55461.43 37023.81,74636.23 19841.169,16165.4 41215.94,21324.57 62543.177,15095.86 17862.711,-5216.88 27991.354,-13753.21 37011.662,-31193.14 l 5313.8992,-10272.63 11439.0115,-853.3 C 22382.533,437642.7 35258.14,433292.31 45929.543,425758.46 56334.688,418412.59 60409.459,414136.44 81274.985,388666.23 99455.155,366473.97 105330.63,357580.92 109592.56,345805.05 Z M 239977.2,-118768.34 c 3860.05,-16971.28 3404.67,-33717.63 -1319.08,-48508.72 -8766.52,-27449.91 -28353.75,-44045.86 -53114.66,-45003.23 -11464.07,-443.25 -12820.22,416.46 -2480.16,1572.26 11009.13,1230.59 24261.15,9183.71 31603.11,18966.42 12397.31,16518.65 16392.68,41880.71 10527.98,66829.96 -2356.58,10025.2 -3925.27,13650.18 -12358.19,28557.511 -5647.62,9983.631 -12009.79,19646.529 -15319.53,23267.329 -9001.04,9847.093 -26363.33,21832.541 -39662.83,27379.825 -11049.17,4608.666 -12757.35,5805.791 -17985.61,12604.684 C 118555.55,-5387.0368 86741.04,2658.1201 57702.534,-12324.48 42965.705,-19928.041 32865.032,-29981.31 25974.697,-43903.452 c -4384.682,-8859.354 -5759.633,-17483.841 -4500.264,-28228.13 l 911.632,-7777.63 -2376.366,6245.04 C 10223.441,-47946.104 26545.403,-16249.313 57907.406,-67.88904 92343.027,17699.387 125843.69,9567.1325 149271.31,-22246.358 c 5114.91,-6945.796 6156.45,-7645.914 17101.38,-11495.499 19751.58,-6947.115 35665.05,-18422.033 48894.01,-35256.629 9235.13,-11752.202 21836.06,-37131.964 24710.5,-49769.854 z m -108598.39,-81852.65 c -7223.78,-3727.16 -20553.02,-5922.19 -30345.18,-4997.16 -35493.641,3352.93 -70871.143,41502.77 -72054.623,77701.12 -338.452,10352.02 3535.065,24741.33 6412.855,23822.46 1322.722,-422.34 1191.427,-3319.28 -431.487,-9520.22 -2923.234,-11169.31 -2741.741,-19278.91 711.047,-31770.22 6999.284,-25321.6 31178.056,-49762.14 55873.787,-56478.67 12591.661,-3424.56 22828.331,-2902.39 34025.891,1735.68 9937.46,4116.13 14062.25,3765.99 5807.71,-492.99 z M 25834.863,-88364.383 c -1056.783,1344.072 -2159.928,3508.847 -2451.417,4810.619 -291.497,1301.768 573.165,202.014 1921.422,-2443.777 1348.281,-2645.839 1586.77,-3710.918 529.995,-2366.842 z"
                                   id="path76842" />
                                <path
                                   style="fill:#ff6600;stroke-width:1349.79"
                                   d="m 569536.72,-296689.97 c -487.29,-11846.51 282.74,-24513.19 1894.18,-31157.64 855.31,-3526.73 2205.18,-9188.64 2999.71,-12582.03 1944.14,-8303.18 -1553.32,-21287.76 -7853.83,-29157.93 -3745.64,-4678.81 -7344.21,-7449.56 -15522.07,-11951.41 -5855.28,-3223.28 -14388.25,-8542.68 -18962.14,-11820.88 -6521.52,-4674.1 -9526.49,-6155.69 -13924.6,-6865.49 -5054.54,-815.74 -5870.33,-486.77 -8260.11,3331.1 -1458.42,2329.93 -2649.83,6245.77 -2647.56,8701.88 4.93,5368.1 -17.66,5376.47 -18089.87,6705.36 -22180.28,1630.98 -38971.93,9048.54 -51944.79,22946.18 -11792.03,12632.62 -31279.97,52618.43 -33175.41,68070.07 -412.71,3364.45 -2526.79,9825.82 -4697.94,14358.6 -5132.47,10715.18 -4465.27,14616.39 4595.87,26872.37 9074.28,12273.73 25565.48,30594.52 32944.33,36599.27 5682.9,4624.63 5794.67,4652.49 10394.1,2591.16 4229.39,-1895.46 5344.05,-1739.65 12337.95,1724.66 9671.94,4790.83 16699.86,6236.97 26198.41,5390.85 14723.92,-1311.57 26081.83,-9997.74 34560.59,-26430.83 3986.54,-7726.51 5998.89,-10195.73 12259.44,-15042.76 8128.24,-6293.03 17581,-16298.44 20207.44,-21388.87 906.88,-1757.68 3642.62,-5072.89 6079.42,-7367.16 6876.92,-6474.68 10937.79,-15481.84 10606.88,-23526.5 z M 77502.361,334171.73 c 3359.479,-8830.28 4277.006,-16561.8 2892.961,-24377.31 -527.033,-2976.12 -609.833,-6086.41 -184.004,-6911.73 3676.033,-7124.7 -2335.806,-26180.96 -12245.169,-38814.66 -6308.747,-8043.18 -17858.473,-16235.82 -27162.709,-19267.52 -18662.005,-6080.83 -38438.4352,2751.43 -45484.6458,20313.65 -1567.7839,3907.56 -2944.2458,8081.54 -3058.8268,9275.48 -146.7679,1529.48 -2606.2344,2254.13 -8324.8594,2452.84 -11246.422,390.8 -23459.808,4605.25 -31891.496,11004.77 -5666.004,4300.42 -8291.246,7441.36 -12841.868,15364.52 -5012.953,8728.15 -7030.323,10972.54 -16322.074,18158.58 -10361.869,8013.68 -10748.605,8485.36 -17064.698,20813.15 -8337.852,16273.93 -8969.342,24448.08 -3263.819,42249.8 5934.624,18516.52 16525.657,31316.39 32992.348,39873.1 9736.757,5059.58 15157.257,6205.12 25936.009,5481.12 14603.529,-980.89 26672.315,-9374.86 33740.4604,-23466.85 l 3415.5396,-6809.69 9343.9184,-717.77 C 25744.687,397428.57 35231.217,391328.53 53643.593,369430.18 68462.253,351805.95 73787.34,343936.56 77502.352,334171.72 Z"
                                   id="path76840" />
                                </g>
                                </g>
                                </g>
                                </g>
                                </g>
                                </g>
                                </g>
                                </g>
                                </g>
                                </g>
                                </g>
                                </g>
                                </g>
                                </g>
                                </g>
                                </g>
                                </g>
                                </g>
                                </g>
                                </g>
                                </g>
                                </g>
                                </g>
                                </g>
                                </g>
                                </g>
                                </g>
                                </g>
                                </g>
                                </g>
                                </g>
                                </g>
                                </g>
                                </g>
                                </g>
                                </g>
                                </g>
                                </g>
                                </g>
                                </g>
                                </g>
                                </g>
                                </g>
                                </g>
                                </g>
                                </g>
                                </g>
                                </g>
                                </g>
                                </g>
                                </g>
                                </g>
                                </g>
                                </g>
                                </g>
                                </g>
                                </g>
                                </g>
                                </g>
                                </g>
                                </g>
                                </g>
                                </g>
                                </g>
                                </g>
                                </g>
                                </g>
                                </g>
                                </g>
                                </g>
                                </g>
                                </g>
                                </g>
                                </g>
                                </g>
                                </g>
                                </g>
                                </g>
                                </g>
                                </g>
                                </g>
                                </g>
                                </g>
                                </g>
                                </g>
                                </g>
                                </g>
                              </g>
                            </g>
                          </g>
                        </g>
                      </g>
                    </g>
                  </g>
                </g>
              </g>
            </g>
          </g>
        </g>
      </g>
    </g>
  </g>
</svg>
