<?xml version="1.0" encoding="UTF-8" standalone="no"?>
<!-- Created with Inkscape (http://www.inkscape.org/) -->

<svg
   width="64"
   height="64"
   viewBox="0 0 16.933333 16.933334"
   version="1.1"
   id="svg5"
   inkscape:version="1.2 (dc2aedaf03, 2022-05-15)"
   sodipodi:docname="graines_de_lin.svg"
   xmlns:inkscape="http://www.inkscape.org/namespaces/inkscape"
   xmlns:sodipodi="http://sodipodi.sourceforge.net/DTD/sodipodi-0.dtd"
   xmlns="http://www.w3.org/2000/svg"
   xmlns:svg="http://www.w3.org/2000/svg">
  <sodipodi:namedview
     id="namedview7"
     pagecolor="#ffffff"
     bordercolor="#666666"
     borderopacity="1.0"
     inkscape:pageshadow="2"
     inkscape:pageopacity="0.0"
     inkscape:pagecheckerboard="0"
     inkscape:document-units="mm"
     showgrid="false"
     units="px"
     inkscape:zoom="16.771208"
     inkscape:cx="22.926196"
     inkscape:cy="18.066677"
     inkscape:window-width="1920"
     inkscape:window-height="1009"
     inkscape:window-x="-8"
     inkscape:window-y="-8"
     inkscape:window-maximized="1"
     inkscape:current-layer="g4856"
     inkscape:showpageshadow="0"
     inkscape:deskcolor="#d1d1d1" />
  <defs
     id="defs2" />
  <g
     inkscape:label="Calque 1"
     inkscape:groupmode="layer"
     id="layer1">
    <g
       id="g4128"
       transform="translate(-0.63104184,0.12620835)">
      <g
         id="g4856"
         transform="matrix(1.0436402,0,0,1.0436402,-0.25176957,-0.26262699)">
        <path
           style="fill:#ff7f2a;stroke-width:0.0392825"
           d="M 4.5474677,12.142823 C 4.1606127,12.028528 3.5973065,12.01296 3.3023931,11.815025 3.4417372,11.5558 3.7495968,11.441077 3.9624469,11.244883 c 0.392748,-0.295727 0.9233216,-0.316211 1.3869486,-0.430509 0.4671217,-0.09081 0.9364853,0.04852 1.3950208,0.130572 0.1869962,0.09289 0.3215184,0.232377 0.3893445,0.43109 0.1361647,0.201911 -0.00476,0.428025 -0.2205394,0.499766 -0.4331052,0.182454 -0.8915998,0.328435 -1.3665619,0.299589 -0.3334205,-0.0067 -0.6733251,0.05891 -0.9991918,-0.03257 z M 6.3701083,10.623074 C 6.0848604,10.60121 5.7836864,10.518455 5.5704021,10.32403 5.7069979,10.091329 5.8278038,9.8445174 6.07488,9.7105541 6.560967,9.3126382 7.1722228,9.0879273 7.7766391,8.9391165 8.3552332,8.7731328 8.9577556,8.8623891 9.5503809,8.8477957 c 0.353941,0.00293 0.7078821,0.00586 1.0618231,0.00879 0.06918,0.3230292 -0.6726088,0.533923 -0.8530828,0.8272686 C 9.526687,9.8921774 9.3160882,10.12958 9.0117073,10.231717 8.3864649,10.575334 7.640875,10.578329 6.9472026,10.64285 6.7529077,10.660856 6.5625949,10.657426 6.3701083,10.623074 Z M 11.48083,10.309017 C 10.99329,10.196671 10.389325,10.133829 9.9678384,9.962204 9.9639222,9.7290383 10.248425,9.6640649 10.386296,9.5135829 10.717812,9.1972365 11.15316,9.0473407 11.595282,8.9551525 11.978848,8.8422709 12.387304,8.7997947 12.78419,8.8298594 c 0.339773,0.076011 0.731599,0.054119 1.025489,0.2484027 0.234179,0.1526335 0.351251,0.4435809 0.322718,0.7175905 -0.36705,0.3402574 -0.892323,0.3822434 -1.355247,0.5183154 -0.431012,-0.0061 -0.870092,0.0695 -1.29632,-0.0052 z M 3.7313657,9.4041306 C 3.2606894,9.3350906 2.8323227,9.0845267 2.3493678,9.0948827 1.9103791,9.0800798 2.600643,8.6452215 2.7147913,8.519623 2.9609558,8.2998277 3.2845965,8.1848734 3.5815959,8.0518003 4.0248508,7.9450905 4.4602385,7.7858017 4.9227302,7.8076592 5.2905957,7.7735143 5.6728393,7.7897289 6.0187189,7.9217917 6.2725958,8.0334778 6.5507925,8.2281627 6.5470632,8.5289315 6.5177943,8.7346479 6.4261613,8.9069571 6.2704626,9.0449475 5.9902542,9.2419578 5.6450828,9.3264066 5.3057552,9.3694261 4.8586777,9.4473878 4.3984799,9.4216332 3.9466412,9.437492 3.8748827,9.4263716 3.8031242,9.4152511 3.7313657,9.4041306 Z M 10.356152,8.6026615 C 9.6455438,8.4927034 8.9721024,8.2203305 8.2782559,8.0494185 8.3985247,7.7612422 9.1211031,7.6559836 9.4241924,7.4091396 9.780355,7.2259576 10.151078,7.0286775 10.563467,7.0662145 c 0.402515,-0.0295 0.803665,-0.028884 1.200408,0.054148 0.48481,0.073311 0.976503,0.1586382 1.402066,0.4145461 0.142009,0.053755 0.351438,0.186309 0.362929,0.3171698 -0.182732,0.177878 -0.341362,0.3905687 -0.599189,0.4599765 C 12.466202,8.4963853 11.984485,8.6744738 11.478305,8.63972 11.102877,8.6388909 10.725348,8.692485 10.356152,8.6026615 Z M 7.0026242,7.5173607 C 6.4078792,7.4658263 5.8315708,7.3013477 5.2462142,7.1919019 5.1604825,6.8997166 5.6527817,6.7741262 5.8255485,6.5759201 6.2547973,6.2123477 6.8477668,6.1768524 7.3715317,6.0287315 7.8107799,6.0236964 8.250576,6.0123307 8.6799885,6.1209505 9.0176921,6.1676458 9.3909564,6.4205079 9.3746335,6.7969306 9.4468657,7.0389621 9.2077332,7.1438689 9.0323046,7.2264605 8.3836018,7.4700657 7.6972957,7.5804875 7.0026242,7.5173607 Z M 13.248542,5.9270668 C 12.550349,5.8276746 11.749373,5.7676461 11.225493,5.2440963 11.362545,4.9224794 11.723865,4.835064 12.003315,4.68032 c 0.378023,-0.093744 0.749273,-0.2392985 1.145399,-0.194539 0.419033,-0.011202 0.838037,-0.010334 1.244413,0.1073962 0.531732,0.144499 1.071602,0.2813365 1.590628,0.4589791 -0.358283,0.2845977 -0.837584,0.394855 -1.228833,0.6396625 -0.302768,0.1657232 -0.63106,0.2602336 -0.976061,0.2378232 -0.176621,0.0042 -0.353955,0.01107 -0.530319,-0.00258 z"
           id="path4866" />
        <path
           style="fill:#ffccaa;stroke-width:0.0392825"
           d="M 4.7635215,12.155436 C 4.3563541,12.021274 3.5476106,12.041748 3.3582117,11.758201 3.7683469,11.356186 4.2599944,11.014522 4.8426482,10.937394 5.170571,10.833741 5.5068791,10.80125 5.8493666,10.821201 c 0.2893376,0.0064 0.5809329,0.07437 0.8608346,0.136315 0.2178272,0.11196 0.4765643,0.29357 0.4097205,0.570766 0.081127,0.244371 -0.157809,0.291444 -0.328591,0.380529 -0.3017895,0.123669 -0.6328318,0.189993 -0.9517884,0.253877 -0.3581243,-0.0036 -0.7223894,0.06517 -1.0760208,-0.0073 z m 1.2141377,-0.315207 c 0.3421658,-0.04803 0.6757018,-0.140975 0.9868249,-0.293004 -0.5346818,0.132226 -1.0794458,0.252394 -1.631244,0.303014 0.13534,0.165859 0.4606361,-0.01272 0.6444191,-0.01001 z M 5.667019,11.65094 c 0.2622311,-0.09682 1.0087949,-0.127 1.0367027,-0.193782 -0.3760699,9.7e-5 -0.7571587,-0.04294 -1.1177259,0.09039 -0.3832984,0.110055 -0.7906509,0.09183 -1.1845217,0.112089 -0.095122,0.0069 -0.5274846,-0.166743 -0.3340634,-0.0053 0.3656768,0.181802 0.8026789,0.0667 1.2006758,0.07683 0.1389872,0.0086 0.2662744,-0.04837 0.3989325,-0.08027 z M 4.0280947,11.493614 c 0.5305057,-0.247505 1.1146139,-0.412687 1.7021669,-0.39784 0.3424437,0.01267 0.6854366,0.01967 1.0050668,0.158621 0.3511495,0.05594 -0.3915857,-0.217458 -0.5576368,-0.28862 -0.5586113,-0.01413 -1.1225551,0.0086 -1.6512158,0.21395 -0.2830749,0.06541 -0.5136089,0.253232 -0.7440822,0.418809 0.08889,-0.01617 0.1640031,-0.07067 0.2457011,-0.10492 z m 2.176373,-0.912768 C 5.9346495,10.520772 5.3802691,10.439593 5.7277927,10.072768 5.921966,9.8205765 6.1877858,9.611646 6.4716064,9.4608494 7.1949549,9.0244724 8.0375799,8.8709126 8.8690919,8.8291813 9.4450385,8.8042234 10.021535,8.9256092 10.600183,8.8963542 10.490753,9.2124709 9.8315583,9.5152692 9.5520423,9.8410142 9.311091,10.095428 8.989086,10.25283 8.665092,10.371162 7.8635255,10.579743 7.030467,10.69276 6.2044677,10.580846 Z M 6.3085915,10.11595 C 6.6868125,9.8574423 7.1046149,9.6665887 7.5609577,9.6117663 8.2352606,9.4945948 8.8934721,9.3070502 9.5342727,9.0673358 9.2631964,9.0689972 8.6873319,9.2135364 8.3246358,9.2694561 7.5616122,9.4057575 6.7905187,9.5961807 6.1155136,9.9868994 6.0152507,10.065721 5.719506,10.332519 6.0052678,10.310528 6.1063757,10.245669 6.2074836,10.180809 6.3085915,10.11595 Z m 1.8332253,0.108946 c 0.3868261,-0.0502 0.776695,-0.152418 1.0627814,-0.4317222 -0.00767,-0.07356 -0.4298024,0.2265562 -0.6455417,0.2521952 -0.4406139,0.085 -0.8927921,0.12763 -1.320737,0.265255 0.3019158,-0.02016 0.6036803,-0.04385 0.9034973,-0.08573 z M 7.1008304,10.111022 C 7.6384756,9.9110597 8.2519835,10.031075 8.7650383,9.742346 9.1197945,9.5621248 9.7719501,9.2788968 9.9045141,9.0821624 9.2432565,9.3237882 8.6180607,9.713291 7.9165673,9.8234042 7.5934601,9.8808219 7.2340804,9.8653556 6.9380747,10.000641 c -0.2803292,0.212382 -0.120294,0.226811 0.1627557,0.110381 z m 4.6310316,0.193862 C 11.168598,10.284954 10.631578,10.088165 10.079723,9.9911395 9.7808799,9.7981648 10.55132,9.4816019 10.706045,9.3026036 11.116001,9.0053332 11.63785,8.9946916 12.10935,8.8580033 c 0.431534,0.00323 0.867119,-0.033188 1.28587,0.095188 0.225445,0.025362 0.461986,0.1243248 0.594868,0.3074968 0.1031,0.1602972 0.140704,0.3751162 0.07999,0.5470863 -0.194616,0.2194065 -0.504876,0.2724245 -0.772362,0.3614995 -0.514646,0.111046 -1.038083,0.19335 -1.565851,0.13561 z m 1.197434,-0.3686833 c 0.345619,-0.057994 0.703115,-0.134292 0.998798,-0.314465 -0.59022,0.1467115 -1.189419,0.289774 -1.798982,0.3429454 0.140083,0.2015789 0.596629,-0.046699 0.800184,-0.02848 z m -0.4542,-0.1792351 C 12.75894,9.6489575 13.600047,9.6194744 13.55333,9.5310058 13.174245,9.5079478 12.795981,9.514645 12.431366,9.630525 c -0.41741,0.1201706 -0.85818,0.1260235 -1.287875,0.127276 -0.224926,-0.061072 -0.647467,-0.062111 -0.157806,0.053129 0.423086,0.090436 0.868639,0.054737 1.293888,-0.0022 0.06517,-0.017254 0.130349,-0.034507 0.195523,-0.051761 z M 11.389658,9.3287942 c 0.40429,-0.1473652 0.838045,-0.1746458 1.261652,-0.2135932 0.404767,0.044603 0.79942,0.1463607 1.194752,0.2377138 -0.322206,-0.1306737 -0.63473,-0.3710013 -0.999811,-0.3178386 -0.426193,0.011274 -0.860464,-0.042809 -1.269665,0.1059469 -0.426768,0.087222 -0.817882,0.3190731 -1.156384,0.585985 0.314411,-0.1592518 0.621895,-0.3230908 0.969456,-0.3982139 z M 3.5457638,9.3504098 C 3.1541912,9.243417 2.7780431,9.0880303 2.3681166,9.066423 1.9127121,9.0285292 2.7360321,8.5969483 2.8393475,8.4632589 3.5260028,7.9764354 4.4033433,7.8420168 5.2269819,7.7937508 c 0.3225863,0.047899 0.6620699,0.039448 0.9416708,0.2306944 0.1788812,0.053627 0.3276262,0.2235185 0.3419094,0.4045744 0.00964,0.2240127 -0.06774,0.444097 -0.2285856,0.5965754 C 5.9980975,9.1855636 5.6998899,9.3037395 5.3747797,9.3434473 4.8493151,9.4137419 4.3117409,9.3777725 3.7814589,9.4057934 3.7028939,9.3873322 3.6243288,9.368871 3.5457638,9.3504098 Z M 5.2545528,9.0901385 C 5.5070597,9.0740431 5.7363765,8.9597943 5.9498401,8.8321794 5.5367789,8.903866 5.1401906,9.0648998 4.7142126,9.0364764 4.4032947,9.0486398 4.0923768,9.0608022 3.7814589,9.072965 4.2673784,9.1083959 4.7714876,9.1751216 5.2545528,9.0901385 Z M 3.0158557,8.7546432 C 3.6107133,8.5539028 4.242424,8.486974 4.8530332,8.3434267 5.3050755,8.2192838 5.7810755,8.2986833 6.2397745,8.3361441 6.2937285,8.3073526 5.8021531,8.1255767 5.6191637,8.1507149 5.0944202,8.1194652 4.5869426,8.2900533 4.0676618,8.3383414 3.6609085,8.4011725 2.8394294,8.6988476 2.7322341,8.8553832 c 0.094348,-0.03412 0.1889478,-0.067538 0.2836216,-0.10074 z m 1.845872,0.013803 c 0.5001113,-0.101157 1.0356581,-0.083194 1.5123764,-0.264282 -0.6028487,0.027566 -1.2104317,0.01113 -1.800719,0.155441 -0.4594946,0.08127 -0.9186885,0.1654701 -1.3811638,0.2282961 0.546622,-5.343e-4 1.0927698,-0.00703 1.6309295,-0.1138742 l 0.03128,-0.00453 z M 10.636256,8.6166135 C 9.8326392,8.5468822 9.0868152,8.2205871 8.3046204,8.0517802 8.3133244,7.818766 8.8196273,7.8035079 8.9962436,7.6345307 9.3610303,7.4872661 9.6916654,7.2378199 10.073276,7.1425515 c 0.694398,-0.1626772 1.413456,-0.0557 2.105626,0.060513 0.370722,0.079549 0.731871,0.1852347 1.061574,0.3767909 0.09311,0.079484 0.392931,0.245801 0.190162,0.3485717 -0.181573,0.1858942 -0.373318,0.3554478 -0.633299,0.4153891 -0.682408,0.2770725 -1.431319,0.3694373 -2.161083,0.272797 z m 1.964125,-0.4824241 c 0.272234,0.05643 0.985388,-0.5641394 0.330426,-0.3153531 -0.361999,0.1179423 -0.717532,0.2614357 -1.104528,0.2558184 -0.468993,0.034501 -0.937664,-0.086614 -1.408342,-0.024136 -0.256773,0.011621 -0.9717585,0.037619 -0.9952901,0.089336 0.9813531,0.094019 1.9699661,0.08013 2.9530701,0.050243 0.07489,-0.018636 0.149784,-0.037272 0.224664,-0.055908 z M 9.7720407,7.8955848 c 0.5124673,-0.05018 1.0285423,-0.2121931 1.5432373,-0.103901 0.298798,0.041923 0.628239,0.077623 0.912958,0.00773 C 12.524934,7.5239127 11.674898,7.7308429 11.504087,7.6495304 10.950289,7.655324 10.378355,7.5486865 9.8443498,7.7375519 9.6524168,7.791937 8.870194,7.99363 9.0401681,8.0414685 9.284265,7.9935604 9.5287157,7.9472417 9.7720407,7.8955848 Z M 10.054382,7.4789597 c 0.408656,-0.1070983 0.845483,-0.00735 1.26341,-0.028234 0.128993,-0.00773 0.793526,0.073523 0.371367,-0.024261 -0.469664,-0.1049975 -0.946885,-0.1246667 -1.42441,-0.078528 -0.18752,0.00731 -0.6701982,0.3051769 -0.210367,0.1310218 z M 6.6687229,7.463636 C 6.2118495,7.3773844 5.7176664,7.264775 5.2818561,7.1803215 5.1841672,6.9778709 5.4795621,6.8802786 5.5995708,6.7642399 5.8698963,6.5658441 6.1203697,6.3263103 6.4646535,6.2716605 6.9258847,6.181456 7.3825068,5.9686907 7.8604161,6.0392984 8.2400138,6.0525027 8.6327157,6.0929659 8.9828779,6.242594 9.2634173,6.3306039 9.3711898,6.637733 9.3811526,6.9077319 9.3421466,7.0503075 9.1478499,7.1691705 8.9968229,7.2174158 8.5013916,7.4052131 7.9811492,7.5226203 7.4501197,7.5045759 7.1858982,7.519491 6.9277893,7.5286162 6.6687229,7.463636 Z M 8.2667414,7.1130758 C 8.6003426,7.0611672 8.9274969,6.9718137 9.2163726,6.7993114 9.1593008,6.7902667 8.8669761,6.8978828 8.7169348,6.9349414 8.2629408,7.0800312 7.7735142,7.060862 7.3168842,7.1991861 c 0.3260424,0.024275 0.6328764,-0.00341 0.9498572,-0.08611 z M 7.6998886,6.9605721 C 8.0689311,6.8049826 8.501057,6.8514448 8.8714252,6.7446361 8.9730802,6.6272564 8.5606349,6.7380708 8.444167,6.7175097 7.8157416,6.7140037 7.2184889,7.0071875 6.5860309,6.9454711 6.4377624,6.9955172 5.7651856,6.7475473 6.0779445,6.9752405 c 0.462396,0.1300705 0.9487242,0.030177 1.4226207,0.04974 0.072635,0.00888 0.1329446,-0.043054 0.1993234,-0.064408 z M 6.4330279,6.5860596 C 7.1768167,6.3346366 8.0067508,6.2203225 8.7671752,6.4638702 9.0413353,6.5785894 9.2523531,6.6019611 8.8574698,6.4204132 8.602408,6.3037911 8.3520426,6.157618 8.0614643,6.2094074 7.6775842,6.2095378 7.2913426,6.1889015 6.9213155,6.3108543 6.4918586,6.378805 6.1153017,6.6274804 5.7558433,6.8560223 5.6617161,6.9400417 6.343024,6.5749264 6.4330279,6.5860596 Z M 12.78106,5.8489162 C 12.282863,5.7561334 11.736389,5.6716891 11.337629,5.3387167 11.10454,5.2074456 11.395597,5.0908036 11.487148,4.9685926 c 0.357258,-0.2274137 0.783983,-0.3541604 1.196028,-0.4420001 0.477367,-0.017107 0.956879,-0.075704 1.427622,0.035356 0.600669,0.062958 1.154652,0.330614 1.744862,0.4480792 0.332056,0.1498097 -0.503794,0.2589615 -0.590576,0.4077601 -0.454817,0.2216346 -0.912135,0.5344492 -1.441309,0.4910656 -0.349288,-0.00685 -0.698985,0.016595 -1.042715,-0.059937 z m 1.555968,-0.2542823 c 0.109435,-0.090013 -0.603161,0.025579 -0.813319,-0.016048 -0.252684,-0.015864 -1.09948,-0.05982 -0.408163,0.055696 0.374897,0.055417 0.774388,0.1235063 1.138841,-0.00106 0.02755,-0.012862 0.05509,-0.025723 0.08264,-0.038585 z M 14.210964,5.382949 c 0.315898,-0.067838 1.034456,-0.2231514 1.077529,-0.3533078 -0.69494,0.1310906 -1.414179,0.3266516 -2.124596,0.2344824 -0.195369,-0.054303 -0.9018,-0.149086 -0.806979,0.1155057 0.399803,-0.013422 0.799587,-0.042361 1.194345,0.040664 0.223773,0.024204 0.442763,0.027512 0.659701,-0.037344 z M 12.00708,5.1574188 c 0.260887,-0.1176177 0.536542,-0.1455439 0.81971,-0.1278405 0.660322,-0.011927 1.326521,0.00653 1.983171,-0.02438 0.329905,-0.092472 -0.07728,-0.069257 -0.217099,-0.088007 -0.763125,-0.0262 -1.531794,-0.1379914 -2.290083,0.0028 -0.281417,0.063304 -0.675991,0.047086 -0.808849,0.3623756 0.176807,0.0053 0.345022,-0.080881 0.51315,-0.1249516 z"
           id="path4864" />
        <path
           style="fill:#ff9955;stroke-width:0.0392825"
           d="m 4.8053479,12.04307 c 0.059586,-0.15583 0.4623982,-0.05635 0.6577442,-0.08269 0.4841442,-0.111905 0.9970536,-0.129636 1.4437166,-0.364247 0.1101121,0.167041 -0.3044653,0.275638 -0.4473301,0.334087 -0.3900622,0.0795 -0.7775182,0.184852 -1.1793163,0.147993 -0.1496614,-0.0221 -0.3588367,0.04505 -0.4748144,-0.03514 z M 4.1251808,11.83891 c -0.3446118,-0.0366 -0.2586705,-0.267824 0.081255,-0.105447 0.3876129,0.122981 0.8125941,0.167828 1.2021779,0.02968 0.4699718,-0.115624 0.9498171,-0.237326 1.4368804,-0.228864 -0.5982011,0.223792 -1.2484102,0.204441 -1.8576181,0.38682 -0.2897747,-0.01655 -0.5906369,0.04312 -0.862695,-0.08219 z m 0.3240806,-0.2272 c -0.393113,0.01467 -0.3880286,-0.229335 -0.046045,-0.250146 0.5596104,-0.212931 1.1733757,-0.238772 1.7648777,-0.218096 0.2667177,0.08206 0.551779,0.124849 0.7952478,0.266458 -0.3325497,-0.0032 -0.6723966,-0.06321 -1.0003741,-0.03082 -0.3621279,0.113113 -0.7175752,0.261631 -1.1039949,0.246012 -0.1377946,0.01891 -0.2726225,0.0035 -0.4097115,-0.0134 z m 1.9641252,-1.161529 c -0.2968264,0.01591 -0.4680762,-0.192526 -0.092183,-0.141 0.2422459,0.01647 0.476247,-0.0081 0.6929601,-0.127463 C 7.578449,9.9074306 8.2393461,10.044916 8.8131922,9.8046595 9.1786836,9.6814978 9.4646927,9.3904835 9.8180212,9.2398571 9.3350681,9.7566109 8.6548874,10.051339 7.9550815,10.123019 c -0.3710428,0.03016 -0.7234671,0.134795 -1.0678659,0.272047 -0.1475166,0.05902 -0.3176116,0.05926 -0.473829,0.05512 z m 0.815112,-0.01297 C 7.0128217,10.264287 7.7980018,10.355698 7.9258471,10.272836 8.2769187,10.222453 8.6485452,10.225248 8.9473948,10.004798 9.4534225,9.7054464 9.8536663,9.228484 10.405196,9.0142015 10.027133,9.340846 9.5878889,9.6120062 9.2107364,9.9492289 8.7909783,10.32513 8.2089533,10.362019 7.6751045,10.405835 c -0.1489375,0.0062 -0.2976177,0.05182 -0.4466059,0.03138 z M 6.2542882,10.195862 C 6.7176401,9.8130542 7.3061307,9.6930411 7.8811929,9.5890316 8.5536011,9.4663547 9.1828211,9.1697977 9.8535659,9.0438278 9.1979156,9.3382503 8.5462799,9.6674259 7.8270806,9.7779983 7.4404052,9.8735309 7.0207204,9.8549402 6.6747708,10.076224 c -0.076877,0.01879 -0.4515131,0.246464 -0.4204826,0.119638 z m 5.5899048,0.0069 c -0.126643,0.02504 -0.481203,-0.04224 -0.185926,-0.102531 0.379122,-0.02765 0.759425,-0.01373 1.130265,-0.1138404 0.318323,-0.059435 0.641448,-0.098171 0.934755,-0.243031 0.363896,-0.134474 0.0059,0.2149743 -0.147156,0.2239284 -0.41638,0.126188 -0.851796,0.250393 -1.287762,0.256777 -0.148015,-0.0079 -0.296112,-0.01467 -0.444176,-0.0213 z M 10.838098,9.9457723 c -0.375001,-0.053861 -0.198403,-0.2772906 0.119525,-0.1052983 0.275815,0.092198 0.556692,0.140167 0.847513,0.1129264 0.400851,-0.044545 0.787673,-0.2081673 1.193578,-0.249175 0.159786,-0.045228 1.128555,-0.176365 0.569637,-0.019713 -0.5693,0.1839454 -1.186185,0.1600773 -1.758152,0.3441843 -0.323065,-0.0062 -0.669807,0.06073 -0.972101,-0.082925 z M 5.9616378,9.9407987 C 6.1024466,9.6885403 6.4791408,9.5644678 6.7358826,9.4173354 7.3050526,9.1539929 7.9160673,8.9817836 8.5409255,8.9358187 c 0.3645421,7.326e-4 0.7290843,0.00147 1.0936264,0.0022 C 9.1267636,9.1837775 8.5335527,9.0824266 8.0077305,9.2775796 7.5605619,9.4111433 7.0915508,9.4864698 6.6586381,9.658043 6.4445327,9.7276751 6.0843655,10.02825 5.9616378,9.9407979 Z M 10.960336,9.6798081 C 10.664937,9.6223135 10.955262,9.440163 11.120437,9.4364479 11.684404,9.2141165 12.298205,9.2125157 12.895,9.1653586 c 0.343691,0.093439 0.697582,0.1623971 1.021345,0.315418 -0.373566,-0.00117 -0.755962,-0.062062 -1.123992,-0.025799 -0.343495,0.1099862 -0.674512,0.2883114 -1.045475,0.2478657 -0.260036,-0.013134 -0.536654,0.057676 -0.786542,-0.023035 z M 3.5457638,9.2333036 C 3.319691,9.2608842 2.5313749,8.9407158 3.1206135,9.0298118 3.4290259,9.1303707 3.7451014,9.1673371 4.0684874,9.1476735 4.4857122,9.1345568 4.9102066,9.1802969 5.3227567,9.1293313 5.6583771,9.052572 5.9741782,8.9129118 6.2902265,8.7797408 6.345716,8.9442695 5.9454956,9.0489274 5.7994173,9.1550384 5.189546,9.3228385 4.5480303,9.2466093 3.922177,9.2845584 3.7957037,9.2892548 3.6710277,9.2476678 3.5457638,9.2333036 Z M 3.2196897,8.9772119 C 2.8063514,8.8448631 3.34058,8.9185004 3.4792078,8.9207508 4.0156577,8.9925137 4.5401575,8.8070259 5.0717178,8.7606942 5.4761601,8.7063357 6.0291879,8.6296533 6.3553025,8.5998895 6.1931028,8.8173769 5.7692098,8.7537273 5.5204248,8.8983634 5.1322728,9.0628994 4.7020994,8.9695715 4.2921314,9.000234 3.9362754,8.9841853 3.5686754,9.0485975 3.2196897,8.9772119 Z M 2.7585421,8.8988971 C 3.2730309,8.6054587 3.883288,8.5928383 4.4478277,8.4505864 4.8356808,8.3770176 5.2199042,8.2583629 5.6183473,8.3163371 c 0.2842423,0.017138 0.580617,-0.021053 0.8343218,0.1353452 -0.4935686,0.033136 -0.9950564,0.00122 -1.4834264,0.077059 -0.724223,0.172452 -1.4653411,0.2608786 -2.1925588,0.406652 -0.05908,0.00599 -0.039614,-0.00104 -0.018142,-0.036496 z M 2.622625,8.7420838 C 3.0364073,8.2273215 3.7312313,8.1567225 4.3235814,7.9869854 4.6596708,7.9091605 5.0002285,7.8317808 5.3432672,7.9100584 c 0.3168469,0.0068 0.6109982,0.1153269 0.9059461,0.220287 0.3360932,0.3916805 -0.354012,-0.032534 -0.568882,-0.0051 C 5.111115,7.9710954 4.5414064,8.1836626 3.9839168,8.2851469 3.6422911,8.3540806 3.3124452,8.4558907 3.0099517,8.6320932 2.900388,8.6571979 2.7181091,8.8287483 2.622625,8.7420838 Z M 10.302355,8.48766 C 10.032605,8.4253062 9.3386281,8.2936606 9.3020148,8.1885472 c 1.0247742,0.096688 2.0546512,0.045884 3.0823122,0.059113 0.214375,-0.022026 0.564629,-0.2756733 0.687444,-0.09927 -0.372694,0.1891829 -0.787439,0.3201695 -1.201108,0.3671832 -0.470038,-0.00681 -0.945524,0.050241 -1.412032,0.00204 -0.05209,-0.00998 -0.104184,-0.019967 -0.156276,-0.029951 z M 9.0798378,8.079122 c 0.2853954,-0.1188814 0.6802051,-0.085355 0.9974242,-0.1802599 0.51898,-0.1292624 1.055588,-0.027193 1.583794,-0.035379 0.306559,0.015208 0.612864,0.031767 0.908118,-0.069085 0.450746,-0.1254658 0.27225,0.063282 -0.05019,0.1200555 -0.264042,0.089872 -0.530818,0.1597134 -0.811214,0.1148578 -0.568277,-0.033358 -1.136303,-0.044144 -1.703406,0.014985 -0.2890854,-0.00139 -0.724391,0.090081 -0.9315894,0.046258 z M 8.5305156,7.9602501 C 9.074785,7.7304235 9.6139032,7.4722517 10.153384,7.2331617 c 0.305642,-0.046922 0.611268,-0.1118109 0.917022,-0.029317 0.297896,0.05498 0.619883,0.062944 0.902741,0.1472707 C 12.210968,7.5840587 11.431819,7.2946104 11.2848,7.3413341 10.921513,7.2765418 10.548266,7.262368 10.186112,7.3253714 9.6382266,7.5752289 9.0973815,7.8553928 8.5084176,7.9960052 l 0.015885,-0.025703 z M 9.3988569,7.7545657 C 9.7064605,7.5817969 10.058246,7.492453 10.401971,7.4396872 c 0.73835,0.049455 1.478705,0.075378 2.218051,0.030203 0.246496,0.06318 0.63192,0.3876652 0.115274,0.2061286 C 12.407441,7.5187304 12.056274,7.686821 11.715237,7.6877426 11.160988,7.6458108 10.600175,7.4771612 10.04868,7.6106057 9.7384811,7.7124171 9.4319843,7.8271391 9.1164051,7.9112338 9.2023184,7.8452985 9.3034553,7.8042114 9.3988569,7.7545657 Z M 6.8323797,7.3718186 C 6.7665777,7.2273624 7.2915995,7.30438 7.4643662,7.2854642 7.9088968,7.1895726 8.3709492,7.1467908 8.8032889,7.0082268 8.8936217,6.9678084 9.2418162,6.7929738 9.1000147,6.9965552 8.6423831,7.3127 8.0661037,7.3945394 7.5196366,7.3880433 c -0.218063,-0.00555 -0.4505793,0.038335 -0.659801,0.00255 l -0.024941,-0.017056 -0.00251,-0.00172 z M 6.2562566,7.18803 C 6.0273606,7.215011 5.6065227,6.8860297 6.0666524,6.9967528 6.3634338,7.0729501 6.6534073,7.1820044 6.9648481,7.141731 7.3801975,7.1601187 7.7618829,6.9403989 8.1742061,6.9070323 8.3730088,6.8911417 9.0543915,6.7269022 9.0256729,6.8108637 8.3388125,7.0470902 7.5982579,7.0787584 6.8938448,7.2446239 6.6791665,7.2361614 6.460971,7.2686245 6.2562566,7.18803 Z M 6.4219239,6.8939427 C 6.2987017,6.9166194 5.9150132,6.8131657 6.1686439,6.7093242 6.6873717,6.4973489 7.2405972,6.3871596 7.8002498,6.3917258 8.0817187,6.3551573 8.3569448,6.3815931 8.6245639,6.4772277 8.7658956,6.5056864 9.4511298,6.7516054 9.0071762,6.6767129 8.7057066,6.6744276 8.3900901,6.5764222 8.0951492,6.638559 7.5834831,6.8302884 7.0440337,6.9863533 6.4908414,6.9008847 l -0.068917,-0.00695 z M 13.52352,5.8051064 c -0.301548,-0.057851 -0.631337,-0.061633 -0.918776,-0.1491249 -0.0577,-0.1530471 0.529504,0.031095 0.726719,0.028717 0.305107,0.061752 0.622808,0.023113 0.926643,-0.0091 0.488735,-0.2130871 0.968446,-0.4739717 1.489512,-0.5896464 -0.333016,0.2163939 -0.756816,0.3135063 -1.112799,0.513726 -0.334583,0.1958372 -0.727938,0.2558502 -1.111299,0.2054289 z M 11.901685,5.4872849 c -0.536011,-0.232445 0.02727,-0.1583825 0.263109,-0.051164 0.327657,-0.015312 0.658169,-0.1336039 0.988519,-0.045102 0.437229,0.043399 0.884491,0.173903 1.31067,-0.00884 0.207428,-0.070734 1.082259,-0.3558735 0.434784,-0.059398 -0.309177,0.1249075 -0.622923,0.2776375 -0.964887,0.2287054 -0.63779,-0.011149 -1.280029,0.00358 -1.915052,-0.02367 -0.03905,-0.01351 -0.07809,-0.02702 -0.117143,-0.04053 z M 11.854013,5.246125 c 0.339111,-0.1171649 0.685117,-0.2549842 1.04974,-0.1954652 0.779117,0.061562 1.557934,-0.012226 2.334013,-0.083883 -0.276581,0.2026492 -0.784891,0.1130527 -1.135351,0.2284063 -0.496539,0.092041 -0.993898,0.01763 -1.49006,-0.031003 -0.271681,0.041968 -0.541343,0.1134997 -0.817264,0.1157954 0.01964,-0.011284 0.03928,-0.022567 0.05892,-0.033851 z M 11.65637,4.9499461 c 0.217767,-0.1833361 0.545226,-0.2106948 0.815053,-0.2945839 0.442438,-0.1158131 0.906344,-0.034422 1.358769,-0.058498 0.418889,0.024544 0.826007,0.1669712 1.225344,0.2920806 -0.907702,-0.059391 -1.823442,-0.073241 -2.729967,-0.034159 -0.21445,0.035121 -0.569148,0.1770064 -0.697575,0.1293511 l 0.0193,-0.023251 z"
           id="path4858" />
      </g>
    </g>
  </g>
</svg>
