<?xml version="1.0" encoding="UTF-8" standalone="no"?>
<!-- Created with Inkscape (http://www.inkscape.org/) -->

<svg
   width="64"
   height="64"
   viewBox="0 0 16.933333 16.933334"
   version="1.1"
   id="svg5"
   inkscape:version="1.2 (dc2aedaf03, 2022-05-15)"
   sodipodi:docname="granola.svg"
   xmlns:inkscape="http://www.inkscape.org/namespaces/inkscape"
   xmlns:sodipodi="http://sodipodi.sourceforge.net/DTD/sodipodi-0.dtd"
   xmlns="http://www.w3.org/2000/svg"
   xmlns:svg="http://www.w3.org/2000/svg">
  <sodipodi:namedview
     id="namedview7"
     pagecolor="#ffffff"
     bordercolor="#666666"
     borderopacity="1.0"
     inkscape:pageshadow="2"
     inkscape:pageopacity="0.0"
     inkscape:pagecheckerboard="0"
     inkscape:document-units="mm"
     showgrid="false"
     units="px"
     inkscape:zoom="16"
     inkscape:cx="37.8125"
     inkscape:cy="34.4375"
     inkscape:window-width="1920"
     inkscape:window-height="1009"
     inkscape:window-x="-8"
     inkscape:window-y="-8"
     inkscape:window-maximized="1"
     inkscape:current-layer="g4193"
     inkscape:showpageshadow="0"
     inkscape:deskcolor="#d1d1d1" />
  <defs
     id="defs2">
    <pattern
       id="EMFhbasepattern"
       patternUnits="userSpaceOnUse"
       width="6"
       height="6"
       x="0"
       y="0" />
    <pattern
       id="EMFhbasepattern-5"
       patternUnits="userSpaceOnUse"
       width="6"
       height="6"
       x="0"
       y="0" />
    <pattern
       id="EMFhbasepattern-56"
       patternUnits="userSpaceOnUse"
       width="6"
       height="6"
       x="0"
       y="0" />
    <pattern
       id="EMFhbasepattern-6"
       patternUnits="userSpaceOnUse"
       width="6"
       height="6"
       x="0"
       y="0" />
    <pattern
       id="EMFhbasepattern-62"
       patternUnits="userSpaceOnUse"
       width="6"
       height="6"
       x="0"
       y="0" />
    <pattern
       id="EMFhbasepattern-8"
       patternUnits="userSpaceOnUse"
       width="6"
       height="6"
       x="0"
       y="0" />
    <pattern
       id="EMFhbasepattern-81"
       patternUnits="userSpaceOnUse"
       width="6"
       height="6"
       x="0"
       y="0" />
    <pattern
       id="EMFhbasepattern-9"
       patternUnits="userSpaceOnUse"
       width="6"
       height="6"
       x="0"
       y="0" />
    <pattern
       id="EMFhbasepattern-52"
       patternUnits="userSpaceOnUse"
       width="6"
       height="6"
       x="0"
       y="0" />
    <pattern
       id="EMFhbasepattern-0"
       patternUnits="userSpaceOnUse"
       width="6"
       height="6"
       x="0"
       y="0" />
    <pattern
       id="EMFhbasepattern-7"
       patternUnits="userSpaceOnUse"
       width="6"
       height="6"
       x="0"
       y="0" />
    <pattern
       id="EMFhbasepattern-65"
       patternUnits="userSpaceOnUse"
       width="6"
       height="6"
       x="0"
       y="0" />
    <pattern
       id="EMFhbasepattern-3"
       patternUnits="userSpaceOnUse"
       width="6"
       height="6"
       x="0"
       y="0" />
    <pattern
       id="EMFhbasepattern-90"
       patternUnits="userSpaceOnUse"
       width="6"
       height="6"
       x="0"
       y="0" />
    <pattern
       id="EMFhbasepattern-4"
       patternUnits="userSpaceOnUse"
       width="6"
       height="6"
       x="0"
       y="0" />
    <pattern
       id="EMFhbasepattern-2"
       patternUnits="userSpaceOnUse"
       width="6"
       height="6"
       x="0"
       y="0" />
    <pattern
       id="EMFhbasepattern-40"
       patternUnits="userSpaceOnUse"
       width="6"
       height="6"
       x="0"
       y="0" />
    <pattern
       id="EMFhbasepattern-74"
       patternUnits="userSpaceOnUse"
       width="6"
       height="6"
       x="0"
       y="0" />
    <pattern
       id="EMFhbasepattern-656"
       patternUnits="userSpaceOnUse"
       width="6"
       height="6"
       x="0"
       y="0" />
    <pattern
       id="EMFhbasepattern-76"
       patternUnits="userSpaceOnUse"
       width="6"
       height="6"
       x="0"
       y="0" />
    <pattern
       id="EMFhbasepattern-1"
       patternUnits="userSpaceOnUse"
       width="6"
       height="6"
       x="0"
       y="0" />
    <pattern
       id="EMFhbasepattern-42"
       patternUnits="userSpaceOnUse"
       width="6"
       height="6"
       x="0"
       y="0" />
    <pattern
       id="EMFhbasepattern-73"
       patternUnits="userSpaceOnUse"
       width="6"
       height="6"
       x="0"
       y="0" />
    <pattern
       id="EMFhbasepattern-566"
       patternUnits="userSpaceOnUse"
       width="6"
       height="6"
       x="0"
       y="0" />
    <pattern
       id="EMFhbasepattern-71"
       patternUnits="userSpaceOnUse"
       width="6"
       height="6"
       x="0"
       y="0" />
    <pattern
       id="EMFhbasepattern-31"
       patternUnits="userSpaceOnUse"
       width="6"
       height="6"
       x="0"
       y="0" />
    <pattern
       id="EMFhbasepattern-60"
       patternUnits="userSpaceOnUse"
       width="6"
       height="6"
       x="0"
       y="0" />
    <pattern
       id="EMFhbasepattern-28"
       patternUnits="userSpaceOnUse"
       width="6"
       height="6"
       x="0"
       y="0" />
    <pattern
       id="EMFhbasepattern-02"
       patternUnits="userSpaceOnUse"
       width="6"
       height="6"
       x="0"
       y="0" />
    <pattern
       id="EMFhbasepattern-57"
       patternUnits="userSpaceOnUse"
       width="6"
       height="6"
       x="0"
       y="0" />
    <pattern
       id="EMFhbasepattern-50"
       patternUnits="userSpaceOnUse"
       width="6"
       height="6"
       x="0"
       y="0" />
    <pattern
       id="EMFhbasepattern-45"
       patternUnits="userSpaceOnUse"
       width="6"
       height="6"
       x="0"
       y="0" />
    <pattern
       id="EMFhbasepattern-33"
       patternUnits="userSpaceOnUse"
       width="6"
       height="6"
       x="0"
       y="0" />
    <pattern
       id="EMFhbasepattern-21"
       patternUnits="userSpaceOnUse"
       width="6"
       height="6"
       x="0"
       y="0" />
    <pattern
       id="EMFhbasepattern-818"
       patternUnits="userSpaceOnUse"
       width="6"
       height="6"
       x="0"
       y="0" />
    <pattern
       id="EMFhbasepattern-32"
       patternUnits="userSpaceOnUse"
       width="6"
       height="6"
       x="0"
       y="0" />
    <pattern
       id="EMFhbasepattern-38"
       patternUnits="userSpaceOnUse"
       width="6"
       height="6"
       x="0"
       y="0" />
    <pattern
       id="EMFhbasepattern-39"
       patternUnits="userSpaceOnUse"
       width="6"
       height="6"
       x="0"
       y="0" />
    <pattern
       id="EMFhbasepattern-86"
       patternUnits="userSpaceOnUse"
       width="6"
       height="6"
       x="0"
       y="0" />
    <pattern
       id="EMFhbasepattern-07"
       patternUnits="userSpaceOnUse"
       width="6"
       height="6"
       x="0"
       y="0" />
    <pattern
       id="EMFhbasepattern-524"
       patternUnits="userSpaceOnUse"
       width="6"
       height="6"
       x="0"
       y="0" />
    <pattern
       id="EMFhbasepattern-508"
       patternUnits="userSpaceOnUse"
       width="6"
       height="6"
       x="0"
       y="0" />
    <pattern
       id="EMFhbasepattern-217"
       patternUnits="userSpaceOnUse"
       width="6"
       height="6"
       x="0"
       y="0" />
    <pattern
       id="EMFhbasepattern-84"
       patternUnits="userSpaceOnUse"
       width="6"
       height="6"
       x="0"
       y="0" />
    <pattern
       id="EMFhbasepattern-96"
       patternUnits="userSpaceOnUse"
       width="6"
       height="6"
       x="0"
       y="0" />
    <pattern
       id="EMFhbasepattern-48"
       patternUnits="userSpaceOnUse"
       width="6"
       height="6"
       x="0"
       y="0" />
    <pattern
       id="EMFhbasepattern-23"
       patternUnits="userSpaceOnUse"
       width="6"
       height="6"
       x="0"
       y="0" />
    <pattern
       id="EMFhbasepattern-36"
       patternUnits="userSpaceOnUse"
       width="6"
       height="6"
       x="0"
       y="0" />
    <pattern
       id="EMFhbasepattern-900"
       patternUnits="userSpaceOnUse"
       width="6"
       height="6"
       x="0"
       y="0" />
    <pattern
       id="EMFhbasepattern-37"
       patternUnits="userSpaceOnUse"
       width="6"
       height="6"
       x="0"
       y="0" />
    <pattern
       id="EMFhbasepattern-11"
       patternUnits="userSpaceOnUse"
       width="6"
       height="6"
       x="0"
       y="0" />
    <pattern
       id="EMFhbasepattern-95"
       patternUnits="userSpaceOnUse"
       width="6"
       height="6"
       x="0"
       y="0" />
    <pattern
       id="EMFhbasepattern-10"
       patternUnits="userSpaceOnUse"
       width="6"
       height="6"
       x="0"
       y="0" />
    <pattern
       id="EMFhbasepattern-909"
       patternUnits="userSpaceOnUse"
       width="6"
       height="6"
       x="0"
       y="0" />
    <pattern
       id="EMFhbasepattern-06"
       patternUnits="userSpaceOnUse"
       width="6"
       height="6"
       x="0"
       y="0" />
    <pattern
       id="EMFhbasepattern-34"
       patternUnits="userSpaceOnUse"
       width="6"
       height="6"
       x="0"
       y="0" />
    <pattern
       id="EMFhbasepattern-41"
       patternUnits="userSpaceOnUse"
       width="6"
       height="6"
       x="0"
       y="0" />
    <pattern
       id="EMFhbasepattern-82"
       patternUnits="userSpaceOnUse"
       width="6"
       height="6"
       x="0"
       y="0" />
    <pattern
       id="EMFhbasepattern-94"
       patternUnits="userSpaceOnUse"
       width="6"
       height="6"
       x="0"
       y="0" />
    <pattern
       id="EMFhbasepattern-738"
       patternUnits="userSpaceOnUse"
       width="6"
       height="6"
       x="0"
       y="0" />
    <pattern
       id="EMFhbasepattern-19"
       patternUnits="userSpaceOnUse"
       width="6"
       height="6"
       x="0"
       y="0" />
    <pattern
       id="EMFhbasepattern-342"
       patternUnits="userSpaceOnUse"
       width="6"
       height="6"
       x="0"
       y="0" />
    <pattern
       id="EMFhbasepattern-77"
       patternUnits="userSpaceOnUse"
       width="6"
       height="6"
       x="0"
       y="0" />
    <pattern
       id="EMFhbasepattern-29"
       patternUnits="userSpaceOnUse"
       width="6"
       height="6"
       x="0"
       y="0" />
    <pattern
       id="EMFhbasepattern-219"
       patternUnits="userSpaceOnUse"
       width="6"
       height="6"
       x="0"
       y="0" />
    <pattern
       id="EMFhbasepattern-105"
       patternUnits="userSpaceOnUse"
       width="6"
       height="6"
       x="0"
       y="0" />
    <pattern
       id="EMFhbasepattern-104"
       patternUnits="userSpaceOnUse"
       width="6"
       height="6"
       x="0"
       y="0" />
    <pattern
       id="EMFhbasepattern-44"
       patternUnits="userSpaceOnUse"
       width="6"
       height="6"
       x="0"
       y="0" />
    <pattern
       id="EMFhbasepattern-87"
       patternUnits="userSpaceOnUse"
       width="6"
       height="6"
       x="0"
       y="0" />
    <pattern
       id="EMFhbasepattern-93"
       patternUnits="userSpaceOnUse"
       width="6"
       height="6"
       x="0"
       y="0" />
    <pattern
       id="EMFhbasepattern-324"
       patternUnits="userSpaceOnUse"
       width="6"
       height="6"
       x="0"
       y="0" />
    <pattern
       id="EMFhbasepattern-20"
       patternUnits="userSpaceOnUse"
       width="6"
       height="6"
       x="0"
       y="0" />
    <pattern
       id="EMFhbasepattern-78"
       patternUnits="userSpaceOnUse"
       width="6"
       height="6"
       x="0"
       y="0" />
    <pattern
       id="EMFhbasepattern-313"
       patternUnits="userSpaceOnUse"
       width="6"
       height="6"
       x="0"
       y="0" />
    <pattern
       id="EMFhbasepattern-3422"
       patternUnits="userSpaceOnUse"
       width="6"
       height="6"
       x="0"
       y="0" />
    <pattern
       id="EMFhbasepattern-957"
       patternUnits="userSpaceOnUse"
       width="6"
       height="6"
       x="0"
       y="0" />
    <pattern
       id="EMFhbasepattern-75"
       patternUnits="userSpaceOnUse"
       width="6"
       height="6"
       x="0"
       y="0" />
    <pattern
       id="EMFhbasepattern-429"
       patternUnits="userSpaceOnUse"
       width="6"
       height="6"
       x="0"
       y="0" />
    <pattern
       id="EMFhbasepattern-102"
       patternUnits="userSpaceOnUse"
       width="6"
       height="6"
       x="0"
       y="0" />
    <pattern
       id="EMFhbasepattern-233"
       patternUnits="userSpaceOnUse"
       width="6"
       height="6"
       x="0"
       y="0" />
    <pattern
       id="EMFhbasepattern-18"
       patternUnits="userSpaceOnUse"
       width="6"
       height="6"
       x="0"
       y="0" />
    <pattern
       id="EMFhbasepattern-334"
       patternUnits="userSpaceOnUse"
       width="6"
       height="6"
       x="0"
       y="0" />
    <pattern
       id="EMFhbasepattern-317"
       patternUnits="userSpaceOnUse"
       width="6"
       height="6"
       x="0"
       y="0" />
    <pattern
       id="EMFhbasepattern-509"
       patternUnits="userSpaceOnUse"
       width="6"
       height="6"
       x="0"
       y="0" />
    <pattern
       id="EMFhbasepattern-657"
       patternUnits="userSpaceOnUse"
       width="6"
       height="6"
       x="0"
       y="0" />
    <pattern
       id="EMFhbasepattern-83"
       patternUnits="userSpaceOnUse"
       width="6"
       height="6"
       x="0"
       y="0" />
    <pattern
       id="EMFhbasepattern-390"
       patternUnits="userSpaceOnUse"
       width="6"
       height="6"
       x="0"
       y="0" />
    <pattern
       id="EMFhbasepattern-24"
       patternUnits="userSpaceOnUse"
       width="6"
       height="6"
       x="0"
       y="0" />
    <pattern
       id="EMFhbasepattern-63"
       patternUnits="userSpaceOnUse"
       width="6"
       height="6"
       x="0"
       y="0" />
    <pattern
       id="EMFhbasepattern-631"
       patternUnits="userSpaceOnUse"
       width="6"
       height="6"
       x="0"
       y="0" />
    <pattern
       id="EMFhbasepattern-98"
       patternUnits="userSpaceOnUse"
       width="6"
       height="6"
       x="0"
       y="0" />
    <pattern
       id="EMFhbasepattern-79"
       patternUnits="userSpaceOnUse"
       width="6"
       height="6"
       x="0"
       y="0" />
    <pattern
       id="EMFhbasepattern-489"
       patternUnits="userSpaceOnUse"
       width="6"
       height="6"
       x="0"
       y="0" />
    <pattern
       id="EMFhbasepattern-811"
       patternUnits="userSpaceOnUse"
       width="6"
       height="6"
       x="0"
       y="0" />
    <pattern
       id="EMFhbasepattern-450"
       patternUnits="userSpaceOnUse"
       width="6"
       height="6"
       x="0"
       y="0" />
    <pattern
       id="EMFhbasepattern-321"
       patternUnits="userSpaceOnUse"
       width="6"
       height="6"
       x="0"
       y="0" />
    <pattern
       id="EMFhbasepattern-371"
       patternUnits="userSpaceOnUse"
       width="6"
       height="6"
       x="0"
       y="0" />
    <pattern
       id="EMFhbasepattern-49"
       patternUnits="userSpaceOnUse"
       width="6"
       height="6"
       x="0"
       y="0" />
    <pattern
       id="EMFhbasepattern-576"
       patternUnits="userSpaceOnUse"
       width="6"
       height="6"
       x="0"
       y="0" />
    <pattern
       id="EMFhbasepattern-493"
       patternUnits="userSpaceOnUse"
       width="6"
       height="6"
       x="0"
       y="0" />
    <pattern
       id="EMFhbasepattern-09"
       patternUnits="userSpaceOnUse"
       width="6"
       height="6"
       x="0"
       y="0" />
    <pattern
       id="EMFhbasepattern-47"
       patternUnits="userSpaceOnUse"
       width="6"
       height="6"
       x="0"
       y="0" />
    <pattern
       id="EMFhbasepattern-860"
       patternUnits="userSpaceOnUse"
       width="6"
       height="6"
       x="0"
       y="0" />
    <pattern
       id="EMFhbasepattern-26"
       patternUnits="userSpaceOnUse"
       width="6"
       height="6"
       x="0"
       y="0" />
    <pattern
       id="EMFhbasepattern-247"
       patternUnits="userSpaceOnUse"
       width="6"
       height="6"
       x="0"
       y="0" />
    <pattern
       id="EMFhbasepattern-54"
       patternUnits="userSpaceOnUse"
       width="6"
       height="6"
       x="0"
       y="0" />
    <pattern
       id="EMFhbasepattern-25"
       patternUnits="userSpaceOnUse"
       width="6"
       height="6"
       x="0"
       y="0" />
    <pattern
       id="EMFhbasepattern-53"
       patternUnits="userSpaceOnUse"
       width="6"
       height="6"
       x="0"
       y="0" />
  </defs>
  <g
     inkscape:label="Calque 1"
     inkscape:groupmode="layer"
     id="layer1">
    <g
       id="g4128"
       transform="translate(-0.63104184,0.12620835)">
      <g
         id="g5578"
         transform="translate(0.08924235,0.08924306)">
        <g
           id="g7501"
           transform="translate(-0.06310417,0.94656242)">
          <g
             id="g9467"
             transform="translate(-0.08924275,-0.80318511)">
            <g
               id="g10302"
               transform="translate(0.31234979,-0.04462139)">
              <g
                 id="g11479"
                 transform="translate(-0.12620833,0.06310418)">
                <g
                   id="g11873"
                   transform="translate(-0.23575769,0.66462456)">
                  <g
                     id="g12382"
                     transform="translate(-121.98459,-82.267525)">
                    <g
                       id="g13305"
                       transform="matrix(0.13266609,0,0,0.13266609,114.63867,78.215696)">
                      <g
                         id="g17429"
                         transform="translate(0.90513437,5.6640979)">
                        <g
                           id="g18595"
                           transform="translate(-3.3634362,-8.7449387)">
                          <g
                             id="g21002"
                             transform="translate(1.7082278,-2.8204445)">
                            <g
                               id="g23814"
                               transform="translate(8.7253043,-1.1218249)">
                              <g
                                 id="g24838"
                                 transform="translate(11.143454,-0.85716864)">
                                <g
                                   id="g25315"
                                   transform="translate(-3.490122,2.4929446)">
                                <g
                                   id="g27220"
                                   transform="translate(2.4678888,1.2339445)">
                                <g
                                   id="g29753"
                                   transform="translate(1.4759287,-2.3737724)">
                                <g
                                   id="g30615"
                                   transform="translate(0.92006037,1.3687834)">
                                <g
                                   id="g31433"
                                   transform="translate(-2.4678886,-1.410222)">
                                <g
                                   id="g31731"
                                   transform="translate(1.0576664,-0.70511063)">
                                <g
                                   id="g33243"
                                   transform="matrix(1.0772948,0,0,1.0772948,-7.3729128,-3.1743014)">
                                <g
                                   id="g35254"
                                   transform="translate(-2.2135012,-0.92031205)">
                                <g
                                   id="g36749"
                                   transform="translate(-0.98178042,-2.7817105)">
                                <g
                                   id="g37297"
                                   transform="translate(-6.7755742,-3.5033798)">
                                <g
                                   id="g38955"
                                   transform="matrix(1.2171094,0,0,1.2171094,-23.105122,-18.212482)">
                                <g
                                   id="g39618"
                                   transform="translate(-0.26888273,-0.26888316)">
                                <g
                                   id="g40032"
                                   transform="translate(-1.90129,-3.042064)">
                                <g
                                   id="g40543"
                                   transform="translate(0.3802582,-2.0914191)">
                                <g
                                   id="g41372"
                                   transform="translate(1.9657652,-7.9304203)">
                                <g
                                   id="g43278"
                                   transform="translate(1.5210324,-0.38025789)">
                                <g
                                   id="g44210"
                                   transform="matrix(1.1578947,0,0,1.1578947,-18.904476,-21.776183)">
                                <g
                                   id="g44833"
                                   transform="matrix(1.1196819,0,0,1.1196819,-12.538538,-14.547543)">
                                <g
                                   id="g47597"
                                   transform="translate(3.1109352,-1.2443743)">
                                <g
                                   id="g48754"
                                   transform="translate(-2.9035392,-6.6366609)">
                                <g
                                   id="g234"
                                   transform="matrix(0.04089637,0,0,0.04089637,104.63967,119.67231)">
                                <g
                                   id="g2138"
                                   transform="translate(-86.211222,-40.569988)">
                                <g
                                   id="g2696"
                                   transform="translate(-124306.44,-9412.2373)">
                                <g
                                   id="g3765"
                                   transform="translate(25.356243,-50.712489)">
                                <g
                                   id="g4557"
                                   transform="translate(46.61688,-35.859142)">
                                <g
                                   id="g5244"
                                   transform="translate(7.1718407,14.343658)">
                                <g
                                   id="g5807"
                                   transform="translate(-5.1984397,-21.113724)">
                                <g
                                   id="g6945"
                                   transform="translate(-10.142522,-243.41993)">
                                <g
                                   id="g11108"
                                   transform="translate(18.189368,-37.636113)">
                                <g
                                   id="g15049"
                                   transform="translate(-65.926228,141.99496)">
                                <g
                                   id="g19861"
                                   transform="matrix(0.07356842,0,0,0.07356842,115423.38,9039.2311)">
                                <g
                                   id="g20437"
                                   transform="translate(-478.38824,-785.88156)">
                                <g
                                   id="g21032"
                                   transform="translate(2047.1878,-1072.3367)">
                                <g
                                   id="g21869"
                                   transform="matrix(0.04321578,0,0,0.04321578,117368,10137.003)">
                                <g
                                   id="g25455"
                                   transform="translate(154741.46,-87178.414)">
                                <g
                                   id="g26278"
                                   transform="translate(-18012.371,-8233.4417)">
                                <g
                                   id="g27240"
                                   transform="translate(-0.00447131,5582.7624)">
                                <g
                                   id="g28306"
                                   transform="translate(-15790.441,-2255.7767)">
                                <g
                                   id="g33735"
                                   transform="translate(14662.549,-16918.328)">
                                <g
                                   id="g37868"
                                   transform="translate(-5075.4976,25941.433)">
                                <g
                                   id="g76752"
                                   transform="matrix(-1,0,0,1,9442.3174,-1595.0746)">
                                <g
                                   id="g82459"
                                   transform="translate(3383.6668,-1127.8885)">
                                <g
                                   id="g83208"
                                   transform="matrix(0.20332428,0,0,0.20332428,-15348.528,66747.475)">
                                <g
                                   id="g83934"
                                   transform="matrix(-1,0,0,1,240692.18,94139.78)">
                                <g
                                   id="g84550"
                                   transform="translate(-8.7627443e-5,55472.344)">
                                <g
                                   id="g1274"
                                   transform="translate(-66682.337,-43147.393)">
                                <g
                                   id="g2352"
                                   transform="translate(-74780.623,-22188.943)">
                                <g
                                   id="g4123"
                                   transform="translate(-47069.882,-15689.961)">
                                <g
                                   id="g5928">
                                <g
                                   id="g12050"
                                   transform="translate(78161.555,35375.784)">
                                <g
                                   id="g601"
                                   transform="translate(58837.38,-82372.295)">
                                <g
                                   id="g4193"
                                   transform="translate(-0.00300904,55472.367)">
                                <path
                                   style="fill:#fbd8a1;stroke-width:2453.09"
                                   d="m -873896.57,730693.77 c -7625.44,-52268.86 75125.7,-75004.81 31573.68,-120731.53 143002.08,-190215.43 169891.37,-179019.69 354632.4,-343917.23 C -465508.81,182100.02 -268479.8,88273.203 -321692.23,136281.09 -332155.87,46930.774 -132904.91,4134.5459 -184654.83,26468.383 -140308.58,-9512.6222 -95962.337,-45493.624 -51616.091,-81474.626 -81111.926,-170017.46 132473.56,-208305.86 82650.387,-187378.21 c 56420.033,-25500.28 31605.573,-62645.12 113440.643,-112692.68 40037.08,-8950.65 84675.88,-43418.98 128880.66,-81275.43 26044.93,-24592.31 63843.72,-43548.73 82482.59,-71692.2 -1892.58,-76040.37 70170.5,-45404.69 118706.6,-89351.25 178479.71,-142184.36 -14519.07,-59510.54 185811.11,-148429.69 112804.24,-179368.76 283527.38,171777.06 219491.14,50478.53 7940.54,32089.7 42923.52,56790.67 61268.06,86037.72 91891.31,100190.31 162208.21,201675.13 143912.31,179787.45 37789.3,40126.63 73067.1,213940.13 104502.1,128705.91 -16239.6,74907.59 -191114.3,211041.797 -130460.2,168754.733 C 1095782.7,-22751.904 957696.2,21931.107 1004873.7,7651.4053 922877.82,73316.466 855733.46,131270.83 824899.15,151713.44 c -44631.93,39042.51 -98973.96,72582.51 -137517.68,115075.09 -8150.38,76466.64 -224978.58,123475.06 -157434.2,121021.52 -33886.06,47878.15 -102617.55,7844.11 -34023.89,60776.27 70899.37,80763.87 -129619.64,109714.7 -170475.76,104025.16 -132885.32,128759.06 -453304.58,349203.27 -375298.93,299303.02 51692.6514,-36520.22 -99311.45,66632.9 -101588.72,81321.04 -66309.24,32213.97 -40256.79,36031.03 -46044.97,39996.65 4650.41,64600.21 2632.62,102449.71 -105351.82,84361.71 -70824.22,57361.3 -289366.89,-143206.8 -246180.62,-40071.9 -98115.54,-181674.44 -94786.97,-221418.15 -189266.22,-241701.98 -35412.48,1523.33 -123134.67,-7288.81 -135612.91,-45126.25 z"
                                   id="path4199"
                                   sodipodi:nodetypes="cccccccccccccccccccccccccccccc" />
                                <path
                                   style="fill:#e4a557;stroke-width:2453.09"
                                   d="m -545460.76,1084347.5 c -8141.89,-17792.7 -9868.3,-39101.4 -4599.6,-56772.4 l 3384.01,-11349.8 -16654.16,-20805.78 -16654.17,-20805.8 6208.79,-5001.3 c 8836.65,-7117.04 18269.31,-27561.47 18613.23,-40342.47 1142.93,-42459.53 -36364.46,-93493.58 -81266.74,-110574.81 -20900.33,-7950.66 -55748.12,-8793.21 -64776.75,-1566.17 -2496.6,1998.42 -5863.73,-1280.83 -21950.33,-21377.58 l -19001.35,-23738.1 14983.82,-5815.25 c 31725.15,-12312.55 57109.79,-39100.06 59766.26,-63069.14 1681.54,-15172.46 -2292.51,-26577.92 -13159.02,-37766.12 -25834.97,-26599.76 -80554.67,-32625.06 -129755.68,-14287.67 -19075.19,7109.4 -20067.86,7178.27 -22719.69,1576.54 -10142.78,-21425.54 -10264.94,-65313.93 -239.18,-85926.01 2785.15,-5726.02 3638.23,-12813.45 2314.99,-19233.11 -2569.49,-12465.83 605.18,-33533.56 6867.49,-45574.16 2863.02,-5504.74 9833.24,-13149.99 18023.93,-19769.47 16491.99,-13328.35 31929.95,-17510.37 52871.69,-14322.54 l 14549.66,2214.79 124712.48,-99827.11 124712.47,-99827.1 -2876.93,12514.98 c -5747.06,25000.36 -860.62,49461.84 12413.07,62139.74 43199.93,41260.82 140298.3,-27447.29 151383.74,-107121.12 4435.98,-31882.64 -3704.29,-52383.78 -24531.32,-61781.51 l -11924.24,-5380.56 21099.52,-16889.28 21099.5,-16889.26 2405.58,-17289.53 c 1323.07,-9509.24 4427.36,-21700.022 6898.4,-27090.627 16483.73,-35959.247 54178.8,-57419.476 92815.48,-52840.908 l 16843.71,1996.029 75977.09,-60816.473 75977.107,-60816.487 9769.741,9501.467 c 48656.6241,47320.56 161933.152,34124.422 187855.702,-21884.234 15316.41,-33092.927 -9552.81,-67758.187 -57274.92,-79835.707 l -19103.477,-4834.7 25516.786,-20425.12 25516.801,-20425.13 2610.97,12835.44 c 3687.99,18130.15 16918.8,32545.76 33225.02,36200.33 24637.61,5521.8 60667.3,-7780.38 86267.85,-31850.12 45132.94,-42434.15 62627.46,-105436.24 37867.16,-136368.9 l -4325.82,-5404.19 65777.13,-52651.83 65777.15,-52651.85 4574.66,12834.67 c 21880.63,61388.3 120548.11,97523.88 166305.64,60907.11 25847.99,-20683.95 26727.93,-51342.15 2446.76,-85224.1 -17902.85,-24981.67 -43121.22,-41680.14 -76803.18,-50855.59 l -13911.63,-3789.73 55303.04,-44102.96 c 51829.26,-41332.68 55159.32,-43666.07 53014.99,-37147.64 -1258.42,3825.42 -3496,17914.72 -4972.41,31309.57 -5874.79,53299.53 15748.57,96589.49 51116.78,102335.8 28862.01,4689.26 57716.25,-17558.34 75347.21,-58095.15 8215.51,-18889.03 13423.33,-61868.5 9838.33,-81194.85 -5645.83,-30436.05 -21485.57,-54354.29 -40996.3,-61904.96 l -8599.97,-3328.21 27246.72,-21766.96 c 14985.67,-11971.84 29480.84,-22745.56 32211.47,-23941.66 4591.64,-2011.27 4803.6,-1116.07 2820.52,11911.36 -8911.75,58543.87 71014.4,120807.42 139136.97,108389.55 14734.42,-2685.89 19253.12,-4682.24 29791.77,-13162.04 8106.05,-6522.49 13657.8,-12886.44 15976.62,-18314.19 l 3553.72,-8318.24 61414.19,76723.81 61414.21,76723.79 -21545.3,-3117.91 c -27085.4,-3919.63 -48149.45,-2085.47 -74148.25,6456.48 -17162.93,5638.93 -23290.74,8973.04 -38732.52,21074.09 -16468.85,12905.8 -19033.22,15842.02 -25086.84,28723.28 -9298.86,19786.62 -7937.52,34045.4 4765.61,49915.22 13705.98,17122.67 35337.01,26631.9 65526.37,28806.04 59248.93,4266.91 119213.23,-26975.22 130939.83,-68221.28 l 2416.2,-8498.55 28328.3,35390.1 28328.3,35390.09 18857.6,2319.06 c 25584,3146.27 41087.8,12292.9 55673.6,32845.16 12801.7,18038.47 17032.8,34901.61 14242.1,56762.32 -1653,12948.16 -11805.6,38525.99 -17014.1,42864.27 -1036.9,863.62 -3256.6,7585.76 -4932.6,14938.02 -8202.2,35980.67 -22619.9,54121.39 -78837.6,99195.01 l -41597.6,33351.838 -401.9,-16174.831 c -455.7,-18342.497 -5700.9,-36497.017 -17142.7,-59333.907 -24993.4,-49884.61 -78170.2,-69243.61 -108714.62,-39577.45 -34232.43,33248.17 -27534.76,109786.952 13453.28,153739.953 6708.6,7193.879 17105.74,15630.75 23104.74,18748.6 l 10907.2,5668.736 -32449.2,25974.263 c -17847.08,14285.839 -32710.59,25647.775 -33030.02,25248.722 -319.41,-399.033 -1584.01,-8224.182 -2810.22,-17389.225 C 951353.44,6423.1981 944912.01,-9517.4038 933453.5,-23832.344 922582.27,-37413.604 913156.84,-42854.203 897930.05,-44337.434 837179.69,-50255.11 794437.39,59167.613 830736.97,127680.75 l 7202.56,13594.41 -75092.57,60108.45 -75092.57,60108.46 -3970.61,-10992.6 c -11483.59,-31792.25 -55564.88,-39103.91 -104597.45,-17349.36 -8858.9,3930.48 -22108.4,12480.19 -33751.68,21779.5 -55005.79,43932.11 -65669,104967.91 -21758.92,124546.23 l 10714.9,4777.48 -30773.2,24632.66 -30773.19,24632.65 -23249.45,-2599.57 c -12787.2,-1429.77 -30511.49,-1561.91 -39387.31,-293.65 -68252.41,9752.49 -115176.9,57002.85 -96729.99,97401.67 2772,6070.73 7556.09,13070.55 10631.24,15555.14 l 5591.2,4517.43 -14006.38,11273.73 -14006.24,11273.94 2108.9,14411.09 c 2606.37,17810.53 -2039.52,39355.34 -12168.48,56430.11 -10059.3,16957.36 -36920.71,37328.2 -55583.74,42152.99 -15108.88,3905.95 -39420.89,2394.08 -54529.03,-3390.93 l -11437.76,-4379.63 -40253.64,32221.36 -40253.667,32221.37 5288.582,-16681.58 C 122405.02,636742.88 68010.94,575442.23 6771.6837,624360.64 -38414.836,660456.08 -58571.282,742403.63 -32799.517,785240.88 c 6798.502,11300.31 19014.12,20286.78 29916.0804,22007.88 l 7377.3455,1164.67 -32793.0499,26249.46 -32793.05,26249.47 -2712.238,-9612.19 c -4130.042,-14636.83 -25766.916,-43544.58 -41547.861,-55509.57 -20100.03,-15239.73 -42845.7,-24877.26 -64394.22,-27284.42 -55897.37,-6244.24 -86534.86,34396.06 -65066.96,86310.62 11511.61,27837.9 49776.06,62791.97 77307.51,70619.42 4516.62,1284.11 8622.93,2848.06 9125.13,3475.45 502.2,627.39 -11104.45,10760.23 -25792.57,22517.45 l -26705.63,21376.74 -3456.51,-13729.71 c -7924.99,-31479.08 -25722.29,-59423.86 -47476.3,-74545.78 -16131.57,-11213.56 -39093.78,-13560.29 -54912.01,-5612 -29475.29,14810.65 -44613.47,58308.56 -35853.1,103019.94 4961.45,25322.49 12100.09,41373.79 26277.42,59085.39 l 12178.6,15214.5 -28020.22,20933 c -30463.86,22758.6 -45201.25,29568.2 -70580.26,32612.9 -7127.22,855 -18636.01,4487.4 -25575.08,8072.1 -26438.94,13658 -56985.93,14711.7 -80677.68,2782.9 -14300.31,-7200.2 -30587.65,-23400.5 -36486.59,-36291.6 z m -33337.08,-328450.69 c 62255.84,29685.1 112131.88,-68966.91 75817.95,-149963.69 -21872.41,-48785.52 -64641.53,-62989.02 -97251.08,-32296.8 -16151.58,15201.94 -24672.91,34730.28 -27957.88,64071.01 -5797.8,51785.17 15124.23,101850.21 49391.01,118189.48 z m 119699.27,113312.85 c 34389.81,13015.05 86837.85,3025 125900.84,-23981 36086.34,-24948.13 52347.58,-62256 38754.95,-88914.82 -5215.92,-10229.84 -23385.25,-22266.44 -39753.55,-26335.53 -19532.66,-4855.69 -52587.14,-1331.44 -78489.28,8368.53 -18037.91,6754.93 -24740.91,10607.28 -40741.19,23414.83 -30099.44,24093.34 -43138.75,49240.93 -38159.72,73594.77 2560.4,12523.59 17635.53,28232.23 32487.95,33853.22 z M -609333.89,484483.71 c 34580.38,26092.2 84004.14,35485.38 120536.24,22908.36 24156.09,-8316.27 42059.87,-30317.68 41569.55,-51083.55 -134.93,-5714.03 -3075.8,-17010.92 -6535.29,-25104.18 -5452.09,-12754.8 -8163.85,-16444.2 -20356.84,-27695.87 -34644.71,-31970.03 -91126.08,-45311.35 -131166.83,-30982.57 -24227.14,8669.8 -38053.31,24210.93 -40403.31,45414.81 -2498.96,22548.12 11144.46,47519.57 36356.48,66543 z m 402159.65,235624.16 c 15012.8,11077.43 31654.95,15618.68 46364.8,12651.84 9853.85,-1987.44 14382.42,-4446.3 24063.52,-13065.69 15511.27,-13810.15 23061.09,-29725.63 25783.79,-54353.98 4014.24,-36310.56 -5643.02,-70512.64 -27943.59,-98964.95 -12609.21,-16087.34 -15046.71,-18117.97 -30375.12,-25302.62 -22191.51,-10401.54 -35116.95,-9442.31 -54014.97,4008.53 -11265.27,8018.19 -14672.51,11861.94 -19996.35,22558.56 -23731.1,47679.9 -6326.98,121149.64 36117.92,152468.31 z M -308942.23,467128.32 c 60909.95,45648.98 130444.81,31961.11 132355.69,-26054.09 755.3,-22931.96 -5443.25,-38461.89 -25154.88,-63023.22 -14102.78,-17572.46 -19483.74,-22653.87 -32612.66,-30797.02 -76138.91,-47224.7 -145895.42,-3681.27 -113946.03,71127.43 6328.1,14817.06 25088.18,38052.48 39357.88,48746.9 z m 215305.345,74875.06 c 37296.279,25308.41 97772.3353,28704.44 135862.132,7629.34 50173.163,-27760.85 37767.226,-85802.57 -24233.174,-113375.94 -41932.525,-18648.62 -99553.764,-14647.88 -128907.853,8950.3 -16551.05,13305.61 -24169.62,36578.29 -18309.21,55929.66 3153.69,10413.79 21128.59,31054.76 35588.105,40866.64 z M -152175.68,345252.25 c 48641.81,22822.93 116157.985,15227.83 142794.841,-16063.43 3996.314,-4694.6 7879.8328,-9088.57 8630.07683,-9764.36 C 3048.4684,316002.19 4357.3074,291085.24 1247.4321,281383.84 -13945.377,233989.35 -96862.181,206100.48 -154747.19,228915.46 c -35672.42,14060.04 -52311.67,38234.35 -45711.41,66411.75 1973.35,8424.49 5180.02,13672.56 15714.97,25719.26 11431.48,13071.84 15871.03,16371.51 32567.95,24205.78 z M 145689.86,472126.9 c 38548.35,24525.18 77896.42,23144.81 98556.62,-3457.48 11179.03,-14394.23 14538.21,-42748.49 7578.02,-63964.74 -9995.4,-30468.19 -23617.93,-49907.15 -47660.39,-68009.93 -26873.01,-20234.04 -50910.71,-27309 -75061.73,-22092.75 -40939.113,8842.19 -54896.986,52658.35 -32476.223,101948.35 8400.753,18468.31 31033.503,44105.4 49063.703,55576.55 z M -76038.484,173867.21 c 26891.39,13322.47 51390.456,5327.54 70491.5581,-23003.97 C 17798.282,116236.7 20216.424,62870.331 331.65156,21128.214 -34763.551,-52543.526 -112363.55,-31581.735 -123664.06,54622.707 -130232.95,104732.6 -109178.25,157449.16 -76038.484,173867.21 Z M 291250.1,365519.92 c 19768.49,16212.71 43397.01,26206.53 70988.94,30025.23 32102.22,4442.9 54056.55,21.62 71984.57,-14496.61 27320.34,-22124.19 28178.67,-51240.18 2457.8,-83372.86 -35946.89,-44907.91 -112341.19,-62358.37 -153565.31,-35078.32 -26800.12,17734.94 -31968.6,42810.65 -15689.16,76118.47 4215.09,8624.11 11096.59,16366.68 23823.16,26804.09 z M 101841.05,103624.07 c 22108.22,11155.36 59368.79,6798.61 92629.72,-10830.848 44198.2,-23426.601 76936.45,-68443.52 73925.68,-101651.8936 C 263459.1,-63316.369 186276.76,-67565.893 123662.1,-16827.478 70943.708,25891.669 60628.884,82829.242 101841.05,103624.07 Z m 160654.22,115892.12 c 19911.79,9685.13 48352.92,2105.6 76459.23,-20376.3 26244.86,-20992.2 41595.14,-43400.2 52457.32,-76572.52 11897.38,-36333.821 4835.17,-70299.503 -17352.46,-83456.287 -7942.87,-4709.931 -26206.04,-7266.842 -36940.03,-5171.713 -34774.58,6787.469 -73478.52,42194.094 -91694.29,83882.51 -20592.16,47127 -13966.64,86597.88 17070.23,101694.31 z m 610.36,-299965.999 c 17655.43,13970.73 39667.94,22072.299 68571.44,25237.304 78610.12,8608.029 129265.08,-37777.464 98130.27,-89859.355 -6878.53,-11506.35 -25044.66,-25741.03 -45016.91,-35274.54 -21661.61,-10339.91 -65113.39,-14600.46 -89701.75,-8795.49 -34915.73,8243.11 -55930.64,26464.58 -59551.92,51635.8 -2995.93,20824.61 6427.4,40327.064 27568.87,57056.281 z M 463431.24,46708.397 c 20335.16,9574.238 60982.65,13774.176 85823.25,8867.758 53386.08,-10544.561 86221.8,-41558.397 81027.35,-76531.575 -2434.86,-16393.531 -20206.86,-36011.231 -41268.01,-45553.886 -44094,-19978.724 -104710.68,-13317.625 -140808.86,15473.293 -19967.82,15925.898 -27262.5,30286.225 -25230.8,49670.0071 1284.59,12255.8529 2394.29,14491.3029 13513.27,27222.2109 9425.22,10791.605 15405.13,15419.535 26943.8,20852.192 z M 638059.68,150255.06 c 41509.63,19787.5 111684.7,8288.27 147251.61,-24129.4 18019.04,-16423.55 26718.97,-34997.656 24265.67,-51806.534 -8049.79,-55153.415 -108775.04,-70473.9015 -172179.44,-26188.78 -47538.01,33203.15 -47239.19,79290.284 662.16,102124.714 z M 514408.53,-107215.65 c 11913.55,5981.35 18658.26,6405.34 35256.63,2216.29 19532,-4929.42 43378.57,-24812.95 59112.65,-49288.74 35763.24,-55633.01 32350.12,-126260.45 -6967.76,-144182.27 -10900.6,-4968.73 -28975.03,-4320.64 -43166.28,1547.79 -33842.01,13994.47 -65723.32,60137.57 -72806.29,105375.52 -6490.83,41456.07 3826.09,71907.88 28571.05,84331.41 z m 169394.91,56080.116 c 31732.92,26127.946 74629.26,36652.468 102468.3,25140.355 11297.96,-4671.971 14591.8,-7114.712 21914.99,-16252.318 29356.33,-36629.85 -2785.09,-106637.063 -61860.97,-134739.293 -49214.87,-23411.38 -97170.72,-9074.06 -104853.8,31348.08 -6138.45,32295.57 9686.64,67624.419 42331.48,94503.176 z m 17934,-205521.996 c 33072.28,7487.16 68150.06,-19791.07 85776.57,-66704.13 7942.63,-21139.33 11492.83,-60165.93 7213.87,-79300.41 -9388.01,-41980.92 -33398.21,-62486.26 -65139.33,-55630.66 -51134.76,11044.28 -86453.6,92037.89 -68179.28,156349.56 3249.61,11436.18 6367.84,16866.06 16300.06,28383.93 10944.35,12691.59 13560.79,14532.02 24028.11,16901.71 z m 98396.35,77711.09 c 16279.05,7991.97 51886.29,12583.74 73758.62,9511.62 48273,-6780.27 90477.67,-35752.96 99019.7,-67975.1 3704.03,-13972.33 -1038.63,-30141.69 -12455.52,-42465.21 -13537.48,-14612.49 -30168.86,-21668.39 -58293.43,-24731.11 -37371.07,-4069.67 -82037.07,7664.84 -107862.99,28337.4 -20221.88,16186.77 -31158.47,40080.91 -27256.21,59549.11 3025.08,15092.02 15200.58,28990.83 33089.83,37773.29 z"
                                   id="path4197" />
                                <path
                                   style="fill:#472500;stroke-width:2453.09"
                                   d="m -542263.39,1088116.5 c -13048.76,-22831.5 -12856.5,-53747.4 501.25,-80597.9 5758.44,-11575.07 9556.47,-15973.67 23183.82,-26849.68 20163.29,-16092.42 38052.26,-22223.96 60999.34,-20907.89 23648.84,1356.33 40489.91,9282 55637.19,26183.8 17237.77,19234.37 22827.83,36889.07 19937.62,62967.27 -2830.63,25540.7 -12047.11,41750.1 -33382.1,58710.3 -21972.81,17467.3 -39225.71,22553.6 -66324.39,19553.1 -27814.06,-3079.8 -47099.41,-15519.6 -60552.73,-39059 z M -830265.04,545067.25 c -7246.91,-41608.92 27680.58,-79784.24 71183.69,-77802.91 24299.27,1106.69 47604.64,20174.57 53554.76,43817.17 5574.88,22151.68 -5041.12,52739.16 -23406.31,67439.73 -18365.2,14700.56 -50534.95,18361.28 -70928.33,8071.19 -14902.72,-7519.63 -27470.8,-24684.95 -30403.81,-41525.18 z m 377429.38,88592.62 c -10700.47,-32573.71 -2014.51,-66797.31 23520.16,-92672.1 24992.32,-25325.19 69192.93,-32474.25 101314.46,-16386.67 18773.35,9402.32 34976.9,29602.62 39945.98,49799.09 13949.77,56697.07 -33924.57,113770.97 -92609.41,110405.25 -24446.73,-1402.08 -40627.85,-9245.49 -56312.22,-27295.99 -8131.38,-9358.08 -13995.59,-18176.98 -15859.03,-23849.54 z m 134310.75,-486752.09 c -12940.28,-60236.635 40961.45,-115999.973 102772.64,-106322.114 40494.18,6340.239 68284.07,40300.61 65971.65,80620.044 -1955.24,34091.66 -19484.02,61699.71 -48598.56,76543.36 -25765.31,13136.09 -54028.15,13779.02 -78687.35,1790.04 -12107.92,-5886.73 -16674.16,-9648.62 -26290.11,-21659.12 -9917.69,-12387.39 -12158.9,-16963.75 -15168.27,-30972.21 z m 458296.25,494722.57 c -10399.88,-23151.38 -9455.81,-50579.02 2582.77,-75036.2 5859.11,-11903.16 9285.07,-15791.83 24983.82,-28358.02 15915.57,-12739.75 20169.91,-15043.26 33977.72,-18397.25 19075.63,-4633.59 40803.32,-2961.36 58012.25,4464.76 11080.66,4781.61 14561.31,7762.77 26549.25,22739.11 11994.85,14984.98 14146.47,19045.59 16474.62,31091.79 4005.8,20726.62 -1057.59,47254.92 -12348.28,64695.78 -31384.36,48479.69 -99987.21,57229.61 -136526.26,17413.18 -5758.23,-6274.71 -11925.81,-14650.65 -13705.89,-18613.15 z M 56206.604,233522.91 c -4102.876,-10739.38 -2632.739,-35032.32 2896.579,-47864.23 6106.174,-14170.65 32208.828,-35679.63 46629.917,-38423.77 25572.39,-4866.11 47378.83,2560.44 62317.62,21223.24 14977.52,18711.18 17474.04,42192.35 6939.19,65266.94 -5999.72,13141.3 -25808.03,30480.98 -40027.65,35039.24 -32124,10297.66 -67386.182,-5481.38 -78755.656,-35241.42 z M 409107.85,211010.99 c -6065.12,-14370.72 -7471.06,-28152.72 -4717.34,-46242.65 8779.93,-57677.91 74461.42,-92577.488 126247.79,-67081.213 18322.16,9020.653 36630.6,31096.303 41305.36,49804.563 4593.54,18383.19 1774.76,42746.07 -6972.71,60265.69 -6637.25,13293.22 -9675.24,16785.93 -25746.49,29600.21 -15628.6,12461.34 -20344.08,15046.44 -33140.46,18168.03 -41117.01,10030.26 -81846.14,-8665.5 -96976.15,-44514.63 z m -71052.43,-469839.58 c -8371.54,-22317.93 -6664.7,-47046.52 4864.24,-70473.55 5785.47,-11756.17 9261.23,-15693.41 24916.92,-28225.13 16004.99,-12811.33 20160.85,-15049.49 34547.21,-18605.59 19000.7,-4696.7 43381.77,-2116.87 60339.91,6384.75 16631.08,8337.66 36281.83,33315.27 40235.85,51142.87 3811.57,17185.21 968.07,39872.1 -7167.19,57183.43 -6032.8,12837.48 -8595.81,15735.6 -26784.33,30286.48 -16643.97,13316.51 -22261.45,16622.84 -32570.44,19176.96 -17770.1,4402.67 -46306.45,1394.75 -61053.61,-6435.44 -15047.07,-7989.43 -32078.28,-26437.87 -37328.56,-40434.78 z M 759570.67,-492595.4 c -11384.19,-52035.37 41855.01,-97020.4 90608.2,-76560.31 43014.92,18051.9 48016.11,75480.56 9234.41,106038.31 -20945.79,16504.17 -46187.03,19767.98 -68269.78,8827.8 -15827.96,-7841.47 -28188.88,-22838.38 -31572.83,-38305.8 z m 318744.83,262826.34 c -13361.3,-32698.78 -1861.2,-74755.56 26791.7,-97979.58 22115.6,-17925.39 41164.8,-24058.24 67037.5,-21582.69 22532.8,2155.96 39480.3,11576.16 54438.6,30259.43 10331.7,12904.69 12797.9,17718.02 15644.1,30533.7 4208.8,18950.71 437.3,43437.04 -9379.5,60896.02 -10862.9,19319.37 -36315.8,39244.24 -56410.1,44158.53 -42404.5,10370.55 -82747.8,-8659.83 -98122.3,-46285.41 z"
                                   id="path4195" />
                                </g>
                                </g>
                                </g>
                                </g>
                                </g>
                                </g>
                                </g>
                                </g>
                                </g>
                                </g>
                                </g>
                                </g>
                                </g>
                                </g>
                                </g>
                                </g>
                                </g>
                                </g>
                                </g>
                                </g>
                                </g>
                                </g>
                                </g>
                                </g>
                                </g>
                                </g>
                                </g>
                                </g>
                                </g>
                                </g>
                                </g>
                                </g>
                                </g>
                                </g>
                                </g>
                                </g>
                                </g>
                                </g>
                                </g>
                                </g>
                                </g>
                                </g>
                                </g>
                                </g>
                                </g>
                                </g>
                                </g>
                                </g>
                                </g>
                                </g>
                                </g>
                                </g>
                              </g>
                            </g>
                          </g>
                        </g>
                      </g>
                    </g>
                  </g>
                </g>
              </g>
            </g>
          </g>
        </g>
      </g>
    </g>
  </g>
</svg>
