<?xml version="1.0" encoding="UTF-8" standalone="no"?>
<!-- Created with Inkscape (http://www.inkscape.org/) -->

<svg
   width="64"
   height="64"
   viewBox="0 0 16.933333 16.933333"
   version="1.1"
   id="svg5"
   inkscape:version="1.2 (dc2aedaf03, 2022-05-15)"
   sodipodi:docname="gruyere_rape.svg"
   xmlns:inkscape="http://www.inkscape.org/namespaces/inkscape"
   xmlns:sodipodi="http://sodipodi.sourceforge.net/DTD/sodipodi-0.dtd"
   xmlns="http://www.w3.org/2000/svg"
   xmlns:svg="http://www.w3.org/2000/svg">
  <sodipodi:namedview
     id="namedview7"
     pagecolor="#ffffff"
     bordercolor="#999999"
     borderopacity="1"
     inkscape:pageshadow="0"
     inkscape:pageopacity="0"
     inkscape:pagecheckerboard="0"
     inkscape:document-units="mm"
     showgrid="false"
     width="64mm"
     units="px"
     inkscape:zoom="16.609946"
     inkscape:cx="32.962178"
     inkscape:cy="30.824904"
     inkscape:window-width="1920"
     inkscape:window-height="1009"
     inkscape:window-x="-8"
     inkscape:window-y="-8"
     inkscape:window-maximized="1"
     inkscape:current-layer="g977"
     inkscape:showpageshadow="0"
     inkscape:deskcolor="#d1d1d1" />
  <defs
     id="defs2" />
  <g
     inkscape:label="Calque 1"
     inkscape:groupmode="layer"
     id="layer1">
    <g
       id="g977"
       transform="translate(0.08745663,0.03512701)">
      <path
         style="fill:#ffeeaa;stroke-width:0.00750064"
         d="M 5.5496714,12.497779 C 5.4722524,12.415407 5.3072483,12.183576 5.219161,12.033412 5.1535228,11.921517 5.1506907,11.911519 5.1554392,11.808454 l 0.00408,-0.08865 -0.073537,0.07617 -0.073537,0.07617 -0.1901205,-6.93e-4 C 4.6681071,11.87089 4.6123461,11.867751 4.5270471,11.854661 4.3253728,11.823781 4.2493382,11.795361 4.1556839,11.71587 l -0.056484,-0.04795 -0.059776,0.03359 c -0.032877,0.01847 -0.1523033,0.086 -0.2653927,0.150061 l -0.205617,0.116475 -0.049405,-0.0091 C 3.3948068,11.936165 3.100038,11.82059 2.9723668,11.744642 2.855694,11.675236 2.8007836,11.61217 2.7265406,11.462303 l -0.035825,-0.07232 -0.108222,0.151073 c -0.1510052,0.210797 -0.2400372,0.319838 -0.2611471,0.319838 -0.0055,0 -0.1173005,-0.04754 -0.2484411,-0.105654 C 1.776413,11.623864 1.562439,11.53288 1.4744372,11.500768 1.3934044,11.471199 1.3719036,11.450732 1.3284616,11.361812 1.2935707,11.290395 1.2176842,11.064715 1.170612,10.892381 l -0.032011,-0.117193 0.038891,-0.08157 c 0.044743,-0.09385 0.1219853,-0.235815 0.2008971,-0.369234 0.030137,-0.05095 0.054794,-0.09505 0.054794,-0.098 0,-0.0029 -0.037972,-0.02167 -0.084382,-0.04162 -0.1157799,-0.04975 -0.2854384,-0.135834 -0.3004973,-0.152474 -0.011591,-0.01281 -0.010924,-0.01884 0.010164,-0.092011 0.035798,-0.1242025 0.072164,-0.2735646 0.089375,-0.3670788 0.00873,-0.047442 0.019438,-0.099759 0.023793,-0.11626 0.011069,-0.041943 0.089047,-0.1567486 0.175763,-0.2587716 C 1.4239931,9.108054 1.6647607,8.86351 1.7115241,8.828332 l 0.027069,-0.020363 0.051688,0.015718 c 0.028428,0.00864 0.1483027,0.054249 0.2663874,0.1013416 0.1180848,0.047093 0.2180181,0.085624 0.2220741,0.085624 0.00406,0 0.051312,-0.051473 0.1050127,-0.1143848 0.2863968,-0.3355185 0.5597666,-0.5865619 0.7735091,-0.7103359 0.09889,-0.057265 0.3299749,-0.1428622 0.3856827,-0.1428622 0.010398,0 -0.040663,-0.056467 -0.167961,-0.1857437 C 3.1908087,7.6702869 3.0509237,7.5145377 3.0266793,7.4695185 L 3.013573,7.4451817 3.1089619,7.3259649 C 3.1614257,7.2603956 3.2402059,7.1531068 3.284029,7.0875452 3.3500108,6.988833 3.3715102,6.9625983 3.4091,6.9349263 3.4781784,6.8840736 3.5469308,6.8459289 3.6908771,6.7785926 3.9202489,6.6712953 4.1180885,6.5982302 4.1430603,6.6115947 c 0.02713,0.014519 0.2034769,0.1879226 0.5979068,0.5879246 0.2207064,0.2238245 0.4117477,0.4156166 0.4245361,0.4262048 l 0.023252,0.019251 0.02362,-0.1216053 c 0.012991,-0.066883 0.026466,-0.1428875 0.029943,-0.168899 0.00573,-0.042893 0.00975,-0.050802 0.043135,-0.084994 0.065774,-0.067359 0.2371099,-0.1721567 0.4812505,-0.2943571 l 0.1144095,-0.057266 0.065606,0.014424 c 0.056545,0.012432 0.1815638,0.049519 0.3223654,0.095629 0.021582,0.00707 0.04045,0.011382 0.041928,0.00959 0.00148,-0.00179 0.034099,-0.057268 0.07249,-0.1232732 C 6.506432,6.7028749 6.6135334,6.5487419 6.7386068,6.4031835 6.9933054,6.1067696 7.3773509,5.9377783 7.9128621,5.8864771 8.0486612,5.8734677 8.3918232,5.871698 8.5475432,5.883204 8.707649,5.895034 8.8986948,5.918503 9.0688379,5.947242 9.1534079,5.961527 9.2275628,5.973986 9.233627,5.974928 9.241017,5.976078 9.268386,5.930224 9.316717,5.8357004 9.398034,5.6766597 9.402446,5.6719346 9.5043973,5.6347272 9.6045894,5.5981612 9.7535229,5.5641242 10.039751,5.5123765 l 0.05958,-0.010772 0.04167,0.021069 c 0.06003,0.030349 0.289513,0.1846947 0.447891,0.3012416 0.773151,0.5689466 1.476283,1.2402717 1.764042,1.6842453 0.01921,0.02964 0.0384,0.054111 0.04264,0.05438 0.01591,0.00101 0.122417,-0.055061 0.309402,-0.1628691 0.331597,-0.1911857 0.450079,-0.2560144 0.66842,-0.3657329 0.130155,-0.065404 0.257262,-0.1159649 0.291531,-0.1159649 0.0354,0 0.126382,0.1272415 0.350332,0.4899443 l 0.133475,0.2161709 0.0066,0.065103 c 0.0075,0.073619 -0.0026,0.3024448 -0.02005,0.4551366 -0.0122,0.1067603 -0.03161,0.2211782 -0.03966,0.233769 -0.01336,0.020876 -0.205087,0.1258702 -0.64879,0.3552827 l -0.193627,0.1001136 0.06336,0.013097 c 0.473231,0.097814 1.030756,0.4403793 1.580056,0.9708486 0.07998,0.077238 0.109392,0.1008462 0.138957,0.1115386 0.133522,0.048288 0.422367,0.2360732 0.538071,0.3498122 0.04839,0.04756 0.06361,0.06882 0.0916,0.127912 0.04093,0.0864 0.07632,0.219545 0.08249,0.310347 0.0025,0.03713 0.0062,0.07784 0.0082,0.09047 0.002,0.01263 2.48e-4,0.04132 -0.0039,0.06376 -0.0061,0.03311 -0.01295,0.04574 -0.03661,0.06705 -0.02867,0.02581 -0.193856,0.118294 -0.26736,0.149675 -0.03546,0.01514 -0.03975,0.02018 -0.07876,0.09252 -0.06637,0.123087 -0.175443,0.224462 -0.408785,0.379937 -0.138717,0.09243 -0.166031,0.10729 -0.18585,0.101132 -0.02746,-0.0085 -0.09412,-0.0553 -0.183868,-0.129012 l -0.08469,-0.06956 -0.129074,0.04096 c -0.504122,0.159989 -0.860263,0.231847 -1.152913,0.232621 -0.205299,5.43e-4 -0.357179,-0.0213 -0.654619,-0.09416 l -0.155828,-0.03817 -0.177951,0.053 c -0.858668,0.255748 -2.034012,0.549622 -2.6569143,0.664315 -0.2787719,0.05133 -0.3355862,0.05723 -0.618803,0.06425 -0.1443874,0.0036 -0.3097766,0.0085 -0.3675315,0.01097 -0.3707448,0.01575 -0.840147,0.03833 -1.3351144,0.06423 -1.0046096,0.05256 -1.3024606,0.06702 -1.4880581,0.07223 l -0.1815624,0.0051 z m 7.6427156,-2.068232 c 0.01998,-0.01268 -0.188112,-0.04956 -0.253435,-0.04491 -0.02909,0.0021 -0.01961,0.0055 0.07147,0.02615 0.105382,0.02385 0.164363,0.02993 0.181961,0.01876 z M 4.7341281,9.8367673 c 0.034914,-0.011802 0.09972,-0.030886 0.1440132,-0.04241 0.044293,-0.011524 0.079646,-0.021819 0.078563,-0.022878 C 4.9514198,9.766311 4.6257722,9.6445624 4.5306068,9.6121764 4.3865809,9.5631624 4.3380824,9.5516942 4.2436689,9.5443256 4.1052461,9.5335223 3.9144008,9.5580172 3.8165985,9.59914 l -0.023878,0.01004 0.02971,0.012573 c 0.069716,0.029503 0.4143878,0.1408767 0.5247526,0.1695634 0.148245,0.038533 0.2701414,0.065413 0.3004939,0.066264 0.012633,3.54e-4 0.051536,-0.00901 0.086451,-0.020813 z M 10.794806,8.3859687 c 0.03964,-0.031274 0.104417,-0.080284 0.143942,-0.1089122 l 0.07186,-0.052051 -0.02099,-0.044392 c -0.02622,-0.055445 -0.06249,-0.08798 -0.201387,-0.1806593 l -0.107012,-0.071404 -0.215516,0.03501 c -0.289778,0.047073 -0.270015,0.040371 -0.211215,0.071627 0.211206,0.1122697 0.421191,0.2711442 0.442097,0.3344898 0.005,0.015065 0.0062,0.040025 0.0031,0.061296 -0.0051,0.034622 -0.0048,0.03546 0.0089,0.023869 0.0078,-0.00661 0.04659,-0.0376 0.08623,-0.068874 z M 9.8117646,8.106298 C 9.8247366,8.087444 9.8337846,8.070453 9.8318716,8.06854 9.8237316,8.0604 9.7137133,8.091742 9.714044,8.10211 c 1.201e-4,0.00369 0.027685,0.01804 0.07262,0.037802 8.326e-4,3.668e-4 0.012128,-0.01476 0.025101,-0.033614 z M 7.961527,7.6211054 c 0.050036,-0.046439 0.1325499,-0.1214634 0.1833645,-0.16672 0.050815,-0.045257 0.088716,-0.083509 0.084226,-0.085007 -0.013209,-0.0044 -0.1558694,0.028252 -0.2135103,0.048872 -0.073959,0.026458 -0.1796832,0.080198 -0.233129,0.1184994 -0.051929,0.037214 -0.093416,0.079363 -0.082507,0.083823 0.00413,0.00169 0.041254,0.021038 0.082507,0.043003 0.041253,0.021965 0.077947,0.040393 0.081541,0.04095 0.00359,5.581e-4 0.047473,-0.036982 0.097508,-0.08342 z"
         id="path987" />
      <path
         style="fill:#ffe680;stroke-width:0.00750064"
         d="M 5.5997907,12.530814 C 5.213068,12.347394 5.3159689,11.537963 4.7757113,11.892551 4.3230413,11.752418 3.9736353,11.668918 3.5587626,11.932557 3.0295366,12.107408 2.6831701,11.015834 2.3925766,11.773578 1.9401908,11.839716 1.2946451,11.504665 1.1991893,11.027169 0.98292414,10.658328 1.7027712,10.201479 1.1852748,10.139591 0.82917833,9.7468193 1.3199135,9.3750658 1.6925542,9.6714978 2.3350285,9.9240786 3.0272673,9.8437039 3.6852747,10.007067 4.0898548,10.018429 3.178357,9.7782052 3.017472,9.7907185 2.4244924,9.6693215 1.6834844,9.6954318 1.2014386,9.36343 1.5658309,9.0766647 2.0878002,9.6162721 2.5481727,9.5882199 c 0.487709,0.120116 1.0207332,0.1357 1.4490852,0.4074334 C 4.6840063,10.143964 3.8269391,9.5869292 3.5708589,9.6496378 2.9106675,9.6120738 2.2751058,9.466296 1.658297,9.2343085 1.2012257,8.98726 1.9401986,8.6640139 2.1610848,8.9741703 2.5948836,8.8764384 2.8431898,8.2313743 3.3609996,8.0966749 3.6892878,7.9076555 2.6576815,7.4575882 3.2342017,7.1074123 3.8047741,7.1984226 4.2766872,8.0003605 4.9536262,8.1247954 5.1671925,8.313996 5.9079874,8.7557759 5.3628903,8.3035265 4.8696512,7.9163126 4.2714387,7.6851627 3.7958898,7.273158 3.3912873,7.2683743 3.4016863,6.5765807 3.768026,6.9696074 4.3307357,7.5636005 5.0797402,7.9328589 5.7020832,8.4498876 5.8182405,8.6837132 6.3044171,9.5335895 6.1144964,8.8433717 5.8786851,8.1329587 5.1049432,7.9460998 4.5667672,7.5419487 4.2743453,7.3459456 3.3425948,6.5742332 4.1709864,6.6723084 4.5858601,6.8402529 4.8099292,7.5593856 5.2268239,7.542259 5.2049043,6.7969221 6.2187641,7.1602496 6.4484668,6.792589 6.8394946,6.0496573 7.7493319,5.7320916 8.5426407,5.9073369 9.1760641,6.2003306 9.4895617,5.4182313 10.089692,5.5288806 c 0.482225,0.1938746 0.858329,0.6076845 1.274301,0.9204804 0.422204,0.284228 0.739584,0.8772026 1.103008,1.0858876 0.193373,-0.1294772 0.639639,-0.3155136 0.194174,-0.1020803 -0.459616,0.2101326 0.0356,0.5473118 0.262986,0.1979611 0.255777,-0.4434946 0.811196,-1.0161292 1.084354,-0.2507049 0.310733,0.4709426 0.196533,1.1942036 -0.448062,1.279712 -0.573139,0.2659449 0.520048,0.3333196 0.641575,0.5957587 0.442118,0.3696299 0.931605,0.6756014 1.368309,1.0375728 0.46521,0.596868 -0.544323,0.628627 -0.834283,0.969058 -0.562539,0.32081 0.457108,-0.123809 0.622051,-0.2642 0.276329,-0.153085 0.478233,-0.0934 0.122132,0.07129 -0.283851,0.315048 -0.566467,0.703211 -1.00218,0.430142 -0.533055,0.06256 -1.054148,0.356008 -1.602022,0.19414 -0.596455,-0.202139 -1.164607,0.153826 -1.742705,0.26561 -0.954545,0.268622 -1.9343908,0.465617 -2.9299453,0.450185 -0.867939,0.03866 -1.73494,0.09952 -2.603594,0.121123 z M 9.4174183,11.95278 C 9.393688,11.615475 9.118576,11.01683 9.0812537,10.897633 c 0.1020754,0.34467 0.045947,0.805192 0.3361646,1.055147 z m 4.0505467,-0.327957 c 0.262666,-0.04876 0.415874,-0.165681 0.03649,-0.06618 -0.348494,0.05769 -0.710743,-0.117834 -1.040238,-0.09813 0.32253,0.09905 0.659642,0.266047 1.003752,0.16431 z M 4.0364452,11.434917 c 0.2775568,-0.275706 0.6105985,-1.07879 0.6959571,-1.123921 -0.2903313,0.333627 -0.7313943,0.809115 -0.7581438,1.19705 0.020729,-0.02438 0.041461,-0.04876 0.062187,-0.07313 z m 6.5517068,0.03349 c 0.03076,-0.667299 -0.32449,0.09064 0,0 z m -8.5705582,-0.0032 c -0.1814193,-0.623204 -0.299565,0.161556 0,0 z m -0.2618825,-0.0025 c -0.3103777,-0.352145 0.065943,-0.892305 0.1032812,-1.066654 -0.533991,-0.05317 -0.5703092,1.038769 -0.1032812,1.066653 z m 11.6484977,-0.02159 c -0.436074,-0.17202 -1.445189,-0.254976 -1.567025,-0.23578 0.497962,0.193024 1.039388,0.217835 1.567025,0.23578 z m -3.059305,-0.05839 c -0.169614,-0.771003 0.852237,-0.919275 1.13203,-1.5018795 0.488396,-0.441841 1.31821,-0.954119 1.947392,-0.5026357 0.21044,0.1891825 0.876755,0.5946511 0.343108,0.1380152 -0.490503,-0.5180267 -1.282297,-0.5614403 -1.832665,-0.1205722 -0.569388,0.3735586 -1.050693,0.8686252 -1.628542,1.2285692 -0.145714,0.202579 -0.237278,0.622572 0.03868,0.758503 z M 2.9136072,11.151266 c 0.2500424,-0.159549 0.7394514,-0.706021 0.7552901,-0.710052 -0.3021662,0.20377 -0.9936745,0.620325 -0.9365283,0.8374 0.062615,-0.03927 0.1208699,-0.08484 0.1812382,-0.127348 z m 3.7212722,0.136026 c 0.2379013,-0.0431 1.2434283,-0.170055 0.5775757,-0.34726 -0.4810556,0.143513 -1.0612982,-0.07254 -1.4532979,0.183515 0.1980345,0.175046 0.6075499,0.17442 0.8757222,0.163745 z M 8.9835625,10.521886 C 9.1336552,10.111444 8.246568,9.6382825 8.1831242,9.8696581 c 0.13515,0.3357229 0.5093003,0.4813389 0.8004383,0.6522279 z m 4.2331305,-0.09243 c -0.136821,-0.0731 -0.434851,-0.04898 -0.108643,0.0014 z M 9.0951773,10.158246 C 9.0923115,9.9252843 9.3613549,9.0502769 9.0709878,9.6752734 9.0441828,9.8120805 9.057571,10.092617 9.0951773,10.158246 Z M 4.5013045,10.091386 C 4.8231675,10.103721 5.2835038,9.6820714 4.703645,9.9603779 4.6864534,9.9755011 4.2496257,10.181994 4.5013045,10.091386 Z M 8.6623286,9.9276061 c 0.1842301,-0.254736 0.026462,-1.0524193 -0.00272,-0.3337485 0.00675,0.099198 -0.073601,0.2577032 0.00272,0.3337485 z M 5.509783,9.705226 C 5.7252416,9.4575641 6.4922009,9.3578439 6.4691397,9.2637519 6.0376572,9.3114528 5.5536608,9.4415668 5.3147662,9.8385971 l 0.097096,-0.067288 z m 3.7485804,0.1248718 c 0.2532559,-0.2604234 0.074497,-0.5691898 -0.00302,-0.1044357 0.00587,-0.0058 -0.086684,0.2374373 0.00302,0.1044357 z M 4.7226836,9.8430058 C 5.209452,9.7100563 4.2376074,9.5048829 4.0490102,9.5412596 3.3110727,9.6094922 4.6764088,9.8819855 4.7226836,9.8430058 Z M 5.7941513,9.7159624 C 6.2234748,9.6242355 7.1491696,9.2563557 7.2098265,9.1830116 6.7372959,9.2257763 5.8773306,9.5908527 5.7941513,9.7159624 Z M 11.899295,9.1826417 c 0.388249,-0.5604669 0.594297,-1.4084613 0.02429,-1.9273516 -0.140281,-0.22455 -0.540194,-0.3586521 -0.189203,-0.022689 0.540917,0.4719257 0.544985,1.2600428 0.166938,1.8297235 -0.0018,0.031081 -0.05091,0.096572 -0.002,0.1203166 z M 2.5970334,9.1313937 C 2.850857,8.6531271 3.6404657,8.3575187 3.9420536,8.4521468 3.4009656,8.1511852 2.8167216,8.5991655 2.5190818,9.0400687 c -0.057103,0.047573 0.026524,0.1204704 0.077952,0.091325 z M 10.430205,8.7031262 C 10.037766,8.4186709 9.0253735,8.150206 8.8898686,8.2075234 9.3737635,8.4556428 9.9207162,8.5266457 10.430205,8.7031262 Z m 0.336887,-0.087202 c 0.05959,-0.1353853 -0.08584,0.1274303 0,0 z M 6.5317652,8.4936088 C 6.8432489,8.4318236 7.5541574,8.0806923 7.5778964,8.0588519 7.2160819,8.1403951 6.4897701,8.2902132 6.4132519,8.5250365 6.4527557,8.5145613 6.4922653,8.5040793 6.5317652,8.4936088 Z M 10.808987,8.3795912 c 0.693052,-0.4227754 -1.0754579,-0.629957 -0.325722,-0.1816105 0.148418,0.017635 0.234772,0.3207956 0.325722,0.1816105 z m 0.210674,0.026285 c 0.154516,-0.085283 -0.161797,0.035665 0,0 z M 9.8073084,8.3350401 C 9.5235608,8.0278373 8.6022872,7.8677781 8.5337231,8.0159165 8.977194,8.0211493 9.3965752,8.18534 9.8073084,8.3350401 Z m 0.010483,-0.2331677 c 0.04346,-0.1400506 -0.2303384,0.1515679 0,0 z M 7.7603523,7.953062 C 7.9931635,7.7824941 8.0968272,7.5401026 7.814798,7.856029 c 0.00626,0.00411 -0.1691994,0.1366638 -0.054446,0.097033 z M 7.7037213,7.869776 C 7.0972002,7.6471755 6.4619292,7.4421995 5.88003,7.1988398 5.5906908,7.1530526 5.0570069,7.8233394 5.6206195,7.511227 6.2377289,7.3210155 6.7857222,7.9389899 7.4119432,7.8608951 c 0.084144,0.040914 0.227093,0.131207 0.2917781,0.00888 z M 5.4603208,7.857706 C 5.8481713,7.6543493 5.1816506,7.7161509 5.456287,7.8603308 Z M 7.9645063,7.6222067 c 0.8489948,-0.6585734 -0.794057,0.1689728 0,0 z M 8.7275587,7.2015498 C 9.0056373,6.9210299 9.8520958,6.8738044 9.891603,6.7676588 9.511775,6.7194338 8.6814619,6.9976171 8.7275587,7.2015498 Z M 9.2038495,7.1701738 C 9.6118235,7.1137881 10.579214,6.8538066 10.611577,6.7758683 10.17868,6.7684104 9.1923524,7.0511393 9.1443396,7.1753486 l 0.032376,-0.00282 0.02713,-0.00236 z M 6.6730829,7.0513915 C 6.9477004,6.3902002 7.7340739,6.3602041 8.3351583,6.4119953 7.7464918,6.2291368 6.9429638,6.2689784 6.6217649,6.8837593 6.5744189,6.9599483 6.5441116,7.28133 6.6730829,7.0513915 Z M 10.951293,6.5518991 C 10.620006,6.2619435 10.246494,5.7501763 9.769704,5.7782151 9.4628148,5.7867221 9.2193887,6.1545434 9.6862175,5.9979505 10.229133,5.8001679 10.39843,6.7371037 10.951293,6.5518991 Z M 9.4543657,6.2708859 c 0.467308,-0.2668992 -0.4623311,0.043082 0,0 z"
         id="path985" />
      <path
         style="fill:#ffd42a;stroke-width:0.00750064"
         d="M 5.5997907,12.530814 C 5.3025952,12.433085 5.2133191,11.711038 5.0943565,11.784216 4.9323196,11.983282 4.0324722,11.89408 4.4183136,11.585282 4.8900674,11.010994 5.4008656,10.464448 5.926071,9.9430868 6.6013335,9.7088096 7.3160605,9.5849235 8.029693,9.6228429 8.1621057,9.2756949 8.0675263,8.6941955 7.5795183,8.9322893 7.0087263,8.9614684 6.4763853,9.1299132 5.9428072,9.309242 5.3147517,9.6015022 4.8701099,10.156176 4.3706977,10.610292 4.0734989,10.918624 3.7190453,11.378127 4.0634346,11.684326 3.6622431,12.093358 2.9707991,11.937706 2.7224747,11.444689 2.5821342,11.29388 2.4632935,12.001286 2.2225953,11.817625 2.0533443,11.715206 1.7641528,10.788037 1.8802291,11.489778 1.877282,11.986091 1.627753,11.0608 1.610108,10.876648 1.7312333,10.695286 2.1609808,10.278479 1.6934532,10.389392 1.2886342,10.720168 1.4494652,11.158957 1.6396291,11.559266 1.077517,11.393202 1.0634948,10.593538 1.4395783,10.222198 0.92569486,10.289249 0.96950146,9.338371 1.4307228,9.6799349 2.0220329,9.8984651 2.6858742,9.8365777 3.2595095,10.09076 3.6183686,10.699397 4.0734461,10.011906 4.5211822,9.9170247 4.8531133,9.8154527 5.137404,9.7656677 4.6586542,9.6539162 4.2561898,9.4011504 3.8247575,9.7111424 3.4246464,9.5089185 2.7957005,9.4035105 2.1111955,9.3502467 1.5869464,8.9502471 1.8925553,8.6506157 2.3767518,9.292518 2.5803685,8.68042 2.7853345,8.354969 3.341981,8.1503102 3.5102132,7.993666 3.2066616,7.7231106 2.821087,7.4123881 3.2860672,7.0941105 3.7699214,7.5586922 4.3860175,7.8630775 4.9291666,8.2543948 5.1649438,8.6749901 5.4230027,9.0959743 5.9125863,9.2577476 6.11468,9.1718838 6.6669942,9.1927919 6.4450943,8.9284184 7.2263578,8.7124677 8.0389516,8.5941956 8.8338329,8.4695079 9.5184037,8.6874596 10.168421,9.016265 10.713716,9.4889982 11.036998,9.3049001 11.320079,8.7504227 10.757482,8.6590721 10.925219,8.5500606 10.105116,8.5646946 10.431328,8.2424782 10.280511,7.828153 9.6290339,8.1221532 9.7407605,8.1580256 9.2253033,7.9148943 8.6459932,7.8689766 8.0844368,7.9560776 7.5401031,8.0242857 6.9897608,8.0628872 6.4751429,8.276376 6.2317926,8.3914417 6.4598171,8.9028862 6.1087496,8.5061608 5.7348996,8.1509458 5.3393073,7.8352213 4.8873678,7.5833087 4.6188191,7.3606268 3.8652593,6.9504099 4.0451058,6.6362575 4.3787442,6.6948673 4.6009809,7.1219933 4.8821039,7.3455621 5.033466,7.4336447 5.1472917,7.7539482 5.3275667,7.6631597 5.6944804,7.3666538 6.070599,7.3902161 6.4393764,7.6692098 6.8693721,7.745567 7.457527,7.8959085 7.7414895,7.95823 8.093966,7.8514234 8.5137116,7.9487216 8.838937,7.8117144 9.0725043,7.5481515 9.3305978,7.3171367 9.7128845,7.3491464 c 0.5776415,-0.1860608 1.2677685,0.012917 1.7896735,-0.080744 0.02725,-0.2443679 0.03882,-0.6286023 0.07719,-0.1471554 0.124409,0.3832306 -0.04684,0.7111692 -0.463237,0.7205061 0.543613,0.3872087 0.361426,1.0167701 0.174491,1.5471757 C 11.163011,9.7880149 11.813108,9.13888 12.048002,9.1126368 12.455209,9.0168082 12.691991,8.8193191 12.496019,8.3770091 12.519902,7.7283336 12.093252,7.2224059 11.667471,6.7846893 11.474927,6.5734337 11.088261,6.1924271 11.52919,6.5996 c 0.33598,0.2649545 0.618568,0.6854461 0.890688,0.9583833 0.170373,-0.081942 0.726715,-0.4193145 0.275028,-0.1169413 -0.547519,0.099627 -0.06668,0.6415449 0.210037,0.1870657 0.31549,-0.1485138 0.468196,-0.91395 0.859668,-0.6038235 0.341626,0.3817941 0.66141,1.1876571 0.09848,1.4870729 -0.214895,0.1477496 -0.944235,0.3514995 -0.28576,0.4151025 0.32386,0.1118739 0.326631,0.1642049 -0.0151,0.087718 -0.602665,-0.1877898 -1.215315,-0.041749 -1.744609,0.2750768 -0.664068,0.310808 -1.294463,0.7295754 -1.802066,1.2547944 -0.1337104,0.396363 0.01541,0.663906 0.193733,0.907646 -0.15397,0.312068 0.182665,0.01745 0.18999,-0.03321 -0.05418,0.108912 0.213821,0.626654 0.191017,0.173089 0.01436,-0.137816 0.300581,-0.01543 0.244218,-0.332038 -0.01138,-0.226182 0.30007,-0.598422 0.189644,-0.158602 0.541128,0.217704 1.085405,0.470523 1.671105,0.518718 0.762125,0.211135 1.522375,-0.153667 2.252846,-0.318203 0.262347,-0.137207 0.628946,-0.250489 0.249809,0.07848 -0.236744,0.326308 -0.507215,0.228894 -0.758408,0.09977 -0.647864,0.23296 -1.359762,0.355445 -2.026342,0.120504 -1.100015,0.30761 -2.203139,0.655137 -3.3415779,0.780439 -1.1582136,0.02274 -2.3144921,0.121249 -3.4717924,0.150164 z M 6.2295499,12.014593 C 6.9294698,11.852075 7.617067,11.588637 8.3399997,11.56472 7.8511128,11.363247 7.4270076,10.778887 6.8638175,10.942124 c -0.3272978,0.08295 -0.6940572,-1.8e-4 -1.0093138,0.06562 -0.2587875,0.221842 -0.4529514,0.411683 -0.063936,0.632315 0.040835,0.273473 0.098596,0.574054 0.4389825,0.374536 z m 3.4205878,-0.03697 C 9.8386693,11.573102 9.479354,10.783036 9.5292938,10.233832 9.3427327,9.8666227 9.9098309,9.4035182 9.2751941,9.3668349 8.8713521,9.5148817 9.0479189,10.359326 9.0503044,10.800096 c 0.050443,0.402682 -0.060077,1.363618 0.5998333,1.177527 z M 9.0785355,10.563286 c 0.00162,-0.399233 0.022659,-0.137913 9.962e-4,0.09715 z m -0.5988738,1.154352 c -0.194831,-0.106148 -0.9733521,0.0052 -0.3269363,0.01925 0.060284,-0.02703 0.3916438,0.108843 0.3269363,-0.01925 z M 2.7813685,11.248347 C 3.2611991,10.982033 3.4917851,10.423983 4.0408171,10.265416 4.2471129,10.117022 5.1290185,9.9990378 4.9950343,9.8535577 4.3824141,9.9583691 3.8175187,10.291213 3.3271611,10.663999 3.1577673,10.872947 2.5863636,11.114445 2.7065941,11.299542 l 0.074775,-0.0512 z M 8.5189358,10.861148 C 8.8345961,10.758521 9.1621907,10.415565 8.9015129,10.130942 8.3765716,10.104659 9.0021705,9.1744908 8.6744917,9.2570585 8.6320344,9.5813883 8.752697,10.230402 8.3236507,9.7046317 7.9969,9.353303 8.3123032,10.218278 7.8160867,10.10044 c -0.5090673,0.122365 0.4276862,0.520644 0.53901,0.77046 0.04311,0.06144 0.1165831,0.08207 0.1638391,-0.0098 z M 2.7120432,9.000072 C 3.0314031,8.6117925 3.5252532,8.3141067 4.0342177,8.5130707 3.7679993,8.2174912 3.2082723,8.3532927 2.9416877,8.5984505 2.764072,8.6625207 2.2406084,9.4461441 2.7120432,9.000072 Z M 10.808987,8.3795912 c 0.461989,-0.1948034 -0.164044,-0.5850301 -0.434539,-0.4042304 -0.4291418,0.0029 0.441206,0.3360422 0.360738,0.4614633 l 0.07382,-0.057234 z m 0.218394,0.025959 c -0.03505,-0.071068 0.0028,-0.022985 0,0 z M 5.5802876,7.7543881 C 5.6392713,7.5153846 5.1710968,7.9655863 5.4839865,7.8397411 Z M 13.93738,11.490408 c 0.288694,-0.07386 0.557455,-0.09314 0.09688,-0.01192 l -0.09688,0.01192 z m -0.738951,-0.357336 c -0.654783,-0.127836 -1.298948,-0.321091 -1.867491,-0.68019 -0.211866,0.15855 -0.344641,0.598708 -0.184616,0.0963 0.06247,-0.6692964 0.784558,-0.363954 1.204068,-0.292319 0.368136,-0.103298 0.749815,-0.4815827 1.128828,-0.177773 0.50105,0.47796 1.103427,-0.2531017 1.645067,-0.1051262 0.328085,0.1392422 0.707964,0.4543512 0.106325,0.5241542 -0.641954,0.244189 -1.296683,0.477842 -1.958407,0.645678 l -0.07377,-0.01073 z m 0.01826,-0.703538 c -0.43597,-0.135916 -0.313234,0.02406 0,0 z M 4.8459761,10.217107 c 0.1606629,-0.156706 0.578723,-0.4619968 0.1669098,-0.124342 -0.055607,0.04105 -0.1048932,0.09263 -0.1669098,0.124342 z M 7.8612344,8.0356824 c 0.1866565,-0.017716 0.5061543,-0.00582 0.1128877,0.00191 l -0.1128877,-0.0019 z M 7.6885876,7.8559283 C 7.1173291,7.6358766 6.5210429,7.4933417 5.9701505,7.2176295 5.6837771,7.0961205 5.0353517,7.8828839 5.2874366,7.2708659 5.5797019,7.0357201 5.9468132,6.8090964 6.3124592,7.0436276 6.5800307,6.4837321 7.0546924,5.9767815 7.7040393,5.9173386 8.2143174,5.8372723 8.7366385,5.8850164 9.2412788,5.9820871 9.0877128,6.1143673 9.5763139,6.0861458 9.2125231,6.1829001 8.927263,6.2689693 9.0598809,6.4842218 9.3119018,6.3264834 9.1399209,6.6762862 10.463591,6.3874715 9.8589379,6.6556893 9.3522843,6.7154467 8.8705154,6.9177085 8.4784969,7.2504832 8.2066256,7.4368749 7.9872071,7.7288756 7.6885876,7.8559283 Z M 7.9565406,7.6294819 C 8.376758,7.3488809 8.1406104,7.3097449 7.8080232,7.5162534 7.5041361,7.5778228 7.9204946,7.8102458 7.9565406,7.6294819 Z M 6.6534196,7.0863776 C 6.8915205,6.5690598 7.4359301,6.3274596 7.984995,6.4224076 8.1454446,6.4431226 8.6679204,6.4529513 8.2076437,6.361641 7.6460423,6.2722259 6.9169478,6.289717 6.630842,6.8797427 c -0.09947,0.064743 -0.2094715,0.4271715 0.022578,0.2066349 z m 1.4853386,0.5111607 c 0.2428584,-0.202203 0.56683,-0.3760248 0.1191696,-0.074072 l -0.084501,0.055384 z M 9.2788559,5.9232068 c 0.081983,-0.3741744 0.2361838,-0.1004851 0,0 z"
         id="path983" />
      <path
         style="fill:#d4aa00;stroke-width:0.00750064"
         d="m 5.8354215,12.511007 c 0.06132,-0.0012 0.053131,-0.001 0,0 z m 0.9757229,-0.03429 c 0.036376,-0.03231 0.027095,-0.02407 0,0 z m -0.1818906,-0.0062 c 0.048861,1.09e-4 0.036072,8.1e-5 0,0 z m 0.2540021,-0.0064 c -0.062876,0.005 0.044892,-0.03362 0,0 z m -0.147118,-0.01075 c 0.047535,-0.05787 0.003,0.03596 0,0 z m -1.226797,-0.03378 c -0.046162,-0.10679 0.055855,0.04802 0,0 z m 2.4262601,-0.02867 c 0.06132,-0.0012 0.053131,-0.001 0,0 z m 0.3137916,-0.0029 c 0.048858,1.09e-4 0.036075,8.1e-5 0,0 z m -2.6803165,-0.04145 0.00307,-2.4e-4 z m 0.8895388,0.0065 c 0.045948,-0.0052 0.038267,-0.0043 0,0 z m 2.8277422,-0.01963 c 0.047535,-0.05787 0.003,0.03596 0,0 z m 0.5962735,-0.105085 c -0.030874,-0.04846 0.066904,0.03058 0,0 z m -2.1789121,-0.03743 c 0.019641,-0.04106 0.038104,0.05992 0,0 z m 0.2906523,-0.02046 0.1072636,4.2e-4 z m 2.2558182,-0.0019 c -0.01169,-0.08489 0.03726,0.01255 0,0 z m 0.158638,-0.05123 c 0.0012,-0.05032 0.03241,0.06569 0,0 z M 5.2735127,12.01091 c 0.003,-0.03596 0.047535,0.05787 0,0 z m 5.3029543,3e-4 c -0.07712,0.02721 -0.258206,-0.02772 -0.07596,-0.01222 z m 0.454107,-0.0373 c 0.0091,-0.0656 0.02628,0.02088 0,0 z M 3.4321029,11.93296 c -0.5336712,0.0047 -0.5089653,-0.55898 -0.016366,-0.629901 0.2339888,-0.12347 0.8856244,-0.655794 0.5156169,-0.129519 0.122923,0.443948 0.066918,0.802777 -0.4992508,0.75942 z m 5.6994166,-0.02332 c 0.043649,-0.06102 -0.0061,0.04518 0,0 z M 4.9462356,11.87026 c -0.033255,-0.06076 0.088678,0.02939 0,0 z M 2.2171874,11.8158 c -0.2998682,-0.259168 0.056007,-0.700663 -0.055511,-1.041242 0.2755862,-0.378423 1.056421,0.02139 0.5186168,0.350536 -0.1134376,0.232124 -0.056569,0.793321 -0.4631054,0.690706 z m 6.2686048,-0.09181 c -0.4861673,-0.338916 0.1258936,-1.390684 0.5379145,-0.976173 0.2909531,0.614995 -0.7466011,0.398108 -0.5422199,0.909704 -0.00627,0.02298 0.1133285,0.30767 0.00431,0.06647 z m -3.5910639,0.09938 0.0066,-3.38e-4 z m 0.1012586,0.0083 c 0.05475,-0.05269 0.066663,-0.06415 0,0 z m 0.1486777,-0.10669 c -0.036572,-0.05395 0.044646,-0.01292 0,0 z m 0.033252,-0.04521 c 0.061268,-0.129401 0.014257,0.05915 0,0 z m -3.3152894,-0.0207 c -0.2918188,-0.187049 0.150874,-0.234211 0,0 z M 14.746823,11.62469 c -0.01871,-0.08134 0.04498,0.04544 0,0 z M 1.5803167,11.53767 c -0.3718939,-0.02427 0.048768,-0.159073 0,0 z m 8.5537273,-7.5e-4 c -0.01891,-0.06334 0.04451,0.01609 0,0 z M 8.2747531,11.50579 c -0.016185,-0.05075 0.058825,0.04504 0,0 z m 6.2962479,-0.0014 0.0095,-0.0021 z m 0.464479,-0.0187 c 0.03007,-0.08512 0.05632,0.03124 0,0 z M 8.2112569,11.45837 c -0.051818,-0.02277 -0.036077,-0.01585 0,0 z m 1.9526721,-0.04047 -0.0117,-0.01889 z m 1.345653,-0.0053 c 0.02013,-0.0698 0.02082,0.0414 0,0 z m 0.0765,-0.02112 c 0.0541,-0.01679 0.03777,-0.01172 0,0 z M 7.9747244,11.32576 c -0.016193,-0.05076 0.058827,0.04502 0,0 z m -0.070424,-0.05054 -0.00718,-10e-4 z m 0.2449927,-0.01624 0.00306,-2.4e-4 z M 7.9259305,11.10292 c -0.1535259,-0.08845 0.1139692,0.05804 0,0 z m -2.1985788,4.6e-4 c 0.021715,-0.05613 0.043663,0.02202 0,0 z m -0.243199,-0.05483 c 0.053211,-0.06674 0.058495,0.02753 0,0 z m 0.3875341,-0.0752 c 0.18334,-0.505638 1.148274,-0.534694 1.1950679,-0.09244 -0.3731347,0.177932 -0.7997133,0.06522 -1.1950679,0.09244 z m 1.851388,-0.03344 0.00567,1.84e-4 z m -0.076924,9.6e-4 c -0.1241104,-0.09293 0.060489,0.0013 0,0 z m -1.945102,-0.02769 c 0.047752,-0.02906 0.031562,-0.0192 0,0 z m 1.9682062,-0.01425 0.00408,-0.0012 z m 2.2777995,-0.14437 0.013786,-0.0256 z m 3.0990975,-0.19677 c 0.05388,2.28e-4 0.03547,1.5e-4 0,0 z m -5.8873399,-0.0096 -9.769e-4,-0.0082 z M 3.495856,10.4637 C 3.8228168,10.123077 4.7503193,9.9885135 4.8225056,9.6932252 4.4699742,9.4113564 3.7086684,9.7562584 3.5473807,9.4156745 3.8753281,8.90405 4.6538302,9.0892133 5.0703264,9.3908695 5.5341919,10.022709 4.3726184,9.8344409 4.0900933,10.181896 3.8957638,10.28332 3.7015247,10.386674 3.495856,10.4637 Z m 9.619509,-0.0043 c -0.03805,-0.04995 0.04259,-0.0011 0,0 z m -3.010122,-0.04795 c -0.1223797,-0.272062 0.08091,-0.9715586 0.417822,-0.5430779 -0.08937,0.2104689 -0.194766,0.4451929 -0.417822,0.5430779 z m 3.63018,-0.07553 c 0.01979,-0.06659 0.112793,0.04197 0,0 z m -9.8414139,-5.43e-4 c 0.2354335,-0.125396 0.4527226,-0.161269 0.076097,-0.02572 z m 2.6321109,-0.0075 0.025273,-0.0042 z m 0.6358545,-0.05833 c 0.0347,-0.04394 0.095387,0.04491 0,0 z m 0.1019412,-0.0251 c 0.073998,-0.07213 -0.014884,0.05002 0,0 z m 3.1325383,-0.0765 c -0.0049,-0.07039 0.03532,0.013 0,0 z m 3.97534,-0.0056 0.02511,-0.0049 z m -0.02573,-0.01074 c 0.07358,-0.02361 0.08542,-0.02741 0,0 z m -4.322754,-0.13212 0.0044,0.0035 z m 10e-7,-0.060016 0.0044,0.00351 z m 0.560657,0.00375 0.0065,-2.213e-4 z m 4.512078,0.00351 c -0.01532,-0.045773 0.06837,0.070097 0,0 z m -4.445127,-0.117158 0.0075,-0.00508 z m 0.03138,-0.061624 c -0.0051,-0.1032506 0.05835,5.174e-4 0,0 z M 9.8414041,9.591952 9.851303,9.5916771 Z M 9.7622056,9.547364 c 0.019574,-0.053208 0.031619,0.013632 0,0 z m -0.01831,-0.026666 c 0.047551,-0.057796 0.00304,0.035873 0,0 z M 4.9059812,9.2022921 c 0.053211,-0.00599 0.035178,-0.00396 0,0 z m 4.3470642,-0.00811 0.00908,-6.64e-5 z m -1.1086617,-0.06151 c 0.077222,1.9e-5 0.089804,2.21e-5 0,0 z M 2.3042772,9.0251034 C 2.5031723,8.6132424 3.3615127,7.9454908 3.4957738,8.1630684 3.002762,8.2907641 2.6615132,8.6917722 2.3042772,9.0251034 Z m 2.2449819,-0.101122 c 0.031623,-0.013619 0.019565,0.053207 0,0 z M 12.55132,8.8767008 C 12.317701,8.1292 13.672407,8.5273159 13.510397,7.8591472 13.396239,7.4973708 13.689957,6.6297965 13.97192,7.3239799 c 0.46261,0.5295927 0.09271,1.3050435 -0.557539,1.4275126 -0.280217,0.083287 -0.574175,0.094724 -0.863061,0.1252083 z m -8.0884444,-0.021687 0.00384,-0.0011 z M 10.887744,8.7323845 c -0.372882,-0.2293044 0.47083,-0.4384477 0.163895,-0.019054 0.01715,0.108677 -0.141211,0.1008501 -0.163895,0.019054 z M 6.2369113,8.5999924 C 5.8517684,8.5383475 5.4463537,7.7325394 6.1314096,7.9492911 6.5389328,8.011999 6.4782688,8.4951963 6.302299,8.6609057 Z m 4.9540347,0.063755 0.0013,-0.027437 z m -0.102392,-0.1481371 0.0043,7e-7 z m -0.05626,-0.3030914 c 0.01868,-0.051459 0.0068,0.061515 0,0 z m -0.238885,-0.216568 c -0.04353,-0.066493 0.05693,-0.025542 0,0 z m -0.528938,-0.01405 c 0.02869,-0.066845 0.05345,0.022655 0,0 z m 0.6712,-0.053221 c 0.03579,-0.0084 -0.0016,0.058194 0,0 z m -0.215384,-0.00798 c -0.06076,-0.081974 0.08343,0.06643 0,0 z m 0.120574,-0.047814 0.02596,1.5e-4 z M 5.2853731,7.7436716 c -0.1640601,-0.2451396 0.2161571,0.1299793 0,0 z M 7.7449745,7.6933779 C 7.5480958,7.5472824 7.133181,7.4690701 7.5264175,7.2683631 7.7406989,6.910961 8.6011513,6.8106494 8.7203453,7.0304367 8.4569314,7.3160206 7.9117311,7.2986044 7.7449745,7.6933779 Z M 5.2185817,7.5122609 c -0.09196,-0.3406457 0.2218876,-0.1442706 0,0 z M 6.3329785,7.0527511 C 6.5615029,6.4554653 7.1137347,5.9287765 7.7805287,5.9188438 7.1933131,6.1438058 6.6146653,6.5477751 6.3329785,7.0527511 Z"
         id="path981" />
      <path
         style="fill:#ffe680;stroke-width:0.00750064"
         d="m 3.4546069,11.939543 c -0.033003,-0.0099 -0.063381,-0.01829 -0.067506,-0.01857 -0.00413,-2.82e-4 0.017814,-0.01186 0.048754,-0.02573 0.2033467,-0.09116 0.3159006,-0.197707 0.3928317,-0.371877 0.015488,-0.03507 0.038565,-0.07455 0.051281,-0.08775 l 0.02312,-0.02399 0.025707,0.04274 c 0.034065,0.05664 0.074515,0.109739 0.1257653,0.165096 l 0.04202,0.04539 -0.032212,0.01852 c -0.017717,0.01018 -0.1344772,0.07623 -0.2594684,0.146774 -0.2563975,0.144706 -0.2448994,0.141115 -0.3502926,0.109397 z m 5.2656574,-1.206371 c 0.017397,-0.01191 0.2245835,-0.133824 0.2491901,-0.14663 0.015571,-0.0081 0.016869,-0.0072 0.016778,0.01211 -9e-5,0.01907 -0.00548,0.02312 -0.06188,0.04645 -0.03398,0.01406 -0.095185,0.0419 -0.1360092,0.06188 -0.075679,0.03703 -0.094474,0.04426 -0.068079,0.02619 z M 10.11161,9.9215831 c 2.33e-4,-0.055994 0.0096,-0.099183 0.03459,-0.1592005 0.02163,-0.051977 0.01383,-0.04977 0.08748,-0.02474 l 0.036,0.012234 -0.05486,0.074801 c -0.03017,0.041141 -0.06578,0.089811 -0.07913,0.1081565 l -0.02427,0.033355 1.8e-4,-0.044606 z M 4.9355905,9.7574745 C 4.908992,9.7479611 4.8237243,9.7159967 4.7461067,9.6864426 4.5657503,9.6177692 4.3991014,9.5627047 4.332182,9.5496727 c -0.031883,-0.00621 -0.1011133,-0.0101 -0.1762651,-0.00991 -0.1317393,3.383e-4 -0.1855908,0.00831 -0.308978,0.045755 l -0.065207,0.019787 -0.07543,-0.028566 c -0.041486,-0.015711 -0.07543,-0.031081 -0.07543,-0.034155 0,-0.0089 0.1201042,-0.1180474 0.1562311,-0.1419768 C 3.957459,9.2877678 4.4408146,9.3927869 5.177868,9.702772 5.219434,9.720254 5.220475,9.721368 5.206794,9.733749 5.198604,9.741169 5.175623,9.748042 5.152426,9.750023 5.098682,9.754613 4.9937474,9.768714 4.9883066,9.772077 4.9859066,9.773557 4.9621886,9.766987 4.9355906,9.757471 Z M 13.17544,8.8227914 c -0.02063,-0.00321 -0.09151,-0.00635 -0.157514,-0.00697 -0.07303,-6.893e-4 -0.11393,-0.00359 -0.104478,-0.00742 0.04558,-0.018449 0.28948,-0.1281436 0.36963,-0.1662446 0.05095,-0.02422 0.09358,-0.044037 0.09474,-0.044037 0.0012,0 0.04554,-0.020505 0.09863,-0.045566 0.05309,-0.025061 0.113405,-0.053527 0.134032,-0.063258 0.07949,-0.037498 0.175032,-0.080861 0.234307,-0.1063408 0.14092,-0.060574 0.179351,-0.1360311 0.181572,-0.3565108 0.0016,-0.1545852 0.0088,-0.1965689 0.04679,-0.2719489 0.03302,-0.065476 0.06747,-0.1113559 0.07487,-0.099703 0.0085,0.01335 0.0077,0.1994922 -0.0014,0.3245233 -0.0098,0.1350873 -0.03414,0.3279859 -0.04683,0.3712818 -0.01199,0.040945 -0.01936,0.045741 -0.292171,0.1902669 -0.397328,0.210487 -0.555154,0.2897696 -0.574853,0.2887721 -0.01088,-5.513e-4 -0.03667,-0.00363 -0.05729,-0.00684 z M 10.820238,8.691556 c -0.02888,-0.018147 -0.05588,-0.03434 -0.06001,-0.035984 -0.0049,-0.00195 -0.0047,-0.0079 6.3e-4,-0.017096 0.0045,-0.00776 0.02263,-0.041108 0.04035,-0.074111 0.05406,-0.1006943 0.05811,-0.1059147 0.09213,-0.1185959 0.0354,-0.013198 0.148161,-0.04258 0.148161,-0.038607 0,0.00139 -0.01907,0.028892 -0.04237,0.061114 -0.04408,0.060953 -0.09991,0.170793 -0.114673,0.2256011 -0.0047,0.017463 -0.0093,0.031509 -0.01014,0.031213 -8.72e-4,-2.963e-4 -0.02521,-0.015386 -0.05409,-0.033533 z M 7.6303768,7.5868329 7.5757844,7.5588753 7.6191258,7.4890369 c 0.053627,-0.086411 0.1129618,-0.1593163 0.1536513,-0.1887914 0.03654,-0.02647 0.1030033,-0.0482 0.1967846,-0.064339 0.070461,-0.012125 0.4141128,-0.021288 0.4300066,-0.011465 0.00682,0.00422 -0.05901,0.063321 -0.1369692,0.122972 -0.00946,0.00724 -0.04628,0.018227 -0.081833,0.024427 -0.17219,0.030027 -0.3620583,0.1177156 -0.4631872,0.2139172 -0.017215,0.016376 -0.031595,0.029608 -0.031955,0.029404 -3.6e-4,-2.04e-4 -0.025221,-0.012952 -0.055247,-0.028329 z"
         id="path979" />
    </g>
  </g>
</svg>
