<?xml version="1.0" encoding="UTF-8" standalone="no"?>
<!-- Created with Inkscape (http://www.inkscape.org/) -->

<svg
   width="64"
   height="64"
   viewBox="0 0 16.933333 16.933334"
   version="1.1"
   id="svg5"
   inkscape:version="1.2 (dc2aedaf03, 2022-05-15)"
   sodipodi:docname="haricot_azuki.svg"
   xmlns:inkscape="http://www.inkscape.org/namespaces/inkscape"
   xmlns:sodipodi="http://sodipodi.sourceforge.net/DTD/sodipodi-0.dtd"
   xmlns="http://www.w3.org/2000/svg"
   xmlns:svg="http://www.w3.org/2000/svg">
  <sodipodi:namedview
     id="namedview7"
     pagecolor="#ffffff"
     bordercolor="#666666"
     borderopacity="1.0"
     inkscape:pageshadow="2"
     inkscape:pageopacity="0.0"
     inkscape:pagecheckerboard="0"
     inkscape:document-units="mm"
     showgrid="false"
     units="px"
     inkscape:zoom="11.313709"
     inkscape:cx="22.450639"
     inkscape:cy="24.837125"
     inkscape:window-width="1920"
     inkscape:window-height="1009"
     inkscape:window-x="-8"
     inkscape:window-y="-8"
     inkscape:window-maximized="1"
     inkscape:current-layer="g7772"
     inkscape:showpageshadow="0"
     inkscape:deskcolor="#d1d1d1" />
  <defs
     id="defs2">
    <pattern
       id="EMFhbasepattern"
       patternUnits="userSpaceOnUse"
       width="6"
       height="6"
       x="0"
       y="0" />
    <pattern
       id="EMFhbasepattern-5"
       patternUnits="userSpaceOnUse"
       width="6"
       height="6"
       x="0"
       y="0" />
    <pattern
       id="EMFhbasepattern-56"
       patternUnits="userSpaceOnUse"
       width="6"
       height="6"
       x="0"
       y="0" />
    <pattern
       id="EMFhbasepattern-6"
       patternUnits="userSpaceOnUse"
       width="6"
       height="6"
       x="0"
       y="0" />
    <pattern
       id="EMFhbasepattern-62"
       patternUnits="userSpaceOnUse"
       width="6"
       height="6"
       x="0"
       y="0" />
    <pattern
       id="EMFhbasepattern-8"
       patternUnits="userSpaceOnUse"
       width="6"
       height="6"
       x="0"
       y="0" />
    <pattern
       id="EMFhbasepattern-81"
       patternUnits="userSpaceOnUse"
       width="6"
       height="6"
       x="0"
       y="0" />
    <pattern
       id="EMFhbasepattern-9"
       patternUnits="userSpaceOnUse"
       width="6"
       height="6"
       x="0"
       y="0" />
    <pattern
       id="EMFhbasepattern-52"
       patternUnits="userSpaceOnUse"
       width="6"
       height="6"
       x="0"
       y="0" />
    <pattern
       id="EMFhbasepattern-0"
       patternUnits="userSpaceOnUse"
       width="6"
       height="6"
       x="0"
       y="0" />
    <pattern
       id="EMFhbasepattern-7"
       patternUnits="userSpaceOnUse"
       width="6"
       height="6"
       x="0"
       y="0" />
    <pattern
       id="EMFhbasepattern-65"
       patternUnits="userSpaceOnUse"
       width="6"
       height="6"
       x="0"
       y="0" />
    <pattern
       id="EMFhbasepattern-3"
       patternUnits="userSpaceOnUse"
       width="6"
       height="6"
       x="0"
       y="0" />
    <pattern
       id="EMFhbasepattern-90"
       patternUnits="userSpaceOnUse"
       width="6"
       height="6"
       x="0"
       y="0" />
    <pattern
       id="EMFhbasepattern-4"
       patternUnits="userSpaceOnUse"
       width="6"
       height="6"
       x="0"
       y="0" />
    <pattern
       id="EMFhbasepattern-2"
       patternUnits="userSpaceOnUse"
       width="6"
       height="6"
       x="0"
       y="0" />
    <pattern
       id="EMFhbasepattern-40"
       patternUnits="userSpaceOnUse"
       width="6"
       height="6"
       x="0"
       y="0" />
    <pattern
       id="EMFhbasepattern-74"
       patternUnits="userSpaceOnUse"
       width="6"
       height="6"
       x="0"
       y="0" />
    <pattern
       id="EMFhbasepattern-656"
       patternUnits="userSpaceOnUse"
       width="6"
       height="6"
       x="0"
       y="0" />
    <pattern
       id="EMFhbasepattern-76"
       patternUnits="userSpaceOnUse"
       width="6"
       height="6"
       x="0"
       y="0" />
    <pattern
       id="EMFhbasepattern-1"
       patternUnits="userSpaceOnUse"
       width="6"
       height="6"
       x="0"
       y="0" />
    <pattern
       id="EMFhbasepattern-42"
       patternUnits="userSpaceOnUse"
       width="6"
       height="6"
       x="0"
       y="0" />
    <pattern
       id="EMFhbasepattern-73"
       patternUnits="userSpaceOnUse"
       width="6"
       height="6"
       x="0"
       y="0" />
    <pattern
       id="EMFhbasepattern-566"
       patternUnits="userSpaceOnUse"
       width="6"
       height="6"
       x="0"
       y="0" />
    <pattern
       id="EMFhbasepattern-71"
       patternUnits="userSpaceOnUse"
       width="6"
       height="6"
       x="0"
       y="0" />
    <pattern
       id="EMFhbasepattern-31"
       patternUnits="userSpaceOnUse"
       width="6"
       height="6"
       x="0"
       y="0" />
    <pattern
       id="EMFhbasepattern-60"
       patternUnits="userSpaceOnUse"
       width="6"
       height="6"
       x="0"
       y="0" />
    <pattern
       id="EMFhbasepattern-28"
       patternUnits="userSpaceOnUse"
       width="6"
       height="6"
       x="0"
       y="0" />
    <pattern
       id="EMFhbasepattern-02"
       patternUnits="userSpaceOnUse"
       width="6"
       height="6"
       x="0"
       y="0" />
    <pattern
       id="EMFhbasepattern-57"
       patternUnits="userSpaceOnUse"
       width="6"
       height="6"
       x="0"
       y="0" />
    <pattern
       id="EMFhbasepattern-50"
       patternUnits="userSpaceOnUse"
       width="6"
       height="6"
       x="0"
       y="0" />
    <pattern
       id="EMFhbasepattern-45"
       patternUnits="userSpaceOnUse"
       width="6"
       height="6"
       x="0"
       y="0" />
    <pattern
       id="EMFhbasepattern-33"
       patternUnits="userSpaceOnUse"
       width="6"
       height="6"
       x="0"
       y="0" />
    <pattern
       id="EMFhbasepattern-21"
       patternUnits="userSpaceOnUse"
       width="6"
       height="6"
       x="0"
       y="0" />
    <pattern
       id="EMFhbasepattern-818"
       patternUnits="userSpaceOnUse"
       width="6"
       height="6"
       x="0"
       y="0" />
    <pattern
       id="EMFhbasepattern-32"
       patternUnits="userSpaceOnUse"
       width="6"
       height="6"
       x="0"
       y="0" />
    <pattern
       id="EMFhbasepattern-38"
       patternUnits="userSpaceOnUse"
       width="6"
       height="6"
       x="0"
       y="0" />
    <pattern
       id="EMFhbasepattern-39"
       patternUnits="userSpaceOnUse"
       width="6"
       height="6"
       x="0"
       y="0" />
    <pattern
       id="EMFhbasepattern-86"
       patternUnits="userSpaceOnUse"
       width="6"
       height="6"
       x="0"
       y="0" />
    <pattern
       id="EMFhbasepattern-07"
       patternUnits="userSpaceOnUse"
       width="6"
       height="6"
       x="0"
       y="0" />
    <pattern
       id="EMFhbasepattern-524"
       patternUnits="userSpaceOnUse"
       width="6"
       height="6"
       x="0"
       y="0" />
    <pattern
       id="EMFhbasepattern-508"
       patternUnits="userSpaceOnUse"
       width="6"
       height="6"
       x="0"
       y="0" />
    <pattern
       id="EMFhbasepattern-217"
       patternUnits="userSpaceOnUse"
       width="6"
       height="6"
       x="0"
       y="0" />
    <pattern
       id="EMFhbasepattern-84"
       patternUnits="userSpaceOnUse"
       width="6"
       height="6"
       x="0"
       y="0" />
    <pattern
       id="EMFhbasepattern-96"
       patternUnits="userSpaceOnUse"
       width="6"
       height="6"
       x="0"
       y="0" />
    <pattern
       id="EMFhbasepattern-48"
       patternUnits="userSpaceOnUse"
       width="6"
       height="6"
       x="0"
       y="0" />
    <pattern
       id="EMFhbasepattern-23"
       patternUnits="userSpaceOnUse"
       width="6"
       height="6"
       x="0"
       y="0" />
    <pattern
       id="EMFhbasepattern-36"
       patternUnits="userSpaceOnUse"
       width="6"
       height="6"
       x="0"
       y="0" />
    <pattern
       id="EMFhbasepattern-900"
       patternUnits="userSpaceOnUse"
       width="6"
       height="6"
       x="0"
       y="0" />
    <pattern
       id="EMFhbasepattern-37"
       patternUnits="userSpaceOnUse"
       width="6"
       height="6"
       x="0"
       y="0" />
    <pattern
       id="EMFhbasepattern-11"
       patternUnits="userSpaceOnUse"
       width="6"
       height="6"
       x="0"
       y="0" />
    <pattern
       id="EMFhbasepattern-95"
       patternUnits="userSpaceOnUse"
       width="6"
       height="6"
       x="0"
       y="0" />
    <pattern
       id="EMFhbasepattern-10"
       patternUnits="userSpaceOnUse"
       width="6"
       height="6"
       x="0"
       y="0" />
    <pattern
       id="EMFhbasepattern-909"
       patternUnits="userSpaceOnUse"
       width="6"
       height="6"
       x="0"
       y="0" />
    <pattern
       id="EMFhbasepattern-06"
       patternUnits="userSpaceOnUse"
       width="6"
       height="6"
       x="0"
       y="0" />
    <pattern
       id="EMFhbasepattern-34"
       patternUnits="userSpaceOnUse"
       width="6"
       height="6"
       x="0"
       y="0" />
    <pattern
       id="EMFhbasepattern-41"
       patternUnits="userSpaceOnUse"
       width="6"
       height="6"
       x="0"
       y="0" />
    <pattern
       id="EMFhbasepattern-82"
       patternUnits="userSpaceOnUse"
       width="6"
       height="6"
       x="0"
       y="0" />
    <pattern
       id="EMFhbasepattern-94"
       patternUnits="userSpaceOnUse"
       width="6"
       height="6"
       x="0"
       y="0" />
    <pattern
       id="EMFhbasepattern-738"
       patternUnits="userSpaceOnUse"
       width="6"
       height="6"
       x="0"
       y="0" />
    <pattern
       id="EMFhbasepattern-19"
       patternUnits="userSpaceOnUse"
       width="6"
       height="6"
       x="0"
       y="0" />
    <pattern
       id="EMFhbasepattern-342"
       patternUnits="userSpaceOnUse"
       width="6"
       height="6"
       x="0"
       y="0" />
    <pattern
       id="EMFhbasepattern-77"
       patternUnits="userSpaceOnUse"
       width="6"
       height="6"
       x="0"
       y="0" />
    <pattern
       id="EMFhbasepattern-29"
       patternUnits="userSpaceOnUse"
       width="6"
       height="6"
       x="0"
       y="0" />
    <pattern
       id="EMFhbasepattern-219"
       patternUnits="userSpaceOnUse"
       width="6"
       height="6"
       x="0"
       y="0" />
    <pattern
       id="EMFhbasepattern-105"
       patternUnits="userSpaceOnUse"
       width="6"
       height="6"
       x="0"
       y="0" />
    <pattern
       id="EMFhbasepattern-104"
       patternUnits="userSpaceOnUse"
       width="6"
       height="6"
       x="0"
       y="0" />
    <pattern
       id="EMFhbasepattern-44"
       patternUnits="userSpaceOnUse"
       width="6"
       height="6"
       x="0"
       y="0" />
    <pattern
       id="EMFhbasepattern-87"
       patternUnits="userSpaceOnUse"
       width="6"
       height="6"
       x="0"
       y="0" />
    <pattern
       id="EMFhbasepattern-93"
       patternUnits="userSpaceOnUse"
       width="6"
       height="6"
       x="0"
       y="0" />
    <pattern
       id="EMFhbasepattern-324"
       patternUnits="userSpaceOnUse"
       width="6"
       height="6"
       x="0"
       y="0" />
    <pattern
       id="EMFhbasepattern-20"
       patternUnits="userSpaceOnUse"
       width="6"
       height="6"
       x="0"
       y="0" />
    <pattern
       id="EMFhbasepattern-78"
       patternUnits="userSpaceOnUse"
       width="6"
       height="6"
       x="0"
       y="0" />
    <pattern
       id="EMFhbasepattern-313"
       patternUnits="userSpaceOnUse"
       width="6"
       height="6"
       x="0"
       y="0" />
    <pattern
       id="EMFhbasepattern-3422"
       patternUnits="userSpaceOnUse"
       width="6"
       height="6"
       x="0"
       y="0" />
    <pattern
       id="EMFhbasepattern-957"
       patternUnits="userSpaceOnUse"
       width="6"
       height="6"
       x="0"
       y="0" />
    <pattern
       id="EMFhbasepattern-75"
       patternUnits="userSpaceOnUse"
       width="6"
       height="6"
       x="0"
       y="0" />
    <pattern
       id="EMFhbasepattern-429"
       patternUnits="userSpaceOnUse"
       width="6"
       height="6"
       x="0"
       y="0" />
    <pattern
       id="EMFhbasepattern-102"
       patternUnits="userSpaceOnUse"
       width="6"
       height="6"
       x="0"
       y="0" />
    <pattern
       id="EMFhbasepattern-233"
       patternUnits="userSpaceOnUse"
       width="6"
       height="6"
       x="0"
       y="0" />
    <pattern
       id="EMFhbasepattern-18"
       patternUnits="userSpaceOnUse"
       width="6"
       height="6"
       x="0"
       y="0" />
    <pattern
       id="EMFhbasepattern-334"
       patternUnits="userSpaceOnUse"
       width="6"
       height="6"
       x="0"
       y="0" />
    <pattern
       id="EMFhbasepattern-317"
       patternUnits="userSpaceOnUse"
       width="6"
       height="6"
       x="0"
       y="0" />
    <pattern
       id="EMFhbasepattern-509"
       patternUnits="userSpaceOnUse"
       width="6"
       height="6"
       x="0"
       y="0" />
    <pattern
       id="EMFhbasepattern-657"
       patternUnits="userSpaceOnUse"
       width="6"
       height="6"
       x="0"
       y="0" />
    <pattern
       id="EMFhbasepattern-83"
       patternUnits="userSpaceOnUse"
       width="6"
       height="6"
       x="0"
       y="0" />
    <pattern
       id="EMFhbasepattern-390"
       patternUnits="userSpaceOnUse"
       width="6"
       height="6"
       x="0"
       y="0" />
    <pattern
       id="EMFhbasepattern-24"
       patternUnits="userSpaceOnUse"
       width="6"
       height="6"
       x="0"
       y="0" />
    <pattern
       id="EMFhbasepattern-63"
       patternUnits="userSpaceOnUse"
       width="6"
       height="6"
       x="0"
       y="0" />
    <pattern
       id="EMFhbasepattern-631"
       patternUnits="userSpaceOnUse"
       width="6"
       height="6"
       x="0"
       y="0" />
    <pattern
       id="EMFhbasepattern-98"
       patternUnits="userSpaceOnUse"
       width="6"
       height="6"
       x="0"
       y="0" />
    <pattern
       id="EMFhbasepattern-79"
       patternUnits="userSpaceOnUse"
       width="6"
       height="6"
       x="0"
       y="0" />
    <pattern
       id="EMFhbasepattern-489"
       patternUnits="userSpaceOnUse"
       width="6"
       height="6"
       x="0"
       y="0" />
    <pattern
       id="EMFhbasepattern-811"
       patternUnits="userSpaceOnUse"
       width="6"
       height="6"
       x="0"
       y="0" />
    <pattern
       id="EMFhbasepattern-450"
       patternUnits="userSpaceOnUse"
       width="6"
       height="6"
       x="0"
       y="0" />
    <pattern
       id="EMFhbasepattern-321"
       patternUnits="userSpaceOnUse"
       width="6"
       height="6"
       x="0"
       y="0" />
    <pattern
       id="EMFhbasepattern-371"
       patternUnits="userSpaceOnUse"
       width="6"
       height="6"
       x="0"
       y="0" />
    <pattern
       id="EMFhbasepattern-49"
       patternUnits="userSpaceOnUse"
       width="6"
       height="6"
       x="0"
       y="0" />
    <pattern
       id="EMFhbasepattern-576"
       patternUnits="userSpaceOnUse"
       width="6"
       height="6"
       x="0"
       y="0" />
    <pattern
       id="EMFhbasepattern-03"
       patternUnits="userSpaceOnUse"
       width="6"
       height="6"
       x="0"
       y="0" />
    <pattern
       id="EMFhbasepattern-795"
       patternUnits="userSpaceOnUse"
       width="6"
       height="6"
       x="0"
       y="0" />
    <pattern
       id="EMFhbasepattern-54"
       patternUnits="userSpaceOnUse"
       width="6"
       height="6"
       x="0"
       y="0" />
    <pattern
       id="EMFhbasepattern-22"
       patternUnits="userSpaceOnUse"
       width="6"
       height="6"
       x="0"
       y="0" />
    <pattern
       id="EMFhbasepattern-418"
       patternUnits="userSpaceOnUse"
       width="6"
       height="6"
       x="0"
       y="0" />
    <pattern
       id="EMFhbasepattern-26"
       patternUnits="userSpaceOnUse"
       width="6"
       height="6"
       x="0"
       y="0" />
    <pattern
       id="EMFhbasepattern-832"
       patternUnits="userSpaceOnUse"
       width="6"
       height="6"
       x="0"
       y="0" />
    <pattern
       id="EMFhbasepattern-824"
       patternUnits="userSpaceOnUse"
       width="6"
       height="6"
       x="0"
       y="0" />
    <pattern
       id="EMFhbasepattern-8182"
       patternUnits="userSpaceOnUse"
       width="6"
       height="6"
       x="0"
       y="0" />
    <pattern
       id="EMFhbasepattern-779"
       patternUnits="userSpaceOnUse"
       width="6"
       height="6"
       x="0"
       y="0" />
    <pattern
       id="EMFhbasepattern-714"
       patternUnits="userSpaceOnUse"
       width="6"
       height="6"
       x="0"
       y="0" />
    <pattern
       id="EMFhbasepattern-500"
       patternUnits="userSpaceOnUse"
       width="6"
       height="6"
       x="0"
       y="0" />
    <pattern
       id="EMFhbasepattern-839"
       patternUnits="userSpaceOnUse"
       width="6"
       height="6"
       x="0"
       y="0" />
    <pattern
       id="EMFhbasepattern-320"
       patternUnits="userSpaceOnUse"
       width="6"
       height="6"
       x="0"
       y="0" />
    <pattern
       id="EMFhbasepattern-66"
       patternUnits="userSpaceOnUse"
       width="6"
       height="6"
       x="0"
       y="0" />
    <pattern
       id="EMFhbasepattern-542"
       patternUnits="userSpaceOnUse"
       width="6"
       height="6"
       x="0"
       y="0" />
    <pattern
       id="EMFhbasepattern-88"
       patternUnits="userSpaceOnUse"
       width="6"
       height="6"
       x="0"
       y="0" />
    <pattern
       id="EMFhbasepattern-941"
       patternUnits="userSpaceOnUse"
       width="6"
       height="6"
       x="0"
       y="0" />
    <pattern
       id="EMFhbasepattern-92"
       patternUnits="userSpaceOnUse"
       width="6"
       height="6"
       x="0"
       y="0" />
    <pattern
       id="EMFhbasepattern-934"
       patternUnits="userSpaceOnUse"
       width="6"
       height="6"
       x="0"
       y="0" />
    <pattern
       id="EMFhbasepattern-30"
       patternUnits="userSpaceOnUse"
       width="6"
       height="6"
       x="0"
       y="0" />
    <pattern
       id="EMFhbasepattern-936"
       patternUnits="userSpaceOnUse"
       width="6"
       height="6"
       x="0"
       y="0" />
    <pattern
       id="EMFhbasepattern-867"
       patternUnits="userSpaceOnUse"
       width="6"
       height="6"
       x="0"
       y="0" />
    <pattern
       id="EMFhbasepattern-35"
       patternUnits="userSpaceOnUse"
       width="6"
       height="6"
       x="0"
       y="0" />
    <pattern
       id="EMFhbasepattern-9007"
       patternUnits="userSpaceOnUse"
       width="6"
       height="6"
       x="0"
       y="0" />
    <pattern
       id="EMFhbasepattern-224"
       patternUnits="userSpaceOnUse"
       width="6"
       height="6"
       x="0"
       y="0" />
    <pattern
       id="EMFhbasepattern-43"
       patternUnits="userSpaceOnUse"
       width="6"
       height="6"
       x="0"
       y="0" />
    <pattern
       id="EMFhbasepattern-04"
       patternUnits="userSpaceOnUse"
       width="6"
       height="6"
       x="0"
       y="0" />
    <pattern
       id="EMFhbasepattern-61"
       patternUnits="userSpaceOnUse"
       width="6"
       height="6"
       x="0"
       y="0" />
    <pattern
       id="EMFhbasepattern-346"
       patternUnits="userSpaceOnUse"
       width="6"
       height="6"
       x="0"
       y="0" />
    <pattern
       id="EMFhbasepattern-032"
       patternUnits="userSpaceOnUse"
       width="6"
       height="6"
       x="0"
       y="0" />
    <pattern
       id="EMFhbasepattern-769"
       patternUnits="userSpaceOnUse"
       width="6"
       height="6"
       x="0"
       y="0" />
    <pattern
       id="EMFhbasepattern-484"
       patternUnits="userSpaceOnUse"
       width="6"
       height="6"
       x="0"
       y="0" />
    <pattern
       id="EMFhbasepattern-05"
       patternUnits="userSpaceOnUse"
       width="6"
       height="6"
       x="0"
       y="0" />
  </defs>
  <g
     inkscape:label="Calque 1"
     inkscape:groupmode="layer"
     id="layer1">
    <g
       id="g4128"
       transform="translate(-0.63104184,0.12620835)">
      <g
         id="g5578"
         transform="translate(0.08924235,0.08924306)">
        <g
           id="g7501"
           transform="translate(-0.06310417,0.94656242)">
          <g
             id="g9467"
             transform="translate(-0.08924275,-0.80318511)">
            <g
               id="g10302"
               transform="translate(0.31234979,-0.04462139)">
              <g
                 id="g11479"
                 transform="translate(-0.12620833,0.06310418)">
                <g
                   id="g11873"
                   transform="translate(-0.23575769,0.66462456)">
                  <g
                     id="g12382"
                     transform="translate(-121.98459,-82.267525)">
                    <g
                       id="g13305"
                       transform="matrix(0.13266609,0,0,0.13266609,114.63867,78.215696)">
                      <g
                         id="g17429"
                         transform="translate(0.90513437,5.6640979)">
                        <g
                           id="g18595"
                           transform="translate(-3.3634362,-8.7449387)">
                          <g
                             id="g21002"
                             transform="translate(1.7082278,-2.8204445)">
                            <g
                               id="g23814"
                               transform="translate(8.7253043,-1.1218249)">
                              <g
                                 id="g24838"
                                 transform="translate(11.143454,-0.85716864)">
                                <g
                                   id="g25315"
                                   transform="translate(-3.490122,2.4929446)">
                                <g
                                   id="g27220"
                                   transform="translate(2.4678888,1.2339445)">
                                <g
                                   id="g29753"
                                   transform="translate(1.4759287,-2.3737724)">
                                <g
                                   id="g30615"
                                   transform="translate(0.92006037,1.3687834)">
                                <g
                                   id="g31433"
                                   transform="translate(-2.4678886,-1.410222)">
                                <g
                                   id="g31731"
                                   transform="translate(1.0576664,-0.70511063)">
                                <g
                                   id="g33243"
                                   transform="matrix(1.0772948,0,0,1.0772948,-7.3729128,-3.1743014)">
                                <g
                                   id="g35254"
                                   transform="translate(-2.2135012,-0.92031205)">
                                <g
                                   id="g36749"
                                   transform="translate(-0.98178042,-2.7817105)">
                                <g
                                   id="g37297"
                                   transform="translate(-6.7755742,-3.5033798)">
                                <g
                                   id="g38955"
                                   transform="matrix(1.2171094,0,0,1.2171094,-23.105122,-18.212482)">
                                <g
                                   id="g39618"
                                   transform="translate(-0.26888273,-0.26888316)">
                                <g
                                   id="g40032"
                                   transform="translate(-1.90129,-3.042064)">
                                <g
                                   id="g40543"
                                   transform="translate(0.3802582,-2.0914191)">
                                <g
                                   id="g41372"
                                   transform="translate(1.9657652,-7.9304203)">
                                <g
                                   id="g43278"
                                   transform="translate(1.5210324,-0.38025789)">
                                <g
                                   id="g44210"
                                   transform="matrix(1.1578947,0,0,1.1578947,-18.904476,-21.776183)">
                                <g
                                   id="g44833"
                                   transform="matrix(1.1196819,0,0,1.1196819,-12.538538,-14.547543)">
                                <g
                                   id="g47597"
                                   transform="translate(3.1109352,-1.2443743)">
                                <g
                                   id="g48754"
                                   transform="translate(-2.9035392,-6.6366609)">
                                <g
                                   id="g234"
                                   transform="matrix(0.04089637,0,0,0.04089637,104.63967,119.67231)">
                                <g
                                   id="g2138"
                                   transform="translate(-86.211222,-40.569988)">
                                <g
                                   id="g2696"
                                   transform="translate(-124306.44,-9412.2373)">
                                <g
                                   id="g3765"
                                   transform="translate(25.356243,-50.712489)">
                                <g
                                   id="g4557"
                                   transform="translate(46.61688,-35.859142)">
                                <g
                                   id="g5244"
                                   transform="translate(7.1718407,14.343658)">
                                <g
                                   id="g5807"
                                   transform="translate(-5.1984397,-21.113724)">
                                <g
                                   id="g6945"
                                   transform="translate(-10.142522,-243.41993)">
                                <g
                                   id="g11108"
                                   transform="translate(18.189368,-37.636113)">
                                <g
                                   id="g15049"
                                   transform="translate(-65.926228,141.99496)">
                                <g
                                   id="g19861"
                                   transform="matrix(0.07356842,0,0,0.07356842,115423.38,9039.2311)">
                                <g
                                   id="g20437"
                                   transform="translate(-478.38824,-785.88156)">
                                <g
                                   id="g21032"
                                   transform="translate(2047.1878,-1072.3367)">
                                <g
                                   id="g21869"
                                   transform="matrix(0.04321578,0,0,0.04321578,117368,10137.003)">
                                <g
                                   id="g25455"
                                   transform="translate(154741.46,-87178.414)">
                                <g
                                   id="g26278"
                                   transform="translate(-18012.371,-8233.4417)">
                                <g
                                   id="g27240"
                                   transform="translate(-0.00447131,5582.7624)">
                                <g
                                   id="g28306"
                                   transform="translate(-15790.441,-2255.7767)">
                                <g
                                   id="g33735"
                                   transform="translate(14662.549,-16918.328)">
                                <g
                                   id="g37868"
                                   transform="translate(-5075.4976,25941.433)">
                                <g
                                   id="g76752"
                                   transform="matrix(-1,0,0,1,9442.3174,-1595.0746)">
                                <g
                                   id="g82459"
                                   transform="translate(3383.6668,-1127.8885)">
                                <g
                                   id="g83208"
                                   transform="matrix(0.20332428,0,0,0.20332428,-15348.528,66747.475)">
                                <g
                                   id="g83934"
                                   transform="matrix(-1,0,0,1,240692.18,94139.78)">
                                <g
                                   id="g84550"
                                   transform="translate(-8.7627443e-5,55472.344)">
                                <g
                                   id="g9096"
                                   transform="translate(31379.925,-62759.843)">
                                <g
                                   id="g11527"
                                   transform="translate(61019.625,105397.54)">
                                <g
                                   id="g13422"
                                   transform="translate(-44377.907,44377.908)">
                                <g
                                   id="g1137"
                                   transform="translate(-3.3240812e-4,138680.92)">
                                <g
                                   id="g3632"
                                   transform="translate(177511.65,-22188.943)">
                                <g
                                   id="g5936"
                                   transform="translate(11767.473,-47069.909)">
                                <g
                                   id="g7318">
                                <g
                                   id="g11619"
                                   transform="translate(27457.436,-223581.94)" />
                                <g
                                   id="g11985"
                                   transform="translate(70604.821,-133364.68)">
                                <g
                                   id="g12707"
                                   transform="matrix(1.186974,0,0,1.186974,95904.637,-164033.62)">
                                <g
                                   id="g4721"
                                   transform="matrix(-1,0,0,1,-561251.4,-59483.037)">
                                <g
                                   id="g7072">
                                <g
                                   id="g10426"
                                   transform="translate(66928.962,-211126.69)">
                                <g
                                   id="g1231"
                                   transform="translate(-14020.287,4673.4667)">
                                <g
                                   id="g2516"
                                   transform="matrix(1.1495428,0,0,1.1495428,-144709.4,-78762.736)">
                                <g
                                   id="g3795"
                                   transform="translate(-22559.428,121623.52)">
                                <g
                                   id="g5627"
                                   transform="translate(-106364.63,2874.7178)">
                                <g
                                   id="g6621"
                                   transform="translate(-12196.407,40654.68)">
                                <g
                                   id="g7772"
                                   transform="translate(28747.2,74742.673)">
                                <path
                                   style="fill:#fde6b4;stroke-width:3377.69"
                                   d="M -6121.0514,1093664.5 C 250521.61,1060817.1 476113.69,922579.34 621879.11,708840.05 695875.62,600337.2 743701.7,478315.35 766181.56,340671.64 c 4312.94,-26408.08 6045.58,-55228.33 5990.35,-99641.91 -90.58,-72833.06 -4627.19,-95038.92 -30323.92,-148429.926 -35984.51,-74766.289 -88763.34,-126873.907 -164267.43,-162178.386 -49178.62,-22995.123 -77094.7,-28631.714 -141223.99,-28514.947 -46228.2,84.105 -60152.84,1325.71 -81657.15,7280.581 -61217.35,16951.96 -111387.59,45385.842 -153919.96,87233.8558 L 176209.18,20595.825 150064.63,-5523.528 C 92875.785,-62657.185 24058.354,-94252.317 -63275.616,-103471.22 c -21217.477,-2239.71 -46916.684,-6244.34 -57109.334,-8899.2 -29472.83,-7676.69 -64371.44,-27993.44 -90086.45,-52445.15 -41907.4,-39848.59 -59568.47,-78498.37 -67681.85,-148115.83 -6793.93,-58296.09 -15359.96,-89893.53 -35248.55,-130021.46 -43983.96,-88743.61 -125307.67,-154069.98 -221241.41,-177720.64 -39373.38,-9706.77 -97301.84,-11835.7 -136363.97,-5011.53 -70987.33,12401.51 -128991.99,42812.65 -181158.58,94979.26 -71150.3,71150.31 -103061.79,154199.87 -98611.95,256637.5 11213.43,258139.357 142627.9,505680.15 352586.61,664155 65121.42,49153.02 153183.93,97848.49 225245.7,124552.93 l 38613.19,14309.18 -21529.3,28216.73 c -25074.3,32862.85 -44685.21,71740.93 -57766.2,114519.87 -8637.97,28248.85 -9293.21,34580.47 -9263.25,89508.83 37.83,69569.54 4660.74,91277.6 31323.97,147094.66 27758.65,58110.18 63703.94,99631.27 116886.75,135017.87 74051.5,49272.1 156398.37,64713.1 268559.1886,50357.7 z"
                                   id="path7778" />
                                <path
                                   style="fill:#aa0000;stroke-width:3377.69"
                                   d="m -39897.969,1096917.6 c 79326.341,-9441 112548,-15697.2 170573.439,-32122.1 C 337327.31,1006300 522542.31,866972.4 638653.68,682670 716744.26,558717.66 765754.69,404911.52 772975.24,261137.77 778060.43,159882.92 747507.53,74385.567 681457.41,5039.8991 c -18479,-19401.0231 -56084.53,-51113.9681 -60611.44,-51113.9681 -988.22,0 -9083.47,-4291.898 -17989.44,-9537.521 -49305.9,-29041.326 -102818.96,-42667.543 -166499.96,-42396.483 -63822.02,271.566 -109363.54,11694.683 -162129.2,40666.26 -28060.38,15406.869 -43087.9,26947.53 -73676.78,56581.37082 L 175850.34,23168.613 162460.96,7433.703 C 132867.42,-27344.059 73283.889,-66949.285 26170.56,-83158.659 L 6530.1945,-89915.934 -13097.91,-71743.784 c -41005.651,37964.006 -82410.14,55904.887 -135314.83,58632.981 -59523.94,3069.443 -110370.8,-14679.483 -152410.67,-53201.382 -89441.48,-81956.855 -93723.18,-216747.965 -9604.43,-302354.725 l 18262.77,-18585.82 -4244.61,-14339.3 c -6494.52,-21940.05 -32622.29,-70665.63 -50617.14,-94395.79 -47752.46,-62972.13 -120319.5,-109255 -197885.42,-126210.3 -42643.42,-9321.51 -109114.3,-7895.67 -151867.47,3257.65 -120222.86,31363.38 -212022.75,123138.86 -243685.64,243620.77 -20839.17,79296.18 -5366.1,219541.78 38188.36,346134.09 68306.21,198533.8 209692.24,370072.82 393674.5,477632.3 44629.14,26091.05 109135.52,56704.52 147009.54,69767.92 l 31273.85,10786.86 -12812.97,13921.22 c -54265.42,58959.1 -86126.95,153191.73 -80653.34,238537.73 6464.6,100797.79 54101.07,189978.78 133938.25,250747.98 28711.56,21854.2 82225.55,47492.3 118219.21,56637.7 28070,7132.2 101709.901,11644.4 131729.981,8071.5 z M -68238.56,511339.65 c -35567.26,-9096.56 -68429.16,-27145.02 -93881.96,-51561.95 l -21329.35,-20461.31 18577.3,-4466.97 c 10217.52,-2456.79 33958.78,-6063.9 52758.37,-8015.8 69819.894,-7249.07 105845.7462,-23210.55 148372.642,-65737.48 42544.73,-42544.7 57993.076,-77534.17 65687.088,-148776.79 2006.28,-18577.3 5565.96,-42136.7 7910.42,-52354.22 l 4262.61,-18577.3 18411.53,19013.16 c 63714.99,65796.96 78058.42,159893.34 36906.15,242113.05 -43675.01,87260 -143421.526,132931.52 -237674.8,108825.61 z"
                                   id="path7776" />
                                <path
                                   style="fill:#800000;stroke-width:3377.69"
                                   d="M -33142.586,1095307.7 C 177221.21,1074308.2 363794.94,986119.16 512539.53,837376.56 604689.86,745227.45 666985.01,650059.19 714829.5,528338.33 c 40133.36,-102103 65560.96,-250681.14 56316.41,-329067 C 760775.92,111342.72 714685.1,27281.223 648125.67,-25095.833 c -30086.68,-23675.863 -30727.29,-23679.815 -17809.86,-109.775 28322.9,51679.968 41367.35,113745.494 37974.75,180683.848 -10181.64,200890.62 -91602.89,395215 -229548.89,547853.91 -155005.66,171515.61 -378818.106,278175.45 -608101.09,289796.09 -66135.21,3351.89 -129464.13,-9759.37 -180403.7,-37349.71 l -21072.51,-11413.49 5872.89,9997.47 c 3230.09,5498.61 16114.73,21126.58 28632.53,34728.81 76125.3,82720.28 178672.94,118645.98 303187.624,106216.38 z M -324830.39,520827.45 c 14279.4,-15818.37 62325.24,-48801.02 90715.14,-62274.36 39520.25,-18755.65 71013.91,-27221.57 124419.21,-33445.54 24708.115,-2879.55 53599.877,-8590.62 66955.237,-13235.14 C 16173.572,391384 66471.659,341225.89 86842.416,282649.82 91456.377,269382.31 97220.814,240240 100125.12,215498.44 c 2822.1,-24041.26 8298.45,-55111.1 12169.69,-69044.08 8861.37,-31893.07 29027.41,-75189.139 46865.14,-100618.564 7555.15,-10770.649 13736.66,-21147.29 13736.66,-23059.198 0,-4292.506 -52225.16,-55367.901 -65147.67,-63713.367 C 96695.515,-48075.183 99280.564,-50398.663 69830.739,-6855.5546 34595.841,45241.119 10598.118,106804.79 2170.27,166720.51 c -2743.80039,19506.17 -6354.992,44963.09 -8024.9228,56570.9 -3832.8695,26643 -13819.2852,47384.93 -31165.4212,64731.07 -21495.124,21495.12 -44035.914,30325.9 -87849.506,34416.72 -83312.42,7778.79 -163222.36,37971.17 -227626.2,86004.07 -22965.67,17127.97 -79216.8,72043.09 -79209.74,77328.44 6.75,3837.33 21790.77,13468.65 69720.52,30823.02 l 30881.77,11181.65 z"
                                   id="path7774" />
                                </g>
                                </g>
                                </g>
                                </g>
                                </g>
                                </g>
                                </g>
                                </g>
                                </g>
                                </g>
                                </g>
                                </g>
                                </g>
                                </g>
                                </g>
                                </g>
                                </g>
                                </g>
                                </g>
                                </g>
                                </g>
                                </g>
                                </g>
                                </g>
                                </g>
                                </g>
                                </g>
                                </g>
                                </g>
                                </g>
                                </g>
                                </g>
                                </g>
                                </g>
                                </g>
                                </g>
                                </g>
                                </g>
                                </g>
                                </g>
                                </g>
                                </g>
                                </g>
                                </g>
                                </g>
                                </g>
                                </g>
                                </g>
                                </g>
                                </g>
                                </g>
                                </g>
                                </g>
                                </g>
                                </g>
                                </g>
                                </g>
                                </g>
                                </g>
                                </g>
                                </g>
                                </g>
                                </g>
                              </g>
                            </g>
                          </g>
                        </g>
                      </g>
                    </g>
                  </g>
                </g>
              </g>
            </g>
          </g>
        </g>
      </g>
    </g>
  </g>
</svg>
