<?xml version="1.0" encoding="UTF-8" standalone="no"?>
<svg
   width="64"
   height="64"
   version="1.1"
   viewBox="0 0 16.933 16.933"
   id="svg146"
   sodipodi:docname="homard.svg"
   inkscape:version="1.2 (dc2aedaf03, 2022-05-15)"
   xml:space="preserve"
   xmlns:inkscape="http://www.inkscape.org/namespaces/inkscape"
   xmlns:sodipodi="http://sodipodi.sourceforge.net/DTD/sodipodi-0.dtd"
   xmlns="http://www.w3.org/2000/svg"
   xmlns:svg="http://www.w3.org/2000/svg"><defs
     id="defs150"><pattern
       id="EMFhbasepattern"
       patternUnits="userSpaceOnUse"
       width="6"
       height="6"
       x="0"
       y="0" /><pattern
       id="EMFhbasepattern-1"
       patternUnits="userSpaceOnUse"
       width="6"
       height="6"
       x="0"
       y="0" /><pattern
       id="EMFhbasepattern-4"
       patternUnits="userSpaceOnUse"
       width="6"
       height="6"
       x="0"
       y="0" /><pattern
       id="EMFhbasepattern-0"
       patternUnits="userSpaceOnUse"
       width="6"
       height="6"
       x="0"
       y="0" /><pattern
       id="EMFhbasepattern-5"
       patternUnits="userSpaceOnUse"
       width="6"
       height="6"
       x="0"
       y="0" /><pattern
       id="EMFhbasepattern-8"
       patternUnits="userSpaceOnUse"
       width="6"
       height="6"
       x="0"
       y="0" /></defs><sodipodi:namedview
     id="namedview148"
     pagecolor="#ffffff"
     bordercolor="#666666"
     borderopacity="1.0"
     inkscape:pageshadow="2"
     inkscape:pageopacity="0.0"
     inkscape:pagecheckerboard="0"
     showgrid="false"
     inkscape:zoom="28.963094"
     inkscape:cx="25.342597"
     inkscape:cy="21.061286"
     inkscape:window-width="1920"
     inkscape:window-height="1009"
     inkscape:window-x="-8"
     inkscape:window-y="-8"
     inkscape:window-maximized="1"
     inkscape:current-layer="g3162"
     inkscape:showpageshadow="0"
     inkscape:deskcolor="#d1d1d1" /><g
     transform="translate(-.63104 .12621)"
     id="g144"><g
       transform="translate(.089242 .089243)"
       id="g142"><g
         transform="translate(-.063104 .94656)"
         id="g140"><g
           transform="translate(-.089243 -.80319)"
           id="g138"><g
             transform="translate(.31235 -.044621)"
             id="g136"><g
               transform="translate(-.12621 .063104)"
               id="g134"><g
                 transform="translate(-.23576 .66462)"
                 id="g132"><g
                   transform="translate(-121.98 -82.268)"
                   id="g130"><g
                     transform="matrix(.13267 0 0 .13267 114.64 78.216)"
                     id="g128"><g
                       transform="translate(.90513 5.6641)"
                       id="g126"><g
                         transform="translate(-3.3634 -8.7449)"
                         id="g124"><g
                           id="g2243"
                           transform="matrix(1.1930023,0,0,1.1930023,-33.651497,-20.118288)"><g
                             id="g2622"
                             transform="translate(-3.5913905,-3.2649007)"><g
                               id="g3762"
                               transform="translate(-4.1555401,0.11543139)"><g
                                 id="g14682"
                                 transform="translate(0.92345349,1.1543167)"><g
                                   id="g14733"
                                   transform="translate(-4.2443703,-2.6119205)"><g
                                   id="g3012"
                                   transform="translate(-1.3851797,-4.3864029)"><g
                                   id="g3162"
                                   transform="matrix(0.07410988,0,0,0.07410988,140.44656,92.602306)"><path
                                   style="fill:#fd672f;stroke-width:2.22884"
                                   d="M -1.9361982,682.3439 C -61.895668,658.43177 -47.40244,577.10573 -21.858464,532.17717 -17.3301,501.67352 43.913906,475.92708 4.8737571,450.8694 -20.7587,431.44053 -17.24056,344.11834 -47.117969,409.00766 c -16.123488,22.13665 -49.233056,103.93145 -70.857131,49.44213 4.25265,-65.29573 42.721018,-121.67469 75.548611,-176.3179 -6.63916,-28.96705 -7.765926,-65.54269 -38.171461,-26.5418 -40.75164,23.75367 -56.7208,96.98326 -103.27271,99.23729 -21.2225,-48.48962 26.0773,-95.703 49.04837,-136.27629 13.41774,-35.7557 64.072127,-57.7214 72.152184,-87.16417 -1.579229,-59.017592 -59.971704,-9.56522 -85.027214,10.29133 -42.90321,33.47187 -61.43687,86.90975 -96.39164,126.6451 -51.36514,-8.34531 -6.77385,-83.37574 6.42565,-114.81892 28.0843,-56.610003 66.34862,-124.616722 137.42828,-128.177525 47.624218,0.15235 -22.62118,-58.02695 -27.42246,-81.619156 -20.63487,-32.667545 -41.6109,-65.117879 -62.77455,-97.444929 -42.01597,3.35816 -84.3797,-10.26777 -112.34799,-43.15759 -39.46303,-46.95511 -69.57746,-108.87658 -63.05904,-171.51693 35.47189,-59.88938 73.33954,56.37211 119.67762,33.12987 55.86635,-20.81606 -24.08812,-127.76882 50.83173,-117.13516 60.32261,38.37966 96.797594,110.55764 101.825711,180.91957 -2.343539,45.9895 -40.524841,84.59982 5.438946,122.63181 62.639061,75.099658 49.610566,-24.47127 61.209654,-70.58864 16.187428,-45.70083 65.612887,-17.92001 79.818931,7.44187 43.221629,-20.7314 94.452568,20.43736 119.290778,-28.63621 54.23283,-22.45798 61.9011,51.62429 43.96776,82.8711 21.32936,19.40126 32.91009,87.384491 53.63938,31.38682 12.49504,-24.39698 35.7269,-48.89235 43.05939,-73.17224 -48.3861,-63.56854 -13.5494,-150.25575 28.73024,-207.01861 17.22086,-47.47368 105.30395,-71.40108 82.04001,2.59848 -27.00838,53.08364 40.68109,102.17607 74.23234,45.82503 23.18594,-43.62643 80.73434,-30.02237 64.89408,22.06436 -11.1282,70.70052 -49.14822,145.5757 -117.04334,176.0764 -21.4023,14.88365 -58.93636,-9.03387 -68.93713,20.55979 -33.29543,53.689462 -69.87327,105.530833 -100.32733,160.834465 53.28933,1.844523 106.78754,34.541815 131.50149,85.068765 24.03196,46.66729 59.57374,94.80256 53.99123,149.79492 -33.93504,38.53238 -56.19271,-52.25975 -80.64788,-72.71427 -23.71337,-31.61276 -82.31678,-97.588914 -116.81057,-71.64613 -20.94021,47.20308 42.10099,72.02194 70.78127,112.47928 22.57018,37.35716 56.34277,78.10614 48.713,124.11667 -45.14547,23.22839 -65.09213,-70.38275 -104.32422,-89.86091 -19.63231,-23.3596 -27.15971,-12.842 -36.5058,6.17593 -13.32201,31.2839 26.34064,53.61423 33.72065,82.74919 14.52124,34.76364 66.6684,113.33639 14.14393,130.38937 -29.33551,-29.3208 -44.3266,-70.11499 -71.26045,-101.81668 1.36862,37.20278 -28.15132,70.7579 -43.82513,96.21542 43.11191,49.11953 84.37556,121.90252 52.02999,186.70969 -33.3391,49.96238 -109.14826,17.81856 -124.3857,-31.89763 -11.412468,-30.94478 -23.164499,47.21644 -51.184954,46.3374 -16.271847,8.94844 -36.062294,14.09214 -54.3827542,8.86588 z"
                                   id="path3170"
                                   sodipodi:nodetypes="ccccccccccccccccccccccccccccccccccccccccccccccccccc" /><path
                                   style="fill:#f64b24;stroke-width:2.22884"
                                   d="m 64.770007,553.56794 c -38.758837,-1.921 -95.705543,-69.1381 -32.645996,-77.49011 32.145632,20.1856 72.173979,33.85034 106.807749,12.7361 41.9599,-43.15951 80.78158,32.75866 25.10311,48.77267 -28.86213,20.1335 -65.475787,24.72615 -99.264863,15.98134 z M -109.46945,475.2115 c -22.66502,-51.68737 20.788244,-100.20513 39.277292,-146.10236 5.569575,-26.01009 40.919572,-54.37645 45.656046,-10.5107 49.684258,89.12308 197.812972,88.77569 245.415422,-2.00898 24.80342,-62.14192 46.59724,24.51633 63.00415,46.74269 12.28082,28.80585 53.97356,100.55129 5.96648,109.07644 -31.87639,-21.876 -58.67524,-98.99739 -73.30502,-104.30612 -21.43486,44.76927 -77.21632,66.90408 -125.401757,65.77544 -47.033045,-1.76908 -99.2879074,-28.67631 -114.937675,-74.80586 -8.399233,42.09368 -43.44999,71.66524 -62.091758,109.09608 -5.166623,7.2105 -15.17145,12.73328 -23.58318,7.04337 z m -75.22873,-123.91617 c -13.27061,-55.33412 32.49613,-100.72281 59.85816,-143.69603 17.7416,-43.25855 74.068405,-86.46077 88.630925,-18.20039 33.2023329,45.31535 83.201597,87.50488 143.236595,80.14196 52.16869,-3.44663 99.8977,-37.36256 125.54071,-81.39411 5.6832,-40.94732 45.96232,-52.64139 63.60453,-12.67006 37.3293,45.20776 74.13662,93.86187 88.56145,151.75759 11.96432,65.21736 -62.99095,4.48659 -74.63435,-37.89868 C 289.86952,264.08868 248.6474,234.29872 242.18071,217.22752 210.12103,285.52903 128.13705,341.18776 52.117253,310.73774 3.9282706,299.70957 -38.65297,233.38016 -50.722643,210.32354 c -5.533704,48.6977 -71.924157,67.18581 -90.686747,114.60289 -11.23316,9.78479 -25.06656,45.6518 -43.28879,26.3689 z M 244.59966,196.2737 c -4.79285,-3.55011 3.2762,13.85038 0,0 z m -505.22403,68.41463 c -18.54266,-58.88896 28.02683,-110.0512 50.63876,-160.56358 26.12032,-44.938992 74.01158,-83.943278 128.681111,-79.050354 10.708459,41.63158 11.291368,90.446894 -42.253341,95.791184 -56.61935,34.31665 -81.53697,99.0203 -122.4294,147.67572 -4.92176,2.89773 -11.62881,0.82617 -14.63713,-3.85297 z m 696.0022,-1.68877 c -37.70656,-54.97622 -68.7081,-121.85041 -132.7554,-150.88522 -47.14627,2.53602 -42.61096,-98.626066 1.18998,-85.928612 64.98297,10.046 102.40657,71.405426 128.04368,125.906762 13.57081,19.18974 60.30119,135.16521 3.52174,110.90707 z m -535.5419,-277.527768 c -33.03364,-43.835407 -59.26514,-108.286942 -95.00198,-140.031792 -65.90097,6.19799 -120.40286,-43.97034 -145.31181,-100.91279 -15.23992,-26.2068 -35.44355,-97.54745 -19.62118,-102.92272 20.28794,43.42465 38.32771,91.08883 79.7499,119.18512 46.98685,36.57762 118.59069,29.08233 157.34266,-16.00294 17.06801,-11.177 30.244824,-70.50644 28.877722,-22.57622 0.455166,33.81807 7.875006,57.45928 -16.278712,81.49197 11.910932,39.00111 26.309836,51.46623 40.692492,71.58382 16.619592,41.337751 -5.196364,100.863335 -15.696378,133.3329497 -6.602941,-6.5628493 -9.43672,-15.6680221 -14.752714,-23.1473977 z m 375.60718,12.2959472 c 5.25198,-39.8823092 -38.08022,-82.2094462 -8.85927,-117.6150292 14.4153,-26.42523 41.46834,-79.77911 45.9925,-76.17838 -19.99352,-28.96868 -35.54219,-88.74299 -14.60661,-94.77275 25.04496,79.85516 145.02672,101.01601 196.92231,35.26062 32.25411,-24.29845 53.39869,-95.85456 65.87309,-107.85659 3.59579,81.49762 -42.08127,166.80335 -116.2554,202.81387 -11.80706,19.59151 -44.41049,-18.32026 -87.22273,51.40322 -28.87534,37.869261 -47.52608,83.718259 -80.564,118.3573907 -0.50328,-3.7956357 -0.9014,-7.6026101 -1.27989,-11.4123515 z M 4.8579713,-144.66318 c -57.9555423,-13.53549 -38.0436293,-128.52751 24.1899077,-92.61386 35.156765,23.27352 28.233612,102.8676 -24.1899077,92.61386 z m 170.1929287,0.4449 c -67.1937,-18.43936 -8.90043,-143.83321 42.77422,-84.67212 20.58778,30.97713 0.27316,91.18708 -42.77422,84.67212 z"
                                   id="path3168"
                                   sodipodi:nodetypes="ccccccccccccccccccccccccccccccccccccccccccccccccccccccccccccccccccccc" /><path
                                   style="fill:#d73c23;stroke-width:2.22884"
                                   d="m -62.901494,373.79989 c -15.779734,-28.91553 0.269047,-77.48432 22.524577,-83.28177 23.567462,29.96087 26.375082,71.87446 3.660374,103.29434 -22.947829,37.5312 -20.540173,1.06051 -26.184951,-20.01257 z m 297.523374,21.22145 c -22.4898,-29.99199 -23.40858,-71.13854 -0.57055,-100.96265 18.8721,-8.95293 42.10764,46.65584 26.93735,69.01521 -7.60706,17.69563 -3.41582,78.96669 -26.3668,31.94744 z M -89.019875,257.89465 c -8.99302,-36.45856 -35.841935,-84.46333 13.058331,-106.44872 46.998877,-13.34327 32.117631,76.64737 7.448476,95.91944 -5.831064,3.21552 -14.697058,11.54435 -20.506807,10.52928 z m 368.933655,-0.92597 c -37.05158,-17.49418 -43.72452,-63.86579 -32.98699,-99.34313 37.95434,-29.54766 71.48418,41.11778 45.29162,73.14796 -5.17418,6.57195 -1.15345,26.11173 -12.30463,26.19517 z M -129.06861,106.69807 c -3.76592,-36.141164 -19.79557,-90.652934 35.298563,-81.247636 27.906471,-2.459195 8.577286,50.947378 19.394327,71.963055 -16.692193,-0.05595 -58.50344,44.117311 -54.69289,9.284581 z m 435.66763,7.35408 c -51.00149,-6.4679 -32.36715,-55.836236 -26.8745,-89.393941 34.67969,-3.447895 60.46417,10.230066 48.22479,47.745741 -4.83205,14.588423 5.88786,67.50799 -21.35029,41.6482 z m -407.3203,-129.310503 c -27.4822,-25.734588 -15.86384,-64.504314 -0.6914,-93.071697 9.01867,-59.32534 60.184012,6.39845 35.90564,35.188248 -10.780008,23.9854 -11.754932,73.86836624 -18.318543,84.280764 -5.631899,-8.7991053 -11.263798,-17.5982101 -16.895697,-26.397315 z M 276.5097,7.4149116 c 3.87274,-41.2726436 -28.57135,-81.6469866 -14.57129,-120.6944316 11.33118,-19.86503 23.14726,-40.87395 30.08551,-7.28581 24.82735,42.641527 31.03342,90.423079 -9.35971,126.4842736 -6.37064,13.9850354 -5.46435,5.2480784 -6.15451,1.495968 z M 4.8579713,-144.66318 c -41.3678123,-12.07664 -50.1736833,-88.06751 -4.38370735,-99.0243 53.06538205,-8.06378 71.07573405,82.29967 22.05253805,99.36674 -5.736499,0.37241 -12.081132,2.20541 -17.6688307,-0.34244 z m 170.1929287,0.4449 c -50.70896,-14.452 -32.72222,-108.54349 20.56807,-99.56615 52.02578,11.06427 31.78569,109.0349 -20.56807,99.56615 z"
                                   id="path3166" /><path
                                   style="fill:#433e42;stroke-width:2.22884"
                                   d="m -1.0221737,-147.42678 c -3.7003852,-1.61237 -10.0361713,-6.6994 -14.0795533,-11.30456 -22.63972,-25.78521 -19.055814,-69.42151 6.7998312,-82.792 10.238684,-5.29463 28.2741588,-3.26394 38.1911318,4.3001 19.150027,14.60645 26.683547,51.58814 14.821221,72.7567 -10.149976,18.11283 -28.003354,24.76491 -45.7326307,17.03976 z m 169.4331837,0.6409 c -23.09411,-13.41393 -29.94275,-45.01503 -15.80298,-72.91851 8.25121,-16.28296 20.67694,-24.9141 35.86735,-24.9141 22.71496,0 37.02578,17.54859 37.18762,45.60115 0.10386,18.01444 -8.22576,36.49376 -21.01142,46.61365 -9.31147,7.37006 -28.18646,10.29594 -36.24057,5.61781 z"
                                   id="path3164" /></g></g></g></g></g></g></g></g></g></g></g></g></g></g></g></g></g></g></svg>
