<?xml version="1.0" encoding="UTF-8" standalone="no"?>
<!-- Created with Inkscape (http://www.inkscape.org/) -->

<svg
   width="64"
   height="64"
   viewBox="0 0 16.933333 16.933334"
   version="1.1"
   id="svg5"
   inkscape:version="1.2 (dc2aedaf03, 2022-05-15)"
   sodipodi:docname="jambonneau.svg"
   xml:space="preserve"
   xmlns:inkscape="http://www.inkscape.org/namespaces/inkscape"
   xmlns:sodipodi="http://sodipodi.sourceforge.net/DTD/sodipodi-0.dtd"
   xmlns="http://www.w3.org/2000/svg"
   xmlns:svg="http://www.w3.org/2000/svg"><sodipodi:namedview
     id="namedview7"
     pagecolor="#ffffff"
     bordercolor="#666666"
     borderopacity="1.0"
     inkscape:pageshadow="2"
     inkscape:pageopacity="0.0"
     inkscape:pagecheckerboard="0"
     inkscape:document-units="mm"
     showgrid="false"
     units="px"
     inkscape:zoom="16"
     inkscape:cx="20.625"
     inkscape:cy="31.5625"
     inkscape:window-width="1920"
     inkscape:window-height="1009"
     inkscape:window-x="-8"
     inkscape:window-y="-8"
     inkscape:window-maximized="1"
     inkscape:current-layer="g16324"
     inkscape:showpageshadow="0"
     inkscape:deskcolor="#d1d1d1" /><defs
     id="defs2"><pattern
       id="EMFhbasepattern"
       patternUnits="userSpaceOnUse"
       width="6"
       height="6"
       x="0"
       y="0" /><pattern
       id="EMFhbasepattern-5"
       patternUnits="userSpaceOnUse"
       width="6"
       height="6"
       x="0"
       y="0" /><pattern
       id="EMFhbasepattern-56"
       patternUnits="userSpaceOnUse"
       width="6"
       height="6"
       x="0"
       y="0" /><pattern
       id="EMFhbasepattern-6"
       patternUnits="userSpaceOnUse"
       width="6"
       height="6"
       x="0"
       y="0" /><pattern
       id="EMFhbasepattern-62"
       patternUnits="userSpaceOnUse"
       width="6"
       height="6"
       x="0"
       y="0" /><pattern
       id="EMFhbasepattern-8"
       patternUnits="userSpaceOnUse"
       width="6"
       height="6"
       x="0"
       y="0" /><pattern
       id="EMFhbasepattern-81"
       patternUnits="userSpaceOnUse"
       width="6"
       height="6"
       x="0"
       y="0" /><pattern
       id="EMFhbasepattern-9"
       patternUnits="userSpaceOnUse"
       width="6"
       height="6"
       x="0"
       y="0" /><pattern
       id="EMFhbasepattern-52"
       patternUnits="userSpaceOnUse"
       width="6"
       height="6"
       x="0"
       y="0" /><pattern
       id="EMFhbasepattern-0"
       patternUnits="userSpaceOnUse"
       width="6"
       height="6"
       x="0"
       y="0" /><pattern
       id="EMFhbasepattern-7"
       patternUnits="userSpaceOnUse"
       width="6"
       height="6"
       x="0"
       y="0" /><pattern
       id="EMFhbasepattern-65"
       patternUnits="userSpaceOnUse"
       width="6"
       height="6"
       x="0"
       y="0" /><pattern
       id="EMFhbasepattern-3"
       patternUnits="userSpaceOnUse"
       width="6"
       height="6"
       x="0"
       y="0" /><pattern
       id="EMFhbasepattern-90"
       patternUnits="userSpaceOnUse"
       width="6"
       height="6"
       x="0"
       y="0" /><pattern
       id="EMFhbasepattern-4"
       patternUnits="userSpaceOnUse"
       width="6"
       height="6"
       x="0"
       y="0" /><pattern
       id="EMFhbasepattern-2"
       patternUnits="userSpaceOnUse"
       width="6"
       height="6"
       x="0"
       y="0" /><pattern
       id="EMFhbasepattern-40"
       patternUnits="userSpaceOnUse"
       width="6"
       height="6"
       x="0"
       y="0" /><pattern
       id="EMFhbasepattern-74"
       patternUnits="userSpaceOnUse"
       width="6"
       height="6"
       x="0"
       y="0" /><pattern
       id="EMFhbasepattern-656"
       patternUnits="userSpaceOnUse"
       width="6"
       height="6"
       x="0"
       y="0" /><pattern
       id="EMFhbasepattern-76"
       patternUnits="userSpaceOnUse"
       width="6"
       height="6"
       x="0"
       y="0" /><pattern
       id="EMFhbasepattern-1"
       patternUnits="userSpaceOnUse"
       width="6"
       height="6"
       x="0"
       y="0" /><pattern
       id="EMFhbasepattern-42"
       patternUnits="userSpaceOnUse"
       width="6"
       height="6"
       x="0"
       y="0" /><pattern
       id="EMFhbasepattern-73"
       patternUnits="userSpaceOnUse"
       width="6"
       height="6"
       x="0"
       y="0" /><pattern
       id="EMFhbasepattern-566"
       patternUnits="userSpaceOnUse"
       width="6"
       height="6"
       x="0"
       y="0" /><pattern
       id="EMFhbasepattern-71"
       patternUnits="userSpaceOnUse"
       width="6"
       height="6"
       x="0"
       y="0" /><pattern
       id="EMFhbasepattern-31"
       patternUnits="userSpaceOnUse"
       width="6"
       height="6"
       x="0"
       y="0" /><pattern
       id="EMFhbasepattern-60"
       patternUnits="userSpaceOnUse"
       width="6"
       height="6"
       x="0"
       y="0" /><pattern
       id="EMFhbasepattern-28"
       patternUnits="userSpaceOnUse"
       width="6"
       height="6"
       x="0"
       y="0" /><pattern
       id="EMFhbasepattern-02"
       patternUnits="userSpaceOnUse"
       width="6"
       height="6"
       x="0"
       y="0" /><pattern
       id="EMFhbasepattern-57"
       patternUnits="userSpaceOnUse"
       width="6"
       height="6"
       x="0"
       y="0" /><pattern
       id="EMFhbasepattern-50"
       patternUnits="userSpaceOnUse"
       width="6"
       height="6"
       x="0"
       y="0" /><pattern
       id="EMFhbasepattern-45"
       patternUnits="userSpaceOnUse"
       width="6"
       height="6"
       x="0"
       y="0" /><pattern
       id="EMFhbasepattern-33"
       patternUnits="userSpaceOnUse"
       width="6"
       height="6"
       x="0"
       y="0" /><pattern
       id="EMFhbasepattern-21"
       patternUnits="userSpaceOnUse"
       width="6"
       height="6"
       x="0"
       y="0" /><pattern
       id="EMFhbasepattern-818"
       patternUnits="userSpaceOnUse"
       width="6"
       height="6"
       x="0"
       y="0" /><pattern
       id="EMFhbasepattern-32"
       patternUnits="userSpaceOnUse"
       width="6"
       height="6"
       x="0"
       y="0" /><pattern
       id="EMFhbasepattern-38"
       patternUnits="userSpaceOnUse"
       width="6"
       height="6"
       x="0"
       y="0" /><pattern
       id="EMFhbasepattern-39"
       patternUnits="userSpaceOnUse"
       width="6"
       height="6"
       x="0"
       y="0" /><pattern
       id="EMFhbasepattern-86"
       patternUnits="userSpaceOnUse"
       width="6"
       height="6"
       x="0"
       y="0" /><pattern
       id="EMFhbasepattern-07"
       patternUnits="userSpaceOnUse"
       width="6"
       height="6"
       x="0"
       y="0" /><pattern
       id="EMFhbasepattern-524"
       patternUnits="userSpaceOnUse"
       width="6"
       height="6"
       x="0"
       y="0" /><pattern
       id="EMFhbasepattern-508"
       patternUnits="userSpaceOnUse"
       width="6"
       height="6"
       x="0"
       y="0" /><pattern
       id="EMFhbasepattern-217"
       patternUnits="userSpaceOnUse"
       width="6"
       height="6"
       x="0"
       y="0" /><pattern
       id="EMFhbasepattern-84"
       patternUnits="userSpaceOnUse"
       width="6"
       height="6"
       x="0"
       y="0" /><pattern
       id="EMFhbasepattern-96"
       patternUnits="userSpaceOnUse"
       width="6"
       height="6"
       x="0"
       y="0" /><pattern
       id="EMFhbasepattern-48"
       patternUnits="userSpaceOnUse"
       width="6"
       height="6"
       x="0"
       y="0" /><pattern
       id="EMFhbasepattern-23"
       patternUnits="userSpaceOnUse"
       width="6"
       height="6"
       x="0"
       y="0" /><pattern
       id="EMFhbasepattern-36"
       patternUnits="userSpaceOnUse"
       width="6"
       height="6"
       x="0"
       y="0" /><pattern
       id="EMFhbasepattern-900"
       patternUnits="userSpaceOnUse"
       width="6"
       height="6"
       x="0"
       y="0" /><pattern
       id="EMFhbasepattern-37"
       patternUnits="userSpaceOnUse"
       width="6"
       height="6"
       x="0"
       y="0" /><pattern
       id="EMFhbasepattern-11"
       patternUnits="userSpaceOnUse"
       width="6"
       height="6"
       x="0"
       y="0" /><pattern
       id="EMFhbasepattern-95"
       patternUnits="userSpaceOnUse"
       width="6"
       height="6"
       x="0"
       y="0" /><pattern
       id="EMFhbasepattern-10"
       patternUnits="userSpaceOnUse"
       width="6"
       height="6"
       x="0"
       y="0" /><pattern
       id="EMFhbasepattern-909"
       patternUnits="userSpaceOnUse"
       width="6"
       height="6"
       x="0"
       y="0" /><pattern
       id="EMFhbasepattern-06"
       patternUnits="userSpaceOnUse"
       width="6"
       height="6"
       x="0"
       y="0" /><pattern
       id="EMFhbasepattern-34"
       patternUnits="userSpaceOnUse"
       width="6"
       height="6"
       x="0"
       y="0" /><pattern
       id="EMFhbasepattern-41"
       patternUnits="userSpaceOnUse"
       width="6"
       height="6"
       x="0"
       y="0" /><pattern
       id="EMFhbasepattern-82"
       patternUnits="userSpaceOnUse"
       width="6"
       height="6"
       x="0"
       y="0" /><pattern
       id="EMFhbasepattern-94"
       patternUnits="userSpaceOnUse"
       width="6"
       height="6"
       x="0"
       y="0" /><pattern
       id="EMFhbasepattern-738"
       patternUnits="userSpaceOnUse"
       width="6"
       height="6"
       x="0"
       y="0" /><pattern
       id="EMFhbasepattern-19"
       patternUnits="userSpaceOnUse"
       width="6"
       height="6"
       x="0"
       y="0" /><pattern
       id="EMFhbasepattern-342"
       patternUnits="userSpaceOnUse"
       width="6"
       height="6"
       x="0"
       y="0" /><pattern
       id="EMFhbasepattern-77"
       patternUnits="userSpaceOnUse"
       width="6"
       height="6"
       x="0"
       y="0" /><pattern
       id="EMFhbasepattern-29"
       patternUnits="userSpaceOnUse"
       width="6"
       height="6"
       x="0"
       y="0" /><pattern
       id="EMFhbasepattern-219"
       patternUnits="userSpaceOnUse"
       width="6"
       height="6"
       x="0"
       y="0" /><pattern
       id="EMFhbasepattern-105"
       patternUnits="userSpaceOnUse"
       width="6"
       height="6"
       x="0"
       y="0" /><pattern
       id="EMFhbasepattern-104"
       patternUnits="userSpaceOnUse"
       width="6"
       height="6"
       x="0"
       y="0" /><pattern
       id="EMFhbasepattern-44"
       patternUnits="userSpaceOnUse"
       width="6"
       height="6"
       x="0"
       y="0" /><pattern
       id="EMFhbasepattern-87"
       patternUnits="userSpaceOnUse"
       width="6"
       height="6"
       x="0"
       y="0" /><pattern
       id="EMFhbasepattern-93"
       patternUnits="userSpaceOnUse"
       width="6"
       height="6"
       x="0"
       y="0" /><pattern
       id="EMFhbasepattern-324"
       patternUnits="userSpaceOnUse"
       width="6"
       height="6"
       x="0"
       y="0" /><pattern
       id="EMFhbasepattern-20"
       patternUnits="userSpaceOnUse"
       width="6"
       height="6"
       x="0"
       y="0" /><pattern
       id="EMFhbasepattern-78"
       patternUnits="userSpaceOnUse"
       width="6"
       height="6"
       x="0"
       y="0" /><pattern
       id="EMFhbasepattern-313"
       patternUnits="userSpaceOnUse"
       width="6"
       height="6"
       x="0"
       y="0" /><pattern
       id="EMFhbasepattern-3422"
       patternUnits="userSpaceOnUse"
       width="6"
       height="6"
       x="0"
       y="0" /><pattern
       id="EMFhbasepattern-957"
       patternUnits="userSpaceOnUse"
       width="6"
       height="6"
       x="0"
       y="0" /><pattern
       id="EMFhbasepattern-75"
       patternUnits="userSpaceOnUse"
       width="6"
       height="6"
       x="0"
       y="0" /><pattern
       id="EMFhbasepattern-429"
       patternUnits="userSpaceOnUse"
       width="6"
       height="6"
       x="0"
       y="0" /><pattern
       id="EMFhbasepattern-102"
       patternUnits="userSpaceOnUse"
       width="6"
       height="6"
       x="0"
       y="0" /><pattern
       id="EMFhbasepattern-233"
       patternUnits="userSpaceOnUse"
       width="6"
       height="6"
       x="0"
       y="0" /><pattern
       id="EMFhbasepattern-18"
       patternUnits="userSpaceOnUse"
       width="6"
       height="6"
       x="0"
       y="0" /><pattern
       id="EMFhbasepattern-334"
       patternUnits="userSpaceOnUse"
       width="6"
       height="6"
       x="0"
       y="0" /><pattern
       id="EMFhbasepattern-317"
       patternUnits="userSpaceOnUse"
       width="6"
       height="6"
       x="0"
       y="0" /></defs><g
     inkscape:label="Calque 1"
     inkscape:groupmode="layer"
     id="layer1"><g
       id="g4128"
       transform="translate(-0.63104184,0.12620835)"><g
         id="g5578"
         transform="translate(0.08924235,0.08924306)"><g
           id="g7501"
           transform="translate(-0.06310417,0.94656242)"><g
             id="g9467"
             transform="translate(-0.08924275,-0.80318511)"><g
               id="g10302"
               transform="translate(0.31234979,-0.04462139)"><g
                 id="g11479"
                 transform="translate(-0.12620833,0.06310418)"><g
                   id="g11873"
                   transform="translate(-0.23575769,0.66462456)"><g
                     id="g12382"
                     transform="translate(-121.98459,-82.267525)"><g
                       id="g13305"
                       transform="matrix(0.13266609,0,0,0.13266609,114.63867,78.215696)"><g
                         id="g17429"
                         transform="translate(0.90513437,5.6640979)"><g
                           id="g18595"
                           transform="translate(-3.3634362,-8.7449387)"><g
                             id="g21002"
                             transform="translate(1.7082278,-2.8204445)"><g
                               id="g23814"
                               transform="translate(8.7253043,-1.1218249)"><g
                                 id="g24838"
                                 transform="translate(11.143454,-0.85716864)"><g
                                   id="g25315"
                                   transform="translate(-3.490122,2.4929446)"><g
                                   id="g27220"
                                   transform="translate(2.4678888,1.2339445)"><g
                                   id="g29753"
                                   transform="translate(1.4759287,-2.3737724)"><g
                                   id="g30615"
                                   transform="translate(0.92006037,1.3687834)"><g
                                   id="g31433"
                                   transform="translate(-2.4678886,-1.410222)"><g
                                   id="g31731"
                                   transform="translate(1.0576664,-0.70511063)"><g
                                   id="g33243"
                                   transform="matrix(1.0772948,0,0,1.0772948,-7.3729128,-3.1743014)"><g
                                   id="g35254"
                                   transform="translate(-2.2135012,-0.92031205)"><g
                                   id="g36749"
                                   transform="translate(-0.98178042,-2.7817105)"><g
                                   id="g37297"
                                   transform="translate(-6.7755742,-3.5033798)"><g
                                   id="g38955"
                                   transform="matrix(1.2171094,0,0,1.2171094,-23.105122,-18.212482)"><g
                                   id="g39618"
                                   transform="translate(-0.26888273,-0.26888316)"><g
                                   id="g40032"
                                   transform="translate(-1.90129,-3.042064)"><g
                                   id="g40543"
                                   transform="translate(0.3802582,-2.0914191)"><g
                                   id="g41372"
                                   transform="translate(1.9657652,-7.9304203)"><g
                                   id="g43278"
                                   transform="translate(1.5210324,-0.38025789)"><g
                                   id="g44210"
                                   transform="matrix(1.1578947,0,0,1.1578947,-18.904476,-21.776183)"><g
                                   id="g44833"
                                   transform="matrix(1.1196819,0,0,1.1196819,-12.538538,-14.547543)"><g
                                   id="g47597"
                                   transform="translate(3.1109352,-1.2443743)"><g
                                   id="g48754"
                                   transform="translate(-2.9035392,-6.6366609)"><g
                                   id="g234"
                                   transform="matrix(0.04089637,0,0,0.04089637,104.63967,119.67231)"><g
                                   id="g2138"
                                   transform="translate(-86.211222,-40.569988)"><g
                                   id="g2696"
                                   transform="translate(-124306.44,-9412.2373)"><g
                                   id="g3765"
                                   transform="translate(25.356243,-50.712489)"><g
                                   id="g4557"
                                   transform="translate(46.61688,-35.859142)"><g
                                   id="g5244"
                                   transform="translate(7.1718407,14.343658)"><g
                                   id="g5807"
                                   transform="translate(-5.1984397,-21.113724)"><g
                                   id="g6945"
                                   transform="translate(-10.142522,-243.41993)"><g
                                   id="g11108"
                                   transform="translate(18.189368,-37.636113)"><g
                                   id="g15049"
                                   transform="translate(-65.926228,141.99496)"><g
                                   id="g19861"
                                   transform="matrix(0.07356842,0,0,0.07356842,115423.38,9039.2311)"><g
                                   id="g20437"
                                   transform="translate(-478.38824,-785.88156)"><g
                                   id="g21032"
                                   transform="translate(2047.1878,-1072.3367)"><g
                                   id="g21869"
                                   transform="matrix(0.04321578,0,0,0.04321578,117368,10137.003)"><g
                                   id="g25455"
                                   transform="translate(154741.46,-87178.414)"><g
                                   id="g26278"
                                   transform="translate(-18012.371,-8233.4417)"><g
                                   id="g27240"
                                   transform="translate(-0.00447131,5582.7624)"><g
                                   id="g28306"
                                   transform="translate(-15790.441,-2255.7767)"><g
                                   id="g29002"
                                   transform="translate(-797.5347,7177.8338)"><g
                                   id="g16324"
                                   transform="translate(-19140.897,-11165.525)"><path
                                   style="fill:#dedede;stroke-width:841.511"
                                   d="m 21508.556,-64300.713 c 4729.49,-2081.669 15283.433,-3574.467 21183.795,-2996.324 21520.753,2108.69 47580.565,13553.603 74525.979,32730.219 27010.87,19223.203 57218.96,49600.894 76412.88,76841.881 23253.03,33001.886 35144.14,65359.507 31630.22,86070.937 -1919.56,11314.07 -5216.61,15728.57 -20433.98,27359.55 -24532.22,18750.54 -51539.38,33649.5 -77292.87,42639.92 -14814.79,5171.78 -21920.82,6767.1 -52041.581,11683.45 -59763.907,9754.74 -78897.3132,15566.39 -101071.979,30699.98 -10377.324,7082.24 -14088.425,8831.98 -18708.101,8820.68 -7506.968,-987.68 -10410.97,-3536.93 -15221.901,-8320.21 l -20664.145,20903.83 c -24066.293,24345.46 -23008.783,22549.77 -19451.917,33030.21 3844.797,11328.82 2967.004,17747.06 -3295.506,24095.88 -6121.03,6205.34 -16060.29,8050.54 -23510.28,4364.56 -10747.93,-9189.79 -9725.96,-14867.04 -8337.74,-27091.71 115.16,-1032.54 -330.07,-2419.44 -989.4,-3082 -3380.48,-1840.62 -7548.94,-518.9 -10844.12,-160.35 -10070.95,1101.29 -15467.39,-1505.31 -19283.56,-9314.41 -5079.15,-10393.52 874.03,-24574.08 11853.82,-28235.94 8914.5,-1532.44 15124.23,1091.66 23084.85,3539.56 5041.91,305.15 6604.52,-932.08 27736.98,-21961.32 l 20001.663,-19903.98 c -5332.937,-4077.12 -6912.28,-10445.57 -8201.76,-15218.42 11.291,-4612.48 1779.309,-8321.76 8864.354,-18597.35 15346.984,-22258.05 21173.858,-41196.43 31513.958,-102425.994 6320.389,-37426.579 10900.862,-52827.727 22863.013,-76873.5057 14841.879,-29834.4873 39749.67,-64229.5123 49677.328,-68599.1433 z"
                                   id="path16334"
                                   sodipodi:nodetypes="sssssssssccsssccccsccsccssss" /><path
                                   style="fill:#f8b0b0;stroke-width:841.511"
                                   d="m 19744.654,-63273.97 c 14729.156,-7312.439 39206.998,-3734.646 65733.933,9607.971 25718.033,12935.753 46468.873,28614.324 72520.503,54793.8072 17779.74,17867.0048 23688.48,24719.3478 34952.39,40534.1218 25836.62,36275.178 37545.04,71578.43 30840.42,92990.11 -1476.08,4713.95 -1918.55,5319.77 -8779.05,12020.06 -16632.95,16244.54 -51122.81,37366.17 -79296.82,48561.48 -17786.67,7067.77 -27196.64,9309.32 -64505.578,15365.92 -55899.459,9074.52 -76908.6462,15774.47 -99616.264,31768.21 -8574.24,6039.13 -11105.712,7138.01 -16118.469,6996.87 -6746.583,-189.97 -8037.482,-1153.89 -26812.466,-20021.03 -18774.984,-18867.13 -19732.576,-20162.73 -19889.512,-26910.16 -117.134,-5036.31 995.55,-7540.71 7262.871,-16347.03 10973.349,-15418.86 18914.715,-34483.44 24478.355,-58764.41 1588.705,-6933.45 4986.25,-24993.22 7550.112,-40132.827 2563.856,-15139.608 5346.98,-30595.723 6184.714,-34346.926 6437.959,-28827.778 21383.335,-60187.2053 43289.9482,-90833.972 C 5560.6081,-49212.753 16492.128,-61659.221 19744.654,-63273.97 Z M 88508.691,9829.7182 c -3673.151,6460.1688 -2011.204,16667.5048 4609.631,28311.3988 4779.381,8405.379 19168.368,22864.984 27550.248,27685.461 8035.28,4621.146 14839.2,6800.067 20551.56,6581.53 15880.59,-607.539 19435.39,-15762.731 8294.45,-35361.86 C 144778.45,28714.44 130348.06,14213.223 122039.54,9436.3514 110852.17,3004.3276 101125.08,1182.186 94542.61,4285.4416 90687.577,6102.8703 90562.231,6218.0357 88508.691,9829.7182 Z m 13858.599,5418.6968 c 14978.77,504.336 40580.48,26279.135 41208.2,41486.808 130.99,3173.181 -207.69,3523.375 -3294.44,3406.571 -14715.92,-556.852 -40897.193,-26866.622 -41381.99,-41585.091 -101.72,-3088.248 242.806,-3416.893 3468.23,-3308.288 z"
                                   id="path16332" /><path
                                   style="fill:#f37a7a;stroke-width:841.511"
                                   d="m 20513.966,-63345.087 c 4688.613,-2441.071 15597.155,-4015.585 22998.287,-3319.521 25405.086,2389.294 58190.847,19074.874 92010.807,46826.845 10106.75,8293.391 35087.49,33396.741 43331.3,43543.973 33929.91,41764.024 50935.16,81775.27 45524.12,107112.62 -1979.99,9271.33 -4411.18,12537.37 -16156.68,21704.74 -24527.46,19143.69 -51686.46,34672.87 -77083.14,44075.17 -15134.89,5603.21 -25626.2,8112.82 -51245.282,12258.28 -41651.415,6739.68 -61516.375,11034.74 -76404.9849,16519.75 -10409.4261,3834.87 -24263.3711,11065.68 -32495.3051,16960.34 -8281.004,5929.8 -12729.019,7581.75 -17747.64,6591.28 -5649.095,-1114.88 -8262.116,-3197.96 -24575.544,-19591.46 -16313.428,-16393.49 -18383.689,-19016.68 -19470.903,-24671.16 -966.646,-5027.39 707.02,-9462.5 6690.531,-17729.55 16346.696,-22585.21 23163.656,-44034.19 33397.094,-105081.053 4942.663,-29485.113 7310.546,-39385.514 13112.359,-54824.277 C -28383.236,2502.1528 -14103.95,-22558.215 4303.2822,-46511.792 13356.285,-58292.594 15917.158,-60951.83 20513.966,-63345.087 Z m -22691.688,35593.916 c -8585.304,15408.202 -13089.022,25269.2306 -18395.959,40278.468 -5568.616,15749.315 -7076.991,22269.929 -12205.629,52764.137 -8612.312,51207.696 -13128.3,67728.866 -24626.655,90093.546 -6491.332,12625.85 -7833.13,17055.34 -7785.233,25700.25 128.359,23168.28 18974.911,42107.33 42142.279,42349.12 8644.576,90.22 13080.5851,-1229.87 25738.0676,-7659.31 22420.7054,-11388.72 38963.7874,-15823.77 90213.0334,-24185.27 13757.428,-2244.57 28491.438,-4885.87 32742.238,-5869.56 10002.91,-2314.79 30243.49,-9334.78 40558.71,-14066.85 7420.53,-3404.15 30968.6,-15997.64 32194.59,-17217.65 286.32,-284.92 -2359.03,-525.09 -5878.56,-533.7 -25787.07,-63.13 -62788.9,-18306.06 -99164.037,-48890.64 C 81907.368,95385.991 54479.89,66811.877 45960.256,55635.122 19874.583,21413.778 5374.981,-10739.026 5403.7672,-34298.727 c 4.1944,-3432.136 -226.636,-6007.13 -512.9562,-5722.208 -286.3195,284.921 -3467.1619,5806.316 -7068.533,12269.764 z m 89305.72,40137.762 c -1584.801,4523.197 -1341.867,8748.212 897.558,15609.803 3058.863,9372.354 6135.615,13844.287 17222.104,25031.615 11708.41,11814.911 16800.27,15277.31 26957.3,18330.616 17882.39,5375.625 28370.65,-5378.205 22550.47,-23121.459 C 151215.62,37445.815 148350.82,33162.522 137134.17,21890.818 126419.51,11123.569 122062.06,8075.8715 112263.31,4495.5604 105511.62,2028.5975 101037.15,1680.3302 96335.301,3255.7999 91553.524,4858.0512 88813.863,7574.953 87127.98,12386.573 Z m 15191.262,2894.83 c 7422.79,350.218 15549.67,5250.638 25814.5,15565.847 10468.62,10520.003 15831.1,19759.15 15468.17,26650.488 -124.77,2369.054 -160.46,2399.489 -2906.28,2478.486 -6113.8,175.89 -17956.02,-6626.732 -26523.14,-15235.907 -8336.03,-8376.935 -14934.238,-19809.883 -15117.946,-26195.37 -92.962,-3231.292 89.175,-3413.37 3264.676,-3263.568 z"
                                   id="path16330" /><path
                                   style="fill:#ee6060;stroke-width:841.511"
                                   d="m 18840.166,-62166.406 c 1561.587,-930.504 3650.305,-1935.222 4641.596,-2232.708 1654.848,-496.632 1735.309,-92.666 983.273,4936.608 -3581.673,23952.645 12723.707,61805.6786 43479.334,100937.512 7659.266,9745.25 39559.461,41802.013 49267.101,49508.9 38679.79,30707.894 76425.7,47328.624 100022.19,44042.984 l 6342.37,-883.13 -1306.06,3289.31 c -827.21,2083.36 -2939.16,4928.6 -5760.46,7760.55 -5782.44,5804.28 -11392.48,7919.63 -21861.26,8243.12 C 133523,155325.53 27530.375,59065.567 8131.444,-15953.377 5441.1633,-26357.163 5236.6124,-41549.87 7698.3705,-48119.725 9716.7082,-53506.176 14565.694,-59619.396 18840.166,-62166.406 Z m 83479.094,77447.827 c 7422.79,350.218 15549.67,5250.638 25814.5,15565.847 10468.62,10520.003 15831.1,19759.15 15468.17,26650.488 -124.77,2369.054 -160.46,2399.489 -2906.28,2478.486 -6113.8,175.89 -17956.02,-6626.732 -26523.14,-15235.907 -8336.03,-8376.935 -14934.238,-19809.883 -15117.946,-26195.37 -92.962,-3231.292 89.175,-3413.37 3264.676,-3263.568 z"
                                   id="path16328" /><path
                                   style="fill:#675b78;stroke-width:841.511"
                                   d="m 102319.26,15281.421 c 7422.79,350.218 15549.67,5250.638 25814.5,15565.847 10468.62,10520.003 15831.1,19759.15 15468.17,26650.488 -124.77,2369.054 -160.46,2399.489 -2906.28,2478.486 -6113.8,175.89 -17956.02,-6626.732 -26523.14,-15235.907 -8336.03,-8376.935 -14934.238,-19809.883 -15117.946,-26195.37 -92.962,-3231.292 89.175,-3413.37 3264.676,-3263.568 z"
                                   id="path16326" /></g></g></g></g></g></g></g></g></g></g></g></g></g></g></g></g></g></g></g></g></g></g></g></g></g></g></g></g></g></g></g></g></g></g></g></g></g></g></g></g></g></g></g></g></g></g></g></g></g></g></g></g></g></g></g></svg>
