<?xml version="1.0" encoding="UTF-8" standalone="no"?>
<!-- Created with Inkscape (http://www.inkscape.org/) -->

<svg
   width="64"
   height="64"
   viewBox="0 0 16.933333 16.933334"
   version="1.1"
   id="svg5"
   inkscape:version="1.2 (dc2aedaf03, 2022-05-15)"
   sodipodi:docname="jus_de_pamplemousses.svg"
   xmlns:inkscape="http://www.inkscape.org/namespaces/inkscape"
   xmlns:sodipodi="http://sodipodi.sourceforge.net/DTD/sodipodi-0.dtd"
   xmlns="http://www.w3.org/2000/svg"
   xmlns:svg="http://www.w3.org/2000/svg">
  <sodipodi:namedview
     id="namedview7"
     pagecolor="#ffffff"
     bordercolor="#666666"
     borderopacity="1.0"
     inkscape:pageshadow="2"
     inkscape:pageopacity="0.0"
     inkscape:pagecheckerboard="0"
     inkscape:document-units="mm"
     showgrid="false"
     units="px"
     inkscape:zoom="11.313708"
     inkscape:cx="9.6343303"
     inkscape:cy="26.693282"
     inkscape:window-width="1920"
     inkscape:window-height="1017"
     inkscape:window-x="1912"
     inkscape:window-y="-8"
     inkscape:window-maximized="1"
     inkscape:current-layer="g3632"
     showguides="false"
     inkscape:showpageshadow="0"
     inkscape:deskcolor="#d1d1d1" />
  <defs
     id="defs2" />
  <g
     inkscape:label="Calque 1"
     inkscape:groupmode="layer"
     id="layer1">
    <g
       id="g4128"
       transform="translate(-0.63104184,0.12620835)">
      <g
         id="g5578"
         transform="translate(0.08924235,0.08924306)">
        <g
           id="g7501"
           transform="translate(-0.06310417,0.94656242)">
          <g
             id="g9467"
             transform="translate(-0.08924275,-0.80318511)">
            <g
               id="g10302"
               transform="translate(0.31234979,-0.04462139)">
              <g
                 id="g11479"
                 transform="translate(-0.12620833,0.06310418)">
                <g
                   id="g11873"
                   transform="translate(-0.23575769,0.66462456)">
                  <g
                     id="g12382"
                     transform="translate(-121.98459,-82.267525)">
                    <g
                       id="g13305"
                       transform="matrix(0.13266609,0,0,0.13266609,114.63867,78.215696)">
                      <g
                         id="g17429"
                         transform="translate(0.90513437,5.6640979)">
                        <g
                           id="g18595"
                           transform="translate(-3.3634362,-8.7449387)">
                          <g
                             id="g21002"
                             transform="translate(1.7082278,-2.8204445)">
                            <g
                               id="g23814"
                               transform="translate(8.7253043,-1.1218249)">
                              <g
                                 id="g24838"
                                 transform="translate(11.143454,-0.85716864)">
                                <g
                                   id="g25315"
                                   transform="translate(-3.490122,2.4929446)">
                                <g
                                   id="g27220"
                                   transform="translate(2.4678888,1.2339445)">
                                <g
                                   id="g29753"
                                   transform="translate(1.4759287,-2.3737724)">
                                <g
                                   id="g30615"
                                   transform="translate(0.92006037,1.3687834)">
                                <g
                                   id="g31433"
                                   transform="translate(-2.4678886,-1.410222)">
                                <g
                                   id="g31731"
                                   transform="translate(1.0576664,-0.70511063)">
                                <g
                                   id="g33243"
                                   transform="matrix(1.0772948,0,0,1.0772948,-7.3729128,-3.1743014)">
                                <g
                                   id="g35254"
                                   transform="translate(-2.2135012,-0.92031205)">
                                <g
                                   id="g36749"
                                   transform="translate(-0.98178042,-2.7817105)">
                                <g
                                   id="g37297"
                                   transform="translate(-6.7755742,-3.5033798)">
                                <g
                                   id="g38955"
                                   transform="matrix(1.2171094,0,0,1.2171094,-23.105122,-18.212482)">
                                <g
                                   id="g39618"
                                   transform="translate(-0.26888273,-0.26888316)">
                                <g
                                   id="g40032"
                                   transform="translate(-1.90129,-3.042064)">
                                <g
                                   id="g40543"
                                   transform="translate(0.3802582,-2.0914191)">
                                <g
                                   id="g41372"
                                   transform="translate(1.9657652,-7.9304203)">
                                <g
                                   id="g43278"
                                   transform="translate(1.5210324,-0.38025789)">
                                <g
                                   id="g44210"
                                   transform="matrix(1.1578947,0,0,1.1578947,-18.904476,-21.776183)">
                                <g
                                   id="g44833"
                                   transform="matrix(1.1196819,0,0,1.1196819,-12.538538,-14.547543)">
                                <g
                                   id="g47597"
                                   transform="translate(3.1109352,-1.2443743)">
                                <g
                                   id="g48754"
                                   transform="translate(-2.9035392,-6.6366609)">
                                <g
                                   id="g234"
                                   transform="matrix(0.04089637,0,0,0.04089637,104.63967,119.67231)">
                                <g
                                   id="g2138"
                                   transform="translate(-86.211222,-40.569988)">
                                <g
                                   id="g2696"
                                   transform="translate(-124306.44,-9412.2373)">
                                <g
                                   id="g3765"
                                   transform="translate(25.356243,-50.712489)">
                                <g
                                   id="g4557"
                                   transform="translate(46.61688,-35.859142)">
                                <g
                                   id="g5244"
                                   transform="translate(7.1718407,14.343658)">
                                <g
                                   id="g5807"
                                   transform="translate(-5.1984397,-21.113724)">
                                <g
                                   id="g6945"
                                   transform="translate(-10.142522,-243.41993)">
                                <g
                                   id="g11108"
                                   transform="translate(18.189368,-37.636113)">
                                <g
                                   id="g15049"
                                   transform="translate(-65.926228,141.99496)">
                                <g
                                   id="g19861"
                                   transform="matrix(0.07356842,0,0,0.07356842,115423.38,9039.2311)">
                                <g
                                   id="g20437"
                                   transform="translate(-478.38824,-785.88156)">
                                <g
                                   id="g21032"
                                   transform="translate(2047.1878,-1072.3367)">
                                <g
                                   id="g21869"
                                   transform="matrix(0.04321578,0,0,0.04321578,117368,10137.003)">
                                <g
                                   id="g25455"
                                   transform="translate(154741.46,-87178.414)">
                                <g
                                   id="g26278"
                                   transform="translate(-18012.371,-8233.4417)">
                                <g
                                   id="g27240"
                                   transform="translate(-0.00447131,5582.7624)">
                                <g
                                   id="g28306"
                                   transform="translate(-15790.441,-2255.7767)">
                                <g
                                   id="g33735"
                                   transform="translate(14662.549,-16918.328)">
                                <g
                                   id="g37868"
                                   transform="translate(-5075.4976,25941.433)">
                                <g
                                   id="g76752"
                                   transform="matrix(-1,0,0,1,9442.3174,-1595.0746)">
                                <g
                                   id="g82459"
                                   transform="translate(3383.6668,-1127.8885)">
                                <g
                                   id="g83208"
                                   transform="matrix(0.20332428,0,0,0.20332428,-15348.528,66747.475)">
                                <g
                                   id="g83934"
                                   transform="matrix(-1,0,0,1,240692.18,94139.78)">
                                <g
                                   id="g84550"
                                   transform="translate(-8.7627443e-5,55472.344)">
                                <g
                                   id="g9096"
                                   transform="translate(31379.925,-62759.843)">
                                <g
                                   id="g11527"
                                   transform="translate(61019.625,105397.54)">
                                <g
                                   id="g13422"
                                   transform="translate(-44377.907,44377.908)">
                                <g
                                   id="g1137"
                                   transform="translate(-3.3240812e-4,138680.92)">
                                <g
                                   id="g3632"
                                   transform="translate(177511.65,-22188.943)">
                                <g
                                   id="g5936"
                                   transform="translate(11767.473,-47069.909)">
                                <g
                                   id="g7318">
                                <g
                                   id="g11619"
                                   transform="translate(27457.436,-223581.94)" />
                                <g
                                   id="g11985"
                                   transform="translate(70604.821,-133364.68)">
                                <g
                                   id="g2691"
                                   transform="translate(33283.438,22188.91)">
                                <g
                                   id="g8255"
                                   transform="translate(-61019.613,44377.912)">
                                <g
                                   id="g9996"
                                   transform="translate(-22188.958,-44377.912)">
                                <g
                                   id="g11265"
                                   transform="translate(62759.847,388326.54)">
                                <g
                                   id="g1244"
                                   transform="translate(-52953.619,298109.26)">
                                <g
                                   id="g27371">
                                <g
                                   id="g28024"
                                   transform="matrix(1.1432639,0,0,1.1432639,66217.108,59891.224)">
                                <path
                                   style="fill:#ff5577;stroke-width:2445.31;fill-opacity:1"
                                   d="m -511448.17,483998.64 c -17744.47,-2912.36 -39734.42,-14149.76 -55038.24,-28125.9 -16230.32,-14821.97 -24863.7,-27480.1 -31826.84,-46663.27 l -5626.96,-15502.11 -687.77,-200384.15 c -8418.3,-57601.06 5977.1,-486706.11 4532.38,-576523.05 -6331.77,-393639.93 689144.735,-449889.32 765197.41,260045.43 6573.76,61364.532 7630.3,230372.83 7538.93,308827.5 681.85,209866.49 691.7,209688.45 -13106.69,236918.31 -8244.52,16269.6 -30164.03,39242.5 -46038.05,48250.03 -27547.411,15631.61 -10033.82,14859.88 -328894.76,14493.57 -159464.89,-183.15 -292687.11,-784.45 -296049.41,-1336.36 z m -93829.21,-1301678.25 c -217.07,-85090.63 -1227.62,-128049.97 -3249.98,-138159.75 -8090.54,-40444.61 -10512.17,-65277.34 -10471.53,-107380.34 45.27,-46901.3 2712.42,-69008.4 14629.13,-121255.7 1073.64,-4707.2 3274.41,-14610.7 4890.61,-22007.7 28978.94,-125950.4 48491.33,-221658.4 80937.57,-360071.2 l 2399.12,-9169.9 h 214689.14 c 118079,0 252742.339,-726.7 299251.8443,-1614.9 l 84562.7047,-1614.8 2566.128,9562.1 c 2155.12,8030.5 19924.983,86577.1 37015.433,163616.3 2386.87,10759.3 16499.45,74031.6 31361.31,140605 14861.88,66573.5 28200.11,128195.2 29640.54,136937.1 7261.53,44070.3 5575.18,105552.5 -4210.59,153512.28 -3099.94,15192.7 -4132.71,44680.61 -5286.07,150928.24 1453.91,1086835.42 -780501.22,1006021.79 -778725.36,6113.27 z"
                                   id="path28032"
                                   sodipodi:nodetypes="sssccsscsssscssscccsscssssscc" />
                                <path
                                   style="fill:#2cab23;stroke-width:2445.31"
                                   d="m -514677.8,-1576316.8 -24014.73,-801.5 784.33,-51872.1 c 758.08,-50135.8 989.99,-52239.4 6928.34,-62845.2 4043.85,-7222.3 9894.86,-13073.3 17117.13,-17117.2 l 10973.13,-6144 285691.78,-651.1 c 188500.658,-429.5 288841.84,197.2 294951.337,1842.3 12250.342,3298.7 21186.978,10615 27083.393,22172.9 4354.6,8535.7 4822.38,14524.9 4822.38,61741.3 v 52288.7 l -38513.55,1597.3 c -37601.65,1559.5 -538175.58,1378.9 -585823.54,-211.5 z"
                                   id="path28028"
                                   sodipodi:nodetypes="ccssscsssscssc" />
                                <path
                                   style="fill:#533f25;stroke-width:2445.31"
                                   d="M -604369.76,13724.149 V -5838.2923 h 30566.32 30566.31 V 13724.149 33286.591 h -30566.31 -30566.32 z m 127155.86,0 V -5838.2923 h 324002.91 324002.91 V 13724.149 33286.591 H -153210.99 -477213.9 Z M -604369.76,-349403.67 v -301995.19 h 30566.32 30566.31 v 301995.19 301995.19 h -30566.31 -30566.32 z m 128013.38,2445.3 c 868.77,-43037.37 1581.43,-129142.68 1583.68,-191345.13 l 4.11,-113095.36 h 322780.25 322780.26 v 301995.19 301995.19 H -153210.99 -477213.9 c -1665.6,-280113.08 -4383.27,-39928.341 857.52,-299549.89 z m 410372.499,-127534.86 c 5757.25,-5210.24 6010.413,-21988.85 424.871,-28160.8 -3855.145,-4259.89 -13145.861,-4471.82 -196043.18,-4471.82 -175222.95,0 -192386.89,353.54 -196468.05,4046.95 -5757.25,5210.24 -6010.41,21988.85 -424.87,28160.8 3855.14,4259.89 13145.86,4471.82 196043.18,4471.82 175222.946,0 192386.884,-353.54 196468.049,-4046.95 z m -215186.839,-83140.38 c 5757.25,-5210.24 6010.41,-21988.84 424.87,-28160.79 -3772.81,-4168.91 -9806.84,-4471.83 -89078.96,-4471.83 -95586.8,0 -92717.26,-548.14 -92717.26,17710.59 0,19577.97 -2969.45,18968.99 92496.72,18968.99 75106.15,0 84895.36,-445.76 88874.63,-4046.96 z m 383494.1,-843.65 c 6060.27,-6060.28 6522.95,-21041.61 843.65,-27317.14 -3847.195,-4251.12 -12497.021,-4471.83 -175258.085,-4471.83 -155882.205,0 -171611.505,362.32 -175682.955,4046.95 -5562.93,5034.37 -5921.46,19693.56 -665.23,27197.91 l 3806.64,5434.72 h 171032.67 c 167772.3,0 171125.938,-93.17 175923.31,-4890.61 z m -706693.14,-152831.58 v -18339.79 h 30566.32 30566.31 v 18339.79 18339.79 h -30566.31 -30566.32 z m 129601.17,0 v -18339.79 h 322780.25 322780.26 v 18339.79 18339.79 h -322780.26 -322780.25 z"
                                   id="path28026"
                                   sodipodi:nodetypes="ccccccccccccccccccccccccccccsccccccccsssssssssssssssssscsscccccccccccccccccc" />
                                </g>
                                </g>
                                </g>
                                </g>
                                </g>
                                </g>
                                </g>
                                </g>
                                </g>
                                </g>
                                </g>
                                </g>
                                </g>
                                </g>
                                </g>
                                </g>
                                </g>
                                </g>
                                </g>
                                </g>
                                </g>
                                </g>
                                </g>
                                </g>
                                </g>
                                </g>
                                </g>
                                </g>
                                </g>
                                </g>
                                </g>
                                </g>
                                </g>
                                </g>
                                </g>
                                </g>
                                </g>
                                </g>
                                </g>
                                </g>
                                </g>
                                </g>
                                </g>
                                </g>
                                </g>
                                </g>
                                </g>
                                </g>
                                </g>
                                </g>
                                </g>
                                </g>
                                </g>
                                </g>
                                </g>
                                </g>
                                </g>
                                </g>
                                </g>
                                </g>
                              </g>
                            </g>
                          </g>
                        </g>
                      </g>
                    </g>
                  </g>
                </g>
              </g>
            </g>
          </g>
        </g>
      </g>
    </g>
  </g>
</svg>
