<?xml version="1.0" encoding="UTF-8" standalone="no"?>
<svg
   width="64"
   height="64"
   version="1.1"
   viewBox="0 0 16.933 16.933"
   id="svg146"
   sodipodi:docname="krisprolls.svg"
   inkscape:version="1.2 (dc2aedaf03, 2022-05-15)"
   xml:space="preserve"
   xmlns:inkscape="http://www.inkscape.org/namespaces/inkscape"
   xmlns:sodipodi="http://sodipodi.sourceforge.net/DTD/sodipodi-0.dtd"
   xmlns="http://www.w3.org/2000/svg"
   xmlns:svg="http://www.w3.org/2000/svg"><defs
     id="defs150"><pattern
       id="EMFhbasepattern"
       patternUnits="userSpaceOnUse"
       width="6"
       height="6"
       x="0"
       y="0" /><pattern
       id="EMFhbasepattern-1"
       patternUnits="userSpaceOnUse"
       width="6"
       height="6"
       x="0"
       y="0" /><pattern
       id="EMFhbasepattern-4"
       patternUnits="userSpaceOnUse"
       width="6"
       height="6"
       x="0"
       y="0" /><pattern
       id="EMFhbasepattern-0"
       patternUnits="userSpaceOnUse"
       width="6"
       height="6"
       x="0"
       y="0" /><pattern
       id="EMFhbasepattern-5"
       patternUnits="userSpaceOnUse"
       width="6"
       height="6"
       x="0"
       y="0" /><pattern
       id="EMFhbasepattern-8"
       patternUnits="userSpaceOnUse"
       width="6"
       height="6"
       x="0"
       y="0" /><pattern
       id="EMFhbasepattern-9"
       patternUnits="userSpaceOnUse"
       width="6"
       height="6"
       x="0"
       y="0" /><pattern
       id="EMFhbasepattern-00"
       patternUnits="userSpaceOnUse"
       width="6"
       height="6"
       x="0"
       y="0" /></defs><sodipodi:namedview
     id="namedview148"
     pagecolor="#ffffff"
     bordercolor="#666666"
     borderopacity="1.0"
     inkscape:pageshadow="2"
     inkscape:pageopacity="0.0"
     inkscape:pagecheckerboard="0"
     showgrid="false"
     inkscape:zoom="8"
     inkscape:cx="25.125"
     inkscape:cy="34.625"
     inkscape:window-width="1920"
     inkscape:window-height="1009"
     inkscape:window-x="-8"
     inkscape:window-y="-8"
     inkscape:window-maximized="1"
     inkscape:current-layer="g3881"
     inkscape:showpageshadow="0"
     inkscape:deskcolor="#d1d1d1" /><g
     transform="translate(-.63104 .12621)"
     id="g144"><g
       transform="translate(.089242 .089243)"
       id="g142"><g
         transform="translate(-.063104 .94656)"
         id="g140"><g
           transform="translate(-.089243 -.80319)"
           id="g138"><g
             transform="translate(.31235 -.044621)"
             id="g136"><g
               transform="translate(-.12621 .063104)"
               id="g134"><g
                 transform="translate(-.23576 .66462)"
                 id="g132"><g
                   transform="translate(-121.98 -82.268)"
                   id="g130"><g
                     transform="matrix(.13267 0 0 .13267 114.64 78.216)"
                     id="g128"><g
                       transform="translate(.90513 5.6641)"
                       id="g126"><g
                         transform="translate(-3.3634 -8.7449)"
                         id="g124"><g
                           id="g2243"
                           transform="matrix(1.1930023,0,0,1.1930023,-33.651497,-20.118288)"><g
                             id="g2622"
                             transform="translate(-3.5913905,-3.2649007)"><g
                               id="g3762"
                               transform="translate(-4.1555401,0.11543139)"><g
                                 id="g14682"
                                 transform="translate(0.92345349,1.1543167)"><g
                                   id="g14733"
                                   transform="translate(-4.2443703,-2.6119205)"><g
                                   id="g3012"
                                   transform="translate(-1.3851797,-4.3864029)"><g
                                   id="g3323"
                                   transform="translate(-1.0388848,-3.9246767)"><g
                                   id="g3881"
                                   transform="translate(2.0685351,0.59100979)"><path
                                   style="fill:#f6c677;stroke-width:0.0790515"
                                   d="m 128.1329,140.00566 c -5.64673,-0.47303 -11.34901,-3.25818 -15.77799,-7.7064 -3.15234,-3.16604 -4.92715,-6.58634 -5.45616,-10.51479 -0.18612,-1.38215 -0.13174,-4.09231 0.10906,-5.43475 1.35208,-7.53782 6.64993,-15.13926 15.74238,-22.587452 6.72704,-5.510538 14.66521,-10.248769 22.25299,-13.282634 9.13506,-3.652516 17.56883,-4.801201 24.66407,-3.359261 2.25514,0.458303 4.20613,1.117944 6.18378,2.090771 2.47471,1.217332 4.2811,2.470547 6.09803,4.23062 2.65983,2.576599 4.51238,5.495352 5.24351,8.26136 0.20766,0.785607 0.2464,1.092321 0.27996,2.21615 0.0299,1.001836 0.009,1.461915 -0.0889,1.983722 -0.45388,2.411514 -1.88147,4.695024 -3.86267,6.178554 -1.23518,0.92491 -2.22743,1.43367 -5.73024,2.93808 -3.9038,1.67663 -5.527,2.51199 -7.88118,4.05594 -2.14944,1.40968 -3.86969,2.79383 -7.24385,5.82854 -6.33612,5.69871 -11.8426,11.65394 -16.07057,17.38024 -2.84392,3.85175 -8.39793,6.86548 -14.01202,7.60321 -1.15817,0.15219 -3.34913,0.21034 -4.45017,0.1181 z"
                                   id="path3889" /><path
                                   style="fill:#f4a94d;stroke-width:0.0790515"
                                   d="m 128.71857,139.99579 c -5.63909,-0.25503 -11.46827,-2.95856 -16.07649,-7.45617 -3.20059,-3.12378 -4.99932,-6.40105 -5.66467,-10.321 -0.17493,-1.03062 -0.23993,-3.39013 -0.12429,-4.5116 0.27673,-2.68357 1.15573,-5.53353 2.59051,-8.39907 3.51563,-7.02144 10.59183,-14.214367 20.42119,-20.758089 11.8985,-7.921209 24.44134,-12.295996 34.3874,-11.993893 1.89135,0.05745 2.74917,0.137844 4.42689,0.414894 6.97219,1.151352 12.86055,4.852711 16.46163,10.34761 2.26361,3.454061 2.91897,6.919334 1.8706,9.89102 -0.67861,1.923562 -1.83062,3.551768 -3.34459,4.727128 -1.27697,0.99136 -2.45733,1.60103 -6.05482,3.12735 -5.77328,2.44946 -8.63262,4.25548 -13.52957,8.54556 -2.67001,2.33912 -3.96512,3.55837 -6.86992,6.46758 -6.6017,5.75436 -9.98992,13.70958 -17.046,17.37985 -3.75748,1.92255 -7.36826,2.72333 -11.44787,2.53883 z m -4.68693,-5.16414 c 4.03173,-0.73795 8.11423,-3.43248 12.82093,-8.46206 1.56096,-1.66805 2.88004,-3.1951 6.21366,-7.19335 4.58111,-5.49446 5.83711,-6.91436 8.2173,-9.28959 2.24553,-2.24086 3.26756,-3.15694 5.3007,-4.7512 4.32836,-3.39403 7.92178,-5.309812 14.66405,-7.817947 4.78335,-1.779414 6.50271,-2.730714 8.41906,-4.658171 2.04352,-2.055369 2.79595,-4.004469 2.2978,-5.95221 -0.59844,-2.339903 -3.00186,-4.570897 -7.16614,-6.652038 -1.54328,-0.771266 -3.33769,-1.51349 -5.07373,-2.098647 -1.4317,-0.482576 -1.96735,-0.580997 -4.12382,-0.757718 -1.57222,-0.128843 -4.54033,-0.03848 -6.6852,0.203534 -11.42728,1.289368 -25.88151,8.321326 -37.3504,18.170912 -2.79913,2.403917 -5.46427,5.139455 -7.52417,7.722905 -2.0112,2.52237 -3.89038,5.62973 -4.95828,8.19887 -1.29788,3.12242 -1.90603,6.45817 -1.67454,9.18491 0.30191,3.55631 1.54283,6.61054 3.85352,9.48455 1.06985,1.33067 1.53751,1.75511 2.67412,2.427 2.19658,1.29848 4.25205,2.04951 6.44214,2.35385 0.72813,0.10117 2.83805,0.0356 3.653,-0.1136 z"
                                   id="path3887"
                                   sodipodi:nodetypes="sssccssssssssccscsssssssssscsssssssc" /><path
                                   style="fill:#bb7725;stroke-width:0.0790515"
                                   d="m 128.00711,139.95689 c -4.51161,-0.46145 -8.6703,-2.12901 -12.5485,-5.03169 -4.93115,-3.6908 -7.67555,-7.8609 -8.49171,-12.90311 -0.17432,-1.07697 -0.19523,-3.74194 -0.0381,-4.86167 0.77308,-5.5106 3.61912,-10.95754 8.67397,-16.60082 4.31333,-4.815441 10.98294,-10.145316 17.85025,-14.264622 11.92159,-7.151087 23.72795,-10.540087 33.31241,-9.562282 6.29686,0.642403 11.58275,3.088883 15.63571,7.236704 2.61404,2.675231 4.37475,5.689429 4.89393,8.378017 0.55879,2.893669 -0.15544,5.656544 -2.08604,8.069603 -1.31018,1.63759 -2.89878,2.61711 -7.28086,4.48934 -6.7882,2.90024 -9.31511,4.56234 -15.66132,10.30138 -5.98289,5.41047 -11.0703,10.90221 -15.29649,16.51219 -1.24885,1.65777 -1.7497,2.20732 -2.81118,3.08451 -3.1751,2.62385 -7.12818,4.3764 -11.30589,5.01235 -0.78079,0.11885 -4.11222,0.21516 -4.84614,0.1401 z m 4.23162,-0.62552 c 4.03605,-0.49778 7.92399,-2.09008 11.06485,-4.53159 1.12189,-0.87208 1.94728,-1.72694 2.94866,-3.05392 1.78664,-2.36756 3.05441,-3.93402 4.99064,-6.16645 4.41317,-5.08828 11.98283,-12.32454 16.28998,-15.57249 2.8862,-2.17644 5.43369,-3.58623 9.92246,-5.49111 2.63866,-1.11976 4.25782,-1.91118 5.2133,-2.54818 2.73301,-1.82204 4.38478,-4.936728 4.24721,-8.00883 -0.0715,-1.597712 -0.42897,-2.884694 -1.27712,-4.598435 -1.48954,-3.009743 -4.15747,-5.945944 -7.31532,-8.050915 -0.96734,-0.644817 -2.09915,-1.299922 -2.24965,-1.302132 -0.0417,-6.32e-4 0.24231,0.18125 0.63102,0.404138 3.29542,1.889552 5.3717,4.122805 5.85573,6.298405 0.17462,0.784908 0.11656,2.054179 -0.12729,2.782528 -0.67714,2.022511 -2.61488,4.219677 -5.02094,5.693137 -1.39458,0.854039 -2.91303,1.520868 -6.72523,2.9534 -1.22174,0.459098 -2.69802,1.035082 -3.28064,1.279965 -7.12132,2.993199 -12.88386,7.381309 -19.32983,14.719449 -0.63893,0.72736 -2.58687,3.02999 -4.32875,5.11695 -1.74188,2.08696 -3.79058,4.50568 -4.55268,5.37493 -2.4471,2.79118 -5.00035,5.29747 -6.94532,6.81758 -1.82983,1.43012 -4.19202,2.779 -5.84839,3.33961 -3.50607,1.18665 -6.99672,0.9997 -10.55871,-0.56551 -0.38606,-0.16964 -0.71432,-0.29606 -0.72945,-0.28092 -0.0151,0.0151 0.27185,0.24925 0.63776,0.52025 3.71711,2.75305 7.38775,4.31478 11.43093,4.86348 1.14482,0.15536 3.8225,0.15889 5.05678,0.007 z m -7.86799,-4.54108 c 2.78144,-0.59526 5.61562,-2.11557 8.52656,-4.57379 2.61779,-2.21068 4.8554,-4.62174 9.87918,-10.64501 4.80852,-5.76517 5.81291,-6.90607 8.27005,-9.3941 4.45073,-4.50666 8.51966,-7.55226 13.24522,-9.91406 1.97321,-0.986194 3.39316,-1.580988 6.87748,-2.880856 3.40402,-1.269912 5.02869,-2.021786 6.48222,-2.999893 2.22072,-1.49435 3.86018,-3.507516 4.35354,-5.345866 0.1832,-0.682647 0.16054,-1.832953 -0.0494,-2.508758 -0.74638,-2.402415 -3.24123,-4.608224 -7.58992,-6.710582 -2.60325,-1.258536 -5.38803,-2.256251 -6.85649,-2.4565 -5.20894,-0.71033 -11.52162,0.03987 -18.07481,2.148005 -10.87272,3.497719 -23.13888,11.040495 -31.42217,19.322294 -5.97048,5.969416 -9.43193,11.871156 -10.45347,17.823096 -0.23223,1.35306 -0.25288,4.14403 -0.0397,5.36782 0.50474,2.8978 1.53258,5.26086 3.33531,7.668 1.08147,1.44407 1.86401,2.21283 2.85569,2.80542 2.18038,1.3029 4.18223,2.0741 6.26774,2.4146 1.01061,0.165 3.3618,0.10087 4.39301,-0.11982 z"
                                   id="path3883" /></g></g></g></g></g></g></g></g></g></g></g></g></g></g></g></g></g></g></g></svg>
