<?xml version="1.0" encoding="UTF-8" standalone="no"?>
<!-- Created with Inkscape (http://www.inkscape.org/) -->

<svg
   width="64"
   height="64"
   viewBox="0 0 16.933333 16.933334"
   version="1.1"
   id="svg5"
   inkscape:version="1.2 (dc2aedaf03, 2022-05-15)"
   sodipodi:docname="longe_de_thon_rouge.svg"
   xmlns:inkscape="http://www.inkscape.org/namespaces/inkscape"
   xmlns:sodipodi="http://sodipodi.sourceforge.net/DTD/sodipodi-0.dtd"
   xmlns="http://www.w3.org/2000/svg"
   xmlns:svg="http://www.w3.org/2000/svg">
  <sodipodi:namedview
     id="namedview7"
     pagecolor="#ffffff"
     bordercolor="#666666"
     borderopacity="1.0"
     inkscape:pageshadow="2"
     inkscape:pageopacity="0.0"
     inkscape:pagecheckerboard="0"
     inkscape:document-units="mm"
     showgrid="false"
     units="px"
     inkscape:zoom="14.481547"
     inkscape:cx="18.713471"
     inkscape:cy="37.772208"
     inkscape:window-width="1920"
     inkscape:window-height="1017"
     inkscape:window-x="1912"
     inkscape:window-y="-8"
     inkscape:window-maximized="1"
     inkscape:current-layer="g9652"
     inkscape:showpageshadow="0"
     inkscape:deskcolor="#d1d1d1" />
  <defs
     id="defs2" />
  <g
     inkscape:label="Calque 1"
     inkscape:groupmode="layer"
     id="layer1">
    <g
       id="g4128"
       transform="translate(-0.63104184,0.12620835)">
      <g
         id="g5578"
         transform="translate(0.08924235,0.08924306)">
        <g
           id="g7501"
           transform="translate(-0.06310417,0.94656242)">
          <g
             id="g9467"
             transform="translate(-0.08924275,-0.80318511)">
            <g
               id="g10302"
               transform="translate(0.31234979,-0.04462139)">
              <g
                 id="g11479"
                 transform="translate(-0.12620833,0.06310418)">
                <g
                   id="g11873"
                   transform="translate(-0.23575769,0.66462456)">
                  <g
                     id="g12382"
                     transform="translate(-121.98459,-82.267525)">
                    <g
                       id="g13305"
                       transform="matrix(0.13266609,0,0,0.13266609,114.63867,78.215696)">
                      <g
                         id="g17429"
                         transform="translate(0.90513437,5.6640979)">
                        <g
                           id="g18595"
                           transform="translate(-3.3634362,-8.7449387)">
                          <g
                             id="g21002"
                             transform="translate(1.7082278,-2.8204445)">
                            <g
                               id="g23814"
                               transform="translate(8.7253043,-1.1218249)">
                              <g
                                 id="g24838"
                                 transform="translate(11.143454,-0.85716864)">
                                <g
                                   id="g25315"
                                   transform="translate(-3.490122,2.4929446)">
                                <g
                                   id="g27220"
                                   transform="translate(2.4678888,1.2339445)">
                                <g
                                   id="g29753"
                                   transform="translate(1.4759287,-2.3737724)">
                                <g
                                   id="g30615"
                                   transform="translate(0.92006037,1.3687834)">
                                <g
                                   id="g31433"
                                   transform="translate(-2.4678886,-1.410222)">
                                <g
                                   id="g31731"
                                   transform="translate(1.0576664,-0.70511063)">
                                <g
                                   id="g33243"
                                   transform="matrix(1.0772948,0,0,1.0772948,-7.3729128,-3.1743014)">
                                <g
                                   id="g35254"
                                   transform="translate(-2.2135012,-0.92031205)">
                                <g
                                   id="g36749"
                                   transform="translate(-0.98178042,-2.7817105)">
                                <g
                                   id="g37297"
                                   transform="translate(-6.7755742,-3.5033798)">
                                <g
                                   id="g38955"
                                   transform="matrix(1.2171094,0,0,1.2171094,-23.105122,-18.212482)">
                                <g
                                   id="g39618"
                                   transform="translate(-0.26888273,-0.26888316)">
                                <g
                                   id="g40032"
                                   transform="translate(-1.90129,-3.042064)">
                                <g
                                   id="g40543"
                                   transform="translate(0.3802582,-2.0914191)">
                                <g
                                   id="g41372"
                                   transform="translate(1.9657652,-7.9304203)">
                                <g
                                   id="g43278"
                                   transform="translate(1.5210324,-0.38025789)">
                                <g
                                   id="g44210"
                                   transform="matrix(1.1578947,0,0,1.1578947,-18.904476,-21.776183)">
                                <g
                                   id="g44833"
                                   transform="matrix(1.1196819,0,0,1.1196819,-12.538538,-14.547543)">
                                <g
                                   id="g47597"
                                   transform="translate(3.1109352,-1.2443743)">
                                <g
                                   id="g48754"
                                   transform="translate(-2.9035392,-6.6366609)">
                                <g
                                   id="g234"
                                   transform="matrix(0.04089637,0,0,0.04089637,104.63967,119.67231)">
                                <g
                                   id="g2138"
                                   transform="translate(-86.211222,-40.569988)">
                                <g
                                   id="g2696"
                                   transform="translate(-124306.44,-9412.2373)">
                                <g
                                   id="g3765"
                                   transform="translate(25.356243,-50.712489)">
                                <g
                                   id="g4557"
                                   transform="translate(46.61688,-35.859142)">
                                <g
                                   id="g5244"
                                   transform="translate(7.1718407,14.343658)">
                                <g
                                   id="g5807"
                                   transform="translate(-5.1984397,-21.113724)">
                                <g
                                   id="g6945"
                                   transform="translate(-10.142522,-243.41993)">
                                <g
                                   id="g11108"
                                   transform="translate(18.189368,-37.636113)">
                                <g
                                   id="g15049"
                                   transform="translate(-65.926228,141.99496)">
                                <g
                                   id="g19861"
                                   transform="matrix(0.07356842,0,0,0.07356842,115423.38,9039.2311)">
                                <g
                                   id="g20437"
                                   transform="translate(-478.38824,-785.88156)">
                                <g
                                   id="g21032"
                                   transform="translate(2047.1878,-1072.3367)">
                                <g
                                   id="g21869"
                                   transform="matrix(0.04321578,0,0,0.04321578,117368,10137.003)">
                                <g
                                   id="g25455"
                                   transform="translate(154741.46,-87178.414)">
                                <g
                                   id="g26278"
                                   transform="translate(-18012.371,-8233.4417)">
                                <g
                                   id="g27240"
                                   transform="translate(-0.00447131,5582.7624)">
                                <g
                                   id="g28306"
                                   transform="translate(-15790.441,-2255.7767)">
                                <g
                                   id="g33735"
                                   transform="translate(14662.549,-16918.328)">
                                <g
                                   id="g37868"
                                   transform="translate(-5075.4976,25941.433)">
                                <g
                                   id="g76752"
                                   transform="matrix(-1,0,0,1,9442.3174,-1595.0746)">
                                <g
                                   id="g82459"
                                   transform="translate(3383.6668,-1127.8885)">
                                <g
                                   id="g83208"
                                   transform="matrix(0.20332428,0,0,0.20332428,-15348.528,66747.475)">
                                <g
                                   id="g83934"
                                   transform="matrix(-1,0,0,1,240692.18,94139.78)">
                                <g
                                   id="g84550"
                                   transform="translate(-8.7627443e-5,55472.344)">
                                <g
                                   id="g9096"
                                   transform="translate(31379.925,-62759.843)">
                                <g
                                   id="g11527"
                                   transform="translate(61019.625,105397.54)">
                                <g
                                   id="g13422"
                                   transform="translate(-44377.907,44377.908)">
                                <g
                                   id="g1137"
                                   transform="translate(-3.3240812e-4,138680.92)">
                                <g
                                   id="g3632"
                                   transform="translate(177511.65,-22188.943)">
                                <g
                                   id="g5936"
                                   transform="translate(11767.473,-47069.909)">
                                <g
                                   id="g7318">
                                <g
                                   id="g11619"
                                   transform="translate(27457.436,-223581.94)" />
                                <g
                                   id="g11985"
                                   transform="translate(70604.821,-133364.68)">
                                <g
                                   id="g12707"
                                   transform="matrix(1.186974,0,0,1.186974,95904.637,-164033.62)">
                                <g
                                   id="g4721"
                                   transform="matrix(-1,0,0,1,-561251.4,-59483.037)">
                                <g
                                   id="g7072">
                                <g
                                   id="g10426"
                                   transform="translate(66928.962,-211126.69)">
                                <g
                                   id="g1231"
                                   transform="translate(-14020.287,4673.4667)">
                                <g
                                   id="g2516"
                                   transform="matrix(1.1495428,0,0,1.1495428,-144709.4,-78762.736)">
                                <g
                                   id="g3795"
                                   transform="translate(-22559.428,121623.52)">
                                <g
                                   id="g5627"
                                   transform="translate(-106364.63,2874.7178)">
                                <g
                                   id="g6621"
                                   transform="translate(-12196.407,40654.68)">
                                <g
                                   id="g7772"
                                   transform="translate(28747.2,74742.673)">
                                <g
                                   id="g8880"
                                   transform="translate(-60982.018,187011.51)">
                                <g
                                   id="g11165"
                                   transform="translate(-44309.499,5172.6179)">
                                <g
                                   id="g12249"
                                   transform="translate(48785.608,-8130.9328)">
                                <g
                                   id="g14000"
                                   transform="matrix(1.0831477,0,0,1.0831477,-5722.2619,28128.151)">
                                <g
                                   id="g15203"
                                   transform="translate(53158.943,24797.103)">
                                <g
                                   id="g16076"
                                   transform="translate(-37533.822,-30027.061)">
                                <g
                                   id="g17560"
                                   transform="translate(-21232.337,7962.1264)">
                                <g
                                   id="g25114"
                                   transform="translate(-67560.839,7506.7636)">
                                <g
                                   id="g29358"
                                   transform="translate(-21232.382,-47772.762)" />
                                </g>
                                <g
                                   id="g54846"
                                   transform="translate(-89414.803,-58825.532)">
                                <g
                                   id="g56152"
                                   transform="translate(-3.3655809e-4,28236.25)">
                                <g
                                   id="g56999"
                                   transform="translate(-65884.586,-28236.251)">
                                <g
                                   id="g58386"
                                   transform="translate(-26621.369,66553.488)">
                                <g
                                   id="g59580"
                                   transform="matrix(1.3336607,0,0,1.3336607,-147290.21,2462.1241)">
                                <g
                                   id="g60913"
                                   transform="translate(52929.981,10585.996)">
                                <g
                                   id="g61494"
                                   transform="translate(83376.512,12462.173)">
                                <g
                                   id="g64263"
                                   transform="translate(12959.021,17102.931)">
                                <g
                                   id="g66681"
                                   transform="translate(34932.003,-24951.435)">
                                <g
                                   id="g67253"
                                   transform="translate(-56458.648,35286.648)">
                                <g
                                   id="g67911"
                                   transform="translate(-35291.329,-19495.235)">
                                <g
                                   id="g68553"
                                   transform="translate(-128708.75,-9980.5274)">
                                <g
                                   id="g69435"
                                   transform="translate(24951.434,-1.4872907e-4)">
                                <g
                                   id="g70136"
                                   transform="translate(44108.319,-44108.311)">
                                <g
                                   id="g73710"
                                   transform="translate(2814.3438,42215.187)">
                                <g
                                   id="g75109"
                                   transform="matrix(0.86843181,0,0,0.86843181,6682.2729,-19586.27)">
                                <g
                                   id="g76838"
                                   transform="translate(18332.288,-98536.062)">
                                <g
                                   id="g77594"
                                   transform="translate(-123147.4,-132869.59)">
                                <g
                                   id="g79315"
                                   transform="translate(-41162.31,27678.708)">
                                <g
                                   id="g1224"
                                   transform="translate(18332.291,-43539.192)">
                                <g
                                   id="g8269"
                                   transform="translate(-136717.95,25318.14)">
                                <g
                                   id="g9358"
                                   transform="translate(10127.252,-81018.045)">
                                <g
                                   id="g9652"
                                   transform="translate(-21483.154,-21483.158)">
                                <path
                                   style="fill:#f38671;stroke-width:3040.2"
                                   d="m 863984.42,708792.2 c 176312.48,-20446 317224.28,-154636.07 346550.48,-330019.68 4340.1,-25956.29 4915.4,-47672.27 3822,-144264.23 -1255.1,-110866.62 -1486.5,-114468.18 -9260.7,-144110.351 -9897.1,-37736.538 -17049.4,-56384.56 -34881.7,-90946.3103 C 1107416.6,-122259.83 980608.05,-204070.96 844223.13,-210863.19 c -21836.91,-1087.5 -186345.47,4644.25 -438205.03,15267.82 -354564.684,14955.7 -406055.250496,17728.3 -426541.102,22967.68 -78915.43,20183.17 -136828.658,85845.924 -147596.398,167346.7355 -2351.08,17795.2775 -3070.6,101856.9355 -2328.25,272010.3245 941.95,215899.41 1679.08,248230.39 5979.62,262272.75 26290.07,85843.92 93893.594,142033.08 178391.52,148271.32 17721.134,1308.32 538327.39,23007.98 790777.09,32960.81 19229.24,758.1 45906.97,109.14 59283.84,-1442.05 z M 654498.76,239697.06 c -7208.43,-4224.42 -15331.63,-11077.11 -18051.54,-15228.23 l -4945.27,-7547.47 -61105.83,-937.65 -61105.84,-937.69 -8864.99,-9928.62 c -16782.13,-18795.59 -9173.65,-45605.81 14834.82,-52273.75 6194.33,-1720.39 34338.87,-3135.6 62543.42,-3144.91 l 51280.95,-16.95 12187.66,-12187.65 c 14406.09,-14406.08 38959.73,-23007.23 56517.84,-19798.21 14491.31,2648.5 35723.17,15071.35 41918.55,24526.72 l 4887.42,7459.14 102256.99,18.23 c 62393.24,9.12 106763.08,1268.26 113815.89,3226.75 7767,2156.84 13497.93,6389.95 17469.75,12903.9 7162.38,11746.56 7480.78,20685.04 1171.4,32886.03 -8792.13,17002.11 -14929.5,17850.7 -129105.07,17850.7 H 746544.28 l -8040.01,9555.03 c -4422.03,5255.26 -14936.4,12851.52 -23365.26,16880.54 -19311.14,9230.8 -41294.35,8032.81 -60640.25,-3304.63 z"
                                   id="path9662" />
                                <path
                                   style="fill:#fa6d50;stroke-width:3040.2"
                                   d="M 855603.72,708633.35 C 1059964.5,696206 1232259.3,498756.99 1213227.9,294042.14 1215452.3,185510.91 1219544.7,67806.867 1154287.7,-25481.846 1078679.2,-147405.93 932832.72,-224352.39 788962.68,-207999.25 c -263435,8360.37 -526879.45,18700.86 -790049.3767,32619.22 -99308.0433,13832.8 -178378.6033,112453.131 -166146.2533,212837.186 -45275.59,352164.314 657735.56,79746.994 -929.53,81822.654 1359.3,135501.28 -7236.01,271584.83 3992.13,406690.14 20428.87,91581.07 112902.166,158013.7 206093.305,150535.98 C 310717.12,689301.22 579676.22,703084 848640.88,709124.98 Z M -167199.07,380166.72 c 6537.57,-4842.43 -4468.84,18892.3 0,0 z M 1210073.5,243167.84 c 6827.6,1989.32 -6754,19226.67 0,0 z"
                                   id="path9660"
                                   sodipodi:nodetypes="ccccccccccccccc" />
                                <path
                                   style="fill:#e8563e;stroke-width:3040.2"
                                   d="M 855603.72,708633.35 C 1050525.2,695962.39 1218999.2,516377.4 1213507.7,320209.36 c 54.6,-24411.34 -19481.8,26234.3 -7276,-46731.56 C 1166464.3,449301.06 995459.39,587056.44 813685.98,578355.53 542075.65,568277.37 270344.65,559026.79 -993.09698,543361.28 -89160.526,534112.66 -155066.28,457150.3 -171221.5,373136.26 c 3985.6,78103.09 -10502.48,165547.77 45064.24,229557.96 39514.288,51453.71 231909.97,70758.14 167915.107,74040.62 261906.993,12619.17 523938.783,24046.2 785961.553,33213.8 9303.06,-209.42 18607.88,-558.86 27884.32,-1315.29 z M 869579.14,474838.06 C 1006698.3,451943.78 1118648,323874.82 1114335.1,183502.44 1120709.6,20516.363 966040.23,-125954.64 803539.65,-110193.11 536797.57,-100695.63 269996.31,-90915.303 3522.1043,-75747.28 -109580.9,-67936.829 -70756.627,84113.974 -71520.211,116192.98 c 513318.121,1527.67 234030.611,2056.65 -96642.269,3086.83 v 127688.28 h 96662.031 c 3913.333,48425.91 -6090.423,100041.01 12825.277,145642.44 31059.704,65305.97 227355.792,62106.49 168769.082,56025.7 243268.93,10155.03 486492.86,23566.95 729932.48,28354.17 9876.4,-197.51 19784.12,-524.58 29552.75,-2152.34 z M 660265.13,244338.37 c -11214.11,-8670.18 -18679.43,-25812.69 -29606.03,-26941.46 -11867.61,-1225.98 -22150.86,-1661.74 -34314.97,-830.79 -69264.5,-6390.49 -73228.06,8292.61 -104409.05,-19987.29 -15240.94,-57322.85 128988.38,-46591.79 93265.59,-46897.04 19522.45,-2135.64 44026.2,7754.68 55699.32,-13330.91 30069.58,-33488.33 83720.93,-21375.61 107229.6,13330.91 71856.01,1225.66 144065.18,-3139.86 215634.19,3423.94 52952.42,56446.4 -15833.73,64683.71 -58293.11,63337.57 -52706.17,226.44 -105413.21,81.34 -158119.8,122.82 -16771.21,29507.85 -56312.71,40330.25 -87085.74,27772.25 z"
                                   id="path9658"
                                   sodipodi:nodetypes="cccccccccccccccccccccccsccccccccc" />
                                <path
                                   style="fill:#d74734;stroke-width:3040.2"
                                   d="m 319789.15,241916.4 c 22836.65,-12039.18 35396.58,-32319.66 35396.58,-57154.82 0,-27702.76 -13044.85,-48302.64 -37664.05,-59477.56 -12326.78,-5595.27 -21740.17,-5873.81 -200665.68,-5937.44 l -187732.175,-66.77 v 63844.14 63844.14 l 190772.365,-121.61 c 167920.51,-107.01 191864.89,-697.67 199892.96,-4929.95 z"
                                   id="path9656"
                                   sodipodi:nodetypes="sssscccsss" />
                                <path
                                   style="fill:#646c77;stroke-width:3040.2"
                                   d="M 855603.72,708633.35 C 1038107.6,696379.1 1198213.5,538852.46 1212217.9,356509.08 c 65,-30913.85 -6169.1,-121332.47 -253,-110366.89 -27887.4,179856.9 -191855.1,330013.09 -375495.26,332093.19 C 571350,571401.17 306340.09,558493.74 41388.383,546487.41 -37474.59,550473.76 -116887.96,506704.4 -150230.73,434202.31 c 515.24,-799.88 -16807.28,-34785.03 -20767.57,-49364.14 3454.32,71078.94 -8610.99,149564.07 38529.68,209554.19 37233.193,52957.86 100605.363,84754.83 165322.363,81822.79 264864.517,12968.96 529874.497,24468.74 794865.657,33733.49 9303.06,-209.42 18607.88,-558.86 27884.32,-1315.29 z"
                                   id="path9654" />
                                </g>
                                </g>
                                </g>
                                </g>
                                </g>
                                </g>
                                </g>
                                </g>
                                </g>
                                </g>
                                </g>
                                </g>
                                </g>
                                </g>
                                </g>
                                </g>
                                </g>
                                </g>
                                </g>
                                </g>
                                </g>
                                </g>
                                </g>
                                </g>
                                </g>
                                </g>
                                </g>
                                </g>
                                </g>
                                </g>
                                </g>
                                </g>
                                </g>
                                </g>
                                </g>
                                </g>
                                </g>
                                </g>
                                </g>
                                </g>
                                </g>
                                </g>
                                </g>
                                </g>
                                </g>
                                </g>
                                </g>
                                </g>
                                </g>
                                </g>
                                </g>
                                </g>
                                </g>
                                </g>
                                </g>
                                </g>
                                </g>
                                </g>
                                </g>
                                </g>
                                </g>
                                </g>
                                </g>
                                </g>
                                </g>
                                </g>
                                </g>
                                </g>
                                </g>
                                </g>
                                </g>
                                </g>
                                </g>
                                </g>
                                </g>
                                </g>
                                </g>
                                </g>
                                </g>
                                </g>
                                </g>
                                </g>
                                </g>
                                </g>
                                </g>
                                </g>
                                </g>
                                </g>
                                </g>
                                </g>
                                </g>
                                </g>
                                </g>
                              </g>
                            </g>
                          </g>
                        </g>
                      </g>
                    </g>
                  </g>
                </g>
              </g>
            </g>
          </g>
        </g>
      </g>
    </g>
  </g>
</svg>
