<?xml version="1.0" encoding="UTF-8" standalone="no"?>
<!-- Created with Inkscape (http://www.inkscape.org/) -->

<svg
   width="64"
   height="64"
   viewBox="0 0 16.933333 16.933334"
   version="1.1"
   id="svg5"
   inkscape:version="1.2 (dc2aedaf03, 2022-05-15)"
   sodipodi:docname="macaroni.svg"
   xmlns:inkscape="http://www.inkscape.org/namespaces/inkscape"
   xmlns:sodipodi="http://sodipodi.sourceforge.net/DTD/sodipodi-0.dtd"
   xmlns="http://www.w3.org/2000/svg"
   xmlns:svg="http://www.w3.org/2000/svg">
  <sodipodi:namedview
     id="namedview7"
     pagecolor="#ffffff"
     bordercolor="#666666"
     borderopacity="1.0"
     inkscape:pageshadow="2"
     inkscape:pageopacity="0.0"
     inkscape:pagecheckerboard="0"
     inkscape:document-units="mm"
     showgrid="false"
     units="px"
     inkscape:zoom="14.481547"
     inkscape:cx="35.907766"
     inkscape:cy="38.462742"
     inkscape:window-width="1920"
     inkscape:window-height="1017"
     inkscape:window-x="3832"
     inkscape:window-y="-8"
     inkscape:window-maximized="1"
     inkscape:current-layer="g8269"
     inkscape:showpageshadow="0"
     inkscape:deskcolor="#d1d1d1" />
  <defs
     id="defs2" />
  <g
     inkscape:label="Calque 1"
     inkscape:groupmode="layer"
     id="layer1">
    <g
       id="g4128"
       transform="translate(-0.63104184,0.12620835)">
      <g
         id="g5578"
         transform="translate(0.08924235,0.08924306)">
        <g
           id="g7501"
           transform="translate(-0.06310417,0.94656242)">
          <g
             id="g9467"
             transform="translate(-0.08924275,-0.80318511)">
            <g
               id="g10302"
               transform="translate(0.31234979,-0.04462139)">
              <g
                 id="g11479"
                 transform="translate(-0.12620833,0.06310418)">
                <g
                   id="g11873"
                   transform="translate(-0.23575769,0.66462456)">
                  <g
                     id="g12382"
                     transform="translate(-121.98459,-82.267525)">
                    <g
                       id="g13305"
                       transform="matrix(0.13266609,0,0,0.13266609,114.63867,78.215696)">
                      <g
                         id="g17429"
                         transform="translate(0.90513437,5.6640979)">
                        <g
                           id="g18595"
                           transform="translate(-3.3634362,-8.7449387)">
                          <g
                             id="g21002"
                             transform="translate(1.7082278,-2.8204445)">
                            <g
                               id="g23814"
                               transform="translate(8.7253043,-1.1218249)">
                              <g
                                 id="g24838"
                                 transform="translate(11.143454,-0.85716864)">
                                <g
                                   id="g25315"
                                   transform="translate(-3.490122,2.4929446)">
                                <g
                                   id="g27220"
                                   transform="translate(2.4678888,1.2339445)">
                                <g
                                   id="g29753"
                                   transform="translate(1.4759287,-2.3737724)">
                                <g
                                   id="g30615"
                                   transform="translate(0.92006037,1.3687834)">
                                <g
                                   id="g31433"
                                   transform="translate(-2.4678886,-1.410222)">
                                <g
                                   id="g31731"
                                   transform="translate(1.0576664,-0.70511063)">
                                <g
                                   id="g33243"
                                   transform="matrix(1.0772948,0,0,1.0772948,-7.3729128,-3.1743014)">
                                <g
                                   id="g35254"
                                   transform="translate(-2.2135012,-0.92031205)">
                                <g
                                   id="g36749"
                                   transform="translate(-0.98178042,-2.7817105)">
                                <g
                                   id="g37297"
                                   transform="translate(-6.7755742,-3.5033798)">
                                <g
                                   id="g38955"
                                   transform="matrix(1.2171094,0,0,1.2171094,-23.105122,-18.212482)">
                                <g
                                   id="g39618"
                                   transform="translate(-0.26888273,-0.26888316)">
                                <g
                                   id="g40032"
                                   transform="translate(-1.90129,-3.042064)">
                                <g
                                   id="g40543"
                                   transform="translate(0.3802582,-2.0914191)">
                                <g
                                   id="g41372"
                                   transform="translate(1.9657652,-7.9304203)">
                                <g
                                   id="g43278"
                                   transform="translate(1.5210324,-0.38025789)">
                                <g
                                   id="g44210"
                                   transform="matrix(1.1578947,0,0,1.1578947,-18.904476,-21.776183)">
                                <g
                                   id="g44833"
                                   transform="matrix(1.1196819,0,0,1.1196819,-12.538538,-14.547543)">
                                <g
                                   id="g47597"
                                   transform="translate(3.1109352,-1.2443743)">
                                <g
                                   id="g48754"
                                   transform="translate(-2.9035392,-6.6366609)">
                                <g
                                   id="g234"
                                   transform="matrix(0.04089637,0,0,0.04089637,104.63967,119.67231)">
                                <g
                                   id="g2138"
                                   transform="translate(-86.211222,-40.569988)">
                                <g
                                   id="g2696"
                                   transform="translate(-124306.44,-9412.2373)">
                                <g
                                   id="g3765"
                                   transform="translate(25.356243,-50.712489)">
                                <g
                                   id="g4557"
                                   transform="translate(46.61688,-35.859142)">
                                <g
                                   id="g5244"
                                   transform="translate(7.1718407,14.343658)">
                                <g
                                   id="g5807"
                                   transform="translate(-5.1984397,-21.113724)">
                                <g
                                   id="g6945"
                                   transform="translate(-10.142522,-243.41993)">
                                <g
                                   id="g11108"
                                   transform="translate(18.189368,-37.636113)">
                                <g
                                   id="g15049"
                                   transform="translate(-65.926228,141.99496)">
                                <g
                                   id="g19861"
                                   transform="matrix(0.07356842,0,0,0.07356842,115423.38,9039.2311)">
                                <g
                                   id="g20437"
                                   transform="translate(-478.38824,-785.88156)">
                                <g
                                   id="g21032"
                                   transform="translate(2047.1878,-1072.3367)">
                                <g
                                   id="g21869"
                                   transform="matrix(0.04321578,0,0,0.04321578,117368,10137.003)">
                                <g
                                   id="g25455"
                                   transform="translate(154741.46,-87178.414)">
                                <g
                                   id="g26278"
                                   transform="translate(-18012.371,-8233.4417)">
                                <g
                                   id="g27240"
                                   transform="translate(-0.00447131,5582.7624)">
                                <g
                                   id="g28306"
                                   transform="translate(-15790.441,-2255.7767)">
                                <g
                                   id="g33735"
                                   transform="translate(14662.549,-16918.328)">
                                <g
                                   id="g37868"
                                   transform="translate(-5075.4976,25941.433)">
                                <g
                                   id="g76752"
                                   transform="matrix(-1,0,0,1,9442.3174,-1595.0746)">
                                <g
                                   id="g82459"
                                   transform="translate(3383.6668,-1127.8885)">
                                <g
                                   id="g83208"
                                   transform="matrix(0.20332428,0,0,0.20332428,-15348.528,66747.475)">
                                <g
                                   id="g83934"
                                   transform="matrix(-1,0,0,1,240692.18,94139.78)">
                                <g
                                   id="g84550"
                                   transform="translate(-8.7627443e-5,55472.344)">
                                <g
                                   id="g9096"
                                   transform="translate(31379.925,-62759.843)">
                                <g
                                   id="g11527"
                                   transform="translate(61019.625,105397.54)">
                                <g
                                   id="g13422"
                                   transform="translate(-44377.907,44377.908)">
                                <g
                                   id="g1137"
                                   transform="translate(-3.3240812e-4,138680.92)">
                                <g
                                   id="g3632"
                                   transform="translate(177511.65,-22188.943)">
                                <g
                                   id="g5936"
                                   transform="translate(11767.473,-47069.909)">
                                <g
                                   id="g7318">
                                <g
                                   id="g11619"
                                   transform="translate(27457.436,-223581.94)" />
                                <g
                                   id="g11985"
                                   transform="translate(70604.821,-133364.68)">
                                <g
                                   id="g12707"
                                   transform="matrix(1.186974,0,0,1.186974,95904.637,-164033.62)">
                                <g
                                   id="g4721"
                                   transform="matrix(-1,0,0,1,-561251.4,-59483.037)">
                                <g
                                   id="g7072">
                                <g
                                   id="g10426"
                                   transform="translate(66928.962,-211126.69)">
                                <g
                                   id="g1231"
                                   transform="translate(-14020.287,4673.4667)">
                                <g
                                   id="g2516"
                                   transform="matrix(1.1495428,0,0,1.1495428,-144709.4,-78762.736)">
                                <g
                                   id="g3795"
                                   transform="translate(-22559.428,121623.52)">
                                <g
                                   id="g5627"
                                   transform="translate(-106364.63,2874.7178)">
                                <g
                                   id="g6621"
                                   transform="translate(-12196.407,40654.68)">
                                <g
                                   id="g7772"
                                   transform="translate(28747.2,74742.673)">
                                <g
                                   id="g8880"
                                   transform="translate(-60982.018,187011.51)">
                                <g
                                   id="g11165"
                                   transform="translate(-44309.499,5172.6179)">
                                <g
                                   id="g12249"
                                   transform="translate(48785.608,-8130.9328)">
                                <g
                                   id="g14000"
                                   transform="matrix(1.0831477,0,0,1.0831477,-5722.2619,28128.151)">
                                <g
                                   id="g15203"
                                   transform="translate(53158.943,24797.103)">
                                <g
                                   id="g16076"
                                   transform="translate(-37533.822,-30027.061)">
                                <g
                                   id="g17560"
                                   transform="translate(-21232.337,7962.1264)">
                                <g
                                   id="g25114"
                                   transform="translate(-67560.839,7506.7636)">
                                <g
                                   id="g29358"
                                   transform="translate(-21232.382,-47772.762)" />
                                </g>
                                <g
                                   id="g54846"
                                   transform="translate(-89414.803,-58825.532)">
                                <g
                                   id="g56152"
                                   transform="translate(-3.3655809e-4,28236.25)">
                                <g
                                   id="g56999"
                                   transform="translate(-65884.586,-28236.251)">
                                <g
                                   id="g58386"
                                   transform="translate(-26621.369,66553.488)">
                                <g
                                   id="g59580"
                                   transform="matrix(1.3336607,0,0,1.3336607,-147290.21,2462.1241)">
                                <g
                                   id="g60913"
                                   transform="translate(52929.981,10585.996)">
                                <g
                                   id="g61494"
                                   transform="translate(83376.512,12462.173)">
                                <g
                                   id="g64263"
                                   transform="translate(12959.021,17102.931)">
                                <g
                                   id="g66681"
                                   transform="translate(34932.003,-24951.435)">
                                <g
                                   id="g67253"
                                   transform="translate(-56458.648,35286.648)">
                                <g
                                   id="g67911"
                                   transform="translate(-35291.329,-19495.235)">
                                <g
                                   id="g68553"
                                   transform="translate(-128708.75,-9980.5274)">
                                <g
                                   id="g69435"
                                   transform="translate(24951.434,-1.4872907e-4)">
                                <g
                                   id="g70136"
                                   transform="translate(44108.319,-44108.311)">
                                <g
                                   id="g73710"
                                   transform="translate(2814.3438,42215.187)">
                                <g
                                   id="g75109"
                                   transform="matrix(0.86843181,0,0,0.86843181,6682.2729,-19586.27)">
                                <g
                                   id="g76838"
                                   transform="translate(18332.288,-98536.062)">
                                <g
                                   id="g77594"
                                   transform="translate(-123147.4,-132869.59)">
                                <g
                                   id="g79315"
                                   transform="translate(-41162.31,27678.708)">
                                <g
                                   id="g1224"
                                   transform="translate(18332.291,-43539.192)">
                                <g
                                   id="g8269"
                                   transform="translate(-136717.95,25318.14)">
                                <path
                                   style="fill:#fce67d;stroke-width:476.01"
                                   d="m 627080.32,177303.75 c 8350.32,12632.36 18222.48,27966.04 26308.64,40863.23 22004.07,35095.86 72193.91,120258.84 95555.1,162139.45 13030.48,23360.35 30786.62,56039.16 35701.83,65706.49 839.46,1651.07 4002.18,7810.3 7028.26,13687.18 23810.39,46241.51 40852.71,83579.58 57227.18,125379.26 6864.25,17522.6 7793,19755.91 17393.29,41824.49 32768.44,75326.25 47337.32,116902.14 52287.11,149214.13 2820.51,18412.14 1897.53,30468 -3026.94,39537.43 -8102.31,14922.07 -27393.24,32944.56 -53212.96,49714.01 -50267.73,32647.99 -107113.01,51781.56 -151424.71,50968.08 -9260.98,-170.02 -26434.4,-3026.32 -33692.27,-5603.74 -5960.05,-2116.54 -14734.04,-6534.45 -19175.01,-9655.08 -9976.48,-7010.36 -18392.22,-16464.6 -22955.52,-25788.19 -1901.1,-3884.28 -9130.07,-22284.02 -12654.89,-32210.24 -910.22,-2563.24 -2897.25,-8111.25 -4415.63,-12328.9 -1518.38,-4217.66 -6997.47,-19628.25 -12175.76,-34245.77 -5178.29,-14617.52 -11541.36,-32551.61 -14140.16,-39853.53 -2598.8,-7301.92 -5879.72,-16526.66 -7290.94,-20499.42 C 564638.11,680472.71 543376.86,625546.88 531346.99,599052.95 522779.83,580185.09 501166.44,538234.18 487554.95,514053.98 471540.01,485604.15 458748.13,464888.83 439291,435894.8 425215.16,414919.68 326974.84,277500.43 320252.2,269382.48 c -2093.28,-2527.75 -5728.5,-6909.18 -8078.28,-9736.51 C 239355.89,172028.67 115784.55,65156.313 -987.29104,-11195.758 -28277.849,-29039.887 -51015.902,-42478.903 -77600.121,-56476.714 c -14510.702,-7640.559 -18648.709,-10411.528 -24925.099,-16690.899 -3462.44,-3464.086 -4854.85,-5232.089 -8994.51,-11420.72 -7542.49,-11275.736 -12351.7,-22694.827 -15626.01,-37102.817 -7410.53,-32608.59 -3987.57,-66311.03 10520.61,-103585.8 11961.92,-30732.87 29630.518,-57574.17 51137.8,-77686.13 8068.388,-7544.96 25439.027,-19957.86 34762.801,-24841.22 39652.0204,-20767.79 82751.245,-24789.77 109610.386,-10228.7 11439.672,6201.76 62920.603,39437.94 93721.023,60506.45 14719.23,10068.46 16240.7,11119.24 22727.66,15696.8 153664.71,108434.46 268835.09,218558.999 374300.09,357901.313 10112.89,13361.327 47935.22,66844.727 57445.49,81232.327 z"
                                   id="path8281" />
                                <path
                                   style="fill:#fbd46d;stroke-width:476.01"
                                   d="m 624052.57,173031.8 c 94982.23,148105.35 184117.57,301204.19 247259.8,465905.4 20539.03,55434.11 55211.1,112507.68 45758.12,173234.74 C 876909.87,870737.51 805047.33,902190.26 736776.34,914633.16 662979.38,934119.87 596607.01,739692.43 608082.29,802404.34 563275.44,669803.26 513265.54,536969.3 430308.15,422836.43 363714.99,327621.96 298407.28,229918.28 209714.54,153393.38 117792.48,69621.518 17951.598,-6538.1682 -92151.645,-64908.899 -152708.05,-114919.52 -133408.78,-209990.16 -94530.07,-267904.31 -56901.504,-328969.92 33808.16,-373910.08 98115.559,-326123.72 305402.52,-198188.69 489900.98,-31298.411 624052.57,173031.8 Z M 453651.52,312885.33 C 380812.14,211982.61 294159.75,121827.85 206080.97,34279.533 182835.2,-9051.2191 23114.754,-95927.766 51365.445,-74454.695 76670.819,-14049.376 380413.69,251942.06 455910.92,373343.74 c 93133.31,147700.88 185446.06,298746.49 237409.26,466706.28 6557.73,9633.62 25859.69,92525.01 1335.15,54163.79 26299.47,9321.27 -21108.54,-3699.67 54725.03,-10765.94 C 718197.54,815142.47 679035.85,696889.79 691258.47,727888.97 632133.55,579200.8 546905.9,442325.41 453651.52,312885.33 Z"
                                   id="path8279"
                                   sodipodi:nodetypes="cccccccccccccccccccc" />
                                <path
                                   style="fill:#f3b93b;stroke-width:476.01"
                                   d="m 620616.06,168174.4 c 94577.03,147179.33 184258.4,299008.96 247131.96,462788.39 21810.4,56995.78 55470.69,114873.03 50490.01,177630.81 -32494.95,55970.55 -98445.38,83939.78 -158186.02,101603.77 C 691080.81,904372.38 610728.05,776014.55 625790.34,851257.21 574995.63,708406.36 528564.03,561322.14 439856.2,436317.82 367397.29,332252.22 296536.51,225149.45 198428.95,142870.72 109213.91,63209.651 12954.82,-9538.7111 -93007.09,-65539.842 c -61031.77,-52983.728 -39246.83,-150027.228 2786.692,-208484.128 39936.661,-59828.18 132374.371,-99809.84 193986.648,-48404.09 203197.27,126574.04 384335.4,290183.679 516849.81,490602.46 z M 576191.37,141591.52 C 508647.11,51004.73 437518.11,-37748.667 350309.72,-110369.03 281890.54,-176322.08 204652.36,-231810.94 124019.29,-281714.39 c 6259.5,41384.57 76455.83,69608.75 89461.42,85045.8 315676.82,256785.183 545639.2,608671.3 682992.11,989754.27 4051.38,34298.02 35843.82,5729.41 -30234.75,45753.1 60390.85,-32788.61 -8181.38,-196632.28 7182.79,-148676.77 C 803377.25,513638.44 713548.04,344650.07 608434.2,186534.44 597829.31,171452.37 587183.07,156395.36 576191.37,141591.52 Z M 495431.63,286521.16 C 382976.87,138858.03 255926.15,-1085.3789 100069.78,-103874.31 84735.337,-135980.27 107490.69,-242138.05 118213.06,-219484.78 102899.96,-144966.9 48061.435,-80952.544 -24089.552,-55932.99 7688.182,-18141.231 162771.41,83817.032 119399.07,46713.024 255787.78,146962.92 361536.04,282762.93 456573.63,421268.54 c 66852.62,100259.87 113489.74,212415.22 154968.89,325052.22 27528.72,47214.52 148028.07,160520.7 83256.89,147926.74 26153,49068.98 229938.8,-115405.87 131121.57,-46251.62 C 738929.03,648471.8 625537.8,460782.6 495431.63,286521.16 Z"
                                   id="path8275"
                                   sodipodi:nodetypes="cccccccccccccccccccccccccccccc" />
                                <path
                                   style="fill:#cb8c02;stroke-width:476.01"
                                   d="m 612382.47,156215.1 c 87366.71,134380.44 170765.39,272754.27 232982.36,420797.77 26298.46,74745.54 73617.03,146187.04 73505.24,227453.34 -22374.72,52107.56 -180819.42,117724.8 -131102.4,97307.5 C 648347.06,953381.49 606176.69,809944.47 632898.57,869501.75 579987.5,727184.51 537268.22,578776.54 450584.38,452047.68 375952.32,344653.63 304042.21,233136.07 203588.2,147477.75 112553.12,65019.794 13337.355,-9106.1741 -95077.943,-67168.551 c -58451.347,-55320.619 -36378.967,-149749.769 5917.151,-208142.839 40444.637,-59738.8 133476.343,-98342.27 194602.242,-45936.84 198439.37,123750.88 375681.42,282938.847 506941.02,477463.33 z m -31681.46,-9067.78 C 511058.09,53359.278 437750.19,-38615.756 347381.13,-113494.13 277819.22,-179697.26 199840.65,-236431.78 117431.26,-285337.3 135441.39,-189440.98 69779.724,-88649.652 -21786.5,-57603.648 -12931.351,-24155.899 86101.173,18592.391 94226.385,29249.388 245189.25,132530.72 360054.49,279552.32 461598.66,429602.75 c 63888.45,97916.21 109029.55,206784.82 149414.68,316078.11 26223.88,46362.29 39337.52,127391.26 74298.68,146867.53 72058.27,12528.94 146634.07,-21315.12 199146.44,-69364.02 C 924458.71,775812.22 851045.78,611632.06 862964.94,662177.65 788924.82,487170.79 700052.36,317404.45 591170.99,161437.07 l -5316.73,-7303.92 -5153.24,-6985.84 z M 90068.025,-308332.59 c -52154.146,-47616.88 -129414.239,-7936.14 -162470.243,43062.97 -37100.712,48574.03 -61544.982,128605.69 -13343.882,177543.421 44816.163,32769.926 176794.622,-66422.671 141748.759,-32680.281 42724.772,-44359.93 66134.211,-114461.35 45123.411,-173883.69 L 96186.547,-301232 Z m -10044.526,25447.63 c 25281.361,73870.05 -24820.734,156164.34 -90992.546,189033.459 -108737.203,28409.586 -76113.036,-123066.319 -80503.822,-96204.499 16652.581,-57018.45 60068.318,-120337.69 124728.755,-123041.77 18473.829,2706.52 38087.884,13028.99 46767.613,30212.81 z m -38914.204,-21490.82 c -69555.421,299.15 -130830.943,90530.29 -125915.911,136523.95 54346.438,149887.493 108030.891,-4084.91 133935.934,-42263.42 10333.477,-29380.44 13989.315,-83536.01 -8020.023,-94260.53 z m -54083.584,196305.81 c 869.637,405.21 1693.234,-2145.02 0,0 z"
                                   id="path8271"
                                   sodipodi:nodetypes="cccccccccccsccccccccccccscccccccccccccccccc" />
                                </g>
                                </g>
                                </g>
                                </g>
                                </g>
                                </g>
                                </g>
                                </g>
                                </g>
                                </g>
                                </g>
                                </g>
                                </g>
                                </g>
                                </g>
                                </g>
                                </g>
                                </g>
                                </g>
                                </g>
                                </g>
                                </g>
                                </g>
                                </g>
                                </g>
                                </g>
                                </g>
                                </g>
                                </g>
                                </g>
                                </g>
                                </g>
                                </g>
                                </g>
                                </g>
                                </g>
                                </g>
                                </g>
                                </g>
                                </g>
                                </g>
                                </g>
                                </g>
                                </g>
                                </g>
                                </g>
                                </g>
                                </g>
                                </g>
                                </g>
                                </g>
                                </g>
                                </g>
                                </g>
                                </g>
                                </g>
                                </g>
                                </g>
                                </g>
                                </g>
                                </g>
                                </g>
                                </g>
                                </g>
                                </g>
                                </g>
                                </g>
                                </g>
                                </g>
                                </g>
                                </g>
                                </g>
                                </g>
                                </g>
                                </g>
                                </g>
                                </g>
                                </g>
                                </g>
                                </g>
                                </g>
                                </g>
                                </g>
                                </g>
                                </g>
                                </g>
                                </g>
                                </g>
                                </g>
                                </g>
                                </g>
                              </g>
                            </g>
                          </g>
                        </g>
                      </g>
                    </g>
                  </g>
                </g>
              </g>
            </g>
          </g>
        </g>
      </g>
    </g>
  </g>
</svg>
