<?xml version="1.0" encoding="UTF-8" standalone="no"?>
<!-- Created with Inkscape (http://www.inkscape.org/) -->

<svg
   width="64"
   height="64"
   viewBox="0 0 16.933333 16.933334"
   version="1.1"
   id="svg5"
   inkscape:version="1.2 (dc2aedaf03, 2022-05-15)"
   sodipodi:docname="mont_dor.svg"
   xml:space="preserve"
   xmlns:inkscape="http://www.inkscape.org/namespaces/inkscape"
   xmlns:sodipodi="http://sodipodi.sourceforge.net/DTD/sodipodi-0.dtd"
   xmlns="http://www.w3.org/2000/svg"
   xmlns:svg="http://www.w3.org/2000/svg"><sodipodi:namedview
     id="namedview7"
     pagecolor="#ffffff"
     bordercolor="#666666"
     borderopacity="1.0"
     inkscape:pageshadow="2"
     inkscape:pageopacity="0.0"
     inkscape:pagecheckerboard="0"
     inkscape:document-units="mm"
     showgrid="false"
     units="px"
     inkscape:zoom="8"
     inkscape:cx="28.5"
     inkscape:cy="38"
     inkscape:window-width="1920"
     inkscape:window-height="1017"
     inkscape:window-x="1912"
     inkscape:window-y="-8"
     inkscape:window-maximized="1"
     inkscape:current-layer="g4282"
     inkscape:showpageshadow="2"
     inkscape:deskcolor="#d1d1d1"
     showguides="true" /><defs
     id="defs2"><pattern
       id="EMFhbasepattern"
       patternUnits="userSpaceOnUse"
       width="6"
       height="6"
       x="0"
       y="0" /><pattern
       id="EMFhbasepattern-5"
       patternUnits="userSpaceOnUse"
       width="6"
       height="6"
       x="0"
       y="0" /><pattern
       id="EMFhbasepattern-56"
       patternUnits="userSpaceOnUse"
       width="6"
       height="6"
       x="0"
       y="0" /><pattern
       id="EMFhbasepattern-6"
       patternUnits="userSpaceOnUse"
       width="6"
       height="6"
       x="0"
       y="0" /><pattern
       id="EMFhbasepattern-62"
       patternUnits="userSpaceOnUse"
       width="6"
       height="6"
       x="0"
       y="0" /><pattern
       id="EMFhbasepattern-8"
       patternUnits="userSpaceOnUse"
       width="6"
       height="6"
       x="0"
       y="0" /><pattern
       id="EMFhbasepattern-81"
       patternUnits="userSpaceOnUse"
       width="6"
       height="6"
       x="0"
       y="0" /><pattern
       id="EMFhbasepattern-9"
       patternUnits="userSpaceOnUse"
       width="6"
       height="6"
       x="0"
       y="0" /><pattern
       id="EMFhbasepattern-52"
       patternUnits="userSpaceOnUse"
       width="6"
       height="6"
       x="0"
       y="0" /><pattern
       id="EMFhbasepattern-0"
       patternUnits="userSpaceOnUse"
       width="6"
       height="6"
       x="0"
       y="0" /><pattern
       id="EMFhbasepattern-7"
       patternUnits="userSpaceOnUse"
       width="6"
       height="6"
       x="0"
       y="0" /><pattern
       id="EMFhbasepattern-65"
       patternUnits="userSpaceOnUse"
       width="6"
       height="6"
       x="0"
       y="0" /><pattern
       id="EMFhbasepattern-3"
       patternUnits="userSpaceOnUse"
       width="6"
       height="6"
       x="0"
       y="0" /><pattern
       id="EMFhbasepattern-90"
       patternUnits="userSpaceOnUse"
       width="6"
       height="6"
       x="0"
       y="0" /><pattern
       id="EMFhbasepattern-4"
       patternUnits="userSpaceOnUse"
       width="6"
       height="6"
       x="0"
       y="0" /><pattern
       id="EMFhbasepattern-2"
       patternUnits="userSpaceOnUse"
       width="6"
       height="6"
       x="0"
       y="0" /><pattern
       id="EMFhbasepattern-40"
       patternUnits="userSpaceOnUse"
       width="6"
       height="6"
       x="0"
       y="0" /><pattern
       id="EMFhbasepattern-74"
       patternUnits="userSpaceOnUse"
       width="6"
       height="6"
       x="0"
       y="0" /><pattern
       id="EMFhbasepattern-656"
       patternUnits="userSpaceOnUse"
       width="6"
       height="6"
       x="0"
       y="0" /><pattern
       id="EMFhbasepattern-76"
       patternUnits="userSpaceOnUse"
       width="6"
       height="6"
       x="0"
       y="0" /><pattern
       id="EMFhbasepattern-1"
       patternUnits="userSpaceOnUse"
       width="6"
       height="6"
       x="0"
       y="0" /><pattern
       id="EMFhbasepattern-42"
       patternUnits="userSpaceOnUse"
       width="6"
       height="6"
       x="0"
       y="0" /><pattern
       id="EMFhbasepattern-73"
       patternUnits="userSpaceOnUse"
       width="6"
       height="6"
       x="0"
       y="0" /><pattern
       id="EMFhbasepattern-566"
       patternUnits="userSpaceOnUse"
       width="6"
       height="6"
       x="0"
       y="0" /><pattern
       id="EMFhbasepattern-71"
       patternUnits="userSpaceOnUse"
       width="6"
       height="6"
       x="0"
       y="0" /><pattern
       id="EMFhbasepattern-31"
       patternUnits="userSpaceOnUse"
       width="6"
       height="6"
       x="0"
       y="0" /><pattern
       id="EMFhbasepattern-60"
       patternUnits="userSpaceOnUse"
       width="6"
       height="6"
       x="0"
       y="0" /><pattern
       id="EMFhbasepattern-28"
       patternUnits="userSpaceOnUse"
       width="6"
       height="6"
       x="0"
       y="0" /><pattern
       id="EMFhbasepattern-02"
       patternUnits="userSpaceOnUse"
       width="6"
       height="6"
       x="0"
       y="0" /><pattern
       id="EMFhbasepattern-57"
       patternUnits="userSpaceOnUse"
       width="6"
       height="6"
       x="0"
       y="0" /><pattern
       id="EMFhbasepattern-50"
       patternUnits="userSpaceOnUse"
       width="6"
       height="6"
       x="0"
       y="0" /><pattern
       id="EMFhbasepattern-45"
       patternUnits="userSpaceOnUse"
       width="6"
       height="6"
       x="0"
       y="0" /><pattern
       id="EMFhbasepattern-33"
       patternUnits="userSpaceOnUse"
       width="6"
       height="6"
       x="0"
       y="0" /><pattern
       id="EMFhbasepattern-21"
       patternUnits="userSpaceOnUse"
       width="6"
       height="6"
       x="0"
       y="0" /><pattern
       id="EMFhbasepattern-818"
       patternUnits="userSpaceOnUse"
       width="6"
       height="6"
       x="0"
       y="0" /><pattern
       id="EMFhbasepattern-32"
       patternUnits="userSpaceOnUse"
       width="6"
       height="6"
       x="0"
       y="0" /><pattern
       id="EMFhbasepattern-38"
       patternUnits="userSpaceOnUse"
       width="6"
       height="6"
       x="0"
       y="0" /><pattern
       id="EMFhbasepattern-39"
       patternUnits="userSpaceOnUse"
       width="6"
       height="6"
       x="0"
       y="0" /><pattern
       id="EMFhbasepattern-86"
       patternUnits="userSpaceOnUse"
       width="6"
       height="6"
       x="0"
       y="0" /><pattern
       id="EMFhbasepattern-07"
       patternUnits="userSpaceOnUse"
       width="6"
       height="6"
       x="0"
       y="0" /><pattern
       id="EMFhbasepattern-524"
       patternUnits="userSpaceOnUse"
       width="6"
       height="6"
       x="0"
       y="0" /><pattern
       id="EMFhbasepattern-508"
       patternUnits="userSpaceOnUse"
       width="6"
       height="6"
       x="0"
       y="0" /><pattern
       id="EMFhbasepattern-217"
       patternUnits="userSpaceOnUse"
       width="6"
       height="6"
       x="0"
       y="0" /><pattern
       id="EMFhbasepattern-84"
       patternUnits="userSpaceOnUse"
       width="6"
       height="6"
       x="0"
       y="0" /><pattern
       id="EMFhbasepattern-96"
       patternUnits="userSpaceOnUse"
       width="6"
       height="6"
       x="0"
       y="0" /><pattern
       id="EMFhbasepattern-48"
       patternUnits="userSpaceOnUse"
       width="6"
       height="6"
       x="0"
       y="0" /><pattern
       id="EMFhbasepattern-23"
       patternUnits="userSpaceOnUse"
       width="6"
       height="6"
       x="0"
       y="0" /><pattern
       id="EMFhbasepattern-36"
       patternUnits="userSpaceOnUse"
       width="6"
       height="6"
       x="0"
       y="0" /><pattern
       id="EMFhbasepattern-900"
       patternUnits="userSpaceOnUse"
       width="6"
       height="6"
       x="0"
       y="0" /><pattern
       id="EMFhbasepattern-37"
       patternUnits="userSpaceOnUse"
       width="6"
       height="6"
       x="0"
       y="0" /><pattern
       id="EMFhbasepattern-11"
       patternUnits="userSpaceOnUse"
       width="6"
       height="6"
       x="0"
       y="0" /><pattern
       id="EMFhbasepattern-95"
       patternUnits="userSpaceOnUse"
       width="6"
       height="6"
       x="0"
       y="0" /><pattern
       id="EMFhbasepattern-10"
       patternUnits="userSpaceOnUse"
       width="6"
       height="6"
       x="0"
       y="0" /><pattern
       id="EMFhbasepattern-909"
       patternUnits="userSpaceOnUse"
       width="6"
       height="6"
       x="0"
       y="0" /><pattern
       id="EMFhbasepattern-06"
       patternUnits="userSpaceOnUse"
       width="6"
       height="6"
       x="0"
       y="0" /><pattern
       id="EMFhbasepattern-34"
       patternUnits="userSpaceOnUse"
       width="6"
       height="6"
       x="0"
       y="0" /><pattern
       id="EMFhbasepattern-41"
       patternUnits="userSpaceOnUse"
       width="6"
       height="6"
       x="0"
       y="0" /><pattern
       id="EMFhbasepattern-82"
       patternUnits="userSpaceOnUse"
       width="6"
       height="6"
       x="0"
       y="0" /><pattern
       id="EMFhbasepattern-94"
       patternUnits="userSpaceOnUse"
       width="6"
       height="6"
       x="0"
       y="0" /><pattern
       id="EMFhbasepattern-738"
       patternUnits="userSpaceOnUse"
       width="6"
       height="6"
       x="0"
       y="0" /><pattern
       id="EMFhbasepattern-19"
       patternUnits="userSpaceOnUse"
       width="6"
       height="6"
       x="0"
       y="0" /><pattern
       id="EMFhbasepattern-342"
       patternUnits="userSpaceOnUse"
       width="6"
       height="6"
       x="0"
       y="0" /><pattern
       id="EMFhbasepattern-77"
       patternUnits="userSpaceOnUse"
       width="6"
       height="6"
       x="0"
       y="0" /><pattern
       id="EMFhbasepattern-29"
       patternUnits="userSpaceOnUse"
       width="6"
       height="6"
       x="0"
       y="0" /><pattern
       id="EMFhbasepattern-219"
       patternUnits="userSpaceOnUse"
       width="6"
       height="6"
       x="0"
       y="0" /><pattern
       id="EMFhbasepattern-105"
       patternUnits="userSpaceOnUse"
       width="6"
       height="6"
       x="0"
       y="0" /><pattern
       id="EMFhbasepattern-104"
       patternUnits="userSpaceOnUse"
       width="6"
       height="6"
       x="0"
       y="0" /><pattern
       id="EMFhbasepattern-44"
       patternUnits="userSpaceOnUse"
       width="6"
       height="6"
       x="0"
       y="0" /><pattern
       id="EMFhbasepattern-87"
       patternUnits="userSpaceOnUse"
       width="6"
       height="6"
       x="0"
       y="0" /><pattern
       id="EMFhbasepattern-93"
       patternUnits="userSpaceOnUse"
       width="6"
       height="6"
       x="0"
       y="0" /><pattern
       id="EMFhbasepattern-324"
       patternUnits="userSpaceOnUse"
       width="6"
       height="6"
       x="0"
       y="0" /><pattern
       id="EMFhbasepattern-20"
       patternUnits="userSpaceOnUse"
       width="6"
       height="6"
       x="0"
       y="0" /><pattern
       id="EMFhbasepattern-78"
       patternUnits="userSpaceOnUse"
       width="6"
       height="6"
       x="0"
       y="0" /><pattern
       id="EMFhbasepattern-313"
       patternUnits="userSpaceOnUse"
       width="6"
       height="6"
       x="0"
       y="0" /><pattern
       id="EMFhbasepattern-3422"
       patternUnits="userSpaceOnUse"
       width="6"
       height="6"
       x="0"
       y="0" /><pattern
       id="EMFhbasepattern-957"
       patternUnits="userSpaceOnUse"
       width="6"
       height="6"
       x="0"
       y="0" /><pattern
       id="EMFhbasepattern-75"
       patternUnits="userSpaceOnUse"
       width="6"
       height="6"
       x="0"
       y="0" /><pattern
       id="EMFhbasepattern-429"
       patternUnits="userSpaceOnUse"
       width="6"
       height="6"
       x="0"
       y="0" /><pattern
       id="EMFhbasepattern-102"
       patternUnits="userSpaceOnUse"
       width="6"
       height="6"
       x="0"
       y="0" /><pattern
       id="EMFhbasepattern-233"
       patternUnits="userSpaceOnUse"
       width="6"
       height="6"
       x="0"
       y="0" /><pattern
       id="EMFhbasepattern-18"
       patternUnits="userSpaceOnUse"
       width="6"
       height="6"
       x="0"
       y="0" /><pattern
       id="EMFhbasepattern-334"
       patternUnits="userSpaceOnUse"
       width="6"
       height="6"
       x="0"
       y="0" /><pattern
       id="EMFhbasepattern-317"
       patternUnits="userSpaceOnUse"
       width="6"
       height="6"
       x="0"
       y="0" /><pattern
       id="EMFhbasepattern-509"
       patternUnits="userSpaceOnUse"
       width="6"
       height="6"
       x="0"
       y="0" /><pattern
       id="EMFhbasepattern-657"
       patternUnits="userSpaceOnUse"
       width="6"
       height="6"
       x="0"
       y="0" /><pattern
       id="EMFhbasepattern-83"
       patternUnits="userSpaceOnUse"
       width="6"
       height="6"
       x="0"
       y="0" /><pattern
       id="EMFhbasepattern-390"
       patternUnits="userSpaceOnUse"
       width="6"
       height="6"
       x="0"
       y="0" /><pattern
       id="EMFhbasepattern-24"
       patternUnits="userSpaceOnUse"
       width="6"
       height="6"
       x="0"
       y="0" /><pattern
       id="EMFhbasepattern-63"
       patternUnits="userSpaceOnUse"
       width="6"
       height="6"
       x="0"
       y="0" /><pattern
       id="EMFhbasepattern-631"
       patternUnits="userSpaceOnUse"
       width="6"
       height="6"
       x="0"
       y="0" /><pattern
       id="EMFhbasepattern-98"
       patternUnits="userSpaceOnUse"
       width="6"
       height="6"
       x="0"
       y="0" /><pattern
       id="EMFhbasepattern-79"
       patternUnits="userSpaceOnUse"
       width="6"
       height="6"
       x="0"
       y="0" /><pattern
       id="EMFhbasepattern-489"
       patternUnits="userSpaceOnUse"
       width="6"
       height="6"
       x="0"
       y="0" /><pattern
       id="EMFhbasepattern-811"
       patternUnits="userSpaceOnUse"
       width="6"
       height="6"
       x="0"
       y="0" /><pattern
       id="EMFhbasepattern-450"
       patternUnits="userSpaceOnUse"
       width="6"
       height="6"
       x="0"
       y="0" /><pattern
       id="EMFhbasepattern-321"
       patternUnits="userSpaceOnUse"
       width="6"
       height="6"
       x="0"
       y="0" /><pattern
       id="EMFhbasepattern-371"
       patternUnits="userSpaceOnUse"
       width="6"
       height="6"
       x="0"
       y="0" /><pattern
       id="EMFhbasepattern-49"
       patternUnits="userSpaceOnUse"
       width="6"
       height="6"
       x="0"
       y="0" /><pattern
       id="EMFhbasepattern-576"
       patternUnits="userSpaceOnUse"
       width="6"
       height="6"
       x="0"
       y="0" /><pattern
       id="EMFhbasepattern-03"
       patternUnits="userSpaceOnUse"
       width="6"
       height="6"
       x="0"
       y="0" /><pattern
       id="EMFhbasepattern-795"
       patternUnits="userSpaceOnUse"
       width="6"
       height="6"
       x="0"
       y="0" /><pattern
       id="EMFhbasepattern-54"
       patternUnits="userSpaceOnUse"
       width="6"
       height="6"
       x="0"
       y="0" /><pattern
       id="EMFhbasepattern-22"
       patternUnits="userSpaceOnUse"
       width="6"
       height="6"
       x="0"
       y="0" /><pattern
       id="EMFhbasepattern-418"
       patternUnits="userSpaceOnUse"
       width="6"
       height="6"
       x="0"
       y="0" /><pattern
       id="EMFhbasepattern-26"
       patternUnits="userSpaceOnUse"
       width="6"
       height="6"
       x="0"
       y="0" /><pattern
       id="EMFhbasepattern-832"
       patternUnits="userSpaceOnUse"
       width="6"
       height="6"
       x="0"
       y="0" /><pattern
       id="EMFhbasepattern-824"
       patternUnits="userSpaceOnUse"
       width="6"
       height="6"
       x="0"
       y="0" /><pattern
       id="EMFhbasepattern-8182"
       patternUnits="userSpaceOnUse"
       width="6"
       height="6"
       x="0"
       y="0" /><pattern
       id="EMFhbasepattern-779"
       patternUnits="userSpaceOnUse"
       width="6"
       height="6"
       x="0"
       y="0" /><pattern
       id="EMFhbasepattern-714"
       patternUnits="userSpaceOnUse"
       width="6"
       height="6"
       x="0"
       y="0" /><pattern
       id="EMFhbasepattern-500"
       patternUnits="userSpaceOnUse"
       width="6"
       height="6"
       x="0"
       y="0" /><pattern
       id="EMFhbasepattern-839"
       patternUnits="userSpaceOnUse"
       width="6"
       height="6"
       x="0"
       y="0" /><pattern
       id="EMFhbasepattern-320"
       patternUnits="userSpaceOnUse"
       width="6"
       height="6"
       x="0"
       y="0" /><pattern
       id="EMFhbasepattern-66"
       patternUnits="userSpaceOnUse"
       width="6"
       height="6"
       x="0"
       y="0" /><pattern
       id="EMFhbasepattern-91"
       patternUnits="userSpaceOnUse"
       width="6"
       height="6"
       x="0"
       y="0" /><pattern
       id="EMFhbasepattern-835"
       patternUnits="userSpaceOnUse"
       width="6"
       height="6"
       x="0"
       y="0" /><pattern
       id="EMFhbasepattern-561"
       patternUnits="userSpaceOnUse"
       width="6"
       height="6"
       x="0"
       y="0" /><pattern
       id="EMFhbasepattern-792"
       patternUnits="userSpaceOnUse"
       width="6"
       height="6"
       x="0"
       y="0" /><pattern
       id="EMFhbasepattern-00"
       patternUnits="userSpaceOnUse"
       width="6"
       height="6"
       x="0"
       y="0" /><pattern
       id="EMFhbasepattern-114"
       patternUnits="userSpaceOnUse"
       width="6"
       height="6"
       x="0"
       y="0" /><pattern
       id="EMFhbasepattern-453"
       patternUnits="userSpaceOnUse"
       width="6"
       height="6"
       x="0"
       y="0" /><pattern
       id="EMFhbasepattern-17"
       patternUnits="userSpaceOnUse"
       width="6"
       height="6"
       x="0"
       y="0" /></defs><g
     inkscape:label="Calque 1"
     inkscape:groupmode="layer"
     id="layer1"><g
       id="g4128"
       transform="translate(-0.63104184,0.12620835)"><g
         id="g5578"
         transform="translate(0.08924235,0.08924306)"><g
           id="g7501"
           transform="translate(-0.06310417,0.94656242)"><g
             id="g9467"
             transform="translate(-0.08924275,-0.80318511)"><g
               id="g10302"
               transform="translate(0.31234979,-0.04462139)"><g
                 id="g11479"
                 transform="translate(-0.12620833,0.06310418)"><g
                   id="g11873"
                   transform="translate(-0.23575769,0.66462456)"><g
                     id="g12382"
                     transform="translate(-121.98459,-82.267525)"><g
                       id="g13305"
                       transform="matrix(0.13266609,0,0,0.13266609,114.63867,78.215696)"><g
                         id="g17429"
                         transform="translate(0.90513437,5.6640979)"><g
                           id="g18595"
                           transform="translate(-3.3634362,-8.7449387)"><g
                             id="g21002"
                             transform="translate(1.7082278,-2.8204445)"><g
                               id="g23814"
                               transform="translate(8.7253043,-1.1218249)"><g
                                 id="g24838"
                                 transform="translate(11.143454,-0.85716864)"><g
                                   id="g25315"
                                   transform="translate(-3.490122,2.4929446)"><g
                                   id="g27220"
                                   transform="translate(2.4678888,1.2339445)"><g
                                   id="g29753"
                                   transform="translate(1.4759287,-2.3737724)"><g
                                   id="g30615"
                                   transform="translate(0.92006037,1.3687834)"><g
                                   id="g31433"
                                   transform="translate(-2.4678886,-1.410222)"><g
                                   id="g31731"
                                   transform="translate(1.0576664,-0.70511063)"><g
                                   id="g33243"
                                   transform="matrix(1.0772948,0,0,1.0772948,-7.3729128,-3.1743014)"><g
                                   id="g35254"
                                   transform="translate(-2.2135012,-0.92031205)"><g
                                   id="g36749"
                                   transform="translate(-0.98178042,-2.7817105)"><g
                                   id="g37297"
                                   transform="translate(-6.7755742,-3.5033798)"><g
                                   id="g38955"
                                   transform="matrix(1.2171094,0,0,1.2171094,-23.105122,-18.212482)"><g
                                   id="g39618"
                                   transform="translate(-0.26888273,-0.26888316)"><g
                                   id="g40032"
                                   transform="translate(-1.90129,-3.042064)"><g
                                   id="g40543"
                                   transform="translate(0.3802582,-2.0914191)"><g
                                   id="g41372"
                                   transform="translate(1.9657652,-7.9304203)"><g
                                   id="g43278"
                                   transform="translate(1.5210324,-0.38025789)"><g
                                   id="g44210"
                                   transform="matrix(1.1578947,0,0,1.1578947,-18.904476,-21.776183)"><g
                                   id="g44833"
                                   transform="matrix(1.1196819,0,0,1.1196819,-12.538538,-14.547543)"><g
                                   id="g47597"
                                   transform="translate(3.1109352,-1.2443743)"><g
                                   id="g48754"
                                   transform="translate(-2.9035392,-6.6366609)"><g
                                   id="g234"
                                   transform="matrix(0.04089637,0,0,0.04089637,104.63967,119.67231)"><g
                                   id="g2138"
                                   transform="translate(-86.211222,-40.569988)"><g
                                   id="g2696"
                                   transform="translate(-124306.44,-9412.2373)"><g
                                   id="g3765"
                                   transform="translate(25.356243,-50.712489)"><g
                                   id="g4557"
                                   transform="translate(46.61688,-35.859142)"><g
                                   id="g5244"
                                   transform="translate(7.1718407,14.343658)"><g
                                   id="g5807"
                                   transform="translate(-5.1984397,-21.113724)"><g
                                   id="g6945"
                                   transform="translate(-10.142522,-243.41993)"><g
                                   id="g11108"
                                   transform="translate(18.189368,-37.636113)"><g
                                   id="g15049"
                                   transform="translate(-65.926228,141.99496)"><g
                                   id="g19861"
                                   transform="matrix(0.07356842,0,0,0.07356842,115423.38,9039.2311)"><g
                                   id="g20437"
                                   transform="translate(-478.38824,-785.88156)"><g
                                   id="g21032"
                                   transform="translate(2047.1878,-1072.3367)"><g
                                   id="g21869"
                                   transform="matrix(0.04321578,0,0,0.04321578,117368,10137.003)"><g
                                   id="g25455"
                                   transform="translate(154741.46,-87178.414)"><g
                                   id="g26278"
                                   transform="translate(-18012.371,-8233.4417)"><g
                                   id="g27240"
                                   transform="translate(-0.00447131,5582.7624)"><g
                                   id="g28306"
                                   transform="translate(-15790.441,-2255.7767)"><g
                                   id="g33735"
                                   transform="translate(14662.549,-16918.328)"><g
                                   id="g37868"
                                   transform="translate(-5075.4976,25941.433)"><g
                                   id="g76752"
                                   transform="matrix(-1,0,0,1,9442.3174,-1595.0746)"><g
                                   id="g82459"
                                   transform="translate(3383.6668,-1127.8885)"><g
                                   id="g83208"
                                   transform="matrix(0.20332428,0,0,0.20332428,-15348.528,66747.475)"><g
                                   id="g83934"
                                   transform="matrix(-1,0,0,1,240692.18,94139.78)"><g
                                   id="g84550"
                                   transform="translate(-8.7627443e-5,55472.344)"><g
                                   id="g9096"
                                   transform="translate(31379.925,-62759.843)"><g
                                   id="g11527"
                                   transform="translate(61019.625,105397.54)"><g
                                   id="g13422"
                                   transform="translate(-44377.907,44377.908)"><g
                                   id="g1137"
                                   transform="translate(-3.3240812e-4,138680.92)"><g
                                   id="g3632"
                                   transform="translate(177511.65,-22188.943)"><g
                                   id="g20655"
                                   transform="translate(-15689.965,-78449.801)"><g
                                   id="g21357"
                                   transform="translate(-90217.312,58837.353)"><g
                                   id="g27825"
                                   transform="translate(-113718.43,58246.006)"><g
                                   id="g28046"
                                   transform="translate(22188.955,-116492.02)"><g
                                   id="g28257"
                                   transform="translate(-47069.884,109829.73)"><g
                                   id="g364"
                                   transform="translate(27736.196,-102623.92)"><g
                                   id="g675"
                                   transform="translate(133364.66,125519.69)"><g
                                   id="g3230"
                                   transform="translate(235349.41,-156899.61)"><g
                                   id="g3513"
                                   transform="translate(62759.878,-47511.945)"><g
                                   id="g4282"
                                   transform="translate(-44377.908,49925.155)"><path
                                   style="fill:#fdf4d4;stroke-width:4163.49"
                                   d="m -905857.01,1037119.5 c -120211.29,-21053.8 -228628.69,-77856.79 -316700.59,-165928.66 -71058.5,-71058.52 -116916.1,-146086.1 -146492.2,-239676 -24902.7,-78801.24 -23935.5,-54994.7 -23935.5,-589133.735 0,-458908.025 498.4,-493624.455 7560,-526681.395 44853.2,-209966.1 193617.1,-379430.65 390053.27,-444329.74 90885.22,-30026.9 48655.24,-28226.29 661994.79,-28226.29 607393.8,0 573090.22,-1331.13 659388.45,25587.36 191444.94,59716.3 347983.31,227755.16 393806.04,422738 15977.23,67985.62 16822.25,94869.6 16822.25,535189.772 V 456648.29 h -293525.99 -293526 v 293525.99 293526.02 l -511068.3,-373.5 c -418352.69,-305.6 -517110.86,-1431.9 -544376.22,-6207.1 z"
                                   id="path4290" /><path
                                   style="fill:#f3ecd5;stroke-width:4163.49"
                                   d="m -903775.27,1037271.9 c -280926.23,-43525.67 -510687.33,-314372.48 -488416.03,-601171.97 1461.3,-302845.44 -7146.4,-606084.46 5275.4,-908676.85 43777.7,-281995.52 318853.8,-505456.92 604657.04,-485149.92 337290.92,-43.35 674762.31,-3163.82 1011937.38,5095.19 276880.44,34202.97 502853.99,289164.3 506894.12,567629.9 -3447.61,29651.66 -119394.43,21131.93 -92507.05,13115.67 -317155.39,990.04 -634377.3291,-2623.77 -951478.62,2907 -3022.57,51184.03 111188.92,165455.81 144616.34,205035.72 36704.13,51895.16 76181.874,94082.65 114272.812,141123.974 C 45562.092,-28932.938 76050.281,142952.4 117223.5,182222 c 31160.86,25596.63 27441.98,136810.83 32364.01,98435.29 v 763043.01 c -346573.45,-1641.4 -693266.13,3090.7 -1039742.29,-4864.3 z"
                                   id="path4288"
                                   sodipodi:nodetypes="ccccccccccccccc" /><path
                                   style="fill:#e7dbad;stroke-width:4163.49"
                                   d="m 513339.25,324364.91 c -25710.3,-20826.15 -22606.5,-62684.08 5601.06,-75536.32 48377.66,-22042.34 90841.71,38477.14 50698.6,72255.32 -15273.68,12851.94 -42523.68,14440.02 -56299.66,3281 z M 259763.6,239923.93 C 214747.54,226681.79 206770.21,160236 247029.44,133857.13 c 13856.8,-9079.32 44697.85,-8711.44 60670.24,723.7 13118.78,7749.46 29315.88,35324.37 29153.42,49632.53 -173.2,15242.12 -15788.41,42829.57 -27684.95,48910.68 -16858.43,8617.5 -34821.1,11089.83 -49404.55,6799.89 z M 6635.36,48954.714 c -31193.861,-38876.665 -52209.989,-68583.743 -50489.094,-71368.243 1621.43,-2623.498 10679.558,-8280.889 20129.222,-12571.989 C 59974.196,-72993.304 136659.13,30503.253 75292.505,98651.079 L 60072.496,115552.93 Z m 356603.15,3806.053 c -18754.15,-7556.233 -24414.75,-39321.574 -9640.02,-54096.2988 12732.49,-12732.4912 38650.25,-11352.9612 49659.68,2643.2328 14534.74,18477.898 9995.04,39687.296 -10873.7,50802.063 -10524.34,5605.306 -16517.43,5739.162 -29145.96,651.003 z M 649931.96,-185838.27 c -12413.07,-13213.12 -11902.08,-33691.33 1166.78,-46760.15 11169.85,-11169.85 22825.95,-12868.34 36893.47,-5375.94 20868.74,11114.77 25408.44,32324.17 10873.7,50802.07 -11526.12,14653.11 -35799.64,15314.81 -48933.95,1334.02 z m -419925.11,1280.15 c -16214.13,-6532.81 -23349.35,-32096.21 -13891.4,-49768.6 5611.43,-10485 27067.39,-17435.2 39376.66,-12755.18 12415.98,4720.52 23163.57,19834.15 23163.57,32573.34 0,11732.76 -21233.71,34250.78 -31946.78,33879.07 -4183.48,-145.31 -11699.41,-1913.04 -16702.05,-3928.63 z"
                                   id="path4286"
                                   sodipodi:nodetypes="sssssssssssssscsssssssssssssssss" /><path
                                   style="fill:#ddcc86;stroke-width:4163.49"
                                   d="M -878054.73,1039078.9 C -1147920.1,1008710.6 -1380125.9,770805.92 -1390916,497479.23 c -2615.2,-311748.76 -4710.6,-623671.36 1335.5,-935367.28 27672.3,-282866.07 286905.5,-520676.75 572293.82,-518418.83 89072.77,-7645.24 -13212.16,22641.62 42579.58,8513.59 -274051.2,50304.97 -490483.8,318181.95 -471787.1,597936.77 360.4,302340.189 276729.59,577519.19 580887.66,565949.27 270329.83,2845.38 540687.95,2236.99 811030.57,3488.54 v 824119.01 c -341155.53,-1159.1 -682377.15,1556.3 -1023478.76,-4621.4 z"
                                   id="path4284"
                                   sodipodi:nodetypes="cccccccccc" /></g></g></g></g></g></g></g></g></g></g></g></g></g></g></g></g></g></g></g></g></g></g></g></g></g></g></g></g></g></g></g></g></g></g></g></g></g></g></g></g></g></g></g></g></g></g></g></g></g></g></g></g></g></g></g></g></g></g></g></g></g></g></g></g></g></g></g></g></g></g></g></g></g></g></g></svg>
