<?xml version="1.0" encoding="UTF-8" standalone="no"?>
<!-- Created with Inkscape (http://www.inkscape.org/) -->

<svg
   width="64"
   height="64"
   viewBox="0 0 16.933333 16.933334"
   version="1.1"
   id="svg5"
   inkscape:version="1.2 (dc2aedaf03, 2022-05-15)"
   sodipodi:docname="morille.svg"
   xml:space="preserve"
   xmlns:inkscape="http://www.inkscape.org/namespaces/inkscape"
   xmlns:sodipodi="http://sodipodi.sourceforge.net/DTD/sodipodi-0.dtd"
   xmlns="http://www.w3.org/2000/svg"
   xmlns:svg="http://www.w3.org/2000/svg"><sodipodi:namedview
     id="namedview7"
     pagecolor="#ffffff"
     bordercolor="#666666"
     borderopacity="1.0"
     inkscape:pageshadow="2"
     inkscape:pageopacity="0.0"
     inkscape:pagecheckerboard="0"
     inkscape:document-units="mm"
     showgrid="false"
     units="px"
     inkscape:zoom="15.999999"
     inkscape:cx="16.437501"
     inkscape:cy="30.062502"
     inkscape:window-width="1920"
     inkscape:window-height="1017"
     inkscape:window-x="3832"
     inkscape:window-y="-8"
     inkscape:window-maximized="1"
     inkscape:current-layer="g5076"
     inkscape:showpageshadow="0"
     inkscape:deskcolor="#d1d1d1" /><defs
     id="defs2" /><g
     inkscape:label="Calque 1"
     inkscape:groupmode="layer"
     id="layer1"><g
       id="g4128"
       transform="translate(-0.63104184,0.12620835)"><g
         id="g5578"
         transform="translate(0.08924235,0.08924306)"><g
           id="g7501"
           transform="translate(-0.06310417,0.94656242)"><g
             id="g9467"
             transform="translate(-0.08924275,-0.80318511)"><g
               id="g10302"
               transform="translate(0.31234979,-0.04462139)"><g
                 id="g11479"
                 transform="translate(-0.12620833,0.06310418)"><g
                   id="g11873"
                   transform="translate(-0.23575769,0.66462456)"><g
                     id="g12382"
                     transform="translate(-121.98459,-82.267525)"><g
                       id="g13305"
                       transform="matrix(0.13266609,0,0,0.13266609,114.63867,78.215696)"><g
                         id="g17429"
                         transform="translate(0.90513437,5.6640979)"><g
                           id="g18595"
                           transform="translate(-3.3634362,-8.7449387)"><g
                             id="g21002"
                             transform="translate(1.7082278,-2.8204445)"><g
                               id="g23814"
                               transform="translate(8.7253043,-1.1218249)"><g
                                 id="g24838"
                                 transform="translate(11.143454,-0.85716864)"><g
                                   id="g25315"
                                   transform="translate(-3.490122,2.4929446)"><g
                                   id="g27220"
                                   transform="translate(2.4678888,1.2339445)"><g
                                   id="g29753"
                                   transform="translate(1.4759287,-2.3737724)"><g
                                   id="g30615"
                                   transform="translate(0.92006037,1.3687834)"><g
                                   id="g31433"
                                   transform="translate(-2.4678886,-1.410222)"><g
                                   id="g31731"
                                   transform="translate(1.0576664,-0.70511063)"><g
                                   id="g33243"
                                   transform="matrix(1.0772948,0,0,1.0772948,-7.3729128,-3.1743014)"><g
                                   id="g35254"
                                   transform="translate(-2.2135012,-0.92031205)"><g
                                   id="g36749"
                                   transform="translate(-0.98178042,-2.7817105)"><g
                                   id="g37297"
                                   transform="translate(-6.7755742,-3.5033798)"><g
                                   id="g38955"
                                   transform="matrix(1.2171094,0,0,1.2171094,-23.105122,-18.212482)"><g
                                   id="g39618"
                                   transform="translate(-0.26888273,-0.26888316)"><g
                                   id="g40032"
                                   transform="translate(-1.90129,-3.042064)"><g
                                   id="g40543"
                                   transform="translate(0.3802582,-2.0914191)"><g
                                   id="g41372"
                                   transform="translate(1.9657652,-7.9304203)"><g
                                   id="g43278"
                                   transform="translate(1.5210324,-0.38025789)"><g
                                   id="g44210"
                                   transform="matrix(1.1578947,0,0,1.1578947,-18.904476,-21.776183)"><g
                                   id="g44833"
                                   transform="matrix(1.1196819,0,0,1.1196819,-12.538538,-14.547543)"><g
                                   id="g47597"
                                   transform="translate(3.1109352,-1.2443743)"><g
                                   id="g48754"
                                   transform="translate(-2.9035392,-6.6366609)"><g
                                   id="g234"
                                   transform="matrix(0.04089637,0,0,0.04089637,104.63967,119.67231)"><g
                                   id="g2138"
                                   transform="translate(-86.211222,-40.569988)"><g
                                   id="g2696"
                                   transform="translate(-124306.44,-9412.2373)"><g
                                   id="g3765"
                                   transform="translate(25.356243,-50.712489)"><g
                                   id="g4557"
                                   transform="translate(46.61688,-35.859142)"><g
                                   id="g5244"
                                   transform="translate(7.1718407,14.343658)"><g
                                   id="g5807"
                                   transform="translate(-5.1984397,-21.113724)"><g
                                   id="g6945"
                                   transform="translate(-10.142522,-243.41993)"><g
                                   id="g11108"
                                   transform="translate(18.189368,-37.636113)"><g
                                   id="g15049"
                                   transform="translate(-65.926228,141.99496)"><g
                                   id="g19861"
                                   transform="matrix(0.07356842,0,0,0.07356842,115423.38,9039.2311)"><g
                                   id="g20437"
                                   transform="translate(-478.38824,-785.88156)"><g
                                   id="g21032"
                                   transform="translate(2047.1878,-1072.3367)"><g
                                   id="g21869"
                                   transform="matrix(0.04321578,0,0,0.04321578,117368,10137.003)"><g
                                   id="g25455"
                                   transform="translate(154741.46,-87178.414)"><g
                                   id="g26278"
                                   transform="translate(-18012.371,-8233.4417)"><g
                                   id="g27240"
                                   transform="translate(-0.00447131,5582.7624)"><g
                                   id="g28306"
                                   transform="translate(-15790.441,-2255.7767)"><g
                                   id="g33735"
                                   transform="translate(14662.549,-16918.328)"><g
                                   id="g37868"
                                   transform="translate(-5075.4976,25941.433)"><g
                                   id="g76752"
                                   transform="matrix(-1,0,0,1,9442.3174,-1595.0746)"><g
                                   id="g82459"
                                   transform="translate(3383.6668,-1127.8885)"><g
                                   id="g83208"
                                   transform="matrix(0.20332428,0,0,0.20332428,-15348.528,66747.475)"><g
                                   id="g83934"
                                   transform="matrix(-1,0,0,1,240692.18,94139.78)"><g
                                   id="g84550"
                                   transform="translate(-8.7627443e-5,55472.344)"><g
                                   id="g9096"
                                   transform="translate(31379.925,-62759.843)"><g
                                   id="g11527"
                                   transform="translate(61019.625,105397.54)"><g
                                   id="g13422"
                                   transform="translate(-44377.907,44377.908)"><g
                                   id="g1137"
                                   transform="translate(-3.3240812e-4,138680.92)"><g
                                   id="g4874"
                                   transform="translate(47069.886,94139.797)"><g
                                   id="g5076"
                                   transform="translate(38830.659,91529.449)"><path
                                   style="fill:#e2d2bb;stroke-width:2552.69"
                                   d="m -158521.4,869319.15 c -19408.51,-5220.13 -45715.85,-19657.35 -61841.54,-33938.06 -7578.33,-6711.29 -19365.5,-14967.87 -26193.67,-18347.97 -25149.82,-12449.69 -49384.63,-48214.99 -58791.17,-86763.08 -10199.44,-41797.39 -12311.06,-67706.64 -10912.15,-133890.91 2339.39,-110678.78 14045.22,-189637.56 59455.43,-401041.66 l 4444.37,-20690.34 -10241.35,-12494.67 c -5632.75,-6872.06 -15518.03,-19305.18 -21967.31,-27629.15 l -11725.94,-15134.49 -21898.69,-4433.51 c -39306.34,-7957.8 -84283.36,-34729.575 -113521.86,-67571.939 -35134.14,-39464.6883 -61420.22,-95880.715 -61494.5,-131981.541 -25.78,-12511.618 -1918.27,-18486.58 -12593.46,-39759.37 -36082.19,-71902.17 -59353.72,-139650.24 -70761.4,-206000.61 -5453.97,-31721.86 -5997.73,-102109.11 -975.3,-126248.68 2059.58,-9899.04 3646.44,-36158.03 3933.68,-65093.68 445.46,-44873.3 1158.15,-51666.12 9528.02,-90813.67 10647.42,-49800.11 19439.35,-73144.38 41267.35,-109572.74 14360.84,-23966.58 16668.02,-29775.08 21799.75,-54882.91 16128.91,-78913.47 49634.82,-143616.26 80069.78,-154621.71 7987.35,-2888.24 10176.01,-5456.97 14502.62,-17020.85 2802.57,-7490.57 5095.61,-15465.85 5095.61,-17722.81 0,-8330.84 18053.56,-41207.4 38292.61,-69733 11455.52,-16145.8 26103.49,-37971.3 32551.08,-48501.2 15698.14,-25637.4 22250.75,-32324.5 36221.13,-36964.8 11756.86,-3905 11804.09,-3968 16428.37,-21919 6114.79,-23737 19683.02,-50420.9 32192.24,-63310.8 5548.76,-5717.7 16727.74,-13781.1 24842.14,-17918.6 8114.4,-4137.6 20630.74,-13648.2 27814.09,-21134.6 18440.45,-19218.4 46301.29,-57279 48175.55,-65812.4 2523.85,-11490.9 16821.84,-25923.1 45838.378,-46268.3 14868.441,-10425.2 33914.773,-23793 42325.182,-29706.4 8410.434,-5913.4 21034.829,-12791.3 28054.224,-15284.4 8059.184,-2862.4 13354.26,-6426.1 14368.165,-9670 4455.4445,-14255.2 16418.4362,-26008.7 42109.173,-41371.9 30607.708,-18303.6 35190.175,-20236.9 55854.787,-23564.9 11252.348,-1812.1 23088.521,-1450.2 44710.241,1367.1 26385.58,3438 31584.44,3423.5 50606.37,-140.9 24964.47,-4677.9 38961.53,-2901.3 56052.32,7114.6 13203.04,7737.5 23528.04,21163.7 42517.22,55287.9 7422.16,13337.8 18026.89,29202 23566.1,35253.7 15033.02,16423.9 17724.63,25265.6 19963.16,65577.7 1489.6,26825 3392.61,39557.4 7630.61,51053.9 9053.54,24559.5 12720.53,39821.1 12720.53,52941.2 0,10293.4 936.13,12688.4 5831.07,14918.7 14958.34,6815.5 26287.27,38414 33384.22,93114.9 2186.46,16852.4 6228.29,35773.1 8981.88,42046.1 5904.45,13450.9 13067.46,46646.4 13067.46,60558.6 0,6749.98 3893.75,17314.43 12505.9,33930.81 32377.57,62469.58 58032.14,169085.67 63152.79,262452.22 1482.47,27030.85 2522.29,32520.72 7252.35,38290.4 23567.97,28747.84 45329.32,83698.01 57664.85,145611.21 l 5672.44,28470.44 -5477.8,18852.41 c -3012.79,10368.8 -5477.79,21654.46 -5477.79,25079.23 0,3424.75 6202.22,19375.84 13782.7,35446.88 31725.53,67259.71 41217.21,109862.28 38871.11,174469.54 -1661.45,45752.43 -4996.39,65005.86 -17686.49,102107.73 -26527.48,77558.093 -44193.63,106583.058 -73966.86,121525.324 -14878.52,7467.0621 -19395.16,11951.93987 -47285.06,46952.427 -42389.39,53196.596 -62769.24,70092.109 -91358.03,75738.459 -11228.32,2217.63 -17882.48,5419.42 -26023.53,12521.73 -26361.3,22997.85 -109450.03,64080.1 -141789.39,70106.09 -5377.01,1001.93 -10313.87,3222.32 -10970.78,4934.21 -1302.13,3393.32 13602.48,119096.54 29932.95,232366.96 14294.35,99147.45 28493.09,183642.19 39464.51,234847.78 5113.94,23867.68 11121.88,52973.11 13350.99,64678.71 11460.42,60181.66 -20022.32,102720.15 -86491.95,116865.24 -41791.03,8893.35 -116891.974,404.62 -156386.322,-17676.49 l -13282.8363,-6081.07 -12685.8633,8777.74 c -19910.0354,13776.37 -56722.8814,30757.58 -78826.0634,36361.28 -23788.265,6030.91 -55161.855,6486.34 -75218.395,1091.89 z"
                                   id="path5084" /><path
                                   style="fill:#bb9173;stroke-width:2552.69"
                                   d="m -147277.99,870780.95 c -25979.93,-4664.62 -51340.04,-17520.62 -75376.63,-38211.24 -7721.9,-6646.99 -18634.66,-14224.91 -24250.58,-16839.81 -15188.14,-7071.96 -33078.13,-26878 -43118.84,-47736.93 -14558.27,-30243.85 -13609.23,-31117.2 9196.25,-8462.81 23548.42,23392.42 38753.84,32130.01 55913.63,32130.01 10736.6,0 11642.24,546.3 14637.5,8829.53 4880.62,13497.09 23806.74,28599.82 43517.29,34726.03 43098.72,13395.46 95808.208,2971.74 125523.291,-24823.26 16888.796,-15797.5 25388.728,-32783.55 29006.073,-57965.1 l 2885.6148,-20087.61 7323.5232,10567.85 c 11148.8868,16087.89 39863.62,41980.47 59327.164,53496.38 39442.069,23336.54 90599.974,33400.87 126609.874,24908.01 22641.85,-5340.06 35544.64,-12148.17 49531.72,-26135.24 15675.44,-15675.45 23687,-34217.12 26039.46,-60264.88 l 1906.4,-21108.86 2079.6,14897.78 c 3190.53,22856.51 600.57,50142.83 -6066.81,63915.79 -16033.87,33121.55 -52483.6,52123.72 -108644.32,56639.05 -36523.35,2936.49 -93271.016,-6404.83 -125502.544,-20659.12 L 9036.4027,822306.3 -9168.6128,833629.76 c -24276.4422,15099.9 -53094.1772,28470.57 -71624.9672,33232.14 -19478.5,5005.09 -50312.56,6822.68 -66484.41,3919.05 z M 114607.44,413540.8 C 41898.956,402755.46 -78663.843,336970.11 -229434.37,225813.64 l -28477.64,-20995.31 2380.62,-10987.74 c 4032.77,-18613.37 4005.3,-18593.61 13841.77,-9957.09 10603.12,9309.68 29046.51,19047 43328.34,22875.51 35002.73,9383.19 93230.53,8541.92 159229.105,-2300.44 26537.133,-4359.59 33437.1648,-4561.05 66152.351,-1931.65 27731.794,2228.89 48933.594,2210.68 88067.914,-75.56 28348.65,-1656.16 54075.48,-3704.72 57170.77,-4552.39 7079.82,-1938.88 5911.25,-7522.33 18637.42,89048.94 11172.19,84779.15 11145.92,89104.26 -647.36,106603.4 -11691.39,17347.93 -41099.33,25123.35 -75641.48,19999.49 z M -176832.25,201949.61 c -48054.8,-7472.35 -88120.49,-41200.65 -101886.81,-85770.85 -5828.16,-18869.304 -7060.7,-53595.326 -2379.01,-67025.3 6443.46,-18483.669 19479.83,-14260.723 56276.88,18230.008 29912.35,26411.746 49061,39642.532 76816.02,53076.232 27351.88,13238.53 46151.95,18701.6 90827.013,26393.12 20110.983,3462.42 39483.881,8207.54 43050.861,10544.71 5576.6392,3653.95 6277.5576,5555.63 5002.0024,13571.01 -2726.4544,17132.43 -15516.8764,23155.25 -60367.7444,28426.28 -29921.442,3516.49 -91698.632,4986.84 -107339.212,2554.79 z m 209129.047,-8726.64 c -10852.29,-6197.22 -11937.261,-19227.37 -2041.95,-24523.16 2583.682,-1382.74 19966.399,-3671.59 38628.244,-5086.32 50908.409,-3859.26 71094.999,-8482.06 97747.979,-22384.67 l 22974.24,-11983.69 37014.04,-147.55 c 33718.91,-134.27 38657.35,-759.65 55473.14,-7024.34 18698.53,-6966.07 37376.53,-8978.16 40245.88,-4335.47 863.89,1397.78 -1652.91,5540.29 -5592.89,9205.57 -8668.11,8063.78 -85819.22,46717.86 -105442.28,52828.47 -40001.44,12456.43 -164381.438,21802.71 -179006.403,13451.06 z M 28548.474,153584.63 C 12568.513,150147.37 -5202.851,140899.25 -10721.773,133148.61 -23215.674,115602.54 -21779.58,93112.114 -6070.9708,60313.554 8503.8854,29882.157 56695.999,-32055.651 63934.772,-29659.719 c 1727.688,571.829 8132.829,9933.372 14233.638,20803.4291 19472.657,34695.1089 47171.5,56219.9029 90615.85,70417.6509 18106.41,5917.22 33309.48,16794.654 35573.42,25451.935 3725.42,14246.074 -17316.07,35603.864 -46932.67,47638.184 -41041.13,16676.49 -99465.071,25259.51 -128876.536,18933.15 z M 240659.17,115916.62 c -9069.59,-2203.35 -22137.31,-13912.35 -26107.21,-23392.723 -11799.37,-28177.649 9940.82,-85299.6235 46303.91,-121662.739 31790.29,-31790.271 57550.08,-21468.099 65749.36,26346.3983 3715.7,21668.3577 664,49336.5147 -7993.97,72476.9857 -6575.89,17575.65 -23179.04,36986.768 -37010.19,43269.448 -9758.1,4432.53 -29123.27,5833.83 -40941.9,2962.63 z m -563496.4,-6039.87 c -35707.02,-8417.71 -88802.88,-51439.758 -128126.66,-103817.347 -21313.81,-28389.089 -36386.06,-57963.699 -32144.78,-63074.114 7774.5,-9367.695 63515.39,-15010.322 80046.68,-8103.117 14169.23,5920.309 28004.52,24731.794 43853.86,59627.111 18458.5,40639.821 43117.82,90271.478 51257.34,103165.31 3389.47,5369.287 6162.69,10933.877 6162.69,12365.757 0,3051.74 -7662.58,2992.19 -21049.13,-163.63 z m 199693.48,-3042.46 c -19626.74,-6698.06 -52816.24,-26784.588 -65020.29,-39350.68 -35620.89,-36677.658 -10934.51,-121798.619 52302.92,-180345.3 35328.53,-32708.02 77782.628,-42287.43 119058.423,-26864.6 28164.22,10523.69 56368.44,45760.527 59061.557,73788.384 C 44464.157,-42987.075 27998.062,-7010.1821 -8228.4049,44372.087 -52069.274,106554.39 -79798.847,121626.77 -123143.75,106834.29 Z M 346593.94,83925.966 c -1.08,-7370.901 1924.98,-23109.2 4280.17,-34973.99 3588.55,-18078.072 3828.46,-25166.901 1481.13,-43763.5519 -3520.06,-27887.5101 -903.63,-39251.0791 12558.86,-54545.2851 5524.13,-6275.72 19457.19,-17097.812 30962.36,-24049.102 24469.3,-14784.025 28089.07,-18341.79 45853.18,-45068.007 21413.11,-32216.13 46302.74,-45475.92 54917.54,-29256.98 8292.73,15612.53 -3294.25,68759.605 -24862.16,114037.695 -28470.31,59768.453 -63067.52,99996.678 -104908.79,121983.663 -9458.82,4970.451 -17891.39,9037.198 -18739.06,9037.198 -847.7,0 -1542.14,-6030.738 -1543.23,-13401.64 z M 152465.05,27508.255 C 136088.02,23052.707 124496.16,15235.263 108256.13,-2305.9003 93113.305,-18662.001 77955.081,-46713.318 73123.599,-67321.108 c -1645.797,-7019.907 -3985.826,-16976.661 -5200.014,-22126.158 -1214.189,-5149.472 -8645.767,-18336.094 -16514.597,-29303.614 -19097.13,-26617.42 -23899.69,-36072.7 -23899.69,-47053.64 0,-11280 2720.558,-13878.28 30634.409,-29257.42 53765.743,-29622.27 83202.473,-57810.46 116123.433,-111198.07 8135.74,-13193.67 16037.55,-24791.91 17559.6,-25773.88 3973.57,-2563.57 10694.66,4286.17 25106.93,25587.53 6957.52,10283.22 20201.84,28050.65 29431.86,39483.22 18622.61,23066.52 27430.07,40073.64 31288.16,60417.25 11704.45,61717.38 -23671.43,166341.71 -72883.75,215554.0622 C 185650.65,28127.436 172212.1,32880.628 152465.05,27508.255 Z m -468776.68,-3950.727 c -11629.12,-5410.331 -19828.75,-16396.9952 -27817.07,-37272.078 -3830.09,-10008.778 -4884.23,-19374.738 -4884.23,-43395.785 0,-29196.633 384.64,-31444.382 8207.07,-47958.975 10807.69,-22817.15 32101.95,-45121.16 51241.07,-53670.87 21722.96,-9703.93 68013.01,-17924.52 102220.96,-18153.29 27433.97,-183.54 29181.98,117.93 33823.18,5832.9 6843.08,8426.18 6120.29,19822.84 -2808.83,44289.25 -14373.11,39383.286 -47287.74,87939.162 -81274.58,119896.8135 -32055.24,30141.3845 -57874.6,40124.3555 -78707.57,30432.0345 z m 824526.77,-72371.61 c 15558.41,-36889.583 15310.6,-35727.163 22095.12,-103645.088 2577.91,-25806.94 4416.41,-32334.12 25574.97,-90799.1 6674.91,-18444 8610.06,-28533.31 10174.98,-53050.07 1062.87,-16650.96 2501.36,-30843.4 3196.69,-31538.7 695.33,-695.33 3373.77,5946.52 5952.09,14759.65 5686.51,19437.45 6441.06,72182.04 1452.58,101539.11 -10665.53,62766.39 -35915.54,134875.84 -55291.68,157903.073 -6573.65,7812.339 -15848.73,11218.627 -13154.75,4831.125 z M 315963.61,-62581.063 c -14977.44,-6054.886 -25526.93,-28293.797 -25526.93,-53812.157 0,-26616.42 13594.8,-76157.25 25313.22,-92244.02 4865.79,-6679.63 5203.54,-6740.08 37661.28,-6740.08 32165.09,0 33027.41,-149.58 48161.71,-8361.88 8475.61,-4599.06 22620.57,-14650.29 31433.23,-22336.06 8812.66,-7685.81 16914.12,-13974.19 18003.22,-13974.19 3955.66,0 7905.08,13316.74 7905.08,26654.51 0,36428 -30828.59,97528.63 -70041.53,138818.649 -22456.58,23646.057 -35184.48,31262.911 -54401.26,32555.697 -8073.43,543.111 -16402.05,290.931 -18508.02,-560.469 z m -706430.2,-12951.166 c -18692.84,-3503.01 -47163.99,-51873.891 -68039.02,-115594.501 -18256.4,-55727.26 -23177.97,-82187.33 -23027.85,-123805.62 113.34,-31442.11 967.68,-38482.03 7107.06,-58569.35 18690.2,-61152.25 43121.52,-98421.29 64518.98,-98421.29 21099.67,0 65879.24,70394.81 81191.03,127634.67 8718.04,32590.46 10243.83,55495.5 6631.7,99555.03 -9569.74,116728.15 -33424.02,175752.114 -68381.9,169201.061 z M -472389,-91943.8 c -14828.97,-7340.014 -20071.62,-16055.9 -42296.64,-70318.3 -48322.23,-117978.67 -71744.58,-217825.94 -62011.83,-264350.58 5071.27,-24241.7 12100.92,-2898.51 14503.13,44033.96 2772.51,54167 8609.65,68009.72 48438.44,114871.19 24591.22,28933.35 36148.28,51130.78 44523.39,85515.23 10699.61,43927.97 16089.93,92818.347 10453.78,94816.672 -1403.98,497.775 -7528.6,-1557.909 -13610.27,-4568.172 z m 367541.95,-82692.58 c -7829.13,-5707.83 -6501.81,-12368.77 9127.031,-45802.34 14264.449,-30514.87 16004.722,-44330.84 9508.118,-75484.52 -20743.259,-99471.77 20508.413,-131739.03 135287.473,-105822.48 50077.506,11307.25 100997.508,28589.8 109897.418,37299.85 10100.37,9884.89 10125.18,24075.83 74.28,42542.49 -25445.04,46750.9 -118833.755,115482.21 -191526.335,140957.68 -29076.808,10190.1 -62989.539,13146.73 -72368.055,6309.32 z m -206291.72,-10272.81 c -4808.56,-12530.94 5958.95,-48257.72 28456.81,-94420.21 8931.36,-18325.87 18617.25,-40725.75 21524.23,-49777.52 7039.56,-21919.77 10279.16,-56199.28 8528.57,-90244.14 l -1431.45,-27837.91 7472.73,1494.55 c 43876,8775.21 95168.58,49425.53 118183.08,93662.3 19265.15,37030.03 26026.31,81180.64 15845.25,103469.79 -10305.4,22561.37 -43680.28,43797.12 -86015.08,54729.67 -46972.87,12130.24 -109433.49,17081.8 -112564.14,8923.47 z m 803869.18,-6822.22 c -9345.06,-9947.39 -11940.61,-19690.56 -22619.83,-84910.54 -3279.06,-20025.96 -3704.13,-31302.94 -1972.44,-52330.22 1214.06,-14741.8 2113.1,-38864.75 1997.84,-53606.55 -191.96,-24559.06 -1097.99,-29358.09 -10820.91,-57315.91 -5836.28,-16781.94 -10611.42,-32002.37 -10611.42,-33823.18 0,-2448.03 5554.76,-3310.56 21320.4,-3310.56 28788.12,0 34778.09,4085.84 50583.32,34503.78 18375.28,35364.12 25452.67,59112.31 26993.96,90578.19 1181.34,24117.38 367.85,31241.26 -8117.94,71091.15 -17621.35,82751.14 -30204.77,106738.57 -46752.98,89123.84 z m -148652.99,-46877.2 c -36244.9,-12343.14 -61654.71,-27508.59 -82303.65,-49121.58 -26719.76,-27967.26 -60097.65,-84103.2 -57102.52,-96036.74 4166.86,-16602.15 37734.67,-36781.93 89221.52,-53636.85 31080.6,-10174.66 84839.19,-21755.74 100988.57,-21755.74 20059.47,0 38583.11,13930.51 49218.25,37014.05 8305.85,18027.86 8275.06,64233.57 -63.57,95349.32 -12632.43,47138.29 -30843.37,78691.52 -51414.12,89082.77 -14557.39,7353.62 -24881.35,7163.24 -48544.51,-895.23 z m -866550.64,-66354.81 c -13390.86,-13390.87 -18050.47,-36842.33 -17703.87,-89102.42 369.15,-55659.85 5009,-84629.39 21709.99,-135548.7 l 13312.12,-40587.14 1544.15,-56159.25 1544.12,-56159.25 8212.45,-17453.38 c 4679.26,-9944.52 9528.16,-17014.79 11270.62,-16433.98 7802.95,2600.99 31211.4,74437.35 38846.94,119214.25 9429.42,55296.9 1960.29,92993.69 -42186.67,212916.31 -9734.65,26443.61 -19605.84,56022.94 -21935.99,65731.85 -4341.44,18089.41 -7329.34,20866.25 -14613.86,13581.71 z m 225124.27,-28648.11 c -2034.24,-2362.29 -13005.1,-23248.81 -24379.69,-46414.5 -23763.87,-48397.84 -49029.15,-88502.03 -71095.08,-112850.92 -20009.24,-22079.42 -24789.18,-36364.65 -24592.11,-73495.69 236.89,-44646.91 10375.65,-88867.32 29213.58,-127416.07 15908.84,-32554.83 51322.61,-65699.74 64708.72,-60563.01 7586.86,2911.38 8974.15,14937.47 8825.63,76507.67 -160.56,66549.37 856.92,75252.35 12882.55,110195.07 18164.15,52779.28 28076.87,109888.92 28076.87,161757.94 0,53856.62 -10874.35,87104.35 -23640.47,72279.51 z m 433347.7,-57532.78 c -5615.92,-1819.08 -29522.71,-12921.43 -53126.212,-24671.91 -42339.605,-21077.84 -43214.132,-21378.78 -65178.702,-22428.93 -19058.2024,-911.19 -25374.6882,-66.37 -43876.122,5869.02 -52258.171,16764.53 -69952.111,5697.92 -69522.391,-43482.55 255.678,-29259.4 3564.478,-41409.79 14037.029,-51545.64 10901.863,-10551.35 19940.132,-14095.26 56846.738,-22289.53 57843.948,-12842.93 78350.854,-20823.24 106209.568,-41331.65 27611.662,-20326.56 40127.212,-20927.59 57659.902,-2769.04 24696.79,25578.48 42084.38,83320.47 42463.74,141016.75 345.68,52579.61 -13901.58,71872.99 -45513.55,61633.48 z m -295942.82,-29635.6 c -8174.15,-4299.85 -24852.1,-15150.38 -37062.11,-24112.28 -12209.99,-8961.89 -29270.43,-19863.5 -37912.06,-24225.8 -8641.66,-4362.27 -17434.74,-10560.51 -19540.2,-13773.84 -2105.47,-3213.36 -5676.07,-14982.91 -7934.69,-26154.59 -2258.63,-11171.69 -8589.25,-35979.04 -14068.02,-55127.43 -18140.72,-63402.01 -22713.1,-98788.31 -15505.26,-119997.11 4042.65,-11895.37 14097.29,-16710.79 26408.55,-12647.72 38715.39,12777.25 110764.36,113264.63 137874.12,192294.33 6928.49,20197.8 8140.13,27408.73 8265.85,49193.87 183.79,31865.83 -3254.81,40481.71 -16605.53,41605.78 -6265.58,527.54 -13640.82,-1647.71 -23920.65,-7055.21 z m 377739.73,-23997 c -13599.93,-13599.93 -23632.19,-42670.66 -39727.61,-115119.8 -8840.13,-39791.31 -10470.48,-51149.79 -9160.16,-63817.33 3592.64,-34732.12 27541.47,-117496.08 35182.29,-121585.32 17688.99,-9466.86 73885.33,58526.75 140497.67,169992.3 28289.61,47338.31 35193.09,61828.14 35193.09,73867.36 0,22547.53 -19420.2,33058.19 -87432.98,47320.75 -25620.87,5372.81 -49817.13,11031.49 -53769.49,12574.88 -10442.69,4077.77 -14030.24,3519.73 -20782.81,-3232.84 z m 309374.4,-37333.67 c -3656.81,-2876.43 -10378,-14439.46 -15486.01,-26641.82 -4963.76,-11857.8 -16078.44,-32049.53 -24699.25,-44870.53 -23909.92,-35559.14 -33175.76,-56586.98 -33175.76,-75288.85 0,-16064.46 3657.29,-24484.34 12748.5,-29349.8 16935.74,-9063.74 39726.16,30121.37 57897.4,99547.02 8016.61,30628.49 14552.09,81686.19 10456.01,81686.19 -703.95,0 -4187.36,-2286.99 -7740.89,-5082.21 z m -93172.07,-10204.24 c -16909.85,-2558 -25078.75,-7870.67 -29920.62,-19458.92 -2095.41,-5015 -16054.12,-29343.95 -31019.38,-54064.31 -50406.71,-83264.41 -50804.57,-86209.97 -21276.78,-157525.22 21134.26,-51043.32 23673.55,-61201.23 22426.53,-89713.08 -681.92,-15591.85 -117.42,-23878.45 1626.17,-23872.22 1468.87,5.1 6237.18,2184.34 10596.21,4842.4 21447.34,13078.29 32714.82,53748.72 40636.16,146677.81 6093.08,71481.03 12546.51,91602.99 48243.91,150425.64 10896.53,17955.44 19211.75,34210.1 18478.28,36121.45 -2181.68,5685.44 -38933.14,9721.63 -59790.48,6566.45 z m -996750.31,-14677.3 c -3620.14,-4082.21 -3539.27,-8470.98 875.59,-47519.12 5602.44,-49551.89 12806.26,-80147.7 28699.41,-121891.03 13639.24,-35823.42 16405.34,-41225.23 19979.13,-39016.51 4372.39,2702.28 809.08,71744.44 -5581.13,108138.95 -9675.11,55103.36 -22948.45,93928.72 -34664.07,101394.77 -4575.79,2916.01 -5878.64,2761.07 -9308.93,-1107.06 z m 438058.52,-45260.6 c -23325.72,-24344.07 -92855.43,-137917.37 -92855.43,-151674.7 0,-9457.27 8569.51,-27506.65 28619.34,-60278.94 7730.49,-12635.83 16538.43,-27856.27 19573.2,-33823.19 3034.77,-5966.92 6671.57,-10848.95 8081.75,-10848.95 3920.51,0 7236.73,10892.4 11545.02,37920.19 5209.02,32678.45 10424.38,52392.47 17608.01,66557.98 11388.72,22457.52 21883.32,27389.12 46256.205,21736.66 13085.615,-3034.74 19882.11,-3305.84 31227.299,-1245.53 38319.853,6958.95 89805.783,46537.15 89805.783,69035.39 0,20692.8 -25794.172,36222.34 -93173.296,56095.54 -15443.793,4555.07 -32341.523,10453.35 -37550.523,13107.26 -13590.108,6923.98 -16916.618,6172.57 -29137.358,-6581.71 z m 219479.45,-75586.14 c -14868.211,-2801.05 -32683.584,-12367.06 -56613.371,-30398.67 -43089.2539,-32468.75 -51946.741,-47962.96 -54011.742,-94481.71 l -1416.439,-31908.67 -17600.052,-43264.5 c -14522.348,-35698.88 -17797.81,-46412.17 -18730.896,-61264.64 -1504.123,-23941.53 2487.625,-29181.65 27987.88,-36740.63 65109.703,-19300.35 123016.115,-17599.98 157657.72,4629.46 22851.83,14664 39664.79,40464.94 47855.44,73438.36 6622.34,26659.87 5434.47,80649.1 -2598.11,118084.86 -7994.73,37259.28 -20060.39,70302.95 -30132.32,82521.96 -13235.46,16056.92 -32408.94,23149.96 -52398.11,19384.18 z m -549094.13,-49669.39 c -17254.26,-12085.37 -12813.88,-50683.49 18238.26,-158535.62 16620.58,-57727.68 31324.53,-89278.33 44379.66,-95226.64 10947.66,-4988.09 17393.11,4269.07 24787.32,35600.44 2485.07,10529.86 8388.53,29171.7 13118.82,41426.31 9641.83,24978.74 10461.96,34582.38 4465.96,52295.95 -7272.72,21485.44 -48378.1,89266.49 -65837.86,108563.88 -8277.15,9148.37 -24076.31,19798.18 -29370.82,19798.18 -2299.65,0 -6701.26,-1765.14 -9781.34,-3922.5 z m 910889.05,-9252.54 c -15836.52,-24214.57 -18217.91,-36992.99 -17954.03,-96340.89 300.52,-67585.59 -4078.65,-90283.65 -26642.84,-138095.32 -7498.41,-15888.47 -8940.28,-34322.54 -2866.93,-36653.1 4829.97,-1853.43 8879.79,5916.33 17774.19,34100.41 9571.58,30329.87 25825.98,97106.11 29204.22,119976.58 12460.79,84358.34 14768.93,110820.71 10861.04,124519.48 -1519.85,5327.7 -2396.24,4693.59 -10375.65,-7507.16 z m -166183.71,3371.06 c -6142.14,-3244.6 -14424.2,-12983.71 -26763.46,-31471.92 -9827.86,-14725.32 -23852.39,-33464.1 -31165.57,-41641.73 -16358.88,-18292.52 -20525.13,-26841.06 -25295.48,-51902.53 -2053.79,-10789.78 -6559.37,-34040.76 -10012.43,-51668.81 -3453.05,-17628.06 -6278.27,-35045.47 -6278.27,-38705.34 0,-4266.62 4684.78,-12260.95 13056.03,-22279.45 21355.35,-25557.51 31940.88,-28282.13 58437.99,-15041.39 20326.15,10157.12 49855.85,37955.77 66068.21,62195.25 34020.74,50865.25 32909.65,138165.16 -2268.37,178230.7 -7712.02,8783.54 -19687.62,16983.81 -24802.94,16983.81 -1144.63,0 -6083.68,-2114.37 -10975.71,-4698.59 z m -386832.73,-23142.54 c -15539.39,-6689.18 -25664.52,-27357.7 -32005.05,-65332.17 -1640.95,-9827.87 -5130.94,-23367.77 -7755.54,-30088.65 -6799.15,-17410.85 -5971.85,-29083.19 3969.48,-56004.84 4807.8,-13019.78 10588.5,-31089.56 12846,-40155.04 4674.18,-18770.13 9663.29,-25636.72 18627.1,-25636.72 22460.867,0 57759.277,85505.88 63526.321,153884.41 2048.51,24288.6 -2447.752,45752.54 -11769.753,56185.65 -6509.929,7285.9 -8667.976,8046.68 -24663.891,8694.83 -9641.343,390.67 -19889.946,-305.68 -22774.667,-1547.47 z m -206217.42,-33404.92 c -13805.22,-12121.16 -20633.03,-30573.53 -20314.81,-54901.49 475.03,-36316.89 21695.59,-104366.18 49301.15,-158097.1 52729.07,-102630.82 98720.71,-108258.92 124236.15,-15203 5821.44,21230.98 6942.76,30519.18 7053.88,58428.9 128.4,32258.03 -99.55,33676.13 -8162.82,50765.92 -21693.6,45978.86 -70893.31,102867.59 -102516.74,118538.24 -22194.44,10998.21 -37440.14,11142.23 -49596.81,468.53 z m -190487.77,-6139.87 c -5446.22,-14324.67 -3046.9,-32941.23 8629.09,-66953.98 14217.2,-41415.35 23895.05,-62933.1 38067.22,-84638.86 11638.87,-17825.84 23569.45,-30594 26163.29,-28000.16 826.84,826.85 -2677.32,13371.47 -7787.04,27876.97 -5109.73,14505.48 -15373.67,44753 -22808.8,67216.7 -13045.08,39413.13 -27481.6,74155.23 -35674.55,85852.28 l -3937.5,5621.57 z m 879438.05,-101730.01 c -35335.09,-18619.21 -69489.74,-56860.91 -83093.17,-93036.3 -4976.52,-13234.03 -5356.7,-17402.83 -3562.56,-39065.57 2674.99,-32298.46 1836.25,-40183.16 -6981.77,-65632.36 -10704.11,-30892.7 -11872.12,-42142.2 -5080.65,-48933.7 9212.57,-9212.6 19857.73,-6098 38382.7,11229.9 15265.44,14279 26620.86,36883.9 40673.05,80966.5 5700.32,17882.23 16200.95,46988.42 23334.73,64680.37 7133.81,17691.95 15218.37,41542.86 17965.7,53002 5791.6,24156.83 6701.72,47679.72 1840.06,47558.64 -1754.98,-43.65 -12320.11,-4889.96 -23478.09,-10769.48 z m -735565.95,-52369.29 c -10664.9,-7121.17 -11076.88,-24609.9 -1268.03,-53829.13 7888.59,-23499.02 61952.44,-132781.31 72073.2,-145685.61 3317.4,-4229.8 12178.18,-10790.2 19690.61,-14578.7 11076.59,-5585.9 17144.7,-6888.2 32096.36,-6888.2 31132.21,0 47631.31,12109.7 43863.48,32193.9 -2439.07,13001.4 -10491.72,21605.8 -39810.88,42538.4 -13955.83,9963.9 -28388.42,22068 -32072.42,26897.9 -3683.99,4830 -12310.26,22024.5 -19169.47,38210 -21309.27,50282.85 -32696.42,69108.02 -47239.55,78096.18 -8077.95,4992.45 -22854.26,6590.18 -28163.3,3045.26 z m 514449.28,-29884.3 c -4818.03,-3535 -16801.01,-10441.72 -26628.88,-15348.3 -33757.96,-16853.72 -73766.723,-17538.54 -137845.41922,-2359.43 -33962.20278,8045.02 -53576.32978,10329.12 -55934.43078,6513.63 -2862.488,-4631.63 4514.744,-15739.45 35987.049,-54185.25 31242.027,-38164.49 47354.039,-60695.69 51839.044,-72492.19 1433.209,-3769.6 4452.662,-15085.8 6709.881,-25147.1 11935.55,-53201.4 33371.254,-66054 62156.726,-37268.5 29166.07,29166 65850.87,108408.4 78391.41,169332.18 3187.73,15486.38 3756.85,23636.51 1998.07,28613.37 -3339.12,9448.85 -6400.59,9878.8 -16673.45,2341.59 z m -283174.53,-19524.15 c -14987.83,-5958.9 -28502.19,-25503.29 -35971.68,-52021.99 -2283.79,-8108.1 -3595.06,-25333 -3595.06,-47224.9 0,-30587.2 629.16,-35637.1 5596.5,-44920.3 11257.86,-21039.2 28637.13,-26236.4 68812.973,-20578.3 15234.038,2145.5 34016.166,4686.2 41738.063,5646.2 33541.6204,4169.7 55484.263,19212.9 52735.192,36153.5 -2849.5971,17559.9 -33136.151,59576.3 -69254.154,96075.76 -26300.83,26578.61 -42531.514,33839.78 -60061.834,26870.03 z m 343337.14,-6933.86 c -10196.71,-6218.41 -21725.05,-19626.4 -31326.7,-36434.38 -10506.58,-18392.15 -46684.16,-103527.55 -48372.77,-113833.95 -2149.92,-13122.2 8006.65,-20897.1 43919.22,-33620.4 32929.17,-11666.3 54112.77,-14181.2 64816.55,-7695 12285.55,7444.7 15844.03,19959.1 15361.44,54023.1 -405.29,28606.3 226.17,33308.7 7574.25,56410.5 10872.66,34182.6 10784.18,48628.75 -387.52,63275.84 -16457.65,21577.41 -34985.15,27997.28 -51584.47,17874.29 z m -617711.82,-5395.9 c -3966.52,-12497.5 9527.65,-41289.43 40736.21,-86917.13 10083.17,-14741.8 21681.63,-33011.2 25774.39,-40598.6 10067.95,-18664.8 19496.32,-28324.1 27647.04,-28324.1 7917.18,0 8098.58,982.6 1812.49,9816.7 -10192.41,14324 -40876.76,76641.4 -44870.67,91128.8 -6899.73,25027.79 -11720.62,36684.23 -18507.97,44750.54 -11894.3,14135.56 -29577.7,19639.35 -32591.49,10143.79 z m 778027.25,-33663.82 c -1583.28,-1911.67 -6332.41,-12091.11 -10553.68,-22620.91 -4221.26,-10529.9 -11681.5,-27760.6 -16578.33,-38290.4 -4896.83,-10529.9 -10323.2,-26400.7 -12058.57,-35268.4 -5034.88,-25728.3 1116.4,-79602.8 9088.89,-79602.8 4246.36,0 5135.61,4034.1 11374.04,51599.7 3702.78,28232.2 7857.95,47749.5 14029.44,65897.8 10042.4,29531.3 12616.59,44049.5 9655.44,54455.97 -1671.38,5873.74 -2642.52,6623.88 -4957.23,3829.04 z m -78866.5,-122667.31 c -23052.04,-21248.6 -41585.49,-51958.8 -52851.98,-87576.6 -3552.83,-11231.8 -10003.74,-27888.2 -14335.41,-37014 -9711.01,-20459.1 -9817.35,-26564.1 -713.96,-40981.5 10605.26,-16796.1 10922.82,-18674.6 6649.56,-39337.8 -4348.13,-21025.4 -2385.19,-29446.6 6863.86,-29446.6 12495.51,0 19959.84,9835.6 29058.99,38290.4 2469.29,7721.9 10666.71,29239.4 18216.53,47816.6 17976.37,44233.1 26431.45,73864.2 28243.63,98980.7 1491.18,20667.6 -2745.55,56155.3 -7019.5,58796.8 -1242.93,768.2 -7593.21,-3519.4 -14111.72,-9528 z m -359692.393,-468.9 c -37132.928,-12130.2 -54882.897,-24811.6 -54882.897,-39210.9 0,-19927.4 15317.253,-34811.4 58460.598,-56807.3 16966.194,-8649.8 37821.696,-21096.3 46345.572,-27658.8 33863.592,-26071.5 38148.696,-28524.4 49831.427,-28524.4 8698.174,0 12998.517,1658.3 19810.711,7639.5 11130.048,9772.3 19903.475,30204 21497.657,50064.1 1537.232,19150.7 -2028.523,30649.3 -13039.13,42047.7 -27179.34,28136.6 -54942.532,53462.5 -61181.926,55811 -12739.9805,4795.1 -47174.967,3063.7 -66842.012,-3360.9 z m -218199.197,-18823.1 c 62.03,-13403.1 4810.8,-25442.1 18395.24,-46634.8 17213.78,-26854.8 34520.73,-40836.9 26008.04,-21011.6 -2260.69,5264.9 -6888.47,16824.8 -10283.93,25688.5 -11812.9,30837.2 -25596.16,54083.1 -32067.67,54083.1 -1159.26,0 -2082.52,-5456.3 -2051.68,-12125.2 z m 48445.11,1167.8 c -9054.89,-4574.7 -13442.48,-19294.2 -10141.65,-34023.2 8738.89,-38994.6 58620.1,-101779.1 106082.6,-133524 18777.64,-12559.2 37747.592,-20507.8 41053.585,-17201.8 917.872,917.9 251.185,6400.7 -1481.558,12184 -3305.712,11033.6 -19154.307,28496.7 -46848.297,51621 -18303.88,15283.6 -23446.21,25238.2 -31239.91,60475 -3393.5,15342.6 -7835.72,31085 -9871.6,34983.1 -5223.29,10000.9 -16578.18,20180.1 -27687.81,24820.8 -11367.75,4748.6 -11756.81,4761.6 -19865.36,665.1 z m 336955.48,-10141.9 c -6023.74,-3097.8 -6466.48,-4781.8 -7892.57,-30019.9 -1536.54,-27193.1 -5448.67,-44071.2 -16544.947,-71379.2 -7545.53,-18569.7 -7867.272,-30401.1 -1061.971,-39052.7 13300.728,-16909.1 53879.488,-19571.2 82935.078,-5440.8 21851.95,10627.1 48834.09,38180.2 60787.64,62074 7613.03,15217.5 9411.42,21650.5 9411.42,33665.4 0,29040.2 -9432.1,37091 -47776.79,40780.3 -13736.24,1321.6 -31292.87,4036.8 -39014.77,6033.8 -23211.38,6002.8 -33955.39,6881.2 -40843.09,3339.1 z m -274770.91,-18978.6 c -4033.33,-16070.2 19580.77,-64214.6 49365.92,-100647.2 27784.558,-33985.5 49955.539,-50530 67902.963,-50670.8 24722.832,-194 37530.6116,28450.4 24633.487,55092.3 -6421.988,13266.1 -14266.746,19310.6 -47531.884,36624.2 -31597.567,16445.6 -41372.416,24266.5 -54511.896,43615.3 -12100.91,17819.4 -18693.62,22879.1 -29810.75,22879.1 -6907.92,0 -8611.05,-1168.3 -10047.84,-6892.9 z m 488736.72,-55815.7 c -5162.79,-9419 -27771.51,-70498.9 -33763.8,-91216.5 -7982.25,-27597.5 -8486.02,-67505.2 -819.93,-64949.8 1624.38,541.4 7284.24,8943.3 12577.48,18670.9 9344.9,17173.5 9625.16,18446.7 9663.6,43898.8 34.72,23010.2 1149.35,29645.1 9124.01,54313.2 5571.51,17234.4 8779.66,31776.2 8296.26,37605.1 l -788.17,9504 z M 9640.4464,-1290581.2 c -2105.9717,-766.3 -6987.9972,-4336.6 -10848.9454,-7934.1 -5844.2886,-5445.5 -7019.9059,-8671.6 -7019.9059,-19264.3 0,-11644.9 922.4923,-13606.1 10882.0284,-23134.8 14726.8175,-14089.9 91064.3375,-49978.2 106308.0265,-49978.2 20970.93,0 26480.31,16564.5 13206.41,39706.5 -10743.01,18729.5 -47986.395,53146.8 -63073.781,58287.6 -11484.208,3913.1 -41236.969,5307.2 -49453.8326,2317.3 z m 176063.6336,-10653 c -19279.17,-6170.6 -45152.93,-20287.1 -51144.36,-27904 -8691.41,-11049.3 -6604.4,-17524.2 17106.29,-53071.3 23609.47,-35395.3 40224.98,-35469.9 56689.21,-254.4 30093.39,64367.1 32853.44,73619.7 24463.53,82009.6 -5432.74,5432.8 -28918.7,5044 -47114.67,-779.9 z m -323103.37,-20233.1 c 4689.27,-9068 13814.18,-16437.3 37273.94,-30102.5 9125.873,-5315.8 25207.839,-16519.9 35737.698,-24897.9 18550.14,-14759.4 39795.693,-26533.9 42677.378,-23652.2 3017.079,3017 -7651.698,14622.6 -22887.753,24897.4 -8778.328,5919.9 -23427.212,17600.8 -32553.09,25957.6 -23033.253,21092 -40994.823,32564.2 -53640.093,34260.3 l -10691.63,1434.1 z m 67117.47,-6208.1 c -9830.702,-7196.9 3252.897,-23831.3 29926.165,-38048 19023.766,-10139.6 32984.1892,-22881.1 51368.455,-46883.4 11111.515,-14507.1 17039.838,-19832 26710.971,-23992.4 14131.658,-6079.3 20033.28,-6576.1 29091.741,-2448.8 17414.676,7934.7 7846.57,25281.5 -29095.442,52749.5 -10529.859,7829.4 -27647.351,21484.7 -38038.87889,30345.1 -28159.14011,24010.1 -58848.94311,36414.4 -69963.01111,28278 z m 340296.96,-35223.4 c -39108.51,-11886.6 -43345.78,-13661.2 -50630.65,-21205 -11420.55,-11826.4 -23632.61,-39780.6 -25270.75,-57846.5 -1652.71,-18226.2 366.93,-19131.8 17390,-7797.4 19784.21,13172.9 36864.79,33314.7 51880.83,61179 7876.48,14615.9 14026.46,26807.3 13666.61,27092 -359.88,284.6 -3526.09,-355.3 -7036.04,-1422.1 z m -162096.01,-36933.3 c -18741.312,-6626.1 -28801.144,-23736.4 -21727.019,-36954.5 4612.844,-8619.2 24564.749,-14034.7 51082.989,-13865.3 28698.62,183.3 45948.47,4259.1 45948.47,10856.8 0,8260.7 -14444.21,27422.3 -26880.93,35660.1 -13962.44,9248.3 -30323.74,10702.2 -48423.51,4302.9 z m 158997.32,-8291.1 c -3481.39,-5265 -8360.05,-13593.1 -10841.42,-18507.1 -7787.55,-15421.9 -16751.79,-22787.5 -34347.83,-28222.3 -18213.09,-5625.5 -25740.16,-10924.7 -25740.16,-18121.8 0,-6369.3 10574.25,-6224.9 24113.32,329.2 15939.17,7716 33105.6,27089.1 45863.07,51758.5 11800.97,22819.8 12335.37,29977.1 953.02,12763.5 z m -275144.8549,-2508.5 c 0,-7084.7 11929.7302,-23020.7 23517.0419,-31414.5 20177.456,-14616.4 20369.929,-6236.2 353.369,15384.1 -16944.3165,18301.9 -23870.4109,22953.2 -23870.4109,16030.4 z m 47955.5299,-39310 c -5020.586,-3102.9 10559.163,-14506.7 26941.939,-19720.4 23854.304,-7591.5 30467.949,-8146 49376.456,-4139.5 9570.31,2027.8 25154.34,3706.9 34631.22,3731.2 13410.24,34.5 17230.67,873.4 17230.67,3783.6 0,6768.1 -10093.47,9363.6 -35244.26,9063.1 -14690.9,-175.6 -29929.61,1186 -37507.487,3351.2 -14100.234,4028.8 -51032.137,6647.9 -55428.538,3930.8 z"
                                   id="path5082" /></g></g></g></g></g></g></g></g></g></g></g></g></g></g></g></g></g></g></g></g></g></g></g></g></g></g></g></g></g></g></g></g></g></g></g></g></g></g></g></g></g></g></g></g></g></g></g></g></g></g></g></g></g></g></g></g></g></g></g></g></g></g></g></g></g></g></svg>
