<?xml version="1.0" encoding="UTF-8" standalone="no"?>
<!-- Created with Inkscape (http://www.inkscape.org/) -->

<svg
   width="64"
   height="64"
   viewBox="0 0 16.933333 16.933334"
   version="1.1"
   id="svg5"
   inkscape:version="1.2 (dc2aedaf03, 2022-05-15)"
   sodipodi:docname="mures.svg"
   xml:space="preserve"
   xmlns:inkscape="http://www.inkscape.org/namespaces/inkscape"
   xmlns:sodipodi="http://sodipodi.sourceforge.net/DTD/sodipodi-0.dtd"
   xmlns="http://www.w3.org/2000/svg"
   xmlns:svg="http://www.w3.org/2000/svg"><sodipodi:namedview
     id="namedview7"
     pagecolor="#ffffff"
     bordercolor="#666666"
     borderopacity="1.0"
     inkscape:pageshadow="2"
     inkscape:pageopacity="0.0"
     inkscape:pagecheckerboard="0"
     inkscape:document-units="mm"
     showgrid="false"
     units="px"
     inkscape:zoom="11.313708"
     inkscape:cx="29.168155"
     inkscape:cy="39.686368"
     inkscape:window-width="1920"
     inkscape:window-height="1017"
     inkscape:window-x="1912"
     inkscape:window-y="-8"
     inkscape:window-maximized="1"
     inkscape:current-layer="g14746"
     inkscape:showpageshadow="2"
     inkscape:deskcolor="#d1d1d1"
     showguides="true" /><defs
     id="defs2"><pattern
       id="EMFhbasepattern"
       patternUnits="userSpaceOnUse"
       width="6"
       height="6"
       x="0"
       y="0" /><pattern
       id="EMFhbasepattern-5"
       patternUnits="userSpaceOnUse"
       width="6"
       height="6"
       x="0"
       y="0" /><pattern
       id="EMFhbasepattern-56"
       patternUnits="userSpaceOnUse"
       width="6"
       height="6"
       x="0"
       y="0" /><pattern
       id="EMFhbasepattern-6"
       patternUnits="userSpaceOnUse"
       width="6"
       height="6"
       x="0"
       y="0" /><pattern
       id="EMFhbasepattern-62"
       patternUnits="userSpaceOnUse"
       width="6"
       height="6"
       x="0"
       y="0" /><pattern
       id="EMFhbasepattern-8"
       patternUnits="userSpaceOnUse"
       width="6"
       height="6"
       x="0"
       y="0" /><pattern
       id="EMFhbasepattern-81"
       patternUnits="userSpaceOnUse"
       width="6"
       height="6"
       x="0"
       y="0" /><pattern
       id="EMFhbasepattern-9"
       patternUnits="userSpaceOnUse"
       width="6"
       height="6"
       x="0"
       y="0" /><pattern
       id="EMFhbasepattern-52"
       patternUnits="userSpaceOnUse"
       width="6"
       height="6"
       x="0"
       y="0" /><pattern
       id="EMFhbasepattern-0"
       patternUnits="userSpaceOnUse"
       width="6"
       height="6"
       x="0"
       y="0" /><pattern
       id="EMFhbasepattern-7"
       patternUnits="userSpaceOnUse"
       width="6"
       height="6"
       x="0"
       y="0" /><pattern
       id="EMFhbasepattern-65"
       patternUnits="userSpaceOnUse"
       width="6"
       height="6"
       x="0"
       y="0" /><pattern
       id="EMFhbasepattern-3"
       patternUnits="userSpaceOnUse"
       width="6"
       height="6"
       x="0"
       y="0" /><pattern
       id="EMFhbasepattern-90"
       patternUnits="userSpaceOnUse"
       width="6"
       height="6"
       x="0"
       y="0" /><pattern
       id="EMFhbasepattern-4"
       patternUnits="userSpaceOnUse"
       width="6"
       height="6"
       x="0"
       y="0" /><pattern
       id="EMFhbasepattern-2"
       patternUnits="userSpaceOnUse"
       width="6"
       height="6"
       x="0"
       y="0" /><pattern
       id="EMFhbasepattern-40"
       patternUnits="userSpaceOnUse"
       width="6"
       height="6"
       x="0"
       y="0" /><pattern
       id="EMFhbasepattern-74"
       patternUnits="userSpaceOnUse"
       width="6"
       height="6"
       x="0"
       y="0" /><pattern
       id="EMFhbasepattern-656"
       patternUnits="userSpaceOnUse"
       width="6"
       height="6"
       x="0"
       y="0" /><pattern
       id="EMFhbasepattern-76"
       patternUnits="userSpaceOnUse"
       width="6"
       height="6"
       x="0"
       y="0" /><pattern
       id="EMFhbasepattern-1"
       patternUnits="userSpaceOnUse"
       width="6"
       height="6"
       x="0"
       y="0" /><pattern
       id="EMFhbasepattern-42"
       patternUnits="userSpaceOnUse"
       width="6"
       height="6"
       x="0"
       y="0" /><pattern
       id="EMFhbasepattern-73"
       patternUnits="userSpaceOnUse"
       width="6"
       height="6"
       x="0"
       y="0" /><pattern
       id="EMFhbasepattern-566"
       patternUnits="userSpaceOnUse"
       width="6"
       height="6"
       x="0"
       y="0" /><pattern
       id="EMFhbasepattern-71"
       patternUnits="userSpaceOnUse"
       width="6"
       height="6"
       x="0"
       y="0" /><pattern
       id="EMFhbasepattern-31"
       patternUnits="userSpaceOnUse"
       width="6"
       height="6"
       x="0"
       y="0" /><pattern
       id="EMFhbasepattern-60"
       patternUnits="userSpaceOnUse"
       width="6"
       height="6"
       x="0"
       y="0" /><pattern
       id="EMFhbasepattern-28"
       patternUnits="userSpaceOnUse"
       width="6"
       height="6"
       x="0"
       y="0" /><pattern
       id="EMFhbasepattern-02"
       patternUnits="userSpaceOnUse"
       width="6"
       height="6"
       x="0"
       y="0" /><pattern
       id="EMFhbasepattern-57"
       patternUnits="userSpaceOnUse"
       width="6"
       height="6"
       x="0"
       y="0" /><pattern
       id="EMFhbasepattern-50"
       patternUnits="userSpaceOnUse"
       width="6"
       height="6"
       x="0"
       y="0" /><pattern
       id="EMFhbasepattern-45"
       patternUnits="userSpaceOnUse"
       width="6"
       height="6"
       x="0"
       y="0" /><pattern
       id="EMFhbasepattern-33"
       patternUnits="userSpaceOnUse"
       width="6"
       height="6"
       x="0"
       y="0" /><pattern
       id="EMFhbasepattern-21"
       patternUnits="userSpaceOnUse"
       width="6"
       height="6"
       x="0"
       y="0" /><pattern
       id="EMFhbasepattern-818"
       patternUnits="userSpaceOnUse"
       width="6"
       height="6"
       x="0"
       y="0" /><pattern
       id="EMFhbasepattern-32"
       patternUnits="userSpaceOnUse"
       width="6"
       height="6"
       x="0"
       y="0" /><pattern
       id="EMFhbasepattern-38"
       patternUnits="userSpaceOnUse"
       width="6"
       height="6"
       x="0"
       y="0" /><pattern
       id="EMFhbasepattern-39"
       patternUnits="userSpaceOnUse"
       width="6"
       height="6"
       x="0"
       y="0" /><pattern
       id="EMFhbasepattern-86"
       patternUnits="userSpaceOnUse"
       width="6"
       height="6"
       x="0"
       y="0" /><pattern
       id="EMFhbasepattern-07"
       patternUnits="userSpaceOnUse"
       width="6"
       height="6"
       x="0"
       y="0" /><pattern
       id="EMFhbasepattern-524"
       patternUnits="userSpaceOnUse"
       width="6"
       height="6"
       x="0"
       y="0" /><pattern
       id="EMFhbasepattern-508"
       patternUnits="userSpaceOnUse"
       width="6"
       height="6"
       x="0"
       y="0" /><pattern
       id="EMFhbasepattern-217"
       patternUnits="userSpaceOnUse"
       width="6"
       height="6"
       x="0"
       y="0" /><pattern
       id="EMFhbasepattern-84"
       patternUnits="userSpaceOnUse"
       width="6"
       height="6"
       x="0"
       y="0" /><pattern
       id="EMFhbasepattern-96"
       patternUnits="userSpaceOnUse"
       width="6"
       height="6"
       x="0"
       y="0" /><pattern
       id="EMFhbasepattern-48"
       patternUnits="userSpaceOnUse"
       width="6"
       height="6"
       x="0"
       y="0" /><pattern
       id="EMFhbasepattern-23"
       patternUnits="userSpaceOnUse"
       width="6"
       height="6"
       x="0"
       y="0" /><pattern
       id="EMFhbasepattern-36"
       patternUnits="userSpaceOnUse"
       width="6"
       height="6"
       x="0"
       y="0" /><pattern
       id="EMFhbasepattern-900"
       patternUnits="userSpaceOnUse"
       width="6"
       height="6"
       x="0"
       y="0" /><pattern
       id="EMFhbasepattern-37"
       patternUnits="userSpaceOnUse"
       width="6"
       height="6"
       x="0"
       y="0" /><pattern
       id="EMFhbasepattern-11"
       patternUnits="userSpaceOnUse"
       width="6"
       height="6"
       x="0"
       y="0" /><pattern
       id="EMFhbasepattern-95"
       patternUnits="userSpaceOnUse"
       width="6"
       height="6"
       x="0"
       y="0" /><pattern
       id="EMFhbasepattern-10"
       patternUnits="userSpaceOnUse"
       width="6"
       height="6"
       x="0"
       y="0" /><pattern
       id="EMFhbasepattern-909"
       patternUnits="userSpaceOnUse"
       width="6"
       height="6"
       x="0"
       y="0" /><pattern
       id="EMFhbasepattern-06"
       patternUnits="userSpaceOnUse"
       width="6"
       height="6"
       x="0"
       y="0" /><pattern
       id="EMFhbasepattern-34"
       patternUnits="userSpaceOnUse"
       width="6"
       height="6"
       x="0"
       y="0" /><pattern
       id="EMFhbasepattern-41"
       patternUnits="userSpaceOnUse"
       width="6"
       height="6"
       x="0"
       y="0" /><pattern
       id="EMFhbasepattern-82"
       patternUnits="userSpaceOnUse"
       width="6"
       height="6"
       x="0"
       y="0" /><pattern
       id="EMFhbasepattern-94"
       patternUnits="userSpaceOnUse"
       width="6"
       height="6"
       x="0"
       y="0" /><pattern
       id="EMFhbasepattern-738"
       patternUnits="userSpaceOnUse"
       width="6"
       height="6"
       x="0"
       y="0" /><pattern
       id="EMFhbasepattern-19"
       patternUnits="userSpaceOnUse"
       width="6"
       height="6"
       x="0"
       y="0" /><pattern
       id="EMFhbasepattern-342"
       patternUnits="userSpaceOnUse"
       width="6"
       height="6"
       x="0"
       y="0" /><pattern
       id="EMFhbasepattern-77"
       patternUnits="userSpaceOnUse"
       width="6"
       height="6"
       x="0"
       y="0" /><pattern
       id="EMFhbasepattern-29"
       patternUnits="userSpaceOnUse"
       width="6"
       height="6"
       x="0"
       y="0" /><pattern
       id="EMFhbasepattern-219"
       patternUnits="userSpaceOnUse"
       width="6"
       height="6"
       x="0"
       y="0" /><pattern
       id="EMFhbasepattern-105"
       patternUnits="userSpaceOnUse"
       width="6"
       height="6"
       x="0"
       y="0" /><pattern
       id="EMFhbasepattern-104"
       patternUnits="userSpaceOnUse"
       width="6"
       height="6"
       x="0"
       y="0" /><pattern
       id="EMFhbasepattern-44"
       patternUnits="userSpaceOnUse"
       width="6"
       height="6"
       x="0"
       y="0" /><pattern
       id="EMFhbasepattern-87"
       patternUnits="userSpaceOnUse"
       width="6"
       height="6"
       x="0"
       y="0" /><pattern
       id="EMFhbasepattern-93"
       patternUnits="userSpaceOnUse"
       width="6"
       height="6"
       x="0"
       y="0" /><pattern
       id="EMFhbasepattern-324"
       patternUnits="userSpaceOnUse"
       width="6"
       height="6"
       x="0"
       y="0" /><pattern
       id="EMFhbasepattern-20"
       patternUnits="userSpaceOnUse"
       width="6"
       height="6"
       x="0"
       y="0" /><pattern
       id="EMFhbasepattern-78"
       patternUnits="userSpaceOnUse"
       width="6"
       height="6"
       x="0"
       y="0" /><pattern
       id="EMFhbasepattern-313"
       patternUnits="userSpaceOnUse"
       width="6"
       height="6"
       x="0"
       y="0" /><pattern
       id="EMFhbasepattern-3422"
       patternUnits="userSpaceOnUse"
       width="6"
       height="6"
       x="0"
       y="0" /><pattern
       id="EMFhbasepattern-957"
       patternUnits="userSpaceOnUse"
       width="6"
       height="6"
       x="0"
       y="0" /><pattern
       id="EMFhbasepattern-75"
       patternUnits="userSpaceOnUse"
       width="6"
       height="6"
       x="0"
       y="0" /><pattern
       id="EMFhbasepattern-429"
       patternUnits="userSpaceOnUse"
       width="6"
       height="6"
       x="0"
       y="0" /><pattern
       id="EMFhbasepattern-102"
       patternUnits="userSpaceOnUse"
       width="6"
       height="6"
       x="0"
       y="0" /><pattern
       id="EMFhbasepattern-233"
       patternUnits="userSpaceOnUse"
       width="6"
       height="6"
       x="0"
       y="0" /><pattern
       id="EMFhbasepattern-18"
       patternUnits="userSpaceOnUse"
       width="6"
       height="6"
       x="0"
       y="0" /><pattern
       id="EMFhbasepattern-334"
       patternUnits="userSpaceOnUse"
       width="6"
       height="6"
       x="0"
       y="0" /><pattern
       id="EMFhbasepattern-317"
       patternUnits="userSpaceOnUse"
       width="6"
       height="6"
       x="0"
       y="0" /><pattern
       id="EMFhbasepattern-509"
       patternUnits="userSpaceOnUse"
       width="6"
       height="6"
       x="0"
       y="0" /><pattern
       id="EMFhbasepattern-657"
       patternUnits="userSpaceOnUse"
       width="6"
       height="6"
       x="0"
       y="0" /><pattern
       id="EMFhbasepattern-83"
       patternUnits="userSpaceOnUse"
       width="6"
       height="6"
       x="0"
       y="0" /><pattern
       id="EMFhbasepattern-390"
       patternUnits="userSpaceOnUse"
       width="6"
       height="6"
       x="0"
       y="0" /><pattern
       id="EMFhbasepattern-24"
       patternUnits="userSpaceOnUse"
       width="6"
       height="6"
       x="0"
       y="0" /><pattern
       id="EMFhbasepattern-63"
       patternUnits="userSpaceOnUse"
       width="6"
       height="6"
       x="0"
       y="0" /><pattern
       id="EMFhbasepattern-631"
       patternUnits="userSpaceOnUse"
       width="6"
       height="6"
       x="0"
       y="0" /><pattern
       id="EMFhbasepattern-98"
       patternUnits="userSpaceOnUse"
       width="6"
       height="6"
       x="0"
       y="0" /><pattern
       id="EMFhbasepattern-79"
       patternUnits="userSpaceOnUse"
       width="6"
       height="6"
       x="0"
       y="0" /><pattern
       id="EMFhbasepattern-489"
       patternUnits="userSpaceOnUse"
       width="6"
       height="6"
       x="0"
       y="0" /><pattern
       id="EMFhbasepattern-811"
       patternUnits="userSpaceOnUse"
       width="6"
       height="6"
       x="0"
       y="0" /><pattern
       id="EMFhbasepattern-450"
       patternUnits="userSpaceOnUse"
       width="6"
       height="6"
       x="0"
       y="0" /><pattern
       id="EMFhbasepattern-321"
       patternUnits="userSpaceOnUse"
       width="6"
       height="6"
       x="0"
       y="0" /><pattern
       id="EMFhbasepattern-371"
       patternUnits="userSpaceOnUse"
       width="6"
       height="6"
       x="0"
       y="0" /><pattern
       id="EMFhbasepattern-49"
       patternUnits="userSpaceOnUse"
       width="6"
       height="6"
       x="0"
       y="0" /><pattern
       id="EMFhbasepattern-576"
       patternUnits="userSpaceOnUse"
       width="6"
       height="6"
       x="0"
       y="0" /><pattern
       id="EMFhbasepattern-03"
       patternUnits="userSpaceOnUse"
       width="6"
       height="6"
       x="0"
       y="0" /><pattern
       id="EMFhbasepattern-795"
       patternUnits="userSpaceOnUse"
       width="6"
       height="6"
       x="0"
       y="0" /><pattern
       id="EMFhbasepattern-54"
       patternUnits="userSpaceOnUse"
       width="6"
       height="6"
       x="0"
       y="0" /><pattern
       id="EMFhbasepattern-22"
       patternUnits="userSpaceOnUse"
       width="6"
       height="6"
       x="0"
       y="0" /><pattern
       id="EMFhbasepattern-418"
       patternUnits="userSpaceOnUse"
       width="6"
       height="6"
       x="0"
       y="0" /><pattern
       id="EMFhbasepattern-26"
       patternUnits="userSpaceOnUse"
       width="6"
       height="6"
       x="0"
       y="0" /><pattern
       id="EMFhbasepattern-832"
       patternUnits="userSpaceOnUse"
       width="6"
       height="6"
       x="0"
       y="0" /><pattern
       id="EMFhbasepattern-824"
       patternUnits="userSpaceOnUse"
       width="6"
       height="6"
       x="0"
       y="0" /><pattern
       id="EMFhbasepattern-8182"
       patternUnits="userSpaceOnUse"
       width="6"
       height="6"
       x="0"
       y="0" /><pattern
       id="EMFhbasepattern-779"
       patternUnits="userSpaceOnUse"
       width="6"
       height="6"
       x="0"
       y="0" /><pattern
       id="EMFhbasepattern-714"
       patternUnits="userSpaceOnUse"
       width="6"
       height="6"
       x="0"
       y="0" /><pattern
       id="EMFhbasepattern-500"
       patternUnits="userSpaceOnUse"
       width="6"
       height="6"
       x="0"
       y="0" /><pattern
       id="EMFhbasepattern-839"
       patternUnits="userSpaceOnUse"
       width="6"
       height="6"
       x="0"
       y="0" /><pattern
       id="EMFhbasepattern-320"
       patternUnits="userSpaceOnUse"
       width="6"
       height="6"
       x="0"
       y="0" /><pattern
       id="EMFhbasepattern-66"
       patternUnits="userSpaceOnUse"
       width="6"
       height="6"
       x="0"
       y="0" /><pattern
       id="EMFhbasepattern-91"
       patternUnits="userSpaceOnUse"
       width="6"
       height="6"
       x="0"
       y="0" /><pattern
       id="EMFhbasepattern-835"
       patternUnits="userSpaceOnUse"
       width="6"
       height="6"
       x="0"
       y="0" /><pattern
       id="EMFhbasepattern-561"
       patternUnits="userSpaceOnUse"
       width="6"
       height="6"
       x="0"
       y="0" /><pattern
       id="EMFhbasepattern-792"
       patternUnits="userSpaceOnUse"
       width="6"
       height="6"
       x="0"
       y="0" /><pattern
       id="EMFhbasepattern-00"
       patternUnits="userSpaceOnUse"
       width="6"
       height="6"
       x="0"
       y="0" /><pattern
       id="EMFhbasepattern-114"
       patternUnits="userSpaceOnUse"
       width="6"
       height="6"
       x="0"
       y="0" /><pattern
       id="EMFhbasepattern-453"
       patternUnits="userSpaceOnUse"
       width="6"
       height="6"
       x="0"
       y="0" /><pattern
       id="EMFhbasepattern-17"
       patternUnits="userSpaceOnUse"
       width="6"
       height="6"
       x="0"
       y="0" /><pattern
       id="EMFhbasepattern-943"
       patternUnits="userSpaceOnUse"
       width="6"
       height="6"
       x="0"
       y="0" /><pattern
       id="EMFhbasepattern-963"
       patternUnits="userSpaceOnUse"
       width="6"
       height="6"
       x="0"
       y="0" /><pattern
       id="EMFhbasepattern-905"
       patternUnits="userSpaceOnUse"
       width="6"
       height="6"
       x="0"
       y="0" /><pattern
       id="EMFhbasepattern-46"
       patternUnits="userSpaceOnUse"
       width="6"
       height="6"
       x="0"
       y="0" /><pattern
       id="EMFhbasepattern-666"
       patternUnits="userSpaceOnUse"
       width="6"
       height="6"
       x="0"
       y="0" /></defs><g
     inkscape:label="Calque 1"
     inkscape:groupmode="layer"
     id="layer1"><g
       id="g4128"
       transform="translate(-0.63104184,0.12620835)"><g
         id="g5578"
         transform="translate(0.08924235,0.08924306)"><g
           id="g7501"
           transform="translate(-0.06310417,0.94656242)"><g
             id="g9467"
             transform="translate(-0.08924275,-0.80318511)"><g
               id="g10302"
               transform="translate(0.31234979,-0.04462139)"><g
                 id="g11479"
                 transform="translate(-0.12620833,0.06310418)"><g
                   id="g11873"
                   transform="translate(-0.23575769,0.66462456)"><g
                     id="g12382"
                     transform="translate(-121.98459,-82.267525)"><g
                       id="g13305"
                       transform="matrix(0.13266609,0,0,0.13266609,114.63867,78.215696)"><g
                         id="g17429"
                         transform="translate(0.90513437,5.6640979)"><g
                           id="g18595"
                           transform="translate(-3.3634362,-8.7449387)"><g
                             id="g21002"
                             transform="translate(1.7082278,-2.8204445)"><g
                               id="g23814"
                               transform="translate(8.7253043,-1.1218249)"><g
                                 id="g24838"
                                 transform="translate(11.143454,-0.85716864)"><g
                                   id="g25315"
                                   transform="translate(-3.490122,2.4929446)"><g
                                   id="g27220"
                                   transform="translate(2.4678888,1.2339445)"><g
                                   id="g29753"
                                   transform="translate(1.4759287,-2.3737724)"><g
                                   id="g30615"
                                   transform="translate(0.92006037,1.3687834)"><g
                                   id="g31433"
                                   transform="translate(-2.4678886,-1.410222)"><g
                                   id="g31731"
                                   transform="translate(1.0576664,-0.70511063)"><g
                                   id="g33243"
                                   transform="matrix(1.0772948,0,0,1.0772948,-7.3729128,-3.1743014)"><g
                                   id="g35254"
                                   transform="translate(-2.2135012,-0.92031205)"><g
                                   id="g36749"
                                   transform="translate(-0.98178042,-2.7817105)"><g
                                   id="g37297"
                                   transform="translate(-6.7755742,-3.5033798)"><g
                                   id="g38955"
                                   transform="matrix(1.2171094,0,0,1.2171094,-23.105122,-18.212482)"><g
                                   id="g39618"
                                   transform="translate(-0.26888273,-0.26888316)"><g
                                   id="g40032"
                                   transform="translate(-1.90129,-3.042064)"><g
                                   id="g40543"
                                   transform="translate(0.3802582,-2.0914191)"><g
                                   id="g41372"
                                   transform="translate(1.9657652,-7.9304203)"><g
                                   id="g43278"
                                   transform="translate(1.5210324,-0.38025789)"><g
                                   id="g44210"
                                   transform="matrix(1.1578947,0,0,1.1578947,-18.904476,-21.776183)"><g
                                   id="g44833"
                                   transform="matrix(1.1196819,0,0,1.1196819,-12.538538,-14.547543)"><g
                                   id="g47597"
                                   transform="translate(3.1109352,-1.2443743)"><g
                                   id="g48754"
                                   transform="translate(-2.9035392,-6.6366609)"><g
                                   id="g234"
                                   transform="matrix(0.04089637,0,0,0.04089637,104.63967,119.67231)"><g
                                   id="g2138"
                                   transform="translate(-86.211222,-40.569988)"><g
                                   id="g2696"
                                   transform="translate(-124306.44,-9412.2373)"><g
                                   id="g3765"
                                   transform="translate(25.356243,-50.712489)"><g
                                   id="g4557"
                                   transform="translate(46.61688,-35.859142)"><g
                                   id="g5244"
                                   transform="translate(7.1718407,14.343658)"><g
                                   id="g5807"
                                   transform="translate(-5.1984397,-21.113724)"><g
                                   id="g6945"
                                   transform="translate(-10.142522,-243.41993)"><g
                                   id="g11108"
                                   transform="translate(18.189368,-37.636113)"><g
                                   id="g15049"
                                   transform="translate(-65.926228,141.99496)"><g
                                   id="g19861"
                                   transform="matrix(0.07356842,0,0,0.07356842,115423.38,9039.2311)"><g
                                   id="g20437"
                                   transform="translate(-478.38824,-785.88156)"><g
                                   id="g21032"
                                   transform="translate(2047.1878,-1072.3367)"><g
                                   id="g21869"
                                   transform="matrix(0.04321578,0,0,0.04321578,117368,10137.003)"><g
                                   id="g25455"
                                   transform="translate(154741.46,-87178.414)"><g
                                   id="g26278"
                                   transform="translate(-18012.371,-8233.4417)"><g
                                   id="g27240"
                                   transform="translate(-0.00447131,5582.7624)"><g
                                   id="g28306"
                                   transform="translate(-15790.441,-2255.7767)"><g
                                   id="g33735"
                                   transform="translate(14662.549,-16918.328)"><g
                                   id="g37868"
                                   transform="translate(-5075.4976,25941.433)"><g
                                   id="g76752"
                                   transform="matrix(-1,0,0,1,9442.3174,-1595.0746)"><g
                                   id="g82459"
                                   transform="translate(3383.6668,-1127.8885)"><g
                                   id="g83208"
                                   transform="matrix(0.20332428,0,0,0.20332428,-15348.528,66747.475)"><g
                                   id="g83934"
                                   transform="matrix(-1,0,0,1,240692.18,94139.78)"><g
                                   id="g84550"
                                   transform="translate(-8.7627443e-5,55472.344)"><g
                                   id="g9096"
                                   transform="translate(31379.925,-62759.843)"><g
                                   id="g11527"
                                   transform="translate(61019.625,105397.54)"><g
                                   id="g13422"
                                   transform="translate(-44377.907,44377.908)"><g
                                   id="g1137"
                                   transform="translate(-3.3240812e-4,138680.92)"><g
                                   id="g3632"
                                   transform="translate(177511.65,-22188.943)"><g
                                   id="g20655"
                                   transform="translate(-15689.965,-78449.801)"><g
                                   id="g21357"
                                   transform="translate(-90217.312,58837.353)"><g
                                   id="g27825"
                                   transform="translate(-113718.43,58246.006)"><g
                                   id="g28046"
                                   transform="translate(22188.955,-116492.02)"><g
                                   id="g28257"
                                   transform="translate(-47069.884,109829.73)"><g
                                   id="g364"
                                   transform="translate(27736.196,-102623.92)"><g
                                   id="g675"
                                   transform="translate(133364.66,125519.69)"><g
                                   id="g3230"
                                   transform="translate(235349.41,-156899.61)"><g
                                   id="g3513"
                                   transform="translate(62759.878,-47511.945)"><g
                                   id="g4282"
                                   transform="translate(-44377.908,49925.155)"><g
                                   id="g12148"
                                   transform="translate(-74527.294,-35302.415)"><g
                                   id="g14746"
                                   transform="translate(-91529.428,30509.813)"><g
                                   id="g18182"
                                   transform="translate(-138680.99,-99850.296)"><path
                                   style="fill:#89b55d;stroke-width:2878.58"
                                   d="m -467564.74,-110190.51 c 423.08,-36933.95 -114302.45,-63916.98 -90008.42,-43080.36 -95477.13,-24395.19 -130002.38,-125998.59 -160094.03,-208433.57 -19513.39,-53935.53 -135703.03,-181953.61 -90883.42,-144605.77 67288.79,44921.34 140133.07,90977.26 224612.25,86992.71 118902.18,7715.82 256364.41,2609.45 347856.53,92223.4 21575.93,-12322.33 1024.43,-102140.7 19837.1,-74578.57 -16753.2,-55214.83 -42426.61,-219287.1 -16595.96,-166300.57 -52932.99,-173635.8 -117117.35,-343576.87 -185819.96,-511505.96 32396.29,-7071.7 132304.57,-16297.2 111561.33,-46970.1 65101.36,155210.6 123238.22,313524.92 170757.43,475030.03 47484.166,-48907.3 95844.94,-98466.29 127687.7615,-159334.6 -21643.6835,81014.84 36266.9425,148735.15 79528.5765,210242.96 47220.682,58328.76 55064.802,134102.97 51813.362,206253.91 64460.93,-107131.97 198292.02,-134869.72 313372.57,-147046.18 99096.63,-16496.66 210910.06,-27775.91 284653.85,-104052.45 18825.78,58038.96 -16615.52,115340.06 -61837.29,149979.64 -84099.79,69177.38 -171866.16,133938.66 -260624.32,197008.5 -288605.79,62725.66 -577211.57,125451.32 -865817.36,188176.98 z"
                                   id="path18188"
                                   sodipodi:nodetypes="ccsssssssssssscssssssscsscsssssccsssscsssscc" /><path
                                   style="fill:#07080a;stroke-width:2878.58"
                                   d="m 194785.75,1192364.5 c -52411.44,-14908.8 -74094.77,-47078.2 -102073.15,-91594.4 -722.982,-1967 -3515.43,-1600 -7966.111,1046.8 -61922.885,34245.7 -116523.838,20779.4 -170747.336,-637.5 -47204.923,-24451.2 -74960.493,-60638.5 -78451.913,-102284.31 -959.12,-11440.2 -2625.67,-21345.4 -3703.47,-22011.5 -27226.66,11187.84 -55860.66,12638.94 -74911.32,14240.3 -69456.35,-169.15 -106423.37,-27160.66 -152089.56,-75575.7 -10479.07,-16505.5 -17746.39,-40279.08 -17746.39,-58053.74 0,-12446.84 -1096.64,-14320.82 -18438.68,-31508.7 -15032.41,-14898.82 -20483.08,-18485.47 -29505.4,-19415.22 -38372.53,-3954.28 -67767.71,-15030.4 -88990.21,-33531.57 -23653.25,-20620.22 -38407.79,-62634.84 -34434.9,-98055.79 1041.27,-9283.58 5152.14,-25913.76 9135.31,-36955.98 3983.14,-11042.21 6816.69,-20417.85 6296.79,-20834.72 -519.9,-416.88 -8261.39,-4056.4 -17203.34,-8087.88 -46715.03,-26103.45 -54979.75,-66910.78 -58365.16,-101471.04 -2939.5,-41601.02 17877.51,-69417.96 39394.14,-98757.14 l 9938.45,-9521.36 -14795.1,-15154.05 c -27916.02,-28593.32 -47704.53,-79439.32 -43136,-110836.61 5353.46,-36791.44 28912.12,-69240.49 66030.03,-90947.85 18071.73,-10568.72 18897.76,-11484.36 12513.2,-13870.62 -35408.33,-13234.07 -54280.87,-27690.68 -70061.08,-53667.72 -24782.77,-40796.838 -25087.53,-93731.298 -801.94,-139295.713 10940.95,-20527.35 30370.76,-36864.19 64027.24,-53834.89 41975.69,-21165.59 75060.09,-21537.21 105306.46,-1182.9 l 14590.83,9818.91 -1908.81,-8690.82 c -7240.77,-32967.017 -2377.13,-67722.477 14289.89,-102114.717 21029.63,-43394.53 48631.94,-66247.13 89000.01,-73685.25 30578.48,-5634.29 72555.73,4741.55 103400.27,25558.29 l 12336.28,8325.64 -1102.32,-26118.54 c -1913.62,-45342.11 9590.81,-78691.47 40192.92,-116512.06 33686.29,-41766.13 76135.44,-53030.81 114908.583,-56283.83 65016.825,-4407.52 123255.84,67151.36 138038.572,118220.06 3120.261,12200.06 5745.55,24889.28 5834.008,28198.26 107.659,4032.4 1768.972,2134.83 5037.507,-5754.39 47497.38,-106391.33 144124.63,-113957.67 223616.78,-61288.89 19798.69,21914.8 35844.3,63208.91 36173.75,93094.79 l 159.77,14507.73 6316.88,-8537.94 c 58262.49,-81428.32 184432.69,-63951.75 231443.5,10374.21 22526.88,65155.61 17604.7,113517.44 -10616.35,166655.897 l 7887.87,-2179.48 c 128696.55,1273.231 187259.31,136994.783 118608.1,250861.133 -6738.14,7310 -11737.9,13744.13 -11110.61,14298.06 627.27,553.92 7035.44,3578.84 14240.37,6722.04 132526.21,71571.61 75944.18,159139.02 16974.76,230650.21 l 14631.8,14631.8 c 45229.46,45229.47 49596.27,130025.99 9072.81,176179.65 -9637.27,10976.24 -36604.14,26570.95 -51318.75,29677.16 -4979.63,1051.2 -15535.38,1961.46 -23457.28,2022.83 l -14403.42,111.7 1550.14,22615.78 c 3002.04,43799.16 -8618.77,77360.92 -37462.81,108195.3 -27178.13,29053.49 -73644.26,52813.8 -103469.73,52908.91 -6778.61,23.02 -15103.03,784.76 -18498.71,1695.82 -5646.1,1514.91 -5912.13,2557.44 -3111.82,12194.65 1684.13,5795.96 3085.6,22196.35 3114.36,36445.28 64.76,32135.3 -7073.16,52308.5 -25929.4,73281.1 -21701.73,24137.6 -69585.16,46018.41 -102472.6,46826.11 -7520.28,184.8 -13659.21,1086.3 -13642.09,2003.7 17.28,917.3 2078.45,8144.6 4580.71,16060.7 11610.25,54470.3 -2451.68,91345 -33174.02,133242.3 -29808.43,24327.4 -68711.59,34692.8 -103542.45,27587.9 z M -416726.99,-171607.82 c -678473.81,-787733.22 -339236.91,-393866.61 0,0 z"
                                   id="path18184"
                                   sodipodi:nodetypes="ccccscccsssssssccccsssssssscsssscscccsccsccccccsccsssscsscssssssccsccc" /><ellipse
                                   style="fill:#6e7995;fill-opacity:1;stroke:none;stroke-width:5766.16;stroke-linecap:round;stroke-linejoin:bevel;stroke-dasharray:5698.05, 22792.2, 17094.2, 22792.2;stroke-dashoffset:0"
                                   id="path18453-61-4-5-5-2"
                                   cx="278196.84"
                                   cy="464520.12"
                                   rx="40341.195"
                                   ry="51343.332"
                                   transform="rotate(93.425503)" /><ellipse
                                   style="fill:#6e7995;fill-opacity:1;stroke:none;stroke-width:5766.16;stroke-linecap:round;stroke-linejoin:bevel;stroke-dasharray:5698.05, 22792.2, 17094.2, 22792.2;stroke-dashoffset:0"
                                   id="path18453-61-4-5-5-99"
                                   cx="836688.19"
                                   cy="-324684.69"
                                   rx="40341.195"
                                   ry="51343.332"
                                   transform="rotate(93.425503)" /><ellipse
                                   style="fill:#6e7995;fill-opacity:1;stroke:none;stroke-width:5766.16;stroke-linecap:round;stroke-linejoin:bevel;stroke-dasharray:5698.05, 22792.2, 17094.2, 22792.2;stroke-dashoffset:0"
                                   id="path18453-61-4-5-5-83"
                                   cx="732765.38"
                                   cy="-18377.057"
                                   rx="40341.195"
                                   ry="51343.332"
                                   transform="rotate(93.425503)" /><ellipse
                                   style="fill:#6e7995;fill-opacity:1;stroke:none;stroke-width:5766.16;stroke-linecap:round;stroke-linejoin:bevel;stroke-dasharray:5698.05, 22792.2, 17094.2, 22792.2;stroke-dashoffset:0"
                                   id="path18453-61-4-5-5-60"
                                   cx="644012.81"
                                   cy="-479866.62"
                                   rx="40341.195"
                                   ry="51343.332"
                                   transform="rotate(93.425503)" /><ellipse
                                   style="fill:#6e7995;fill-opacity:1;stroke:none;stroke-width:5946.71;stroke-linecap:round;stroke-linejoin:bevel;stroke-dasharray:5876.45, 23505.8, 17629.4, 23505.8;stroke-dashoffset:0"
                                   id="path18453"
                                   cx="-218713.08"
                                   cy="-184230.16"
                                   rx="41604.297"
                                   ry="52950.918"
                                   transform="rotate(-30.512373)" /><ellipse
                                   style="fill:#6e7995;fill-opacity:1;stroke:none;stroke-width:5946.71;stroke-linecap:round;stroke-linejoin:bevel;stroke-dasharray:5876.45, 23505.8, 17629.4, 23505.8;stroke-dashoffset:0"
                                   id="path18453-6"
                                   cx="368581.62"
                                   cy="194964.5"
                                   rx="41604.297"
                                   ry="52950.918"
                                   transform="rotate(27.77175)" /><ellipse
                                   style="fill:#6e7995;fill-opacity:1;stroke:none;stroke-width:5946.71;stroke-linecap:round;stroke-linejoin:bevel;stroke-dasharray:5876.45, 23505.8, 17629.4, 23505.8;stroke-dashoffset:0"
                                   id="path18453-7"
                                   cx="229335.2"
                                   cy="-191731.62"
                                   rx="41604.297"
                                   ry="52950.918"
                                   transform="rotate(62.035547)" /><ellipse
                                   style="fill:#6e7995;fill-opacity:1;stroke:none;stroke-width:7914.82;stroke-linecap:round;stroke-linejoin:bevel;stroke-dasharray:7821.31, 31285.2, 23464, 31285.2;stroke-dashoffset:0"
                                   id="path18453-61"
                                   cx="45300.977"
                                   cy="-272351.44"
                                   rx="55373.559"
                                   ry="70475.43"
                                   transform="rotate(30.438785)" /><ellipse
                                   style="fill:#6e7995;fill-opacity:1;stroke:none;stroke-width:7914.82;stroke-linecap:round;stroke-linejoin:bevel;stroke-dasharray:7821.31, 31285.2, 23464, 31285.2;stroke-dashoffset:0"
                                   id="path18453-61-4"
                                   cx="-172245.84"
                                   cy="-422671.56"
                                   rx="55373.559"
                                   ry="70475.43"
                                   transform="rotate(93.425503)" /><ellipse
                                   style="fill:#6e7995;fill-opacity:1;stroke:none;stroke-width:7914.82;stroke-linecap:round;stroke-linejoin:bevel;stroke-dasharray:7821.31, 31285.2, 23464, 31285.2;stroke-dashoffset:0"
                                   id="path18453-61-4-3"
                                   cx="40132.359"
                                   cy="-588206.12"
                                   rx="55373.559"
                                   ry="70475.43"
                                   transform="rotate(93.425503)"
                                   inkscape:transform-center-x="-0.16536459"
                                   inkscape:transform-center-y="0.19843751" /><ellipse
                                   style="fill:#6e7995;fill-opacity:1;stroke:none;stroke-width:7914.82;stroke-linecap:round;stroke-linejoin:bevel;stroke-dasharray:7821.31, 31285.2, 23464, 31285.2;stroke-dashoffset:0"
                                   id="path18453-61-4-5"
                                   cx="68987.141"
                                   cy="543728.94"
                                   rx="55373.559"
                                   ry="70475.43"
                                   transform="rotate(93.425503)" /><ellipse
                                   style="fill:#6e7995;fill-opacity:1;stroke:none;stroke-width:7914.82;stroke-linecap:round;stroke-linejoin:bevel;stroke-dasharray:7821.31, 31285.2, 23464, 31285.2;stroke-dashoffset:0"
                                   id="path18453-61-4-5-4"
                                   cx="1063104.4"
                                   cy="-302115.84"
                                   rx="55373.559"
                                   ry="70475.43"
                                   transform="rotate(93.425503)" /><ellipse
                                   style="fill:#6e7995;fill-opacity:1;stroke:none;stroke-width:7914.82;stroke-linecap:round;stroke-linejoin:bevel;stroke-dasharray:7821.31, 31285.2, 23464, 31285.2;stroke-dashoffset:0"
                                   id="path18453-61-4-5-2"
                                   cx="399401.75"
                                   cy="727486.69"
                                   rx="55373.559"
                                   ry="70475.43"
                                   transform="rotate(63.428719)" /><ellipse
                                   style="fill:#6e7995;fill-opacity:1;stroke:none;stroke-width:5766.16;stroke-linecap:round;stroke-linejoin:bevel;stroke-dasharray:5698.05, 22792.2, 17094.2, 22792.2;stroke-dashoffset:0"
                                   id="path18453-61-4-5-5"
                                   cx="495470.38"
                                   cy="-640468.88"
                                   rx="40341.195"
                                   ry="51343.332"
                                   transform="rotate(93.425503)" /><ellipse
                                   style="fill:#6e7995;fill-opacity:1;stroke:none;stroke-width:5766.16;stroke-linecap:round;stroke-linejoin:bevel;stroke-dasharray:5698.05, 22792.2, 17094.2, 22792.2;stroke-dashoffset:0"
                                   id="path18453-61-4-5-5-1"
                                   cx="-285225.69"
                                   cy="103686.34"
                                   rx="40341.195"
                                   ry="51343.332"
                                   transform="rotate(93.425503)" /><ellipse
                                   style="fill:#6e7995;fill-opacity:1;stroke:none;stroke-width:5766.16;stroke-linecap:round;stroke-linejoin:bevel;stroke-dasharray:5698.05, 22792.2, 17094.2, 22792.2;stroke-dashoffset:0"
                                   id="path18453-61-4-5-5-6"
                                   cx="-119145.24"
                                   cy="371603.56"
                                   rx="40341.195"
                                   ry="51343.332"
                                   transform="rotate(93.425503)" /><ellipse
                                   style="fill:#6e7995;fill-opacity:1;stroke:none;stroke-width:5766.16;stroke-linecap:round;stroke-linejoin:bevel;stroke-dasharray:5698.05, 22792.2, 17094.2, 22792.2;stroke-dashoffset:0"
                                   id="path18453-61-4-5-5-4"
                                   cx="910700.38"
                                   cy="215487.56"
                                   rx="40341.195"
                                   ry="51343.332"
                                   transform="rotate(93.425503)" /><ellipse
                                   style="fill:#6e7995;fill-opacity:1;stroke:none;stroke-width:5766.16;stroke-linecap:round;stroke-linejoin:bevel;stroke-dasharray:5698.05, 22792.2, 17094.2, 22792.2;stroke-dashoffset:0"
                                   id="path18453-61-4-5-5-8"
                                   cx="125542.4"
                                   cy="691428.06"
                                   rx="40341.195"
                                   ry="51343.332"
                                   transform="rotate(55.939799)" /><ellipse
                                   style="fill:#6e7995;fill-opacity:1;stroke:none;stroke-width:5766.16;stroke-linecap:round;stroke-linejoin:bevel;stroke-dasharray:5698.05, 22792.2, 17094.2, 22792.2;stroke-dashoffset:0"
                                   id="path18453-61-4-5-5-9"
                                   cx="314376.09"
                                   cy="-462913.94"
                                   rx="40341.195"
                                   ry="51343.332"
                                   transform="rotate(93.425503)" /><ellipse
                                   style="fill:#6e7995;fill-opacity:1;stroke:none;stroke-width:5766.16;stroke-linecap:round;stroke-linejoin:bevel;stroke-dasharray:5698.05, 22792.2, 17094.2, 22792.2;stroke-dashoffset:0"
                                   id="path18453-61-4-5-5-66"
                                   cx="414279.31"
                                   cy="-142064.84"
                                   rx="40341.195"
                                   ry="51343.332"
                                   transform="rotate(154.71224)" /><ellipse
                                   style="fill:#6e7995;fill-opacity:1;stroke:none;stroke-width:5766.16;stroke-linecap:round;stroke-linejoin:bevel;stroke-dasharray:5698.05, 22792.2, 17094.2, 22792.2;stroke-dashoffset:0"
                                   id="path18453-61-4-5-5-3"
                                   cx="-109737.1"
                                   cy="18160.236"
                                   rx="40341.195"
                                   ry="51343.332"
                                   transform="rotate(93.425503)" /><ellipse
                                   style="fill:#6e7995;fill-opacity:1;stroke:none;stroke-width:7914.82;stroke-linecap:round;stroke-linejoin:bevel;stroke-dasharray:7821.31, 31285.2, 23464, 31285.2;stroke-dashoffset:0"
                                   id="path18453-61-4-9"
                                   cx="541376.44"
                                   cy="126451.06"
                                   rx="55373.559"
                                   ry="70475.43"
                                   transform="rotate(93.425503)" /><ellipse
                                   style="fill:#6e7995;fill-opacity:1;stroke:none;stroke-width:5946.71;stroke-linecap:round;stroke-linejoin:bevel;stroke-dasharray:5876.45, 23505.8, 17629.4, 23505.8;stroke-dashoffset:0"
                                   id="path18453-5"
                                   cx="261597.11"
                                   cy="271073.81"
                                   rx="41604.297"
                                   ry="52950.918"
                                   transform="rotate(38.137217)" /><ellipse
                                   style="fill:#6e7995;fill-opacity:1;stroke:none;stroke-width:5946.71;stroke-linecap:round;stroke-linejoin:bevel;stroke-dasharray:5876.45, 23505.8, 17629.4, 23505.8;stroke-dashoffset:0"
                                   id="path18453-71"
                                   cx="-223165.39"
                                   cy="609541.12"
                                   rx="41604.297"
                                   ry="52950.918"
                                   transform="rotate(-41.360527)" /><ellipse
                                   style="fill:#6e7995;fill-opacity:1;stroke:none;stroke-width:5946.71;stroke-linecap:round;stroke-linejoin:bevel;stroke-dasharray:5876.45, 23505.8, 17629.4, 23505.8;stroke-dashoffset:0"
                                   id="path18453-9"
                                   cx="453364.75"
                                   cy="817780.06"
                                   rx="41604.297"
                                   ry="52950.918"
                                   transform="rotate(28.692596)" /><ellipse
                                   style="fill:#6e7995;fill-opacity:1;stroke:none;stroke-width:5946.71;stroke-linecap:round;stroke-linejoin:bevel;stroke-dasharray:5876.45, 23505.8, 17629.4, 23505.8;stroke-dashoffset:0"
                                   id="path18453-55"
                                   cx="-232363.14"
                                   cy="43719.148"
                                   rx="41604.297"
                                   ry="52950.918"
                                   transform="rotate(-30.512373)" /><ellipse
                                   style="fill:#6e7995;fill-opacity:1;stroke:none;stroke-width:5946.71;stroke-linecap:round;stroke-linejoin:bevel;stroke-dasharray:5876.45, 23505.8, 17629.4, 23505.8;stroke-dashoffset:0"
                                   id="path18453-1"
                                   cx="-29463.412"
                                   cy="76370.078"
                                   rx="41604.297"
                                   ry="52950.918"
                                   transform="rotate(-30.512373)" /></g></g></g></g></g></g></g></g></g></g></g></g></g></g></g></g></g></g></g></g></g></g></g></g></g></g></g></g></g></g></g></g></g></g></g></g></g></g></g></g></g></g></g></g></g></g></g></g></g></g></g></g></g></g></g></g></g></g></g></g></g></g></g></g></g></g></g></g></g></g></g></g></g></g></g></g></g></g></svg>
