<?xml version="1.0" encoding="UTF-8" standalone="no"?>
<!-- Created with Inkscape (http://www.inkscape.org/) -->

<svg
   width="64"
   height="64"
   viewBox="0 0 16.933333 16.933334"
   version="1.1"
   id="svg5"
   inkscape:version="1.2 (dc2aedaf03, 2022-05-15)"
   sodipodi:docname="noix_de_coco.svg"
   xml:space="preserve"
   xmlns:inkscape="http://www.inkscape.org/namespaces/inkscape"
   xmlns:sodipodi="http://sodipodi.sourceforge.net/DTD/sodipodi-0.dtd"
   xmlns="http://www.w3.org/2000/svg"
   xmlns:svg="http://www.w3.org/2000/svg"><sodipodi:namedview
     id="namedview7"
     pagecolor="#ffffff"
     bordercolor="#666666"
     borderopacity="1.0"
     inkscape:pageshadow="2"
     inkscape:pageopacity="0.0"
     inkscape:pagecheckerboard="0"
     inkscape:document-units="mm"
     showgrid="false"
     units="px"
     inkscape:zoom="8"
     inkscape:cx="8.125"
     inkscape:cy="25.125"
     inkscape:window-width="1920"
     inkscape:window-height="1017"
     inkscape:window-x="1912"
     inkscape:window-y="-8"
     inkscape:window-maximized="1"
     inkscape:current-layer="g24678"
     inkscape:showpageshadow="2"
     inkscape:deskcolor="#d1d1d1" /><defs
     id="defs2"><pattern
       id="EMFhbasepattern"
       patternUnits="userSpaceOnUse"
       width="6"
       height="6"
       x="0"
       y="0" /><pattern
       id="EMFhbasepattern-5"
       patternUnits="userSpaceOnUse"
       width="6"
       height="6"
       x="0"
       y="0" /><pattern
       id="EMFhbasepattern-56"
       patternUnits="userSpaceOnUse"
       width="6"
       height="6"
       x="0"
       y="0" /><pattern
       id="EMFhbasepattern-6"
       patternUnits="userSpaceOnUse"
       width="6"
       height="6"
       x="0"
       y="0" /><pattern
       id="EMFhbasepattern-62"
       patternUnits="userSpaceOnUse"
       width="6"
       height="6"
       x="0"
       y="0" /><pattern
       id="EMFhbasepattern-8"
       patternUnits="userSpaceOnUse"
       width="6"
       height="6"
       x="0"
       y="0" /><pattern
       id="EMFhbasepattern-81"
       patternUnits="userSpaceOnUse"
       width="6"
       height="6"
       x="0"
       y="0" /><pattern
       id="EMFhbasepattern-9"
       patternUnits="userSpaceOnUse"
       width="6"
       height="6"
       x="0"
       y="0" /><pattern
       id="EMFhbasepattern-52"
       patternUnits="userSpaceOnUse"
       width="6"
       height="6"
       x="0"
       y="0" /><pattern
       id="EMFhbasepattern-0"
       patternUnits="userSpaceOnUse"
       width="6"
       height="6"
       x="0"
       y="0" /><pattern
       id="EMFhbasepattern-7"
       patternUnits="userSpaceOnUse"
       width="6"
       height="6"
       x="0"
       y="0" /><pattern
       id="EMFhbasepattern-65"
       patternUnits="userSpaceOnUse"
       width="6"
       height="6"
       x="0"
       y="0" /><pattern
       id="EMFhbasepattern-3"
       patternUnits="userSpaceOnUse"
       width="6"
       height="6"
       x="0"
       y="0" /><pattern
       id="EMFhbasepattern-90"
       patternUnits="userSpaceOnUse"
       width="6"
       height="6"
       x="0"
       y="0" /><pattern
       id="EMFhbasepattern-4"
       patternUnits="userSpaceOnUse"
       width="6"
       height="6"
       x="0"
       y="0" /><pattern
       id="EMFhbasepattern-2"
       patternUnits="userSpaceOnUse"
       width="6"
       height="6"
       x="0"
       y="0" /><pattern
       id="EMFhbasepattern-40"
       patternUnits="userSpaceOnUse"
       width="6"
       height="6"
       x="0"
       y="0" /><pattern
       id="EMFhbasepattern-74"
       patternUnits="userSpaceOnUse"
       width="6"
       height="6"
       x="0"
       y="0" /><pattern
       id="EMFhbasepattern-656"
       patternUnits="userSpaceOnUse"
       width="6"
       height="6"
       x="0"
       y="0" /><pattern
       id="EMFhbasepattern-76"
       patternUnits="userSpaceOnUse"
       width="6"
       height="6"
       x="0"
       y="0" /><pattern
       id="EMFhbasepattern-1"
       patternUnits="userSpaceOnUse"
       width="6"
       height="6"
       x="0"
       y="0" /><pattern
       id="EMFhbasepattern-42"
       patternUnits="userSpaceOnUse"
       width="6"
       height="6"
       x="0"
       y="0" /><pattern
       id="EMFhbasepattern-73"
       patternUnits="userSpaceOnUse"
       width="6"
       height="6"
       x="0"
       y="0" /><pattern
       id="EMFhbasepattern-566"
       patternUnits="userSpaceOnUse"
       width="6"
       height="6"
       x="0"
       y="0" /><pattern
       id="EMFhbasepattern-71"
       patternUnits="userSpaceOnUse"
       width="6"
       height="6"
       x="0"
       y="0" /><pattern
       id="EMFhbasepattern-31"
       patternUnits="userSpaceOnUse"
       width="6"
       height="6"
       x="0"
       y="0" /><pattern
       id="EMFhbasepattern-60"
       patternUnits="userSpaceOnUse"
       width="6"
       height="6"
       x="0"
       y="0" /><pattern
       id="EMFhbasepattern-28"
       patternUnits="userSpaceOnUse"
       width="6"
       height="6"
       x="0"
       y="0" /><pattern
       id="EMFhbasepattern-02"
       patternUnits="userSpaceOnUse"
       width="6"
       height="6"
       x="0"
       y="0" /><pattern
       id="EMFhbasepattern-57"
       patternUnits="userSpaceOnUse"
       width="6"
       height="6"
       x="0"
       y="0" /><pattern
       id="EMFhbasepattern-50"
       patternUnits="userSpaceOnUse"
       width="6"
       height="6"
       x="0"
       y="0" /><pattern
       id="EMFhbasepattern-45"
       patternUnits="userSpaceOnUse"
       width="6"
       height="6"
       x="0"
       y="0" /><pattern
       id="EMFhbasepattern-33"
       patternUnits="userSpaceOnUse"
       width="6"
       height="6"
       x="0"
       y="0" /><pattern
       id="EMFhbasepattern-21"
       patternUnits="userSpaceOnUse"
       width="6"
       height="6"
       x="0"
       y="0" /><pattern
       id="EMFhbasepattern-818"
       patternUnits="userSpaceOnUse"
       width="6"
       height="6"
       x="0"
       y="0" /><pattern
       id="EMFhbasepattern-32"
       patternUnits="userSpaceOnUse"
       width="6"
       height="6"
       x="0"
       y="0" /><pattern
       id="EMFhbasepattern-38"
       patternUnits="userSpaceOnUse"
       width="6"
       height="6"
       x="0"
       y="0" /><pattern
       id="EMFhbasepattern-39"
       patternUnits="userSpaceOnUse"
       width="6"
       height="6"
       x="0"
       y="0" /><pattern
       id="EMFhbasepattern-86"
       patternUnits="userSpaceOnUse"
       width="6"
       height="6"
       x="0"
       y="0" /><pattern
       id="EMFhbasepattern-07"
       patternUnits="userSpaceOnUse"
       width="6"
       height="6"
       x="0"
       y="0" /><pattern
       id="EMFhbasepattern-524"
       patternUnits="userSpaceOnUse"
       width="6"
       height="6"
       x="0"
       y="0" /><pattern
       id="EMFhbasepattern-508"
       patternUnits="userSpaceOnUse"
       width="6"
       height="6"
       x="0"
       y="0" /><pattern
       id="EMFhbasepattern-217"
       patternUnits="userSpaceOnUse"
       width="6"
       height="6"
       x="0"
       y="0" /><pattern
       id="EMFhbasepattern-84"
       patternUnits="userSpaceOnUse"
       width="6"
       height="6"
       x="0"
       y="0" /><pattern
       id="EMFhbasepattern-96"
       patternUnits="userSpaceOnUse"
       width="6"
       height="6"
       x="0"
       y="0" /><pattern
       id="EMFhbasepattern-48"
       patternUnits="userSpaceOnUse"
       width="6"
       height="6"
       x="0"
       y="0" /><pattern
       id="EMFhbasepattern-23"
       patternUnits="userSpaceOnUse"
       width="6"
       height="6"
       x="0"
       y="0" /><pattern
       id="EMFhbasepattern-36"
       patternUnits="userSpaceOnUse"
       width="6"
       height="6"
       x="0"
       y="0" /><pattern
       id="EMFhbasepattern-900"
       patternUnits="userSpaceOnUse"
       width="6"
       height="6"
       x="0"
       y="0" /><pattern
       id="EMFhbasepattern-37"
       patternUnits="userSpaceOnUse"
       width="6"
       height="6"
       x="0"
       y="0" /><pattern
       id="EMFhbasepattern-11"
       patternUnits="userSpaceOnUse"
       width="6"
       height="6"
       x="0"
       y="0" /><pattern
       id="EMFhbasepattern-95"
       patternUnits="userSpaceOnUse"
       width="6"
       height="6"
       x="0"
       y="0" /><pattern
       id="EMFhbasepattern-10"
       patternUnits="userSpaceOnUse"
       width="6"
       height="6"
       x="0"
       y="0" /><pattern
       id="EMFhbasepattern-909"
       patternUnits="userSpaceOnUse"
       width="6"
       height="6"
       x="0"
       y="0" /><pattern
       id="EMFhbasepattern-06"
       patternUnits="userSpaceOnUse"
       width="6"
       height="6"
       x="0"
       y="0" /><pattern
       id="EMFhbasepattern-34"
       patternUnits="userSpaceOnUse"
       width="6"
       height="6"
       x="0"
       y="0" /><pattern
       id="EMFhbasepattern-41"
       patternUnits="userSpaceOnUse"
       width="6"
       height="6"
       x="0"
       y="0" /><pattern
       id="EMFhbasepattern-82"
       patternUnits="userSpaceOnUse"
       width="6"
       height="6"
       x="0"
       y="0" /><pattern
       id="EMFhbasepattern-94"
       patternUnits="userSpaceOnUse"
       width="6"
       height="6"
       x="0"
       y="0" /><pattern
       id="EMFhbasepattern-738"
       patternUnits="userSpaceOnUse"
       width="6"
       height="6"
       x="0"
       y="0" /><pattern
       id="EMFhbasepattern-19"
       patternUnits="userSpaceOnUse"
       width="6"
       height="6"
       x="0"
       y="0" /><pattern
       id="EMFhbasepattern-342"
       patternUnits="userSpaceOnUse"
       width="6"
       height="6"
       x="0"
       y="0" /><pattern
       id="EMFhbasepattern-77"
       patternUnits="userSpaceOnUse"
       width="6"
       height="6"
       x="0"
       y="0" /><pattern
       id="EMFhbasepattern-29"
       patternUnits="userSpaceOnUse"
       width="6"
       height="6"
       x="0"
       y="0" /><pattern
       id="EMFhbasepattern-219"
       patternUnits="userSpaceOnUse"
       width="6"
       height="6"
       x="0"
       y="0" /><pattern
       id="EMFhbasepattern-105"
       patternUnits="userSpaceOnUse"
       width="6"
       height="6"
       x="0"
       y="0" /><pattern
       id="EMFhbasepattern-104"
       patternUnits="userSpaceOnUse"
       width="6"
       height="6"
       x="0"
       y="0" /><pattern
       id="EMFhbasepattern-44"
       patternUnits="userSpaceOnUse"
       width="6"
       height="6"
       x="0"
       y="0" /><pattern
       id="EMFhbasepattern-87"
       patternUnits="userSpaceOnUse"
       width="6"
       height="6"
       x="0"
       y="0" /><pattern
       id="EMFhbasepattern-93"
       patternUnits="userSpaceOnUse"
       width="6"
       height="6"
       x="0"
       y="0" /><pattern
       id="EMFhbasepattern-324"
       patternUnits="userSpaceOnUse"
       width="6"
       height="6"
       x="0"
       y="0" /><pattern
       id="EMFhbasepattern-20"
       patternUnits="userSpaceOnUse"
       width="6"
       height="6"
       x="0"
       y="0" /><pattern
       id="EMFhbasepattern-78"
       patternUnits="userSpaceOnUse"
       width="6"
       height="6"
       x="0"
       y="0" /><pattern
       id="EMFhbasepattern-313"
       patternUnits="userSpaceOnUse"
       width="6"
       height="6"
       x="0"
       y="0" /><pattern
       id="EMFhbasepattern-3422"
       patternUnits="userSpaceOnUse"
       width="6"
       height="6"
       x="0"
       y="0" /><pattern
       id="EMFhbasepattern-957"
       patternUnits="userSpaceOnUse"
       width="6"
       height="6"
       x="0"
       y="0" /><pattern
       id="EMFhbasepattern-75"
       patternUnits="userSpaceOnUse"
       width="6"
       height="6"
       x="0"
       y="0" /><pattern
       id="EMFhbasepattern-429"
       patternUnits="userSpaceOnUse"
       width="6"
       height="6"
       x="0"
       y="0" /><pattern
       id="EMFhbasepattern-102"
       patternUnits="userSpaceOnUse"
       width="6"
       height="6"
       x="0"
       y="0" /><pattern
       id="EMFhbasepattern-233"
       patternUnits="userSpaceOnUse"
       width="6"
       height="6"
       x="0"
       y="0" /><pattern
       id="EMFhbasepattern-18"
       patternUnits="userSpaceOnUse"
       width="6"
       height="6"
       x="0"
       y="0" /><pattern
       id="EMFhbasepattern-334"
       patternUnits="userSpaceOnUse"
       width="6"
       height="6"
       x="0"
       y="0" /><pattern
       id="EMFhbasepattern-317"
       patternUnits="userSpaceOnUse"
       width="6"
       height="6"
       x="0"
       y="0" /><pattern
       id="EMFhbasepattern-509"
       patternUnits="userSpaceOnUse"
       width="6"
       height="6"
       x="0"
       y="0" /><pattern
       id="EMFhbasepattern-657"
       patternUnits="userSpaceOnUse"
       width="6"
       height="6"
       x="0"
       y="0" /><pattern
       id="EMFhbasepattern-83"
       patternUnits="userSpaceOnUse"
       width="6"
       height="6"
       x="0"
       y="0" /><pattern
       id="EMFhbasepattern-390"
       patternUnits="userSpaceOnUse"
       width="6"
       height="6"
       x="0"
       y="0" /><pattern
       id="EMFhbasepattern-24"
       patternUnits="userSpaceOnUse"
       width="6"
       height="6"
       x="0"
       y="0" /><pattern
       id="EMFhbasepattern-63"
       patternUnits="userSpaceOnUse"
       width="6"
       height="6"
       x="0"
       y="0" /><pattern
       id="EMFhbasepattern-631"
       patternUnits="userSpaceOnUse"
       width="6"
       height="6"
       x="0"
       y="0" /><pattern
       id="EMFhbasepattern-98"
       patternUnits="userSpaceOnUse"
       width="6"
       height="6"
       x="0"
       y="0" /><pattern
       id="EMFhbasepattern-51"
       patternUnits="userSpaceOnUse"
       width="6"
       height="6"
       x="0"
       y="0" /><pattern
       id="EMFhbasepattern-285"
       patternUnits="userSpaceOnUse"
       width="6"
       height="6"
       x="0"
       y="0" /><pattern
       id="EMFhbasepattern-13"
       patternUnits="userSpaceOnUse"
       width="6"
       height="6"
       x="0"
       y="0" /><pattern
       id="EMFhbasepattern-72"
       patternUnits="userSpaceOnUse"
       width="6"
       height="6"
       x="0"
       y="0" /></defs><g
     inkscape:label="Calque 1"
     inkscape:groupmode="layer"
     id="layer1"><g
       id="g4128"
       transform="translate(-0.63104184,0.12620835)"><g
         id="g5578"
         transform="translate(0.08924235,0.08924306)"><g
           id="g7501"
           transform="translate(-0.06310417,0.94656242)"><g
             id="g9467"
             transform="translate(-0.08924275,-0.80318511)"><g
               id="g10302"
               transform="translate(0.31234979,-0.04462139)"><g
                 id="g11479"
                 transform="translate(-0.12620833,0.06310418)"><g
                   id="g11873"
                   transform="translate(-0.23575769,0.66462456)"><g
                     id="g12382"
                     transform="translate(-121.98459,-82.267525)"><g
                       id="g13305"
                       transform="matrix(0.13266609,0,0,0.13266609,114.63867,78.215696)"><g
                         id="g17429"
                         transform="translate(0.90513437,5.6640979)"><g
                           id="g18595"
                           transform="translate(-3.3634362,-8.7449387)"><g
                             id="g21002"
                             transform="translate(1.7082278,-2.8204445)"><g
                               id="g23814"
                               transform="translate(8.7253043,-1.1218249)"><g
                                 id="g24838"
                                 transform="translate(11.143454,-0.85716864)"><g
                                   id="g25315"
                                   transform="translate(-3.490122,2.4929446)"><g
                                   id="g27220"
                                   transform="translate(2.4678888,1.2339445)"><g
                                   id="g29753"
                                   transform="translate(1.4759287,-2.3737724)"><g
                                   id="g30615"
                                   transform="translate(0.92006037,1.3687834)"><g
                                   id="g31433"
                                   transform="translate(-2.4678886,-1.410222)"><g
                                   id="g31731"
                                   transform="translate(1.0576664,-0.70511063)"><g
                                   id="g33243"
                                   transform="matrix(1.0772948,0,0,1.0772948,-7.3729128,-3.1743014)"><g
                                   id="g35254"
                                   transform="translate(-2.2135012,-0.92031205)"><g
                                   id="g36749"
                                   transform="translate(-0.98178042,-2.7817105)"><g
                                   id="g37297"
                                   transform="translate(-6.7755742,-3.5033798)"><g
                                   id="g38955"
                                   transform="matrix(1.2171094,0,0,1.2171094,-23.105122,-18.212482)"><g
                                   id="g39618"
                                   transform="translate(-0.26888273,-0.26888316)"><g
                                   id="g40032"
                                   transform="translate(-1.90129,-3.042064)"><g
                                   id="g40543"
                                   transform="translate(0.3802582,-2.0914191)"><g
                                   id="g41372"
                                   transform="translate(1.9657652,-7.9304203)"><g
                                   id="g43278"
                                   transform="translate(1.5210324,-0.38025789)"><g
                                   id="g44210"
                                   transform="matrix(1.1578947,0,0,1.1578947,-18.904476,-21.776183)"><g
                                   id="g44833"
                                   transform="matrix(1.1196819,0,0,1.1196819,-12.538538,-14.547543)"><g
                                   id="g47597"
                                   transform="translate(3.1109352,-1.2443743)"><g
                                   id="g48754"
                                   transform="translate(-2.9035392,-6.6366609)"><g
                                   id="g234"
                                   transform="matrix(0.04089637,0,0,0.04089637,104.63967,119.67231)"><g
                                   id="g2138"
                                   transform="translate(-86.211222,-40.569988)"><g
                                   id="g2696"
                                   transform="translate(-124306.44,-9412.2373)"><g
                                   id="g3765"
                                   transform="translate(25.356243,-50.712489)"><g
                                   id="g4557"
                                   transform="translate(46.61688,-35.859142)"><g
                                   id="g5244"
                                   transform="translate(7.1718407,14.343658)"><g
                                   id="g5807"
                                   transform="translate(-5.1984397,-21.113724)"><g
                                   id="g6945"
                                   transform="translate(-10.142522,-243.41993)"><g
                                   id="g11108"
                                   transform="translate(18.189368,-37.636113)"><g
                                   id="g15049"
                                   transform="translate(-65.926228,141.99496)"><g
                                   id="g19861"
                                   transform="matrix(0.07356842,0,0,0.07356842,115423.38,9039.2311)"><g
                                   id="g20437"
                                   transform="translate(-478.38824,-785.88156)"><g
                                   id="g21032"
                                   transform="translate(2047.1878,-1072.3367)"><g
                                   id="g21869"
                                   transform="matrix(0.04321578,0,0,0.04321578,117368,10137.003)"><g
                                   id="g25455"
                                   transform="translate(154741.46,-87178.414)"><g
                                   id="g26278"
                                   transform="translate(-18012.371,-8233.4417)"><g
                                   id="g27240"
                                   transform="translate(-0.00447131,5582.7624)"><g
                                   id="g28306"
                                   transform="translate(-15790.441,-2255.7767)"><g
                                   id="g33735"
                                   transform="translate(14662.549,-16918.328)"><g
                                   id="g37868"
                                   transform="translate(-5075.4976,25941.433)"><g
                                   id="g71145"
                                   transform="matrix(0.02410957,0,0,0.02410957,-9696.5841,134768.38)"><g
                                   id="g21477"
                                   transform="matrix(1.1109383,0,0,1.1109383,-345808.15,153203.35)"><g
                                   id="g21662"
                                   transform="translate(589542.5,-1136973.8)"><g
                                   id="g22171"
                                   transform="matrix(1.1796445,0,0,1.1796445,-682060.04,-830113.71)"><g
                                   id="g22348"
                                   transform="translate(291395.42,-245550.41)"><g
                                   id="g24678"
                                   transform="translate(571157.05,696097.67)"><path
                                   style="fill:#e0d6cc;stroke-width:14175"
                                   d="m -1399098.7,2569730 c -958545.3,-68655.5 -1985166.6,-421501.9 -2727535.9,-937445.5 -134916.3,-93766.2 -138315.7,-96467.7 -283263.4,-225105 -150662.1,-133708.5 -188002.6,-174213.5 -283111.1,-307102 -257097.1,-359224.4 -257527.9,-670606.7 -1243.1,-899029.2 261160.3,-232768.302 863434.4,-346509 1487847,-280982.802 599132.4,62873.5 992150.4,154914 1523807.9,356859.402 309638.1,117613.1 314208.1,119591.7 559124.2,242054.7 609538.95,304781.9 1055000.742,681658 1237257.53,1046762.8 103482.1,207299.8 98254.4,439330.9 -13702.1,608162.7 -83806.598,126381.7 -325209.09,264396.4 -570720.77,326292.9 -251326.11,63362.5 -624457.06,91306.2 -928459.66,69532 z"
                                   id="path24690"
                                   sodipodi:nodetypes="sssssssssssss" /><path
                                   style="fill:#b9afa6;stroke-width:14175"
                                   d="m -5006811,-336173.01 c -3838381.6,-6582499.09 -1919190.8,-3291249.59 0,0 z m 3451787.8,2885878.21 c -477328.4,-45593 -1175960,-224539.5 -1615945.1,-413905.9 -217403.3,-93568.7 -344184,-150077.2 -370289,-165044.5 -12651.5,-7253.6 -73249.4,-40234.4 -134662.1,-73290.4 -575266.7,-309642.4 -1005570.4,-700137.3 -1148180.2,-1041958.5 -36123.8,-86584.7 -40776.1,-114717.6 -40776.1,-246573.1 0,-130160.9 4375.1,-157401.4 34866.5,-217089.7 160452.7,-314092.902 608784,-480631.102 1280586.8,-475690.002 206865.2,1521.4 229340.5,3654.3 148382,14081.1 -458010.7,58988.3 -781063.4,225451.602 -891651.4,459452.302 -129729.1,274502.7 -4166.5,604414.9 364845.9,958622.1 81454.7,78186.7 308189.6,261234.3 352320.6,284435.6 15906.3,8362.5 32110,19885.4 36008.1,25606.4 28373.6,41642.2 545396.1,324722.8 758360.2,415218 46777.4,19877.1 136598.8,58255.2 199603.2,85284.6 362498.2,155514.7 990030.8,319299.7 1416341.9,369662.9 101350.9,11973.3 203410.61,24141.9 226799.29,27041.2 87043.17,10790.6 -500780.49,5211.6 -616610.59,-5852.1 z"
                                   id="path24688"
                                   sodipodi:nodetypes="ccssssssssssssssssss" /><path
                                   style="fill:#84492f;stroke-width:14175"
                                   d="m -3263105.6,6120657.1 c -626599.3,-70731.3 -1233993.9,-323761.5 -1743479.9,-726303.9 -165831.7,-131022.8 -448588.3,-412697.2 -559950.6,-557807.4 -42879.3,-55873.6 -81151.7,-101765.4 -85049.8,-101981.9 -3898.1,-216.8 -19040.2,24562.7 -33649.2,55064.6 -28715.8,59955.3 -135422.3,172266.6 -115345,121403.6 18985.1,-125291.6 19175.2,-223451.3 24686.2,-355077.4 l -80406.7,-132602.6 c -107841.1,-177846.1 -231774.5,-427896.5 -306285,-617966.6 -33618.6,-85758.5 -63160.6,-158582.2 -65648.7,-161830.4 -41864,28573.6 -61425.9,64150.5 -99039.2,103432.1 l 6505.3,-191812.6 c 5802.5,-171088.2 2528.4,-208519.2 -30302.2,-346437.3 -45120,-189544.6 -91414.2,-469290.2 -103584.8,-625941.8 -4997.1,-64318.9 -14108,-116943.4 -20246.7,-116943.4 -6138.4,0 -27523,6220.8 -47521.1,13824.1 -35446.2,13476.6 -52076.2,-2437.9 -21982.6,-21036.7 14914.9,-9218 70672.2,-111416.7 70672.2,-129536.7 0,-5667.3 -17541.5,6185.6 -38981.1,26339.9 -53086.3,49903.6 -132466.4,96117.2 -165209,96181.5 -24589,42.5 -25050.3,-2164.7 -5159.7,-24753.2 37482.1,-42566 90540.1,-160419.1 145182.2,-322480.3 41109.2,-121924.6 55348.5,-191469.7 65301.7,-318936.5 18877.4,-241753.3 52256.9,-497077.9 88550.4,-677334.2 17712.6,-87971.7 29761.3,-162392 26774.8,-165378.6 -63565.1,35403 -145619.1,46881.8 -208422.7,67542.3 l 72209.7,-79008.9 c 131321.7,-143686.8 225508,-317263.1 312801.7,-576462.8 43513.2,-129203.3 97722.7,-270459.702 120465.5,-313903.002 109589.3,-209337.298 309245.6,-375925.898 612180.7,-510789.698 104657.4,-46592.51 115719.1,-55388.35 124665.1,-99128.58 12118.2,-59251.64 8757,-62971.54 -32851.6,-36357.49 -114040.7,64128.12 -223506.8,54092.88 -343435.4,66128.16 l 70106.2,-43782.05 c 198553.1,-131115.16 349523.7,-359046.06 436691.5,-503493.74 157044.3,-487978.8 431305.4,-988324.1 783916.9,-1430130.6 157207.5,-196974.1 551397.4,-590803.3 730678.7,-730010.3 75304.3,-58471.7 137329.4,-110086.5 137833.7,-114699.6 504.7,-4613.1 -26192.7,-16389.2 -59326.7,-26169 -75248.7,-22210.4 -186642.9,-81655.6 -218053.4,-116363.7 68421.5,-46953.9 272416,-37922 427859.5,-54740.7 164723.9,-28161 168751.7,-29780 366413.9,-147289.5 395729.8,-235260.1 856630.8,-442382.4 1277155.7,-573935.3 356993.3,-111678.4 885510.79,-223602.8 1183608.87,-250653.4 134351.94,-12191.6 155402.04,-22213.7 109638.19,-52199.4 -82697.13,-54185.2 -175286.67,-175314.4 -201865.85,-264088.8 l -10121.92,-33806.7 47705.68,36386.8 c 90783.8,69244.2 295974.53,147224.7 621357.2615,236140 65541.1005,17910 149437.4985,28998.6 219711.8985,29039.3 558026.2,323.3 1265542.17,103932.4 1807591.97,264705 66268,19655.1 131650,39032.4 145293.4,43060.6 30547.1,9019.1 30699.1,12472.1 -3397.5,-77236.7 -15504.1,-40791.8 -31891.2,-110957.8 -36415.6,-155924.6 l -8226.2,-81757.6 46003.6,56699.8 c 197509.9,237080 449877.3,396270.6 685847.1,525603.8 202319.3,92077.2 551892.7,282338.3 685686.8,373196 46982.7,31905.4 90764.5,58009.7 97293,58009.7 15518.3,-87160.4 32783.4,-149301.2 49649.2,-230026.8 l 24243.6,71613.6 c 31573.3,93264.9 150364.4,291235 213466.9,355751.2 27286.8,27898.1 116830.7,105767 198986.7,173041.9 511547.5,418891.2 1005677.2,1047437.7 1257338.8,1599369.5 l 48214.4,105742.7 40520.6,-65100.2 c 47232.4,-75885.9 131927.7,-161702.8 188582.2,-191077.6 l 39735.2,-20602.4 -23609.8,45655.9 c -34378.5,66480.3 -75712.7,281203.7 -86373.7,448702.5 l -9266.1,145564.3 91230,-42691.4 c 54713.9,-25603.8 127710.7,-46504.5 182372.2,-52217.9 l 91142.1,-9526.1 -93462.6,87429.7 c -51405.5,48086.4 -119829.4,121604.5 -152053.3,163373.68 l -58590.8,75943.9 36211.3,150260.5 c 118008,489687.62 138196,1130124.22 50903.7,1614923.12 -13685.9,76013.2 -21869.1,138205.9 -18185,138205.9 3685.5,0 39209.3,-15378 78943.2,-34173.4 71185.2,-33673.5 245510.2,-73696.1 259604.4,-59601.8 3976.1,3977 -32455,43973 -80960.3,88880.1 -175867.3,162822.2 -382726.7,459643.7 -452894.1,649855.6 C 5215053.7,2460774.1 4559716.5,3276538.1 3746158.2,3843544.8 2757985.4,4532248.1 1498959.6,4918119.6 240023.03,4918119.6 H -457.66847 l -87836.94953,84345.3 -87836.972,84345.6 79545.612,39424.6 79545.61,39424.7 -99224.702,10453.6 c -54573.59,5749.5 -127929,19019.1 -163012.02,29487.9 l -63787.3,19034.1 87194.7,39412.1 c 87298.46,39458.9 200181.012,134264.9 139604.62,117249 -75192.77,-21121.7 -168631.11,-24407.2 -302117.82,-10623.2 -123639.93,12767.4 -155348.32,21387.9 -205536.88,55879.4 -96646.99,66419.3 -316942.69,197589 -411140.13,244803.3 -48195,24156.6 -89956.8,46026.3 -92803.9,48599.3 -2847.4,2572.9 14517.8,28571.3 38589.1,57774.2 47292.2,57373.4 48855.7,72650.3 5035.2,49198.3 -15272.2,-8173.5 -57932.1,-21620.8 -94800.1,-29883.1 -64012.1,-14345.4 -75749.1,-11568.2 -260489.2,61636.8 -341355.6,135265.5 -661475.9,217182.4 -1006388.2,257528.9 -195999.3,22927.3 -632432.7,25302.2 -817188.6,4446.7 z m 3153928,-3080010.5 c 532916.73,-83786 908765.03,-269635.7 1077703.75,-532903.8 97548.15,-152015.5 128541.45,-380530.1 77776.95,-573451.5 C 922888.45,1465276 384553.23,926738.1 -412536.43,474902.5 -1664080.7,-234543.7 -3374595.7,-621614.62 -4517906.1,-454098.02 c -646385.6,94707.71 -1037940.3,322858.02 -1164970,678802.42 -37463.3,104973.9 -40477,300139.6 -6589.9,426753.3 147708.7,551889.6 838975.6,1173528.6 1845187.2,1659330.5 824243.7,397947.1 1778298.6,666132.8 2664892,749103.3 220907.7,20673.3 893205.8,8583.8 1070209.2,-19244.9 z"
                                   id="path24686"
                                   sodipodi:nodetypes="sssssccssccsssssssscssssccsssssccccssssccssssscssssssscccsccsssscsscsscsscsscssssssssscccccsscssssssssssssssssssssss" /><path
                                   style="fill:#6d331d;stroke-width:14175"
                                   d="m 196846.93,4709379.9 c 258028.5,-281975.9 280710,-297887.3 491316.8,-344666.2 44828.3,-9957.1 81506,-22891 81506,-28742.3 -67478.7,-21176.3 -132173.2,-39336.9 -198449.4,-58361.1 248165.3,-375855.1 400923.32,-696239.5 765447.77,-947085.8 28405.5,-19171.5 64473.9,-18562.2 99224.7,-28567 -450792.95,-126835.7 -14754.4,-573235.5 42524.9,-977854.9 -7766.7,-344046.5 -190711.9,-608365.4 -289944.4,-793797.6 -28586.2,0 -36466.7,-8910.9 -44163.6,-49938.6 -480684.77,-767165 -2516599,-1658402.7 -2025506.51,-1686869.5 38697.35,19632.1 81145.11,35721.4 94328.39,35754 973068.85,424452.2 1823842.82,891917.9 2435385.62,1552098.6 256768.2,290306.4 366153.1,564167.8 404236.9,952094.2 -57751.1,319109.3 -181995.6,584057.5 -290837.2,861463.4 55405,76481.3 113932.5,55485.3 215487.9,85195.6 l 40922.4,17206.6 c -118312.4,22395.6 -234710.8,71248 -334372.6,109236.3 -183022,259529.9 -331563.4,570643.5 -463393.3,873914.4 43764.9,389.8 133953.4,38221.4 147093.9,61702.2 10268.2,18348 6410.9,23134.1 -18645.1,23134.1 -64887.1,0 -352540.95,105950.4 -352540.95,129850.1 -31032.5,368220.5 -1134113.49,585861.9 -799622.22,214233.5 z M 1655604.7,3358874.4 c 4818.3,-7796.3 2005.4,-14175 -6250.9,-14175 -8256.3,0 -15011.6,6378.7 -15011.6,14175 0,7796.2 2812.9,14174.9 6250.9,14174.9 3438,0 10193.2,-6378.7 15011.6,-14174.9 z m 655913,-2616058.8 C 2129818.1,698769.9 1992671.8,594723.2 1916685,443273.8 1871625.8,353466.1 1868244.5,337256.5 1868449,212034.1 1868701.3,57713.598 1893442,-9476.0023 1990700.5,-119967.5 2274656.2,-442558.18 2889275.2,-374226.39 3064453.8,-590.30227 3116369.6,110140.1 3123343.7,285315.3 3080394.6,399804.9 2980661.1,665664.3 2633024.4,820751.6 2311517.7,742815.6 Z m 1729894.3,127.6 c -178201,-43216.1 -325081.9,-159477.1 -398720,-315599.5 -39013.6,-82714.1 -44597.8,-109297.3 -43739.9,-208219.3 1382,-159374.302 46136.2,-261930.802 160079.5,-366830.2 26431.9,-24334 55536,-51477.7 64675.9,-60319.7 30434.5,-29442.2 133484.9,-75941.3 215835.8,-97391 229385.6,-59747.41 504994.7,9035.6 659200.3,164514.6 200296.3,201950.298 198191.6,523187.3 -4717.7,720074.1 -64928.9,63002.1 -96117.5,85819.3 -154192.2,112805.9 -153467,71314.1 -337090.2,90090.1 -498421.7,50965.1 z m 966570.1,-346634.7 c -10514910.3,-7070820.1 -5257455.24,-3535410 0,0 z M 3236112.4,-615426.42 c -191577.2,-34868.9 -347883.3,-145590.2 -426370.2,-302024.7 -45570,-90826.88 -48483.3,-105186.98 -48367.1,-238398.08 99.2,-121790.5 4860.3,-150668.9 33763.8,-205094.3 53806,-101317.4 101611.3,-153809.5 199999.3,-219607.8 118355.6,-79151.8 228830.3,-111270.6 382723.8,-111270.6 264626.6,0 474956.9,119964.7 577925.2,329627.4 33888.1,69002.3 38685.4,95470.1 38685.4,213432.8 0,120069.8 -4393.9,143332.2 -40548.8,214672.48 -83468,164697.5 -267008.7,293059.3 -462662.1,323569 -110711,17263.97 -136013.7,16777.48 -255149.3,-4906.2 z"
                                   id="path24680"
                                   sodipodi:nodetypes="csccccccccccccccccssccssssssssssssssssssssssccsscssssssss" /></g></g></g></g></g></g></g></g></g></g></g></g></g></g></g></g></g></g></g></g></g></g></g></g></g></g></g></g></g></g></g></g></g></g></g></g></g></g></g></g></g></g></g></g></g></g></g></g></g></g></g></g></g></g></g></g></g></g></g></g></g></svg>
