<?xml version="1.0" encoding="UTF-8" standalone="no"?>
<!-- Created with Inkscape (http://www.inkscape.org/) -->

<svg
   width="64"
   height="64"
   viewBox="0 0 16.933333 16.933334"
   version="1.1"
   id="svg5"
   inkscape:version="1.2 (dc2aedaf03, 2022-05-15)"
   sodipodi:docname="oignon_rose.svg"
   xml:space="preserve"
   xmlns:inkscape="http://www.inkscape.org/namespaces/inkscape"
   xmlns:sodipodi="http://sodipodi.sourceforge.net/DTD/sodipodi-0.dtd"
   xmlns="http://www.w3.org/2000/svg"
   xmlns:svg="http://www.w3.org/2000/svg"><sodipodi:namedview
     id="namedview7"
     pagecolor="#ffffff"
     bordercolor="#666666"
     borderopacity="1.0"
     inkscape:pageshadow="2"
     inkscape:pageopacity="0.0"
     inkscape:pagecheckerboard="0"
     inkscape:document-units="mm"
     showgrid="false"
     units="px"
     inkscape:zoom="16"
     inkscape:cx="29.96875"
     inkscape:cy="26.875"
     inkscape:window-width="1920"
     inkscape:window-height="1017"
     inkscape:window-x="1912"
     inkscape:window-y="-8"
     inkscape:window-maximized="1"
     inkscape:current-layer="g40091"
     inkscape:showpageshadow="2"
     inkscape:deskcolor="#d1d1d1" /><defs
     id="defs2"><pattern
       id="EMFhbasepattern"
       patternUnits="userSpaceOnUse"
       width="6"
       height="6"
       x="0"
       y="0" /><pattern
       id="EMFhbasepattern-5"
       patternUnits="userSpaceOnUse"
       width="6"
       height="6"
       x="0"
       y="0" /><pattern
       id="EMFhbasepattern-56"
       patternUnits="userSpaceOnUse"
       width="6"
       height="6"
       x="0"
       y="0" /><pattern
       id="EMFhbasepattern-6"
       patternUnits="userSpaceOnUse"
       width="6"
       height="6"
       x="0"
       y="0" /><pattern
       id="EMFhbasepattern-62"
       patternUnits="userSpaceOnUse"
       width="6"
       height="6"
       x="0"
       y="0" /><pattern
       id="EMFhbasepattern-8"
       patternUnits="userSpaceOnUse"
       width="6"
       height="6"
       x="0"
       y="0" /><pattern
       id="EMFhbasepattern-81"
       patternUnits="userSpaceOnUse"
       width="6"
       height="6"
       x="0"
       y="0" /><pattern
       id="EMFhbasepattern-9"
       patternUnits="userSpaceOnUse"
       width="6"
       height="6"
       x="0"
       y="0" /><pattern
       id="EMFhbasepattern-52"
       patternUnits="userSpaceOnUse"
       width="6"
       height="6"
       x="0"
       y="0" /><pattern
       id="EMFhbasepattern-0"
       patternUnits="userSpaceOnUse"
       width="6"
       height="6"
       x="0"
       y="0" /><pattern
       id="EMFhbasepattern-7"
       patternUnits="userSpaceOnUse"
       width="6"
       height="6"
       x="0"
       y="0" /><pattern
       id="EMFhbasepattern-65"
       patternUnits="userSpaceOnUse"
       width="6"
       height="6"
       x="0"
       y="0" /><pattern
       id="EMFhbasepattern-3"
       patternUnits="userSpaceOnUse"
       width="6"
       height="6"
       x="0"
       y="0" /><pattern
       id="EMFhbasepattern-90"
       patternUnits="userSpaceOnUse"
       width="6"
       height="6"
       x="0"
       y="0" /><pattern
       id="EMFhbasepattern-4"
       patternUnits="userSpaceOnUse"
       width="6"
       height="6"
       x="0"
       y="0" /><pattern
       id="EMFhbasepattern-2"
       patternUnits="userSpaceOnUse"
       width="6"
       height="6"
       x="0"
       y="0" /><pattern
       id="EMFhbasepattern-40"
       patternUnits="userSpaceOnUse"
       width="6"
       height="6"
       x="0"
       y="0" /><pattern
       id="EMFhbasepattern-74"
       patternUnits="userSpaceOnUse"
       width="6"
       height="6"
       x="0"
       y="0" /><pattern
       id="EMFhbasepattern-656"
       patternUnits="userSpaceOnUse"
       width="6"
       height="6"
       x="0"
       y="0" /><pattern
       id="EMFhbasepattern-76"
       patternUnits="userSpaceOnUse"
       width="6"
       height="6"
       x="0"
       y="0" /><pattern
       id="EMFhbasepattern-1"
       patternUnits="userSpaceOnUse"
       width="6"
       height="6"
       x="0"
       y="0" /><pattern
       id="EMFhbasepattern-42"
       patternUnits="userSpaceOnUse"
       width="6"
       height="6"
       x="0"
       y="0" /><pattern
       id="EMFhbasepattern-73"
       patternUnits="userSpaceOnUse"
       width="6"
       height="6"
       x="0"
       y="0" /><pattern
       id="EMFhbasepattern-566"
       patternUnits="userSpaceOnUse"
       width="6"
       height="6"
       x="0"
       y="0" /><pattern
       id="EMFhbasepattern-71"
       patternUnits="userSpaceOnUse"
       width="6"
       height="6"
       x="0"
       y="0" /><pattern
       id="EMFhbasepattern-31"
       patternUnits="userSpaceOnUse"
       width="6"
       height="6"
       x="0"
       y="0" /><pattern
       id="EMFhbasepattern-60"
       patternUnits="userSpaceOnUse"
       width="6"
       height="6"
       x="0"
       y="0" /><pattern
       id="EMFhbasepattern-28"
       patternUnits="userSpaceOnUse"
       width="6"
       height="6"
       x="0"
       y="0" /><pattern
       id="EMFhbasepattern-02"
       patternUnits="userSpaceOnUse"
       width="6"
       height="6"
       x="0"
       y="0" /><pattern
       id="EMFhbasepattern-57"
       patternUnits="userSpaceOnUse"
       width="6"
       height="6"
       x="0"
       y="0" /><pattern
       id="EMFhbasepattern-50"
       patternUnits="userSpaceOnUse"
       width="6"
       height="6"
       x="0"
       y="0" /><pattern
       id="EMFhbasepattern-45"
       patternUnits="userSpaceOnUse"
       width="6"
       height="6"
       x="0"
       y="0" /><pattern
       id="EMFhbasepattern-33"
       patternUnits="userSpaceOnUse"
       width="6"
       height="6"
       x="0"
       y="0" /><pattern
       id="EMFhbasepattern-21"
       patternUnits="userSpaceOnUse"
       width="6"
       height="6"
       x="0"
       y="0" /><pattern
       id="EMFhbasepattern-818"
       patternUnits="userSpaceOnUse"
       width="6"
       height="6"
       x="0"
       y="0" /><pattern
       id="EMFhbasepattern-32"
       patternUnits="userSpaceOnUse"
       width="6"
       height="6"
       x="0"
       y="0" /><pattern
       id="EMFhbasepattern-38"
       patternUnits="userSpaceOnUse"
       width="6"
       height="6"
       x="0"
       y="0" /><pattern
       id="EMFhbasepattern-39"
       patternUnits="userSpaceOnUse"
       width="6"
       height="6"
       x="0"
       y="0" /><pattern
       id="EMFhbasepattern-86"
       patternUnits="userSpaceOnUse"
       width="6"
       height="6"
       x="0"
       y="0" /><pattern
       id="EMFhbasepattern-07"
       patternUnits="userSpaceOnUse"
       width="6"
       height="6"
       x="0"
       y="0" /><pattern
       id="EMFhbasepattern-524"
       patternUnits="userSpaceOnUse"
       width="6"
       height="6"
       x="0"
       y="0" /><pattern
       id="EMFhbasepattern-508"
       patternUnits="userSpaceOnUse"
       width="6"
       height="6"
       x="0"
       y="0" /><pattern
       id="EMFhbasepattern-217"
       patternUnits="userSpaceOnUse"
       width="6"
       height="6"
       x="0"
       y="0" /><pattern
       id="EMFhbasepattern-84"
       patternUnits="userSpaceOnUse"
       width="6"
       height="6"
       x="0"
       y="0" /><pattern
       id="EMFhbasepattern-96"
       patternUnits="userSpaceOnUse"
       width="6"
       height="6"
       x="0"
       y="0" /><pattern
       id="EMFhbasepattern-48"
       patternUnits="userSpaceOnUse"
       width="6"
       height="6"
       x="0"
       y="0" /><pattern
       id="EMFhbasepattern-23"
       patternUnits="userSpaceOnUse"
       width="6"
       height="6"
       x="0"
       y="0" /><pattern
       id="EMFhbasepattern-36"
       patternUnits="userSpaceOnUse"
       width="6"
       height="6"
       x="0"
       y="0" /><pattern
       id="EMFhbasepattern-900"
       patternUnits="userSpaceOnUse"
       width="6"
       height="6"
       x="0"
       y="0" /><pattern
       id="EMFhbasepattern-37"
       patternUnits="userSpaceOnUse"
       width="6"
       height="6"
       x="0"
       y="0" /><pattern
       id="EMFhbasepattern-11"
       patternUnits="userSpaceOnUse"
       width="6"
       height="6"
       x="0"
       y="0" /><pattern
       id="EMFhbasepattern-95"
       patternUnits="userSpaceOnUse"
       width="6"
       height="6"
       x="0"
       y="0" /><pattern
       id="EMFhbasepattern-10"
       patternUnits="userSpaceOnUse"
       width="6"
       height="6"
       x="0"
       y="0" /><pattern
       id="EMFhbasepattern-909"
       patternUnits="userSpaceOnUse"
       width="6"
       height="6"
       x="0"
       y="0" /><pattern
       id="EMFhbasepattern-06"
       patternUnits="userSpaceOnUse"
       width="6"
       height="6"
       x="0"
       y="0" /><pattern
       id="EMFhbasepattern-34"
       patternUnits="userSpaceOnUse"
       width="6"
       height="6"
       x="0"
       y="0" /><pattern
       id="EMFhbasepattern-41"
       patternUnits="userSpaceOnUse"
       width="6"
       height="6"
       x="0"
       y="0" /><pattern
       id="EMFhbasepattern-82"
       patternUnits="userSpaceOnUse"
       width="6"
       height="6"
       x="0"
       y="0" /><pattern
       id="EMFhbasepattern-94"
       patternUnits="userSpaceOnUse"
       width="6"
       height="6"
       x="0"
       y="0" /><pattern
       id="EMFhbasepattern-738"
       patternUnits="userSpaceOnUse"
       width="6"
       height="6"
       x="0"
       y="0" /><pattern
       id="EMFhbasepattern-19"
       patternUnits="userSpaceOnUse"
       width="6"
       height="6"
       x="0"
       y="0" /><pattern
       id="EMFhbasepattern-342"
       patternUnits="userSpaceOnUse"
       width="6"
       height="6"
       x="0"
       y="0" /><pattern
       id="EMFhbasepattern-77"
       patternUnits="userSpaceOnUse"
       width="6"
       height="6"
       x="0"
       y="0" /><pattern
       id="EMFhbasepattern-29"
       patternUnits="userSpaceOnUse"
       width="6"
       height="6"
       x="0"
       y="0" /><pattern
       id="EMFhbasepattern-219"
       patternUnits="userSpaceOnUse"
       width="6"
       height="6"
       x="0"
       y="0" /><pattern
       id="EMFhbasepattern-105"
       patternUnits="userSpaceOnUse"
       width="6"
       height="6"
       x="0"
       y="0" /><pattern
       id="EMFhbasepattern-104"
       patternUnits="userSpaceOnUse"
       width="6"
       height="6"
       x="0"
       y="0" /><pattern
       id="EMFhbasepattern-44"
       patternUnits="userSpaceOnUse"
       width="6"
       height="6"
       x="0"
       y="0" /><pattern
       id="EMFhbasepattern-87"
       patternUnits="userSpaceOnUse"
       width="6"
       height="6"
       x="0"
       y="0" /><pattern
       id="EMFhbasepattern-93"
       patternUnits="userSpaceOnUse"
       width="6"
       height="6"
       x="0"
       y="0" /><pattern
       id="EMFhbasepattern-324"
       patternUnits="userSpaceOnUse"
       width="6"
       height="6"
       x="0"
       y="0" /><pattern
       id="EMFhbasepattern-20"
       patternUnits="userSpaceOnUse"
       width="6"
       height="6"
       x="0"
       y="0" /><pattern
       id="EMFhbasepattern-78"
       patternUnits="userSpaceOnUse"
       width="6"
       height="6"
       x="0"
       y="0" /><pattern
       id="EMFhbasepattern-313"
       patternUnits="userSpaceOnUse"
       width="6"
       height="6"
       x="0"
       y="0" /><pattern
       id="EMFhbasepattern-3422"
       patternUnits="userSpaceOnUse"
       width="6"
       height="6"
       x="0"
       y="0" /><pattern
       id="EMFhbasepattern-957"
       patternUnits="userSpaceOnUse"
       width="6"
       height="6"
       x="0"
       y="0" /><pattern
       id="EMFhbasepattern-75"
       patternUnits="userSpaceOnUse"
       width="6"
       height="6"
       x="0"
       y="0" /><pattern
       id="EMFhbasepattern-429"
       patternUnits="userSpaceOnUse"
       width="6"
       height="6"
       x="0"
       y="0" /><pattern
       id="EMFhbasepattern-102"
       patternUnits="userSpaceOnUse"
       width="6"
       height="6"
       x="0"
       y="0" /><pattern
       id="EMFhbasepattern-233"
       patternUnits="userSpaceOnUse"
       width="6"
       height="6"
       x="0"
       y="0" /><pattern
       id="EMFhbasepattern-18"
       patternUnits="userSpaceOnUse"
       width="6"
       height="6"
       x="0"
       y="0" /><pattern
       id="EMFhbasepattern-334"
       patternUnits="userSpaceOnUse"
       width="6"
       height="6"
       x="0"
       y="0" /><pattern
       id="EMFhbasepattern-317"
       patternUnits="userSpaceOnUse"
       width="6"
       height="6"
       x="0"
       y="0" /><pattern
       id="EMFhbasepattern-509"
       patternUnits="userSpaceOnUse"
       width="6"
       height="6"
       x="0"
       y="0" /><pattern
       id="EMFhbasepattern-657"
       patternUnits="userSpaceOnUse"
       width="6"
       height="6"
       x="0"
       y="0" /><pattern
       id="EMFhbasepattern-83"
       patternUnits="userSpaceOnUse"
       width="6"
       height="6"
       x="0"
       y="0" /><pattern
       id="EMFhbasepattern-390"
       patternUnits="userSpaceOnUse"
       width="6"
       height="6"
       x="0"
       y="0" /><pattern
       id="EMFhbasepattern-24"
       patternUnits="userSpaceOnUse"
       width="6"
       height="6"
       x="0"
       y="0" /><pattern
       id="EMFhbasepattern-63"
       patternUnits="userSpaceOnUse"
       width="6"
       height="6"
       x="0"
       y="0" /><pattern
       id="EMFhbasepattern-631"
       patternUnits="userSpaceOnUse"
       width="6"
       height="6"
       x="0"
       y="0" /><pattern
       id="EMFhbasepattern-98"
       patternUnits="userSpaceOnUse"
       width="6"
       height="6"
       x="0"
       y="0" /><pattern
       id="EMFhbasepattern-79"
       patternUnits="userSpaceOnUse"
       width="6"
       height="6"
       x="0"
       y="0" /><pattern
       id="EMFhbasepattern-730"
       patternUnits="userSpaceOnUse"
       width="6"
       height="6"
       x="0"
       y="0" /></defs><g
     inkscape:label="Calque 1"
     inkscape:groupmode="layer"
     id="layer1"><g
       id="g4128"
       transform="translate(-0.63104184,0.12620835)"><g
         id="g5578"
         transform="translate(0.08924235,0.08924306)"><g
           id="g7501"
           transform="translate(-0.06310417,0.94656242)"><g
             id="g9467"
             transform="translate(-0.08924275,-0.80318511)"><g
               id="g10302"
               transform="translate(0.31234979,-0.04462139)"><g
                 id="g11479"
                 transform="translate(-0.12620833,0.06310418)"><g
                   id="g11873"
                   transform="translate(-0.23575769,0.66462456)"><g
                     id="g12382"
                     transform="translate(-121.98459,-82.267525)"><g
                       id="g13305"
                       transform="matrix(0.13266609,0,0,0.13266609,114.63867,78.215696)"><g
                         id="g17429"
                         transform="translate(0.90513437,5.6640979)"><g
                           id="g18595"
                           transform="translate(-3.3634362,-8.7449387)"><g
                             id="g21002"
                             transform="translate(1.7082278,-2.8204445)"><g
                               id="g23814"
                               transform="translate(8.7253043,-1.1218249)"><g
                                 id="g24838"
                                 transform="translate(11.143454,-0.85716864)"><g
                                   id="g25315"
                                   transform="translate(-3.490122,2.4929446)"><g
                                   id="g27220"
                                   transform="translate(2.4678888,1.2339445)"><g
                                   id="g29753"
                                   transform="translate(1.4759287,-2.3737724)"><g
                                   id="g30615"
                                   transform="translate(0.92006037,1.3687834)"><g
                                   id="g31433"
                                   transform="translate(-2.4678886,-1.410222)"><g
                                   id="g31731"
                                   transform="translate(1.0576664,-0.70511063)"><g
                                   id="g33243"
                                   transform="matrix(1.0772948,0,0,1.0772948,-7.3729128,-3.1743014)"><g
                                   id="g35254"
                                   transform="translate(-2.2135012,-0.92031205)"><g
                                   id="g36749"
                                   transform="translate(-0.98178042,-2.7817105)"><g
                                   id="g37297"
                                   transform="translate(-6.7755742,-3.5033798)"><g
                                   id="g38955"
                                   transform="matrix(1.2171094,0,0,1.2171094,-23.105122,-18.212482)"><g
                                   id="g39618"
                                   transform="translate(-0.26888273,-0.26888316)"><g
                                   id="g40032"
                                   transform="translate(-1.90129,-3.042064)"><g
                                   id="g40543"
                                   transform="translate(0.3802582,-2.0914191)"><g
                                   id="g41372"
                                   transform="translate(1.9657652,-7.9304203)"><g
                                   id="g43278"
                                   transform="translate(1.5210324,-0.38025789)"><g
                                   id="g44210"
                                   transform="matrix(1.1578947,0,0,1.1578947,-18.904476,-21.776183)"><g
                                   id="g44833"
                                   transform="matrix(1.1196819,0,0,1.1196819,-12.538538,-14.547543)"><g
                                   id="g47597"
                                   transform="translate(3.1109352,-1.2443743)"><g
                                   id="g48754"
                                   transform="translate(-2.9035392,-6.6366609)"><g
                                   id="g234"
                                   transform="matrix(0.04089637,0,0,0.04089637,104.63967,119.67231)"><g
                                   id="g2138"
                                   transform="translate(-86.211222,-40.569988)"><g
                                   id="g2696"
                                   transform="translate(-124306.44,-9412.2373)"><g
                                   id="g3765"
                                   transform="translate(25.356243,-50.712489)"><g
                                   id="g4557"
                                   transform="translate(46.61688,-35.859142)"><g
                                   id="g5244"
                                   transform="translate(7.1718407,14.343658)"><g
                                   id="g5807"
                                   transform="translate(-5.1984397,-21.113724)"><g
                                   id="g6945"
                                   transform="translate(-10.142522,-243.41993)"><g
                                   id="g11108"
                                   transform="translate(18.189368,-37.636113)"><g
                                   id="g15049"
                                   transform="translate(-65.926228,141.99496)"><g
                                   id="g19861"
                                   transform="matrix(0.07356842,0,0,0.07356842,115423.38,9039.2311)"><g
                                   id="g20437"
                                   transform="translate(-478.38824,-785.88156)"><g
                                   id="g21032"
                                   transform="translate(2047.1878,-1072.3367)"><g
                                   id="g21869"
                                   transform="matrix(0.04321578,0,0,0.04321578,117368,10137.003)"><g
                                   id="g25455"
                                   transform="translate(154741.46,-87178.414)"><g
                                   id="g26278"
                                   transform="translate(-18012.371,-8233.4417)"><g
                                   id="g27240"
                                   transform="translate(-0.00447131,5582.7624)"><g
                                   id="g28306"
                                   transform="translate(-15790.441,-2255.7767)"><g
                                   id="g33735"
                                   transform="translate(14662.549,-16918.328)"><g
                                   id="g37868"
                                   transform="translate(-5075.4976,25941.433)"><g
                                   id="g71964"
                                   transform="translate(5569.7282,-14718.697)"><g
                                   id="g39743"
                                   transform="translate(-8772.9172,-19938.438)"><g
                                   id="g39914"
                                   transform="translate(2392.6165,-9570.4502)"><g
                                   id="g40091"
                                   transform="translate(19140.905,-3190.1498)"><path
                                   style="fill:#ffd5e5;stroke-width:737.398"
                                   d="m -176417.62,355083.53 c -30.23,-129.6 -615.39,-4047.99 -1300.35,-8707.53 -1023.78,-6964.37 -1480.04,-8517.08 -2564.07,-8725.84 -725.27,-139.67 -4466.52,965.74 -8313.9,2456.48 -6766.03,2621.62 -9151.26,2875.7 -9151.26,974.79 0,-499.55 1189.04,-3977 2642.3,-7727.68 1453.27,-3750.68 2528.03,-7412.82 2388.36,-8138.09 -208.77,-1084.03 -1761.46,-1540.29 -8725.84,-2564.07 -4659.54,-684.97 -8554.85,-1270.12 -8656.24,-1300.35 -101.39,-30.23 -184.35,-642.56 -184.35,-1360.73 0,-834.68 4921.71,-4987.06 13641.86,-11509.47 7503.03,-5612.02 13641.87,-10291.67 13641.87,-10399.21 0,-107.54 -1555.09,-2782.82 -3455.76,-5945.07 -8620.22,-14341.93 -12670.68,-27735.99 -13288.12,-43941.08 -916.89,-24064.24 5728.71,-45584.09 21489.01,-69585.93 17063.21,-25986.09 32516.81,-38827.1 53500.85,-44455.97 6187.04,-1659.65 8469.59,-1882.7 19365.16,-1892.42 l 12351.423,-10.98 C 22007.898,121463.36 9027.9008,257320.72 9027.9008,257320.72 l -1207.695,8206.7 c -2031.377,13803.83 -6552.092,25048.63 -14149.8581,35196.25 -10832.8497,14468.43 -36486.8617,30389.82 -59898.5567,37174.27 -13366.97,3873.6 -21234.934,5045.05 -34182.451,5089.38 -17194.77,58.92 -29100.61,-2644.77 -43137.78,-9796.03 -3650.13,-1859.56 -6866.34,-3388.65 -7147.14,-3397.97 -280.81,-9.37 -5540.44,5624.13 -11688.07,12518.8 -6147.64,6894.67 -11807.86,12641.81 -12578.26,12771.41 -770.41,129.59 -1425.48,129.59 -1455.71,0 z"
                                   id="path40097"
                                   sodipodi:nodetypes="sssssssssssssssssccsssssssss" /><path
                                   style="fill:#d35f8d;stroke-width:737.398"
                                   d="m -175941.04,354564.82 c -221.54,-358.47 -932.7,-4257.46 -1580.34,-8664.42 -647.64,-4406.97 -1470.11,-8316.56 -1827.7,-8688 -389.73,-404.81 -3938.58,585.1 -8859.52,2471.25 -5487.22,2103.22 -8454.51,2901.43 -8948.68,2407.25 -494.18,-494.17 304.03,-3461.46 2407.24,-8948.68 1886.16,-4920.94 2876.07,-8469.79 2471.25,-8859.52 -371.43,-357.59 -4318.68,-1185.65 -8771.67,-1840.13 -4452.99,-654.48 -8422.04,-1515.65 -8820.1,-1913.72 -989.76,-989.76 60.99,-1915.31 14806.26,-13041.93 l 12637.77,-9536.33 -2552.79,-3996.86 c -10356.58,-16215.15 -15725.96,-36068.94 -14699.92,-54354.41 1359.79,-24233.42 12567.1,-50830.43 31269.82,-74209.04 6837.33,-8546.75 7781.42,-9240.97 3081.44,-2265.89 -5009.6,7434.58 -8851.85,17785.5 -10762.3,28993.38 -1591.28,9335.42 -1026.34,27017.89 1170.46,36635.05 9867.07,43196.06 42612.37,80200.14 82882.855,93662.44 20306.667,6788.45 41651.547,6536.79 59098.23,-696.8 l 2949.592,-1222.93 -1843.495,1496.53 c -3521.592,2858.79 -21066.489,11078.89 -29864.622,13992.12 -15952.914,5282.3 -22242.72,6279.35 -39450.8,6253.66 -12943.23,-19.32 -16031.3,-250.16 -21478.16,-1605.48 -8086.65,-2012.16 -14679.94,-4496.9 -21900.16,-8253.28 -3141.3,-1634.28 -5919.19,-2971.42 -6173.08,-2971.42 -253.89,0 -5649.42,5807.01 -11990.08,12904.46 -6340.65,7097.46 -11825.51,12904.47 -12188.57,12904.47 -363.06,0 -841.38,-293.29 -1062.93,-651.77 z m 107975.897,-46980.46 c -14520.474,-1695.67 -27713.941,-6669.92 -40925.597,-15429.92 -24540.67,-16271.73 -42393.16,-43159.68 -47236.85,-71144.3 -1518.36,-8772.37 -1128.63,-24576.05 781.93,-31708.12 11145.89,-41607.13 58472.241,-50213.27 100909.235,-18350.02 27186.591,20412.68 43444.61,51565.82 43441.366,83241.05 -0.716,6986.98 -368.227,10579.98 -1518.753,14847.99 -2874.466,10663.24 -10061.855,22266.33 -17413.242,28111.37 -4343.097,3453.17 -12570.336,7549.74 -18241.038,9082.71 -4098.945,1108.08 -15315.817,1872.55 -19797.051,1349.24 z m 15723.141,-13625.4 c 11989.605,-2330.3 22439.694,-12480.74 26685.138,-25919.94 4305.689,-13629.93 1247.301,-35028.04 -7512.214,-52559.36 -10678.984,-21372.96 -32003.385,-40539.18 -52756.621,-47417.27 -20419.781,-6767.58 -36216.661,-4499.24 -47405.891,6807.23 -8092.93,8177.73 -11484.62,17560.43 -11493.23,31794.66 -13.07,21627.46 9405.52,43194.11 26709.82,61160.06 20171.844,20943.12 43924.446,30381.11 65772.998,26134.62 z m -14617.044,-12497.48 c -15828.471,-1836.55 -32860.53,-11907.15 -45160.954,-26702.44 -12211.48,-14688.33 -18368.63,-29339.72 -19140.91,-45547.27 -709.47,-14889.16 3040.88,-23633.28 12315.3,-28713.78 4647.97,-2546.14 5027.51,-2624.8 12535.77,-2598.19 5941.19,21.09 9020.993,422.49 13236.787,1725.32 15421.375,4765.73 30714.451,16168.94 41657.128,31061.45 12761.3,17367.56 18107.105,43229.19 11739.436,56792.41 -1234.352,2629.18 -3170.044,5875.08 -4301.545,7213.12 -2519.674,2979.61 -8027.927,5862.53 -12312.151,6443.96 -1757.183,238.47 -3858.539,524.76 -4669.677,636.18 -811.137,111.43 -3465.77,-28.39 -5899.184,-310.76 z m 11504.973,-14189.34 c 8702.44,-5796.35 7287.093,-26200 -3055.623,-44049.8 -11406.656,-19686.02 -36727.814,-35752.84 -51230.974,-32507.17 -2142.5,479.47 -4529.3,1590.17 -5393.17,2509.73 -2399.29,2553.92 -3811.77,7539.01 -3811.77,13452.93 0,28827.98 29785.698,61840.62 56117.556,62197.25 3899.56,52.79 5367.005,-266.17 7373.981,-1602.94 z m -13816.126,-13035.93 c -6336.941,-3175.36 -12744.171,-8859.84 -15024.523,-13329.69 -773.899,-1516.97 -1735.392,-4796.71 -2136.655,-7288.32 -770.795,-4786.2 -2076.778,-7111.33 -6088.113,-10839.09 -2948.619,-2740.17 -11088.94,-8470.89 -14482.62,-10195.65 -3921.61,-1993.08 -5306.92,-3802.1 -5306.92,-6930.14 0,-3624.77 2374.65,-6029.77 5946.71,-6022.73 6197.62,12.24 25230.144,14557.37 29632.484,22645.91 1079.167,1982.79 2254.764,5471.23 2612.439,7752.12 1037.298,6614.74 3548.109,9365.02 12688.836,13899.05 2636.199,1307.61 5197.322,2907.91 5691.386,3556.19 1542.526,2024.05 1141.367,6267.82 -761.474,8055.45 -2569.884,2414.28 -6064.546,2057.71 -12771.55,-1303.1 z m 104303.423,11570.86 c -636.154,-506.96 -3209.267,-4009.63 -5718.028,-7783.71 -2508.769,-3774.07 -5049.245,-7049.16 -5645.513,-7277.97 -596.26,-228.8 -4176.762,1079.16 -7956.672,2906.59 l -6872.5652,3322.6 -425.198,-8998.96 c -708.352,-14991.64 -4594.027,-29643.2 -12040.442,-45400.43 -11333.1898,-23981.96 -32547.1438,-46007.3 -56328.5698,-58483.01 -7897.585,-4143.07 -22891.417,-9567.14 -28963.736,-10477.74 l -3370.071,-505.37 -521.805,-5568.41 c -1765.53,-18840.83 4015.265,-38681.157 15950.835,-54745.006 C -66373.558,58818.702 -54916.258,48695.67 -29537.376,31073.681 -12614.172,19322.946 1684.0138,7531.4692 16096.577,-6559.8883 c 7098.371,-6940.1727 13968.089,-13161.9687 15266.05,-13826.2137 2692.535,-1377.935 7280.877,-1570.984 10275.738,-432.339 1121.671,426.458 7033.244,5665.432 13136.82,11642.1637 18272.4,17892.6501 27705.985,25679.1073 50233.625,41462.7183 18221.43,12766.54 26313.16,19377.14 35507.22,29007.898 14217.61,14892.912 21994.05,29211.597 24892.96,45835.171 3917.03,22461.91 -2384.4,48428.43 -16272.8,67055.85 -11331.65,15198.26 -26926.48,28319.71 -45570.93,38343.27 -6404.01,3442.9 -16922.47,7601.77 -28836.194,11401.47 -4051.464,1292.15 -7477.15,2460.22 -7612.639,2595.7 -135.482,135.49 1452.482,6807.74 3528.818,14827.22 2076.329,8019.49 3676.955,15233.75 3556.943,16031.69 -120.011,797.95 -795.365,1812.6 -1500.782,2254.79 -1034.628,648.54 -3221.22,-162.21 -11310.492,-4193.74 -6140.041,-3060.07 -10542.727,-4834.31 -11355.753,-4576.27 -730.312,231.79 -3411.476,3581.36 -5958.147,7443.47 -3922.264,5948.27 -6124.518,8415.86 -7510.915,8415.86 -151.934,0 -796.722,-414.79 -1432.875,-921.75 z"
                                   id="path40095" /><path
                                   style="fill:#c83771;stroke-width:737.398"
                                   d="m -175917.3,354603.24 c -208.49,-337.35 -773.14,-3738.6 -1254.78,-7558.33 -1002.32,-7949.02 -1697.15,-10263.27 -3081.46,-10263.27 -537.78,0 -4279.07,1290.44 -8313.98,2867.66 -8887.14,3473.9 -9808.19,3185.61 -7590.69,-2375.92 3786.78,-9497.32 4603.74,-12291.52 3822.27,-13072.99 -430.22,-430.22 -4534.72,-1342.61 -9121.1,-2027.52 -4586.38,-684.91 -8458.81,-1608.15 -8605.39,-2051.64 -206.67,-625.32 22901.11,-18886.85 26793.73,-21174.46 495.57,-291.23 2639.05,1834.34 5257.99,5214.09 5475.97,7066.73 16824.89,18068.03 22490.18,21801.28 2854.41,1880.98 4065.51,3104.51 3686.99,3724.84 -1139,1866.61 -22581.22,25529.61 -23133.65,25529.61 -314.07,0 -741.62,-276.01 -950.11,-613.35 z M 29826.391,258584.25 c -2712.452,-4073.94 -5462.424,-7610.81 -6111.054,-7859.71 -677.079,-259.82 -4074.766,985.75 -7978.079,2924.71 l -6798.7442,3377.28 -452.563,-10081.17 c -625.358,-13930.3 -1860.581,-19048.57 -10085.276,-41789.28 -1702.718,-4707.9 -3468.152,-20128.47 -4547.0099,-39716.88 -1438.3908,-26116.27 355.6909,-44324.15 7239.6269,-73473.718 6039.6,-25574.321 12290.6122,-45412.955 16646.2892,-52829.843 2496.196,-4250.545 7687.921,-5009.509 10874.011,-1589.642 1885.092,2023.404 1903.195,5010.238 52.356,8638.154 -4922.722,9649.372 -15862.767,48988.792 -19498.6562,70115.469 -4088.297,23755.5 -3219.893,59484.6 2195.5362,90331.26 996.822,5677.96 2211.745,12721.07 2699.821,15651.33 l 887.422,5327.76 3708.028,699.53 c 2039.407,384.73 5445.132,874.52 7568.27,1088.41 l 3860.242,388.9 195.448,-69220.13 195.44,-69220.118 1787.681,-1902.73 c 1777.174,-1891.544 5025.914,-2495.938 7765.458,-1444.681 3393.602,1302.245 3351.327,378.344 3351.327,73245.129 v 68614.64 l 1659.145,-55.38 c 912.531,-30.46 4292.151,-445.25 7510.274,-921.75 l 5851.121,-866.37 2033.265,-10692.27 c 5280.154,-27766.58 6907.104,-46224.29 6336.535,-71887.79 C 66302.708,124313.6 65368.498,117595.89 59558.51,93562.539 53724.282,69428.96 47549.488,49656.432 44477.171,45270.087 c -4335.577,-6189.908 3863.678,-13405.761 9573.314,-8425.11 4105.7,3581.497 10988.02,23793.262 18015.837,52908.311 4833.165,20022.972 5801.87,25408.762 7092.029,39429.982 2304.649,25046.7 487.774,56244.15 -5025.729,86296.39 l -1623.434,8848.77 -3003.555,950.91 -3003.547,950.9 3915.259,14903.15 c 2153.394,8196.74 3919.78,15472.19 3925.303,16167.66 5.161,695.48 -625.83,1604.81 -1402.996,2020.73 -1134.634,607.24 -3449.976,-205.78 -11751.736,-4126.53 -5686.29,-2685.52 -10845.658,-4688.23 -11465.264,-4450.46 -619.606,237.77 -3345.826,3765.52 -6058.278,7839.46 -4216.074,6332.31 -5220.1,7407.17 -6918.992,7407.17 -1698.891,0 -2702.918,-1074.86 -6918.991,-7407.17 z M 95452.51,214695.21 c -243.38,-634.23 857.29,-5196.88 2445.94,-10139.22 5873.19,-18271.85 8198.28,-29160.84 9762.69,-45721.42 707.95,-7494.25 699.86,-11608.69 -39.08,-19867.65 C 105121.81,111021.76 97049.58,79375.052 87236.95,59048.276 82277.132,48774.069 82056.237,47368.435 84906.56,44218.957 c 1907.63,-2107.851 6525.91,-2276.896 8491.97,-310.835 7034.82,7034.824 19358.83,43214.808 24030.8,70547.998 4410.14,25801.38 4733.29,38635.61 1500.49,59592.33 -1958.96,12698.99 -7409.01,32822.13 -9454.21,34907.58 -812.82,828.83 -12418.42,6892.32 -13191.98,6892.32 -213.75,0 -587.76,-518.91 -831.14,-1153.14 z m 51027.89,-39956.8 c -804.97,-941.54 -1331.91,-4779.53 -1948.92,-14194.91 -1927.74,-29417.07 -9517.61,-52926.66 -24896.52,-77116.91 -5345.27,-8407.857 -5888.23,-11012.443 -2915.4,-13985.263 1911.41,-1911.425 5309.82,-2392.547 7734.34,-1094.978 1512.52,809.472 8661.28,11635.331 13162.03,19932.143 10590.63,19523.088 17490.48,42671.018 19697.91,66083.448 429.77,4558.24 280.04,5672.96 -1139.08,8480.08 -1465.63,2899.16 -8046.03,13186.84 -8434.8,13186.84 -85.96,0 -652.76,-580.7 -1259.56,-1290.45 z m -190664.456,-21011.16 -3133.941,-2311.93 v -5597.16 c 0,-24097.5 11100.171,-70401.137 22250.735,-92817.455 3732.422,-7503.411 4945.626,-9299.935 6914.228,-10238.696 4238.859,-2021.371 9179.7359,623.68 9179.7359,4914.284 0,1191.788 -1805.4009,5754.44 -4012.0059,10139.223 -11094.206,22045.489 -19352.26,56463.214 -21640.377,90192.214 l -525.248,7742.68 -2949.592,144.39 c -2287.498,111.98 -3653.063,-374.57 -6083.535,-2167.55 z m -31604.379,-16648.38 -5242.392,-1975.6 2051.11,-8111.38 c 4607.197,-18219.73 12583.086,-36298.065 22984.808,-52097.918 5012.928,-7614.446 8050.263,-8935.664 12307.321,-5353.583 3520.781,2962.541 3103.613,5246.491 -2614.452,14313.715 -9122.735,14466.061 -15856.079,30092.486 -20176.553,46824.776 -1283.25,4969.77 -2476.529,8162.54 -3080.945,8243.48 -542.577,72.64 -3345.575,-756.92 -6228.897,-1843.49 z"
                                   id="path40093" /></g></g></g></g></g></g></g></g></g></g></g></g></g></g></g></g></g></g></g></g></g></g></g></g></g></g></g></g></g></g></g></g></g></g></g></g></g></g></g></g></g></g></g></g></g></g></g></g></g></g></g></g></g></g></g></g></g></g></g></svg>
