<?xml version="1.0" encoding="UTF-8" standalone="no"?>
<!-- Created with Inkscape (http://www.inkscape.org/) -->

<svg
   width="64"
   height="64"
   viewBox="0 0 16.933333 16.933334"
   version="1.1"
   id="svg5"
   inkscape:version="1.2 (dc2aedaf03, 2022-05-15)"
   sodipodi:docname="omble_chevalier.svg"
   xml:space="preserve"
   xmlns:inkscape="http://www.inkscape.org/namespaces/inkscape"
   xmlns:sodipodi="http://sodipodi.sourceforge.net/DTD/sodipodi-0.dtd"
   xmlns="http://www.w3.org/2000/svg"
   xmlns:svg="http://www.w3.org/2000/svg"><sodipodi:namedview
     id="namedview7"
     pagecolor="#ffffff"
     bordercolor="#666666"
     borderopacity="1.0"
     inkscape:pageshadow="2"
     inkscape:pageopacity="0.0"
     inkscape:pagecheckerboard="0"
     inkscape:document-units="mm"
     showgrid="false"
     units="px"
     inkscape:zoom="22.627417"
     inkscape:cx="26.892155"
     inkscape:cy="34.338873"
     inkscape:window-width="1920"
     inkscape:window-height="1017"
     inkscape:window-x="1912"
     inkscape:window-y="-8"
     inkscape:window-maximized="1"
     inkscape:current-layer="g43157"
     inkscape:showpageshadow="2"
     inkscape:deskcolor="#d1d1d1" /><defs
     id="defs2" /><g
     inkscape:label="Calque 1"
     inkscape:groupmode="layer"
     id="layer1"><g
       id="g4128"
       transform="translate(-0.63104184,0.12620835)"><g
         id="g5578"
         transform="translate(0.08924235,0.08924306)"><g
           id="g7501"
           transform="translate(-0.06310417,0.94656242)"><g
             id="g9467"
             transform="translate(-0.08924275,-0.80318511)"><g
               id="g10302"
               transform="translate(0.31234979,-0.04462139)"><g
                 id="g11479"
                 transform="translate(-0.12620833,0.06310418)"><g
                   id="g11873"
                   transform="translate(-0.23575769,0.66462456)"><g
                     id="g12382"
                     transform="translate(-121.98459,-82.267525)"><g
                       id="g13305"
                       transform="matrix(0.13266609,0,0,0.13266609,114.63867,78.215696)"><g
                         id="g17429"
                         transform="translate(0.90513437,5.6640979)"><g
                           id="g18595"
                           transform="translate(-3.3634362,-8.7449387)"><g
                             id="g21002"
                             transform="translate(1.7082278,-2.8204445)"><g
                               id="g23814"
                               transform="translate(8.7253043,-1.1218249)"><g
                                 id="g24838"
                                 transform="translate(11.143454,-0.85716864)"><g
                                   id="g25315"
                                   transform="translate(-3.490122,2.4929446)"><g
                                   id="g27220"
                                   transform="translate(2.4678888,1.2339445)"><g
                                   id="g29753"
                                   transform="translate(1.4759287,-2.3737724)"><g
                                   id="g30615"
                                   transform="translate(0.92006037,1.3687834)"><g
                                   id="g31433"
                                   transform="translate(-2.4678886,-1.410222)"><g
                                   id="g31731"
                                   transform="translate(1.0576664,-0.70511063)"><g
                                   id="g33243"
                                   transform="matrix(1.0772948,0,0,1.0772948,-7.3729128,-3.1743014)"><g
                                   id="g35254"
                                   transform="translate(-2.2135012,-0.92031205)"><g
                                   id="g36749"
                                   transform="translate(-0.98178042,-2.7817105)"><g
                                   id="g37297"
                                   transform="translate(-6.7755742,-3.5033798)"><g
                                   id="g38955"
                                   transform="matrix(1.2171094,0,0,1.2171094,-23.105122,-18.212482)"><g
                                   id="g39618"
                                   transform="translate(-0.26888273,-0.26888316)"><g
                                   id="g40032"
                                   transform="translate(-1.90129,-3.042064)"><g
                                   id="g40543"
                                   transform="translate(0.3802582,-2.0914191)"><g
                                   id="g41372"
                                   transform="translate(1.9657652,-7.9304203)"><g
                                   id="g43278"
                                   transform="translate(1.5210324,-0.38025789)"><g
                                   id="g44210"
                                   transform="matrix(1.1578947,0,0,1.1578947,-18.904476,-21.776183)"><g
                                   id="g44833"
                                   transform="matrix(1.1196819,0,0,1.1196819,-12.538538,-14.547543)"><g
                                   id="g47597"
                                   transform="translate(3.1109352,-1.2443743)"><g
                                   id="g48754"
                                   transform="translate(-2.9035392,-6.6366609)"><g
                                   id="g234"
                                   transform="matrix(0.04089637,0,0,0.04089637,104.63967,119.67231)"><g
                                   id="g2138"
                                   transform="translate(-86.211222,-40.569988)"><g
                                   id="g2696"
                                   transform="translate(-124306.44,-9412.2373)"><g
                                   id="g3765"
                                   transform="translate(25.356243,-50.712489)"><g
                                   id="g4557"
                                   transform="translate(46.61688,-35.859142)"><g
                                   id="g5244"
                                   transform="translate(7.1718407,14.343658)"><g
                                   id="g5807"
                                   transform="translate(-5.1984397,-21.113724)"><g
                                   id="g6945"
                                   transform="translate(-10.142522,-243.41993)"><g
                                   id="g11108"
                                   transform="translate(18.189368,-37.636113)"><g
                                   id="g15049"
                                   transform="translate(-65.926228,141.99496)"><g
                                   id="g19861"
                                   transform="matrix(0.07356842,0,0,0.07356842,115423.38,9039.2311)"><g
                                   id="g20437"
                                   transform="translate(-478.38824,-785.88156)"><g
                                   id="g21032"
                                   transform="translate(2047.1878,-1072.3367)"><g
                                   id="g21869"
                                   transform="matrix(0.04321578,0,0,0.04321578,117368,10137.003)"><g
                                   id="g25455"
                                   transform="translate(154741.46,-87178.414)"><g
                                   id="g26278"
                                   transform="translate(-18012.371,-8233.4417)"><g
                                   id="g27240"
                                   transform="translate(-0.00447131,5582.7624)"><g
                                   id="g28306"
                                   transform="translate(-15790.441,-2255.7767)"><g
                                   id="g33735"
                                   transform="translate(14662.549,-16918.328)"><g
                                   id="g37868"
                                   transform="translate(-5075.4976,25941.433)"><g
                                   id="g71964"
                                   transform="translate(5569.7282,-14718.697)"><g
                                   id="g39743"
                                   transform="translate(-8772.9172,-19938.438)"><g
                                   id="g39914"
                                   transform="translate(2392.6165,-9570.4502)"><g
                                   id="g40091"
                                   transform="translate(19140.905,-3190.1498)"><g
                                   id="g42819"
                                   transform="translate(-797.53919,2392.6127)"><g
                                   id="g43157"
                                   transform="translate(34964.539,-33836.646)"><path
                                   style="fill:#cacac8;stroke-width:986.605"
                                   d="m -116375.58,267571.1 c -23714.44,-617.06 -40605.83,-2219.11 -59582.55,-5651.04 -12012.98,-2172.54 -32855.35,-7074.14 -39941.46,-9393.21 -4020.71,-1315.87 -4905.97,-1313.17 -8107.8,24.66 -4283.91,1789.94 -12401.58,1921.84 -14595.81,237.16 -2010.54,-1543.65 -3854.78,-5012.37 -3882.97,-7303.3 -16.38,-1330.8 -2236.08,-2654.57 -8632.8,-5148.35 -16377,-6384.65 -32421.72,-14522 -37055.62,-18793.39 -5361.33,-4941.9 -9890.8,-11804.36 -11572.3,-17532.82 -997.08,-3396.85 -1831.92,-4366.43 -4524.86,-5255.18 -6528.8,-2154.7 -8405.99,-9384.54 -3667.08,-14123.46 1430.58,-1430.57 3580.16,-2601.04 4776.86,-2601.04 1707.9,0 2441.96,-901.72 3413.43,-4193.07 354.01,-23966.79 226969.774,-56985.25 333539.424,-25452.25 58073.194,17183.35 118408.716,9510.52 75910.716,73055.92 h -8046.52 c -7123.162,0 -25370.864,1759.38 -26283.524,2534.16 -189.462,160.85 908.97,2595.44 2440.97,5410.23 0,0 -23509.779,61384.15 -53404.656,11772.9 -522.269,-1645.53 -1727.042,-1403.03 -14818.128,2982.58 -17391.906,5826.42 -37983.717,11035.82 -55656.134,14080.11 l -13255.869,2283.48 c 0,0 -19385.174,5092.7 -57053.319,3065.91 z"
                                   id="path43167"
                                   sodipodi:nodetypes="cssssssssssscscssccsscc" /><path
                                   style="fill:#f39797;stroke-width:986.605"
                                   d="m -34290.44,308254.7 c -9230.885,-2403.2 -21228.793,-8091 -31057.295,-14723.21 -7275.532,-4909.47 -28139.015,-24031.9 -28139.015,-25790.81 0,-473.85 2774.827,-903.27 6166.283,-954.28 3391.455,-51.01 10827.991,-614.82 16525.636,-1252.91 9946.371,-1113.9 10559.359,-1070.96 15376.389,1077.22 2759.367,1230.55 8936.265,3239.91 13726.45,4465.23 l 8709.415,2227.87 3742.835,16273.11 c 2058.561,8950.22 3992.613,17272.06 4297.899,18492.99 672.924,2691.28 306.834,2698.52 -9348.597,184.79 z M 50064.301,272551.17 C 42273.543,268399.12 31141.312,257190.12 27036.808,249364.89 l -3235.404,-6168.3 2772.094,-1082.45 c 14496.703,-5660.68 42088.172,-13712.6 46988.866,-13712.6 643.75,0 2246.542,2028.43 3561.742,4507.63 3127.97,5896.29 13705.792,15576.31 23105.184,21144.11 4122.24,2441.84 7507.69,4668.35 7523.21,4947.81 36.6,659.81 -48393.234,16765.76 -50310.011,16731.21 -802.209,-14.41 -4122.391,-1445.97 -7378.188,-3181.13 z m 135341.149,-5726.98 c -8661.14,-1006.69 -19113.16,-4199.44 -27265.39,-8328.67 -3550.48,-1798.37 -16000.83,-10101.02 -27667.44,-18450.32 l -21212.01,-15180.56 -263.02,-25856.49 -263.04,-25856.5 H 83099.196 57463.839 v 4439.73 4439.72 H -32317.23 -122098.3 v -4439.72 -4439.73 c 0,0 -98036.18,-22720.08 23779.573,-59196.31 l 8240.116,-7331.26 c 11542.6,-10269.512 19260.378,-15758.993 28543.316,-20302.201 8164.049,-3995.613 17616.506,-6897.712 22466.588,-6897.712 2851.111,0 24418.201,7504.898 71083.451,24735.573 l 11548.598,4264.21 -12781.854,13086.92 c -7030.016,7197.82 -12781.855,13479.48 -12781.855,13959.24 0,1470.7 41273.315,14758.01 52431.75,16879.59 10312.283,1960.72 28571.975,4035.71 35376.117,4020.08 2869.05,-6.91 6957.48,-2517.73 24171.82,-14846.52 11395.29,-8161.22 22947.84,-16123.16 25672.33,-17693.2 7730.61,-4454.92 22112.89,-8868.77 31175.56,-9567.63 l 8034.17,-619.55 -720.05,8644.03 c -1655.59,19875.13 -7464.52,37536.81 -18891.63,57438.72 l -6352.43,11063.65 3960.17,6470.14 c 13020.82,21273.51 19357.81,39858.02 21300.07,62466.84 569.26,6626.39 446.3,8115.38 -661.41,8009.82 -748.36,-71.33 -4389.16,-481.66 -8090.65,-911.89 z M -130759.73,229210 l 275.29,-13004.02 9372.75,-3818.83 c 15151.72,-6173.39 22823.646,-7965.77 34531.176,-8067.46 9888.645,-85.93 22186.718,1747.53 23248.769,3465.97 274.503,444.15 -5172.485,8372.23 -12104.402,17617.95 l -12603.506,16810.4 h -21497.687 -21497.67 z"
                                   id="path43165"
                                   sodipodi:nodetypes="ssssssscssssscssssssssssccccccccccccsssscssscssscsscssssccsssscccc" /><path
                                   style="fill:#a1a19f;stroke-width:986.605"
                                   d="m -239055.85,251631.6 c -3471.76,-3471.75 -3384.56,-9503.56 177.9,-12305.79 1429.76,-1124.66 3449.68,-2044.82 4488.71,-2044.82 2736.69,0 7488.59,-2674.33 8668.16,-4878.38 1599.84,-2989.33 1192.06,-7457.36 -926.4,-10150.56 -1107.06,-1407.39 -10826.84,-6979.91 -22603.39,-12958.92 L -269912,198803.39 h -17299.11 c -16777.78,0 -17381.04,-70.45 -20017.96,-2338.66 -3514.89,-3023.38 -3759.04,-8503.2 -523.17,-11742.39 2100.29,-2102.45 3047.26,-2211.11 21797.52,-2501.13 l 19601.85,-303.19 23608.48,11812.11 c 12984.67,6496.67 24984.7,12970.13 26666.74,14385.48 5012.28,4217.55 8144.71,11668.16 8144.71,19372.55 0,3706.77 -665.72,8185.31 -1520.97,10232.23 -5104.29,12216.29 -22923.07,20590.09 -29601.94,13911.21 z m 65177.87,-18279.77 -5840.78,-5902.36 9072.1,-9250.97 c 11160.47,-11380.52 13475.1,-15889.12 13502.62,-26301.35 16.87,-6378.54 -388.73,-8148.26 -2939.41,-12825.87 l -2958.96,-5426.32 -18005.54,-268.91 -18005.55,-268.91 -16.28,2242.12 c -43.6,6023.15 -7536.93,13866.28 -14494.97,15171.62 -8173.62,1533.38 -18350.41,-5351.22 -19616.8,-13270.76 l -655.32,-4098.47 h -31963.91 -31963.91 l 1628.54,-3149.23 c 3630.8,-7021.2 11044.84,-13331 21813.57,-18564.67 50993.06,-24782.97 106010.24,-37418.71 163076.94,-37453.72 17560.77,-10.76 36990.538,1050.95 45153.078,2467.35 1774.222,307.87 3104.373,150.88 2959.815,-349.33 -144.399,-499.68 7757.953,-8234.04 17560.783,-17187.469 l 17823.337,-16278.985 7828.397,2838.69 c 4305.623,1561.283 8397.509,3050.06 9093.076,3308.403 1903.911,707.129 -30719.057,30086.331 -33522.002,30188.841 -1250.621,45.78 1943,926.26 7096.927,1956.72 l 9370.766,1873.56 8881.429,-8623.11 c 4884.781,-4742.7 11662.246,-11275.92 15061.041,-14518.245 l 6179.621,-5895.144 8372.805,2842.785 c 4605.039,1563.532 8372.805,3103.731 8372.805,3422.664 0,318.94 -6104.619,6700.5 -13565.821,14181.25 -12732.12,12765.49 -13414.239,13640.63 -11099.308,14240.41 1356.582,351.48 16007.669,5238.87 32557.97,10860.89 33376.813,11337.85 46533.045,14489.35 67829.109,16248.04 l 14059.122,1161.06 v 8214.62 8214.62 H 83115.576 57463.839 v -3946.42 -3946.42 H -32317.23 -122098.3 v 3946.42 3946.42 h -10359.35 c -5697.64,0 -10359.35,166.17 -10359.35,369.26 0,203.09 656.59,2230.25 1459.1,4504.78 4023.55,11403.98 2396.78,26454.88 -4018.75,37181.45 -2964.4,4956.39 -20522.72,24047.06 -22116.88,24047.06 -299.02,0 -3172.02,-2656.07 -6384.45,-5902.37 z m 301615.28,-17953.64 -19014.31,-8012.67 268.81,-17186.69 268.81,-17186.69 19159.86,-7823.09 c 10537.92,-4302.7 19484.93,-7823.08 19882.24,-7823.08 397.31,0 1160.07,1220.92 1695.04,2713.16 534.96,1492.24 1882.74,4990.53 2995.07,7773.97 l 2022.43,5060.8 -19917.51,8039.16 c -10954.62,4421.53 -20457.35,8376.65 -21117.18,8789.14 -720,450.12 7070.94,4238.6 19485.45,9475.14 11376.83,4798.82 20685.14,9212.26 20685.14,9807.64 0,2465.76 -5194.53,14441.3 -6252.53,14414.71 -630.86,-15.89 -9703.45,-3634.53 -20161.32,-8041.5 z"
                                   id="path43163"
                                   sodipodi:nodetypes="sssssscsssscsssssscssscccssscccsssssscsssscsscsssssscccccccccccssssssscccsssscssssss" /><path
                                   style="fill:#df7e7e;stroke-width:986.605"
                                   d="m -173574.44,232991.96 -5599.01,-6261.07 8382.66,-8290.77 c 11278.2,-11154.57 13397.5,-14888.65 13959.44,-24595.62 384.65,-6644.74 119.06,-8353.88 -2010.99,-12941.09 -3218.64,-6931.56 -4210.23,-7958.62 -17245.48,-17862.35 l -11072.18,-8412.28 4938.98,-6524.24 c 2716.44,-3588.34 5208.28,-6524.25 5537.42,-6524.25 1534.7,0 22509.49,16523.96 25981.15,20467.97 11953.68,13580.09 14332.16,35016.97 5753.87,51858.64 -1680.09,3298.52 -20500.25,24451.52 -22331.91,25100.05 -382.22,135.34 -3214.5,-2571.4 -6293.95,-6014.99 z m 301311.74,-17593.77 -19014.31,-8012.67 268.81,-17186.69 268.81,-17186.69 19159.86,-7823.09 c 10537.92,-4302.7 19484.93,-7823.08 19882.24,-7823.08 397.31,0 1160.07,1220.92 1695.04,2713.16 534.96,1492.24 1882.74,4990.53 2995.07,7773.97 l 2022.43,5060.8 -19917.51,8039.16 c -10954.62,4421.53 -20457.35,8376.65 -21117.18,8789.14 -720,450.12 7070.94,4238.6 19485.45,9475.14 11376.83,4798.82 20685.14,9212.26 20685.14,9807.64 0,2465.76 -5194.53,14441.3 -6252.53,14414.71 -630.86,-15.89 -9703.45,-3634.53 -20161.32,-8041.5 z m -352295.29,-27148 c -6962.4,-3430.4 -10490.1,-12955.21 -7600.52,-20521.45 5602.21,-14669.17 24995.45,-15092.05 31368.81,-684.01 1743.86,3942.28 1840.8,5054.84 826.01,9479.77 -1303.87,5685.45 -3233.25,8399.64 -8064.67,11345.07 -4133.77,2520.12 -11827.7,2697.28 -16529.63,380.62 z m 206251.954,-63226.75 -9174.017,-2489.12 3254.386,-3391.64 c 1789.919,-1865.41 8514.265,-8325.8 14942.994,-14356.45 l 11688.597,-10964.801 8290.157,2814.726 c 4559.586,1548.102 8290.157,3087.363 8290.157,3420.585 0,792.69 -27010.417,27750.06 -27637.711,27583.44 -264.292,-70.25 -4608.847,-1247.73 -9654.563,-2616.74 z m -37689.718,-7496.07 c -4128.054,-616.74 -7229.734,-1541.71 -7015.473,-2092.12 211.242,-542.63 8231.74,-8144.54 17823.338,-16893.122 l 17439.262,-15906.532 7828.397,2838.69 c 4305.623,1561.283 8397.509,3050.06 9093.076,3308.403 731.301,271.612 -5591.477,6719.205 -14991.742,15287.691 -18138.321,16533.38 -15991.991,15576.24 -30176.858,13456.99 z"
                                   id="path43161" /><path
                                   style="fill:#3d4c62;stroke-width:986.605"
                                   d="m -173574.44,232991.96 -5599.01,-6261.07 8382.66,-8290.77 c 11278.2,-11154.57 13397.5,-14888.65 13959.44,-24595.62 384.65,-6644.74 119.06,-8353.88 -2010.99,-12941.09 -3218.64,-6931.56 -4210.23,-7958.62 -17245.48,-17862.35 l -11072.18,-8412.28 4938.98,-6524.24 c 2716.44,-3588.34 5208.28,-6524.25 5537.42,-6524.25 1534.7,0 22509.49,16523.96 25981.15,20467.97 11953.68,13580.09 14332.16,35016.97 5753.87,51858.64 -1680.09,3298.52 -20500.25,24451.52 -22331.91,25100.05 -382.22,135.34 -3214.5,-2571.4 -6293.95,-6014.99 z m -50983.55,-44741.77 c -6962.4,-3430.4 -10490.1,-12955.21 -7600.52,-20521.45 5602.21,-14669.17 24995.45,-15092.05 31368.81,-684.01 1743.86,3942.28 1840.8,5054.84 826.01,9479.77 -1303.87,5685.45 -3233.25,8399.64 -8064.67,11345.07 -4133.77,2520.12 -11827.7,2697.28 -16529.63,380.62 z"
                                   id="path43159" /></g></g></g></g></g></g></g></g></g></g></g></g></g></g></g></g></g></g></g></g></g></g></g></g></g></g></g></g></g></g></g></g></g></g></g></g></g></g></g></g></g></g></g></g></g></g></g></g></g></g></g></g></g></g></g></g></g></g></g></g></g></svg>
