<?xml version="1.0" encoding="UTF-8" standalone="no"?>
<!-- Created with Inkscape (http://www.inkscape.org/) -->

<svg
   width="64"
   height="64"
   viewBox="0 0 16.933333 16.933334"
   version="1.1"
   id="svg5"
   inkscape:version="1.2 (dc2aedaf03, 2022-05-15)"
   sodipodi:docname="oreo.svg"
   xmlns:inkscape="http://www.inkscape.org/namespaces/inkscape"
   xmlns:sodipodi="http://sodipodi.sourceforge.net/DTD/sodipodi-0.dtd"
   xmlns="http://www.w3.org/2000/svg"
   xmlns:svg="http://www.w3.org/2000/svg">
  <sodipodi:namedview
     id="namedview7"
     pagecolor="#ffffff"
     bordercolor="#666666"
     borderopacity="1.0"
     inkscape:pageshadow="2"
     inkscape:pageopacity="0.0"
     inkscape:pagecheckerboard="0"
     inkscape:document-units="mm"
     showgrid="false"
     units="px"
     inkscape:zoom="8"
     inkscape:cx="80.875"
     inkscape:cy="40.5"
     inkscape:window-width="1920"
     inkscape:window-height="1017"
     inkscape:window-x="1912"
     inkscape:window-y="-8"
     inkscape:window-maximized="1"
     inkscape:current-layer="g44875"
     inkscape:showpageshadow="2"
     inkscape:deskcolor="#d1d1d1" />
  <defs
     id="defs2" />
  <g
     inkscape:label="Calque 1"
     inkscape:groupmode="layer"
     id="layer1">
    <g
       id="g4128"
       transform="translate(-0.63104184,0.12620835)">
      <g
         id="g5578"
         transform="translate(0.08924235,0.08924306)">
        <g
           id="g7501"
           transform="translate(-0.06310417,0.94656242)">
          <g
             id="g9467"
             transform="translate(-0.08924275,-0.80318511)">
            <g
               id="g10302"
               transform="translate(0.31234979,-0.04462139)">
              <g
                 id="g11479"
                 transform="translate(-0.12620833,0.06310418)">
                <g
                   id="g11873"
                   transform="translate(-0.23575769,0.66462456)">
                  <g
                     id="g12382"
                     transform="translate(-121.98459,-82.267525)">
                    <g
                       id="g13305"
                       transform="matrix(0.13266609,0,0,0.13266609,114.63867,78.215696)">
                      <g
                         id="g17429"
                         transform="translate(0.90513437,5.6640979)">
                        <g
                           id="g18595"
                           transform="translate(-3.3634362,-8.7449387)">
                          <g
                             id="g21002"
                             transform="translate(1.7082278,-2.8204445)">
                            <g
                               id="g23814"
                               transform="translate(8.7253043,-1.1218249)">
                              <g
                                 id="g24838"
                                 transform="translate(11.143454,-0.85716864)">
                                <g
                                   id="g25315"
                                   transform="translate(-3.490122,2.4929446)">
                                <g
                                   id="g27220"
                                   transform="translate(2.4678888,1.2339445)">
                                <g
                                   id="g29753"
                                   transform="translate(1.4759287,-2.3737724)">
                                <g
                                   id="g30615"
                                   transform="translate(0.92006037,1.3687834)">
                                <g
                                   id="g31433"
                                   transform="translate(-2.4678886,-1.410222)">
                                <g
                                   id="g31731"
                                   transform="translate(1.0576664,-0.70511063)">
                                <g
                                   id="g33243"
                                   transform="matrix(1.0772948,0,0,1.0772948,-7.3729128,-3.1743014)">
                                <g
                                   id="g35254"
                                   transform="translate(-2.2135012,-0.92031205)">
                                <g
                                   id="g36749"
                                   transform="translate(-0.98178042,-2.7817105)">
                                <g
                                   id="g37297"
                                   transform="translate(-6.7755742,-3.5033798)">
                                <g
                                   id="g38955"
                                   transform="matrix(1.2171094,0,0,1.2171094,-23.105122,-18.212482)">
                                <g
                                   id="g39618"
                                   transform="translate(-0.26888273,-0.26888316)">
                                <g
                                   id="g40032"
                                   transform="translate(-1.90129,-3.042064)">
                                <g
                                   id="g40543"
                                   transform="translate(0.3802582,-2.0914191)">
                                <g
                                   id="g41372"
                                   transform="translate(1.9657652,-7.9304203)">
                                <g
                                   id="g43278"
                                   transform="translate(1.5210324,-0.38025789)">
                                <g
                                   id="g44210"
                                   transform="matrix(1.1578947,0,0,1.1578947,-18.904476,-21.776183)">
                                <g
                                   id="g44833"
                                   transform="matrix(1.1196819,0,0,1.1196819,-12.538538,-14.547543)">
                                <g
                                   id="g47597"
                                   transform="translate(3.1109352,-1.2443743)">
                                <g
                                   id="g48754"
                                   transform="translate(-2.9035392,-6.6366609)">
                                <g
                                   id="g234"
                                   transform="matrix(0.04089637,0,0,0.04089637,104.63967,119.67231)">
                                <g
                                   id="g2138"
                                   transform="translate(-86.211222,-40.569988)">
                                <g
                                   id="g2696"
                                   transform="translate(-124306.44,-9412.2373)">
                                <g
                                   id="g3765"
                                   transform="translate(25.356243,-50.712489)">
                                <g
                                   id="g4557"
                                   transform="translate(46.61688,-35.859142)">
                                <g
                                   id="g5244"
                                   transform="translate(7.1718407,14.343658)">
                                <g
                                   id="g5807"
                                   transform="translate(-5.1984397,-21.113724)">
                                <g
                                   id="g6945"
                                   transform="translate(-10.142522,-243.41993)">
                                <g
                                   id="g11108"
                                   transform="translate(18.189368,-37.636113)">
                                <g
                                   id="g15049"
                                   transform="translate(-65.926228,141.99496)">
                                <g
                                   id="g19861"
                                   transform="matrix(0.07356842,0,0,0.07356842,115423.38,9039.2311)">
                                <g
                                   id="g20437"
                                   transform="translate(-478.38824,-785.88156)">
                                <g
                                   id="g21032"
                                   transform="translate(2047.1878,-1072.3367)">
                                <g
                                   id="g21869"
                                   transform="matrix(0.04321578,0,0,0.04321578,117368,10137.003)">
                                <g
                                   id="g25455"
                                   transform="translate(154741.46,-87178.414)">
                                <g
                                   id="g26278"
                                   transform="translate(-18012.371,-8233.4417)">
                                <g
                                   id="g27240"
                                   transform="translate(-0.00447131,5582.7624)">
                                <g
                                   id="g28306"
                                   transform="translate(-15790.441,-2255.7767)">
                                <g
                                   id="g33735"
                                   transform="translate(14662.549,-16918.328)">
                                <g
                                   id="g37868"
                                   transform="translate(-5075.4976,25941.433)">
                                <g
                                   id="g76752"
                                   transform="matrix(-1,0,0,1,9442.3174,-1595.0746)">
                                <g
                                   id="g82459"
                                   transform="translate(3383.6668,-1127.8885)">
                                <g
                                   id="g83208"
                                   transform="matrix(0.20332428,0,0,0.20332428,-15348.528,66747.475)">
                                <g
                                   id="g83934"
                                   transform="matrix(-1,0,0,1,240692.18,94139.78)">
                                <g
                                   id="g84550"
                                   transform="translate(-8.7627443e-5,55472.344)">
                                <g
                                   id="g1274"
                                   transform="translate(-66682.337,-43147.393)">
                                <g
                                   id="g2352"
                                   transform="translate(-74780.623,-22188.943)">
                                <g
                                   id="g4123"
                                   transform="translate(-47069.882,-15689.961)">
                                <g
                                   id="g5928">
                                <g
                                   id="g12050"
                                   transform="translate(78161.555,35375.784)">
                                <g
                                   id="g1093"
                                   transform="matrix(0.06385153,0,0,0.06385153,-151090.08,201736.02)">
                                <g
                                   id="g1970"
                                   transform="translate(-477269.04,568882.2)">
                                <g
                                   id="g1097"
                                   transform="rotate(180,7281171.5,-2851818.8)">
                                <g
                                   id="g1814"
                                   transform="translate(2547662.7,480719.64)">
                                <g
                                   id="g3865"
                                   transform="translate(552882.75,-3993042.7)">
                                <g
                                   id="g4873"
                                   transform="matrix(-1,0,0,1,8458829.5,2171928.6)">
                                <g
                                   id="g7483"
                                   transform="matrix(1.1002204,0,0,1.1002204,477121.62,-2453467.8)">
                                <g
                                   id="g8018"
                                   transform="translate(0.2655037,670026.67)">
                                <g
                                   id="g13730"
                                   transform="translate(446684.45,111671.19)">
                                <g
                                   id="g14695"
                                   transform="translate(-394816.71,-1342377.9)">
                                <g
                                   id="g16168"
                                   transform="translate(-344955.87,1017335.2)">
                                <g
                                   id="g16839"
                                   transform="matrix(0.60827628,0,0,0.60827628,1436551,1438799.3)">
                                <g
                                   id="g1538"
                                   transform="translate(-780037.37,-179302.73)">
                                <g
                                   id="g2335"
                                   transform="translate(-2294827.3,-2661999.6)">
                                <g
                                   id="g2976"
                                   transform="matrix(0.01824278,0,0,0.01824278,4237702.3,-736203.59)">
                                <g
                                   id="g5263"
                                   transform="translate(167225240,-437632020)">
                                <g
                                   id="g1460"
                                   transform="translate(70444475,-5031751)">
                                <g
                                   id="g1976"
                                   transform="matrix(0.82103298,0,0,0.82103298,22231863,-28054828)">
                                <g
                                   id="g8328"
                                   transform="translate(49028462,-3.331111)">
                                <g
                                   id="g12844"
                                   transform="translate(-69336762,17334180)">
                                <g
                                   id="g13950"
                                   transform="translate(-91928401,-183856770)">
                                <g
                                   id="g17075"
                                   transform="translate(-43335445,173341820)">
                                <g
                                   id="g44389"
                                   transform="translate(-42899957,-61285589)">
                                <g
                                   id="g44875"
                                   transform="translate(245142330,36771354)">
                                <ellipse
                                   style="fill:#ffffff;stroke:none;stroke-width:1.70339e+07;stroke-linecap:round;stroke-linejoin:bevel;stroke-dasharray:1.68327e+07, 6.73307e+07, 5.04981e+07, 6.73307e+07"
                                   id="path44943"
                                   cx="-259466016"
                                   cy="480787072"
                                   rx="1157056640"
                                   ry="1196058624" />
                                <path
                                   style="fill:#4a3126;stroke-width:1.50302e+06"
                                   d="m -447796050,-681628630 c -234843180,8815530 -464197860,96170250 -649310050,247303860 -275599800,225011750 -434428900,564694800 -434961500,930239480 -382200,262366040 83985900,517772490 239805800,725960690 188752500,252188900 465580880,412030500 771705480,445585200 71319240,7817400 150883580,7806700 227708190,-30600 C 3166493.4,1637231900 276093460,1484347600 466333350,1242162700 667442670,986140710 755553860,653469160 709565820,323818430 655062260,-66874097 414767300,-403993280 70883753,-572214020 c -136171150,-66612080 -283910053,-103494950 -438635543,-109504640 -20389410,-791940 -40115280,-1344450 -43835270,-1227670 -3719980,117240 -20014030,709880 -36208990,1317700 z m 254643640,2836800 c -14193750,464590 -26311880,1351820 -26929190,1971820 -617310,620000 2387600,1127270 6677550,1127270 11475450,0 62983150,5499270 92505260,9876370 249852340,37044740 480374330,153558890 659974610,333575050 140748160,141074170 243333040,315341123 298164140,506508830 21230900,74021780 36686400,159880850 41665900,231465740 460100,6613300 1390800,19464160 2068300,28557460 1270200,17046640 892700,132340270 -455300,139029750 -416300,2066660 -1197300,10859350 -1735500,19539310 -538100,8679970 -1245400,17810840 -1571600,20290830 -326300,2479990 -1334900,11272680 -2241600,19539320 -15665200,142845920 -60998600,288944040 -129653200,417840780 -131052800,246047000 -345819640,438762100 -603869070,541865200 -109371027,43698900 -217917637,69069600 -341860030,79903000 -22258790,1945600 -22411640,1983500 -12024190,2977800 11337570,1085300 118847213,459200 130011603,-757100 3719990,-405300 12512680,-1157600 19539320,-1671600 74038070,-5416800 161354320,-21525000 236726327,-43671600 167074370,-49091700 315118660,-131079900 450155780,-249300000 23497980,-20571600 81248080,-78477700 102113360,-102389100 140105000,-160559400 231449800,-345695670 272050000,-551386750 17481840,-88568040 25113740,-186811420 21209340,-273022040 -954700,-21079910 -1998300,-40356200 -2319200,-42836190 -320900,-2479990 -1009300,-9919960 -1530100,-16533270 -520600,-6613300 -1178600,-13715090 -1462400,-15781750 -283800,-2066660 -956200,-8492090 -1494300,-14278730 -538100,-5786650 -3009700,-24048390 -5492700,-40581660 C 988346060,198381730 952148060,84455192 895083860,-29392287 849214060,-120905430 796854160,-198773360 727818550,-278142810 707728230,-301240390 655769580,-353900800 631511820,-375750410 515464360,-480276730 385384970,-558110700 237882230,-611281540 103988310,-659546800 -49002427,-683508770 -193152410,-678791830 Z"
                                   id="path44879"
                                   sodipodi:nodetypes="csssssssssscssssssssssscssssscsssssssssssssss" />
                                <path
                                   style="fill:#1c0000;stroke-width:1.50302e+06"
                                   d="m -458180810,-680771760 c -129993230,7448540 -248711650,34299620 -364106090,82351300 -135051080,56237010 -254040100,136392540 -360422800,242794640 -69698700,69711320 -124359300,139187570 -174746700,222111370 -212902800,350379140 -231753600,799326500 -49054000,1168263350 121741000,245839400 320349100,438406200 562627230,545513000 212892640,94116000 450100070,117209200 678040590,66010400 153672813,-34517200 303895130,-105726400 430349830,-203996600 C 495932110,1262431400 652304660,1000097700 702839790,706920770 722076100,595321400 726092480,482738440 714817690,371163690 676863470,-4429606.6 468998220,-337289070 154229910,-526517880 12295113,-611844720 -144772910,-662681210 -313890470,-678029190 c -24902150,-2260100 -120875820,-4084170 -144290340,-2742570 z m 95442050,153898720 c 107621420,5304920 209335120,27308900 307368473,66493640 198593847,79379530 366818337,224222370 480568417,413774033 135598800,225960157 180835020,500316987 125807200,763020277 -17879380,85356720 -48956060,174565510 -87924820,252397690 -86658070,173081900 -219471310,317486100 -381675587,414985500 -109874830,66044700 -234709843,109874100 -360655013,126625400 -50917430,6772300 -64236850,7551000 -127827890,7473600 -52535750,-64000 -65195240,-539100 -92436000,-3469400 -119512180,-12856000 -227875920,-44756900 -332919880,-98007400 -275235040,-139526200 -472958240,-406708900 -532711940,-719851850 -14505800,-76018560 -19919900,-141231270 -18405900,-221696080 497800,-26453230 1582800,-54860390 2411100,-63127020 828300,-8266640 1873100,-18750230 2321600,-23296880 17825300,-180673590 82694700,-354949860 186730300,-501664270 34703400,-48939830 64124900,-83602570 110122100,-129739260 77888200,-78124500 159023770,-137139090 253862270,-184648790 144489340,-72382490 307103100,-107070340 465365570,-99269190 z m 157066040,-150491210 c -3633530,648400 1491740,1507530 16571050,2777740 226939633,19116510 450716350,109394010 631983940,254959360 60745030,48780660 127069880,114852400 178237340,177556920 137986750,169099713 228544950,383740600 253835550,601640840 6096400,52526140 6811100,67420200 6759000,140853170 -55700,77289970 -1195600,96778140 -9147500,156314530 -51688800,386993890 -295261260,725026190 -647999430,899300090 -131721887,65078600 -283851547,106666600 -428736930,117204900 -15250280,1109200 -14617580,1186000 18787810,2277800 48317850,1579200 109756093,-1175900 163829643,-7346900 369465017,-42163800 698767127,-259463800 885883307,-584577000 75998900,-132047450 126912600,-284184870 145869440,-435877040 8078000,-64641290 11205300,-150059540 7731400,-211174910 C 1010772200,310589920 985627060,190843910 942973160,79576976 766791860,-380008480 327766090,-680975570 -162836530,-678493170 c -20666580,105210 -39942870,612630 -42836190,1128920 z"
                                   id="path44877"
                                   sodipodi:nodetypes="sssssssssssssssssssssssssscsssssssssssssssssssss" />
                                </g>
                                </g>
                                </g>
                                </g>
                                </g>
                                </g>
                                </g>
                                </g>
                                </g>
                                </g>
                                </g>
                                </g>
                                </g>
                                </g>
                                </g>
                                </g>
                                </g>
                                </g>
                                </g>
                                </g>
                                </g>
                                </g>
                                </g>
                                </g>
                                </g>
                                </g>
                                </g>
                                </g>
                                </g>
                                </g>
                                </g>
                                </g>
                                </g>
                                </g>
                                </g>
                                </g>
                                </g>
                                </g>
                                </g>
                                </g>
                                </g>
                                </g>
                                </g>
                                </g>
                                </g>
                                </g>
                                </g>
                                </g>
                                </g>
                                </g>
                                </g>
                                </g>
                                </g>
                                </g>
                                </g>
                                </g>
                                </g>
                                </g>
                                </g>
                                </g>
                                </g>
                                </g>
                                </g>
                                </g>
                                </g>
                                </g>
                                </g>
                                </g>
                                </g>
                                </g>
                                </g>
                                </g>
                                </g>
                                </g>
                              </g>
                            </g>
                          </g>
                        </g>
                      </g>
                    </g>
                  </g>
                </g>
              </g>
            </g>
          </g>
        </g>
      </g>
    </g>
  </g>
</svg>
