<?xml version="1.0" encoding="UTF-8" standalone="no"?>
<svg
   width="64"
   height="64"
   version="1.1"
   viewBox="0 0 16.933 16.933"
   id="svg146"
   sodipodi:docname="orzo.svg"
   inkscape:version="1.2 (dc2aedaf03, 2022-05-15)"
   xml:space="preserve"
   xmlns:inkscape="http://www.inkscape.org/namespaces/inkscape"
   xmlns:sodipodi="http://sodipodi.sourceforge.net/DTD/sodipodi-0.dtd"
   xmlns="http://www.w3.org/2000/svg"
   xmlns:svg="http://www.w3.org/2000/svg"><defs
     id="defs150"><pattern
       id="EMFhbasepattern"
       patternUnits="userSpaceOnUse"
       width="6"
       height="6"
       x="0"
       y="0" /><pattern
       id="EMFhbasepattern-1"
       patternUnits="userSpaceOnUse"
       width="6"
       height="6"
       x="0"
       y="0" /><pattern
       id="EMFhbasepattern-4"
       patternUnits="userSpaceOnUse"
       width="6"
       height="6"
       x="0"
       y="0" /><pattern
       id="EMFhbasepattern-0"
       patternUnits="userSpaceOnUse"
       width="6"
       height="6"
       x="0"
       y="0" /><pattern
       id="EMFhbasepattern-5"
       patternUnits="userSpaceOnUse"
       width="6"
       height="6"
       x="0"
       y="0" /><pattern
       id="EMFhbasepattern-8"
       patternUnits="userSpaceOnUse"
       width="6"
       height="6"
       x="0"
       y="0" /><pattern
       id="EMFhbasepattern-9"
       patternUnits="userSpaceOnUse"
       width="6"
       height="6"
       x="0"
       y="0" /><pattern
       id="EMFhbasepattern-00"
       patternUnits="userSpaceOnUse"
       width="6"
       height="6"
       x="0"
       y="0" /><pattern
       id="EMFhbasepattern-93"
       patternUnits="userSpaceOnUse"
       width="6"
       height="6"
       x="0"
       y="0" /></defs><sodipodi:namedview
     id="namedview148"
     pagecolor="#ffffff"
     bordercolor="#666666"
     borderopacity="1.0"
     inkscape:pageshadow="2"
     inkscape:pageopacity="0.0"
     inkscape:pagecheckerboard="0"
     showgrid="false"
     inkscape:zoom="8"
     inkscape:cx="38.8125"
     inkscape:cy="42"
     inkscape:window-width="1920"
     inkscape:window-height="1017"
     inkscape:window-x="1912"
     inkscape:window-y="-8"
     inkscape:window-maximized="1"
     inkscape:current-layer="g3984"
     inkscape:showpageshadow="0"
     inkscape:deskcolor="#d1d1d1" /><g
     transform="translate(-.63104 .12621)"
     id="g144"><g
       transform="translate(.089242 .089243)"
       id="g142"><g
         transform="translate(-.063104 .94656)"
         id="g140"><g
           transform="translate(-.089243 -.80319)"
           id="g138"><g
             transform="translate(.31235 -.044621)"
             id="g136"><g
               transform="translate(-.12621 .063104)"
               id="g134"><g
                 transform="translate(-.23576 .66462)"
                 id="g132"><g
                   transform="translate(-121.98 -82.268)"
                   id="g130"><g
                     transform="matrix(.13267 0 0 .13267 114.64 78.216)"
                     id="g128"><g
                       transform="translate(.90513 5.6641)"
                       id="g126"><g
                         transform="translate(-3.3634 -8.7449)"
                         id="g124"><g
                           id="g2243"
                           transform="matrix(1.1930023,0,0,1.1930023,-33.651497,-20.118288)"><g
                             id="g2622"
                             transform="translate(-3.5913905,-3.2649007)"><g
                               id="g3762"
                               transform="translate(-4.1555401,0.11543139)"><g
                                 id="g14682"
                                 transform="translate(0.92345349,1.1543167)"><g
                                   id="g14733"
                                   transform="translate(-4.2443703,-2.6119205)"><g
                                   id="g3012"
                                   transform="translate(-1.3851797,-4.3864029)"><g
                                   id="g3323"
                                   transform="translate(-1.0388848,-3.9246767)"><g
                                   id="g3881"
                                   transform="translate(2.0685351,0.59100979)"><g
                                   id="g3984"
                                   transform="translate(3.5522119,0.20895359)"><path
                                   style="fill:#ffe680;stroke:none;stroke-width:1.05577px;stroke-linecap:butt;stroke-linejoin:miter;stroke-opacity:1"
                                   d="m 131.26171,109.92738 c 0,0 -7.76151,-4.30901 -10.5507,-12.420984 -2.78919,-8.111978 1.89028,-16.419533 1.89028,-16.419533 0,0 8.47527,4.761361 11.26052,12.456028 2.78526,7.694669 -2.6001,16.384489 -2.6001,16.384489 z"
                                   id="path2208-6" /><path
                                   style="fill:#ffe680;stroke:none;stroke-width:1.05577px;stroke-linecap:butt;stroke-linejoin:miter;stroke-opacity:1"
                                   d="m 157.11975,126.11918 c 0,0 -2.46619,-8.52798 1.27506,-16.24722 3.74126,-7.71924 12.91694,-10.311487 12.91694,-10.311487 0,0 2.65345,9.352007 -0.79638,16.772527 -3.44983,7.42053 -13.39562,9.78618 -13.39562,9.78618 z"
                                   id="path2208-6-3" /><path
                                   style="fill:#ffe680;stroke:none;stroke-width:1.05577px;stroke-linecap:butt;stroke-linejoin:miter;stroke-opacity:1"
                                   d="m 139.46688,94.916809 c 0,0 2.59943,-8.488321 9.95334,-12.904618 7.35392,-4.416298 16.45342,-1.568159 16.45342,-1.568159 0,0 -2.89333,9.280591 -9.83989,13.60619 -6.94657,4.325608 -16.56687,0.866587 -16.56687,0.866587 z"
                                   id="path2208-6-6" /><path
                                   style="fill:#ffe680;stroke:none;stroke-width:1.05577px;stroke-linecap:butt;stroke-linejoin:miter;stroke-opacity:1"
                                   d="m 138.97996,134.58748 c 0,0 -8.86989,-0.36546 -15.0043,-6.36152 -6.13442,-5.99606 -5.6831,-15.52019 -5.6831,-15.52019 0,0 9.71076,0.44918 15.65429,6.07413 5.94353,5.62493 5.03311,15.80758 5.03311,15.80758 z"
                                   id="path2208-6-8" /></g></g></g></g></g></g></g></g></g></g></g></g></g></g></g></g></g></g></g></g></svg>
