<?xml version="1.0" encoding="UTF-8" standalone="no"?>
<svg
   width="64"
   height="64"
   version="1.1"
   viewBox="0 0 16.933 16.933"
   id="svg146"
   sodipodi:docname="ourson_en_guimauve.svg"
   inkscape:version="1.2 (dc2aedaf03, 2022-05-15)"
   xml:space="preserve"
   xmlns:inkscape="http://www.inkscape.org/namespaces/inkscape"
   xmlns:sodipodi="http://sodipodi.sourceforge.net/DTD/sodipodi-0.dtd"
   xmlns="http://www.w3.org/2000/svg"
   xmlns:svg="http://www.w3.org/2000/svg"><defs
     id="defs150" /><sodipodi:namedview
     id="namedview148"
     pagecolor="#ffffff"
     bordercolor="#666666"
     borderopacity="1.0"
     inkscape:pageshadow="2"
     inkscape:pageopacity="0.0"
     inkscape:pagecheckerboard="0"
     showgrid="false"
     inkscape:zoom="16"
     inkscape:cx="30.53125"
     inkscape:cy="23.8125"
     inkscape:window-width="1920"
     inkscape:window-height="1017"
     inkscape:window-x="1912"
     inkscape:window-y="-8"
     inkscape:window-maximized="1"
     inkscape:current-layer="g4818"
     inkscape:showpageshadow="0"
     inkscape:deskcolor="#d1d1d1" /><g
     transform="translate(-.63104 .12621)"
     id="g144"><g
       transform="translate(.089242 .089243)"
       id="g142"><g
         transform="translate(-.063104 .94656)"
         id="g140"><g
           transform="translate(-.089243 -.80319)"
           id="g138"><g
             transform="translate(.31235 -.044621)"
             id="g136"><g
               transform="translate(-.12621 .063104)"
               id="g134"><g
                 transform="translate(-.23576 .66462)"
                 id="g132"><g
                   transform="translate(-121.98 -82.268)"
                   id="g130"><g
                     transform="matrix(.13267 0 0 .13267 114.64 78.216)"
                     id="g128"><g
                       transform="translate(.90513 5.6641)"
                       id="g126"><g
                         transform="translate(-3.3634 -8.7449)"
                         id="g124"><g
                           id="g2243"
                           transform="matrix(1.1930023,0,0,1.1930023,-33.651497,-20.118288)"><g
                             id="g2622"
                             transform="translate(-3.5913905,-3.2649007)"><g
                               id="g3762"
                               transform="translate(-4.1555401,0.11543139)"><g
                                 id="g14682"
                                 transform="translate(0.92345349,1.1543167)"><g
                                   id="g14733"
                                   transform="translate(-4.2443703,-2.6119205)"><g
                                   id="g3012"
                                   transform="translate(-1.3851797,-4.3864029)"><g
                                   id="g3323"
                                   transform="translate(-1.0388848,-3.9246767)"><g
                                   id="g3881"
                                   transform="translate(2.0685351,0.59100979)"><g
                                   id="g3984"
                                   transform="translate(3.5522119,0.20895359)"><g
                                   id="g4501"
                                   transform="translate(2.0895364,-5.0148868)"><g
                                   id="g4818"
                                   transform="translate(3.1343047,-2.0895366)"><path
                                   style="fill:#d1864e;stroke-width:0.150185"
                                   d="m 120.00876,147.00976 c -4.80467,-1.16851 -8.32048,-6.08602 -7.67344,-11.02014 0.31771,-3.42533 2.6042,-6.442 5.60916,-8.01708 0.0998,-1.69177 0.35861,-3.36828 0.72363,-5.02233 -4.98357,-1.94569 -7.72237,-8.07463 -5.76366,-13.06817 1.0768,-3.00054 3.71024,-5.2832 6.70169,-6.27128 -1.10878,-1.52758 2.66911,-0.37883 3.7176,-0.82209 10.98746,-0.28882 21.99049,-0.93721 32.97901,-0.39709 1.53682,0.0239 4.03243,0.26059 3.29016,1.63203 4.88797,1.9772 7.58804,7.98122 5.65437,12.92114 -0.81161,2.4213 -2.78044,4.17134 -4.76302,5.64445 0.38997,1.97821 0.69767,3.97383 0.79134,5.98997 3.11349,2.12102 5.01233,5.90512 4.50012,9.68764 -0.43412,5.82093 -6.76436,10.26255 -12.40362,8.68597 -3.31783,-0.7098 -5.87379,-3.30848 -7.19108,-6.34777 -4.70343,0.47442 -9.47838,0.40404 -14.17213,-0.14431 -1.54391,4.2927 -6.09805,7.37742 -10.6974,6.7291 -0.43727,-0.0333 -0.87481,-0.0808 -1.30273,-0.18004 z"
                                   id="path4826"
                                   sodipodi:nodetypes="csssscccscssssccccssscsscsssssccscsscc" /><path
                                   style="fill:#b57243;stroke-width:0.150185"
                                   d="m 120.7391,147.09729 c -5.91786,-0.89273 -10.01493,-7.64117 -7.866,-13.28201 0.8382,-2.52109 2.78251,-4.53635 5.08506,-5.79518 -0.011,-2.48695 2.01019,-5.63866 -1.44448,-6.38862 -4.93184,-3.37841 -5.64323,-11.29485 -1.17638,-15.34813 0.54995,-1.86034 5.61172,-1.74715 3.6869,-3.66848 -2.46273,-3.778593 -2.32328,-8.57195 -1.57629,-12.83745 0.14045,-2.445264 2.49756,-5.332529 2.38563,-7.107365 -4.67718,-0.02341 -7.6257,-6.113856 -4.65882,-9.751389 2.40973,-3.599312 8.41949,-3.177261 10.30836,0.733433 0.54238,2.011347 0.87676,3.261024 2.81803,1.35833 6.76548,-3.979721 15.58143,-3.994362 22.39044,-0.10938 1.76582,1.247723 2.76108,2.016499 2.88077,-0.709006 1.49158,-4.016729 7.31367,-5.071893 10.09688,-1.79061 3.05616,2.99662 1.55462,8.756275 -2.55945,9.900807 -4.0475,0.07987 0.45538,3.997604 0.39073,6.404334 1.18913,4.809706 1.36299,10.506783 -1.80152,14.624096 -2.46198,0.53137 -5.77201,-0.75091 -8.30529,0.97489 -5.4773,2.43165 -7.55037,9.98306 -4.02702,14.84658 2.63022,4.04993 8.11712,5.42867 12.49388,3.62853 1.26342,0.64036 1.43628,4.53647 1.06037,5.60165 -4.72799,-2.90856 -11.60762,-1.04338 -14.08327,3.96777 -1.32522,2.3736 -1.52163,5.24367 -0.76305,7.8303 -2.37255,1.15787 -6.02287,0.43834 -8.89877,0.62192 -2.40832,-0.10968 -5.06355,0.4626 -4.67844,-3.16262 0.4693,-4.41773 -2.75707,-8.91226 -7.0547,-10.09997 -6.27108,1.67582 -9.06949,10.14317 -5.17903,15.3174 0.28474,1.93187 5.34569,3.3765 4.56666,4.07123 -1.33368,0.27851 -2.73846,0.31876 -4.0912,0.16894 z m 6.27344,-24.65064 c 4.87848,-2.37152 6.96509,-8.88903 4.36836,-13.64778 -1.46212,-2.73563 -5.13452,-6.52924 -8.25499,-3.86367 -4.47972,2.77094 -6.06119,9.1314 -3.2505,13.61425 1.38991,2.08587 4.4749,5.60179 7.13713,3.8972 z"
                                   id="path4824"
                                   sodipodi:nodetypes="ssssccscssscsscsscssccscssccscsssc" /><path
                                   style="fill:#a06239;stroke-width:0.150185"
                                   d="m 134.35147,140.63121 c -1.98541,-0.18889 -2.28006,-0.2641 -2.19079,-0.55922 0.64127,-2.11972 0.48453,-4.91258 -0.39215,-6.98776 -1.06477,-2.52039 -3.32069,-4.60572 -6.12782,-5.66443 -0.88894,-0.33527 -1.18428,-0.36724 -3.30407,-0.35769 -2.15508,0.01 -2.39755,0.0395 -3.26654,0.40185 l -0.93865,0.39136 9e-4,-0.77731 c 9e-4,-0.7741 0.15181,-1.88794 0.45343,-3.34585 l 0.15853,-0.7663 0.85752,0.3001 c 1.31935,0.46172 4.24206,0.45078 5.66345,-0.0212 1.82559,-0.60619 3.06073,-1.34977 4.28029,-2.57681 2.01003,-2.02237 2.85625,-3.9322 2.97105,-6.70535 0.10883,-2.62914 -0.50046,-4.72014 -1.92622,-6.6105 l -0.5854,-0.77614 0.89869,0.36516 c 2.04033,0.82907 5.41863,1.46596 8.81177,1.66124 0.92643,0.0533 1.64897,0.1543 1.60563,0.22442 -0.0433,0.0701 -0.22877,0.12749 -0.41208,0.12749 -0.45736,0 -2.2964,0.90749 -3.02815,1.49427 -2.05838,1.65056 -3.73422,5.15786 -4.4528,9.31908 -0.27815,1.61079 -0.23562,5.50877 0.0751,6.88414 1.12582,4.98298 3.79819,8.73557 7.75685,10.89233 1.14567,0.62418 2.74069,1.24384 3.7698,1.46454 0.68315,0.14651 0.74114,0.1959 0.89323,0.7607 0.0894,0.3322 0.12827,0.63838 0.0863,0.68039 -0.31728,0.31728 -8.83641,0.4499 -11.65782,0.18148 z m -8.93603,-36.96169 c -0.59446,-0.23753 -1.14212,-0.30496 -2.62825,-0.32362 -1.03252,-0.013 -2.1493,0.0255 -2.48172,0.0854 l -0.60441,0.109 -0.64112,-0.94543 c -1.10987,-1.63666 -1.68668,-3.372141 -1.99121,-5.990972 -0.48106,-4.136968 0.63101,-9.367787 2.76605,-13.010693 l 0.50514,-0.861883 -1.00625,-0.158444 c -3.61654,-0.569465 -5.91676,-3.785248 -5.19242,-7.259181 0.6693,-3.209997 3.59582,-5.265983 6.84246,-4.807073 2.55514,0.361166 4.60539,2.342895 5.11764,4.946597 l 0.16962,0.862176 0.99899,-0.661971 c 2.07554,-1.375327 5.13185,-2.63017 7.80255,-3.20352 1.55931,-0.334757 6.7898,-0.603614 6.78651,-0.348841 -9e-4,0.07308 -0.64767,0.288934 -1.43718,0.47968 -10.72127,3.999521 -17.23803,12.328239 -17.23936,21.955719 0.008,2.652511 0.0449,3.064928 0.39406,4.374483 0.45759,1.716333 1.08484,3.042753 1.99732,4.223633 0.367,0.47496 0.65046,0.85713 0.62989,0.84927 -0.0206,-0.008 -0.3753,-0.14932 -0.78831,-0.31435 z m 9.70551,-5.510027 c -0.41644,-0.416447 -0.42464,-1.228003 -0.0161,-1.597696 0.1667,-0.15086 0.68103,-0.325348 1.14434,-0.38822 0.50064,-0.06794 1.12327,-0.288245 1.53698,-0.543831 l 0.69544,-0.429629 0.0422,-1.749476 0.0422,-1.749477 -0.66936,-0.296089 c 0.69888,-4.584075 4.18887,-4.512912 3.58882,-0.07478 l -0.67496,0.277574 -6.1e-4,1.757035 -6e-4,1.757036 0.48811,0.368466 c 0.48604,0.366912 1.18502,0.607251 2.24846,0.773123 0.95811,0.14944 1.30434,1.022406 0.7068,1.782058 -0.2656,0.337652 -0.42688,0.395717 -1.09913,0.395717 -0.99021,0 -2.12922,-0.333089 -2.87906,-0.841942 -0.49973,-0.339125 -0.6208,-0.366618 -0.88559,-0.201103 -1.06222,0.663979 -1.86517,0.946423 -2.87476,1.011213 -0.94773,0.06082 -1.11198,0.03135 -1.39331,-0.249979 z m 23.06838,-16.654375 c -0.99585,-1.421194 -2.7838,-3.343192 -4.11011,-4.418267 -0.97433,-0.789765 -0.9835,-0.804179 -0.90013,-1.41517 0.16224,-1.189007 0.69282,-2.290264 1.54895,-3.214984 2.32469,-2.510946 6.13393,-2.67373 8.59948,-0.367492 2.60449,2.436196 2.61624,6.402883 0.0261,8.825624 -0.85327,0.798131 -1.63731,1.223925 -2.82181,1.532446 -1.40489,0.365929 -1.43415,0.35416 -2.34251,-0.942157 z"
                                   id="path4822"
                                   sodipodi:nodetypes="scsscccsscssssscsccscscssccssccccssscscsscssccccsccccsssccccccccssssssscccsssssscc" /><path
                                   style="fill:#424044;stroke-width:0.150185"
                                   d="m 137.6803,91.221063 c -1.55121,-0.775146 -2.42009,-2.148795 -2.46276,-3.893478 -0.0246,-1.004824 0.30152,-1.693758 0.97624,-2.062507 0.70059,-0.382884 5.90798,-0.394532 6.74412,-0.01509 0.79532,0.360919 1.0781,0.877381 1.08387,1.979497 0.006,1.170531 -0.2338,1.865383 -0.96236,2.787086 -1.29618,1.639792 -3.51413,2.136432 -5.37911,1.204488 z m -9.03588,-2.554973 c 0,-1.394842 0.31192,-1.939246 1.11111,-1.939246 0.8543,0 1.14167,0.481335 1.14167,1.912259 0,0.669387 -0.042,1.326469 -0.0933,1.460184 -0.0763,0.198968 -0.26939,0.633991 -0.98809,0.673042 -1.23652,-0.222655 -1.01159,-1.342516 -1.17139,-2.106239 z m 20.47883,1.965438 c -0.58831,-0.234856 -0.8047,-0.740025 -0.80233,-1.873054 0.003,-1.209357 0.21417,-1.743175 0.76836,-1.938073 1.1061,-0.388996 1.71903,0.461144 1.59385,2.210688 -0.053,0.740405 -0.15254,1.104256 -0.35544,1.298856 -0.36723,0.352216 -0.80378,0.461526 -1.20444,0.301583 z"
                                   id="path4820"
                                   sodipodi:nodetypes="scsscssscsscccscscss" /></g></g></g></g></g></g></g></g></g></g></g></g></g></g></g></g></g></g></g></g></g></g></svg>
