<?xml version="1.0" encoding="UTF-8" standalone="no"?>
<svg
   width="64"
   height="64"
   version="1.1"
   viewBox="0 0 16.933 16.933"
   id="svg146"
   sodipodi:docname="pain_pour_hamburger.svg"
   inkscape:version="1.2 (dc2aedaf03, 2022-05-15)"
   xml:space="preserve"
   xmlns:inkscape="http://www.inkscape.org/namespaces/inkscape"
   xmlns:sodipodi="http://sodipodi.sourceforge.net/DTD/sodipodi-0.dtd"
   xmlns="http://www.w3.org/2000/svg"
   xmlns:svg="http://www.w3.org/2000/svg"><defs
     id="defs150" /><sodipodi:namedview
     id="namedview148"
     pagecolor="#ffffff"
     bordercolor="#666666"
     borderopacity="1.0"
     inkscape:pageshadow="2"
     inkscape:pageopacity="0.0"
     inkscape:pagecheckerboard="0"
     showgrid="false"
     inkscape:zoom="11.313708"
     inkscape:cx="28.240077"
     inkscape:cy="25.367456"
     inkscape:window-width="1920"
     inkscape:window-height="1017"
     inkscape:window-x="1912"
     inkscape:window-y="-8"
     inkscape:window-maximized="1"
     inkscape:current-layer="g6245"
     inkscape:showpageshadow="0"
     inkscape:deskcolor="#d1d1d1" /><g
     transform="translate(-.63104 .12621)"
     id="g144"><g
       transform="translate(.089242 .089243)"
       id="g142"><g
         transform="translate(-.063104 .94656)"
         id="g140"><g
           transform="translate(-.089243 -.80319)"
           id="g138"><g
             transform="translate(.31235 -.044621)"
             id="g136"><g
               transform="translate(-.12621 .063104)"
               id="g134"><g
                 transform="translate(-.23576 .66462)"
                 id="g132"><g
                   transform="translate(-121.98 -82.268)"
                   id="g130"><g
                     transform="matrix(.13267 0 0 .13267 114.64 78.216)"
                     id="g128"><g
                       transform="translate(.90513 5.6641)"
                       id="g126"><g
                         transform="translate(-3.3634 -8.7449)"
                         id="g124"><g
                           id="g2243"
                           transform="matrix(1.1930023,0,0,1.1930023,-33.651497,-20.118288)"><g
                             id="g2622"
                             transform="translate(-3.5913905,-3.2649007)"><g
                               id="g3762"
                               transform="translate(-4.1555401,0.11543139)"><g
                                 id="g14682"
                                 transform="translate(0.92345349,1.1543167)"><g
                                   id="g14733"
                                   transform="translate(-4.2443703,-2.6119205)"><g
                                   id="g3012"
                                   transform="translate(-1.3851797,-4.3864029)"><g
                                   id="g3323"
                                   transform="translate(-1.0388848,-3.9246767)"><g
                                   id="g3881"
                                   transform="translate(2.0685351,0.59100979)"><g
                                   id="g3984"
                                   transform="translate(3.5522119,0.20895359)"><g
                                   id="g4501"
                                   transform="translate(2.0895364,-5.0148868)"><g
                                   id="g4818"
                                   transform="translate(3.1343047,-2.0895366)"><g
                                   id="g4901"
                                   transform="translate(-1.4626755,6.0596553)"><g
                                   id="g5319"
                                   transform="translate(2.0685355,-0.88651531)"><g
                                   id="g5370"
                                   transform="translate(-2.9550503,0.7387626)"><g
                                   id="g5857"
                                   transform="translate(4.7280808,-3.1028032)"><g
                                   id="g5966"
                                   transform="translate(-1.0447681,-3.6566884)"><g
                                   id="g6021"
                                   transform="translate(4.388026,-1.6716296)"><g
                                   id="g6074"
                                   transform="translate(-1.6252781,-2.3640406)"><g
                                   id="g6128"
                                   transform="translate(-1.149245,2.1940132)"><g
                                   id="g6186"
                                   transform="translate(2.5074433,1.2537218)"><g
                                   id="g6245"
                                   transform="translate(0.41790741,4.3880263)"><path
                                   style="fill:#ff9955;stroke:none;stroke-width:1.67163px;stroke-linecap:butt;stroke-linejoin:miter;stroke-opacity:1"
                                   d="m 108.44735,89.414161 c 0,0 2.92536,-15.044662 23.9252,-13.47751 20.99984,1.567153 20.58193,13.999894 20.58193,13.999894 0.20895,7.417854 -5.95518,17.238675 -22.04461,16.611815 -16.08943,-0.62686 -23.08938,-8.776054 -22.46252,-17.134199 z"
                                   id="path7694"
                                   sodipodi:nodetypes="cscsc" /><path
                                   style="fill:#ff9955;stroke:none;stroke-width:1.67163px;stroke-linecap:butt;stroke-linejoin:miter;stroke-opacity:1"
                                   d="m 108.98645,124.19565 c 0,0 2.92536,-15.04466 23.9252,-13.47751 20.99984,1.56716 20.58193,13.9999 20.58193,13.9999 0.20895,7.41785 -5.95518,17.23867 -22.04461,16.61181 -16.08943,-0.62686 -23.08938,-8.77605 -22.46252,-17.1342 z"
                                   id="path7694-3"
                                   sodipodi:nodetypes="cscsc" /><path
                                   style="fill:#f4eed7;stroke:none;stroke-width:1.67163px;stroke-linecap:butt;stroke-linejoin:miter;stroke-opacity:1"
                                   d="m 108.88198,120.74792 c 0,0 2.92536,-15.04467 23.9252,-13.47751 20.99984,1.56716 20.58193,13.9999 20.58193,13.9999 0.20895,7.41785 -5.95518,17.23867 -22.04461,16.61181 -16.08943,-0.62686 -23.08938,-8.77605 -22.46252,-17.1342 z"
                                   id="path7694-3-9"
                                   sodipodi:nodetypes="cscsc" /><path
                                   style="fill:#fff6d5;stroke:none;stroke-width:1.08295px;stroke-linecap:butt;stroke-linejoin:miter;stroke-opacity:1"
                                   d="m 118.61797,89.296932 c -0.18471,-0.02849 -0.61694,0.552777 -0.64326,0.833932 -0.12693,0.195113 -0.13838,0.907156 0.14487,0.960145 0.28325,0.05299 0.59022,-0.585573 0.68028,-0.772419 0.0612,-0.246316 -0.0279,-0.974659 -0.18189,-1.021658 z"
                                   id="path7696"
                                   sodipodi:nodetypes="ccscc" /><path
                                   style="fill:#fff6d5;stroke:none;stroke-width:1.08295px;stroke-linecap:butt;stroke-linejoin:miter;stroke-opacity:1"
                                   d="m 121.74539,93.211969 c -0.18471,-0.02849 -0.61694,0.552777 -0.64326,0.833932 -0.12693,0.195113 -0.13838,0.907156 0.14487,0.960145 0.28325,0.05299 0.59022,-0.585573 0.68028,-0.772419 0.0612,-0.246316 -0.0279,-0.974659 -0.18189,-1.021658 z"
                                   id="path7696-3"
                                   sodipodi:nodetypes="ccscc" /><path
                                   style="fill:#fff6d5;stroke:none;stroke-width:1.08295px;stroke-linecap:butt;stroke-linejoin:miter;stroke-opacity:1"
                                   d="m 127.61855,83.09092 c -0.18471,-0.02849 -0.61694,0.552777 -0.64326,0.833932 -0.12693,0.195113 -0.13838,0.907156 0.14487,0.960145 0.28325,0.05299 0.59022,-0.585573 0.68028,-0.772419 0.0612,-0.246316 -0.0279,-0.974659 -0.18189,-1.021658 z"
                                   id="path7696-4"
                                   sodipodi:nodetypes="ccscc" /><path
                                   style="fill:#fff6d5;stroke:none;stroke-width:1.08295px;stroke-linecap:butt;stroke-linejoin:miter;stroke-opacity:1"
                                   d="m 140.21446,85.418023 c -0.18471,-0.02849 -0.61694,0.552777 -0.64326,0.833932 -0.12693,0.195113 -0.13838,0.907156 0.14487,0.960145 0.28325,0.05299 0.59022,-0.585573 0.68028,-0.772419 0.0612,-0.246316 -0.0279,-0.974659 -0.18189,-1.021658 z"
                                   id="path7696-47"
                                   sodipodi:nodetypes="ccscc" /><path
                                   style="fill:#fff6d5;stroke:none;stroke-width:1.08295px;stroke-linecap:butt;stroke-linejoin:miter;stroke-opacity:1"
                                   d="m 145.34886,93.507474 c -0.18471,-0.02849 -0.61694,0.552777 -0.64326,0.833932 -0.12693,0.195113 -0.13838,0.907156 0.14487,0.960145 0.28325,0.05299 0.59022,-0.585573 0.68028,-0.772419 0.0612,-0.246316 -0.0279,-0.974659 -0.18189,-1.021658 z"
                                   id="path7696-41"
                                   sodipodi:nodetypes="ccscc" /><path
                                   style="fill:#fff6d5;stroke:none;stroke-width:1.08295px;stroke-linecap:butt;stroke-linejoin:miter;stroke-opacity:1"
                                   d="m 129.53934,96.35171 c -0.18471,-0.02849 -0.61694,0.552777 -0.64326,0.833932 -0.12693,0.195113 -0.13838,0.907156 0.14487,0.960145 0.28325,0.05299 0.59022,-0.585573 0.68028,-0.772419 0.0612,-0.246316 -0.0279,-0.974659 -0.18189,-1.021658 z"
                                   id="path7696-0"
                                   sodipodi:nodetypes="ccscc" /><path
                                   style="fill:#fff6d5;stroke:none;stroke-width:1.08295px;stroke-linecap:butt;stroke-linejoin:miter;stroke-opacity:1"
                                   d="m 142.61544,96.721092 c -0.18471,-0.02849 -0.61694,0.552777 -0.64326,0.833932 -0.12693,0.195113 -0.13838,0.907156 0.14487,0.960145 0.28325,0.05299 0.59022,-0.585573 0.68028,-0.772419 0.0612,-0.246316 -0.0279,-0.974659 -0.18189,-1.021658 z"
                                   id="path7696-416"
                                   sodipodi:nodetypes="ccscc" /><path
                                   style="fill:#fff6d5;stroke:none;stroke-width:1.08295px;stroke-linecap:butt;stroke-linejoin:miter;stroke-opacity:1"
                                   d="m 131.51568,88.978524 c -0.16675,0.08442 -0.17957,0.808661 -0.0372,1.05254 0.0105,0.232532 0.41584,0.81802 0.67695,0.696128 0.26112,-0.12189 0.13875,-0.819758 0.10314,-1.024096 -0.0937,-0.235874 -0.59032,-0.776051 -0.74287,-0.724572 z"
                                   id="path7696-6"
                                   sodipodi:nodetypes="ccscc" /><path
                                   style="fill:#fff6d5;stroke:none;stroke-width:1.08295px;stroke-linecap:butt;stroke-linejoin:miter;stroke-opacity:1"
                                   d="m 133.33754,81.335111 c -0.16675,0.08442 -0.17957,0.808661 -0.0372,1.05254 0.0105,0.232532 0.41584,0.81802 0.67695,0.696128 0.26112,-0.12189 0.13875,-0.819758 0.10314,-1.024096 -0.0937,-0.235874 -0.59032,-0.776051 -0.74287,-0.724572 z"
                                   id="path7696-6-4"
                                   sodipodi:nodetypes="ccscc" /><path
                                   style="fill:#fff6d5;stroke:none;stroke-width:1.08295px;stroke-linecap:butt;stroke-linejoin:miter;stroke-opacity:1"
                                   d="m 147.37403,82.14775 c -0.16675,0.08442 -0.17957,0.808661 -0.0372,1.05254 0.0105,0.232532 0.41584,0.81802 0.67695,0.696128 0.26112,-0.12189 0.13875,-0.819758 0.10314,-1.024096 -0.0937,-0.235874 -0.59032,-0.776051 -0.74287,-0.724572 z"
                                   id="path7696-6-0"
                                   sodipodi:nodetypes="ccscc" /><path
                                   style="fill:#fff6d5;stroke:none;stroke-width:1.08295px;stroke-linecap:butt;stroke-linejoin:miter;stroke-opacity:1"
                                   d="m 148.59299,87.023583 c -0.16675,0.08442 -0.17957,0.808661 -0.0372,1.05254 0.0105,0.232532 0.41584,0.81802 0.67695,0.696128 0.26112,-0.12189 0.13875,-0.819758 0.10314,-1.024096 -0.0937,-0.235874 -0.59032,-0.776051 -0.74287,-0.724572 z"
                                   id="path7696-6-7"
                                   sodipodi:nodetypes="ccscc" /><path
                                   style="fill:#fff6d5;stroke:none;stroke-width:1.08295px;stroke-linecap:butt;stroke-linejoin:miter;stroke-opacity:1"
                                   d="m 137.17911,91.64085 c -0.16675,0.08442 -0.17957,0.808661 -0.0372,1.05254 0.0105,0.232532 0.41584,0.81802 0.67695,0.696128 0.26112,-0.12189 0.13875,-0.819758 0.10314,-1.024096 -0.0937,-0.235874 -0.59032,-0.776051 -0.74287,-0.724572 z"
                                   id="path7696-6-40"
                                   sodipodi:nodetypes="ccscc" /><path
                                   style="fill:#fff6d5;stroke:none;stroke-width:1.08295px;stroke-linecap:butt;stroke-linejoin:miter;stroke-opacity:1"
                                   d="m 124.76789,92.712056 c -0.16675,0.08442 -0.17957,0.808661 -0.0372,1.05254 0.0105,0.232532 0.41584,0.81802 0.67695,0.696128 0.26112,-0.12189 0.13875,-0.819758 0.10314,-1.024096 -0.0937,-0.235874 -0.59032,-0.776051 -0.74287,-0.724572 z"
                                   id="path7696-6-3"
                                   sodipodi:nodetypes="ccscc" /><path
                                   style="fill:#fff6d5;stroke:none;stroke-width:1.08295px;stroke-linecap:butt;stroke-linejoin:miter;stroke-opacity:1"
                                   d="m 121.0002,98.659095 c -0.16675,0.08442 -0.17957,0.808661 -0.0372,1.05254 0.0105,0.232532 0.41584,0.818015 0.67695,0.696125 0.26112,-0.12189 0.13875,-0.819755 0.10314,-1.024093 -0.0937,-0.235874 -0.59032,-0.776051 -0.74287,-0.724572 z"
                                   id="path7696-6-5"
                                   sodipodi:nodetypes="ccscc" /><path
                                   style="fill:#fff6d5;stroke:none;stroke-width:1.08295px;stroke-linecap:butt;stroke-linejoin:miter;stroke-opacity:1"
                                   d="m 111.72873,87.983975 c -0.16675,0.08442 -0.17957,0.808661 -0.0372,1.05254 0.0105,0.232532 0.41584,0.81802 0.67695,0.696128 0.26112,-0.12189 0.13875,-0.819758 0.10314,-1.024096 -0.0937,-0.235874 -0.59032,-0.776051 -0.74287,-0.724572 z"
                                   id="path7696-6-52"
                                   sodipodi:nodetypes="ccscc" /><path
                                   style="fill:#fff6d5;stroke:none;stroke-width:1.08295px;stroke-linecap:butt;stroke-linejoin:miter;stroke-opacity:1"
                                   d="m 118.59922,81.002667 c -0.16675,0.08442 -0.17957,0.808661 -0.0372,1.05254 0.0105,0.232532 0.41584,0.81802 0.67695,0.696128 0.26112,-0.12189 0.13875,-0.819758 0.10314,-1.024096 -0.0937,-0.235874 -0.59032,-0.776051 -0.74287,-0.724572 z"
                                   id="path7696-6-02"
                                   sodipodi:nodetypes="ccscc" /><path
                                   style="fill:#fff6d5;stroke:none;stroke-width:1.08295px;stroke-linecap:butt;stroke-linejoin:miter;stroke-opacity:1"
                                   d="m 123.95525,87.023583 c -0.16675,0.08442 -0.17957,0.808661 -0.0372,1.05254 0.0105,0.232532 0.41584,0.81802 0.67695,0.696128 0.26112,-0.12189 0.13875,-0.819758 0.10314,-1.024096 -0.0937,-0.235874 -0.59032,-0.776051 -0.74287,-0.724572 z"
                                   id="path7696-6-46"
                                   sodipodi:nodetypes="ccscc" /></g></g></g></g></g></g></g></g></g></g></g></g></g></g></g></g></g></g></g></g></g></g></g></g></g></g></g></g></g></g></g></g></svg>
