<?xml version="1.0" encoding="UTF-8" standalone="no"?>
<svg
   width="64"
   height="64"
   version="1.1"
   viewBox="0 0 16.933 16.933"
   id="svg146"
   sodipodi:docname="pain_a_hot_dog.svg"
   inkscape:version="1.2 (dc2aedaf03, 2022-05-15)"
   xml:space="preserve"
   xmlns:inkscape="http://www.inkscape.org/namespaces/inkscape"
   xmlns:sodipodi="http://sodipodi.sourceforge.net/DTD/sodipodi-0.dtd"
   xmlns="http://www.w3.org/2000/svg"
   xmlns:svg="http://www.w3.org/2000/svg"><defs
     id="defs150" /><sodipodi:namedview
     id="namedview148"
     pagecolor="#ffffff"
     bordercolor="#666666"
     borderopacity="1.0"
     inkscape:pageshadow="2"
     inkscape:pageopacity="0.0"
     inkscape:pagecheckerboard="0"
     showgrid="false"
     inkscape:zoom="22.627417"
     inkscape:cx="25.080194"
     inkscape:cy="36.150834"
     inkscape:window-width="1920"
     inkscape:window-height="1017"
     inkscape:window-x="1912"
     inkscape:window-y="-8"
     inkscape:window-maximized="1"
     inkscape:current-layer="g5319"
     inkscape:showpageshadow="0"
     inkscape:deskcolor="#d1d1d1" /><g
     transform="translate(-.63104 .12621)"
     id="g144"><g
       transform="translate(.089242 .089243)"
       id="g142"><g
         transform="translate(-.063104 .94656)"
         id="g140"><g
           transform="translate(-.089243 -.80319)"
           id="g138"><g
             transform="translate(.31235 -.044621)"
             id="g136"><g
               transform="translate(-.12621 .063104)"
               id="g134"><g
                 transform="translate(-.23576 .66462)"
                 id="g132"><g
                   transform="translate(-121.98 -82.268)"
                   id="g130"><g
                     transform="matrix(.13267 0 0 .13267 114.64 78.216)"
                     id="g128"><g
                       transform="translate(.90513 5.6641)"
                       id="g126"><g
                         transform="translate(-3.3634 -8.7449)"
                         id="g124"><g
                           id="g2243"
                           transform="matrix(1.1930023,0,0,1.1930023,-33.651497,-20.118288)"><g
                             id="g2622"
                             transform="translate(-3.5913905,-3.2649007)"><g
                               id="g3762"
                               transform="translate(-4.1555401,0.11543139)"><g
                                 id="g14682"
                                 transform="translate(0.92345349,1.1543167)"><g
                                   id="g14733"
                                   transform="translate(-4.2443703,-2.6119205)"><g
                                   id="g3012"
                                   transform="translate(-1.3851797,-4.3864029)"><g
                                   id="g3323"
                                   transform="translate(-1.0388848,-3.9246767)"><g
                                   id="g3881"
                                   transform="translate(2.0685351,0.59100979)"><g
                                   id="g3984"
                                   transform="translate(3.5522119,0.20895359)"><g
                                   id="g4501"
                                   transform="translate(2.0895364,-5.0148868)"><g
                                   id="g4818"
                                   transform="translate(3.1343047,-2.0895366)"><g
                                   id="g4901"
                                   transform="translate(-1.4626755,6.0596553)"><g
                                   id="g5319"
                                   transform="translate(2.0685355,-0.88651531)"><path
                                   style="fill:#e7aa52;stroke-width:0.132665"
                                   d="m 114.46729,135.23899 c -3.87663,-1.03201 -2.26967,-5.54757 -3.65509,-8.3451 -1.02728,-3.67372 -4.64995,-5.43643 -7.68778,-7.16767 -3.761197,-2.3006 -1.96326,-7.41502 0.60651,-9.90043 2.78289,-1.99949 5.42199,-3.90377 6.97284,-7.08911 2.52126,-3.105534 7.10993,-3.031813 9.30955,-6.545437 2.9705,-2.747819 6.74801,-4.284068 10.23888,-6.201853 3.93757,-3.447836 8.99345,-5.141988 13.84314,-6.770756 4.37499,-4.150653 11.24495,-6.376765 16.92006,-3.586973 2.41412,1.086412 5.04047,2.297283 6.2721,4.793276 2.07052,3.242777 4.5547,6.163854 7.20569,8.939857 0.9469,3.256472 1.93569,7.083726 -0.31098,10.059956 -2.33827,3.13606 -5.55846,5.17521 -7.59554,8.60169 -2.36831,2.89906 -6.43155,3.00722 -8.51234,6.19757 -3.01291,2.66316 -7.0117,3.88784 -10.96803,4.14187 -1.63702,4.3131 -6.60556,5.73516 -10.78279,6.19992 -3.17856,1.61887 -6.39543,3.68164 -10.15312,3.59235 -1.70791,-0.31554 -3.0415,0.39979 -4.32734,1.47125 -2.19425,1.26955 -4.81662,2.35494 -7.37576,1.60959 z"
                                   id="path5327"
                                   sodipodi:nodetypes="csscccssscssssscsssssccssscsssssscsssssscsscc" /><path
                                   style="fill:#e4a03a;stroke-width:0.132665"
                                   d="m 114.82872,135.28212 c -1.85684,-0.49954 -3.55535,-1.99851 -3.06083,-4.02236 -1.02712,-3.00148 -0.16704,-7.26623 -3.37164,-9.06237 -2.76431,-1.66107 -7.53922,-2.26226 -7.39931,-6.45224 -0.0158,-3.75823 4.61809,0.58625 6.6855,0.22432 2.54729,0.58777 9.07882,1.8996 7.83654,-2.69867 -0.25928,-2.34999 -4.01162,-8.01186 0.56204,-7.80062 4.28988,0.97 7.8098,4.15387 12.17221,4.91338 4.32666,0.0625 2.70534,-5.31863 1.60501,-7.76053 -0.64122,-2.29411 -3.88053,-7.544779 0.32581,-7.972329 4.23039,-0.218564 7.74455,2.911819 11.85852,3.259083 3.27174,-1.745853 -0.95722,-6.052936 -0.29609,-8.931095 2.3958,-2.000147 5.31653,2.118689 7.89023,2.572813 4.26032,0.790334 1.60727,-5.530201 2.07029,-7.907351 -0.11536,-4.08582 5.10693,-3.237398 7.79653,-2.89143 2.76313,0.524301 6.4014,0.389344 7.66178,3.487251 2.23416,3.471962 5.74962,6.094695 7.46437,9.867109 1.02222,3.22372 1.4575,7.084769 -0.86292,9.878209 -1.44249,2.41333 -4.40425,3.25915 -5.47647,5.94316 -1.84992,3.7462 -6.27898,4.31667 -8.8546,6.95131 -3.14899,3.46216 -7.79666,5.19675 -12.40276,5.40605 -1.45422,4.30678 -6.51083,5.76714 -10.58941,6.16851 -3.31058,1.70906 -6.71451,3.81698 -10.63811,3.65462 -1.39314,-0.21205 -2.54201,0.33825 -3.59296,1.218 -2.15056,1.33384 -4.80557,2.52279 -7.38373,1.95518 z"
                                   id="path5325"
                                   sodipodi:nodetypes="sscsccsscsssssssscsssssccssscscssssssccsscscsssccssccccssss" /><path
                                   style="fill:#d49535;stroke-width:0.132665"
                                   d="m 120.22168,133.66188 c 2.35404,-5.04917 0.98572,-10.97394 -1.53335,-15.68924 -0.19057,-1.03117 1.49924,3.16418 2.19221,4.2428 1.49319,2.33676 2.95915,5.20398 5.70262,6.19757 3.26628,-0.018 5.99684,-3.83205 4.96867,-6.9977 -0.0152,-1.40299 -3.33588,-6.34226 -0.0257,-3.72813 2.78056,1.93396 5.52564,4.59263 9.07876,4.7697 3.92549,-0.82775 3.40513,-6.0854 2.32958,-8.97032 -1.31302,-3.56699 -3.79502,-6.51451 -5.63917,-9.79423 2.12098,-0.20972 4.56326,3.23183 6.63496,4.63453 2.82643,2.27242 6.12147,5.29578 10.03517,4.44018 2.8915,-0.67436 3.84064,-4.08441 2.88986,-6.61658 -0.50221,-2.76631 -2.67132,-5.23678 -2.8813,-7.916572 2.49351,1.358563 3.3809,4.763592 5.56306,6.672392 2.04081,3.2731 5.72317,0.57956 4.56179,-2.6091 -0.85104,-5.392049 -3.02816,-10.638527 -6.28612,-15.02378 4.44091,3.355622 8.78685,7.056107 13.96142,9.226721 4.35721,1.30204 1.84967,-4.447535 -0.16041,-5.735087 -1.50927,-2.098261 -3.92653,-4.596017 -4.66033,-6.578289 2.84359,2.878231 5.56184,6.031978 7.56126,9.547868 1.09343,3.325554 1.66382,7.340177 -0.74801,10.250677 -1.44249,2.41333 -4.40425,3.25915 -5.47647,5.94316 -1.85075,2.55827 -4.39916,4.81882 -7.56395,5.486 -3.19811,4.27614 -8.40485,6.69665 -13.69341,6.87136 -1.45233,4.30397 -6.51217,5.76995 -10.58941,6.16851 -3.31058,1.70906 -6.71451,3.81698 -10.63811,3.65462 -1.10006,-0.0553 -2.17017,-0.0157 -2.98834,0.82107 -0.52814,0.19806 -3.88272,2.85563 -2.59529,0.73187 z m -16.47181,-13.60136 c 3.11427,1.22675 5.98547,3.39305 7.05579,6.69417 0.74437,1.22752 1.08155,5.61003 0.30093,1.98615 -0.71549,-3.09774 -2.37934,-6.29677 -5.59906,-7.36062 -0.66238,-0.31968 -1.3092,-0.72233 -1.75766,-1.3197 z"
                                   id="path5323"
                                   sodipodi:nodetypes="scsssssssssssscscssssssssssssssscccsscscsssccssccccsssscscscc" /></g></g></g></g></g></g></g></g></g></g></g></g></g></g></g></g></g></g></g></g></g></g></g></g></svg>
