<?xml version="1.0" encoding="UTF-8" standalone="no"?>
<svg
   width="64"
   height="64"
   version="1.1"
   viewBox="0 0 16.933 16.933"
   id="svg146"
   sodipodi:docname="pain_a_panini.svg"
   inkscape:version="1.2 (dc2aedaf03, 2022-05-15)"
   xml:space="preserve"
   xmlns:inkscape="http://www.inkscape.org/namespaces/inkscape"
   xmlns:sodipodi="http://sodipodi.sourceforge.net/DTD/sodipodi-0.dtd"
   xmlns="http://www.w3.org/2000/svg"
   xmlns:svg="http://www.w3.org/2000/svg"><defs
     id="defs150" /><sodipodi:namedview
     id="namedview148"
     pagecolor="#ffffff"
     bordercolor="#666666"
     borderopacity="1.0"
     inkscape:pageshadow="2"
     inkscape:pageopacity="0.0"
     inkscape:pagecheckerboard="0"
     showgrid="false"
     inkscape:zoom="8"
     inkscape:cx="-1.5625"
     inkscape:cy="39.75"
     inkscape:window-width="1920"
     inkscape:window-height="1017"
     inkscape:window-x="1912"
     inkscape:window-y="-8"
     inkscape:window-maximized="1"
     inkscape:current-layer="g5370"
     inkscape:showpageshadow="0"
     inkscape:deskcolor="#d1d1d1" /><g
     transform="translate(-.63104 .12621)"
     id="g144"><g
       transform="translate(.089242 .089243)"
       id="g142"><g
         transform="translate(-.063104 .94656)"
         id="g140"><g
           transform="translate(-.089243 -.80319)"
           id="g138"><g
             transform="translate(.31235 -.044621)"
             id="g136"><g
               transform="translate(-.12621 .063104)"
               id="g134"><g
                 transform="translate(-.23576 .66462)"
                 id="g132"><g
                   transform="translate(-121.98 -82.268)"
                   id="g130"><g
                     transform="matrix(.13267 0 0 .13267 114.64 78.216)"
                     id="g128"><g
                       transform="translate(.90513 5.6641)"
                       id="g126"><g
                         transform="translate(-3.3634 -8.7449)"
                         id="g124"><g
                           id="g2243"
                           transform="matrix(1.1930023,0,0,1.1930023,-33.651497,-20.118288)"><g
                             id="g2622"
                             transform="translate(-3.5913905,-3.2649007)"><g
                               id="g3762"
                               transform="translate(-4.1555401,0.11543139)"><g
                                 id="g14682"
                                 transform="translate(0.92345349,1.1543167)"><g
                                   id="g14733"
                                   transform="translate(-4.2443703,-2.6119205)"><g
                                   id="g3012"
                                   transform="translate(-1.3851797,-4.3864029)"><g
                                   id="g3323"
                                   transform="translate(-1.0388848,-3.9246767)"><g
                                   id="g3881"
                                   transform="translate(2.0685351,0.59100979)"><g
                                   id="g3984"
                                   transform="translate(3.5522119,0.20895359)"><g
                                   id="g4501"
                                   transform="translate(2.0895364,-5.0148868)"><g
                                   id="g4818"
                                   transform="translate(3.1343047,-2.0895366)"><g
                                   id="g4901"
                                   transform="translate(-1.4626755,6.0596553)"><g
                                   id="g5319"
                                   transform="translate(2.0685355,-0.88651531)"><g
                                   id="g5370"
                                   transform="translate(-2.9550503,0.7387626)"><path
                                   style="fill:#dca368;stroke-width:0.101756"
                                   d="m 129.76543,142.65182 c -1.41378,0.93258 -3.31874,0.93433 -5.13216,0.005 -5.62298,-3.89859 -8.03948,-5.88071 -14.68741,-10.91311 l -0.48004,-0.71618 c -0.95737,-1.42831 -1.25901,-3.01666 -0.81114,-4.27132 0.21409,-0.59978 0.75999,-1.33378 22.62274,-30.417896 l 22.40336,-29.803291 c 1.34736,0.794169 1.31712,0.519694 1.84796,0.54816 9.88109,3.065331 14.38167,11.570117 17.70975,14.153549 l 1.83425,1.378823 -22.4888,29.909525 c -18.34421,24.39733 -22.54957,29.94961 -22.81855,30.12704 z"
                                   id="path5376"
                                   sodipodi:nodetypes="cccsssccccscc" /><path
                                   style="fill:#3d2313;stroke-width:0.101756"
                                   d="m 138.24053,128.04478 c -0.99122,-3.6e-4 -1.75298,-1.17831 -2.65094,-1.65731 -5.03086,-3.82329 -10.15624,-7.52749 -15.10087,-11.46017 -0.42971,-1.97808 1.79137,-0.77199 2.47167,0.0572 5.26849,3.96036 10.53697,7.92072 15.80546,11.88109 0.11554,0.47776 0.088,1.07526 -0.52532,1.17914 z m 4.60591,-5.99335 c -2.48271,-0.89396 -4.46253,-3.08183 -6.70286,-4.54097 -3.70024,-2.83254 -7.50769,-5.53158 -11.12259,-8.47195 -0.19408,-2.9046 3.35031,0.88852 4.51994,1.52626 4.56549,3.45128 9.22785,6.78358 13.68754,10.36914 0.22178,0.38232 0.0616,0.97643 -0.38203,1.11752 z m 4.33998,-5.97209 c -0.97845,-0.0116 -1.66828,-1.14476 -2.53445,-1.59267 -5.05567,-3.84224 -10.20622,-7.56496 -15.17576,-11.51646 0.15913,-2.83827 3.69907,1.38797 5.00851,1.96717 4.44599,3.33642 8.88746,6.67885 13.33125,10.01819 0.0541,0.47179 -0.0268,1.08962 -0.62955,1.12377 z m 4.56665,-6.01036 c -0.99122,-3.6e-4 -1.75298,-1.17831 -2.65094,-1.65731 -5.10272,-3.83574 -10.20544,-7.67149 -15.30815,-11.507246 1.00618,-2.749783 4.12953,1.881925 5.76228,2.424164 4.24204,3.185182 8.48121,6.374172 12.72186,9.561202 0.11571,0.47786 0.0875,1.07538 -0.52505,1.17919 z m 4.49033,-5.94623 c -0.97563,-0.0542 -1.73578,-1.1813 -2.62535,-1.66401 -5.06138,-3.785308 -10.12276,-7.570617 -15.18414,-11.355927 -0.46148,-1.778457 1.52745,-1.322311 2.19731,-0.330845 5.34667,4.034161 10.78503,7.952597 16.03228,12.114102 0.36349,0.41626 0.13286,1.13735 -0.4201,1.23668 z m 4.45556,-6.019196 c -0.97845,-0.01156 -1.66828,-1.144762 -2.53445,-1.592667 -5.05567,-3.842249 -10.20623,-7.564966 -15.17576,-11.516476 0.15913,-2.838259 3.69906,1.387992 5.00851,1.967192 4.44599,3.336405 8.88746,6.678842 13.33125,10.018181 0.0541,0.471792 -0.0268,1.08962 -0.62955,1.12377 z m -27.62222,35.178666 c -2.62959,-0.58892 -4.75925,-3.31755 -7.16754,-4.75159 -3.04721,-2.42099 -6.40972,-4.53124 -9.22587,-7.18956 0.35468,-1.90297 1.84902,-0.23594 2.66049,0.34502 4.6883,3.52422 9.3766,7.04845 14.06489,10.57268 0.003,0.36144 0.0734,0.82987 -0.33197,1.02345 z m 31.42178,-41.875787 c -2.4218,-0.90126 -4.51809,-3.215848 -6.79983,-4.670199 -3.16737,-2.376267 -6.33152,-4.756838 -9.49745,-7.135041 0.0581,-1.886532 1.81305,-0.777325 2.54213,0.0016 4.65353,3.533996 9.38826,6.96496 13.96481,10.597343 0.46685,0.293952 0.19174,1.011748 -0.20966,1.20625 z m -37.38266,47.139177 c -0.97845,-0.0116 -1.66828,-1.14476 -2.53445,-1.59267 -3.7109,-2.83086 -7.51765,-5.54268 -11.14067,-8.48366 0.23943,-2.94341 3.60548,1.17563 4.94328,1.78946 3.12104,2.34381 6.24024,4.69006 9.36039,7.03506 0.13611,0.52156 0.0348,1.18383 -0.62855,1.25181 z m 40.57971,-53.91869 c -0.99123,-3.72e-4 -1.75299,-1.17832 -2.65095,-1.65732 -3.68619,-2.81178 -7.46756,-5.505328 -11.06578,-8.427367 0.15539,-2.900246 3.52908,1.27985 4.83355,1.834354 3.18582,2.392362 6.36969,4.78731 9.55456,7.180931 0.0393,0.46564 -0.16526,0.964597 -0.67138,1.069402 z"
                                   id="path5372" /></g></g></g></g></g></g></g></g></g></g></g></g></g></g></g></g></g></g></g></g></g></g></g></g></g></svg>
