<?xml version="1.0" encoding="UTF-8" standalone="no"?>
<!-- Created with Inkscape (http://www.inkscape.org/) -->

<svg
   width="64"
   height="64"
   viewBox="0 0 16.933333 16.933334"
   version="1.1"
   id="svg5"
   inkscape:version="1.2 (dc2aedaf03, 2022-05-15)"
   sodipodi:docname="passe_pierre.svg"
   xmlns:inkscape="http://www.inkscape.org/namespaces/inkscape"
   xmlns:sodipodi="http://sodipodi.sourceforge.net/DTD/sodipodi-0.dtd"
   xmlns="http://www.w3.org/2000/svg"
   xmlns:svg="http://www.w3.org/2000/svg">
  <sodipodi:namedview
     id="namedview7"
     pagecolor="#ffffff"
     bordercolor="#666666"
     borderopacity="1.0"
     inkscape:pageshadow="2"
     inkscape:pageopacity="0.0"
     inkscape:pagecheckerboard="0"
     inkscape:document-units="mm"
     showgrid="false"
     units="px"
     inkscape:zoom="11.313708"
     inkscape:cx="34.692426"
     inkscape:cy="35.001786"
     inkscape:window-width="1920"
     inkscape:window-height="1017"
     inkscape:window-x="1912"
     inkscape:window-y="-8"
     inkscape:window-maximized="1"
     inkscape:current-layer="g165"
     inkscape:showpageshadow="2"
     inkscape:deskcolor="#d1d1d1" />
  <defs
     id="defs2" />
  <g
     inkscape:label="Calque 1"
     inkscape:groupmode="layer"
     id="layer1">
    <g
       id="g4128"
       transform="translate(-0.63104184,0.12620835)">
      <g
         id="g5578"
         transform="translate(0.08924235,0.08924306)">
        <g
           id="g7501"
           transform="translate(-0.06310417,0.94656242)">
          <g
             id="g9467"
             transform="translate(-0.08924275,-0.80318511)">
            <g
               id="g10302"
               transform="translate(0.31234979,-0.04462139)">
              <g
                 id="g11479"
                 transform="translate(-0.12620833,0.06310418)">
                <g
                   id="g11873"
                   transform="translate(-0.23575769,0.66462456)">
                  <g
                     id="g12382"
                     transform="translate(-121.98459,-82.267525)">
                    <g
                       id="g13305"
                       transform="matrix(0.13266609,0,0,0.13266609,114.63867,78.215696)">
                      <g
                         id="g17429"
                         transform="translate(0.90513437,5.6640979)">
                        <g
                           id="g18595"
                           transform="translate(-3.3634362,-8.7449387)">
                          <g
                             id="g21002"
                             transform="translate(1.7082278,-2.8204445)">
                            <g
                               id="g23814"
                               transform="translate(8.7253043,-1.1218249)">
                              <g
                                 id="g24838"
                                 transform="translate(11.143454,-0.85716864)">
                                <g
                                   id="g25315"
                                   transform="translate(-3.490122,2.4929446)">
                                <g
                                   id="g27220"
                                   transform="translate(2.4678888,1.2339445)">
                                <g
                                   id="g29753"
                                   transform="translate(1.4759287,-2.3737724)">
                                <g
                                   id="g30615"
                                   transform="translate(0.92006037,1.3687834)">
                                <g
                                   id="g31433"
                                   transform="translate(-2.4678886,-1.410222)">
                                <g
                                   id="g31731"
                                   transform="translate(1.0576664,-0.70511063)">
                                <g
                                   id="g33243"
                                   transform="matrix(1.0772948,0,0,1.0772948,-7.3729128,-3.1743014)">
                                <g
                                   id="g35254"
                                   transform="translate(-2.2135012,-0.92031205)">
                                <g
                                   id="g36749"
                                   transform="translate(-0.98178042,-2.7817105)">
                                <g
                                   id="g37297"
                                   transform="translate(-6.7755742,-3.5033798)">
                                <g
                                   id="g165"
                                   transform="translate(2.0654893,3.4926907)">
                                <path
                                   style="fill:#e3f4d7;stroke-width:0.0674607"
                                   d="m 120.43571,132.90181 c -3.5928,0.0119 -6.82558,-1.66372 -9.63322,-3.44425 -4.58902,-1.35127 -9.33135,-1.88512 -14.095531,-2.07205 -6.764882,-0.4851 -12.841606,-3.69342 -18.967605,-6.26904 -1.907792,-0.14807 -5.416322,-0.73606 -1.733399,-1.70601 2.646915,-1.2148 5.252943,-2.49538 7.882925,-3.24533 9.089405,-3.05938 18.66468,-4.35621 28.1613,-5.49049 0.608,-4.29919 0.55593,-8.94043 1.54496,-13.288199 1.2827,-4.843849 2.32224,-9.756956 2.35559,-14.790319 0.38067,-6.869426 3.36457,-13.158677 6.20039,-19.296452 0.44711,-1.751098 0.63363,-6.234961 1.82974,-2.386273 6.32621,12.730207 7.68533,27.319436 9.38031,41.310813 0.42481,2.5408 -0.16058,6.57309 3.79064,4.86254 3.19372,0.24896 8.21687,-1.18224 9.19576,3.026 1.83611,6.1624 2.51034,13.12675 0.0896,19.22258 -0.55828,2.1074 -2.56561,2.34075 -4.36111,2.12729 -3.17541,0.0893 -6.39823,-0.13749 -9.54366,0.1516 -3.91164,1.14865 -8.03789,1.46231 -12.09665,1.28759 z M 76.742251,118.21942 c 0.296316,-0.0962 0.02821,0.1287 0,0 z m 5.458977,-1.71627 c 0.367901,-0.21323 -0.174635,0.22405 0,0 z M 125.55995,62.403548 c -0.0881,-0.336255 0.30464,0.288192 0,0 z"
                                   id="path175" />
                                <path
                                   style="fill:#e3f4d7;stroke-width:0.0674607"
                                   d="m 121.04285,132.93079 c -1.32122,-0.07 -3.31639,-0.35667 -4.4524,-0.6398 -2.22996,-0.55577 -4.03832,-1.52678 -4.42534,-2.37619 -0.0602,-0.13203 -0.39339,-0.22824 -2.91458,-0.8415 -4.52378,-1.10035 -5.62702,-1.28272 -8.64827,-1.42958 -4.893284,-0.23786 -7.314374,-0.60771 -10.813126,-1.6518 -1.626231,-0.4853 -4.108092,-1.39834 -5.512365,-2.0279 -0.222621,-0.0998 -0.479592,-0.21024 -0.571048,-0.24541 -0.155377,-0.0597 -0.128829,-0.0839 0.404765,-0.36887 1.368216,-0.73062 2.315586,-1.47308 2.846592,-2.23088 0.504984,-0.72067 0.730729,-0.90016 1.509112,-1.19992 1.207661,-0.46507 3.871097,-1.82225 4.148275,-2.1138 0.05912,-0.0622 0.1594,-0.37109 0.222847,-0.68647 0.290377,-1.44341 0.895828,-2.74371 1.669536,-3.58558 0.21991,-0.23928 0.256946,-0.25216 1.305701,-0.45399 3.757299,-0.72308 9.060791,-1.52653 13.914261,-2.10791 1.9553,-0.23423 2.4516,-0.3135 2.4742,-0.3952 0.0155,-0.0562 0.0473,-0.5272 0.0706,-1.04665 0.0233,-0.51945 0.0545,-1.09624 0.0693,-1.28176 0.0149,-0.18551 0.0446,-0.59534 0.066,-0.91072 0.17773,-2.61649 0.36279,-4.51895 0.64966,-6.6786 0.2544,-1.915182 0.51015,-3.17977 1.27564,-6.307581 1.07985,-4.412293 1.31737,-5.840011 1.44775,-8.70243 0.20571,-4.51605 0.57757,-7.085086 1.48183,-10.237429 0.58088,-2.024997 1.54617,-4.692738 2.31115,-6.387254 l 0.19598,-0.434114 0.293,0.535305 c 0.69697,1.27334 1.51578,2.335265 2.11283,2.740158 0.23083,0.156537 0.55915,0.414837 0.72961,0.574002 0.3129,0.292175 0.36439,0.386916 0.70797,1.302517 0.21992,0.586084 1.36323,2.867868 1.75425,3.501083 l 0.26653,0.43162 0.70687,0.15726 c 0.91987,0.204649 1.58812,0.440424 2.27487,0.80263 0.52682,0.277852 1.24131,0.77805 1.42147,0.995131 0.19919,0.240004 1.02784,4.940505 1.69634,9.62243 0.38736,2.712933 0.71813,5.342861 1.1504,9.146734 0.34382,3.025518 0.66333,5.442268 0.94962,7.182818 0.14936,0.90808 0.28258,1.66207 0.29605,1.67554 0.0135,0.0135 0.48986,-0.0161 1.05863,-0.0657 1.35486,-0.11818 6.05492,-0.11985 7.51037,-0.003 1.44787,0.11657 1.7364,0.17424 2.09042,0.41782 0.76787,0.5283 1.60366,2.27055 2.15237,4.48672 0.39782,1.60675 0.79196,4.17148 0.88639,5.76789 0.023,0.38959 0.0555,0.75059 0.072,0.80224 0.0621,0.19354 0.0295,3.85063 -0.0413,4.62835 -0.33055,3.63421 -1.27451,6.49325 -2.52418,7.64516 -0.59562,0.54902 -0.11389,0.51056 -6.58714,0.52596 l -5.77281,0.0137 -0.56849,0.17103 c -1.76035,0.5296 -4.3013,0.97736 -6.57251,1.15818 -0.29682,0.0236 -0.61558,0.0553 -0.70833,0.0704 -0.24663,0.0401 -3.52817,0.0843 -4.08138,0.055 z"
                                   id="path173" />
                                <path
                                   style="fill:#c6e9af;stroke-width:0.0674607"
                                   d="m 120.74539,132.89894 c -3.0325,-0.32934 -6.63842,-0.58789 -8.69738,-3.11953 -4.61457,-1.33512 -9.35718,-2.26247 -14.177909,-2.30437 -2.302904,-0.67241 -7.867845,0.4789 -6.087591,-3.46327 0.03488,-3.21709 1.691072,-6.09363 2.542878,-9.15047 1.388346,-2.90692 5.174417,-2.01975 7.783332,-2.82185 3.35563,-0.52642 6.7282,-0.93177 10.09678,-1.36324 0.2724,-6.30089 0.96826,-12.597594 2.70853,-18.677192 1.3408,-5.093054 0.60832,-10.47594 2.08463,-15.5503 3.25414,0.208595 6.23642,0.962273 9.28903,2.030753 4.24771,0.264929 4.6913,4.508928 4.98333,7.833415 1.18589,6.959173 1.63117,14.021414 2.84983,20.974174 3.46732,-0.24148 6.99621,-0.39932 10.43207,0.18781 2.38296,2.09466 2.57166,5.62863 3.09618,8.57998 0.36618,4.85165 0.78529,10.28293 -2.0046,14.54531 -1.07286,1.46014 -3.00859,0.64407 -4.53048,0.86023 -2.82112,0.0711 -5.67928,-0.12003 -8.47722,0.11518 -3.84709,1.10428 -7.8979,1.51366 -11.89141,1.32337 z M 99.45236,115.15678 c 3.46274,-0.4468 0.79596,-3.38831 -1.382191,-2.09215 -3.066212,0.9607 -0.483948,2.74562 1.382191,2.09215 z m 18.62866,-32.207294 c 2.17477,-1.385192 -0.16846,-6.596787 -1.31386,-2.70448 -0.24384,0.852462 -0.20574,3.460463 1.31386,2.70448 z M 89.606164,125.92364 c -1.680562,-0.82109 -7.184982,-1.49181 -3.195559,-3.11065 1.419809,-2.05732 3.758633,-2.78706 5.903792,-3.87738 -1.722269,1.52564 -0.11301,6.68097 -2.332411,7.10339 z M 123.94184,77.157666 c -1.58615,-1.803034 -6.04474,0.03327 -6.61209,-1.940504 0.84548,-1.535223 1.50788,-7.832935 3.14535,-3.985051 2.09961,1.550082 2.97405,3.90982 4.09303,6.18932 z"
                                   id="path171" />
                                <path
                                   style="fill:#8dd35f;stroke-width:0.0674607"
                                   d="m 121.27896,132.92818 c -2.94751,-0.28878 -6.21197,-0.50271 -8.60365,-2.44192 -1.02756,-1.67703 -3.90109,-0.95816 -5.1023,-2.02855 1.19971,-1.71645 0.26152,-4.41304 1.99271,-5.61769 0.96006,-0.80075 2.22595,-1.83952 2.39687,-3.119 -0.005,-1.01277 0.10526,-2.40621 -0.0106,-3.11318 -2.1274,-1.22701 -4.54891,-2.69324 -5.28226,-5.20791 1.78334,-0.35972 3.99367,-0.30561 5.56969,-0.81652 0.22392,-5.9226 0.82802,-11.862357 2.45607,-17.580098 1.04524,-0.818076 3.34786,1.091038 4.99234,0.647365 1.01454,0.469258 1.34881,2.06418 2.52326,2.53722 1.10244,0.869409 3.67468,2.144204 1.05983,2.920556 -2.45991,1.292407 -5.14296,2.588087 -6.5005,5.166467 -1.46263,2.43978 -2.90128,4.90073 -4.5873,7.19618 -0.2925,1.42331 0.23874,1.40654 0.93007,0.10746 2.00572,-2.65393 3.39504,-5.71896 5.43736,-8.33955 2.22058,-2.64381 6.24959,-3.00022 8.02207,-6.116912 1.47089,-2.113078 2.7877,-4.745618 5.47187,-5.486979 0.69374,5.207902 1.16227,10.447651 2.05221,15.628151 3.44381,-0.17866 6.94659,-0.35687 10.36883,0.18107 1.70207,1.15425 2.07569,3.42556 2.60978,5.28084 1.00452,5.06249 1.38257,10.46098 -0.19327,15.44717 -0.49277,1.44173 -1.41405,3.54495 -3.2477,3.2836 -3.60841,0.0291 -7.22981,-0.0306 -10.83016,0.0535 -3.71801,1.08968 -7.65646,1.54833 -11.52519,1.41871 z m -9.26116,-3.91864 c -0.0996,0.15508 0.0958,0.74022 0,0 z m -0.0654,-6.84387 c -0.0586,0.2468 0.005,3.95684 0.008,1.15557 -1.7e-4,-0.38519 -0.002,-0.77049 -0.008,-1.15557 z m 0.13203,-7.55991 c -0.1032,0.13165 0.10134,0.67301 0,0 z"
                                   id="path169" />
                                <path
                                   style="fill:#aade87;stroke-width:0.0674607"
                                   d="m 121.27896,132.9004 c -3.01435,-0.12998 -5.7459,-0.73937 -7.5447,-1.68317 -0.53445,-0.28041 -0.98406,-0.59619 -0.71923,-0.50513 1.98622,0.68293 2.61236,0.80804 4.04764,0.80881 0.8806,6.8e-4 1.27041,-0.0283 1.67918,-0.12416 2.83516,-0.66453 4.88127,-3.01475 6.21414,-7.13775 0.73842,-2.28417 1.2956,-5.57596 1.48264,-8.75939 0.0207,-0.35248 0.0516,-0.82302 0.0687,-1.04564 0.13732,-1.78765 0.0876,-6.25123 -0.10403,-9.34331 -0.12157,-1.96133 -0.49257,-5.802578 -0.64179,-6.644878 -0.0298,-0.168427 0.0162,-0.264631 0.27438,-0.573416 0.17063,-0.204068 0.77883,-1.074972 1.35156,-1.935341 1.42242,-2.136783 2.0326,-2.848864 3.01592,-3.519554 0.3542,-0.241587 1.1994,-0.65414 1.4738,-0.719382 0.16909,-0.0402 0.17706,-0.02846 0.21553,0.317242 0.12982,1.166879 1.03638,8.653299 1.26206,10.422269 0.33162,2.59923 0.50753,3.63347 1.30952,7.69892 1.26886,6.43206 1.56685,8.76819 1.65398,12.96615 0.0266,1.28007 0.0536,2.02367 0.0601,1.65244 l 0.0118,-0.67495 0.42163,-0.16205 c 1.28067,-0.4922 3.11635,-1.47271 4.40181,-2.35117 2.92608,-1.99962 4.71654,-4.27845 5.41432,-6.89112 0.15172,-0.56809 0.17344,-0.78744 0.17881,-1.80617 0.003,-0.63776 0.0268,-1.10372 0.0521,-1.03547 0.0253,0.0683 0.15396,0.65078 0.28597,1.29449 0.4769,2.32541 0.70049,4.36831 0.75938,6.93827 0.0721,3.14731 -0.23594,5.61166 -0.98665,7.8929 -0.54144,1.64532 -1.15687,2.6798 -1.87996,3.15999 l -0.37159,0.24678 -3.3115,0.0531 c -1.82132,0.0292 -4.41953,0.0289 -5.77381,-6.8e-4 l -2.46231,-0.0537 -0.67461,0.21433 c -2.82369,0.89712 -7.60549,1.45421 -11.16475,1.30073 z m 12.41277,-1.68245 c 0.0557,-0.036 0.0708,-0.0654 0.0337,-0.0654 -0.0371,0 -0.11299,0.0294 -0.16865,0.0654 -0.0557,0.036 -0.0708,0.0654 -0.0337,0.0654 0.0371,0 0.113,-0.0294 0.16865,-0.0654 z m 0.744,-0.33827 c 0.22156,-0.11184 0.40284,-0.21853 0.40284,-0.23708 0,-0.0302 -0.80264,0.35178 -0.87137,0.4147 -0.0835,0.0764 0.11231,0.002 0.46853,-0.17762 z m 1.21888,-0.85299 c 0.21993,-0.24066 0.39825,-0.50525 0.39825,-0.59093 0,-0.0361 -0.0863,0.0704 -0.19175,0.23669 -0.10545,0.16629 -0.32555,0.41829 -0.48909,0.56 -0.16354,0.1417 -0.20627,0.1965 -0.095,0.12178 0.11131,-0.0747 0.28121,-0.22212 0.37755,-0.32754 z m 0.44293,-0.91688 c -0.0187,-0.0464 -0.034,-0.008 -0.034,0.0843 0,0.0928 0.0153,0.13071 0.034,0.0843 0.0187,-0.0464 0.0187,-0.12227 0,-0.16865 z m 0.0705,-0.67382 c -0.0161,-0.0839 -0.0299,-0.0311 -0.0307,0.11727 -7.5e-4,0.14841 0.0125,0.21706 0.0293,0.15257 0.0169,-0.0645 0.0175,-0.18593 0.001,-0.26984 z m 0.0674,-0.87778 c -0.0161,-0.0835 -0.0292,-0.0152 -0.0292,0.15179 0,0.16696 0.0132,0.23527 0.0292,0.15178 0.0161,-0.0835 0.0161,-0.22009 0,-0.30357 z m 0.0687,-1.14562 c -0.015,-0.12125 -0.0276,-0.0383 -0.028,0.18431 -4.1e-4,0.22262 0.0119,0.32182 0.0273,0.22045 0.0154,-0.10137 0.0157,-0.28351 6.9e-4,-0.40476 z m -26.64527,2.72859 c -1.34617,-0.33269 -2.07442,-0.54237 -2.07442,-0.59729 0,-0.0466 0.1556,-0.51885 0.34577,-1.04955 0.19017,-0.53069 0.39957,-1.16223 0.46532,-1.4034 0.10596,-0.38865 0.13759,-0.43719 0.27824,-0.42703 0.0873,0.006 0.52624,0.045 0.97546,0.0861 0.75808,0.0693 1.8021,0.02 2.2021,-0.10381 0.11053,-0.0342 0.11806,0.086 0.11806,1.88511 0,1.05691 0.0184,1.96968 0.0409,2.02837 0.064,0.16681 -0.10475,0.13678 -2.35148,-0.41847 z m 2.59354,-18.7521 c 0.15924,-3.37707 0.64669,-9.11927 0.78706,-9.27156 0.0237,-0.0257 0.0454,0.50558 0.0482,1.18057 0.005,1.09404 0.0212,1.26814 0.15248,1.60403 0.081,0.20724 0.22186,0.44687 0.31303,0.53251 0.36988,0.34749 1.35591,0.2009 2.16306,-0.32157 0.22108,-0.1431 0.85732,-0.62261 1.41387,-1.06558 1.67411,-1.33245 1.68413,-1.33884 1.04506,-0.66608 -0.70593,0.74314 -1.24857,1.54048 -2.50022,3.67371 -0.8064,1.37437 -2.90779,4.62296 -3.34896,5.17723 -0.11661,0.14652 -0.11899,0.11925 -0.0736,-0.84326 z m 0.81201,-9.5959 c 0,-0.12987 0.0139,-0.18299 0.0309,-0.11806 0.017,0.0649 0.017,0.17118 0,0.23611 -0.017,0.0649 -0.0309,0.0118 -0.0309,-0.11805 z"
                                   id="path167" />
                                </g>
                                </g>
                                </g>
                                </g>
                                </g>
                                </g>
                                </g>
                                </g>
                                </g>
                                </g>
                                </g>
                              </g>
                            </g>
                          </g>
                        </g>
                      </g>
                    </g>
                  </g>
                </g>
              </g>
            </g>
          </g>
        </g>
      </g>
    </g>
  </g>
</svg>
