<?xml version="1.0" encoding="UTF-8" standalone="no"?>
<!-- Created with Inkscape (http://www.inkscape.org/) -->

<svg
   width="64"
   height="64"
   viewBox="0 0 16.933333 16.933334"
   version="1.1"
   id="svg5"
   inkscape:version="1.2 (dc2aedaf03, 2022-05-15)"
   sodipodi:docname="patisson.svg"
   xml:space="preserve"
   xmlns:inkscape="http://www.inkscape.org/namespaces/inkscape"
   xmlns:sodipodi="http://sodipodi.sourceforge.net/DTD/sodipodi-0.dtd"
   xmlns="http://www.w3.org/2000/svg"
   xmlns:svg="http://www.w3.org/2000/svg"><sodipodi:namedview
     id="namedview7"
     pagecolor="#ffffff"
     bordercolor="#666666"
     borderopacity="1.0"
     inkscape:pageshadow="2"
     inkscape:pageopacity="0.0"
     inkscape:pagecheckerboard="0"
     inkscape:document-units="mm"
     showgrid="false"
     units="px"
     inkscape:zoom="11.539063"
     inkscape:cx="30.548409"
     inkscape:cy="32.498307"
     inkscape:window-width="1920"
     inkscape:window-height="1017"
     inkscape:window-x="1912"
     inkscape:window-y="-8"
     inkscape:window-maximized="1"
     inkscape:current-layer="g4774"
     inkscape:showpageshadow="0"
     inkscape:deskcolor="#d1d1d1" /><defs
     id="defs2" /><g
     inkscape:label="Calque 1"
     inkscape:groupmode="layer"
     id="layer1"><g
       id="g4128"
       transform="translate(-0.63104184,0.12620835)"><g
         id="g5578"
         transform="translate(0.08924235,0.08924306)"><g
           id="g7501"
           transform="translate(-0.06310417,0.94656242)"><g
             id="g9467"
             transform="translate(-0.08924275,-0.80318511)"><g
               id="g10302"
               transform="translate(0.31234979,-0.04462139)"><g
                 id="g11479"
                 transform="translate(-0.12620833,0.06310418)"><g
                   id="g11873"
                   transform="translate(-0.23575769,0.66462456)"><g
                     id="g12382"
                     transform="translate(-121.98459,-82.267525)"><g
                       id="g13305"
                       transform="matrix(0.13266609,0,0,0.13266609,114.63867,78.215696)"><g
                         id="g17429"
                         transform="translate(0.90513437,5.6640979)"><g
                           id="g18595"
                           transform="translate(-3.3634362,-8.7449387)"><g
                             id="g21002"
                             transform="translate(1.7082278,-2.8204445)"><g
                               id="g23814"
                               transform="translate(8.7253043,-1.1218249)"><g
                                 id="g24838"
                                 transform="translate(11.143454,-0.85716864)"><g
                                   id="g25315"
                                   transform="translate(-3.490122,2.4929446)"><g
                                   id="g27220"
                                   transform="translate(2.4678888,1.2339445)"><g
                                   id="g29753"
                                   transform="translate(1.4759287,-2.3737724)"><g
                                   id="g30615"
                                   transform="translate(0.92006037,1.3687834)"><g
                                   id="g31433"
                                   transform="translate(-2.4678886,-1.410222)"><g
                                   id="g31731"
                                   transform="translate(1.0576664,-0.70511063)"><g
                                   id="g33243"
                                   transform="matrix(1.0772948,0,0,1.0772948,-7.3729128,-3.1743014)"><g
                                   id="g35254"
                                   transform="translate(-2.2135012,-0.92031205)"><g
                                   id="g36749"
                                   transform="translate(-0.98178042,-2.7817105)"><g
                                   id="g37297"
                                   transform="translate(-6.7755742,-3.5033798)"><g
                                   id="g38955"
                                   transform="matrix(1.2171094,0,0,1.2171094,-23.105122,-18.212482)"><g
                                   id="g39618"
                                   transform="translate(-0.26888273,-0.26888316)"><g
                                   id="g40032"
                                   transform="translate(-1.90129,-3.042064)"><g
                                   id="g40543"
                                   transform="translate(0.3802582,-2.0914191)"><g
                                   id="g41372"
                                   transform="translate(1.9657652,-7.9304203)"><g
                                   id="g43278"
                                   transform="translate(1.5210324,-0.38025789)"><g
                                   id="g44210"
                                   transform="matrix(1.1578947,0,0,1.1578947,-18.904476,-21.776183)"><g
                                   id="g44833"
                                   transform="matrix(1.1196819,0,0,1.1196819,-12.538538,-14.547543)"><g
                                   id="g47597"
                                   transform="translate(3.1109352,-1.2443743)"><g
                                   id="g48754"
                                   transform="translate(-2.9035392,-6.6366609)"><g
                                   id="g234"
                                   transform="matrix(0.04089637,0,0,0.04089637,104.63967,119.67231)"><g
                                   id="g2138"
                                   transform="translate(-86.211222,-40.569988)"><g
                                   id="g2696"
                                   transform="translate(-124306.44,-9412.2373)"><g
                                   id="g3765"
                                   transform="translate(25.356243,-50.712489)"><g
                                   id="g4557"
                                   transform="translate(46.61688,-35.859142)"><g
                                   id="g5244"
                                   transform="translate(7.1718407,14.343658)"><g
                                   id="g5807"
                                   transform="translate(-5.1984397,-21.113724)"><g
                                   id="g6945"
                                   transform="translate(-10.142522,-243.41993)"><g
                                   id="g11108"
                                   transform="translate(18.189368,-37.636113)"><g
                                   id="g15049"
                                   transform="translate(-65.926228,141.99496)"><g
                                   id="g19861"
                                   transform="matrix(0.07356842,0,0,0.07356842,115423.38,9039.2311)"><g
                                   id="g20437"
                                   transform="translate(-478.38824,-785.88156)"><g
                                   id="g21032"
                                   transform="translate(2047.1878,-1072.3367)"><g
                                   id="g21869"
                                   transform="matrix(0.04321578,0,0,0.04321578,117368,10137.003)"><g
                                   id="g25455"
                                   transform="translate(154741.46,-87178.414)"><g
                                   id="g26278"
                                   transform="translate(-18012.371,-8233.4417)"><g
                                   id="g27240"
                                   transform="translate(-0.00447131,5582.7624)"><g
                                   id="g28306"
                                   transform="translate(-15790.441,-2255.7767)"><g
                                   id="g33735"
                                   transform="translate(14662.549,-16918.328)"><g
                                   id="g37868"
                                   transform="translate(-5075.4976,25941.433)"><g
                                   id="g76752"
                                   transform="matrix(-1,0,0,1,9442.3174,-1595.0746)"><g
                                   id="g82459"
                                   transform="translate(3383.6668,-1127.8885)"><g
                                   id="g83208"
                                   transform="matrix(0.20332428,0,0,0.20332428,-15348.528,66747.475)"><g
                                   id="g83934"
                                   transform="matrix(-1,0,0,1,240692.18,94139.78)"><g
                                   id="g84550"
                                   transform="translate(-8.7627443e-5,55472.344)"><g
                                   id="g9096"
                                   transform="translate(31379.925,-62759.843)"><g
                                   id="g11527"
                                   transform="translate(61019.625,105397.54)"><g
                                   id="g13422"
                                   transform="translate(-44377.907,44377.908)"><g
                                   id="g1137"
                                   transform="translate(-3.3240812e-4,138680.92)"><g
                                   id="g3632"
                                   transform="translate(177511.65,-22188.943)"><g
                                   id="g5936"
                                   transform="translate(11767.473,-47069.909)"><g
                                   id="g7318"><g
                                   id="g11619"
                                   transform="translate(27457.436,-223581.94)" /><g
                                   id="g11985"
                                   transform="translate(70604.821,-133364.68)"><g
                                   id="g12707"
                                   transform="matrix(1.186974,0,0,1.186974,95904.637,-164033.62)"><g
                                   id="g4721"
                                   transform="matrix(-1,0,0,1,-561251.4,-59483.037)"><g
                                   id="g7072"><g
                                   id="g10426"
                                   transform="translate(66928.962,-211126.69)"><g
                                   id="g1231"
                                   transform="translate(-14020.287,4673.4667)"><g
                                   id="g2516"
                                   transform="matrix(1.1495428,0,0,1.1495428,-144709.4,-78762.736)"><g
                                   id="g3795"
                                   transform="translate(-22559.428,121623.52)"><g
                                   id="g5627"
                                   transform="translate(-106364.63,2874.7178)"><g
                                   id="g6621"
                                   transform="translate(-12196.407,40654.68)"><g
                                   id="g7772"
                                   transform="translate(28747.2,74742.673)"><g
                                   id="g8880"
                                   transform="translate(-60982.018,187011.51)"><g
                                   id="g11165"
                                   transform="translate(-44309.499,5172.6179)"><g
                                   id="g12249"
                                   transform="translate(48785.608,-8130.9328)"><g
                                   id="g14000"
                                   transform="matrix(1.0831477,0,0,1.0831477,-5722.2619,28128.151)"><g
                                   id="g15203"
                                   transform="translate(53158.943,24797.103)"><g
                                   id="g16076"
                                   transform="translate(-37533.822,-30027.061)"><g
                                   id="g17560"
                                   transform="translate(-21232.337,7962.1264)"><g
                                   id="g25114"
                                   transform="translate(-67560.839,7506.7636)"><g
                                   id="g29358"
                                   transform="translate(-21232.382,-47772.762)" /></g><g
                                   id="g54846"
                                   transform="translate(-89414.803,-58825.532)"><g
                                   id="g56152"
                                   transform="translate(-3.3655809e-4,28236.25)"><g
                                   id="g56999"
                                   transform="translate(-65884.586,-28236.251)"><g
                                   id="g58386"
                                   transform="translate(-26621.369,66553.488)"><g
                                   id="g59580"
                                   transform="matrix(1.3336607,0,0,1.3336607,-147290.21,2462.1241)"><g
                                   id="g60913"
                                   transform="translate(52929.981,10585.996)"><g
                                   id="g61494"
                                   transform="translate(83376.512,12462.173)"><g
                                   id="g64263"
                                   transform="translate(12959.021,17102.931)"><g
                                   id="g66681"
                                   transform="translate(34932.003,-24951.435)"><g
                                   id="g67253"
                                   transform="translate(-56458.648,35286.648)"><g
                                   id="g67911"
                                   transform="translate(-35291.329,-19495.235)"><g
                                   id="g68553"
                                   transform="translate(-128708.75,-9980.5274)"><g
                                   id="g69435"
                                   transform="translate(24951.434,-1.4872907e-4)"><g
                                   id="g8435"
                                   transform="translate(82339.72,-52398.003)"><g
                                   id="g8723"
                                   transform="translate(44912.576,-3.7330354e-4)"><g
                                   id="g9505"
                                   transform="translate(-45872.651,10585.997)"><g
                                   id="g9792"
                                   transform="translate(24700.656,-24700.661)"><g
                                   id="g15677"
                                   transform="matrix(0.08417283,0,0,0.08417283,193952.62,94764.147)"><g
                                   id="g438"
                                   transform="translate(-922276.57,-775550.79)"><g
                                   id="g836"
                                   transform="translate(398255.85,1152845.8)"><g
                                   id="g4134"
                                   transform="translate(59286.214,118572.37)"><g
                                   id="g4774"
                                   transform="translate(125764.96,167686.66)"><path
                                   style="fill:#f8c420;stroke-width:2683.01"
                                   d="M -458556.3,4515901.7 C -2121735.4,4225389.9 -3864237.8,4057454.7 -5373104.5,3242369.1 -5837495.7,2992786.5 -6112881.2,2364685.9 -6409057.7,2179799.3 -7485111.8,534819.39 -6226507.8,-431155.89 -5368956,-888813 c 715276.3,-1362023.9 1941064,-2428843.8 3364964,-2997833.7 1719903.39,-705339.8 1009165.35,-1139053.4 2841182.73,-383916.5 294661.27,449704.3 995947.27,602523.8 1259964.47,805724.6 1135616.1,648827.4 2076518.4,1650169.6 2624906.3,2839727.33 786173.9,223114.25 1542288.2,943072.77 1382594.2,1824952.17 -28606,478117.1 -1069670.9,1438817.6 -693888.6,1171535.7 -370727.7,877021.1 -1391784,1173478.9 -2219382.2,1448914.5 -1191838,335119.6 -2426708.77,548016.2 -3649941.2,695610.6 z"
                                   id="path4784"
                                   sodipodi:nodetypes="cccccccccccc" /><path
                                   style="fill:#e4ad14;stroke-width:2683.01"
                                   d="m -6004211.2,2704859.6 c -92539.5,-112324.2 -129338.7,-231184.1 -183329.8,-354692.4 535363.9,254621.6 1141218.5,331162.3 1624704.5,322621.3 921542.1,-217761.2 1590815.1,-615395.8 2082808.2,-1256685.2 572425.6,625272.4 1372243.2,1153289.6 2101806.59,1244684.1 912280.64,-144709.2 1671544.11,-638930.7 2075563.81,-1225435.1 4766.6,-9216.9 9454.1,-16461.1 10416.5,-16098 890977.1,1164827.5 2678833.2,1407567.9 3689315.1,940660 l 20711.8,-12955.7 -12326,35517.1 C 5259201.5,2803910 4837502.1,3167737 4132788.4,3480490.5 2628560.8,4074564.2 1137833.8,4281083.1 -260231.93,4505484.7 -2095874.4,4236704.7 -4956021.4,3983212.7 -6004211.2,2704859.6 Z"
                                   id="path4782"
                                   sodipodi:nodetypes="cccccccccsccc" /><path
                                   style="fill:#d2990c;stroke-width:2683.01"
                                   d="m -630890.11,-3472556.2 c -527725.99,-15816.6 -901592.19,-71846.9 -1149668.39,-172297.6 -130852.4,-52984.6 -225694,-125330.5 -252089.4,-192296.2 -3013.6,-7645.5 -5407.4,-15969.3 -5319.6,-18496.9 88.5,-2563.7 14624,-16059.7 32866.8,-30518.2 100460.4,-79619.8 239229,-212249.1 354692.2,-339000.3 285708.8,-313640 532663.7,-694679.8 651188.24,-1004752.5 123798.76,-323871.3 212863.05,-761615.4 259570.98,-1275769.7 15491.14,-170526 29548.49,-420472.3 29592.49,-526165.6 0,-23773.4 785.85,-48825.9 1724.1,-55672.3 l 1706.12,-12448 h 320254.69 c 176140.2,0 320263.541,905.5 320274.004,2012.2 254.886,26300.2 6083.986,202294.9 8065.387,243482.9 30838.211,641072.7 129304.559,1212396.5 276687.759,1605407.5 44186.16,117827 97055.89,228699.2 166953.31,350116.4 137097.89,238149 291909.26,450799.3 484689.19,665773.6 49310.98,54988.3 212293.43,217957 262889.03,262867.1 42713,37913.3 114081.7,97954.9 124719.6,104925.1 8333.9,5460.7 8404.2,11540.4 360.9,31096.6 -20147.8,48984.7 -84833.8,107024.9 -168008.6,150747.7 -227883.31,119792.2 -631890.2,190251.5 -1193937.99,208224.7 -116755.6,3733.6 -438561.87,5420.4 -527210.82,2763.5 z"
                                   id="path4780"
                                   sodipodi:nodetypes="sssssssscscscssssssssss" /><path
                                   style="fill:#91b026;stroke-width:2683.01"
                                   d="m -415340.71,-3460996.3 c -653677.89,-11388.8 -1258235.29,-103811.1 -1488636.09,-245946.6 -67947.7,-41917.4 -117696.5,-94570.4 -130456.7,-138071.8 -2304.7,-7856.4 -3776.6,-14581.6 -3271.1,-14944.9 12719.1,-9136.7 74993.5,-60646.2 104214.7,-86199.4 787973.1,-668042.8 1106855.08,-1642015 1193840.62,-2559528.6 15491.14,-170526 29548.49,-420472.3 29592.49,-526165.6 0,-23773.4 785.85,-48825.9 1724.1,-55672.3 l 1706.12,-12448 h 320254.69 c 176140.2,0 320263.541,905.5 320274.004,2012.2 254.886,26300.2 6083.986,202294.9 8065.387,243482.9 161694.619,1282209 415062.939,2217692.3 1315938.889,2989089.7 8333.9,5460.7 8404.2,11540.4 360.9,31096.6 -20147.8,48984.7 -84833.8,107024.9 -168008.6,150747.7 -285402.14,150028.4 -727087.44,236111.8 -1505599.41,222548.1 z"
                                   id="path4778"
                                   sodipodi:nodetypes="sssccccscscccsss" /></g></g></g></g></g></g></g></g></g></g></g></g></g></g></g></g></g></g></g></g></g></g></g></g></g></g></g></g></g></g></g></g></g></g></g></g></g></g></g></g></g></g></g></g></g></g></g></g></g></g></g></g></g></g></g></g></g></g></g></g></g></g></g></g></g></g></g></g></g></g></g></g></g></g></g></g></g></g></g></g></g></g></g></g></g></g></g></g></g></g></g></g></g></g></g></g></g></g></g></g></g></g></g></g></g></g></g></svg>
