<?xml version="1.0" encoding="UTF-8" standalone="no"?>
<!-- Created with Inkscape (http://www.inkscape.org/) -->

<svg
   width="64"
   height="64"
   viewBox="0 0 16.933333 16.933334"
   version="1.1"
   id="svg5"
   inkscape:version="1.2 (dc2aedaf03, 2022-05-15)"
   sodipodi:docname="patrelle.svg"
   xmlns:inkscape="http://www.inkscape.org/namespaces/inkscape"
   xmlns:sodipodi="http://sodipodi.sourceforge.net/DTD/sodipodi-0.dtd"
   xmlns="http://www.w3.org/2000/svg"
   xmlns:svg="http://www.w3.org/2000/svg">
  <sodipodi:namedview
     id="namedview7"
     pagecolor="#ffffff"
     bordercolor="#666666"
     borderopacity="1.0"
     inkscape:pageshadow="2"
     inkscape:pageopacity="0.0"
     inkscape:pagecheckerboard="0"
     inkscape:document-units="mm"
     showgrid="false"
     units="px"
     inkscape:zoom="11.313709"
     inkscape:cx="7.2920384"
     inkscape:cy="28.637823"
     inkscape:window-width="1920"
     inkscape:window-height="1017"
     inkscape:window-x="1912"
     inkscape:window-y="-8"
     inkscape:window-maximized="1"
     inkscape:current-layer="g4541"
     inkscape:showpageshadow="2"
     inkscape:deskcolor="#d1d1d1" />
  <defs
     id="defs2" />
  <g
     inkscape:label="Calque 1"
     inkscape:groupmode="layer"
     id="layer1">
    <g
       id="g4128"
       transform="translate(-0.63104184,0.12620835)">
      <g
         id="g5578"
         transform="translate(0.08924235,0.08924306)">
        <g
           id="g7501"
           transform="translate(-0.06310417,0.94656242)">
          <g
             id="g9467"
             transform="translate(-0.08924275,-0.80318511)">
            <g
               id="g10302"
               transform="translate(0.31234979,-0.04462139)">
              <g
                 id="g11479"
                 transform="translate(-0.12620833,0.06310418)">
                <g
                   id="g11873"
                   transform="translate(-0.23575769,0.66462456)">
                  <g
                     id="g12382"
                     transform="translate(-121.98459,-82.267525)">
                    <g
                       id="g13305"
                       transform="matrix(0.13266609,0,0,0.13266609,114.63867,78.215696)">
                      <g
                         id="g17429"
                         transform="translate(0.90513437,5.6640979)">
                        <g
                           id="g18595"
                           transform="translate(-3.3634362,-8.7449387)">
                          <g
                             id="g21002"
                             transform="translate(1.7082278,-2.8204445)">
                            <g
                               id="g23814"
                               transform="translate(8.7253043,-1.1218249)">
                              <g
                                 id="g24838"
                                 transform="translate(11.143454,-0.85716864)">
                                <g
                                   id="g25315"
                                   transform="translate(-3.490122,2.4929446)">
                                <g
                                   id="g27220"
                                   transform="translate(2.4678888,1.2339445)">
                                <g
                                   id="g29753"
                                   transform="translate(1.4759287,-2.3737724)">
                                <g
                                   id="g30615"
                                   transform="translate(0.92006037,1.3687834)">
                                <g
                                   id="g31433"
                                   transform="translate(-2.4678886,-1.410222)">
                                <g
                                   id="g31731"
                                   transform="translate(1.0576664,-0.70511063)">
                                <g
                                   id="g33243"
                                   transform="matrix(1.0772948,0,0,1.0772948,-7.3729128,-3.1743014)">
                                <g
                                   id="g35254"
                                   transform="translate(-2.2135012,-0.92031205)">
                                <g
                                   id="g36749"
                                   transform="translate(-0.98178042,-2.7817105)">
                                <g
                                   id="g37297"
                                   transform="translate(-6.7755742,-3.5033798)">
                                <g
                                   id="g38955"
                                   transform="matrix(1.2171094,0,0,1.2171094,-23.105122,-18.212482)">
                                <g
                                   id="g39618"
                                   transform="translate(-0.26888273,-0.26888316)">
                                <g
                                   id="g40032"
                                   transform="translate(-1.90129,-3.042064)">
                                <g
                                   id="g40543"
                                   transform="translate(0.3802582,-2.0914191)">
                                <g
                                   id="g41372"
                                   transform="translate(1.9657652,-7.9304203)">
                                <g
                                   id="g43278"
                                   transform="translate(1.5210324,-0.38025789)">
                                <g
                                   id="g44210"
                                   transform="matrix(1.1578947,0,0,1.1578947,-18.904476,-21.776183)">
                                <g
                                   id="g44833"
                                   transform="matrix(1.1196819,0,0,1.1196819,-12.538538,-14.547543)">
                                <g
                                   id="g47597"
                                   transform="translate(3.1109352,-1.2443743)">
                                <g
                                   id="g48754"
                                   transform="translate(-2.9035392,-6.6366609)">
                                <g
                                   id="g234"
                                   transform="matrix(0.04089637,0,0,0.04089637,104.63967,119.67231)">
                                <g
                                   id="g2138"
                                   transform="translate(-86.211222,-40.569988)">
                                <g
                                   id="g2696"
                                   transform="translate(-124306.44,-9412.2373)">
                                <g
                                   id="g3765"
                                   transform="translate(25.356243,-50.712489)">
                                <g
                                   id="g4557"
                                   transform="translate(46.61688,-35.859142)">
                                <g
                                   id="g5244"
                                   transform="translate(7.1718407,14.343658)">
                                <g
                                   id="g5807"
                                   transform="translate(-5.1984397,-21.113724)">
                                <g
                                   id="g6945"
                                   transform="translate(-10.142522,-243.41993)">
                                <g
                                   id="g11108"
                                   transform="translate(18.189368,-37.636113)">
                                <g
                                   id="g15049"
                                   transform="translate(-65.926228,141.99496)">
                                <g
                                   id="g19861"
                                   transform="matrix(0.07356842,0,0,0.07356842,115423.38,9039.2311)">
                                <g
                                   id="g20437"
                                   transform="translate(-478.38824,-785.88156)">
                                <g
                                   id="g21032"
                                   transform="translate(2047.1878,-1072.3367)">
                                <g
                                   id="g21869"
                                   transform="matrix(0.04321578,0,0,0.04321578,117368,10137.003)">
                                <g
                                   id="g25455"
                                   transform="translate(154741.46,-87178.414)">
                                <g
                                   id="g26278"
                                   transform="translate(-18012.371,-8233.4417)">
                                <g
                                   id="g27240"
                                   transform="translate(-0.00447131,5582.7624)">
                                <g
                                   id="g28306"
                                   transform="translate(-15790.441,-2255.7767)">
                                <g
                                   id="g33735"
                                   transform="translate(14662.549,-16918.328)">
                                <g
                                   id="g37868"
                                   transform="translate(-5075.4976,25941.433)">
                                <g
                                   id="g76752"
                                   transform="matrix(-1,0,0,1,9442.3174,-1595.0746)">
                                <g
                                   id="g82459"
                                   transform="translate(3383.6668,-1127.8885)">
                                <g
                                   id="g83208"
                                   transform="matrix(0.20332428,0,0,0.20332428,-15348.528,66747.475)">
                                <g
                                   id="g83934"
                                   transform="matrix(-1,0,0,1,240692.18,94139.78)">
                                <g
                                   id="g84550"
                                   transform="translate(-8.7627443e-5,55472.344)">
                                <g
                                   id="g1274"
                                   transform="translate(-66682.337,-43147.393)">
                                <g
                                   id="g2352"
                                   transform="translate(-74780.623,-22188.943)">
                                <g
                                   id="g4123"
                                   transform="translate(-47069.882,-15689.961)">
                                <g
                                   id="g5928">
                                <g
                                   id="g12050"
                                   transform="translate(78161.555,35375.784)">
                                <g
                                   id="g1529"
                                   transform="translate(-39224.905,-7845.0125)">
                                <g
                                   id="g4541"
                                   transform="translate(55472.386,33283.435)">
                                <path
                                   style="fill:#aa0000;stroke-width:1515.86"
                                   d="m -303568.89,492069.07 c -842.29,-35433.34 -1905.03,-77384.89 -2361.64,-93225.68 -4646.01,-161180.02 -29664.75,-467688.288 -25065.73,-573400.39 -21399.72,-259087.58 159705.69,-258048.45 373528.364,-314644.96 11315.323,-5733.91 -45657.3752,-112345 -40704.2421,-122778.26 4118.8466,-8675.93 4317.9403,-10090.93 4319.0771,-30696.26 0.7883,-14157.54 -550.5317,-21601.07 -1599.9041,-21601.07 -880.6112,0 -2935.4566,-3016.52 -4566.329851,-6703.39 C -8703.2233,-725728.76 -8762.208,-776232.91 -5139.5369,-842391.64 c 3638.8481,-17631.01 3148.9358,-20801.93 -4553.8543,-29474.87 -4037.8998,-4546.46 -7055.9098,-9587.48 -7517.4298,-12556.48 -1262.246,-8120.09 -2045.66,-220741.51 -837.667,-227347.51 50905.844,-48582.1 158595.998,-44078.5 212921.768,-44346.8 76803.71,-1525.4 156646.19,5774.9 211626.73,43720.7 2067.61,7640.8 240.34,225496.38 -1939.68,231258.65 -769.47,2033.84 -4095.32,6623.04 -7390.8,10198.21 -6843.17,7423.98 -7199.9,9997.34 -3852.22,27790.17 1925.88,83016.97 10742.92,102195.59 -9901.17,178969.58 -101007.69,159874.99 251025.54,155262.08 308075.66,246957 16928.32,32538.37 24570.19,97163.32 30745.17,260002.17 2534.91,66847.08 61353.73,377249.44 58807.94,491898.07 C 490433.22,1417322.5 -348784.16,998755.26 -303568.89,492069.07 Z"
                                   id="path4555"
                                   sodipodi:nodetypes="csccsssccsscccsscccscc" />
                                <path
                                   style="fill:#241c1c;stroke-width:1515.86"
                                   d="m 552304.77,889268.06 c 42955.16,-313586.91 91639.29,-638741.55 133977.74,-952382.034 -311151.04,-1411.594 -628192.887,4857.738 -939347.28,4424.351 42120.55,311820.153 81352.96,631424.823 125392.53,943033.663 253033.58,2102.35 441824.08,22891.73 679977.01,4924.02 z M -76579.082,823572.1 C -119858.38,542161.57 -154124.94,266072.05 -192671.01,4218.7599 H 620131.05 C 580574.73,276939.96 545112.58,550300.87 505076.78,822960.45 400906.26,826986.49 296612.1,830561.41 192419.04,832497.79 101089.4,827596.69 3025.0045,826963.93 -76579.082,823572.1 Z M 471518.57,765940.74 c 5799.06,-22550.65 -50665.65,-16340.72 -37369.93,-12884.85 h -479539.9 c -4040.76,20638.5 46000.6727,20390.29 24023.525,25769.7 H 471518.57 Z m -61683.66,-526069.56 -380948.804,-693.4 v 87920.15 H 412399.85 c 0,-28414.66 -2564.94,-73975.58 -2564.94,-87226.75 z M 527483.28,110509.03 c -206772.68,251.79 -418399.19,-5737.06 -625171.868,-5485.27 -99.191,26896.29 -1064.295,53812.37 -73.883,80694.9 207968.641,3805.62 419612.761,1157.35 627671.791,1919.72 0,-28975.39 -2623.99,-47770.89 -2426.04,-77129.35 z"
                                   id="path4551"
                                   sodipodi:nodetypes="cssccccssccsssscscsscccsccc" />
                                <path
                                   style="fill:#2b0000;stroke-width:1515.86"
                                   d="m -173332.11,1327189.6 c -436.69,-3543.3 -1178.87,-9853.1 -1649.31,-14021.7 -470.43,-4168.6 -1220.66,-10034.1 -1667.16,-13034.3 l -811.84,-5455 -19990.73,-941.1 c -79724.54,-3753.3 -137510.96,-24631.3 -151805.13,-54846.7 -26866.51,-529933.66 -121546.99,-1074752.49 -23399.69,-1629911.69 12403.54,-47775.19 54993.18,-90276.03 124896.79,-124636.42 52725.77,-25916.8 104375.01,-42487.43 182486.083,-58547.03 18013.155,-3703.5 36007.908,-8309.27 40500.976,-10366.27 10319.036,-4724.21 21588.0343,-15261 27248.7881,-25478.29 6893.8572,-19325.86 4992.2956,-31518.14 5463.5246,-50817.09 71415.8603,11068.1 126469.2383,10127.55 181627.5583,10150.99 108711.81,-73.97 164009.85,-2567.8 182881.59,-8247.35 l 6601.49,-1986.75 c -1784.59,15456.99 1939.12,33358.78 3278.25,46248.07 6143.65,16420.39 24966.06,31015.44 45251.56,35088.45 96065.98,20960.53 206517.15,48304.51 280438.44,111196.54 20629.47,18064.27 37107.62,39756.09 45482.2,59872.73 48420.9,489388.371 28224.73,1041330.94 -1595.6,1569366.81 -3180.06,36329 -11140.47,70492.2 -19486.23,83628 -11611.75,18276 -40850.69,32683.2 -83976.29,41378.4 -20721.04,4177.8 -57689.5,8389.7 -73638.35,8389.7 -12224.29,0 -11068.32,-1917.1 -13938.74,23116.9 l -1868.46,16295.6 c -243845.24,0 -487690.487,0 -731535.73,0 z M 515478.64,887077.28 c 18758.82,-535.1 34382.84,-1227.4 34720.03,-1538.46 47415.15,-326538.68 87099.41,-627173.1 131424.51,-940817.747 l 841.45,-4168.628 c -1200014.48,-2896.144 -31578.82,430.702 -934925.64,1111.832 49097.81,309962.353 82665.95,648999.093 129702.14,941201.743 55294.294,2304.62 479276.86,8923.76 638237.51,4211.26 z m -580955.106,1336.69 c 1875.883,-361.39 4945.509,-361.39 6821.391,0 1875.883,361.23 341.07,656.82 -3410.695,656.82 -3751.765,0 -5286.578,-295.59 -3410.696,-656.82 z"
                                   id="path4545"
                                   sodipodi:nodetypes="ssscsccssscccsccccccssssccscccccccssss" />
                                </g>
                                </g>
                                </g>
                                </g>
                                </g>
                                </g>
                                </g>
                                </g>
                                </g>
                                </g>
                                </g>
                                </g>
                                </g>
                                </g>
                                </g>
                                </g>
                                </g>
                                </g>
                                </g>
                                </g>
                                </g>
                                </g>
                                </g>
                                </g>
                                </g>
                                </g>
                                </g>
                                </g>
                                </g>
                                </g>
                                </g>
                                </g>
                                </g>
                                </g>
                                </g>
                                </g>
                                </g>
                                </g>
                                </g>
                                </g>
                                </g>
                                </g>
                                </g>
                                </g>
                                </g>
                                </g>
                                </g>
                                </g>
                                </g>
                                </g>
                                </g>
                                </g>
                              </g>
                            </g>
                          </g>
                        </g>
                      </g>
                    </g>
                  </g>
                </g>
              </g>
            </g>
          </g>
        </g>
      </g>
    </g>
  </g>
</svg>
