<?xml version="1.0" encoding="UTF-8" standalone="no"?>
<!-- Created with Inkscape (http://www.inkscape.org/) -->

<svg
   width="64"
   height="64"
   viewBox="0 0 16.933333 16.933334"
   version="1.1"
   id="svg5"
   inkscape:version="1.2 (dc2aedaf03, 2022-05-15)"
   sodipodi:docname="paupiette.svg"
   xml:space="preserve"
   xmlns:inkscape="http://www.inkscape.org/namespaces/inkscape"
   xmlns:sodipodi="http://sodipodi.sourceforge.net/DTD/sodipodi-0.dtd"
   xmlns="http://www.w3.org/2000/svg"
   xmlns:svg="http://www.w3.org/2000/svg"><sodipodi:namedview
     id="namedview7"
     pagecolor="#ffffff"
     bordercolor="#666666"
     borderopacity="1.0"
     inkscape:pageshadow="2"
     inkscape:pageopacity="0.0"
     inkscape:pagecheckerboard="0"
     inkscape:document-units="mm"
     showgrid="false"
     units="px"
     inkscape:zoom="8.1593493"
     inkscape:cx="20.222201"
     inkscape:cy="28.065963"
     inkscape:window-width="1920"
     inkscape:window-height="1017"
     inkscape:window-x="1912"
     inkscape:window-y="-8"
     inkscape:window-maximized="1"
     inkscape:current-layer="g4774"
     inkscape:showpageshadow="0"
     inkscape:deskcolor="#d1d1d1" /><defs
     id="defs2" /><g
     inkscape:label="Calque 1"
     inkscape:groupmode="layer"
     id="layer1"><g
       id="g4128"
       transform="translate(-0.63104184,0.12620835)"><g
         id="g5578"
         transform="translate(0.08924235,0.08924306)"><g
           id="g7501"
           transform="translate(-0.06310417,0.94656242)"><g
             id="g9467"
             transform="translate(-0.08924275,-0.80318511)"><g
               id="g10302"
               transform="translate(0.31234979,-0.04462139)"><g
                 id="g11479"
                 transform="translate(-0.12620833,0.06310418)"><g
                   id="g11873"
                   transform="translate(-0.23575769,0.66462456)"><g
                     id="g12382"
                     transform="translate(-121.98459,-82.267525)"><g
                       id="g13305"
                       transform="matrix(0.13266609,0,0,0.13266609,114.63867,78.215696)"><g
                         id="g17429"
                         transform="translate(0.90513437,5.6640979)"><g
                           id="g18595"
                           transform="translate(-3.3634362,-8.7449387)"><g
                             id="g21002"
                             transform="translate(1.7082278,-2.8204445)"><g
                               id="g23814"
                               transform="translate(8.7253043,-1.1218249)"><g
                                 id="g24838"
                                 transform="translate(11.143454,-0.85716864)"><g
                                   id="g25315"
                                   transform="translate(-3.490122,2.4929446)"><g
                                   id="g27220"
                                   transform="translate(2.4678888,1.2339445)"><g
                                   id="g29753"
                                   transform="translate(1.4759287,-2.3737724)"><g
                                   id="g30615"
                                   transform="translate(0.92006037,1.3687834)"><g
                                   id="g31433"
                                   transform="translate(-2.4678886,-1.410222)"><g
                                   id="g31731"
                                   transform="translate(1.0576664,-0.70511063)"><g
                                   id="g33243"
                                   transform="matrix(1.0772948,0,0,1.0772948,-7.3729128,-3.1743014)"><g
                                   id="g35254"
                                   transform="translate(-2.2135012,-0.92031205)"><g
                                   id="g36749"
                                   transform="translate(-0.98178042,-2.7817105)"><g
                                   id="g37297"
                                   transform="translate(-6.7755742,-3.5033798)"><g
                                   id="g38955"
                                   transform="matrix(1.2171094,0,0,1.2171094,-23.105122,-18.212482)"><g
                                   id="g39618"
                                   transform="translate(-0.26888273,-0.26888316)"><g
                                   id="g40032"
                                   transform="translate(-1.90129,-3.042064)"><g
                                   id="g40543"
                                   transform="translate(0.3802582,-2.0914191)"><g
                                   id="g41372"
                                   transform="translate(1.9657652,-7.9304203)"><g
                                   id="g43278"
                                   transform="translate(1.5210324,-0.38025789)"><g
                                   id="g44210"
                                   transform="matrix(1.1578947,0,0,1.1578947,-18.904476,-21.776183)"><g
                                   id="g44833"
                                   transform="matrix(1.1196819,0,0,1.1196819,-12.538538,-14.547543)"><g
                                   id="g47597"
                                   transform="translate(3.1109352,-1.2443743)"><g
                                   id="g48754"
                                   transform="translate(-2.9035392,-6.6366609)"><g
                                   id="g234"
                                   transform="matrix(0.04089637,0,0,0.04089637,104.63967,119.67231)"><g
                                   id="g2138"
                                   transform="translate(-86.211222,-40.569988)"><g
                                   id="g2696"
                                   transform="translate(-124306.44,-9412.2373)"><g
                                   id="g3765"
                                   transform="translate(25.356243,-50.712489)"><g
                                   id="g4557"
                                   transform="translate(46.61688,-35.859142)"><g
                                   id="g5244"
                                   transform="translate(7.1718407,14.343658)"><g
                                   id="g5807"
                                   transform="translate(-5.1984397,-21.113724)"><g
                                   id="g6945"
                                   transform="translate(-10.142522,-243.41993)"><g
                                   id="g11108"
                                   transform="translate(18.189368,-37.636113)"><g
                                   id="g15049"
                                   transform="translate(-65.926228,141.99496)"><g
                                   id="g19861"
                                   transform="matrix(0.07356842,0,0,0.07356842,115423.38,9039.2311)"><g
                                   id="g20437"
                                   transform="translate(-478.38824,-785.88156)"><g
                                   id="g21032"
                                   transform="translate(2047.1878,-1072.3367)"><g
                                   id="g21869"
                                   transform="matrix(0.04321578,0,0,0.04321578,117368,10137.003)"><g
                                   id="g25455"
                                   transform="translate(154741.46,-87178.414)"><g
                                   id="g26278"
                                   transform="translate(-18012.371,-8233.4417)"><g
                                   id="g27240"
                                   transform="translate(-0.00447131,5582.7624)"><g
                                   id="g28306"
                                   transform="translate(-15790.441,-2255.7767)"><g
                                   id="g33735"
                                   transform="translate(14662.549,-16918.328)"><g
                                   id="g37868"
                                   transform="translate(-5075.4976,25941.433)"><g
                                   id="g76752"
                                   transform="matrix(-1,0,0,1,9442.3174,-1595.0746)"><g
                                   id="g82459"
                                   transform="translate(3383.6668,-1127.8885)"><g
                                   id="g83208"
                                   transform="matrix(0.20332428,0,0,0.20332428,-15348.528,66747.475)"><g
                                   id="g83934"
                                   transform="matrix(-1,0,0,1,240692.18,94139.78)"><g
                                   id="g84550"
                                   transform="translate(-8.7627443e-5,55472.344)"><g
                                   id="g9096"
                                   transform="translate(31379.925,-62759.843)"><g
                                   id="g11527"
                                   transform="translate(61019.625,105397.54)"><g
                                   id="g13422"
                                   transform="translate(-44377.907,44377.908)"><g
                                   id="g1137"
                                   transform="translate(-3.3240812e-4,138680.92)"><g
                                   id="g3632"
                                   transform="translate(177511.65,-22188.943)"><g
                                   id="g5936"
                                   transform="translate(11767.473,-47069.909)"><g
                                   id="g7318"><g
                                   id="g11619"
                                   transform="translate(27457.436,-223581.94)" /><g
                                   id="g11985"
                                   transform="translate(70604.821,-133364.68)"><g
                                   id="g12707"
                                   transform="matrix(1.186974,0,0,1.186974,95904.637,-164033.62)"><g
                                   id="g4721"
                                   transform="matrix(-1,0,0,1,-561251.4,-59483.037)"><g
                                   id="g7072"><g
                                   id="g10426"
                                   transform="translate(66928.962,-211126.69)"><g
                                   id="g1231"
                                   transform="translate(-14020.287,4673.4667)"><g
                                   id="g2516"
                                   transform="matrix(1.1495428,0,0,1.1495428,-144709.4,-78762.736)"><g
                                   id="g3795"
                                   transform="translate(-22559.428,121623.52)"><g
                                   id="g5627"
                                   transform="translate(-106364.63,2874.7178)"><g
                                   id="g6621"
                                   transform="translate(-12196.407,40654.68)"><g
                                   id="g7772"
                                   transform="translate(28747.2,74742.673)"><g
                                   id="g8880"
                                   transform="translate(-60982.018,187011.51)"><g
                                   id="g11165"
                                   transform="translate(-44309.499,5172.6179)"><g
                                   id="g12249"
                                   transform="translate(48785.608,-8130.9328)"><g
                                   id="g14000"
                                   transform="matrix(1.0831477,0,0,1.0831477,-5722.2619,28128.151)"><g
                                   id="g15203"
                                   transform="translate(53158.943,24797.103)"><g
                                   id="g16076"
                                   transform="translate(-37533.822,-30027.061)"><g
                                   id="g17560"
                                   transform="translate(-21232.337,7962.1264)"><g
                                   id="g25114"
                                   transform="translate(-67560.839,7506.7636)"><g
                                   id="g29358"
                                   transform="translate(-21232.382,-47772.762)" /></g><g
                                   id="g54846"
                                   transform="translate(-89414.803,-58825.532)"><g
                                   id="g56152"
                                   transform="translate(-3.3655809e-4,28236.25)"><g
                                   id="g56999"
                                   transform="translate(-65884.586,-28236.251)"><g
                                   id="g58386"
                                   transform="translate(-26621.369,66553.488)"><g
                                   id="g59580"
                                   transform="matrix(1.3336607,0,0,1.3336607,-147290.21,2462.1241)"><g
                                   id="g60913"
                                   transform="translate(52929.981,10585.996)"><g
                                   id="g61494"
                                   transform="translate(83376.512,12462.173)"><g
                                   id="g64263"
                                   transform="translate(12959.021,17102.931)"><g
                                   id="g66681"
                                   transform="translate(34932.003,-24951.435)"><g
                                   id="g67253"
                                   transform="translate(-56458.648,35286.648)"><g
                                   id="g67911"
                                   transform="translate(-35291.329,-19495.235)"><g
                                   id="g68553"
                                   transform="translate(-128708.75,-9980.5274)"><g
                                   id="g69435"
                                   transform="translate(24951.434,-1.4872907e-4)"><g
                                   id="g8435"
                                   transform="translate(82339.72,-52398.003)"><g
                                   id="g8723"
                                   transform="translate(44912.576,-3.7330354e-4)"><g
                                   id="g9505"
                                   transform="translate(-45872.651,10585.997)"><g
                                   id="g9792"
                                   transform="translate(24700.656,-24700.661)"><g
                                   id="g15677"
                                   transform="matrix(0.08417283,0,0,0.08417283,193952.62,94764.147)"><g
                                   id="g438"
                                   transform="translate(-922276.57,-775550.79)"><g
                                   id="g836"
                                   transform="translate(398255.85,1152845.8)"><g
                                   id="g4134"
                                   transform="translate(59286.214,118572.37)"><g
                                   id="g4774"
                                   transform="translate(125764.96,167686.66)"><path
                                   style="fill:#f4eed7;stroke:none;stroke-width:267483px;stroke-linecap:butt;stroke-linejoin:miter;stroke-opacity:1"
                                   d="m 3816888.4,-3992787.6 c 0,0 880863.6,2387603.8 579515.5,3639357.07 -301348,1251753.64 69541.8,1645824.03 -417251.2,2318062.13 -486792.9,672237.8 -2828035.6,1390837.1 -3847982.64,1414017.7 -1019947.26,23180 -2758493.56,-23180.1 -3361189.66,-254986.9 -602696.1,-231806.1 -1043127.9,347709.4 -1321295.3,-1344476 -278167.5,-1692185.132 23180,-2086255.53 115903.1,-2897577.3 92722.3,-811321.6 162264.3,-347709.2 -92722.6,-1738546.3 -254986.9,-1390837.1 -857683,-1274934.2 509973.5,-1993533.2 1367656.6,-718599.2 2549868.2,-973586.1 3801621.49,-1066308.5 1251753.61,-92722.5 2387603.81,-394070.5 3059841.91,139083.8 672237.9,533154.1 857682.7,927224.7 927224.7,1228572.8 69541.8,301348 46361.2,556334.7 46361.2,556334.7 z"
                                   id="path5288" /><path
                                   style="fill:#e9afaf;stroke:none;stroke-width:217166px;stroke-linecap:butt;stroke-linejoin:miter;stroke-opacity:1"
                                   d="m 3059110.6,-3495803.5 c 0,0 715163,1938468.2 470502,2954752.37 C 3284951.5,475233.35 3586072.8,795174.47 3190851.1,1340956.9 2795629.6,1886739.1 894801.3,2470161.7 66717.963,2488981.8 -761365.5,2507801.4 -2172871.4,2470162.1 -2662193.5,2281960.8 c -489322.1,-188200.7 -846903.6,282301.3 -1072744.6,-1091564.7 -225840.9,-1373865.63 18819.6,-1693806.93 94100.5,-2352509.8 75280.1,-658702.8 131740.5,-282301.2 -75280.5,-1411505.9 -207020.9,-1129204.7 -696343,-1035104.5 414041.7,-1618526.8 1110384.8,-583422.5 2070208.8,-790443.5 3086493.03,-865723.7 1016284.44,-75280.4 1938468.27,-319941.4 2484250.67,112920.6 545782.3,432861.7 696342.8,752803.1 752803.1,997464.2 56460.3,244661 37640.2,451681.8 37640.2,451681.8 z"
                                   id="path5312" /><path
                                   style="fill:none;fill-opacity:1;stroke:#f4eed7;stroke-width:267483px;stroke-linecap:butt;stroke-linejoin:miter;stroke-opacity:1"
                                   d="m 3793707.7,-1767448.2 c -1460378.8,254986.9 -996766.4,417251.2 -1900810.6,301348 -904044.2,-115902.9 -672238.2,-231806 -1599462.88,-46361.1 -927224.65,185444.8 -857682.65,115903.1 -1622643.02,301348 -764960.4,185444.9 -764960.4,347709.17 -1529920.9,301347.97 -764960.6,-46361.1 -904044.1,-92722.47 -904044.1,-92722.47"
                                   id="path5314" /><path
                                   style="fill:none;fill-opacity:1;stroke:#f4eed7;stroke-width:271302px;stroke-linecap:butt;stroke-linejoin:miter;stroke-opacity:1"
                                   d="m -603044.73,-5277740.4 c 254507.54,1505205.9 416466.78,1027362.6 300781.48,1959156.9 -115685,931794.3 -231370.2,692872.8 -46273.94,1648559.3 185096.16,955686.17 115685.2,884009.57 300781.463,1672450.7678 C 137340.53,790867.83 299299.77,790867.83 253025.73,1579309.2 c -46273.94,788441.5 -92548.18,931794.2 -92548.18,931794.2"
                                   id="path5314-7" /></g></g></g></g></g></g></g></g></g></g></g></g></g></g></g></g></g></g></g></g></g></g></g></g></g></g></g></g></g></g></g></g></g></g></g></g></g></g></g></g></g></g></g></g></g></g></g></g></g></g></g></g></g></g></g></g></g></g></g></g></g></g></g></g></g></g></g></g></g></g></g></g></g></g></g></g></g></g></g></g></g></g></g></g></g></g></g></g></g></g></g></g></g></g></g></g></g></g></g></g></g></g></g></g></g></g></g></svg>
