<?xml version="1.0" encoding="UTF-8" standalone="no"?>
<!-- Created with Inkscape (http://www.inkscape.org/) -->

<svg
   width="64"
   height="64"
   viewBox="0 0 16.933333 16.933334"
   version="1.1"
   id="svg5"
   inkscape:version="1.2 (dc2aedaf03, 2022-05-15)"
   sodipodi:docname="pesto.svg"
   xmlns:inkscape="http://www.inkscape.org/namespaces/inkscape"
   xmlns:sodipodi="http://sodipodi.sourceforge.net/DTD/sodipodi-0.dtd"
   xmlns="http://www.w3.org/2000/svg"
   xmlns:svg="http://www.w3.org/2000/svg">
  <sodipodi:namedview
     id="namedview7"
     pagecolor="#ffffff"
     bordercolor="#666666"
     borderopacity="1.0"
     inkscape:pageshadow="2"
     inkscape:pageopacity="0.0"
     inkscape:pagecheckerboard="0"
     inkscape:document-units="mm"
     showgrid="false"
     units="px"
     inkscape:zoom="11.313709"
     inkscape:cx="24.2626"
     inkscape:cy="36.946328"
     inkscape:window-width="1920"
     inkscape:window-height="1017"
     inkscape:window-x="1912"
     inkscape:window-y="-8"
     inkscape:window-maximized="1"
     inkscape:current-layer="g69435"
     inkscape:showpageshadow="2"
     inkscape:deskcolor="#d1d1d1" />
  <defs
     id="defs2" />
  <g
     inkscape:label="Calque 1"
     inkscape:groupmode="layer"
     id="layer1">
    <g
       id="g4128"
       transform="translate(-0.63104184,0.12620835)">
      <g
         id="g5578"
         transform="translate(0.08924235,0.08924306)">
        <g
           id="g7501"
           transform="translate(-0.06310417,0.94656242)">
          <g
             id="g9467"
             transform="translate(-0.08924275,-0.80318511)">
            <g
               id="g10302"
               transform="translate(0.31234979,-0.04462139)">
              <g
                 id="g11479"
                 transform="translate(-0.12620833,0.06310418)">
                <g
                   id="g11873"
                   transform="translate(-0.23575769,0.66462456)">
                  <g
                     id="g12382"
                     transform="translate(-121.98459,-82.267525)">
                    <g
                       id="g13305"
                       transform="matrix(0.13266609,0,0,0.13266609,114.63867,78.215696)">
                      <g
                         id="g17429"
                         transform="translate(0.90513437,5.6640979)">
                        <g
                           id="g18595"
                           transform="translate(-3.3634362,-8.7449387)">
                          <g
                             id="g21002"
                             transform="translate(1.7082278,-2.8204445)">
                            <g
                               id="g23814"
                               transform="translate(8.7253043,-1.1218249)">
                              <g
                                 id="g24838"
                                 transform="translate(11.143454,-0.85716864)">
                                <g
                                   id="g25315"
                                   transform="translate(-3.490122,2.4929446)">
                                <g
                                   id="g27220"
                                   transform="translate(2.4678888,1.2339445)">
                                <g
                                   id="g29753"
                                   transform="translate(1.4759287,-2.3737724)">
                                <g
                                   id="g30615"
                                   transform="translate(0.92006037,1.3687834)">
                                <g
                                   id="g31433"
                                   transform="translate(-2.4678886,-1.410222)">
                                <g
                                   id="g31731"
                                   transform="translate(1.0576664,-0.70511063)">
                                <g
                                   id="g33243"
                                   transform="matrix(1.0772948,0,0,1.0772948,-7.3729128,-3.1743014)">
                                <g
                                   id="g35254"
                                   transform="translate(-2.2135012,-0.92031205)">
                                <g
                                   id="g36749"
                                   transform="translate(-0.98178042,-2.7817105)">
                                <g
                                   id="g37297"
                                   transform="translate(-6.7755742,-3.5033798)">
                                <g
                                   id="g38955"
                                   transform="matrix(1.2171094,0,0,1.2171094,-23.105122,-18.212482)">
                                <g
                                   id="g39618"
                                   transform="translate(-0.26888273,-0.26888316)">
                                <g
                                   id="g40032"
                                   transform="translate(-1.90129,-3.042064)">
                                <g
                                   id="g40543"
                                   transform="translate(0.3802582,-2.0914191)">
                                <g
                                   id="g41372"
                                   transform="translate(1.9657652,-7.9304203)">
                                <g
                                   id="g43278"
                                   transform="translate(1.5210324,-0.38025789)">
                                <g
                                   id="g44210"
                                   transform="matrix(1.1578947,0,0,1.1578947,-18.904476,-21.776183)">
                                <g
                                   id="g44833"
                                   transform="matrix(1.1196819,0,0,1.1196819,-12.538538,-14.547543)">
                                <g
                                   id="g47597"
                                   transform="translate(3.1109352,-1.2443743)">
                                <g
                                   id="g48754"
                                   transform="translate(-2.9035392,-6.6366609)">
                                <g
                                   id="g234"
                                   transform="matrix(0.04089637,0,0,0.04089637,104.63967,119.67231)">
                                <g
                                   id="g2138"
                                   transform="translate(-86.211222,-40.569988)">
                                <g
                                   id="g2696"
                                   transform="translate(-124306.44,-9412.2373)">
                                <g
                                   id="g3765"
                                   transform="translate(25.356243,-50.712489)">
                                <g
                                   id="g4557"
                                   transform="translate(46.61688,-35.859142)">
                                <g
                                   id="g5244"
                                   transform="translate(7.1718407,14.343658)">
                                <g
                                   id="g5807"
                                   transform="translate(-5.1984397,-21.113724)">
                                <g
                                   id="g6945"
                                   transform="translate(-10.142522,-243.41993)">
                                <g
                                   id="g11108"
                                   transform="translate(18.189368,-37.636113)">
                                <g
                                   id="g15049"
                                   transform="translate(-65.926228,141.99496)">
                                <g
                                   id="g19861"
                                   transform="matrix(0.07356842,0,0,0.07356842,115423.38,9039.2311)">
                                <g
                                   id="g20437"
                                   transform="translate(-478.38824,-785.88156)">
                                <g
                                   id="g21032"
                                   transform="translate(2047.1878,-1072.3367)">
                                <g
                                   id="g21869"
                                   transform="matrix(0.04321578,0,0,0.04321578,117368,10137.003)">
                                <g
                                   id="g25455"
                                   transform="translate(154741.46,-87178.414)">
                                <g
                                   id="g26278"
                                   transform="translate(-18012.371,-8233.4417)">
                                <g
                                   id="g27240"
                                   transform="translate(-0.00447131,5582.7624)">
                                <g
                                   id="g28306"
                                   transform="translate(-15790.441,-2255.7767)">
                                <g
                                   id="g33735"
                                   transform="translate(14662.549,-16918.328)">
                                <g
                                   id="g37868"
                                   transform="translate(-5075.4976,25941.433)">
                                <g
                                   id="g76752"
                                   transform="matrix(-1,0,0,1,9442.3174,-1595.0746)">
                                <g
                                   id="g82459"
                                   transform="translate(3383.6668,-1127.8885)">
                                <g
                                   id="g83208"
                                   transform="matrix(0.20332428,0,0,0.20332428,-15348.528,66747.475)">
                                <g
                                   id="g83934"
                                   transform="matrix(-1,0,0,1,240692.18,94139.78)">
                                <g
                                   id="g84550"
                                   transform="translate(-8.7627443e-5,55472.344)">
                                <g
                                   id="g9096"
                                   transform="translate(31379.925,-62759.843)">
                                <g
                                   id="g11527"
                                   transform="translate(61019.625,105397.54)">
                                <g
                                   id="g13422"
                                   transform="translate(-44377.907,44377.908)">
                                <g
                                   id="g1137"
                                   transform="translate(-3.3240812e-4,138680.92)">
                                <g
                                   id="g3632"
                                   transform="translate(177511.65,-22188.943)">
                                <g
                                   id="g5936"
                                   transform="translate(11767.473,-47069.909)">
                                <g
                                   id="g7318">
                                <g
                                   id="g11619"
                                   transform="translate(27457.436,-223581.94)" />
                                <g
                                   id="g11985"
                                   transform="translate(70604.821,-133364.68)">
                                <g
                                   id="g12707"
                                   transform="matrix(1.186974,0,0,1.186974,95904.637,-164033.62)">
                                <g
                                   id="g4721"
                                   transform="matrix(-1,0,0,1,-561251.4,-59483.037)">
                                <g
                                   id="g7072">
                                <g
                                   id="g10426"
                                   transform="translate(66928.962,-211126.69)">
                                <g
                                   id="g1231"
                                   transform="translate(-14020.287,4673.4667)">
                                <g
                                   id="g2516"
                                   transform="matrix(1.1495428,0,0,1.1495428,-144709.4,-78762.736)">
                                <g
                                   id="g3795"
                                   transform="translate(-22559.428,121623.52)">
                                <g
                                   id="g5627"
                                   transform="translate(-106364.63,2874.7178)">
                                <g
                                   id="g6621"
                                   transform="translate(-12196.407,40654.68)">
                                <g
                                   id="g7772"
                                   transform="translate(28747.2,74742.673)">
                                <g
                                   id="g8880"
                                   transform="translate(-60982.018,187011.51)">
                                <g
                                   id="g11165"
                                   transform="translate(-44309.499,5172.6179)">
                                <g
                                   id="g12249"
                                   transform="translate(48785.608,-8130.9328)">
                                <g
                                   id="g14000"
                                   transform="matrix(1.0831477,0,0,1.0831477,-5722.2619,28128.151)">
                                <g
                                   id="g15203"
                                   transform="translate(53158.943,24797.103)">
                                <g
                                   id="g16076"
                                   transform="translate(-37533.822,-30027.061)">
                                <g
                                   id="g17560"
                                   transform="translate(-21232.337,7962.1264)">
                                <g
                                   id="g25114"
                                   transform="translate(-67560.839,7506.7636)">
                                <g
                                   id="g29358"
                                   transform="translate(-21232.382,-47772.762)" />
                                </g>
                                <g
                                   id="g54846"
                                   transform="translate(-89414.803,-58825.532)">
                                <g
                                   id="g56152"
                                   transform="translate(-3.3655809e-4,28236.25)">
                                <g
                                   id="g56999"
                                   transform="translate(-65884.586,-28236.251)">
                                <g
                                   id="g58386"
                                   transform="translate(-26621.369,66553.488)">
                                <g
                                   id="g59580"
                                   transform="matrix(1.3336607,0,0,1.3336607,-147290.21,2462.1241)">
                                <g
                                   id="g60913"
                                   transform="translate(52929.981,10585.996)">
                                <g
                                   id="g61494"
                                   transform="translate(83376.512,12462.173)">
                                <g
                                   id="g64263"
                                   transform="translate(12959.021,17102.931)">
                                <g
                                   id="g66681"
                                   transform="translate(34932.003,-24951.435)">
                                <g
                                   id="g67253"
                                   transform="translate(-56458.648,35286.648)">
                                <g
                                   id="g67911"
                                   transform="translate(-35291.329,-19495.235)">
                                <g
                                   id="g68553"
                                   transform="translate(-128708.75,-9980.5274)">
                                <g
                                   id="g69435"
                                   transform="translate(24951.434,-1.4872907e-4)">
                                <path
                                   style="fill:#241c1c;stroke-width:592.592"
                                   d="m 507790.03,-187682.06 c 6676.19,-6412.46 48282.41,-16483.55 39564.73,-4319.48 11876.23,-14178 -10495.8,-70310.35 553.75,-55797.2 -18200.12,-14966.24 -87315,-4406.12 -65824.61,-2472.78 -174895.5,-205.17 -348388.78,-7366.71 -523281.316,-6495.42 -39854.591,3357.02 -24310.522,69406.65 -22079.334,46575.89 1381.307,23204.19 61223.3022,25423.38 43373.865,27150.65 74931.896,-4435.88 150121.645,-2289.68 225162.355,-2579.9 105989.04,1501.09 211712.18,-5589.97 302530.56,-2061.76 z m -513258.5602,4603.25 H 492305.66 c -164712.7,1124.22 -329434.53,-1751.51 -494141.7381,-374.75 z"
                                   id="path69443"
                                   sodipodi:nodetypes="ccssssscccssc" />
                                <path
                                   style="fill:#338000;stroke-width:592.592"
                                   d="m 509829.47,474729.12 c 40529.44,-2831.79 75126.43,-23662.02 85278.73,-51344.85 6198.06,-178182.76 2935.11,-258300.42 2801.01,-516010.179 -19142.69,-15961.531 -22164.45,-24242.771 -34527.26,-30273.981 3158.76,-277.85 -590766.522,34377.252 -673444.27,27550.926 l -1598.89,4218.135 V 413710.94 l 1577.82,5035.51 c 4247.63,13555.94 12478.011,24955.84 24593.491,34064.56 17043.358,12813.61 38038.046,20163.88 62559.292,21902.12 9075.863,643.38 523559.797,658.78 532760.077,15.94 z m 6428.83,-610608.09 c 313772.61,-410401.47 156886.3,-205200.73 0,0 z"
                                   id="path69441"
                                   sodipodi:nodetypes="sccccccssssscc" />
                                <path
                                   style="fill:#414143;stroke-width:592.618"
                                   d="m 509829.47,474729.07 c 40529.44,-2832.04 75126.43,-23664.12 85278.73,-51349.4 6198.06,-178198.61 2935.11,-258323.37 2801.01,-516056.03 l -1615.84,-3684.763 c -18884.92,-25463.397 -45506.95,-31767.927 -69692.54,-49726.817 l -3989.53,-4154.29 c 12246.31,-9008.02 10663.47,-16363.4 3615.1,-22223.57 -3519.4,-2248.99 -6454.48,-3126.8 -11768.51,-3519.66 -6744.15,-101.75 -3274.96,-3952.4 -5817.67,-7021.07 l 9754.92,-257.21 c 11046.65,-291.28 15260.93,-1092.88 21741.51,-4135.48 7145.52,-3354.78 12593.49,-9073.05 14363.28,-15075.89 1040.01,-3527.55 1040.01,-32059.51 0,-35587.06 -2817.2,-9555.46 -14660.54,-17472.61 -28213.54,-18860.46 -6653.68,-681.34 -562963.061,-592.48 -567483.806,90.65 -11557.19,1746.43 -21502.803,7961.12 -25875.575,16168.87 -3317.957,14316.45 -1399.649,23038.85 -287.14,40081.56 2063.251,4290.77 4982.848,7557.61 9444.334,10567.64 7519.121,5072.97 14861.448,6876.61 27993.504,6876.61 6618.573,0 8181.262,132.6 7889.993,669.48 -765.123,2127.86 -847.715,3919.47 -1336.353,6178.73 -8393.663,-998.71 -19632.237,1329.74 -20515.477,7828.44 -1188.161,1582.41 -1516.734,2883.76 -1516.734,6007.26 -1320.041,10934.79 4726.697,9579.07 9358.931,12147.22 -21955.241,23796.42 -54912.971,34951.45 -74020.387,54906.512 l -1598.89,4218.51 V 161262.16 413705.47 l 1577.82,5035.97 c 4247.63,13557.14 12478.011,24958.05 24593.491,34067.58 17043.358,12814.74 38038.046,20165.67 62559.292,21904.06 9075.863,643.45 523559.797,658.85 532760.077,15.95 z M -33918.154,461716.06 c -14507.65,-2835.58 -25870.853,-7409.42 -36625.531,-14742.19 -14389.764,-9811.3 -22639.594,-22133.01 -24589.044,-36725.45 -1170.48,-8761.44 -567.09,-499725.542 617.75,-502661.714 3372.26,-8356.816 9023.1,-12701.826 28035.646,-21557.166 19610.343,-9795.24 35703.891,-19798.41 47576.725,-34776.73 H 505604.06 c 4163.77,6195 10166.73,11172.59 14874.99,15971.15 20724.11,14434.76 37152.65,19899.17 57582.88,34875.093 6868.11,171872.156 8661.43,260679.717 2902.18,513158.767 -15293.57,30757.08 -36273.59,40555.05 -64088.26,47028.37 -222961.92,2386.63 -392165.6,513.45 -550794.004,-570.13 z m 4504.046,-621705.67 c -1900.127,-941.4 -2109.968,-3455.42 -399.882,-4791.97 187621.04,-1805.79 282640.31,-911.46 544825.96,-911.46 5485.47,1828.44 0,4980.9 0,6479.3 -181416.68,-1376.36 -363138.46,2183.79 -544426.078,-775.87 z m 22391.6328,-16502.96 c 447.034,-2380.74 972.4293,-4158.15 1553.945,-6644.73 H 492305.66 c 454.5,2325.9 908.99,4651.81 1363.49,6977.71 -166894.6,-281.12 -333802.73,468.65 -500691.6252,-332.98 z m -31833.6408,-18622.71 c -4840.863,-951.01 -9175.091,-3470.85 -11485.739,-6677.55 l -2129.769,-2955.72 c -793.932,-10822.27 672.69,-23593.08 1471.355,-33219.14 1772.587,-2708.65 5062.119,-5126.44 9003.441,-6617.55 l 2913.326,-1102.18 280779.092,-127.68 c 310863.4,-141.35 284996.89,-421.74 290901.67,3153.28 1650.05,999.01 3702.61,2745.49 4561.23,3881.06 1502.75,1987.45 1569.08,2655.51 1773.72,17861.43 203.91,15153.02 151.89,15896.54 -1276.67,18245.4 -1905.2,3132.58 -5849.3,5849.27 -10260.79,7067.62 -3405.72,940.57 -8860.31,959.42 -283566.11,979.56 -188560.359,13.8 -280940.354,-145.83 -282684.756,-488.53 z"
                                   id="path69439"
                                   sodipodi:nodetypes="sccccccccssssssccsscccccccccssssscsssccccccccccccccccccssccscssssssss" />
                                </g>
                                </g>
                                </g>
                                </g>
                                </g>
                                </g>
                                </g>
                                </g>
                                </g>
                                </g>
                                </g>
                                </g>
                                </g>
                                </g>
                                </g>
                                </g>
                                </g>
                                </g>
                                </g>
                                </g>
                                </g>
                                </g>
                                </g>
                                </g>
                                </g>
                                </g>
                                </g>
                                </g>
                                </g>
                                </g>
                                </g>
                                </g>
                                </g>
                                </g>
                                </g>
                                </g>
                                </g>
                                </g>
                                </g>
                                </g>
                                </g>
                                </g>
                                </g>
                                </g>
                                </g>
                                </g>
                                </g>
                                </g>
                                </g>
                                </g>
                                </g>
                                </g>
                                </g>
                                </g>
                                </g>
                                </g>
                                </g>
                                </g>
                                </g>
                                </g>
                                </g>
                                </g>
                                </g>
                                </g>
                                </g>
                                </g>
                                </g>
                                </g>
                                </g>
                                </g>
                                </g>
                                </g>
                                </g>
                                </g>
                                </g>
                                </g>
                                </g>
                                </g>
                                </g>
                                </g>
                                </g>
                                </g>
                                </g>
                              </g>
                            </g>
                          </g>
                        </g>
                      </g>
                    </g>
                  </g>
                </g>
              </g>
            </g>
          </g>
        </g>
      </g>
    </g>
  </g>
</svg>
