<?xml version="1.0" encoding="UTF-8" standalone="no"?>
<!-- Created with Inkscape (http://www.inkscape.org/) -->

<svg
   width="64"
   height="64"
   viewBox="0 0 16.933333 16.933334"
   version="1.1"
   id="svg5"
   inkscape:version="1.2 (dc2aedaf03, 2022-05-15)"
   sodipodi:docname="physalis.svg"
   xml:space="preserve"
   xmlns:inkscape="http://www.inkscape.org/namespaces/inkscape"
   xmlns:sodipodi="http://sodipodi.sourceforge.net/DTD/sodipodi-0.dtd"
   xmlns="http://www.w3.org/2000/svg"
   xmlns:svg="http://www.w3.org/2000/svg"><sodipodi:namedview
     id="namedview7"
     pagecolor="#ffffff"
     bordercolor="#666666"
     borderopacity="1.0"
     inkscape:pageshadow="2"
     inkscape:pageopacity="0.0"
     inkscape:pagecheckerboard="0"
     inkscape:document-units="mm"
     showgrid="false"
     units="px"
     inkscape:zoom="16"
     inkscape:cx="28.71875"
     inkscape:cy="38.5"
     inkscape:window-width="1920"
     inkscape:window-height="1017"
     inkscape:window-x="1912"
     inkscape:window-y="-8"
     inkscape:window-maximized="1"
     inkscape:current-layer="g5718"
     inkscape:showpageshadow="2"
     inkscape:deskcolor="#d1d1d1" /><defs
     id="defs2" /><g
     inkscape:label="Calque 1"
     inkscape:groupmode="layer"
     id="layer1"><g
       id="g4128"
       transform="translate(-0.63104184,0.12620835)"><g
         id="g5578"
         transform="translate(0.08924235,0.08924306)"><g
           id="g7501"
           transform="translate(-0.06310417,0.94656242)"><g
             id="g9467"
             transform="translate(-0.08924275,-0.80318511)"><g
               id="g10302"
               transform="translate(0.31234979,-0.04462139)"><g
                 id="g11479"
                 transform="translate(-0.12620833,0.06310418)"><g
                   id="g11873"
                   transform="translate(-0.23575769,0.66462456)"><g
                     id="g12382"
                     transform="translate(-121.98459,-82.267525)"><g
                       id="g13305"
                       transform="matrix(0.13266609,0,0,0.13266609,114.63867,78.215696)"><g
                         id="g17429"
                         transform="translate(0.90513437,5.6640979)"><g
                           id="g18595"
                           transform="translate(-3.3634362,-8.7449387)"><g
                             id="g21002"
                             transform="translate(1.7082278,-2.8204445)"><g
                               id="g23814"
                               transform="translate(8.7253043,-1.1218249)"><g
                                 id="g24838"
                                 transform="translate(11.143454,-0.85716864)"><g
                                   id="g25315"
                                   transform="translate(-3.490122,2.4929446)"><g
                                   id="g27220"
                                   transform="translate(2.4678888,1.2339445)"><g
                                   id="g29753"
                                   transform="translate(1.4759287,-2.3737724)"><g
                                   id="g30615"
                                   transform="translate(0.92006037,1.3687834)"><g
                                   id="g31433"
                                   transform="translate(-2.4678886,-1.410222)"><g
                                   id="g31731"
                                   transform="translate(1.0576664,-0.70511063)"><g
                                   id="g33243"
                                   transform="matrix(1.0772948,0,0,1.0772948,-7.3729128,-3.1743014)"><g
                                   id="g35254"
                                   transform="translate(-2.2135012,-0.92031205)"><g
                                   id="g36749"
                                   transform="translate(-0.98178042,-2.7817105)"><g
                                   id="g37297"
                                   transform="translate(-6.7755742,-3.5033798)"><g
                                   id="g38955"
                                   transform="matrix(1.2171094,0,0,1.2171094,-23.105122,-18.212482)"><g
                                   id="g39618"
                                   transform="translate(-0.26888273,-0.26888316)"><g
                                   id="g40032"
                                   transform="translate(-1.90129,-3.042064)"><g
                                   id="g40543"
                                   transform="translate(0.3802582,-2.0914191)"><g
                                   id="g41372"
                                   transform="translate(1.9657652,-7.9304203)"><g
                                   id="g43278"
                                   transform="translate(1.5210324,-0.38025789)"><g
                                   id="g44210"
                                   transform="matrix(1.1578947,0,0,1.1578947,-18.904476,-21.776183)"><g
                                   id="g44833"
                                   transform="matrix(1.1196819,0,0,1.1196819,-12.538538,-14.547543)"><g
                                   id="g47597"
                                   transform="translate(3.1109352,-1.2443743)"><g
                                   id="g48754"
                                   transform="translate(-2.9035392,-6.6366609)"><g
                                   id="g234"
                                   transform="matrix(0.04089637,0,0,0.04089637,104.63967,119.67231)"><g
                                   id="g2138"
                                   transform="translate(-86.211222,-40.569988)"><g
                                   id="g2696"
                                   transform="translate(-124306.44,-9412.2373)"><g
                                   id="g3765"
                                   transform="translate(25.356243,-50.712489)"><g
                                   id="g4557"
                                   transform="translate(46.61688,-35.859142)"><g
                                   id="g5244"
                                   transform="translate(7.1718407,14.343658)"><g
                                   id="g5807"
                                   transform="translate(-5.1984397,-21.113724)"><g
                                   id="g6945"
                                   transform="translate(-10.142522,-243.41993)"><g
                                   id="g11108"
                                   transform="translate(18.189368,-37.636113)"><g
                                   id="g15049"
                                   transform="translate(-65.926228,141.99496)"><g
                                   id="g5537"
                                   transform="translate(-618.57021,62.753502)"><g
                                   id="g5586"
                                   transform="translate(15.213747,-35.49874)"><g
                                   id="g5718"
                                   transform="translate(69.925328,26.894357)"><path
                                   style="fill:#fca559;stroke-width:1.16558"
                                   d="m 125376.07,9945.0813 c -43.01,-9.7066 -119.19,3.067 -168.59,-28.3029 -92.22,-40.5258 -187.4,-77.0052 -285.76,-98.9331 -23.16,-22.6385 21.09,-91.104 18.02,-132.8408 18.93,-81.7961 17.25,-167.3436 40.92,-247.8913 53.8,-148.9973 209.43,-236.8143 359.38,-259.7769 91.05,-11.47 170.94,57.8482 204.55,137.5435 44.76,-3.0663 71.7,93.417 101.39,29.6088 41.64,-32.2419 32.17,-119.388 67.55,-135.0866 1.53,57.5405 -27.02,116.7917 -65.14,160.1451 -38.57,28.7436 31.08,75.0159 10.05,117.1227 -5.27,45.8674 49.94,81.3474 47.31,131.378 13.12,53.4482 -17.07,113.1658 -39.94,150.6844 0,0 -289.54,182.1117 -289.74,176.3491 z"
                                   id="path5730"
                                   sodipodi:nodetypes="cccccccccccccc" /><path
                                   style="fill:#f2c142;stroke-width:1.16558"
                                   d="m 125376.83,9947.6319 c 0.62,-5.41 1.01,-9.935 0.87,-10.0556 -0.15,-0.1206 -5.78,0.5655 -12.51,1.5246 -15.74,2.2429 -59.49,2.5078 -74.6,0.4518 -30.18,-4.1068 -58.41,-11.9035 -82.75,-22.8512 -48.4,-21.7685 -56.66,-25.2474 -89.17,-37.5565 -53.82,-20.3781 -109.4,-38.8309 -171.56,-56.9657 -14.47,-4.2229 -19.42,-5.1641 -27.12,-5.1641 -8.94,0 -9.49,-0.1505 -10.76,-2.9376 -1.41,-3.0814 -0.8,-4.6404 7.43,-19.2085 2.31,-4.0705 5.09,-15.8171 12.42,-52.4514 18.21,-90.9726 29.14,-159.3094 35.12,-219.7127 5.07,-51.2648 12.86,-81.5489 30.37,-118.0444 8.5,-17.7038 10.28,-20.8258 21.97,-38.4842 16.81,-25.3948 38.21,-49.6947 63.67,-72.3105 8.4,-7.4674 33.29,-26.1757 47.79,-35.9296 47.18,-31.7384 115.42,-60.3365 177.16,-74.2398 24.03,-5.4099 29.47,-6.0068 54.2,-5.9416 21.89,0.058 25.08,0.3363 37.89,3.3082 39.59,9.1868 72.98,29.9129 102.6,63.7004 13.34,15.2148 32.39,44.6565 40.38,62.4164 3.67,8.1617 4.02,8.5403 9.06,9.8077 8.83,2.2251 20.75,7.8122 31.34,14.6959 9.64,6.2697 27.37,22.8367 36.33,33.9589 2.2,2.7246 4.28,4.9416 4.62,4.9267 1.29,-0.056 9.11,-7.8934 18,-18.0395 28.19,-32.1445 48.44,-77.2058 56.05,-124.7176 2.62,-16.3602 2.71,-16.695 5.28,-19.2618 2.76,-2.762 7.81,-2.9783 11.37,-0.487 3.2,2.2432 3.39,8.0213 0.78,23.2456 -5.72,33.2871 -19.63,72.6529 -33.77,95.5779 -1.58,2.5643 -3.24,5.4492 -3.69,6.4108 -0.99,2.1278 -16.37,23.8423 -20.27,28.6194 -1.54,1.8888 -7.4,8.1258 -13.02,13.86 l -10.21,10.4259 6.9,14.0514 c 10.64,21.6512 15.24,35.6214 18.23,55.4297 1.88,12.4347 2.07,25.6852 0.49,34.3847 -2.92,16.109 -3.05,14.9174 2.56,22.3379 14.78,19.5273 31.39,53.4259 38.92,79.4156 17.05,58.8424 6.99,117.591 -28.1,164.1196 -4.06,5.3805 -7.65,10.2214 -7.98,10.7578 -0.33,0.5363 5.01,3.4188 11.88,6.4056 -83.45,40.6503 -292.96,165.4068 -298.17,174.5268 z m 213.22,-145.2931 c -949.44,-698.1707 -474.72,-349.0853 0,0 z"
                                   id="path5728"
                                   sodipodi:nodetypes="ccsscccscccccccccccccccccccccccccccccccccscccc" /><path
                                   style="fill:#ebad36;stroke-width:1.16558"
                                   d="m 125377.7,9937.5763 c -76.54,13.9741 -152.66,-8.4988 -220.4,-43.2003 -80.83,-32.1251 -165.15,-61.9181 -248.76,-81.3 26.17,-64.6326 31.31,-136.8219 44.77,-205.3049 12.23,-85.898 12.49,-179.8048 69.75,-251.0653 74.98,-101.4732 197.47,-162.2674 320.78,-178.8108 90.1,-10.4537 166.85,58.5926 200.41,136.7741 49.94,13.9713 84.31,90.69 114.91,11.4938 32.81,-30.2955 20.47,-101.8205 53.12,-118.0997 3.02,61.9636 -29.2,125.8697 -72.47,170.2779 -15.49,27.8772 32.2,67.7787 18.76,104.4334 2.6,60.88 65.78,116.0146 47.62,185.2089 10.55,47.8419 -78.47,101.353 -7.75,117.0677 0,0 -317.65,154.8651 -320.74,152.5252 z m 120.11,-118.4776 c -887.95,-709.3439 -443.97,-354.672 0,0 z"
                                   id="path5726"
                                   sodipodi:nodetypes="cccccccccccccccc" /><path
                                   style="fill:#f49027;stroke-width:1.16558"
                                   d="m 125377.71,9937.5353 c -807.88,-788.3017 -403.94,-394.1508 0,0 z"
                                   id="path5724"
                                   sodipodi:nodetypes="cc" /><path
                                   style="fill:#ed911c;stroke-width:1.16558"
                                   d="m 125306.92,9941.0453 c -89.84,-6.9086 -165.74,-61.3673 -251.26,-84.912 -25.66,-10.4974 62.88,20.0015 83,28.4243 68.86,30.5561 141.83,61.7158 219.03,49.0433 65.2,-5.4955 -37.97,14.6309 -50.77,7.4444 z m -131.13,-77.5251 c -59.27,-3.65 -121.15,-14.6687 -177.21,-26.6169 -19.16,-7.1796 -103.32,-23.7277 -40.17,-21.563 120,-9.6949 244.27,-11.7784 357.84,-55.2791 127.92,-65.1302 283.47,-168.1234 330.75,-252.6751 16.89,-21.7969 4.43,-97.0678 11.24,-31.6854 -3.47,54.4822 26.02,112.7775 -4.96,166.1426 -75.47,110.6721 -218,199.3316 -338.81,214.7485 -45.81,7.8469 -92.45,8.2348 -138.68,6.9284 z m -143.36,-15.1333 c -11.52,-6.5139 22.23,8.7137 0,0 z m -123.06,-33.9282 c 15.38,-47.283 51.92,-88.2292 76.51,-132.2994 62.6,-95.5306 128.3,-195.9615 231.91,-251.2928 91.84,-53.8302 190.65,-105.6395 298,-116.6656 34.03,6.4893 22.18,-13.6842 9.27,-15.3372 -65.96,-61.8468 -171.86,-65.5541 -255.13,-36.0576 -37.28,20.2406 -85.45,35.2161 -114.26,58.5644 -86.17,48.9568 -124.52,146.4215 -157.64,234.2315 -13.8,37.0295 -82.74,242.1934 -64.25,165.1165 19.91,-88.3447 24.44,-179.2782 42.47,-267.7606 45.65,-155.0122 203.32,-246.9464 354.28,-274.1428 65.44,-10.6313 134.96,20.2893 172.88,71.9059 22.61,25.886 17.88,21.7456 29.67,43.8042 2.06,3.9676 52.55,27.2952 68.97,56.051 40.44,47.2568 74.62,-59.8917 87.36,-93.6322 -5.67,-32.8113 32.24,-76.674 22.49,-19.579 -11.19,55.2417 -36.65,111.8337 -80.91,147.2764 -33.01,-4.0235 -77.01,46.282 -113.13,60.5121 -109.92,74.5265 -84.22,60.2844 -153.01,92.8301 -146.26,89.1086 -290.71,177.0442 -437.58,265.5833 -7.88,0.7608 -10.83,9.0097 -17.9,10.8918 z m 24.27,-78.1456 c -0.82,-5.8919 -1.57,7.9007 0,0 z m 114.93,-303.4084 c -3.74,-4.5928 1.26,5.7798 0,0 z m 69.14,-149.2072 c -8.31,-4.6952 -1.99,4.9147 0,0 z m 586.48,349.279 c -3.46,-31.0595 -5.82,-51.9011 1.59,-8.3119 -71.09,253.3324 5.99,60.2103 -1.59,8.3119 z m -6.7,-43.9303 c 1.69,-3.103 0.49,5.0343 0,0 z"
                                   id="path5722"
                                   sodipodi:nodetypes="cccccccccccccccccccccccccccccccccccccccccccccccc" /><circle
                                   style="fill:#f15b0a;fill-opacity:1;stroke-width:7.04758;stroke-linecap:round;stroke-linejoin:bevel;stroke-dasharray:6.96433, 27.8574, 20.893, 27.8574"
                                   id="path5784"
                                   cx="125589.19"
                                   cy="9949.3584"
                                   r="209.189" /><circle
                                   style="fill:#f15b0a;fill-opacity:1;stroke-width:7.04758;stroke-linecap:round;stroke-linejoin:bevel;stroke-dasharray:6.96433, 27.8574, 20.893, 27.8574"
                                   id="path5784-3"
                                   cx="124936.87"
                                   cy="10078.285"
                                   r="209.189" /><circle
                                   style="fill:#f15b0a;fill-opacity:1;stroke-width:7.04758;stroke-linecap:round;stroke-linejoin:bevel;stroke-dasharray:6.96433, 27.8574, 20.893, 27.8574"
                                   id="path5784-7"
                                   cx="124605.16"
                                   cy="9698.1777"
                                   r="209.189" /></g></g></g></g></g></g></g></g></g></g></g></g></g></g></g></g></g></g></g></g></g></g></g></g></g></g></g></g></g></g></g></g></g></g></g></g></g></g></g></g></g></g></g></g></g></g></g></g></svg>
