<?xml version="1.0" encoding="UTF-8" standalone="no"?>
<!-- Created with Inkscape (http://www.inkscape.org/) -->

<svg
   width="64"
   height="64"
   viewBox="0 0 16.933333 16.933334"
   version="1.1"
   id="svg5"
   inkscape:version="1.2 (dc2aedaf03, 2022-05-15)"
   sodipodi:docname="piment_de_cayenne.svg"
   xml:space="preserve"
   xmlns:inkscape="http://www.inkscape.org/namespaces/inkscape"
   xmlns:sodipodi="http://sodipodi.sourceforge.net/DTD/sodipodi-0.dtd"
   xmlns="http://www.w3.org/2000/svg"
   xmlns:svg="http://www.w3.org/2000/svg"><sodipodi:namedview
     id="namedview7"
     pagecolor="#ffffff"
     bordercolor="#666666"
     borderopacity="1.0"
     inkscape:pageshadow="2"
     inkscape:pageopacity="0.0"
     inkscape:pagecheckerboard="0"
     inkscape:document-units="mm"
     showgrid="false"
     units="px"
     inkscape:zoom="11.313709"
     inkscape:cx="24.616155"
     inkscape:cy="23.599689"
     inkscape:window-width="1920"
     inkscape:window-height="1017"
     inkscape:window-x="1912"
     inkscape:window-y="-8"
     inkscape:window-maximized="1"
     inkscape:current-layer="g834"
     inkscape:showpageshadow="2"
     inkscape:deskcolor="#d1d1d1" /><defs
     id="defs2"><pattern
       id="EMFhbasepattern"
       patternUnits="userSpaceOnUse"
       width="6"
       height="6"
       x="0"
       y="0" /><pattern
       id="EMFhbasepattern-1"
       patternUnits="userSpaceOnUse"
       width="6"
       height="6"
       x="0"
       y="0" /></defs><g
     inkscape:label="Calque 1"
     inkscape:groupmode="layer"
     id="layer1"><g
       id="g4128"
       transform="translate(-0.63104184,0.12620835)"><g
         id="g5578"
         transform="translate(0.08924235,0.08924306)"><g
           id="g7501"
           transform="translate(-0.06310417,0.94656242)"><g
             id="g9467"
             transform="translate(-0.08924275,-0.80318511)"><g
               id="g10302"
               transform="translate(0.31234979,-0.04462139)"><g
                 id="g11479"
                 transform="translate(-0.12620833,0.06310418)"><g
                   id="g11873"
                   transform="translate(-0.23575769,0.66462456)"><g
                     id="g12382"
                     transform="translate(-121.98459,-82.267525)"><g
                       id="g13305"
                       transform="matrix(0.13266609,0,0,0.13266609,114.63867,78.215696)"><g
                         id="g17429"
                         transform="translate(0.90513437,5.6640979)"><g
                           id="g18595"
                           transform="translate(-3.3634362,-8.7449387)"><g
                             id="g21002"
                             transform="translate(1.7082278,-2.8204445)"><g
                               id="g23814"
                               transform="translate(8.7253043,-1.1218249)"><g
                                 id="g24838"
                                 transform="translate(11.143454,-0.85716864)"><g
                                   id="g25315"
                                   transform="translate(-3.490122,2.4929446)"><g
                                   id="g27220"
                                   transform="translate(2.4678888,1.2339445)"><g
                                   id="g29753"
                                   transform="translate(1.4759287,-2.3737724)"><g
                                   id="g30615"
                                   transform="translate(0.92006037,1.3687834)"><g
                                   id="g31433"
                                   transform="translate(-2.4678886,-1.410222)"><g
                                   id="g31731"
                                   transform="translate(1.0576664,-0.70511063)"><g
                                   id="g33243"
                                   transform="matrix(1.0772948,0,0,1.0772948,-7.3729128,-3.1743014)"><g
                                   id="g35254"
                                   transform="translate(-2.2135012,-0.92031205)"><g
                                   id="g36749"
                                   transform="translate(-0.98178042,-2.7817105)"><g
                                   id="g37297"
                                   transform="translate(-6.7755742,-3.5033798)"><g
                                   id="g38955"
                                   transform="matrix(1.2171094,0,0,1.2171094,-23.105122,-18.212482)"><g
                                   id="g39618"
                                   transform="translate(-0.26888273,-0.26888316)"><g
                                   id="g40032"
                                   transform="translate(-1.90129,-3.042064)"><g
                                   id="g40543"
                                   transform="translate(0.3802582,-2.0914191)"><g
                                   id="g41372"
                                   transform="translate(1.9657652,-7.9304203)"><g
                                   id="g43278"
                                   transform="translate(1.5210324,-0.38025789)"><g
                                   id="g44210"
                                   transform="matrix(1.1578947,0,0,1.1578947,-18.904476,-21.776183)"><g
                                   id="g44833"
                                   transform="matrix(1.1196819,0,0,1.1196819,-12.538538,-14.547543)"><g
                                   id="g47597"
                                   transform="translate(3.1109352,-1.2443743)"><g
                                   id="g48754"
                                   transform="translate(-2.9035392,-6.6366609)"><g
                                   id="g234"
                                   transform="matrix(0.04089637,0,0,0.04089637,104.63967,119.67231)"><g
                                   id="g2138"
                                   transform="translate(-86.211222,-40.569988)"><g
                                   id="g2696"
                                   transform="translate(-124306.44,-9412.2373)"><g
                                   id="g3765"
                                   transform="translate(25.356243,-50.712489)"><g
                                   id="g4557"
                                   transform="translate(46.61688,-35.859142)"><g
                                   id="g5244"
                                   transform="translate(7.1718407,14.343658)"><g
                                   id="g5807"
                                   transform="translate(-5.1984397,-21.113724)"><g
                                   id="g6945"
                                   transform="translate(-10.142522,-243.41993)"><g
                                   id="g11108"
                                   transform="translate(18.189368,-37.636113)"><g
                                   id="g15049"
                                   transform="translate(-65.926228,141.99496)"><g
                                   id="g19861"
                                   transform="matrix(0.07356842,0,0,0.07356842,115423.38,9039.2311)"><g
                                   id="g20437"
                                   transform="translate(-478.38824,-785.88156)"><g
                                   id="g21032"
                                   transform="translate(2047.1878,-1072.3367)"><g
                                   id="g21869"
                                   transform="matrix(0.04321578,0,0,0.04321578,117368,10137.003)"><g
                                   id="g25455"
                                   transform="translate(154741.46,-87178.414)"><g
                                   id="g26278"
                                   transform="translate(-18012.371,-8233.4417)"><g
                                   id="g27240"
                                   transform="translate(-0.00447131,5582.7624)"><g
                                   id="g28306"
                                   transform="translate(-15790.441,-2255.7767)"><g
                                   id="g33735"
                                   transform="translate(14662.549,-16918.328)"><g
                                   id="g37868"
                                   transform="translate(-5075.4976,25941.433)"><g
                                   id="g76752"
                                   transform="matrix(-1,0,0,1,9442.3174,-1595.0746)"><g
                                   id="g82459"
                                   transform="translate(3383.6668,-1127.8885)"><g
                                   id="g83208"
                                   transform="matrix(0.20332428,0,0,0.20332428,-15348.528,66747.475)"><g
                                   id="g83934"
                                   transform="matrix(-1,0,0,1,240692.18,94139.78)"><g
                                   id="g84550"
                                   transform="translate(-8.7627443e-5,55472.344)"><g
                                   id="g9096"
                                   transform="translate(31379.925,-62759.843)"><g
                                   id="g11527"
                                   transform="translate(61019.625,105397.54)"><g
                                   id="g13422"
                                   transform="translate(-44377.907,44377.908)"><g
                                   id="g1137"
                                   transform="translate(-3.3240812e-4,138680.92)"><g
                                   id="g3632"
                                   transform="translate(177511.65,-22188.943)"><g
                                   id="g5936"
                                   transform="translate(11767.473,-47069.909)"><g
                                   id="g7318"><g
                                   id="g11619"
                                   transform="translate(27457.436,-223581.94)" /><g
                                   id="g11985"
                                   transform="translate(70604.821,-133364.68)"><g
                                   id="g12707"
                                   transform="matrix(1.186974,0,0,1.186974,95904.637,-164033.62)"><g
                                   id="g4721"
                                   transform="matrix(-1,0,0,1,-561251.4,-59483.037)"><g
                                   id="g7072"><g
                                   id="g10426"
                                   transform="translate(66928.962,-211126.69)"><g
                                   id="g11693"
                                   transform="translate(967399.8,-74774.864)"><g
                                   id="g12809"
                                   transform="translate(37387.427,-102815.44)"><g
                                   id="g2473"
                                   transform="translate(132184.53,-3304.6135)"><g
                                   id="g4713"
                                   transform="translate(98142.015,-79448.29)"><g
                                   id="g6093"
                                   transform="translate(-28040.619,-18693.712)"><g
                                   id="g10695"
                                   transform="translate(51630.439,7541.1673)"><g
                                   id="g11274"
                                   transform="translate(10950.525,104212.74)"><g
                                   id="g12675"
                                   transform="translate(-91131.868,23367.145)"><g
                                   id="g13439"><g
                                   id="g14292"
                                   transform="translate(9346.8309,-46734.289)"><g
                                   id="g16374"
                                   transform="translate(-112356.85,125575.3)"><g
                                   id="g17065"
                                   transform="translate(74774.872,-56081.146)"><g
                                   id="g17792"
                                   transform="translate(0.01429257,-42959.977)"><g
                                   id="g19043"
                                   transform="translate(16341.79,212504.01)"><g
                                   id="g20969"
                                   transform="translate(-118966.09,26436.908)"><g
                                   id="g330"
                                   transform="translate(-49569.204,23132.295)"><g
                                   id="g588"
                                   transform="translate(-52873.823,158621.45)"><g
                                   id="g707"
                                   transform="translate(-39655.319,-36350.747)"><g
                                   id="g834"
                                   transform="translate(-25400.179,-181559.18)"><path
                                   style="fill:#d70c0d;stroke-width:1309.51"
                                   d="m -715281.63,825713.85 c -67255.2,-69633.97 -267891.72,-323875.04 -309770.87,-355387.73 -65408.1,-71715.2 -163531,-164818.24 -221055.5,-190170.93 -58297.3,-50212.97 -300121.9,-228325.22 -225858.9,-170561.34 -126056.7,-93694.829 -261697.4,-173889.744 -390389.9,-263084.76 -70242,-96617.24 -192435.2,-257604.38 -199331.7,-301286.17 -23376,-45052.58 -41785.3,-84208.67 -29654.9,-142226.71 -66414.6,9771.7 -78889.8,196147.3 -75011.9,223349.08 22994.9,101408 88162.4,185550.04 133998.7,277132.33 87262.5,129923.73 214161.1,225824.22 334048.9,323735.45 112035.8,71602.49 202977.1,170164.25 308250.9,250418.5 78462.6,83066.99 158590.3,165654.51 219792.8,262482.78 64625.8,78574.57 130652.4,207168 209833.92,216068.68 82273.71,67206.57 197168.42,-225251.02 245148.45,-130469.18 z"
                                   id="path838"
                                   sodipodi:nodetypes="cccccccccccccc" /><path
                                   style="fill:#275f1e;stroke-width:1309.51"
                                   d="m -237605.92,1344999.2 c 22420.07,-13331 13024.26,-43112.9 7150.63,-43245.5 -21447.79,11937.4 -84351.69,-31121.4 -65522.9,-19641.7 -161694.7,-111368.4 -289458.16,-187809.8 -368412.23,-353522.2 -8104.5,-19328.36 -20488.25,-55704.77 -29341.2,-85825.75 1129.62,-12563.8 -55812.26,-61528 -54189.05,-46868.57 -19660.23,-12205.63 -28022.68,-5684.16 -44870.05,13900.38 -51456.16,3137.28 -71277.91,14970.04 -51135.78,65667.1 -13520.57,42989.53 -56301.64,38610.15 -67990.78,50480.77 16375.18,37575.44 -35732.49,24538.39 -41097.6,30865.16 -15666.77,4750.17 92783.91,77213.31 128210.79,77895.71 18270.79,1681.6 18504.51,-2504.3 51395.38,4538.1 170787.72,87622.9 321603.65,235965.8 489150.3,307428.9 5813.8,972.2 30473.55,4552.9 46652.49,-1672.4 z"
                                   id="path836"
                                   sodipodi:nodetypes="cccccccccccccc" /></g></g></g></g></g></g></g></g></g></g></g></g></g></g></g></g></g></g></g></g></g></g></g></g></g></g></g></g></g></g></g></g></g></g></g></g></g></g></g></g></g></g></g></g></g></g></g></g></g></g></g></g></g></g></g></g></g></g></g></g></g></g></g></g></g></g></g></g></g></g></g></g></g></g></g></g></g></g></g></g></g></g></g></g></g></g></g></g></g></g></g></svg>
