<?xml version="1.0" encoding="UTF-8" standalone="no"?>
<!-- Created with Inkscape (http://www.inkscape.org/) -->

<svg
   width="64"
   height="64"
   viewBox="0 0 16.933333 16.933334"
   version="1.1"
   id="svg5"
   inkscape:version="1.2 (dc2aedaf03, 2022-05-15)"
   sodipodi:docname="pineau_blanc_des_charentes.svg"
   xmlns:inkscape="http://www.inkscape.org/namespaces/inkscape"
   xmlns:sodipodi="http://sodipodi.sourceforge.net/DTD/sodipodi-0.dtd"
   xmlns="http://www.w3.org/2000/svg"
   xmlns:svg="http://www.w3.org/2000/svg">
  <sodipodi:namedview
     id="namedview7"
     pagecolor="#ffffff"
     bordercolor="#666666"
     borderopacity="1.0"
     inkscape:pageshadow="2"
     inkscape:pageopacity="0.0"
     inkscape:pagecheckerboard="0"
     inkscape:document-units="mm"
     showgrid="false"
     units="px"
     inkscape:zoom="11.313709"
     inkscape:cx="26.472309"
     inkscape:cy="30.052037"
     inkscape:window-width="1920"
     inkscape:window-height="1017"
     inkscape:window-x="1912"
     inkscape:window-y="-8"
     inkscape:window-maximized="1"
     inkscape:current-layer="g17106"
     inkscape:showpageshadow="2"
     inkscape:deskcolor="#d1d1d1" />
  <defs
     id="defs2" />
  <g
     inkscape:label="Calque 1"
     inkscape:groupmode="layer"
     id="layer1">
    <g
       id="g4128"
       transform="translate(-0.63104184,0.12620835)">
      <g
         id="g5578"
         transform="translate(0.08924235,0.08924306)">
        <g
           id="g7501"
           transform="translate(-0.06310417,0.94656242)">
          <g
             id="g9467"
             transform="translate(-0.08924275,-0.80318511)">
            <g
               id="g10302"
               transform="translate(0.31234979,-0.04462139)">
              <g
                 id="g11479"
                 transform="translate(-0.12620833,0.06310418)">
                <g
                   id="g11873"
                   transform="translate(-0.23575769,0.66462456)">
                  <g
                     id="g12382"
                     transform="translate(-121.98459,-82.267525)">
                    <g
                       id="g13305"
                       transform="matrix(0.13266609,0,0,0.13266609,114.63867,78.215696)">
                      <g
                         id="g17106"
                         transform="translate(-2.8589207)">
                        <path
                           style="fill:#ff9955;stroke-width:0.265694"
                           d="m 115.27351,144.1093 c -1.74826,-1.65441 -0.82908,-4.38785 -1.05871,-6.54621 0.0545,-22.74256 0.10889,-45.485114 0.16333,-68.227672 0.57926,-2.332224 1.38526,-5.050677 3.20415,-6.749191 2.12997,-1.763189 4.97379,-3.403679 5.64716,-6.260422 0,0 0.2217,-2.985386 0.26358,-6.031494 0.0657,-4.778991 7.76513,-7.567832 8.90775,-0.09333 0.23309,1.524776 0.4491,5.3236 0.4491,6.579779 0.97594,2.855408 3.92261,4.15683 5.913,6.149296 2.40331,2.712555 2.7357,6.51281 3.09782,9.97472 v 69.087244 c -0.40422,1.44799 -1.26934,3.23093 -3.05771,2.93339 h -22.76711 c -0.25412,-0.27204 -0.50824,-0.54407 -0.76236,-0.81611 z"
                           id="path17116"
                           sodipodi:nodetypes="cccccsscccccccc" />
                        <path
                           style="fill:#cccccc;stroke-width:0.265694"
                           d="m 134.75641,119.48541 c -2.23525,-0.0252 -14.35449,-0.0505 -16.58974,-0.0757 -0.008,-14.87403 -2.23026,-19.674503 -2.0539,-34.542458 8.94319,0.130293 15.68306,0.225143 23.99098,0.132803 -0.0175,15.079695 -2.49627,19.543635 -2.61107,34.622805 -2.25553,-0.10139 -0.47907,-0.10008 -2.73631,-0.13745 z"
                           id="path17108"
                           sodipodi:nodetypes="ccccccc" />
                        <path
                           style="fill:#aa8800;stroke-width:0.265694"
                           d="m 123.32432,51.299672 c -0.0414,-5.247913 -0.0829,-11.714708 -0.1245,-16.96262 -1.35318,-0.645968 -0.60969,-2.276543 -0.79708,-3.469969 -0.0327,-1.230143 1.60599,-1.464456 2.60141,-1.329511 2.5252,-0.01915 5.05041,-0.03831 7.57561,-0.05746 1.21084,0.593173 1.01498,1.810524 0.98214,2.955539 0.3249,1.229103 -1.22101,1.829993 -0.78196,3.098214 -0.008,4.937538 -0.047,10.863086 -0.0547,15.800625 -1.30685,0 -2.8013,-0.04699 -4.21839,-0.04699 0,0 -4.52954,0.01217 -5.1825,0.01217 z"
                           id="path7020"
                           sodipodi:nodetypes="ccccccccccc" />
                      </g>
                    </g>
                  </g>
                </g>
              </g>
            </g>
          </g>
        </g>
      </g>
    </g>
  </g>
</svg>
