<?xml version="1.0" encoding="UTF-8" standalone="no"?>
<!-- Created with Inkscape (http://www.inkscape.org/) -->

<svg
   width="64"
   height="64"
   viewBox="0 0 16.933333 16.933334"
   version="1.1"
   id="svg5"
   inkscape:version="1.2 (dc2aedaf03, 2022-05-15)"
   sodipodi:docname="poireau.svg"
   xml:space="preserve"
   xmlns:inkscape="http://www.inkscape.org/namespaces/inkscape"
   xmlns:sodipodi="http://sodipodi.sourceforge.net/DTD/sodipodi-0.dtd"
   xmlns="http://www.w3.org/2000/svg"
   xmlns:svg="http://www.w3.org/2000/svg"><sodipodi:namedview
     id="namedview7"
     pagecolor="#ffffff"
     bordercolor="#666666"
     borderopacity="1.0"
     inkscape:pageshadow="2"
     inkscape:pageopacity="0.0"
     inkscape:pagecheckerboard="0"
     inkscape:document-units="mm"
     showgrid="false"
     units="px"
     inkscape:zoom="16"
     inkscape:cx="38.40625"
     inkscape:cy="31.8125"
     inkscape:window-width="1920"
     inkscape:window-height="1017"
     inkscape:window-x="1912"
     inkscape:window-y="-8"
     inkscape:window-maximized="1"
     inkscape:current-layer="g10729"
     inkscape:showpageshadow="0"
     inkscape:deskcolor="#d1d1d1" /><defs
     id="defs2" /><g
     inkscape:label="Calque 1"
     inkscape:groupmode="layer"
     id="layer1"><g
       id="g4128"
       transform="translate(-0.63104184,0.12620835)"><g
         id="g5578"
         transform="translate(0.08924235,0.08924306)"><g
           id="g7501"
           transform="translate(-0.06310417,0.94656242)"><g
             id="g9467"
             transform="translate(-0.08924275,-0.80318511)"><g
               id="g10302"
               transform="translate(0.31234979,-0.04462139)"><g
                 id="g11479"
                 transform="translate(-0.12620833,0.06310418)"><g
                   id="g11873"
                   transform="translate(-0.23575769,0.66462456)"><g
                     id="g12382"
                     transform="translate(-121.98459,-82.267525)"><g
                       id="g13305"
                       transform="matrix(0.13266609,0,0,0.13266609,114.63867,78.215696)"><g
                         id="g17429"
                         transform="translate(0.90513437,5.6640979)"><g
                           id="g18595"
                           transform="translate(-3.3634362,-8.7449387)"><g
                             id="g21002"
                             transform="translate(1.7082278,-2.8204445)"><g
                               id="g23814"
                               transform="translate(8.7253043,-1.1218249)"><g
                                 id="g24838"
                                 transform="translate(11.143454,-0.85716864)"><g
                                   id="g25315"
                                   transform="translate(-3.490122,2.4929446)"><g
                                   id="g27220"
                                   transform="translate(2.4678888,1.2339445)"><g
                                   id="g29753"
                                   transform="translate(1.4759287,-2.3737724)"><g
                                   id="g30615"
                                   transform="translate(0.92006037,1.3687834)"><g
                                   id="g31433"
                                   transform="translate(-2.4678886,-1.410222)"><g
                                   id="g31731"
                                   transform="translate(1.0576664,-0.70511063)"><g
                                   id="g33243"
                                   transform="matrix(1.0772948,0,0,1.0772948,-7.3729128,-3.1743014)"><g
                                   id="g35254"
                                   transform="translate(-2.2135012,-0.92031205)"><g
                                   id="g36749"
                                   transform="translate(-0.98178042,-2.7817105)"><g
                                   id="g37297"
                                   transform="translate(-6.7755742,-3.5033798)"><g
                                   id="g38955"
                                   transform="matrix(1.2171094,0,0,1.2171094,-23.105122,-18.212482)"><g
                                   id="g39618"
                                   transform="translate(-0.26888273,-0.26888316)"><g
                                   id="g40032"
                                   transform="translate(-1.90129,-3.042064)"><g
                                   id="g40543"
                                   transform="translate(0.3802582,-2.0914191)"><g
                                   id="g41372"
                                   transform="translate(1.9657652,-7.9304203)"><g
                                   id="g43278"
                                   transform="translate(1.5210324,-0.38025789)"><g
                                   id="g44210"
                                   transform="matrix(1.1578947,0,0,1.1578947,-18.904476,-21.776183)"><g
                                   id="g44833"
                                   transform="matrix(1.1196819,0,0,1.1196819,-12.538538,-14.547543)"><g
                                   id="g47597"
                                   transform="translate(3.1109352,-1.2443743)"><g
                                   id="g48754"
                                   transform="translate(-2.9035392,-6.6366609)"><g
                                   id="g234"
                                   transform="matrix(0.04089637,0,0,0.04089637,104.63967,119.67231)"><g
                                   id="g2138"
                                   transform="translate(-86.211222,-40.569988)"><g
                                   id="g2696"
                                   transform="translate(-124306.44,-9412.2373)"><g
                                   id="g3765"
                                   transform="translate(25.356243,-50.712489)"><g
                                   id="g4557"
                                   transform="translate(46.61688,-35.859142)"><g
                                   id="g5244"
                                   transform="translate(7.1718407,14.343658)"><g
                                   id="g5807"
                                   transform="translate(-5.1984397,-21.113724)"><g
                                   id="g6945"
                                   transform="translate(-10.142522,-243.41993)"><g
                                   id="g11108"
                                   transform="translate(18.189368,-37.636113)"><g
                                   id="g15049"
                                   transform="translate(-65.926228,141.99496)"><g
                                   id="g19861"
                                   transform="matrix(0.07356842,0,0,0.07356842,115423.38,9039.2311)"><g
                                   id="g20437"
                                   transform="translate(-478.38824,-785.88156)"><g
                                   id="g21032"
                                   transform="translate(2047.1878,-1072.3367)"><g
                                   id="g21869"
                                   transform="matrix(0.04321578,0,0,0.04321578,117368,10137.003)"><g
                                   id="g25455"
                                   transform="translate(154741.46,-87178.414)"><g
                                   id="g26278"
                                   transform="translate(-18012.371,-8233.4417)"><g
                                   id="g27240"
                                   transform="translate(-0.00447131,5582.7624)"><g
                                   id="g28306"
                                   transform="translate(-15790.441,-2255.7767)"><g
                                   id="g33735"
                                   transform="translate(14662.549,-16918.328)"><g
                                   id="g37868"
                                   transform="translate(-5075.4976,25941.433)"><g
                                   id="g76752"
                                   transform="matrix(-1,0,0,1,9442.3174,-1595.0746)"><g
                                   id="g82459"
                                   transform="translate(3383.6668,-1127.8885)"><g
                                   id="g83208"
                                   transform="matrix(0.20332428,0,0,0.20332428,-15348.528,66747.475)"><g
                                   id="g83934"
                                   transform="matrix(-1,0,0,1,240692.18,94139.78)"><g
                                   id="g84550"
                                   transform="translate(-8.7627443e-5,55472.344)"><g
                                   id="g9096"
                                   transform="translate(31379.925,-62759.843)"><g
                                   id="g11527"
                                   transform="translate(61019.625,105397.54)"><g
                                   id="g13422"
                                   transform="translate(-44377.907,44377.908)"><g
                                   id="g1137"
                                   transform="translate(-3.3240812e-4,138680.92)"><g
                                   id="g3632"
                                   transform="translate(177511.65,-22188.943)"><g
                                   id="g5936"
                                   transform="translate(11767.473,-47069.909)"><g
                                   id="g7318"><g
                                   id="g11619"
                                   transform="translate(27457.436,-223581.94)" /><g
                                   id="g11985"
                                   transform="translate(70604.821,-133364.68)"><g
                                   id="g12707"
                                   transform="matrix(1.186974,0,0,1.186974,95904.637,-164033.62)"><g
                                   id="g4721"
                                   transform="matrix(-1,0,0,1,-561251.4,-59483.037)"><g
                                   id="g7072"><g
                                   id="g10426"
                                   transform="translate(66928.962,-211126.69)"><g
                                   id="g1231"
                                   transform="translate(-14020.287,4673.4667)"><g
                                   id="g2516"
                                   transform="matrix(1.1495428,0,0,1.1495428,-144709.4,-78762.736)"><g
                                   id="g3795"
                                   transform="translate(-22559.428,121623.52)"><g
                                   id="g5627"
                                   transform="translate(-106364.63,2874.7178)"><g
                                   id="g6621"
                                   transform="translate(-12196.407,40654.68)"><g
                                   id="g7772"
                                   transform="translate(28747.2,74742.673)"><g
                                   id="g8880"
                                   transform="translate(-60982.018,187011.51)"><g
                                   id="g11165"
                                   transform="translate(-44309.499,5172.6179)"><g
                                   id="g12249"
                                   transform="translate(48785.608,-8130.9328)"><g
                                   id="g14000"
                                   transform="matrix(1.0831477,0,0,1.0831477,-5722.2619,28128.151)"><g
                                   id="g15203"
                                   transform="translate(53158.943,24797.103)"><g
                                   id="g16076"
                                   transform="translate(-37533.822,-30027.061)"><g
                                   id="g17560"
                                   transform="translate(-21232.337,7962.1264)"><g
                                   id="g25114"
                                   transform="translate(-67560.839,7506.7636)"><g
                                   id="g29358"
                                   transform="translate(-21232.382,-47772.762)" /></g><g
                                   id="g54846"
                                   transform="translate(-89414.803,-58825.532)"><g
                                   id="g56152"
                                   transform="translate(-3.3655809e-4,28236.25)"><g
                                   id="g56999"
                                   transform="translate(-65884.586,-28236.251)"><g
                                   id="g58386"
                                   transform="translate(-26621.369,66553.488)"><g
                                   id="g59580"
                                   transform="matrix(1.3336607,0,0,1.3336607,-147290.21,2462.1241)"><g
                                   id="g60913"
                                   transform="translate(52929.981,10585.996)"><g
                                   id="g61494"
                                   transform="translate(83376.512,12462.173)"><g
                                   id="g64263"
                                   transform="translate(12959.021,17102.931)"><g
                                   id="g66681"
                                   transform="translate(34932.003,-24951.435)"><g
                                   id="g67253"
                                   transform="translate(-56458.648,35286.648)"><g
                                   id="g67911"
                                   transform="translate(-35291.329,-19495.235)"><g
                                   id="g68553"
                                   transform="translate(-128708.75,-9980.5274)"><g
                                   id="g69435"
                                   transform="translate(24951.434,-1.4872907e-4)"><g
                                   id="g70136"
                                   transform="translate(44108.319,-44108.311)"><g
                                   id="g73710"
                                   transform="translate(2814.3438,42215.187)"><g
                                   id="g75109"
                                   transform="matrix(0.86843181,0,0,0.86843181,6682.2729,-19586.27)"><g
                                   id="g76838"
                                   transform="translate(18332.288,-98536.062)"><g
                                   id="g77594"
                                   transform="translate(-123147.4,-132869.59)"><g
                                   id="g79315"
                                   transform="translate(-41162.31,27678.708)"><g
                                   id="g1224"
                                   transform="translate(18332.291,-43539.192)"><g
                                   id="g10729"
                                   transform="translate(-6481.4418,-22685.056)"><path
                                   style="fill:#fdf4f4;stroke-width:2856.73"
                                   d="M 833519.09,972900.16 C 928398.76,954047.92 1004625.5,894985.85 1047164.2,807363.55 1117209.8,663081.7 1062002.8,490755.44 921007.87,413572.54 892048.17,397719.53 868790.55,390089.68 815064.87,378817.06 751617.54,365504.69 707013.76,350665.87 656760.05,326152.07 593883.35,295480.73 555334.91,268393.61 504323.4,219038.18 384582.85,103185.08 304902.39,-60575.784 286711.4,-228202.23 c -6402.82,-59000.72 -3437.93,-141191.22 7632.79,-211591.29 l 1602.66,-10191.59 -127402.1,-18141.97 c -70071.154,-9978.09 -128058.296,-17485.79 -128860.323,-16683.78 -802,802.02 -4119.41,19337.01 -7372.029,41188.87 -4157.404,27930.46 -6382.999,60826.23 -7493.525,110758.28 l -1579.717,71027.62 -111762.916,-111736.06 c -61469.61,-61454.84 -113050.1,-111736.07 -114623.28,-111736.07 -3715.98,0 -181372.16,177689.24 -181372.16,181405.91 0,1554.63 50450.94,53289.67 112113.21,114966.76 l 112113.24,112140.178 -52836.03,30.567 c -49771.23,28.853 -105174.23,4240.992 -150027.25,11406.307 -10873.62,1737.065 -20348.63,3736.722 -21055.61,4443.677 -1235.83,1235.823 33808.69,253116.221 35479.14,255004.121 449.36,507.87 15123.09,-1182.15 32608.29,-3755.64 123646.16,-18198.19 248636.548,-5481.81 364799.89,37114.31 71524.71,26227.53 159541.46,77272.89 218540.29,126742.63 66878.9,56077.07 131830.1,138823.46 169597.99,216064.07 26442.18,54078.02 34257.78,80715.31 44423.92,151406.86 18062.5,125599.85 116527.46,227296.52 243370.61,251358.27 27811.96,5275.84 82056.08,5216.22 108910.6,-119.7 z"
                                   id="path10743" /><path
                                   style="fill:#00aa93;stroke-width:2856.73"
                                   d="m 387363.2,378139.39 44776.83,-44993.55 c 33202.68,-38343.41 394.81,1742.56 93087.73,-88996.68 3093.87,-8310.52 -82107.57,-88031.86 -110705.97,-127291.3 -64102.58,-91814.807 -105442.14,-193917.937 -125362.4,-309628.4 -8590.33,-49898.52 -9374.19,-167010.09 -1467.93,-219308.17 2818.54,-18643.89 4593.54,-34429.05 3944.47,-35078.13 -1964.29,-1964.3 -240068.95,-35454.71 -246216.783,-34631.41 -5042.448,675.27 -6270.244,4791.17 -10454.386,35045.93 -6855.332,49569.47 -11987.739,132725.07 -10122.006,163997.22 l 1609.598,26979.18 -113369.372,-113342.78 c -62353.141,-62338.54 -114656.701,-113342.79 -116230.131,-113342.79 -3716.15,0 -178515.32,174832.74 -178515.32,178549.61 0,1554.57 51099.82,54042.01 113555.15,116638.75 l 113555.14,113812.221 -25710.6,-1850.363 c -38963.24,-2804.141 -159882.33,5892.527 -197336.44,14192.708 -5872.24,1301.327 -5745.98,2639.364 11879.75,125867.122 9798.31,68503.522 18376.54,125113.232 19062.7,125799.392 686.16,686.16 22336.37,-1473.36 48111.61,-4798.94 60494.04,-7805.08 152805.95,-6560.06 206841.113,2789.71 162084.243,28045.61 309727.897,103886.93 409185.697,210189.75 12553,13416.96 23336.88,24394.47 23964.19,24394.47 627.28,0 21290.12,-20247.1 45917.36,-44993.55 z m -506206.21,-596343.06 c -96619.43,-96629 -175028.9,-175689.09 -174243.3,-175689.09 785.6,0 80480.6,79060.09 177100.03,175689.09 96619.432,96629.01 175028.902,175689.096 174243.3,175689.096 -785.601,0 -80480.602,-79060.086 -177100.03,-175689.096 z"
                                   id="path10735"
                                   sodipodi:nodetypes="scccsssssscsssscssssssssssssss" /><path
                                   style="fill:#009083;stroke-width:2856.73"
                                   d="M 58901.642,-41237.271 C 56673.621,-61890.856 48571.384,-81916.888 45620.677,-102695.37 36627.076,-153068.34 26338.838,-203809.72 26850.381,-255193.57 -49315.366,-331422.34 -125481.12,-407651.1 -201646.88,-483879.85 c -30002.82,29996.57 -60005.63,59993.14 -90008.44,89989.72 117119.38,117601.31 234238.758,235202.61 351358.133,352803.923 C -58389.871,-158697.07 -176482.57,-276307.93 -294575.27,-393918.77 c -29159.74,29879.27 -60067.12,58239.66 -87087.2,90060 66649.46,71200.56 137010.83,138873.93 205746.52,208071.998 7675.81,6832.234 14326.37,15904.715 22612.4,21403.568 70636.432,4727.91 141194.807,15004.277 209353.747,34417.493 l 1743.536,-160.49 z"
                                   id="path10733" /></g></g></g></g></g></g></g></g></g></g></g></g></g></g></g></g></g></g></g></g></g></g></g></g></g></g></g></g></g></g></g></g></g></g></g></g></g></g></g></g></g></g></g></g></g></g></g></g></g></g></g></g></g></g></g></g></g></g></g></g></g></g></g></g></g></g></g></g></g></g></g></g></g></g></g></g></g></g></g></g></g></g></g></g></g></g></g></g></g></g></g></g></g></g></g></g></g></g></g></g></g></g></g></g></g></g></svg>
