<?xml version="1.0" encoding="UTF-8" standalone="no"?>
<!-- Created with Inkscape (http://www.inkscape.org/) -->

<svg
   width="64"
   height="64"
   viewBox="0 0 16.933333 16.933334"
   version="1.1"
   id="svg5"
   inkscape:version="1.2 (dc2aedaf03, 2022-05-15)"
   sodipodi:docname="potiron.svg"
   xmlns:inkscape="http://www.inkscape.org/namespaces/inkscape"
   xmlns:sodipodi="http://sodipodi.sourceforge.net/DTD/sodipodi-0.dtd"
   xmlns="http://www.w3.org/2000/svg"
   xmlns:svg="http://www.w3.org/2000/svg">
  <sodipodi:namedview
     id="namedview7"
     pagecolor="#ffffff"
     bordercolor="#666666"
     borderopacity="1.0"
     inkscape:pageshadow="2"
     inkscape:pageopacity="0.0"
     inkscape:pagecheckerboard="0"
     inkscape:document-units="mm"
     showgrid="false"
     units="px"
     inkscape:zoom="22.627417"
     inkscape:cx="29.654291"
     inkscape:cy="40.216698"
     inkscape:window-width="1920"
     inkscape:window-height="1017"
     inkscape:window-x="1912"
     inkscape:window-y="-8"
     inkscape:window-maximized="1"
     inkscape:current-layer="g9361"
     inkscape:showpageshadow="0"
     inkscape:deskcolor="#d1d1d1"
     showguides="true" />
  <defs
     id="defs2" />
  <g
     inkscape:label="Calque 1"
     inkscape:groupmode="layer"
     id="layer1">
    <g
       id="g4128"
       transform="translate(-0.63104184,0.12620835)">
      <g
         id="g5578"
         transform="translate(0.08924235,0.08924306)">
        <g
           id="g7501"
           transform="translate(-0.06310417,0.94656242)">
          <g
             id="g9467"
             transform="translate(-0.08924275,-0.80318511)">
            <g
               id="g10302"
               transform="translate(0.31234979,-0.04462139)">
              <g
                 id="g11479"
                 transform="translate(-0.12620833,0.06310418)">
                <g
                   id="g11873"
                   transform="translate(-0.23575769,0.66462456)">
                  <g
                     id="g12382"
                     transform="translate(-121.98459,-82.267525)">
                    <g
                       id="g13305"
                       transform="matrix(0.13266609,0,0,0.13266609,114.63867,78.215696)">
                      <g
                         id="g17429"
                         transform="translate(0.90513437,5.6640979)">
                        <g
                           id="g18595"
                           transform="translate(-3.3634362,-8.7449387)">
                          <g
                             id="g21002"
                             transform="translate(1.7082278,-2.8204445)">
                            <g
                               id="g23814"
                               transform="translate(8.7253043,-1.1218249)">
                              <g
                                 id="g24838"
                                 transform="translate(11.143454,-0.85716864)">
                                <g
                                   id="g25315"
                                   transform="translate(-3.490122,2.4929446)">
                                <g
                                   id="g27220"
                                   transform="translate(2.4678888,1.2339445)">
                                <g
                                   id="g29753"
                                   transform="translate(1.4759287,-2.3737724)">
                                <g
                                   id="g30615"
                                   transform="translate(0.92006037,1.3687834)">
                                <g
                                   id="g31433"
                                   transform="translate(-2.4678886,-1.410222)">
                                <g
                                   id="g31731"
                                   transform="translate(1.0576664,-0.70511063)">
                                <g
                                   id="g33243"
                                   transform="matrix(1.0772948,0,0,1.0772948,-7.3729128,-3.1743014)">
                                <g
                                   id="g35254"
                                   transform="translate(-2.2135012,-0.92031205)">
                                <g
                                   id="g36749"
                                   transform="translate(-0.98178042,-2.7817105)">
                                <g
                                   id="g37297"
                                   transform="translate(-6.7755742,-3.5033798)">
                                <g
                                   id="g38955"
                                   transform="matrix(1.2171094,0,0,1.2171094,-23.105122,-18.212482)">
                                <g
                                   id="g39618"
                                   transform="translate(-0.26888273,-0.26888316)">
                                <g
                                   id="g40032"
                                   transform="translate(-1.90129,-3.042064)">
                                <g
                                   id="g40543"
                                   transform="translate(0.3802582,-2.0914191)">
                                <g
                                   id="g41372"
                                   transform="translate(1.9657652,-7.9304203)">
                                <g
                                   id="g43278"
                                   transform="translate(1.5210324,-0.38025789)">
                                <g
                                   id="g44210"
                                   transform="matrix(1.1578947,0,0,1.1578947,-18.904476,-21.776183)">
                                <g
                                   id="g44833"
                                   transform="matrix(1.1196819,0,0,1.1196819,-12.538538,-14.547543)">
                                <g
                                   id="g47597"
                                   transform="translate(3.1109352,-1.2443743)">
                                <g
                                   id="g48754"
                                   transform="translate(-2.9035392,-6.6366609)">
                                <g
                                   id="g234"
                                   transform="matrix(0.04089637,0,0,0.04089637,104.63967,119.67231)">
                                <g
                                   id="g2138"
                                   transform="translate(-86.211222,-40.569988)">
                                <g
                                   id="g2696"
                                   transform="translate(-124306.44,-9412.2373)">
                                <g
                                   id="g3765"
                                   transform="translate(25.356243,-50.712489)">
                                <g
                                   id="g4557"
                                   transform="translate(46.61688,-35.859142)">
                                <g
                                   id="g5244"
                                   transform="translate(7.1718407,14.343658)">
                                <g
                                   id="g5807"
                                   transform="translate(-5.1984397,-21.113724)">
                                <g
                                   id="g6945"
                                   transform="translate(-10.142522,-243.41993)">
                                <g
                                   id="g11108"
                                   transform="translate(18.189368,-37.636113)">
                                <g
                                   id="g15049"
                                   transform="translate(-65.926228,141.99496)">
                                <g
                                   id="g19861"
                                   transform="matrix(0.07356842,0,0,0.07356842,115423.38,9039.2311)">
                                <g
                                   id="g20437"
                                   transform="translate(-478.38824,-785.88156)">
                                <g
                                   id="g21032"
                                   transform="translate(2047.1878,-1072.3367)">
                                <g
                                   id="g21869"
                                   transform="matrix(0.04321578,0,0,0.04321578,117368,10137.003)">
                                <g
                                   id="g25455"
                                   transform="translate(154741.46,-87178.414)">
                                <g
                                   id="g26278"
                                   transform="translate(-18012.371,-8233.4417)">
                                <g
                                   id="g27240"
                                   transform="translate(-0.00447131,5582.7624)">
                                <g
                                   id="g28306"
                                   transform="translate(-15790.441,-2255.7767)">
                                <g
                                   id="g33735"
                                   transform="translate(14662.549,-16918.328)">
                                <g
                                   id="g37868"
                                   transform="translate(-5075.4976,25941.433)">
                                <g
                                   id="g76752"
                                   transform="matrix(-1,0,0,1,9442.3174,-1595.0746)">
                                <g
                                   id="g82459"
                                   transform="translate(3383.6668,-1127.8885)">
                                <g
                                   id="g83208"
                                   transform="matrix(0.20332428,0,0,0.20332428,-15348.528,66747.475)">
                                <g
                                   id="g83934"
                                   transform="matrix(-1,0,0,1,240692.18,94139.78)">
                                <g
                                   id="g84550"
                                   transform="translate(-8.7627443e-5,55472.344)">
                                <g
                                   id="g9096"
                                   transform="translate(31379.925,-62759.843)">
                                <g
                                   id="g11527"
                                   transform="translate(61019.625,105397.54)">
                                <g
                                   id="g13422"
                                   transform="translate(-44377.907,44377.908)">
                                <g
                                   id="g1137"
                                   transform="translate(-3.3240812e-4,138680.92)">
                                <g
                                   id="g2521">
                                <g
                                   id="g8272"
                                   transform="translate(35302.393,-43147.394)">
                                <g
                                   id="g9361"
                                   transform="translate(-5547.2383,2773.6188)">
                                <path
                                   style="fill:#fce3d2;stroke-width:2991.56"
                                   d="m -479519.32,861971.45 c -24498.01,-3884.84 -69388.43,-19476.07 -91305.29,-31711.92 -154424.62,-86212.96 -266108.47,-311450.94 -292791.86,-590486.91 -5362.83,-56080.61 -4294.91,-204182.716 1833.56,-254282.95 27103.81,-221573.82 100744.63,-398048.88 210769.9,-505095.25 93493.11,-90961.85 199772.77,-118214.91 304103.66,-77980.68 l 23691.52,9136.42 8180.61,-9942.98 c 36277.41,-44092.87 77329.3,-77679.07 121937.09,-99761.6 42635.98,-21106.44 65051.95,-26466.28 110687.872,-26466.28 43438.8,0 66706.199,5166.25 105031.009,23320.89 l 27527.986,13040.14 5213.638,-13886.24 c 16366.579,-43591.52 51621.565,-101249.73 86558.065,-141562.49 53505.03,-61738.7 134106.95,-114738.34 219458.23,-144304.3 45584.2,-15790.5 62797.27,-13956.3 74097.36,7895.62 5815.99,11246.89 4027.73,30083.67 -3662.75,38581.55 -2925.96,3233.13 -15475.69,12044.16 -27888.35,19580.05 -73010.32,44325.62 -127150.48,101231.59 -158725.73,166834.38 -21582.25,44840.76 -21973.21,41387.24 5324.3,47031.76 48695.04,10069.03 99284.3,38061.58 144714.74,80074.95 l 22930.76,21206.01 20446.92,-5026.28 c 30032.91,-7382.73 88122.96,-6629.19 118521.74,1537.42 162676.12,43702.84 294608.5,238738.91 344335.06,509031.55 11975.05,65091.469 16991.45,116438.497 18850.98,192955.888 C 924981.09,283419.43 891060.19,454661.85 819581.37,600256.11 771108.79,698989.27 714410.24,768626.75 645569.65,813978.39 559021.96,870995.3 460832.81,877153.55 372170.44,831125.52 l -24248.03,-12588.05 -16228.31,9777.75 c -76525.2,46107.33 -167495.65,48868.52 -246131.73,7470.65 l -27548.358,-14502.8 -20852.34,11333.42 C -9696.5745,858084.3 -62758.309,868902.82 -109977.46,862616.01 -155769,856519.3 -202124.73,837179.25 -240246.65,808266.47 l -18371.26,-13933.3 -21251.17,15247.05 c -46440.36,33319.41 -98318.36,51829.48 -151030.68,53887.67 -17292.64,675.23 -39171.42,1.83 -48619.56,-1496.44 z"
                                   id="path9371" />
                                <path
                                   style="fill:#f09456;stroke-width:2991.56"
                                   d="m -472442.38,861741.79 c -12137.23,-1445.97 -35235.36,-7137.42 -51329.17,-12647.65 -170972.02,-58537.61 -299479.51,-281800.94 -336942.36,-585389 -7593.27,-61533.61 -7593.27,-216681.867 0,-278215.47 24657.18,-199814.62 84933.17,-358496.25 179068.18,-471412.12 96141.93,-115323.24 221237.87,-155967.41 336832.39,-109438.21 l 19789.77,7965.79 37541.86,-37851.45 c 25360.65,-25569.77 46197.2,-43451.27 64217.12,-55109.85 54565.12,-35302.64 114954.21,-50396.19 170767.975,-42681.45 25059.466,3463.78 69835.555,17924.25 87545.166,28272.73 7015.817,4099.67 13985.174,6694.28 15487.448,5765.82 1502.274,-928.46 4334.059,-6717.61 6292.875,-12864.8 7549.093,-23690.88 40230.825,-82060.55 62708.096,-111996.8 59177.83,-78815.88 144547.68,-139552.09 244831.26,-174184.72 38659.9,-13351.11 47823.57,-13572.21 61588.65,-1486.34 22636.63,19875.21 16288.29,43586.97 -16851.27,62941.51 -55706.04,32534.07 -109927.36,82198.75 -141430.36,129544.8 -16383.6,24623.03 -35136.67,61704.12 -39009.55,77134.85 -1863.86,7426.26 -1193.54,8124.52 9490.08,9885.71 54759.15,9027.14 118285.46,43899.26 162096.56,88981.24 l 15980.58,16444.15 13935.07,-4446.45 c 8038.66,-2565.03 31023.83,-5075.61 54321.18,-5933.29 49259.63,-1813.49 78801.42,4148.07 122030.27,24625.74 35983.08,17045.34 61264.55,34993.53 94474.32,67070.54 C 938235.1,-294133.66 993680.3,250852 815886.07,606023.84 717174.08,803216.41 567949.08,894903.37 419342.53,849668.43 408280.42,846301.19 387337.04,837594.78 372801.75,830320.82 l -26427.87,-13225.34 -7975.12,5628.74 c -23676.05,16710.16 -67614.71,33507.86 -103558.14,39590.1 -49899.38,8443.83 -117701.81,-5985.59 -163257.8,-34743.82 L 59544.018,819970.73 28951.983,835050.7 c -40782.62,20103.31 -69946.841,27432.04 -109868.458,27609.02 -57514.465,254.88 -109672.005,-18229.48 -161658.115,-57291.09 -14820.18,-11135.67 -16543.71,-11730.61 -22187.3,-7658.43 -73178.48,52802.42 -136935.47,72459.84 -207680.49,64031.59 z m 148801.6,-945745.049 c 1770.68,-10317.007 6031.95,-42989.881 9469.56,-72606.371 13765.65,-118597.75 21233.52,-160449.28 48309.6,-270736.55 19530.4,-79551.95 23333.1,-102544.51 17550.76,-106118.21 -15842.13,-9790.97 -59765.2,83918.02 -81990.04,174924.18 -27959.28,114487.46 -33895.08,265069.758 -11784.49,298955.265 l 4748.78,7277.757 5238.23,-6468.928 c 2881.02,-3557.897 6686.95,-14910.135 8457.6,-25227.143 z M -697795.46,-253087.57 c 3175.58,-4524.74 20732.65,-38676.89 39015.72,-75893.65 31804.93,-64741.7 51199.66,-96559.26 109735.45,-180023.96 26854.5,-38291.15 25849.81,-50120.42 -3129.95,-36853.05 -35335.07,16176.95 -94031.3,85555.21 -125455.05,148286.48 -28327.94,56551.07 -46733.81,126976.8 -38674.52,147978.95 2819.56,7347.7 12133.04,5589.11 18508.35,-3494.77 z"
                                   id="path9369" />
                                <path
                                   style="fill:#f77922;stroke-width:2991.56"
                                   d="m -490422.79,857585.58 c -65948.8,-14958.06 -116867.91,-45523.68 -171426.77,-102903.65 -199656.78,-209980.58 -264312.03,-659608.542 -144852.68,-1007340 36339.58,-105780.04 84662.75,-190064.31 145226.26,-253300.62 73748.46,-77003.1 148532.75,-110823.66 234376.32,-105994.65 32648.46,1836.58 54352.77,6656.26 84764.33,18822.78 l 18970.64,7589.44 9533.43,-11397.35 c 21987.37,-26286.18 64482.51,-64856.33 89918.46,-81613.34 58970.73,-38849.44 122605.82,-52766.52 185899.365,-40656.49 23559.226,4507.63 62341.626,18769.28 78945.436,29031.01 l 9750.046,6025.84 3064.648,-8060.71 c 37689.163,-99129.99 98249.435,-175396.9 185938.255,-234162.34 51518.32,-34525.46 149318.81,-75225.3 170993.26,-71159.15 24696.11,4633.03 35192.47,37157.02 18090.32,56054.69 -2865.29,3166.08 -12672.14,10026.15 -21793.04,15244.61 -48268.02,27616.15 -110759.19,84890.29 -139042.76,127434.83 -14192.9,21349.2 -39428.27,71945.5 -41227.31,82659.73 -838.78,4995.4 1371.51,6224.78 14756.4,8207.56 48467.08,7179.67 105572.03,38145.53 155061.03,84083.69 l 21225.78,19702.83 16168.77,-4369.81 c 24367.67,-6585.66 67034.02,-8642.39 94865.11,-4572.94 177351.32,25932.2 325092.75,236802.89 374315.95,534259.5 11823.64,71450.4891 13673.96,99385.207 13573.5,204922.15 -85.56,89777.26 -969,109632.84 -6789.36,152569.77 -17422.15,128523.64 -49869.22,239775.39 -96531.1,330977.77 -64278.82,125635.29 -148103.01,207452.89 -245098.53,239231.35 -23248.82,7616.97 -29402.62,8345.06 -71797.54,8494.79 -54395.29,192.05 -76290.16,-4678.45 -121777.55,-27089.57 l -27543.27,-13570.25 -17479.41,10244.4 c -41456.41,24296.92 -80439.91,34967.83 -127868.85,35001.33 -43283.78,30.52 -74657.15,-7449.77 -114237.641,-27237.71 L 57074.84,819479.9 40868.31,828752.38 c -36012.5399,20604.27 -82934.717,33265.59 -123280.568,33265.59 -57444.762,0 -110657.992,-20543.76 -173199.242,-66866.18 -2179.27,-1614.1 -12454.39,3662.33 -28043.23,14400.67 -28788.39,19830.84 -59541.07,34625.59 -90636.28,43603.99 -29127.4,8410.24 -88582.11,10677.79 -116131.78,4429.13 z"
                                   id="path9367"
                                   sodipodi:nodetypes="sssssscsssscssssssssscssssssssscssscssssss" />
                                <path
                                   style="fill:#e3681b;stroke-width:2991.56"
                                   d="M -482292.08,859160.13 C -654078.36,822684 -754535.94,653820.62 -807431.25,499396.03 c -54049.59,-167154.17 -72830.52,-347146.36 -48988.42,-521385.27 17657.33,211991.92 81053.67,440844.29 251603.95,581531.62 54989.73,44067.54 259744,513.94 214815.55,44270.97 -147481.53,-381102.58 -126252.93,-822738.57 51152.24,-1190118.74 67734.21,-30929.55 37608.48,106139.06 11254.16,183560.63 -77196.93,334928.696 -109662.11,671576.12 -4075.32,1001360.26 63401.83,10697.42 53902.96,4359.11 100750.2,-42319.79 35665.66,59069.66 209495.549,98753.41 285784.388,-145 16181.103,-414622.47 7608.365,-829905.12 -1165.303,-1244505.39 33153.627,-32826.12 92134.265,-30920.78 138087.195,-22855.7 C 72789.758,-751337.29 177993.5,366439.86 97906.981,584476.57 c 52868.769,56660.36 150216.579,44865.1 187011.469,-6322.43 14516.26,45068.88 79006.43,118416.63 101861.35,-48430.07 42579.82,-336377.74 90393.69,-676131.07 63326.3,-1015714.19 1035.91,-41587.83 -47680.59,-110214.65 23948.22,-114118.9 69241.7,182289.35 56547.92,381836.38 47704.67,572879.868 C 506421.93,185888.89 469455.81,396998.27 429187.04,606338.82 567212.61,654467.64 705899.36,553852.52 776873.93,440934.01 855528.71,324735.55 892479.38,187150.45 916620.48,50687.347 927806.44,296776.52 881705.57,563703.34 713716.05,753481.74 629418.15,852809.62 476611.93,893218.82 361665.5,823509.89 308958.56,817277.27 294383.11,880585.11 193086.01,861365.96 83701.012,846944.21 55828.385,818197.01 35747.55,830396.7 c -93575.86,55630.52 -215725.98,31570.58 -294662.1,-38775.44 -63167.52,50981.59 -141564.66,79471.98 -223377.53,67538.87 z"
                                   id="path9365"
                                   sodipodi:nodetypes="ccccccccccccccccccccccccccc" />
                                <path
                                   style="fill:#7e6137;stroke-width:2991.56"
                                   d="m 57588.582,-680947.78 c -7636.729,-3056.91 938.982,-20475.8 -2736.161,-14455.59 26646.354,-70112.24 69260.679,-134206.46 125230.129,-184326.46 61680.34,-55638.87 137161.77,-95851.91 217387.2,-117087.78 22859.03,-7131.09 44078.87,17325.99 39160.03,39259.17 -3877.21,21927.18 -28143.14,28599.98 -43995.87,40117.82 -46075.99,31087.19 -88769.04,68610.74 -121157.76,114035.65 -18326.67,28762.56 -35862.78,58599.32 -46677.61,91102.22 -34369.15,1768.5 -69777.68,0.73 -102256.99,13430.66 -17663.73,5590.96 -67233.906,30192.58 -50673.233,22157.95 -5211.98,1964.19 -10399.494,-940.08 -14279.735,-4233.64 z"
                                   id="path9363" />
                                </g>
                                </g>
                                </g>
                                </g>
                                </g>
                                </g>
                                </g>
                                </g>
                                </g>
                                </g>
                                </g>
                                </g>
                                </g>
                                </g>
                                </g>
                                </g>
                                </g>
                                </g>
                                </g>
                                </g>
                                </g>
                                </g>
                                </g>
                                </g>
                                </g>
                                </g>
                                </g>
                                </g>
                                </g>
                                </g>
                                </g>
                                </g>
                                </g>
                                </g>
                                </g>
                                </g>
                                </g>
                                </g>
                                </g>
                                </g>
                                </g>
                                </g>
                                </g>
                                </g>
                                </g>
                                </g>
                                </g>
                                </g>
                                </g>
                                </g>
                                </g>
                                </g>
                              </g>
                            </g>
                          </g>
                        </g>
                      </g>
                    </g>
                  </g>
                </g>
              </g>
            </g>
          </g>
        </g>
      </g>
    </g>
  </g>
</svg>
