<?xml version="1.0" encoding="UTF-8" standalone="no"?>
<!-- Created with Inkscape (http://www.inkscape.org/) -->

<svg
   width="64"
   height="64"
   viewBox="0 0 16.933333 16.933334"
   version="1.1"
   id="svg5"
   inkscape:version="1.2 (dc2aedaf03, 2022-05-15)"
   sodipodi:docname="prune.svg"
   xmlns:inkscape="http://www.inkscape.org/namespaces/inkscape"
   xmlns:sodipodi="http://sodipodi.sourceforge.net/DTD/sodipodi-0.dtd"
   xmlns="http://www.w3.org/2000/svg"
   xmlns:svg="http://www.w3.org/2000/svg">
  <sodipodi:namedview
     id="namedview7"
     pagecolor="#ffffff"
     bordercolor="#666666"
     borderopacity="1.0"
     inkscape:pageshadow="2"
     inkscape:pageopacity="0.0"
     inkscape:pagecheckerboard="0"
     inkscape:document-units="mm"
     showgrid="false"
     units="px"
     inkscape:zoom="11.313709"
     inkscape:cx="7.5572033"
     inkscape:cy="36.946327"
     inkscape:window-width="1920"
     inkscape:window-height="1017"
     inkscape:window-x="1912"
     inkscape:window-y="-8"
     inkscape:window-maximized="1"
     inkscape:current-layer="g12029"
     inkscape:showpageshadow="2"
     inkscape:deskcolor="#d1d1d1" />
  <defs
     id="defs2" />
  <g
     inkscape:label="Calque 1"
     inkscape:groupmode="layer"
     id="layer1">
    <g
       id="g4128"
       transform="translate(-0.63104184,0.12620835)">
      <g
         id="g5578"
         transform="translate(0.08924235,0.08924306)">
        <g
           id="g7501"
           transform="translate(-0.06310417,0.94656242)">
          <g
             id="g9467"
             transform="translate(-0.08924275,-0.80318511)">
            <g
               id="g10302"
               transform="translate(0.31234979,-0.04462139)">
              <g
                 id="g11479"
                 transform="translate(-0.12620833,0.06310418)">
                <g
                   id="g11873"
                   transform="translate(-0.23575769,0.66462456)">
                  <g
                     id="g12382"
                     transform="translate(-121.98459,-82.267525)">
                    <g
                       id="g13305"
                       transform="matrix(0.13266609,0,0,0.13266609,114.63867,78.215696)">
                      <g
                         id="g17429"
                         transform="translate(0.90513437,5.6640979)">
                        <g
                           id="g18595"
                           transform="translate(-3.3634362,-8.7449387)">
                          <g
                             id="g21002"
                             transform="translate(1.7082278,-2.8204445)">
                            <g
                               id="g23814"
                               transform="translate(8.7253043,-1.1218249)">
                              <g
                                 id="g24838"
                                 transform="translate(11.143454,-0.85716864)">
                                <g
                                   id="g25315"
                                   transform="translate(-3.490122,2.4929446)">
                                <g
                                   id="g27220"
                                   transform="translate(2.4678888,1.2339445)">
                                <g
                                   id="g29753"
                                   transform="translate(1.4759287,-2.3737724)">
                                <g
                                   id="g30615"
                                   transform="translate(0.92006037,1.3687834)">
                                <g
                                   id="g31433"
                                   transform="translate(-2.4678886,-1.410222)">
                                <g
                                   id="g31731"
                                   transform="translate(1.0576664,-0.70511063)">
                                <g
                                   id="g33243"
                                   transform="matrix(1.0772948,0,0,1.0772948,-7.3729128,-3.1743014)">
                                <g
                                   id="g35254"
                                   transform="translate(-2.2135012,-0.92031205)">
                                <g
                                   id="g36749"
                                   transform="translate(-0.98178042,-2.7817105)">
                                <g
                                   id="g37297"
                                   transform="translate(-6.7755742,-3.5033798)">
                                <g
                                   id="g38955"
                                   transform="matrix(1.2171094,0,0,1.2171094,-23.105122,-18.212482)">
                                <g
                                   id="g39618"
                                   transform="translate(-0.26888273,-0.26888316)">
                                <g
                                   id="g40032"
                                   transform="translate(-1.90129,-3.042064)">
                                <g
                                   id="g40543"
                                   transform="translate(0.3802582,-2.0914191)">
                                <g
                                   id="g41372"
                                   transform="translate(1.9657652,-7.9304203)">
                                <g
                                   id="g43278"
                                   transform="translate(1.5210324,-0.38025789)">
                                <g
                                   id="g44210"
                                   transform="matrix(1.1578947,0,0,1.1578947,-18.904476,-21.776183)">
                                <g
                                   id="g44833"
                                   transform="matrix(1.1196819,0,0,1.1196819,-12.538538,-14.547543)">
                                <g
                                   id="g47597"
                                   transform="translate(3.1109352,-1.2443743)">
                                <g
                                   id="g48754"
                                   transform="translate(-2.9035392,-6.6366609)">
                                <g
                                   id="g234"
                                   transform="matrix(0.04089637,0,0,0.04089637,104.63967,119.67231)">
                                <g
                                   id="g2138"
                                   transform="translate(-86.211222,-40.569988)">
                                <g
                                   id="g2696"
                                   transform="translate(-124306.44,-9412.2373)">
                                <g
                                   id="g3765"
                                   transform="translate(25.356243,-50.712489)">
                                <g
                                   id="g4557"
                                   transform="translate(46.61688,-35.859142)">
                                <g
                                   id="g5244"
                                   transform="translate(7.1718407,14.343658)">
                                <g
                                   id="g5807"
                                   transform="translate(-5.1984397,-21.113724)">
                                <g
                                   id="g6945"
                                   transform="translate(-10.142522,-243.41993)">
                                <g
                                   id="g11108"
                                   transform="translate(18.189368,-37.636113)">
                                <g
                                   id="g15049"
                                   transform="translate(-65.926228,141.99496)">
                                <g
                                   id="g19861"
                                   transform="matrix(0.07356842,0,0,0.07356842,115423.38,9039.2311)">
                                <g
                                   id="g20437"
                                   transform="translate(-478.38824,-785.88156)">
                                <g
                                   id="g21032"
                                   transform="translate(2047.1878,-1072.3367)">
                                <g
                                   id="g21869"
                                   transform="matrix(0.04321578,0,0,0.04321578,117368,10137.003)">
                                <g
                                   id="g25455"
                                   transform="translate(154741.46,-87178.414)">
                                <g
                                   id="g26278"
                                   transform="translate(-18012.371,-8233.4417)">
                                <g
                                   id="g27240"
                                   transform="translate(-0.00447131,5582.7624)">
                                <g
                                   id="g28306"
                                   transform="translate(-15790.441,-2255.7767)">
                                <g
                                   id="g33735"
                                   transform="translate(14662.549,-16918.328)">
                                <g
                                   id="g37868"
                                   transform="translate(-5075.4976,25941.433)">
                                <g
                                   id="g76752"
                                   transform="matrix(-1,0,0,1,9442.3174,-1595.0746)">
                                <g
                                   id="g82459"
                                   transform="translate(3383.6668,-1127.8885)">
                                <g
                                   id="g83208"
                                   transform="matrix(0.20332428,0,0,0.20332428,-15348.528,66747.475)">
                                <g
                                   id="g83934"
                                   transform="matrix(-1,0,0,1,240692.18,94139.78)">
                                <g
                                   id="g84550"
                                   transform="translate(-8.7627443e-5,55472.344)">
                                <g
                                   id="g9096"
                                   transform="translate(31379.925,-62759.843)">
                                <g
                                   id="g11527"
                                   transform="translate(61019.625,105397.54)">
                                <g
                                   id="g13422"
                                   transform="translate(-44377.907,44377.908)">
                                <g
                                   id="g1137"
                                   transform="translate(-3.3240812e-4,138680.92)">
                                <g
                                   id="g3632"
                                   transform="translate(177511.65,-22188.943)">
                                <g
                                   id="g5936"
                                   transform="translate(11767.473,-47069.909)">
                                <g
                                   id="g7318">
                                <g
                                   id="g11619"
                                   transform="translate(27457.436,-223581.94)" />
                                <g
                                   id="g11985"
                                   transform="translate(70604.821,-133364.68)">
                                <g
                                   id="g12707"
                                   transform="matrix(1.186974,0,0,1.186974,95904.637,-164033.62)">
                                <g
                                   id="g4721"
                                   transform="matrix(-1,0,0,1,-561251.4,-59483.037)">
                                <g
                                   id="g7072">
                                <g
                                   id="g10426"
                                   transform="translate(66928.962,-211126.69)">
                                <g
                                   id="g1231"
                                   transform="translate(-14020.287,4673.4667)">
                                <g
                                   id="g2516"
                                   transform="matrix(1.1495428,0,0,1.1495428,-144709.4,-78762.736)">
                                <g
                                   id="g3795"
                                   transform="translate(-22559.428,121623.52)">
                                <g
                                   id="g5627"
                                   transform="translate(-106364.63,2874.7178)">
                                <g
                                   id="g6621"
                                   transform="translate(-12196.407,40654.68)">
                                <g
                                   id="g7772"
                                   transform="translate(28747.2,74742.673)">
                                <g
                                   id="g8880"
                                   transform="translate(-60982.018,187011.51)">
                                <g
                                   id="g11165"
                                   transform="translate(-44309.499,5172.6179)">
                                <g
                                   id="g12249"
                                   transform="translate(48785.608,-8130.9328)">
                                <g
                                   id="g14000"
                                   transform="matrix(1.0831477,0,0,1.0831477,-5722.2619,28128.151)">
                                <g
                                   id="g15203"
                                   transform="translate(53158.943,24797.103)">
                                <g
                                   id="g16076"
                                   transform="translate(-37533.822,-30027.061)">
                                <g
                                   id="g17560"
                                   transform="translate(-21232.337,7962.1264)">
                                <g
                                   id="g25114"
                                   transform="translate(-67560.839,7506.7636)">
                                <g
                                   id="g29358"
                                   transform="translate(-21232.382,-47772.762)" />
                                </g>
                                <g
                                   id="g54846"
                                   transform="translate(-89414.803,-58825.532)">
                                <g
                                   id="g56152"
                                   transform="translate(-3.3655809e-4,28236.25)">
                                <g
                                   id="g56999"
                                   transform="translate(-65884.586,-28236.251)">
                                <g
                                   id="g58386"
                                   transform="translate(-26621.369,66553.488)">
                                <g
                                   id="g59580"
                                   transform="matrix(1.3336607,0,0,1.3336607,-147290.21,2462.1241)">
                                <g
                                   id="g60913"
                                   transform="translate(52929.981,10585.996)">
                                <g
                                   id="g61494"
                                   transform="translate(83376.512,12462.173)">
                                <g
                                   id="g64263"
                                   transform="translate(12959.021,17102.931)">
                                <g
                                   id="g66681"
                                   transform="translate(34932.003,-24951.435)">
                                <g
                                   id="g67253"
                                   transform="translate(-56458.648,35286.648)">
                                <g
                                   id="g67911"
                                   transform="translate(-35291.329,-19495.235)">
                                <g
                                   id="g68553"
                                   transform="translate(-128708.75,-9980.5274)">
                                <g
                                   id="g69435"
                                   transform="translate(24951.434,-1.4872907e-4)">
                                <g
                                   id="g70136"
                                   transform="translate(44108.319,-44108.311)">
                                <g
                                   id="g73710"
                                   transform="translate(2814.3438,42215.187)">
                                <g
                                   id="g75109"
                                   transform="matrix(0.86843181,0,0,0.86843181,6682.2729,-19586.27)">
                                <g
                                   id="g76838"
                                   transform="translate(18332.288,-98536.062)">
                                <g
                                   id="g12029"
                                   transform="translate(19444.359,-45370.105)">
                                <path
                                   style="fill:#835b89;stroke-width:2491.32"
                                   d="m 184328.36,857637.39 c 704.72,-704.7 18548.77,-1743.48 39653.45,-2308.38 57931.35,-1550.67 97259.98,-11057.93 144685.58,-34976.15 38092.96,-19211.51 65469.76,-39654.95 101731.67,-75967.46 45966.97,-46031.14 78483.96,-93177.12 104781.8,-151921.82 68225.09,-152402.73 69134.1,-330147.88 2389.52,-467237.32 C 544216.91,56720.188 491366.67,-406.69754 432341.68,-31754.373 392484.92,-52921.984 343402.24,-65359.378 299723.7,-65359.378 c -20123.08,0 -57981.85,4774.656 -71984.19,9078.478 -4503.33,1384.15 -4637.26,215.249 -2935.19,-25613.061 5400.3,-81948.169 28512.01,-151819.079 67529.27,-204153.369 18130.17,-24318.2 20005.66,-32248.08 9994.66,-42259.06 -9310.17,-9310.2 -23097.86,-8477.72 -32822.76,1981.72 -12710.49,13670.54 -23519.01,28727.68 -34678.29,48309.69 l -10679.27,18739.7 -1674.44,-14528.43 c -18970.32,-164597.55 -136323.906,-295091.4 -295201.444,-328255.65 -39174.666,-8177.35 -104629.516,-10920.76 -104637.296,-4385.66 -1.12,943.71 -1700.12,9855.38 -3775.59,19803.71 -22670.79,108668.45 7698.32,228485.82 79398.65,313257.09 20105.516,23770.71 21724.622,25414.63 42716.471,43370.91 65030.7815,55626.89 152609.837,89914.47 229664.059,89914.47 h 16296.04 l -1478.42,8096.77 c -813.12,4453.23 -2232.32,25247.82 -3153.78,46210.169 -1472.2,33490.977 -2158.11,37926.54 -5655.49,36572.759 -15744.69,-6094.605 -48300.9,-11561.597 -76228.22,-12800.628 -135445.497,-6009.153 -253432.25,83199.698 -310254.6,234581.02 -35127.2,93582.88 -40927.9,211731.92 -15656.35,318888.38 19549.1,82892.12 58286.89,163476.56 107588.88,223812.14 8129.43,9948.77 26545.412,29321.04 40924.391,43049.46 69099.8966,65973.62 149434.58,100607.44 233363.379,100607.44 14664.61,0 27239.5,-576.57 27944.19,-1281.28 z M 549147.28,242581.62 c -2206.97,-4650.84 -9124.31,-24330.69 -15371.86,-43732.95 C 518980.88,152903.03 509321.96,130344.69 486840.73,89233.001 465621.52,50429.193 463536.49,43375.008 472961.51,42275.815 c 8642.9,-1007.962 24167.45,10696.313 39713.96,29941.152 16950.23,20982.507 40967.72,69907.913 47424.54,96607.313 6727.99,27820.72 9047.59,61074.3 5095.54,73049.16 -3911.84,11852.95 -10619.27,12148.95 -16048.27,708.18 z"
                                   id="path12041" />
                                <path
                                   style="fill:#7e5784;stroke-width:2491.32"
                                   d="M 166643.98,857910.51 C 234757.09,852226.89 306703.88,855444.74 368101,819927.24 523774.55,737539.04 613163.65,562865.91 624151.85,391132.61 629090.29,308827.59 620970.43,222675.92 584742.81,147794.26 570553.79,104924.36 540918.88,62796.683 509228.03,28361.748 480573.43,1332.1705 381072.46,-55767.842 416549.55,-38321.107 348236.46,-71064.195 269895.94,-67294.165 197741.06,-51801.325 147673.45,-45792.248 -6932.9554,-43150.623 44646.023,-58074.563 -78593.585,-39522.649 -172196.31,64566.305 -210915.06,178899.87 -277952.23,378249.32 -226547.1,618156.24 -71114.338,763034 -7121.9494,822736.64 78202.732,861216.12 166643.98,857910.51 Z M 551658.8,248891.4 C 531845.19,212179.73 479040.77,100756.77 503242.8,130979.8 477648.96,87963.149 453693.77,34567.612 476344.62,40146.907 c 51996.08,29978.996 77599.16,91982.023 88749.59,148640.533 1801.99,11791.61 12147.95,74187.29 -13435.41,60103.96 z"
                                   id="path12039"
                                   sodipodi:nodetypes="cssssssssscsccss" />
                                <path
                                   style="fill:#68436f;stroke-width:2491.32"
                                   d="m 166613.64,857956.17 c 63756.15,-6062.78 130821.14,-1785.16 189370.48,-32682.31 C 506330.03,754395.67 596540.06,594141.34 619832.43,434167.67 631675.09,393384 570781.72,498041.4 581448.58,470945.64 510596.2,551787.39 428360.31,640031.5 316291.61,655982.66 224059.64,669611.15 125180.46,626208.63 73366.15,548939.32 18437.034,412042.25 9526.8483,248838.64 83448.301,116939.88 114239.89,55768.801 161418.51,5286.6995 210795.14,-41250.788 220770.42,-91801.321 105101.8,4541.0455 132321.5,-14223.638 21360.003,75052.18 -40793.661,220154.57 -27969.72,362105.15 -23563.284,443386.98 2918.4376,521477.21 36573.478,594968.88 -43429.448,589911.6 -117835.62,538870.21 -148428.07,464140.17 c -43802.96,-95012.43 -39697.42,-201979.61 -36401.76,-304035.5 1593.43,-30005.97 13117.11,-61692.96 -5851.69,-29406.74 -49778.11,101622.74 -57519.5,219139.92 -40243.26,329603.18 28437.4,156084.68 120614.69,311131.65 271484.802,374393.4 39645.955,16682.23 83183.898,24280.22 126053.618,23261.66 z"
                                   id="path12037"
                                   sodipodi:nodetypes="ssssscssssssssccsssscsssssscssssss" />
                                <path
                                   style="fill:#52843b;stroke-width:2491.32"
                                   d="m 224882.9,-264803.71 c -9098.99,-48077.32 -11893.3,-62048.4 -18734.63,-83462.68 -19300.69,-60413.58 -47692.94,-106731.62 -93077.08,-151842.47 -44252.093,-43985.62 -87041.831,-70650.46 -143446.782,-89390.3 -42129.29,-13996.93 -63581.936,-17528.23 -107105.668,-17630.58 l -38594.48,-90.76 -4689.75,19930.53 c -3736.4,15879.05 -4753.53,30565.63 -5003.54,72248.15 -278.2,46387.27 342.56,55249.05 5476.49,78178.72 19828.35,88559.34 67512.88,164905.46 136214.713,218088.94 26151.065,20244.05 39938.3026,28747.14 68528.639,42264.07 43231.099,20438.8 89306.178,32401.73 136776.658,35512.63 l 25548.24,1674.26 c 44135.72,-18339.59 41585.23,-82579.95 38107.19,-125480.51 z"
                                   id="path12035"
                                   sodipodi:nodetypes="csssscsssssscc" />
                                <path
                                   style="fill:#366424;stroke-width:2491.32"
                                   d="m 219764.16,-185149.05 c -814.53,798.69 -15107.98,1285.97 -31763.2,1082.77 -155312.987,-1894.59 -293446.51,-102240.17 -345223.9,-250784.06 -14665.57,-42074.03 -18591.39,-67415.02 -18750.88,-121036.68 -129.8,-43607.72 -435.56,-47008.58 -3136.64,-34878.41 -19017.51,85404.48 -4125.92,183842.31 39354.63,260145.58 62361.244,109436.71 165629.552,179197.93 292248.37,190407.83 25278.6,2238 21657.19,622.14 56267.54,2130.22 16464.59,-27585.28 11004.08,-47067.25 11004.08,-47067.25 z"
                                   id="path12033"
                                   sodipodi:nodetypes="ccssssscc" />
                                <path
                                   style="fill:#5e3712;stroke-width:2491.32"
                                   d="m 209038.8,-50636.626 13950.37,-4922.914 1480.59,-30435.901 c 1631.46,-33537.389 8685.72,-73943.859 18323,-104953.439 8997.19,-28949.91 30724.92,-71783.65 48134.68,-94891.92 17699.03,-23492.21 19837.7,-34467.72 8460.28,-43417.2 -14841.44,-11674.28 -24386.46,-6108.88 -48826.64,28469.31 -23412.49,33124.23 -25970.22,40406.62 -27562.64,78476.44 -1204.31,28791.21 -5777.54,62088.34 -10692.88,77853.61 -1019.77,3270.74 -4051.2,4359.8 -12135.82,4359.8 -7083.83,0 -11248.44,1229.91 -12153.83,3589.29 -2409.88,6280 -7081.29,64429.275 -6216.21,77378.46 751.46,11248.489 1436.22,12503.165 7060.47,12936.978 3425.55,264.229 12505.95,-1734.902 20178.63,-4442.514 z"
                                   id="path12031" />
                                </g>
                                </g>
                                </g>
                                </g>
                                </g>
                                </g>
                                </g>
                                </g>
                                </g>
                                </g>
                                </g>
                                </g>
                                </g>
                                </g>
                                </g>
                                </g>
                                </g>
                                </g>
                                </g>
                                </g>
                                </g>
                                </g>
                                </g>
                                </g>
                                </g>
                                </g>
                                </g>
                                </g>
                                </g>
                                </g>
                                </g>
                                </g>
                                </g>
                                </g>
                                </g>
                                </g>
                                </g>
                                </g>
                                </g>
                                </g>
                                </g>
                                </g>
                                </g>
                                </g>
                                </g>
                                </g>
                                </g>
                                </g>
                                </g>
                                </g>
                                </g>
                                </g>
                                </g>
                                </g>
                                </g>
                                </g>
                                </g>
                                </g>
                                </g>
                                </g>
                                </g>
                                </g>
                                </g>
                                </g>
                                </g>
                                </g>
                                </g>
                                </g>
                                </g>
                                </g>
                                </g>
                                </g>
                                </g>
                                </g>
                                </g>
                                </g>
                                </g>
                                </g>
                                </g>
                                </g>
                                </g>
                                </g>
                                </g>
                                </g>
                                </g>
                                </g>
                                </g>
                                </g>
                              </g>
                            </g>
                          </g>
                        </g>
                      </g>
                    </g>
                  </g>
                </g>
              </g>
            </g>
          </g>
        </g>
      </g>
    </g>
  </g>
</svg>
