<?xml version="1.0" encoding="UTF-8" standalone="no"?>
<!-- Created with Inkscape (http://www.inkscape.org/) -->

<svg
   width="64"
   height="64"
   viewBox="0 0 16.933333 16.933333"
   version="1.1"
   id="svg5"
   inkscape:version="1.2 (dc2aedaf03, 2022-05-15)"
   sodipodi:docname="quetsche.svg"
   xmlns:inkscape="http://www.inkscape.org/namespaces/inkscape"
   xmlns:sodipodi="http://sodipodi.sourceforge.net/DTD/sodipodi-0.dtd"
   xmlns="http://www.w3.org/2000/svg"
   xmlns:svg="http://www.w3.org/2000/svg">
  <sodipodi:namedview
     id="namedview7"
     pagecolor="#ffffff"
     bordercolor="#999999"
     borderopacity="1"
     inkscape:pageshadow="0"
     inkscape:pageopacity="0"
     inkscape:pagecheckerboard="0"
     inkscape:document-units="mm"
     showgrid="false"
     width="64mm"
     units="px"
     inkscape:zoom="23.490012"
     inkscape:cx="36.504877"
     inkscape:cy="24.393346"
     inkscape:window-width="1920"
     inkscape:window-height="1017"
     inkscape:window-x="1912"
     inkscape:window-y="-8"
     inkscape:window-maximized="1"
     inkscape:current-layer="g184"
     inkscape:showpageshadow="2"
     inkscape:deskcolor="#d1d1d1" />
  <defs
     id="defs2" />
  <g
     inkscape:label="Calque 1"
     inkscape:groupmode="layer"
     id="layer1">
    <g
       id="g57"
       transform="translate(0.03185842,-0.66902684)">
      <g
         id="g916"
         transform="translate(-0.38230104,-0.15929215)">
        <g
           id="g2039"
           transform="translate(-0.47787631,-0.41415949)">
          <g
             id="g6856"
             transform="translate(-0.78845573,0.20274575)">
            <g
               id="g7441"
               transform="matrix(0.09340124,0,0,0.09340124,9.881272,8.9403992)">
              <g
                 id="g8744"
                 transform="translate(-4.2373945e-6,2.7287364)">
                <g
                   id="g9293"
                   transform="translate(-4.3413945,1.929508)">
                  <g
                     id="g9651"
                     transform="translate(-5.7885243,2.8942619)">
                    <g
                       id="g184"
                       transform="matrix(1.2111753,0,0,1.2111753,-0.55898047,-4.1540209)">
                      <path
                         style="fill:#5a2ca0;stroke-width:0.205718"
                         d="M 7.7160293,62.75452 C -2.1636138,61.883175 -12.013595,56.603012 -16.543029,47.497207 c -4.388034,-8.518058 -5.158385,-18.492932 -4.136268,-27.888015 2.944371,-16.5989121 12.3060318,-31.159843 22.4470123,-44.292159 2.4469068,-3.561045 5.9062278,-6.234124 9.9803807,-7.647412 3.355719,-2.567059 5.378126,0.321484 8.475541,1.226983 7.515518,4.220483 12.203208,11.915432 16.26538,19.257248 6.851886,12.930675 10.636938,27.649919 9.532548,42.328211 -0.468246,10.71472 -4.577153,22.317013 -14.290684,27.966308 -7.200094,4.27055 -15.838141,4.998832 -24.0148517,4.306149 z M -12.055124,11.86617 c 3.0217472,-6.4774573 5.6913496,-13.1879963 9.9206559,-19.0180374 1.0782783,-1.5953534 5.3395225,-7.1100366 0.6566581,-5.3456206 -6.5553687,4.2518825 -10.506331,11.71521059 -12.285595,19.1587273 -0.323597,1.093971 -1.046855,8.5831797 1.708281,5.2049307 z"
                         id="path194"
                         sodipodi:nodetypes="sssssccsssssssscsssssccc" />
                      <path
                         style="fill:#2d1650;stroke-width:0.205718"
                         d="M 9.1560574,62.774857 C 2.2151756,62.263148 -4.7966687,60.077552 -10.155806,55.507496 c 3.3521231,0.74103 6.6679031,2.176537 10.1323547,2.696288 7.1243158,1.149452 14.8916503,0.878229 21.2445603,-2.91183 8.184699,-4.813699 12.915381,-13.620708 15.681506,-22.417841 3.959624,-12.452667 4.024997,-25.8628065 1.680522,-38.632703 -0.387386,-1.463168 -0.856556,-4.0711914 0.228648,-1.2228653 4.468972,10.1649324 7.443464,21.1381973 7.24758,32.3116333 0.192399,10.103229 -1.761239,21.080595 -8.959213,28.659004 -6.780892,7.275188 -17.286579,9.394989 -26.859957,8.856823 l -0.5423939,-0.03251 -0.5417437,-0.03864 z"
                         id="path192"
                         sodipodi:nodetypes="ssssssssssssscssss" />
                      <path
                         style="fill:#52843b;stroke-width:0.205718"
                         d="m 46.905365,-28.088014 c -1.736307,-0.16175 -6.058101,-0.919847 -8.125873,-1.425377 -8.364104,-2.044864 -16.578381,-6.104279 -21.581394,-10.665311 l -0.906703,-0.826603 c -2.020834,-2.68591 -3.386671,-3.13005 -2.07829,-7.8203 0.182194,0.278064 0.445717,0.94793 0.585606,1.488593 0.295808,1.143292 0.158987,1.121053 3.10037,0.503939 2.820242,-0.591699 7.312269,-0.92481 10.285915,-0.762763 12.655243,0.68964 24.68691,5.334884 33.124791,12.788982 1.205851,1.065259 4.007362,4.187485 4.007362,4.466124 0,0.179222 -3.620307,1.295713 -5.348676,1.649515 -2.773399,0.567721 -4.971281,0.749572 -8.634772,0.714433 -1.983005,-0.01902 -3.975759,-0.06908 -4.42834,-0.11124 z"
                         id="path190"
                         sodipodi:nodetypes="sssccsssssssss" />
                      <path
                         style="fill:#346223;stroke-width:0.205718"
                         d="M 48.551112,-28.079073 C 36.736973,-29.051286 25.836804,-33.172132 17.919653,-39.659401 l -1.830895,-1.500226 0.140061,0.694316 c 0.31794,1.576084 0.760701,4.871296 0.877623,6.53161 l 0.124947,1.774283 -2.883551,0.0022 -2.883549,0.0022 -0.242629,-2.162224 c -0.320912,-2.859868 -0.89637,-6.134658 -1.6689736,-9.497716 -0.7767121,-3.380948 -0.7412853,-4.449321 0.1780224,-5.368629 0.5132382,-0.513239 0.8434062,-0.648958 1.7645612,-0.725347 1.886003,-0.156403 2.988665,0.831667 3.333299,2.986891 l 0.135262,0.845879 -0.837924,0.251048 c -1.080778,0.323809 -0.97572,0.530411 1.255844,2.469652 5.130393,4.458344 12.149328,7.969357 19.694812,9.851747 5.633783,1.405471 8.455884,1.75135 14.297422,1.752302 5.087862,8.23e-4 7.29142,-0.247639 11.001378,-1.240489 1.037139,-0.277551 1.967266,-0.504644 2.066949,-0.504644 0.216691,0 2.669123,2.815068 2.669123,3.063802 0,0.258193 -2.908055,1.170352 -5.257835,1.649207 -3.383673,0.689549 -7.99296,0.976855 -11.302488,0.704505 z"
                         id="path188" />
                      <path
                         style="fill:#5e3712;stroke-width:0.205718"
                         d="m 11.22166,-34.317277 c -0.320912,-2.859867 -0.89637,-6.134658 -1.6689736,-9.497716 -0.7767121,-3.380948 -0.7412853,-4.449321 0.1780224,-5.368629 0.5132382,-0.513239 0.8434062,-0.648958 1.7645612,-0.725347 1.874929,-0.155484 2.988895,0.833115 3.327944,2.953407 l 0.129907,0.812396 -1.149926,0.390872 c -0.632459,0.214979 -1.149927,0.49584 -1.149927,0.624134 0,0.128293 0.776879,1.115038 1.726397,2.192765 1.501414,1.704141 1.755715,2.105037 1.951359,3.076248 0.326763,1.622107 0.848208,5.830258 0.847066,6.835963 l -0.001,0.863766 -2.856409,0.0022 -2.856411,0.0022 -0.242628,-2.162224 z"
                         id="path186" />
                    </g>
                  </g>
                </g>
              </g>
            </g>
          </g>
        </g>
      </g>
    </g>
  </g>
</svg>
