<?xml version="1.0" encoding="UTF-8" standalone="no"?>
<!-- Created with Inkscape (http://www.inkscape.org/) -->

<svg
   width="64"
   height="64"
   viewBox="0 0 16.933333 16.933334"
   version="1.1"
   id="svg5"
   inkscape:version="1.2 (dc2aedaf03, 2022-05-15)"
   sodipodi:docname="rascasse.svg"
   xml:space="preserve"
   xmlns:inkscape="http://www.inkscape.org/namespaces/inkscape"
   xmlns:sodipodi="http://sodipodi.sourceforge.net/DTD/sodipodi-0.dtd"
   xmlns="http://www.w3.org/2000/svg"
   xmlns:svg="http://www.w3.org/2000/svg"><sodipodi:namedview
     id="namedview7"
     pagecolor="#ffffff"
     bordercolor="#666666"
     borderopacity="1.0"
     inkscape:pageshadow="2"
     inkscape:pageopacity="0.0"
     inkscape:pagecheckerboard="0"
     inkscape:document-units="mm"
     showgrid="false"
     units="px"
     inkscape:zoom="8"
     inkscape:cx="-12.6875"
     inkscape:cy="25.375"
     inkscape:window-width="1920"
     inkscape:window-height="1017"
     inkscape:window-x="1912"
     inkscape:window-y="-8"
     inkscape:window-maximized="1"
     inkscape:current-layer="g459"
     inkscape:showpageshadow="0"
     inkscape:deskcolor="#d1d1d1" /><defs
     id="defs2"><linearGradient
       id="linearGradient7087"
       inkscape:swatch="solid"><stop
         style="stop-color:#f4eed7;stop-opacity:1;"
         offset="0"
         id="stop7085" /></linearGradient></defs><g
     inkscape:label="Calque 1"
     inkscape:groupmode="layer"
     id="layer1"><g
       id="g4128"
       transform="translate(-0.63104184,0.12620835)"><g
         id="g5578"
         transform="translate(0.08924235,0.08924306)"><g
           id="g7501"
           transform="translate(-0.06310417,0.94656242)"><g
             id="g9467"
             transform="translate(-0.08924275,-0.80318511)"><g
               id="g10302"
               transform="translate(0.31234979,-0.04462139)"><g
                 id="g11479"
                 transform="translate(-0.12620833,0.06310418)"><g
                   id="g11873"
                   transform="translate(-0.23575769,0.66462456)"><g
                     id="g12382"
                     transform="translate(-121.98459,-82.267525)"><g
                       id="g13305"
                       transform="matrix(0.13266609,0,0,0.13266609,114.63867,78.215696)"><g
                         id="g17429"
                         transform="translate(0.90513437,5.6640979)"><g
                           id="g18595"
                           transform="translate(-3.3634362,-8.7449387)"><g
                             id="g21002"
                             transform="translate(1.7082278,-2.8204445)"><g
                               id="g23814"
                               transform="translate(8.7253043,-1.1218249)"><g
                                 id="g24838"
                                 transform="translate(11.143454,-0.85716864)"><g
                                   id="g25315"
                                   transform="translate(-3.490122,2.4929446)"><g
                                   id="g27220"
                                   transform="translate(2.4678888,1.2339445)"><g
                                   id="g29753"
                                   transform="translate(1.4759287,-2.3737724)"><g
                                   id="g30615"
                                   transform="translate(0.92006037,1.3687834)"><g
                                   id="g31433"
                                   transform="translate(-2.4678886,-1.410222)"><g
                                   id="g31731"
                                   transform="translate(1.0576664,-0.70511063)"><g
                                   id="g33243"
                                   transform="matrix(1.0772948,0,0,1.0772948,-7.3729128,-3.1743014)"><g
                                   id="g35254"
                                   transform="translate(-2.2135012,-0.92031205)"><g
                                   id="g36749"
                                   transform="translate(-0.98178042,-2.7817105)"><g
                                   id="g37297"
                                   transform="translate(-6.7755742,-3.5033798)"><g
                                   id="g38955"
                                   transform="matrix(1.2171094,0,0,1.2171094,-23.105122,-18.212482)"><g
                                   id="g39618"
                                   transform="translate(-0.26888273,-0.26888316)"><g
                                   id="g40032"
                                   transform="translate(-1.90129,-3.042064)"><g
                                   id="g40543"
                                   transform="translate(0.3802582,-2.0914191)"><g
                                   id="g41372"
                                   transform="translate(1.9657652,-7.9304203)"><g
                                   id="g43278"
                                   transform="translate(1.5210324,-0.38025789)"><g
                                   id="g43741"
                                   transform="translate(1.1407741,6.084128)"><g
                                   id="g3839"
                                   transform="translate(-3.2265958)"><g
                                   id="g3996"
                                   transform="translate(0.76051607,15.114097)"><g
                                   id="g442"
                                   transform="translate(3.2321932,0.38025799)"><g
                                   id="g552"
                                   transform="translate(3.2265962,1.0755319)"><g
                                   id="g285"
                                   transform="translate(-0.95064475,-1.3309031)"><g
                                   id="g240"
                                   transform="translate(4.4154834e-7,-3.4223221)"><g
                                   id="g459"
                                   transform="translate(3.2321929,-1.5210321)"><path
                                   style="fill:#ed9339;stroke-width:0.393468"
                                   d="m 90.061754,117.80446 c -2.066627,-0.75614 -4.313874,-3.29865 -4.870926,-5.5109 -0.242492,-0.96302 -0.440894,-3.07438 -0.440894,-4.69191 v -2.94097 l -1.868973,-0.70831 c -1.027936,-0.38957 -2.469129,-1.11246 -3.202652,-1.60642 -0.733524,-0.49396 -1.795888,-0.90199 -2.360809,-0.90674 -3.251051,-0.50475 -5.090321,-2.648235 -7.620954,-4.319512 -1.584221,-0.775777 -3.395573,-3.068552 -3.926301,-4.969837 -0.233728,-0.837313 -0.441166,-2.761812 -0.460972,-4.276664 l -0.03601,-2.754277 1.868974,0.118073 c 1.824159,0.115241 1.868973,0.09091 1.868973,-1.01458 0,-1.251717 2.038836,-4.608778 3.165114,-5.211544 0.394809,-0.211295 1.509759,-0.384173 2.477668,-0.384173 1.62377,0 1.88396,-0.148254 3.365252,-1.917494 0.88298,-1.054622 2.094627,-2.091282 2.692549,-2.303688 2.424106,-0.861141 6.326901,-1.770483 8.366292,-1.949326 1.885667,-0.165363 2.391863,-0.405597 3.934681,-1.867349 2.961457,-2.805851 5.108031,-1.673067 8.079674,-3.54247 l 0.753,-0.473692 -1.52342,0.74852 c -3.263983,1.603735 -0.863133,4.961787 1.57553,3.354401 1.39561,-0.919898 3.72902,-2.323934 4.21806,-1.834893 0.19171,0.191712 0.0153,0.08291 -1.01604,0.853287 -2.5006,1.867858 -2.06692,3.410837 0.18482,2.930587 1.79295,-0.382399 3.45305,-0.501247 4.69846,0.276941 0.47218,0.295048 0.85909,0.272115 -0.019,0.962825 -0.58815,0.462641 -0.86536,1.170491 -1.08077,1.572997 -0.3631,0.678459 0.88748,1.397281 3.2508,1.397281 3.58076,0 3.6053,-0.479465 1.74174,0.743377 -2.22188,1.457964 -1.65046,3.258694 1.3585,2.601622 3.18273,-0.695019 3.32241,-0.641573 1.8822,0.693168 -0.58673,0.543763 -1.06579,2.054908 -1.06579,2.143515 0,0.08861 1.46808,0.128106 2.64741,0.111059 2.4525,-0.03545 1.7735,-0.334633 1.09876,0.745804 -0.82184,1.315969 0.49735,2.676026 2.59794,1.876919 l 1.43502,-0.340524 -0.0969,1.404562 c -0.0977,1.416085 0.56254,1.905195 1.34093,1.488614 1.60358,-0.858212 1.48166,-1.380277 1.48166,0.500536 0,2.052344 1.33927,3.060543 2.31241,1.985234 1.19229,-1.317463 0.52397,-1.290319 0.30143,0.683989 -0.21824,1.936238 1.55912,2.367161 2.68211,1.126267 0.84628,-0.935126 0.2839,-0.678237 0.2839,0.135992 0,0.781749 1.43313,0.492491 3.18813,-0.615392 1.1755,3.370476 -1.09846,7.836261 -1.42958,11.017235 -3.6502,-3.775559 -4.7186,-3.60012 -7.06213,-1.87111 -1.22749,0.9056 -1.58987,0.97596 -3.91276,0.75968 l -2.55999,-0.23836 -2.30355,1.74445 c -2.39535,1.81396 -4.11503,2.37672 -8.76322,2.86769 -2.37797,0.25118 -2.41649,0.27472 -2.85741,1.74636 -0.57079,1.90514 -3.40793,5.76443 -5.29107,7.19731 -3.341943,2.54289 -8.019953,3.58212 -11.081795,2.46184 z M 83.522771,86.059932 c 2.131273,-0.742966 2.962352,-3.251735 1.813293,-5.473771 -1.806726,-3.493821 -7.289273,-2.100551 -7.266339,1.846583 0.009,1.55532 0.784337,2.852671 2.155326,3.606623 1.010312,0.555604 1.749679,0.560215 3.29772,0.02057 z"
                                   id="path463"
                                   sodipodi:nodetypes="csscssccsscssssssssscscsssssssssssssscsssssssccsscssssccsscsss" /><path
                                   style="fill:#c86420;stroke-width:0.393468"
                                   d="m 89.581908,115.3176 c -1.397512,-2.84332 -2.33281,-5.86902 -3.099663,-8.93224 0.212096,3.84765 2.041918,7.38633 3.501877,10.88045 -2.991816,-0.0149 -4.757774,-4.42047 -4.977044,-7.27415 0.02748,-1.68444 -1.036754,-5.39319 0.818185,-5.83952 0.746957,3.60958 0.0041,-2.14042 1.583894,-0.7168 1.894465,4.61974 3.87949,9.38782 7.618171,12.86487 2.371609,2.2657 -2.035048,1.5641 -3.514161,1.6733 -1.346652,0.21056 -1.257231,-1.79333 -1.92175,-2.63463 z m 5.205281,0.11959 c -3.214393,-3.39132 -5.590799,-7.66461 -6.677838,-12.20942 -0.228891,-1.75751 2.154555,-2.86829 3.011039,-3.20144 3.117987,4.33474 6.994597,8.37627 12.07211,10.3567 3.06145,0.22621 -0.51582,2.9991 -1.43434,4.17306 -0.71949,1.53444 -1.857873,-0.15768 -2.829073,-0.56202 -4.24191,-2.71751 -6.412795,-7.42703 -8.712026,-11.69886 0.491981,2.42197 2.079163,5.17991 3.704965,7.32462 1.584084,2.47287 4.293751,4.31327 6.265144,6.05344 -1.137493,0.48173 -3.071913,2.92329 -4.081132,1.11477 -0.439617,-0.45029 -0.879233,-0.90057 -1.318849,-1.35085 z m 8.409431,-5.48279 c -4.746303,-2.05184 -8.741477,-5.8075 -11.446583,-10.179344 0.201982,-3.253475 5.74752,0.208889 7.93491,-0.953759 0.23262,-2.782081 0.579673,2.150603 2.666573,1.728923 2.14327,0.85461 5.61741,4.72907 3.70698,6.2033 -4.50479,-1.92665 -8.891083,-4.2606 -12.737093,-7.302835 -3.276,-1.370894 3.29446,2.882215 4.46576,3.465655 2.365413,2.23001 7.328413,2.67262 8.450033,5.44052 -0.45756,1.60711 -1.32738,2.70652 -3.04058,1.59754 z m 33.68784,-3.73078 c -2.1933,-1.6029 -3.95093,-3.69903 -5.83373,-5.63895 1.9377,-1.024597 3.88639,-3.968009 1.13586,-5.35141 -3.41493,-0.407952 -5.40599,-3.002893 -7.52005,-5.239243 -3.43103,-0.738029 -6.09004,-2.998953 -9.14237,-4.555108 -2.10668,-2.515007 -5.33424,-3.804921 -7.49827,-6.017541 0.23626,-3.235609 -3.08335,-6.934822 -6.22322,-4.631481 -1.55949,0.987923 -2.218433,-2.129827 -3.943023,-2.001776 -1.765572,-1.07392 -8.37371,0.307983 -4.316723,-2.65208 2.805138,-1.870894 5.838183,-4.197193 9.366916,-4.100314 -1.3076,0.934467 -4.731963,4.289911 -2.81155,4.478936 1.99505,-0.929401 5.39138,-2.694471 7.07233,-1.815554 -1.2444,0.961069 -3.59523,1.883783 -3.53021,3.462063 2.21894,0.200637 7.67431,-1.264226 7.75211,1.470499 -2.56758,1.604699 -1.87237,3.676407 1.22955,2.682742 1.63963,0.05778 4.13338,0.279858 1.56556,1.406891 -1.79794,0.880872 -2.5885,3.166959 0.2408,1.885185 0.86318,0.0037 4.55112,-0.319794 3.85207,0.677348 -1.13385,1.048739 -3.28625,3.271259 -0.11109,2.403949 1.56027,-0.401793 4.30304,-0.04553 2.13932,1.748837 -0.76757,2.980263 6.4671,-1.827523 3.84497,2.372483 -0.74418,3.284222 4.06159,-2.354731 2.84721,1.711093 -0.056,1.456819 0.54694,3.867786 1.72764,1.663653 1.09975,-1.661718 1.24156,-0.707813 1.18404,0.790321 -0.27067,1.678839 0.90418,3.073794 1.69975,0.878831 1.83883,-1.813271 0.0634,3.05764 2.08418,0.589496 2.82061,-2.222421 6.59817,-3.266595 10.16608,-3.109765 3.66058,1.600428 1.90232,6.10046 1.03055,8.952325 -1.30968,2.93514 -1.35986,7.3183 -4.91945,8.48919 -1.05052,0.35152 -2.18833,0.0338 -3.08925,-0.55062 z m -23.05423,-2.56439 c 0.79777,-0.83692 -1.12113,-3.06447 0.64389,-1.22605 1.02617,0.71056 -1.75248,2.85294 -0.64389,1.22605 z m -5.64938,-1.08496 c 0.39557,-1.3098 -2.79659,-3.758969 0.0863,-1.76636 1.21069,0.32275 -0.50293,3.8828 -0.0863,1.76636 z M 82.389126,99.839159 c 2.102581,-3.251772 1.717136,2.764991 0,0 z m 32.443244,-2.325993 c 0.0504,-3.427605 1.2803,1.756996 0.0893,1.011084 l -0.0653,-0.439692 z m 10.6104,1.053534 c -0.43251,-1.594453 -0.072,-3.442528 0.44612,-0.648109 0.17753,0.169248 -1.01193,2.043844 -0.44612,0.648109 z M 88.018107,97.990952 c 0.770644,-1.045441 0.98918,-3.988503 0.968125,-1.0252 0.364513,0.78245 -2.389912,2.623837 -0.968125,1.0252 z m 16.011773,0.141267 c 2.07137,-2.617956 1.59678,2.218401 0,0 z m 16.1447,0.04365 c 1.59797,-0.913204 -1.03631,-4.980423 0.98774,-2.205823 0.54315,0.608552 -0.46322,2.252159 -0.98774,2.205823 z m -10.51794,-0.901918 c -0.57216,-1.72202 0.10297,-3.172962 0.49525,-0.537538 0.16279,0.216229 -1.00039,2.042996 -0.49525,0.537538 z m 19.32448,-0.252619 c -0.24846,-1.407535 -0.70258,-3.104704 0.39583,-0.963814 0.6094,0.747625 -0.11409,2.942932 -0.39583,0.963817 z M 115.71096,95.68518 c -1.01409,-2.955381 2.80115,0.391944 0,0 z M 75.306699,94.547043 c -3.89751,-1.17193 -8.356983,-3.007939 -9.99693,-7.042982 -0.836435,-4.818636 4.475909,-0.700372 5.953498,0.985562 2.837275,2.71039 6.643104,4.208996 10.573215,3.676323 2.236685,-0.493162 7.68148,-0.796417 3.665816,2.319259 -3.06571,0.955369 -6.481996,0.601728 -9.642123,0.193293 z m 17.175529,-1.36525 c 0.842876,-1.289355 -3.116895,-2.858954 -0.260932,-1.890194 1.561248,0.417757 0.160822,4.839474 0.260932,1.890194 z m 5.904489,0.573387 c 2.419703,-0.575779 -1.844846,-4.138316 1.0141,-2.132363 0.756433,0.67256 -0.53692,3.47913 -1.0141,2.132363 z m 6.233153,-0.317894 c 1.40727,-0.826766 -1.96164,-3.236865 0.46005,-1.995633 1.61767,0.709411 -1.49295,4.546035 -0.46005,1.995633 z m 19.47688,-0.05553 c 1.58912,-2.378506 1.3909,2.297888 0,0 z m -11.23839,-1.380408 c 1.1654,-2.126919 -4.40718,-2.993753 -0.74569,-2.669382 2.20267,-0.22898 0.64748,4.931149 0.74569,2.669382 z m 7.30371,-0.347426 c -0.0743,-0.904863 -2.34178,-2.464768 -0.0746,-1.38855 1.38328,0.0429 0.57896,3.251965 0.0746,1.38855 z m -17.86198,-2.242355 c 0.44395,-4.524175 3.89285,2.375274 0,0 z m -11.866056,-1.37592 c 0.22796,-3.36273 2.690204,1.697892 0,0 z m 6.275391,-1.172743 c 0.524712,-3.030405 0.670952,3.071637 1e-5,0 z m 10.389505,-0.445539 c 1.72486,-0.998913 -1.59204,-5.179592 0.5482,-2.742435 1.18032,0.584672 -0.76888,4.629894 -0.5482,2.742435 z M 80.420895,84.330911 c -3.124768,-4.71768 5.871257,-4.917691 2.830751,-0.255216 -0.664965,0.801776 -2.088465,1.153023 -2.830751,0.255216 z m 8.670279,0.479065 c 1.455682,-1.438616 0.740183,-3.676995 0.262481,-4.784045 1.733717,1.22227 1.606169,3.919875 -0.262481,4.784045 z M 102.1496,83.571229 c 0.68076,-1.466263 -3.336853,-2.100837 -0.18543,-1.763269 1.8414,-0.110278 0.02,4.184857 0.18543,1.763269 z M 94.205683,83.22408 c 1.872103,-1.265427 -1.936055,-4.792457 0.975045,-2.243656 0.561188,0.578769 -0.461706,2.288969 -0.975045,2.243656 z m 9.824197,-4.203915 c 1.74937,-3.200651 1.68089,3.102292 0,0 z m -5.851283,-0.763383 c 1.45008,-1.425781 -3.447983,-4.527857 -0.27072,-2.568174 2.130463,0.135535 -0.49754,5.691296 0.27072,2.568174 z"
                                   id="path461" /></g></g></g></g></g></g></g></g></g></g></g></g></g></g></g></g></g></g></g></g></g></g></g></g></g></g></g></g></g></g></g></g></g></g></g></g></g></g></g></svg>
