<?xml version="1.0" encoding="UTF-8" standalone="no"?>
<!-- Created with Inkscape (http://www.inkscape.org/) -->

<svg
   width="64"
   height="64"
   viewBox="0 0 16.933333 16.933334"
   version="1.1"
   id="svg5"
   inkscape:version="1.2 (dc2aedaf03, 2022-05-15)"
   sodipodi:docname="rhum_blanc.svg"
   xmlns:inkscape="http://www.inkscape.org/namespaces/inkscape"
   xmlns:sodipodi="http://sodipodi.sourceforge.net/DTD/sodipodi-0.dtd"
   xmlns="http://www.w3.org/2000/svg"
   xmlns:svg="http://www.w3.org/2000/svg">
  <sodipodi:namedview
     id="namedview7"
     pagecolor="#ffffff"
     bordercolor="#666666"
     borderopacity="1.0"
     inkscape:pageshadow="2"
     inkscape:pageopacity="0.0"
     inkscape:pagecheckerboard="0"
     inkscape:document-units="mm"
     showgrid="false"
     units="px"
     inkscape:zoom="11.859035"
     inkscape:cx="23.315556"
     inkscape:cy="32.464699"
     inkscape:window-width="1920"
     inkscape:window-height="1017"
     inkscape:window-x="1912"
     inkscape:window-y="-8"
     inkscape:window-maximized="1"
     inkscape:current-layer="g15209"
     inkscape:showpageshadow="0"
     inkscape:deskcolor="#d1d1d1" />
  <defs
     id="defs2">
    <pattern
       id="EMFhbasepattern"
       patternUnits="userSpaceOnUse"
       width="6"
       height="6"
       x="0"
       y="0" />
    <pattern
       id="EMFhbasepattern-5"
       patternUnits="userSpaceOnUse"
       width="6"
       height="6"
       x="0"
       y="0" />
    <pattern
       id="EMFhbasepattern-56"
       patternUnits="userSpaceOnUse"
       width="6"
       height="6"
       x="0"
       y="0" />
    <pattern
       id="EMFhbasepattern-6"
       patternUnits="userSpaceOnUse"
       width="6"
       height="6"
       x="0"
       y="0" />
    <pattern
       id="EMFhbasepattern-62"
       patternUnits="userSpaceOnUse"
       width="6"
       height="6"
       x="0"
       y="0" />
  </defs>
  <g
     inkscape:label="Calque 1"
     inkscape:groupmode="layer"
     id="layer1">
    <g
       id="g4128"
       transform="translate(-0.63104184,0.12620835)">
      <g
         id="g5578"
         transform="translate(0.08924235,0.08924306)">
        <g
           id="g7501"
           transform="translate(-0.06310417,0.94656242)">
          <g
             id="g9467"
             transform="translate(-0.08924275,-0.80318511)">
            <g
               id="g10302"
               transform="translate(0.31234979,-0.04462139)">
              <g
                 id="g11479"
                 transform="translate(-0.12620833,0.06310418)">
                <g
                   id="g11873"
                   transform="translate(-0.23575769,0.66462456)">
                  <g
                     id="g12382"
                     transform="translate(-121.98459,-82.267525)">
                    <g
                       id="g13305"
                       transform="matrix(0.13266609,0,0,0.13266609,114.63867,78.215696)">
                      <g
                         id="g15209"
                         transform="translate(-1.5868549,2.8021139)">
                        <path
                           style="fill:#e9f3fc;stroke-width:0.0629465"
                           d="m 125.75837,137.09083 c -3.22831,-0.30435 -7.30649,0.1868 -9.5334,-2.63723 -2.12181,-3.93454 -1.22337,-8.64472 -1.7342,-12.93127 -0.67677,-15.65342 -1.54963,-31.30303 -2.13306,-46.958081 -0.1653,-3.107625 1.0289,-6.452035 3.97111,-7.924236 2.5232,-1.561002 6.15902,-3.390794 5.56307,-6.955696 0.11149,-3.202379 0.12965,-6.406887 0.17042,-9.610685 -0.84163,-1.278386 -0.39905,-3.048757 -0.59882,-4.54002 -0.10226,-1.295158 0.0799,-2.606471 0.14363,-3.8589 -1.17744,-1.861791 -0.25034,-4.513668 -0.53868,-6.696948 0.23592,-1.314322 -0.57978,-3.142519 0.52885,-4.104805 3.3486,-1.429398 7.17711,-1.169108 10.74272,-0.947607 1.39702,0.26914 3.33297,0.218972 4.15043,1.552042 -0.0499,3.208837 0.0361,6.442955 -0.0964,9.636417 -1.05611,1.009609 0.0787,2.529681 -0.29369,3.806759 -0.0534,1.623619 -0.001,3.301705 -0.32268,4.885413 -1.13591,0.823924 -0.19304,2.76904 -0.47562,4.065718 0.1997,2.73664 -0.16433,5.58114 0.40432,8.266484 1.95798,3.896708 7.90158,4.358049 8.85705,8.982355 0.94123,4.431356 -0.0433,9.021002 -0.0137,13.501388 -0.79179,15.470802 -1.29396,30.963872 -2.28126,46.419862 -0.10192,2.86874 -2.28819,5.49056 -5.24354,5.59022 -3.7248,0.58229 -7.51085,0.49521 -11.26659,0.45882 z m -9.45844,-22.88394 c -0.0578,-0.97845 -0.004,2.19593 0,0 z m 24.99048,-20.900346 c -0.0298,-0.845103 -0.01,4.320148 -0.0164,5.869759 0.007,1.549607 -0.0137,6.714877 0.0164,5.869757 0.009,-3.91316 0.009,-7.826354 0,-11.739516 z m -24.99396,16.118236 c -0.1063,-0.35393 -0.004,0.55529 0,0 z m 18.69931,-22.066672 c -3.88407,-0.0044 -10.43432,-0.02116 -12.68802,0.01261 4.47539,0.0052 8.95079,0.0059 13.42617,-0.0011 z m -14.67481,-3.535342 c 2.03915,-1.441761 1.59359,-4.708013 4.04769,-5.920038 4.21385,-3.266303 10.3851,-0.969967 14.51965,-4.248037 2.10538,-1.714763 -0.41748,-4.340905 -2.19671,-5.061553 -5.78319,-2.23916 -12.7231,-1.421149 -17.95173,1.865529 -3.282,3.157289 -3.99081,9.140949 -0.88623,12.641408 0.64035,0.586365 1.60756,1.113133 2.46733,0.722691 z m 4.33546,-18.674557 c 1.27012,-2.839329 2.1683,-5.965484 2.73998,-9.031047 -0.0914,-1.119676 -0.006,-3.195596 -1.48742,-3.206523 -1.76054,0.97039 -0.78017,3.278176 -1.06883,4.898798 0.13154,2.522159 -0.78036,5.001749 -0.57783,7.501659 0.1459,-0.02102 0.34448,0.07863 0.3941,-0.162887 z m 5.49247,-14.613728 c -1.86568,-0.02735 -5.59745,0.03518 -1.89862,0.01836 0.73118,-0.0045 4.34071,0.01129 2.30716,-0.01262 l -0.22439,-0.0032 z m -4.53003,-0.06199 c -2.55833,6.52e-4 0.90671,0.0622 0,0 z m 7.11295,0 c -2.55782,6.48e-4 0.9064,0.0622 0,0 z m -8.37399,-0.06185 c -1.72772,-0.04176 0.65007,0.08567 0,0 z m 9.67802,-0.01743 c 0.80987,-0.158759 -2.30829,0.189557 0,0 z m -10.40071,-0.04172 c -0.68734,-0.01432 0.28323,0.09314 0,0 z"
                           id="path15219"
                           sodipodi:nodetypes="cccssscsssssssssssscsscccssssscccsccscccccccccccccccccccccsscccccccssccccccscccccccccccsscccccccscsssccccccccccsccscccssscccsscssccccccccccsscsscscccccccccssccsccscssssccccscsscssscssssscssssscccssscccccccssccccscccccsscccccssccccccccsscccsccccccccccccccsscccsccscscccccccc" />
                        <path
                           style="fill:#d8e2ee;stroke-width:0.0629465"
                           d="m 124.17471,137.00211 c -3.49715,-0.10174 -8.31179,-0.62287 -8.89659,-4.93627 -0.84146,-5.73497 -0.64655,-11.59192 -1.06962,-17.37323 -0.54257,-13.04137 -1.33891,-26.077231 -1.76129,-39.120828 -0.25894,-3.106869 0.37123,-6.75059 3.27249,-8.47782 2.46678,-1.743557 6.5144,-3.315002 6.19768,-6.952984 0.12011,-3.333785 0.1,-6.670843 0.146,-10.006242 0.82103,0.558678 -1.13978,-1.05196 -0.48902,-1.991331 -0.0443,-2.097407 -0.34842,-4.210005 0.10902,-6.285847 -1.07064,-1.219041 -0.3836,-3.175545 -0.58843,-4.749505 0.13671,-1.993755 -0.31726,-4.124895 0.20366,-6.029288 3.42707,-1.694318 7.46821,-1.379685 11.18893,-1.121069 1.28654,0.292308 3.39743,0.192018 3.94115,1.595631 -0.077,3.205708 0.19699,6.495117 -0.0953,9.649478 -1.01476,0.972965 0.14372,2.663329 -0.21588,3.989287 -0.44021,1.560842 0.62298,4.031818 -0.94862,4.997864 0.18252,0.913863 0.0501,3.761694 0.12225,5.29938 0.35721,2.792592 -0.78305,6.348644 1.68647,8.427074 2.55738,2.314387 6.81559,3.459152 7.56433,7.261261 0.94175,4.610798 -0.0954,9.359824 -0.0489,14.014134 -0.78006,15.298655 -1.29385,30.615255 -2.24043,45.902665 -0.2134,2.74342 -2.12935,5.3177 -5.00865,5.47868 -4.32297,0.66612 -8.71328,0.50887 -13.0692,0.42896 z m 6.99705,-1.59618 c 2.72708,-0.18171 6.23301,0.14838 8.02458,-2.29976 1.59447,-2.54409 1.28457,-5.69534 1.5127,-8.56238 -8.02597,0 -16.05194,0 -24.07791,0 0.31857,3.23999 -0.31285,7.231 2.15723,9.7639 2.25104,1.16708 4.93709,0.93245 7.40985,1.11368 1.65806,0.0548 3.31576,0.0242 4.97355,-0.0154 z m 10.2508,-28.17248 c 0.41937,-10.710575 1.15272,-21.415937 1.2887,-32.134176 -0.0541,-2.693834 -1.19587,-5.409216 -3.57141,-6.831028 -2.20966,-1.511373 -5.03428,-3.454759 -4.64509,-6.517208 -0.13462,-3.809633 -0.0756,-7.625006 -0.13289,-11.436934 -3.80132,0.282564 -7.64208,0.308072 -11.43689,-0.05293 -0.0747,4.533705 0.2095,9.121712 -0.33122,13.611502 -1.61571,3.851824 -7.24336,4.610804 -7.6944,9.20886 -0.77529,5.44033 0.20323,10.96934 0.19833,16.437607 0.37948,9.021159 0.82941,18.039377 1.17608,27.061857 0.0382,-9.72514 0.0288,-19.450469 0.0418,-29.175697 8.30893,0 16.61786,0 24.9268,0 0.009,12.368981 0.0183,24.737967 0.0274,37.106947 0.0706,-5.75861 -0.028,-11.52377 0.15275,-17.27881 z m -6.49105,-56.941647 c -0.35559,-0.06642 -0.0616,0.132028 0,0 z"
                           id="path15217"
                           sodipodi:nodetypes="csscsssssssssssscccccccsscccssssccscssccccccccccccccccccccccssccccsccccccccccccccccccccccccscccccccscccsssccccccscccccscccccssccsscccsscsscccccccsscccccccssccccccsssccccccccccscsccccscssccccscccccccsscsscccccccsscccscccccccccssscccssccssssssscscccccccccccccccc" />
                        <path
                           style="fill:#a2eff6;stroke-width:0.0629465"
                           d="m 116.36272,106.05321 c 0.0136,-10.135174 0.0229,-18.477156 0.0207,-18.537742 l -0.004,-0.110157 h 12.40046 12.40045 v 18.537739 18.53774 h -12.42118 -12.42112 z m 8.64029,-55.640367 c -1.59335,-0.07254 -2.60097,-0.206755 -2.91261,-0.387975 l -0.17444,-0.101437 -0.125,-0.25821 -0.125,-0.258211 -0.0936,-2.072184 c -0.0515,-1.139701 -0.0917,-2.511236 -0.0894,-3.047855 l 0.004,-0.97567 0.0568,-0.346206 c 0.0312,-0.190413 0.0753,-0.546374 0.098,-0.791024 l 0.0413,-0.444818 -0.18782,-0.21612 c -0.1033,-0.118866 -0.22738,-0.286935 -0.27573,-0.373486 l -0.0879,-0.157366 -0.0167,-4.720986 -0.0167,-4.720986 0.1111,-0.220313 0.1111,-0.220313 0.30416,-0.203275 0.30417,-0.203277 0.57708,-0.184843 c 1.18842,-0.380656 2.65173,-0.584804 5.01482,-0.699623 l 1.41629,-0.06882 0.78684,0.03767 c 2.56227,0.122661 4.00522,0.312968 5.24861,0.692226 l 0.51559,0.157264 0.33877,0.204865 0.33878,0.204865 0.13102,0.177682 0.13103,0.177681 0.0174,4.606252 0.0175,4.60625 -0.0661,0.308662 -0.0661,0.308663 -0.2259,0.25004 -0.2259,0.250041 0.0332,0.354021 c 0.0183,0.194712 0.0669,0.63728 0.10801,0.983486 l 0.0748,0.629465 -0.0406,1.605135 c -0.0223,0.882824 -0.0684,2.171076 -0.1024,2.862781 l -0.0618,1.257646 -0.12318,0.254445 -0.12317,0.254444 -0.18168,0.10732 -0.18168,0.107319 -0.55928,0.09456 -0.55928,0.09455 -1.03861,0.06398 -1.03862,0.06398 -3.33616,-0.01184 c -1.83489,-0.0065 -3.52029,-0.02022 -3.74532,-0.03046 z"
                           id="path15215"
                           sodipodi:nodetypes="sccccccccscscccccccccsscccccccsscsscccccccccccccccccccccccccccc" />
                        <path
                           style="fill:#ffe680;stroke-width:0.0629465"
                           d="m 116.33751,119.37172 c 0.023,-2.80999 0.0418,-11.15197 0.0418,-18.53774 V 87.405311 h 12.40045 12.40045 v 18.537739 18.53774 h -12.44229 -12.44229 z m 10.6011,2.22961 c -0.30293,-0.0115 -0.79863,-0.0115 -1.10156,0 l -0.55078,0.021 h 1.10156 1.10157 z m -5.94844,-0.0616 c -0.11251,-0.014 -0.29663,-0.014 -0.40915,0 l -0.20458,0.0254 h 0.40916 0.40915 z m 10.35582,6.3e-4 c -0.0946,-0.0144 -0.26454,-0.0147 -0.37767,-6.3e-4 l -0.20571,0.0255 0.37768,6.3e-4 0.37768,6.3e-4 -0.17198,-0.0261 z m 1.94891,-0.056 -0.038,-0.038 -0.0826,0.0331 -0.0826,0.0331 0.12065,0.005 0.12065,0.005 -0.038,-0.038 z m -8.11879,-0.13302 c -0.0952,-0.0144 -0.251,-0.0144 -0.3462,0 l -0.17311,0.0262 h 0.34621 0.34621 z m 9.85232,0.004 c -0.0426,-0.0172 -0.12759,-0.0183 -0.18884,-0.002 l -0.11135,0.029 0.18884,0.002 0.18884,0.002 z m -0.12709,-2.01466 c -0.0433,-0.0175 -0.11409,-0.0175 -0.15736,0 l -0.0787,0.0318 h 0.15737 0.15737 z m -8.40466,-0.0593 -0.038,-0.038 -0.0826,0.0331 -0.0826,0.0331 0.12065,0.005 0.12065,0.005 -0.038,-0.038 z m -5.03572,-0.37768 -0.038,-0.038 -0.0826,0.0331 -0.0826,0.0331 0.12065,0.005 0.12065,0.005 -0.038,-0.038 z m 1.94844,-10.297 -0.0331,-0.0826 -0.005,0.12065 -0.005,0.12064 0.038,-0.038 0.038,-0.038 -0.0331,-0.0826 z m 7.57352,-11.216437 c 0,-0.01307 -0.0496,-0.06264 -0.11015,-0.110156 l -0.11016,-0.08639 0.0864,0.110157 c 0.0822,0.104849 0.13392,0.138199 0.13392,0.08639 z m -2.59785,-0.958461 -0.038,-0.03803 -0.0826,0.03306 -0.0826,0.03306 0.12064,0.005 0.12065,0.005 -0.038,-0.03803 z m -2.89423,-4.789289 c -0.0606,-0.01584 -0.15972,-0.01584 -0.22031,0 l -0.11015,0.02878 h 0.22031 0.22031 z m 3.46075,-1.316519 -0.038,-0.03803 -0.0826,0.03306 -0.0826,0.03306 0.12064,0.005 0.12065,0.005 -0.038,-0.03803 z m -3.94858,-39.912921 c -1.59335,-0.07254 -2.60097,-0.206755 -2.91261,-0.387975 l -0.17444,-0.101437 -0.125,-0.25821 -0.125,-0.258211 -0.0936,-2.072184 c -0.0515,-1.139701 -0.0917,-2.511236 -0.0894,-3.047855 l 0.004,-0.97567 0.0568,-0.346206 c 0.0312,-0.190413 0.0753,-0.546374 0.098,-0.791024 l 0.0413,-0.444818 -0.18782,-0.21612 c -0.1033,-0.118866 -0.22738,-0.286935 -0.27573,-0.373486 l -0.0879,-0.157366 -0.0167,-4.720986 -0.0167,-4.720986 0.1111,-0.220313 0.1111,-0.220313 0.30416,-0.203275 0.30417,-0.203277 0.57708,-0.184843 c 1.18842,-0.380656 2.65173,-0.584804 5.01482,-0.699623 l 1.41629,-0.06882 0.78684,0.03767 c 2.56227,0.122661 4.00522,0.312968 5.24861,0.692226 l 0.51559,0.157264 0.33877,0.204865 0.33878,0.204865 0.13102,0.177682 0.13103,0.177681 0.0174,4.606252 0.0175,4.60625 -0.0661,0.308662 -0.0661,0.308663 -0.2259,0.25004 -0.2259,0.250041 0.0332,0.354021 c 0.0183,0.194712 0.0669,0.63728 0.10801,0.983486 l 0.0748,0.629465 -0.0406,1.605135 c -0.0223,0.882824 -0.0684,2.171076 -0.1024,2.862781 l -0.0618,1.257646 -0.12318,0.254445 -0.12317,0.254444 -0.18168,0.10732 -0.18168,0.107319 -0.55928,0.09456 -0.55928,0.09455 -1.03861,0.06398 -1.03862,0.06398 -3.33616,-0.01184 c -1.83489,-0.0065 -3.52029,-0.02022 -3.74532,-0.03046 z"
                           id="path15213" />
                        <path
                           style="fill:#ffcc00;stroke-width:0.0629465"
                           d="m 116.37935,105.97484 c 0,-6.168651 0,-12.337306 0,-18.505959 8.26697,-0.01069 16.53394,-0.02139 24.80091,-0.03209 0,12.347998 0,24.696009 -1e-5,37.044009 -8.26697,0 -16.53394,0 -24.8009,0 0,-6.16865 0,-12.33731 0,-18.50596 z m 18.10784,15.56175 c 2.04606,-0.11828 -0.48433,-0.38099 -1.20414,-0.25866 -4.67907,6.6e-4 -9.48097,-0.0791 -14.07104,0.2495 4.97829,0.16057 10.20878,0.0851 15.27518,0.009 z m -0.48283,-2.02581 c 2.36668,-0.33533 -1.03096,-0.25444 -1.79924,-0.25578 -2.41754,0.20685 -0.93497,-0.21709 0.22956,-1.2496 3.45501,-3.46591 4.2732,-8.8017 3.90773,-13.51728 -0.42342,-4.14076 -1.87792,-9.180261 -6.05989,-10.943682 -2.77773,-0.980047 -5.52694,1.049039 -6.8149,3.415173 -3.16659,5.790599 -3.16834,13.325479 0.0686,19.086159 0.41931,1.80182 5.36285,3.82528 1.266,3.07228 -1.35146,-0.10704 -7.64206,-0.64146 -3.45165,-0.0499 4.19526,0.47804 8.43889,0.67872 12.65384,0.44261 z m -6.06553,-1.4182 c -3.51862,-0.98531 -4.84984,-5.04744 -5.38836,-8.26518 -0.62896,-4.61229 -0.0849,-10.021331 3.42815,-13.396426 1.8823,-1.758398 4.87,-1.104059 6.28465,0.874662 3.05895,4.055604 3.3071,9.563994 2.23552,14.365534 -0.78613,2.73108 -2.31071,6.079 -5.47157,6.47324 -0.3707,0.0259 -0.72836,0.0703 -1.08839,-0.0518 z m 1.42679,-0.94453 c 3.45996,-1.38706 4.38989,-5.55891 4.73257,-8.88998 0.17061,-3.97353 -0.33154,-8.541172 -3.5333,-11.268479 -1.89533,-1.565944 -4.48303,-0.03129 -5.39898,1.892575 -2.64376,4.831874 -2.55506,11.081514 0.0426,15.916594 0.90893,1.35719 2.35277,2.83284 4.15714,2.34929 z M 123.3664,92.120978 c 1.98497,0.05702 3.22654,-0.844222 0.74219,-0.440442 -1.18662,-0.0268 -4.37748,0.755624 -1.45221,0.497574 l 0.71002,-0.05713 z m -4.21117,-1.375575 c 5.09107,-1.159463 10.4095,0.0525 15.50566,-0.248581 -1.92898,-0.690601 -4.67934,-0.379038 -6.88825,-0.570117 -3.1197,-0.03968 -6.58725,-0.508163 -9.43084,0.902694 -0.15438,0.382408 0.90444,-0.345659 0.81343,-0.084 z m 5.6382,-40.353955 c -1.45608,0.145586 -3.6455,-0.110426 -3.15793,-2.075905 -0.11007,-2.213342 -0.28944,-4.434519 0.0346,-6.631415 -1.03768,-1.107672 -0.3253,-2.835841 -0.54789,-4.226899 0.0849,-2.033104 -0.21763,-4.160651 0.11429,-6.133558 1.39786,-1.504185 3.95928,-1.168628 5.84467,-1.485673 2.95091,-0.118285 6.11727,-0.160162 8.84353,1.057978 1.02237,0.717534 0.27402,2.258665 0.50047,3.323124 -0.0572,2.320128 0.10722,4.668093 -0.0905,6.970563 -1.02367,0.98628 0.10628,2.55327 -0.27442,3.806731 -0.37394,1.602584 0.46839,3.749795 -0.64065,5.076513 -3.36003,0.611785 -6.81531,0.273887 -10.21595,0.340552 -0.13674,-0.0071 -0.27348,-0.01492 -0.41022,-0.02201 z"
                           id="path15211" />
                      </g>
                    </g>
                  </g>
                </g>
              </g>
            </g>
          </g>
        </g>
      </g>
    </g>
  </g>
</svg>
