<?xml version="1.0" encoding="UTF-8" standalone="no"?>
<!-- Created with Inkscape (http://www.inkscape.org/) -->

<svg
   width="64"
   height="64"
   viewBox="0 0 16.933333 16.933333"
   version="1.1"
   id="svg5"
   inkscape:version="1.2 (dc2aedaf03, 2022-05-15)"
   sodipodi:docname="safran.svg"
   xml:space="preserve"
   xmlns:inkscape="http://www.inkscape.org/namespaces/inkscape"
   xmlns:sodipodi="http://sodipodi.sourceforge.net/DTD/sodipodi-0.dtd"
   xmlns="http://www.w3.org/2000/svg"
   xmlns:svg="http://www.w3.org/2000/svg"><sodipodi:namedview
     id="namedview7"
     pagecolor="#ffffff"
     bordercolor="#999999"
     borderopacity="1"
     inkscape:pageshadow="0"
     inkscape:pageopacity="0"
     inkscape:pagecheckerboard="0"
     inkscape:document-units="mm"
     showgrid="false"
     width="64mm"
     units="px"
     inkscape:zoom="11.745006"
     inkscape:cx="38.825013"
     inkscape:cy="25.713057"
     inkscape:window-width="1920"
     inkscape:window-height="1017"
     inkscape:window-x="1912"
     inkscape:window-y="-8"
     inkscape:window-maximized="1"
     inkscape:current-layer="g18915"
     inkscape:showpageshadow="2"
     inkscape:deskcolor="#d1d1d1" /><defs
     id="defs2" /><g
     inkscape:label="Calque 1"
     inkscape:groupmode="layer"
     id="layer1"><g
       id="g977"
       transform="translate(0.08745663,0.03512701)"><g
         id="g4718"
         transform="matrix(1.1425314,0,0,1.1425314,-1.1540552,-1.2549845)"><g
           id="g10382"
           transform="translate(-0.27884067,0.05576816)"><g
             id="g18915"
             transform="translate(0.078868,-0.43377429)"><path
               style="fill:none;stroke:#800000;stroke-width:0.231576px;stroke-linecap:round;stroke-linejoin:miter;stroke-opacity:1"
               d="M 7.3709658,5.9624939 C 7.9159124,6.5309296 6.6351626,7.2853152 7.4618112,7.5227722 8.5834815,7.844975 5.0577996,9.219168 5.2796609,9.8662632 5.6142696,10.842205 4.6940954,12.027279 6.9805888,11.316234"
               id="path19656"
               sodipodi:nodetypes="cssc" /><path
               style="fill:none;stroke:#800000;stroke-width:0.231576px;stroke-linecap:round;stroke-linejoin:miter;stroke-opacity:1"
               d="M 13.321614,5.3850178 C 11.616386,6.0624123 11.220074,5.4160214 11.057595,6.4348574 10.501323,9.9229899 9.8095217,8.3158642 8.8859654,8.408253"
               id="path19656-7"
               sodipodi:nodetypes="csc" /><path
               style="fill:none;stroke:#800000;stroke-width:0.231576px;stroke-linecap:round;stroke-linejoin:miter;stroke-opacity:1"
               d="M 11.956692,4.7674544 C 10.879192,6.2526026 9.4540579,4.0779601 9.4494808,5.1096603 9.4471617,5.6324067 11.09137,6.7963445 9.3288161,6.7168685 8.8201738,6.6939332 9.0323823,7.6566694 8.671992,7.9391084"
               id="path19656-7-7"
               sodipodi:nodetypes="cssc" /><path
               style="fill:none;stroke:#800000;stroke-width:0.231576px;stroke-linecap:round;stroke-linejoin:miter;stroke-opacity:1"
               d="m 12.522462,11.03647 c -1.518296,0.603136 -5.9828211,4.381734 -3.1534414,1.077157 0.7624294,-0.890479 0.010108,-1.210211 0.052901,-2.048912 0.052572,-1.0303703 -1.2480731,1.881006 -2.1716294,1.973395"
               id="path19656-7-2"
               sodipodi:nodetypes="cssc" /><path
               style="fill:none;stroke:#800000;stroke-width:0.231576px;stroke-linecap:round;stroke-linejoin:miter;stroke-opacity:1"
               d="M 6.9548171,4.2465242 C 6.3689266,4.4676902 6.2980958,5.7005365 5.2074254,5.3885259 4.1199973,5.0774429 3.7450814,7.0931067 3.7622465,7.7190671 3.7905274,8.7503897 3.7872023,9.9763333 3.0752586,10.57184"
               id="path19656-7-0"
               sodipodi:nodetypes="cssc" /></g></g></g></g></g></svg>
