<?xml version="1.0" encoding="UTF-8" standalone="no"?>
<!-- Created with Inkscape (http://www.inkscape.org/) -->

<svg
   width="64"
   height="64"
   viewBox="0 0 16.933333 16.933334"
   version="1.1"
   id="svg5"
   inkscape:version="1.2 (dc2aedaf03, 2022-05-15)"
   sodipodi:docname="saint_felicien.svg"
   xmlns:inkscape="http://www.inkscape.org/namespaces/inkscape"
   xmlns:sodipodi="http://sodipodi.sourceforge.net/DTD/sodipodi-0.dtd"
   xmlns="http://www.w3.org/2000/svg"
   xmlns:svg="http://www.w3.org/2000/svg">
  <sodipodi:namedview
     id="namedview7"
     pagecolor="#ffffff"
     bordercolor="#666666"
     borderopacity="1.0"
     inkscape:pageshadow="2"
     inkscape:pageopacity="0.0"
     inkscape:pagecheckerboard="0"
     inkscape:document-units="mm"
     showgrid="false"
     units="px"
     inkscape:zoom="22.627417"
     inkscape:cx="30.295106"
     inkscape:cy="29.256543"
     inkscape:window-width="1920"
     inkscape:window-height="1017"
     inkscape:window-x="1912"
     inkscape:window-y="-8"
     inkscape:window-maximized="1"
     inkscape:current-layer="g16919"
     inkscape:showpageshadow="2"
     inkscape:deskcolor="#d1d1d1" />
  <defs
     id="defs2" />
  <g
     inkscape:label="Calque 1"
     inkscape:groupmode="layer"
     id="layer1">
    <g
       id="g4128"
       transform="translate(-0.63104184,0.12620835)">
      <g
         id="g5578"
         transform="translate(0.08924235,0.08924306)">
        <g
           id="g7501"
           transform="translate(-0.06310417,0.94656242)">
          <g
             id="g9467"
             transform="translate(-0.08924275,-0.80318511)">
            <g
               id="g10302"
               transform="translate(0.31234979,-0.04462139)">
              <g
                 id="g11479"
                 transform="translate(-0.12620833,0.06310418)">
                <g
                   id="g11873"
                   transform="translate(-0.23575769,0.66462456)">
                  <g
                     id="g12382"
                     transform="translate(-121.98459,-82.267525)">
                    <g
                       id="g13305"
                       transform="matrix(0.13266609,0,0,0.13266609,114.63867,78.215696)">
                      <g
                         id="g17429"
                         transform="translate(0.90513437,5.6640979)">
                        <g
                           id="g18595"
                           transform="translate(-3.3634362,-8.7449387)">
                          <g
                             id="g21002"
                             transform="translate(1.7082278,-2.8204445)">
                            <g
                               id="g23814"
                               transform="translate(8.7253043,-1.1218249)">
                              <g
                                 id="g24838"
                                 transform="translate(11.143454,-0.85716864)">
                                <g
                                   id="g25315"
                                   transform="translate(-3.490122,2.4929446)">
                                <g
                                   id="g27220"
                                   transform="translate(2.4678888,1.2339445)">
                                <g
                                   id="g29753"
                                   transform="translate(1.4759287,-2.3737724)">
                                <g
                                   id="g30615"
                                   transform="translate(0.92006037,1.3687834)">
                                <g
                                   id="g31433"
                                   transform="translate(-2.4678886,-1.410222)">
                                <g
                                   id="g31731"
                                   transform="translate(1.0576664,-0.70511063)">
                                <g
                                   id="g33243"
                                   transform="matrix(1.0772948,0,0,1.0772948,-7.3729128,-3.1743014)">
                                <g
                                   id="g35254"
                                   transform="translate(-2.2135012,-0.92031205)">
                                <g
                                   id="g36749"
                                   transform="translate(-0.98178042,-2.7817105)">
                                <g
                                   id="g37297"
                                   transform="translate(-6.7755742,-3.5033798)">
                                <g
                                   id="g38955"
                                   transform="matrix(1.2171094,0,0,1.2171094,-23.105122,-18.212482)">
                                <g
                                   id="g39618"
                                   transform="translate(-0.26888273,-0.26888316)">
                                <g
                                   id="g40032"
                                   transform="translate(-1.90129,-3.042064)">
                                <g
                                   id="g40543"
                                   transform="translate(0.3802582,-2.0914191)">
                                <g
                                   id="g41372"
                                   transform="translate(1.9657652,-7.9304203)">
                                <g
                                   id="g43278"
                                   transform="translate(1.5210324,-0.38025789)">
                                <g
                                   id="g44210"
                                   transform="matrix(1.1578947,0,0,1.1578947,-18.904476,-21.776183)">
                                <g
                                   id="g44833"
                                   transform="matrix(1.1196819,0,0,1.1196819,-12.538538,-14.547543)">
                                <g
                                   id="g47597"
                                   transform="translate(3.1109352,-1.2443743)">
                                <g
                                   id="g48754"
                                   transform="translate(-2.9035392,-6.6366609)">
                                <g
                                   id="g234"
                                   transform="matrix(0.04089637,0,0,0.04089637,104.63967,119.67231)">
                                <g
                                   id="g2138"
                                   transform="translate(-86.211222,-40.569988)">
                                <g
                                   id="g2696"
                                   transform="translate(-124306.44,-9412.2373)">
                                <g
                                   id="g3765"
                                   transform="translate(25.356243,-50.712489)">
                                <g
                                   id="g4557"
                                   transform="translate(46.61688,-35.859142)">
                                <g
                                   id="g5244"
                                   transform="translate(7.1718407,14.343658)">
                                <g
                                   id="g5807"
                                   transform="translate(-5.1984397,-21.113724)">
                                <g
                                   id="g6945"
                                   transform="translate(-10.142522,-243.41993)">
                                <g
                                   id="g11108"
                                   transform="translate(18.189368,-37.636113)">
                                <g
                                   id="g15049"
                                   transform="translate(-65.926228,141.99496)">
                                <g
                                   id="g19861"
                                   transform="matrix(0.07356842,0,0,0.07356842,115423.38,9039.2311)">
                                <g
                                   id="g20437"
                                   transform="translate(-478.38824,-785.88156)">
                                <g
                                   id="g21032"
                                   transform="translate(2047.1878,-1072.3367)">
                                <g
                                   id="g21869"
                                   transform="matrix(0.04321578,0,0,0.04321578,117368,10137.003)">
                                <g
                                   id="g25455"
                                   transform="translate(154741.46,-87178.414)">
                                <g
                                   id="g26278"
                                   transform="translate(-18012.371,-8233.4417)">
                                <g
                                   id="g27240"
                                   transform="translate(-0.00447131,5582.7624)">
                                <g
                                   id="g28306"
                                   transform="translate(-15790.441,-2255.7767)">
                                <g
                                   id="g33735"
                                   transform="translate(14662.549,-16918.328)">
                                <g
                                   id="g37868"
                                   transform="translate(-5075.4976,25941.433)">
                                <g
                                   id="g76752"
                                   transform="matrix(-1,0,0,1,9442.3174,-1595.0746)">
                                <g
                                   id="g82459"
                                   transform="translate(3383.6668,-1127.8885)">
                                <g
                                   id="g83208"
                                   transform="matrix(0.20332428,0,0,0.20332428,-15348.528,66747.475)">
                                <g
                                   id="g83934"
                                   transform="matrix(-1,0,0,1,240692.18,94139.78)">
                                <g
                                   id="g84550"
                                   transform="translate(-8.7627443e-5,55472.344)">
                                <g
                                   id="g1274"
                                   transform="translate(-66682.337,-43147.393)">
                                <g
                                   id="g2352"
                                   transform="translate(-74780.623,-22188.943)">
                                <g
                                   id="g4123"
                                   transform="translate(-47069.882,-15689.961)">
                                <g
                                   id="g5928">
                                <g
                                   id="g12050"
                                   transform="translate(78161.555,35375.784)">
                                <g
                                   id="g14813"
                                   transform="matrix(0.04913194,0,0,0.04913194,278789.44,-694028.72)">
                                <g
                                   id="g15601"
                                   transform="translate(-1134555.1,-1655809.1)">
                                <g
                                   id="g16919"
                                   transform="translate(-878194.37,7265062.9)">
                                <path
                                   style="fill:#f4eed7;stroke-width:71682.9"
                                   d="m 2337092.3,17992843 c -1729762.1,-255103 -3498728,-160128 -5237079.4,-358414 -1211982.4,-165587 -4888754.3,-616570 -3651595.1,-501780 -1764656,-186427 -3601933.8,116301 -5302768.8,-480723 -1150983,-25790 -4328009,-988714 -3259674,-716829 -1564215,-523889 -6243389,-2797628 -4801553,-1892670 -822666,-1554225 -991613,-3415568 -1338304,-5143374.6 -191566,-2088238.1 -580939,-4332789.3 192894,-6343204.5 839249,-1881591.38 3117487,-2184077.11 4699801,-3212165.5 2261568,-1202058.3 4848055,-1644721.2 7388289.7,-1496632.2 1553885.4,-51904.3 6055221.2,-608727.5 4575817.3,-289653.4 2845993.8,-877535.2 5763134.1,27253.2 8651891.9,-14387.8 2883334.9,291539.8 18846522.1,602866.3 13433253.1,1403943.2 1517673,-24662.3 5455011,1658225.34 4057221,1401475.86 2176501,346298.56 1998725,5868324.44 1891128,4221059.94 150706,3950187.2 275712,6812281 -408692,8655174 -1217012,704384 -2013745,2088816 -3155394,2955053 -753363,253892 -3052699,938329 -2269016,716828 -1349891,154505 -2621018,564125 -3967841,732889 -1901753,12169 -3725237,565979 -5645025.4,430496 -1950201.5,-12651 -3907034.9,54976 -5853353.3,-67085 z"
                                   id="path16929"
                                   sodipodi:nodetypes="ccccccccccccccccccccc" />
                                <path
                                   style="fill:#e9ddaf;stroke-width:71682.9"
                                   d="m 2337092.3,17992843 c -1729762.1,-255103 -3498728,-160128 -5237079.4,-358414 -1211982.4,-165587 -4888754.3,-616570 -3651595.1,-501780 -1764656,-186427 -3601933.8,116301 -5302768.8,-480723 -1119193,-10972 -4200853,-882687 -3155809,-666203 -1247067,-400857 -5185600,-1897862 -3888188,-1402309 -2065132,-583389 -2558865,-6320423.3 -2022232,-4062889 -459345,-2439672.6 -836578,-5018211.1 -288925,-7467333.4 -123050,-953665.1 435886,519347.6 776612,-485451.5 -701996,1844574.4 3350822,-580512.9 2654287,-314236.5 3927326,-1690236.69 7990123.5,-3056588.2 12013732.5,-4497710.8 476326.4,170011.3 -2879091.3,1623164.91 -2381806,1268064.14 C -11289018,464511.43 -14573025,1568394.7 -17895890,2495268.1 c -867448,342449.5 1422252,761698.5 -232474,913874.7 1889366,181598.3 3485149,1503112 5431096,1451362.6 1839592,317411.9 3246227.3,-1392837.1 4566244.7,-1288671.7 C -2819433.8,470777.24 -5712293.9,2106863.6 -3208384.2,1682464.8 -1672687.4,1051395.7 -169666.33,154089.65 222447.98,769166.35 -941701.75,1860512.2 -2761645,1779536 -4029445.2,2753340 c -1882313.4,678378.9 -3869411.7,1120298.1 -5640341.3,2097756 1358545.4,63046.7 2715980.7,149535.1 4070294.6,274672.9 525020.7,1491546.2 425580.2,684220.3 4005386.5,1292357.6 C -314599.33,5633604.4 1207567.5,5572706.5 2546278.8,5571136 6510335.1,3389177 3031207.7,9892555.7 5040333.5,9464420.8 8144998.1,14032711 6820475.8,8255429.6 7583934.6,10704569 6645829.6,7937337.9 6849867.4,10179662 6179251.2,8164522.6 5553767.3,7848487.6 5042972.5,7039226 5277422.9,5663390.4 c 1736350.1,-345222 1487946,2239428 1016006,1642501.4 5930991.1,5112930.2 3155899.5,6274717.2 3480451.6,7739456.2 88352.8,930045 -1946883.8,1025039 -1829568.2,992258 -2325311.4,1050435 -700532,-1507787 -881348.8,-1121058 C 5061574.1,8490491.2 2200514.2,12875376 1877710.1,11045450 2879047.2,11732768 3297628,13370187 2814029.9,14501842 1320029.4,14175174 1895731,15813020 -243559.39,13324260 -1060415.5,11909734 -1958334.2,11307011 -2250610.7,11311732 -26805.499,13693596 -193770.48,17182571 19177.319,16049994 848384.71,13477232 1189268,15726729 1986758.9,16571519 c 887595.6,-569857 2336554.8,474911 1183456.1,999415 1655502.6,-111045 3403664.2,192877 4974944,-400976 1430297.4,-1530914 6505682,-816241 4764782,-492789 3272419,-109717 5571626,-2762074 9004267,-3363620 737924,-744520 -74738,-547198 1412326,-302121 -607406,1643261 -2719143,2559868 -2811320,2866771 -600456,534279 -2707366,1263171 -2060780,874979 -1247940,234205 -2493214,445510 -3716207,737885 -1488989,212202 -5968067.1,833774 -4491379,532788 -2634404.4,41990 -5278431.4,93789 -7909755.7,-31008 z m -6385119.8,-6233548 c 451822.3,-933164 3193974.63,-600010 1858631.4,-1307586 -1745681.4,-694015.4 -507470.4,-4814776.7 -204580.3,-3498027 -1152726.9,30365 -1341094.8,2791768.1 -1639417.7,3188885 -33825.5,311177 -793036.4,1875737 -14633.4,1616728 z M 13012207,10901258 C 11125230,9459043.2 9949836.4,7242959.9 7855142.9,6045509 7809386.5,5343305.5 11785405,5641537.5 10750615,5639940.1 c 500844,142818 1713024,-745315.2 1614009,269548.3 660508,1527386.9 2504002,2973854.7 1673611,4796617.6 -168330,478379 -693603,486918 -1026028,195152 z M -2680707.8,5626526.8 C -5168965.5,5087486.7 -1526383.6,3781327.3 -1313825.5,4240743.8 -118286.35,3628414.1 -1137364.4,1317362.7 90616.121,2557848.4 984436.4,2862007.1 5107460.5,2133755.7 3597381,3140673.4 8931732.1,3688980.6 3825356.6,4034326.2 -952839.25,5640771.6 -1520295.5,5763688.5 -2116011.5,5766690 -2680707.8,5626526.8 Z M 9582727.6,4155020.9 C 11036297,2654025.4 9838750.8,447427.21 10764408,326077.06 c 1237634,-367958.43 257413,-685934.16 -135550,-1798475.66 1838728,-64076.6 345363,-520042.7 4023940,187481.9 -1643414,494243.61 -3585433,1590117.01 -3556366,3551447.8 -159488,1039808.2 2266104,524722.8 926957,1112406.5 1283529,141680.6 -2478134.7,1367081.2 -2002117,1047103 -707359.3,207105.6 -5097232.9,692568.5 -438544.4,-271019.7 z M 12802790,3421908.1 c 2550548,73368 3493126,-666348 4961591,-1667517.5 1804416,143464 4808671,1014592.6 3998766,-221458.8 C 20712701,1317770.2 19913712,247286.18 16994785,-16410.188 15139366,413357.71 14054772,1917956.3 12802790,3421908.1 Z M 1421652,3064886.5 C 1160863.6,1122375.3 -2146523,-2596238 -201097.13,-1521964 6506586.1,25603.377 394447.9,-263449.3 5944037.7,-1922355.8 5740332.4,-1383428.4 5230932.4,-335921.13 5790985.8,-200722.16 7330658.5,-86516.764 1355644,3001665.2 1753540.4,1359145.2 1477146.2,1737796.5 2326772.9,3515997.6 1421652,3064886.5 Z m 849416.8,-4754963.4 c 46112.4,-276262.3 72716.4,326270.5 0,0 z"
                                   id="path16925"
                                   sodipodi:nodetypes="ccccccccccccccccccccccccccccccccccccccccccccccccccccccccccccccccccccccccccccccccccccc" />
                                <path
                                   style="fill:#decd87;stroke-width:71682.9"
                                   d="m -10135725,16989283 c -679483,-34279 -2641949,-488017 -1982183,-356951 -639667,-18954 -2504015,-410953 -1866400,-332044 -458025,-314691 -2191983,-511352 -1637396,-407305 -825674,-606034 -2460247,-1040510 -2032338,-871642 -711762,-279584 -1468403,-494434 -2124456,-885996 -301490,-630968 -598782,-1306912 -536193,-2028602 1489011,895366 2592665,2519452 4409539,2799007 1195678,150904 2422891,226639 3618941,48188 837106,-156034 1681541,-985670 1425098,-1885164 -620930,-504013 90078,-2249328 497693,-1368152 212081,458473 291350,1580464 52426,2432472 -305241,1088497 1764169.4,1049982 2740454.7,1145685 1057534.2,108924 4201706.7,630187 3138161.2,618754 -1358931.1,-14609 -1940164.1,1098153 -3890965.3,-45360 -191295.5,-112132 -247241.4,692619 -156549.1,558340 -954461.1,-151484 -1788793.5,-886641 -2802193.5,-671501 -825934,98132 -1636941,338686 -2473623,334881 1304443,260232 2677762,-69986 3956670.5,383244 621740.7,180094 1233873.1,391115 1849640.6,590262 -727055.7,-17150 -1471356.9,66344 -2186327.1,-58116 z m 2395534.2,-1960653 c -1564830.1,-465147 136196.3,-3268145 31436.3,-4896886 -513531.9,-482266.3 -2207409.5,-806758.5 -2132340.5,-63455 151064.3,1495779 -229803,1030770 -544588,130961 -498666,-1425430.8 1221722.9,-1659143.8 1432804,-1702933.8 2087460.9,-433055.6 424300.8,189922.1 1117571.3,-1594387.4 448937.4,-1155455.4 1123982.7,-1166125.1 1152482.8,-593392.6 55840.4,1122156.9 -291973.8,1293470.8 -535643.5,1850945.2 -367382.8,840508.7 833404.7,2173128.6 632097.7,2493566.6 -580209.9,923571 -838735.4,2089606 -805084,3169490 37871.8,1215315 864095.1,1566607 -348736.1,1206092 z m -6230567.2,-981538 c -740796,-184739 -1697187,-243226 -2137090,-933497 -311734,-489155 -546239,-1355975 -501456,-1331619 451291,431724 930391,864655 1503504,1121384 296697,-587739 -100872,-697054 477032,-460144 620319,-146005 935172,-1596407 1531593,-1046096 818600,-1645936.5 -2790173,-1027507 341533,-1992543 977270,-80121.6 212594,-1453151.3 775289,-1981215.7 319340,-299686.9 1772410,-1041448.4 758544,-786325.8 -1261025,317316 -1746596,852750 -1981497,896861.7 -1086195,203974.6 -1535302,1314289.4 -1620041,2261892.5 82526,922744.3 -311739,2598536.3 -79360,2020008.3 -455321,-475092 -237918,-1186783 -286660,-1784501 90521,-381443.6 -236350,-632786.7 -410872,-931863.7 -557210,-606555.9 -18198,-1723956.1 -756414,-2146206.3 -710063,-406147.3 -377425,-1726703.3 -177802,-1682056.8 565390,-420084.3 1491796,-924519.8 2030807,-653595.4 1455244,731452.6 3157848,648195 4690495.7,1153339.9 -74494.4,404473 110546.3,647529.4 124400.3,680987.3 603089.9,36122.7 1282515.2,-184291 535146.8,329613.6 -671166.7,359264.3 -2129690.8,416313.2 -1966070.8,1160153.5 118439,538440.8 -681456,1569899.8 -636527,1294169.9 -1171471,658847.6 -1013754,2721295 -573353,3991127 848537,455768 741798,442478 112763,689559 -564124,173418 -1170368,210044 -1753965,130567 z m -5039413,-4974807.1 c -310842,-686995.7 424240,-1538850.8 9245,-2153758.9 -202100,-299456.2 2046,-892110.2 254028,-584993.2 331375,403882.9 2519550,-342645.8 1787686,556996.5 639648,305424.7 -36793,731291.5 -201433,1025751.1 -338852,606039.8 -1005876,1049138.8 -1340851,1817328.5 -341983,784260.1 -521465,1662397.1 -401800,2524605.1 -915167,-1040815 94895,-2307498.2 -106875,-3185929.1 z m -1358467,587425.3 c -580316,-803986.3 -172368,-1835350.7 -61324,-2721617.2 121394,-688772.6 623253,-2667764.6 469682,-2010155.5 896214,-771904 958703,209190.5 733301,398304.2 -608283,510352.2 -736333,1485011 -787035,1938322.7 -37458,334899.2 -110316,549862.9 -157311,828119.1 -26903,544997.8 79147,1132005.8 -96889,1641837.3 l -44583,-16282.2 z m -1019023,-3010680.3 c 163771,-1086972.6 215101,-2183547.4 245898,-3280602.4 -81213,-661542.6 313336,705544.3 468058,-108893.9 -42717,321269.5 875273,201110.2 667281,139614.8 1228632,-52247.8 2507762,-6141.7 3645891,506369.7 1114888,687608.3 -2165258,-2782472.9 -1178164,888978 156139,580751.3 -531351,-107410.2 -745661,-114549.1 -694916,-23148.6 -2210078,-210701.1 -1382320,-400984.4 -1350151,-430874.5 -1464922,1557010.5 -1350956,1273982.4 7171,172306.6 -185111,1556647.1 -370027,1096084.9 z"
                                   id="path16921"
                                   sodipodi:nodetypes="sssssssssssssssssssssscssssssssssssscccsssscssscsssssccsscsssssccssssssscsssssssssss" />
                                </g>
                                </g>
                                </g>
                                </g>
                                </g>
                                </g>
                                </g>
                                </g>
                                </g>
                                </g>
                                </g>
                                </g>
                                </g>
                                </g>
                                </g>
                                </g>
                                </g>
                                </g>
                                </g>
                                </g>
                                </g>
                                </g>
                                </g>
                                </g>
                                </g>
                                </g>
                                </g>
                                </g>
                                </g>
                                </g>
                                </g>
                                </g>
                                </g>
                                </g>
                                </g>
                                </g>
                                </g>
                                </g>
                                </g>
                                </g>
                                </g>
                                </g>
                                </g>
                                </g>
                                </g>
                                </g>
                                </g>
                                </g>
                                </g>
                                </g>
                                </g>
                                </g>
                                </g>
                              </g>
                            </g>
                          </g>
                        </g>
                      </g>
                    </g>
                  </g>
                </g>
              </g>
            </g>
          </g>
        </g>
      </g>
    </g>
  </g>
</svg>
