<?xml version="1.0" encoding="UTF-8" standalone="no"?>
<!-- Created with Inkscape (http://www.inkscape.org/) -->

<svg
   width="64"
   height="64"
   viewBox="0 0 16.933333 16.933334"
   version="1.1"
   id="svg5"
   inkscape:version="1.2 (dc2aedaf03, 2022-05-15)"
   sodipodi:docname="saucisse_de_montbeliard.svg"
   xml:space="preserve"
   xmlns:inkscape="http://www.inkscape.org/namespaces/inkscape"
   xmlns:sodipodi="http://sodipodi.sourceforge.net/DTD/sodipodi-0.dtd"
   xmlns="http://www.w3.org/2000/svg"
   xmlns:svg="http://www.w3.org/2000/svg"><sodipodi:namedview
     id="namedview7"
     pagecolor="#ffffff"
     bordercolor="#666666"
     borderopacity="1.0"
     inkscape:pageshadow="2"
     inkscape:pageopacity="0.0"
     inkscape:pagecheckerboard="0"
     inkscape:document-units="mm"
     showgrid="false"
     units="px"
     inkscape:zoom="22.627417"
     inkscape:cx="42.448504"
     inkscape:cy="35.620504"
     inkscape:window-width="1920"
     inkscape:window-height="1017"
     inkscape:window-x="1912"
     inkscape:window-y="-8"
     inkscape:window-maximized="1"
     inkscape:current-layer="g3632"
     showguides="false"
     inkscape:showpageshadow="0"
     inkscape:deskcolor="#d1d1d1" /><defs
     id="defs2" /><g
     inkscape:label="Calque 1"
     inkscape:groupmode="layer"
     id="layer1"><g
       id="g4128"
       transform="translate(-0.63104184,0.12620835)"><g
         id="g5578"
         transform="translate(0.08924235,0.08924306)"><g
           id="g7501"
           transform="translate(-0.06310417,0.94656242)"><g
             id="g9467"
             transform="translate(-0.08924275,-0.80318511)"><g
               id="g10302"
               transform="translate(0.31234979,-0.04462139)"><g
                 id="g11479"
                 transform="translate(-0.12620833,0.06310418)"><g
                   id="g11873"
                   transform="translate(-0.23575769,0.66462456)"><g
                     id="g12382"
                     transform="translate(-121.98459,-82.267525)"><g
                       id="g13305"
                       transform="matrix(0.13266609,0,0,0.13266609,114.63867,78.215696)"><g
                         id="g17429"
                         transform="translate(0.90513437,5.6640979)"><g
                           id="g18595"
                           transform="translate(-3.3634362,-8.7449387)"><g
                             id="g21002"
                             transform="translate(1.7082278,-2.8204445)"><g
                               id="g23814"
                               transform="translate(8.7253043,-1.1218249)"><g
                                 id="g24838"
                                 transform="translate(11.143454,-0.85716864)"><g
                                   id="g25315"
                                   transform="translate(-3.490122,2.4929446)"><g
                                   id="g27220"
                                   transform="translate(2.4678888,1.2339445)"><g
                                   id="g29753"
                                   transform="translate(1.4759287,-2.3737724)"><g
                                   id="g30615"
                                   transform="translate(0.92006037,1.3687834)"><g
                                   id="g31433"
                                   transform="translate(-2.4678886,-1.410222)"><g
                                   id="g31731"
                                   transform="translate(1.0576664,-0.70511063)"><g
                                   id="g33243"
                                   transform="matrix(1.0772948,0,0,1.0772948,-7.3729128,-3.1743014)"><g
                                   id="g35254"
                                   transform="translate(-2.2135012,-0.92031205)"><g
                                   id="g36749"
                                   transform="translate(-0.98178042,-2.7817105)"><g
                                   id="g37297"
                                   transform="translate(-6.7755742,-3.5033798)"><g
                                   id="g38955"
                                   transform="matrix(1.2171094,0,0,1.2171094,-23.105122,-18.212482)"><g
                                   id="g39618"
                                   transform="translate(-0.26888273,-0.26888316)"><g
                                   id="g40032"
                                   transform="translate(-1.90129,-3.042064)"><g
                                   id="g40543"
                                   transform="translate(0.3802582,-2.0914191)"><g
                                   id="g41372"
                                   transform="translate(1.9657652,-7.9304203)"><g
                                   id="g43278"
                                   transform="translate(1.5210324,-0.38025789)"><g
                                   id="g44210"
                                   transform="matrix(1.1578947,0,0,1.1578947,-18.904476,-21.776183)"><g
                                   id="g44833"
                                   transform="matrix(1.1196819,0,0,1.1196819,-12.538538,-14.547543)"><g
                                   id="g47597"
                                   transform="translate(3.1109352,-1.2443743)"><g
                                   id="g48754"
                                   transform="translate(-2.9035392,-6.6366609)"><g
                                   id="g234"
                                   transform="matrix(0.04089637,0,0,0.04089637,104.63967,119.67231)"><g
                                   id="g2138"
                                   transform="translate(-86.211222,-40.569988)"><g
                                   id="g2696"
                                   transform="translate(-124306.44,-9412.2373)"><g
                                   id="g3765"
                                   transform="translate(25.356243,-50.712489)"><g
                                   id="g4557"
                                   transform="translate(46.61688,-35.859142)"><g
                                   id="g5244"
                                   transform="translate(7.1718407,14.343658)"><g
                                   id="g5807"
                                   transform="translate(-5.1984397,-21.113724)"><g
                                   id="g6945"
                                   transform="translate(-10.142522,-243.41993)"><g
                                   id="g11108"
                                   transform="translate(18.189368,-37.636113)"><g
                                   id="g15049"
                                   transform="translate(-65.926228,141.99496)"><g
                                   id="g19861"
                                   transform="matrix(0.07356842,0,0,0.07356842,115423.38,9039.2311)"><g
                                   id="g20437"
                                   transform="translate(-478.38824,-785.88156)"><g
                                   id="g21032"
                                   transform="translate(2047.1878,-1072.3367)"><g
                                   id="g21869"
                                   transform="matrix(0.04321578,0,0,0.04321578,117368,10137.003)"><g
                                   id="g25455"
                                   transform="translate(154741.46,-87178.414)"><g
                                   id="g26278"
                                   transform="translate(-18012.371,-8233.4417)"><g
                                   id="g27240"
                                   transform="translate(-0.00447131,5582.7624)"><g
                                   id="g28306"
                                   transform="translate(-15790.441,-2255.7767)"><g
                                   id="g33735"
                                   transform="translate(14662.549,-16918.328)"><g
                                   id="g37868"
                                   transform="translate(-5075.4976,25941.433)"><g
                                   id="g76752"
                                   transform="matrix(-1,0,0,1,9442.3174,-1595.0746)"><g
                                   id="g82459"
                                   transform="translate(3383.6668,-1127.8885)"><g
                                   id="g83208"
                                   transform="matrix(0.20332428,0,0,0.20332428,-15348.528,66747.475)"><g
                                   id="g83934"
                                   transform="matrix(-1,0,0,1,240692.18,94139.78)"><g
                                   id="g84550"
                                   transform="translate(-8.7627443e-5,55472.344)"><g
                                   id="g9096"
                                   transform="translate(31379.925,-62759.843)"><g
                                   id="g11527"
                                   transform="translate(61019.625,105397.54)"><g
                                   id="g13422"
                                   transform="translate(-44377.907,44377.908)"><g
                                   id="g1137"
                                   transform="translate(-3.3240812e-4,138680.92)"><g
                                   id="g3632"
                                   transform="translate(177511.65,-22188.943)"><g
                                   id="g5936"
                                   transform="translate(11767.473,-47069.909)"><g
                                   id="g7318"><g
                                   id="g11619"
                                   transform="translate(27457.436,-223581.94)" /><g
                                   id="g11985"
                                   transform="translate(70604.821,-133364.68)"><g
                                   id="g2691"
                                   transform="translate(33283.438,22188.91)"><g
                                   id="g8255"
                                   transform="translate(-61019.613,44377.912)"><g
                                   id="g9996"
                                   transform="translate(-22188.958,-44377.912)"><g
                                   id="g11265"
                                   transform="translate(62759.847,388326.54)"><g
                                   id="g1244"
                                   transform="translate(-52953.619,298109.26)"><g
                                   id="g27371"><g
                                   id="g28024"
                                   transform="matrix(1.1432639,0,0,1.1432639,66217.108,59891.224)"><g
                                   id="g39110"
                                   transform="translate(-63077.353,24260.534)"><g
                                   id="g45099"
                                   transform="translate(20585.749,20585.746)"><g
                                   id="g2978"
                                   transform="translate(20585.746,61757.239)"><g
                                   id="g3083"
                                   transform="translate(29112.599,-24260.538)"><g
                                   id="g3106"
                                   transform="translate(36390.8,-48521.073)"><path
                                   style="fill:#fca18c;stroke-width:2216.92"
                                   d="m -319726.67,-23583.425 c -179224.12,-9671.728 -316290.51,-31900.732 -454469.31,-73704.439 -196355.2,-59403.996 -372002.32,-158629.856 -479845.62,-271072.486 -12128,-12645.25 -27343.9,-27480.61 -33813.2,-32967.5 -60361.1,-51194.99 -65451.5,-148034.74 -13242.1,-251917.31 43227.4,-86011.03 109797.2,-151000.61 177735.5,-173516.42 64457.4,-21362.21 113069,-4543.78 183512.86,63490.94 43017.52,41546.37 77197.73,66720.49 132728.56,97756.11 157237.34,87878.36 372152.24,135618.48 610432.56,135598.44 172131.136,-15.52 307949.04,-35725.77 420113.6,-110462.6 88157,-58740.25 145823.53,-120729.65 242673.84,-260865.42 45178.75,-65370.56 66328.58,-92842.3 89848.56,-116705.29 30136.73,-30576.2 56186.09,-46407.5 86764.86,-52730.7 l 12488.42,-2582.5 -2137.75,-9318.4 c -2601.43,-11339.7 -1046.64,-55124.4 2339.4,-65880.5 4324.31,-13736.6 16665.02,-31747.5 26452.6,-38606.8 18281.06,-12811.7 35007.77,-9057.5 109876.45,24661 25425,11450.7 53524.07,23201.3 62442.08,26112.5 8918.24,2911.1 19350.86,6914.7 23183.92,8896.9 18706.18,9673.3 35453.93,33007.1 35502.48,49464.2 55.43,18747.4 -10445.25,25939.7 -58895.45,40339.1 -31229.14,9281.4 -60796.69,21289.3 -60796.69,24690.7 0,1020.5 2923.9,6609.1 6497.8,12419.2 26368.76,42869.19 37990.53,112207.62 31124.94,185700.61 -15253.76,163285.42 -103178.3,339091.96 -239354.9,478594.29 -113751.65,116529.68 -245964,198636.48 -405704.87,251951.723 -88771.53,29628.452 -175684.506,47371.755 -282657.736,57704.636 -23589.064,2278.554 -193543.934,4528.865 -222800.804,2950.016 z"
                                   id="path3120" /><path
                                   style="fill:#fd8d6e;stroke-width:2216.92"
                                   d="m -305316.67,-23566.177 c -195028.39,-8396.088 -352583.81,-35245.427 -505614.2,-86162.753 -140949.27,-46897.6 -262962.73,-109891.93 -362052.93,-186924.3 -31904.8,-24802.67 -52539.2,-43585.87 -97803,-89028.77 -44932.6,-45110.36 -51325.8,-54205.55 -60139.1,-85556.78 -6341.7,-22558.63 -6810.7,-65977.7 -1005,-93032.95 26578.8,-123861.16 125287.2,-242221.85 221871,-266044.22 19625.3,-4840.56 49141.4,-5000.78 67005.8,-363.71 30705.3,7970.18 65271.21,30338.85 98155.01,63519.08 113841.57,114867.76 306452.96,195473.88 537603.94,224982.38 61273.97,7822.17 100857.09,10373.29 179780.54,11586.84 87169.74,1340.35 123960.85,-376.68 178116.9,-8312.67 149448.46,-21900.01 272721.42,-82296.41 373488,-182986.86 45367.39,-45333.12 77986.8,-86183.55 138789.52,-173810.91 61439.92,-88545.68 84975.49,-117647.6 114139.05,-141133.8 21170.07,-17048.9 43500.3,-28574.3 63182.32,-32610.6 l 14410.01,-2955.2 -1108.47,-7532.1 c -2713.64,-18439.7 -1077.38,-56397.8 2952.75,-68497.6 9466.66,-28422.1 26265.17,-44338.5 46795.79,-44338.5 14476.89,0 41334.67,9434 90379.87,31746.4 22811.48,10377.7 50925.61,22095.3 62475.78,26039 35817.95,12229.7 55319.56,32028.4 55553.89,56399.9 93.11,9633.1 -909.38,12908.7 -5428.8,17749.2 -7977.16,8543.8 -12731.79,10579.6 -54270.73,23236.8 -34323.96,10458.8 -51089.89,16996.9 -58211.53,22700.3 -2137.12,1711.4 -1831.18,3492.3 1381.8,8045.1 13641.84,19330.29 26796.4,55774.58 32793.4,90853.03 5356.53,31331.76 4789.89,92186.78 -1231.5,132252.71 -30072.57,200102.71 -162270.71,407395.35 -349436.13,547931.83 -58710.21,44083.6 -130542.32,85858.57 -199523.11,116035.45 -115910.23,50707.001 -237071.611,80310.823 -381310.84,93167.14 -26500.99,2362.065 -168003,4498.958 -201740.03,3046.563 z M -1099548.7,-474666.58 c 19012.8,-6404.94 26493.2,-12077.2 25638,-19440.8 -1933.9,-16650.03 -48826.8,-15750.12 -66600.5,1278.1 -18696.8,17912.74 7380.9,29475.55 40962.5,18162.7 z m -12683.1,-53818.08 c 21672.5,-10092.31 38751.2,-35729.21 38751.2,-58169.91 0,-22388.02 -5485,-21999.5 -44338.5,3140.68 -26422.9,17096.93 -50986.7,36357.74 -50918.8,39926.06 99.1,5202.12 4292.1,10133.27 13270.3,15606.43 10716.4,6532.81 28572.5,6324.95 43235.8,-503.26 z m -123084.3,-32964.31 c 33652.6,-10672.6 55329.1,-22499.62 50354.5,-27474.2 -650.4,-650.38 -8007.9,-2938.15 -16350,-5083.96 -8342.2,-2145.82 -17294.5,-5229.72 -19893.9,-6853.13 -9204.4,-14267.49 -13775.7,-21743.51 -21105.8,-36180.5 249.9,-1005.11 -719.3,-1102.1 -2153.8,-215.49 -1467.3,906.79 -3915.8,-176.24 -5597.3,-2475.86 -3900.5,-4806.71 -3192.4,1530.51 -7113.5,3410.36 -8553,2405.66 -14779.5,7214.44 -22707.9,11084.62 -1237.1,0 -1776,765.95 -1197.4,1702.09 -13527.8,10876.69 -7060,18117.41 -12073.6,29837.93 -3046.6,11040.61 -2755,32517.1 494.6,36432.7 5649.6,6807.28 27776.2,5192.65 57344.1,-4184.56 z m 268332.26,-2268.53 c 7588.11,-3826.45 11174.98,-7569.44 15402.37,-16072.69 10941.03,-22007.56 7690.86,-59049.27 -6569.52,-74872.08 -5318.02,-5900.67 -7141.18,-6728.63 -10406.04,-4725.59 -2177.11,1335.67 -4721.18,5824.94 -5653.49,9976.16 -4645.41,20684.11 -14980.1,85389.97 -14032.68,87858.96 1639.17,4271.61 10230.46,3396.79 21259.36,-2164.76 z m -311040.06,-65061.76 c -155137.8,-854488.04 -77568.9,-427244.04 0,0 z m 34319.1,-24062.62 c 10714.3,-29920.12 26825.6,-69112.88 51023.9,-90344.1 26448.2,-22480.91 68681.6,-46008.21 98828.1,-55054.92 17448.3,-5236.09 40197.1,-5364.25 45306.1,-255.21 1484.4,1484.32 2593.1,6728.89 2463.9,11654.63 -188.2,7177.89 -3133.7,13215.39 -14836.9,30411.27 -43042.3,62790.5 -652.4,46597.83 10716.7,45066.51 1219.4,-289.95 4711,-1042.66 7759.3,-1672.69 12957.3,-5153.28 26626.8,555.39 33988.6,1481.33 9611.37,2525 23135.83,15521.68 45305.41,40404.58 9845.11,14054.39 11599.83,13329.59 11599.83,-4791.44 -10222.32,-35838.4 -6468.94,-40880.88 -8032.31,-55707.54 786.87,-1828.96 976.64,-937.05 421.7,1982.04 3733.18,-1875.41 -17116.08,-25717.7 -22311.18,-31910.51 -30053.95,-30043.86 -61969.15,-46905.62 -93117.45,-49196.72 -39698.5,-2919.98 -87894,19783.76 -128771.3,60661.14 -34608.6,33403.43 -66983.1,86455.04 -60352.3,96022.43 8360.6,4712.52 13688.7,854.66 20007.9,1249.2 z m 71249.5,-53705.97 c 3834.8,-1975.39 13955.6,-10251.66 22490.8,-18391.74 9935.2,-9475.26 23233.4,-19019.25 36961.6,-26526.99 23758.7,-12993.19 34253.4,-22156.4 32025.4,-27962.28 -2110.1,-5498.95 -18037,-2516.96 -42875.6,8027.54 -31532.4,13386.19 -62542.4,33900.42 -73357.4,48528.57 -5303.6,7173.41 -6477.4,18959.8 -2080.6,20890.92 4344.4,1908.08 19162.1,-613.12 26835.8,-4566.02 z"
                                   id="path3118"
                                   sodipodi:nodetypes="sssssssssssssssscsssssssssssssssssssssssssssssccscccccsssssssssccccssscccccccccscccssssssss" /><path
                                   style="fill:#fb725d;stroke-width:2216.92"
                                   d="m -321846.19,-24634.114 c -311418.84,-13064.441 -582693.16,-91732.216 -790430.61,-229219.726 -64528.4,-42707.03 -92640.9,-66064.67 -157710,-131035.59 -37723.3,-37666.3 -43308.9,-44193.17 -50352.6,-58837.68 -11544.3,-24001.54 -15413.8,-42658.2 -15345.9,-73989.23 177.3,-81734.8 44416.1,-175997.03 115139.4,-245334.49 47917.7,-46978.8 96332.9,-70610.17 144542.1,-70550.8 11751.8,15.52 26516,1397.26 32809.3,3072.86 31798.2,8466.45 64496.09,29927.38 101130.17,66375.86 45075.95,44847.59 93816.41,78942.32 163434.5,114325.09 130559.61,66355.74 287173.15,105149.55 475530.08,117790.74 56533.39,3794.13 163548.3,3280.8 207282.346,-994.27 175223.723,-17128.38 308176.144,-77008.1 421032.874,-189626.69 45720.54,-45624.06 76246.4,-84188.29 146265.87,-184782.06 46301.4,-66519.08 66485.24,-92046.03 92443.8,-116915.7 28525.57,-27329 54889.98,-42027.3 82066.07,-45752.2 l 10009.83,-1372 -1803.4,-9101.3 c -991.85,-5005.7 -1789.88,-19576.3 -1773.38,-32379 37.46,-29044.3 5746.48,-47810.8 19191.3,-63085 11121.45,-12634.6 18764.47,-16724.3 31255.48,-16724.3 16959.44,0 33147.26,5816.1 96097.33,34526.4 19650.37,8962.1 43593.14,18918.9 53206.17,22126.2 9613.02,3207.2 22388.93,8482.6 28391.03,11722.9 22002.3,11878.6 36413.19,39460.8 29393.96,56260.2 -5506.39,13178.6 -12589.46,16659 -69126.77,33966.6 -24490.36,7497.2 -40525.37,14027.3 -46858.23,19082.7 -1795.93,1433.7 195.09,6775.2 6932.32,18597.73 36175.31,63479.34 40728.21,165843.08 12311.02,276793.68 -16176.67,63159.53 -41287.98,125583.2 -74747.39,185813.02 -107172.28,192919.2 -281868.51,343760.65 -496207.06,428449.9 -166982.397,65977.951 -336970.5,90324.959 -564109.61,80796.156 z M -1139988.4,-402467.46 c 90488.9,-28993.52 174982.13,-116827.06 198455.67,-206301.3 6994.35,-26660.32 7945.43,-62615.21 2224.26,-84084.54 -12998.42,-48777.88 -50818.34,-89504.23 -103625.63,-111589.11 -12149.7,-5081.19 -17020.5,-5823.88 -38305.8,-5840.95 -26455.8,-22.17 -37353,2604.2 -62073.8,14955.08 -73233.7,36588.5 -142178.1,134270.94 -159603.6,226130.99 -4309.4,22716.93 -4274.9,64973.68 68.1,83397.76 9879.7,41913 42513.1,76295.29 83300.6,87765.1 18674.5,5251.43 55789.3,3183.44 79560.2,-4433.03 z m -68724.6,-24453.17 c -18508.8,-2164.92 -33421.5,-11032.78 -49639,-18950.91 -1352.3,-1107.29 -4952.7,-3956.45 -8001,-6331.44 -594.3,-5755.45 -3103.1,-4780.61 -14387.2,-22165.07 -910.4,-11822.2 1653.7,-2509.17 9953.4,-15102.51 -10673.5,-17047.94 2494.3,-9923.91 5463.1,-21735.96 4505.2,-8365.51 14042.8,-16447.42 26318.1,-22301.09 32282.5,-13827.77 45676.3,9245.98 60021.5,28778.88 2850.7,3485.27 5764.4,5396.37 6474.9,4246.89 7937.2,-5981.08 24296.9,350.67 26716,385.59 -726.2,1892.39 -322.7,3440.69 896.6,3440.69 4152.3,0 4952,-6772.68 991.7,-8398.57 424.3,-8949.56 -44771.4,-9119.61 65990.4,-16813.97 47232.7,-34226.25 57793.6,-88446.81 41566.4,-147627.38 -10686.2,-21267.01 -9585,-22721.91 18203,-24050.49 11840.5,-566.1 19437.67,-1813.49 18664.47,-3064.59 -717.17,-1160.43 3793.6,1552.38 10024,6028.46 6230.39,4476.1 11756.7,10285.48 12280.69,12909.74 4183.67,20952.9 4149.9,21220.19 -10194.83,80710.45 -11913.51,60242.67 -40643.23,90679.53 -74658.73,129731.11 -17522.3,11899 -28547.2,20343 -62707,35750.51 -23666.1,7907.17 -57523,9745.51 -83976.5,4559.66 z m 118474.8,-48489.42 c 7194,-4775.61 14362.3,-8682.94 15929.7,-8682.94 3557.1,-964.2 2043.4,-6936.68 2937.9,-9972.98 -2206.9,-5462.09 -8970.9,-7638.19 -13456.3,-11457.29 -1219.3,0 -1763.8,-748.21 -1209.9,-1662.69 1477.4,-2439.21 -19659.5,-3056.14 -25723.1,-750.76 -19910,1400.67 -31691.6,10428.62 -35141.9,21897.95 -488.9,7059.79 672.2,10436.44 4353.3,12660.94 27511.5,7207.76 31155.2,3737.87 52310.3,-2032.23 z m 44469.1,-85536.29 c -309974.4,-899709.96 -154987.2,-449854.96 0,0 z m -115607.4,-35345.35 c -16391.6,-8419.73 38407.5,-36850.15 71004.7,-53331.6 10058.5,0 -1714.9,26928.6 -16805.8,38439 -16025.7,12223.36 -43051.3,19649.39 -54198.9,14892.6 z m -53260.8,-44334.9 c -14729.4,-8981.25 -8062.2,-32938.34 11466.6,-41202.63 3658,-1547.99 15629.3,-3511.7 26603.1,-4363.8 14993.1,-1164.19 24616.8,-3424.26 38718.7,-9092.84 22214.3,-8929.57 27885.7,-9434.96 29661.8,-2643.24 3875,14817.83 -12018,39389.37 -32039.5,49535.03 -23616.4,11967.33 -61105,15880.64 -74410.7,7767.48 z"
                                   id="path3116"
                                   sodipodi:nodetypes="sssssscssssssssscsssssssssscsssssssscsssssccccccccccscccssssccccccccsccccccccscsssssss" /><path
                                   style="fill:#cf4e14;stroke-width:2216.92"
                                   d="m -311096.72,-24460.019 c -212661.47,-8270.011 -405731.89,-46086.05 -573945.43,-112416.761 -157278.75,-62018.85 -290207.45,-147668.85 -382902.35,-246715.68 -6276.1,-6706.19 -16877.2,-16916.5 -23557.9,-22689.59 -32590.3,-28162.49 -47739.2,-74249.09 -43149.1,-131270.21 8444.4,-104900.12 90501.6,-228778.55 183026.7,-276307.64 29542.8,-15175.8 44024.3,-18670.02 77035.7,-18587.8 26047.9,64.96 30284.8,651.33 44048.9,6096.83 30281.2,11980.17 59194.41,32339.33 86749.57,61084.49 46064.99,48054.37 122115.46,98349.74 202848.5,134152.21 124435.85,55183.24 262015.55,86777.17 432300.07,99273.79 56296.09,4131.4 175573.85,3566.99 217258.503,-1028.03 157584.306,-17370.93 273068.597,-64403.56 379219.587,-154442.58 56928.58,-48287.74 103074.06,-103103.93 178227.46,-211716.2 74103.17,-107094.51 105019.41,-140638.41 148279.48,-160882.21 8075.36,-3778.9 20758.8,-8025.6 28185.41,-9436.9 12796.59,-2431.9 13438.99,-2857 12280.95,-8125.9 -8768.64,-39895.7 1011.19,-85175.8 22601.07,-104641.7 19702.62,-17764.3 35826.82,-14785.7 115758.5,21384.1 24995.81,11310.9 52430.24,22831.5 60965.4,25601.5 8535.15,2770 18511.31,6533.6 22169.23,8363.6 20225.22,10118.3 34731.88,30316.7 34731.88,48359.1 0,19529.7 -9077.64,25619.4 -60684.74,40710.1 -29709.65,8687.7 -52736.17,18031.6 -56951.21,23110.4 -1490.44,1795.9 -22.17,6072 4693.45,13640 14391.16,23112.04 26026.9,59169.9 30719.02,95195.47 3821.98,29344.22 1497.98,99874.95 -4377.98,132859.81 -12915.79,72504.92 -34127.1,135695.12 -69093.52,205835.43 -103623.17,207860.13 -287170.78,372432.98 -515705.26,462392.68 -107402.58,42277.667 -224111.097,68180.135 -350971.04,77895.049 -41824.65,3202.945 -145830.51,4403.896 -199760.85,2306.642 z M -1136169.7,-403109.68 c 39819.6,-13556.2 75370.1,-35863.66 109763,-68874.82 41484.1,-39817.46 72850.37,-89457.81 85068.48,-134629.67 4785.43,-17692.34 5977.27,-27106.97 6146.4,-48551.43 241.46,-30617.46 -4315.47,-49412.19 -18006.63,-74266.94 -16583.32,-30105.13 -62509.75,-67424.33 -95575.35,-77663.33 -28206.7,-8734.37 -64241.3,-4691.63 -94539.9,10606.52 -72759.1,36736.88 -140066,131319.93 -159771,224517.91 -4838.1,22882.82 -5474.1,66707.56 -1221.7,84183.57 5547.1,22796.23 17489.3,44269.4 33305.7,59886.6 26359.1,26027.11 46773.2,33578.26 87782.3,32470.64 22848.9,-617.13 29488.4,-1700.78 47048.7,-7679.05 z"
                                   id="path3114" /><path
                                   style="fill:#c43800;stroke-width:2216.92"
                                   d="m -1161728.9,-347567.45 -22951.6,-22723.47 -14787.4,-38.57 c -31578.3,-82.25 -58602.3,-9370.72 -82963.9,-28515.76 -17277.1,-13577.52 -30071.8,-29636.25 -39265.1,-49281.96 -18591.5,-39728.98 -17856.2,-97833.2 1987.5,-157062.72 7256.8,-21659.88 28173.2,-66602.59 30997,-66602.59 917.5,0 1668.1,-1261.34 1668.1,-2803.01 29181.1,-30303.42 62120.3,-70771.71 31116.7,-14429.18 -50913.1,81686.69 -66229.2,171501.49 -39074.3,229134.76 22166.2,47045.34 71386.5,72821.95 124853.2,65385.42 51665.3,-7185.98 105343.5,-36961.77 152091.1,-84366.34 26073.83,-26440.2 45539.06,-53634.76 61127.93,-85400.86 15447.42,-31477.85 21111.41,-52988.4 22474.11,-85351.56 1246.09,-29594.06 -1932.45,-46830.2 -12972.11,-70342.94 -7353.31,-15661.41 -7825.63,-16841.3 -8278.92,-20681.77 133992.48,73008.89 300981.68,230778.51 456897.28,289627.37 10632.66,3423.88 19003.21,6554.15 18601.19,6956.15 -102561.73,-7465.36 -202666.24,-21002.95 -304666.87,-44052.18 -4044.45,-1281.51 -7854.45,-1829.12 -8466.7,-1216.89 -3174.79,3174.79 66775.69,50837.25 109055.17,74307.4 185717.41,90067.39 344965.05,133593.78 549200.84,118000.48 309812.65,-25638 635880.41,-234575.88 735307.2,-489134.24 21509.03,-56794.99 25746.6,-48551.65 49262.76,-70699.82 23963.14,-52946.6 43644.08,-103294.09 67700.7,-161658.57 12608.71,-30463.4 15754.28,-40096.1 13540.24,-41464.4 -6595.99,-4076.6 -38598.95,-11162.3 -55942.96,-12386.3 l -18634.04,-1315 -1388.19,-6890.9 c -7805.7,-38747.1 725.62,-78706.8 21168.2,-99149.4 20169.8,-20169.8 35353.17,-17507 119938.67,21034.2 19854.1,9046.4 44777.86,19499.3 55386.28,23228.5 26625.03,9359.7 35101.88,14051.1 44815.11,24802.5 19768.97,21882 19706.23,45750.8 -148.53,56814.6 -4691.9,2614.4 -23993.77,9372.3 -42893.04,15017.6 -33232.57,9926.6 -62073.86,21773.9 -62073.86,25498.5 7792.31,14386.97 14892.71,29328.04 22055.73,44520.06 6694.45,17359.4 15631.97,56393.9 15631.97,68272.69 0,19820.89 -32257.56,128158.71 -54906.32,184404.66 -386567.03,662071.533 -1444869.92,846262.86 -1935463.14,368563.54 z m -88281.6,-357018.72 c -173813.4,-803950.13 -86906.7,-401975.03 0,0 z"
                                   id="path3112"
                                   sodipodi:nodetypes="ccsssssccssssssccccscccccsscsssssssccscccc" /><path
                                   style="fill:#b42a03;stroke-width:2216.92"
                                   d="M -259869.74,-63635.674 C -666331.77,-76462.24 -982554.02,-175350.35 -1156622,-344065.51 l -28980.4,-28089.22 -18218.4,-119.05 c -31220.4,-203.96 -53106.7,-7607.79 -77618.9,-26257.33 -16202.8,-12327.45 -32824.7,-32576.61 -39131.3,-47670.62 3897.1,-15886.33 -1863.3,-6928.67 30623.1,-2308.24 10195.5,19673.25 37071.8,40874.62 63077.3,49758.45 19846.7,6779.87 55563.4,6797.56 80671.5,39.91 52542.9,-19910.3 96607.3,-44348.2 130127.3,-80196.46 29083.08,-16710.74 10894.7,11606.95 12449.8,13263.66 -9391.4,9463.95 -14544.3,16244.59 -13242,17424.97 14536.4,13175.69 61356.31,45014.17 97985.7,66632.3 127314.96,75139.36 277752.93,120044.42 455051.6,135830.82 42193.91,3756.89 190040.87,3788.68 232776.96,50.1 141250.33,-12356.82 238151.2778,-29574.47 334104.85,-59364.8 184419.5,-57256 316365.7,-151902.65 420071.08,-301322.21 15219.77,-21928.75 48888.06,-78002.99 61563.07,-102532.72 22579.01,-44456.29 23744.62,-36028.24 60623.31,-50310.2 11743.81,349.27 29144.97,-3037.36 37082.5,-3450.2 2974.44,-2029.66 39267.79,-76082.77 50948.89,-103956.35 15514.03,-37019.72 33903.12,-87892.29 43782.62,-121122.35 4468.21,-15029.05 8814.93,-26898.45 9659.58,-26376.55 2113.81,-7703.8 -11422.8,-16126 -15044.93,-21239.5 -7847.69,-7341 -13814.54,-14082.3 -13260.09,-14980.6 -3659.53,-7259.2 412.97,-766.5 2890.87,-5365.3 39997.6,3842.1 58993.08,11085 92073.04,10042.9 4564.87,696.7 6534.17,4722.4 2351.94,4807.8 -22292.29,6376 -44613.9,17312.4 -64845.01,27727.6 0,1155.2 2990.63,6960.5 6645.67,12900.8 13127.51,21335.18 25823.83,59042.88 30006.5,89119.1 2375.88,17084.28 -19602.04,100876.74 -43477.19,165759.89 -96520.31,262303.11 -278485.36,472154.57 -505284.3,582719.73 -117882.13,57467.91 -240816.37,88876.157 -384636.22,98270.016 -29935.65,1955.282 -104303.14,2314.158 -154076.18,743.49 z"
                                   id="path3110"
                                   sodipodi:nodetypes="sscssccscccsssssscccsscccccccssssss" /><path
                                   style="fill:#a41900;stroke-width:2216.92"
                                   d="m -288689.75,-65760.085 c -275467.97,-14804.508 -563611.15,-58557.185 -795524.15,-218711.625 -32142,-22670.83 -85685.4,-80322.01 -93200.9,-86951.12 48463.7,-25939.12 176763.6,82393.08 133862.6,53548.01 107881.9,70920.46 229345.42,120688.98 355201.06,148266.24 24598.82,2091.69 315625.86,-28333.69 275307.51,-23917.69 58481.24,-205.96 230536.05,-17960.71 176409.68,-15441.1 64669.9,-2565.16 134831.37,-13727.55 195089.262,-17735.39 136806.025,-30676.74 24087.878,57513.33 149443.548,-20239.08 151828.28,-54557.22 277012.43,-143911.62 409633.43,-271500.28 211196.09,-120112.18 150218.82,28338.79 31030.15,155346.52 -186803.45,201250.96 -464137.642,308412.58 -737300.04,297622.027 -33316.32,66.69 -66640.27,384.778 -99952.15,-286.512 z M 551524.24,-543210.96 c -5467.6,-7897.3 -2681.02,8105.43 0,0 z"
                                   id="path3108"
                                   sodipodi:nodetypes="ccccccccccccccc" /></g></g></g></g></g></g></g></g></g></g></g></g></g></g></g></g></g></g></g></g></g></g></g></g></g></g></g></g></g></g></g></g></g></g></g></g></g></g></g></g></g></g></g></g></g></g></g></g></g></g></g></g></g></g></g></g></g></g></g></g></g></g></g></g></g></g></g></g></g></g></g></g></g></g></g></g></g></g></g></g></svg>
