<?xml version="1.0" encoding="UTF-8" standalone="no"?>
<!-- Created with Inkscape (http://www.inkscape.org/) -->

<svg
   width="64"
   height="64"
   viewBox="0 0 16.933333 16.933334"
   version="1.1"
   id="svg5"
   inkscape:version="1.2 (dc2aedaf03, 2022-05-15)"
   sodipodi:docname="saumon_frais.svg"
   xml:space="preserve"
   xmlns:inkscape="http://www.inkscape.org/namespaces/inkscape"
   xmlns:sodipodi="http://sodipodi.sourceforge.net/DTD/sodipodi-0.dtd"
   xmlns="http://www.w3.org/2000/svg"
   xmlns:svg="http://www.w3.org/2000/svg"><sodipodi:namedview
     id="namedview7"
     pagecolor="#ffffff"
     bordercolor="#666666"
     borderopacity="1.0"
     inkscape:pageshadow="2"
     inkscape:pageopacity="0.0"
     inkscape:pagecheckerboard="0"
     inkscape:document-units="mm"
     showgrid="false"
     units="px"
     inkscape:zoom="11.313709"
     inkscape:cx="31.068504"
     inkscape:cy="25.455844"
     inkscape:window-width="1920"
     inkscape:window-height="1017"
     inkscape:window-x="1912"
     inkscape:window-y="-8"
     inkscape:window-maximized="1"
     inkscape:current-layer="g4090"
     showguides="false"
     inkscape:showpageshadow="0"
     inkscape:deskcolor="#d1d1d1" /><defs
     id="defs2" /><g
     inkscape:label="Calque 1"
     inkscape:groupmode="layer"
     id="layer1"><g
       id="g4128"
       transform="translate(-0.63104184,0.12620835)"><g
         id="g5578"
         transform="translate(0.08924235,0.08924306)"><g
           id="g7501"
           transform="translate(-0.06310417,0.94656242)"><g
             id="g9467"
             transform="translate(-0.08924275,-0.80318511)"><g
               id="g10302"
               transform="translate(0.31234979,-0.04462139)"><g
                 id="g11479"
                 transform="translate(-0.12620833,0.06310418)"><g
                   id="g11873"
                   transform="translate(-0.23575769,0.66462456)"><g
                     id="g12382"
                     transform="translate(-121.98459,-82.267525)"><g
                       id="g13305"
                       transform="matrix(0.13266609,0,0,0.13266609,114.63867,78.215696)"><g
                         id="g17429"
                         transform="translate(0.90513437,5.6640979)"><g
                           id="g18595"
                           transform="translate(-3.3634362,-8.7449387)"><g
                             id="g21002"
                             transform="translate(1.7082278,-2.8204445)"><g
                               id="g23814"
                               transform="translate(8.7253043,-1.1218249)"><g
                                 id="g24838"
                                 transform="translate(11.143454,-0.85716864)"><g
                                   id="g25315"
                                   transform="translate(-3.490122,2.4929446)"><g
                                   id="g27220"
                                   transform="translate(2.4678888,1.2339445)"><g
                                   id="g29753"
                                   transform="translate(1.4759287,-2.3737724)"><g
                                   id="g30615"
                                   transform="translate(0.92006037,1.3687834)"><g
                                   id="g31433"
                                   transform="translate(-2.4678886,-1.410222)"><g
                                   id="g31731"
                                   transform="translate(1.0576664,-0.70511063)"><g
                                   id="g33243"
                                   transform="matrix(1.0772948,0,0,1.0772948,-7.3729128,-3.1743014)"><g
                                   id="g35254"
                                   transform="translate(-2.2135012,-0.92031205)"><g
                                   id="g36749"
                                   transform="translate(-0.98178042,-2.7817105)"><g
                                   id="g37297"
                                   transform="translate(-6.7755742,-3.5033798)"><g
                                   id="g38955"
                                   transform="matrix(1.2171094,0,0,1.2171094,-23.105122,-18.212482)"><g
                                   id="g39618"
                                   transform="translate(-0.26888273,-0.26888316)"><g
                                   id="g40032"
                                   transform="translate(-1.90129,-3.042064)"><g
                                   id="g40543"
                                   transform="translate(0.3802582,-2.0914191)"><g
                                   id="g41372"
                                   transform="translate(1.9657652,-7.9304203)"><g
                                   id="g43278"
                                   transform="translate(1.5210324,-0.38025789)"><g
                                   id="g44210"
                                   transform="matrix(1.1578947,0,0,1.1578947,-18.904476,-21.776183)"><g
                                   id="g44833"
                                   transform="matrix(1.1196819,0,0,1.1196819,-12.538538,-14.547543)"><g
                                   id="g47597"
                                   transform="translate(3.1109352,-1.2443743)"><g
                                   id="g48754"
                                   transform="translate(-2.9035392,-6.6366609)"><g
                                   id="g234"
                                   transform="matrix(0.04089637,0,0,0.04089637,104.63967,119.67231)"><g
                                   id="g2138"
                                   transform="translate(-86.211222,-40.569988)"><g
                                   id="g2696"
                                   transform="translate(-124306.44,-9412.2373)"><g
                                   id="g3765"
                                   transform="translate(25.356243,-50.712489)"><g
                                   id="g4557"
                                   transform="translate(46.61688,-35.859142)"><g
                                   id="g5244"
                                   transform="translate(7.1718407,14.343658)"><g
                                   id="g5807"
                                   transform="translate(-5.1984397,-21.113724)"><g
                                   id="g6945"
                                   transform="translate(-10.142522,-243.41993)"><g
                                   id="g11108"
                                   transform="translate(18.189368,-37.636113)"><g
                                   id="g15049"
                                   transform="translate(-65.926228,141.99496)"><g
                                   id="g19861"
                                   transform="matrix(0.07356842,0,0,0.07356842,115423.38,9039.2311)"><g
                                   id="g20437"
                                   transform="translate(-478.38824,-785.88156)"><g
                                   id="g21032"
                                   transform="translate(2047.1878,-1072.3367)"><g
                                   id="g21869"
                                   transform="matrix(0.04321578,0,0,0.04321578,117368,10137.003)"><g
                                   id="g25455"
                                   transform="translate(154741.46,-87178.414)"><g
                                   id="g26278"
                                   transform="translate(-18012.371,-8233.4417)"><g
                                   id="g27240"
                                   transform="translate(-0.00447131,5582.7624)"><g
                                   id="g28306"
                                   transform="translate(-15790.441,-2255.7767)"><g
                                   id="g33735"
                                   transform="translate(14662.549,-16918.328)"><g
                                   id="g37868"
                                   transform="translate(-5075.4976,25941.433)"><g
                                   id="g76752"
                                   transform="matrix(-1,0,0,1,9442.3174,-1595.0746)"><g
                                   id="g82459"
                                   transform="translate(3383.6668,-1127.8885)"><g
                                   id="g83208"
                                   transform="matrix(0.20332428,0,0,0.20332428,-15348.528,66747.475)"><g
                                   id="g83934"
                                   transform="matrix(-1,0,0,1,240692.18,94139.78)"><g
                                   id="g84550"
                                   transform="translate(-8.7627443e-5,55472.344)"><g
                                   id="g9096"
                                   transform="translate(31379.925,-62759.843)"><g
                                   id="g11527"
                                   transform="translate(61019.625,105397.54)"><g
                                   id="g13422"
                                   transform="translate(-44377.907,44377.908)"><g
                                   id="g1137"
                                   transform="translate(-3.3240812e-4,138680.92)"><g
                                   id="g3632"
                                   transform="translate(177511.65,-22188.943)"><g
                                   id="g5936"
                                   transform="translate(11767.473,-47069.909)"><g
                                   id="g7318"><g
                                   id="g11619"
                                   transform="translate(27457.436,-223581.94)" /><g
                                   id="g11985"
                                   transform="translate(70604.821,-133364.68)"><g
                                   id="g2691"
                                   transform="translate(33283.438,22188.91)"><g
                                   id="g8255"
                                   transform="translate(-61019.613,44377.912)"><g
                                   id="g9996"
                                   transform="translate(-22188.958,-44377.912)"><g
                                   id="g11265"
                                   transform="translate(62759.847,388326.54)"><g
                                   id="g1244"
                                   transform="translate(-52953.619,298109.26)"><g
                                   id="g3688"
                                   transform="translate(-31379.903,23534.943)"><g
                                   id="g3884"
                                   transform="translate(70604.825,27457.43)"><g
                                   id="g3990"
                                   transform="translate(110944.73,-33283.433)"><g
                                   id="g4090"
                                   transform="translate(-7845.028,-164744.59)"><path
                                   style="fill:#f99688;stroke-width:4518.69"
                                   d="m -566859.4,452365.59 c -63480.23,-85804.31 -71030.95,-96833.83 -116778.23,-170580.43 -44299.36,-71412.52 -118878.35,-214582.197 -155353.69,-298233.35 -83610.44,-191749.09 -156131.12,-449046.48 -189768.88,-673284.38 -21990.6,-146594.39 -38643.8,-351302.73 -38672.6,-475380.43 l -16,-68698.5 21463.7,-9690.9 c 455167.58,-205508.1 985888.104,-206442.3 1439201.85,-2533.4 l 25982.45,11687.4 v 73562.8 c 0,124443.4 -12981.38,291914.33 -34236.6,441681.56 -64029.48,451160.41 -223001.41,850379.23 -468287.316,1175988.32 l -39996.894,53094.58 h -200457 -200457 z"
                                   id="path4096" /><path
                                   style="fill:#f8725f;stroke-width:4518.69"
                                   d="m -420146.93,506594.36 c -55297.44,-718.88 -100540.79,-2361.24 -100540.79,-3649.65 0,-1288.42 25425.7,-46492.87 56501.57,-100454.35 62658.65,-108803.16 77828.65,-126736.34 116234.78,-137406.54 l 23826.54,-6619.65 1282.54,-48212.09 1282.54,-48212.13 h -17751.62 c -27983.28,0 -73431.02,16252.81 -101347.65,36243.44 -30680.8,21970.08 -51215.97,50336.46 -106983.21,147782.12 -48154.84,84144.01 -38131.62,81984.49 -81338.4,17524.65 l -23916.56,-35680.87 7957.28,-14024.69 c 83676.64,-147479.64 116085.57,-186243.34 182995.12,-218876.89 39694.14,-19359.863 82087.96,-32333.149 106008.85,-32440.559 34420.51,-154.539 34505.56,-292.359 33087.91,-53598.4105 l -1276.8,-48010.3705 -32926.18,1356.92 c -132701.06,5468.74 -254831.82,88382.355 -330799.98,224577.44 -26942.86,48302.86 -22372.16,49076.06 -53909.79,-9119.48 l -28193.58,-52024.78 26161.79,-39318.765 c 49081.71,-73765.265 130338.51,-144704.225 204127.22,-178207.575 63403.01,-28787.74 97174.86,-38046.89 168094.3,-46086.09 l 47446.22,-5378.32 1282.54,-48440.46 1282.54,-48440.46 h -33543.85 c -105516.4,0 -241444.07,50894.65 -339649.64,127173.11 -28301.67,21982.56 -95896.75,90116.45 -115406.1,116325.9605 L -821552.03,18681.3 -842829.99,-31461.26 c -11702.85,-27578.41 -21277.95,-52498.29 -21277.95,-55377.5 0,-9503.48 87359.19,-91978.87 128782.58,-121583.01 52287.49,-37368.41 136786.81,-80303.94 194486.6,-98821.88 50163.71,-16099.4 132324.6,-32263.38 164384.91,-32340.42 11384.02,-27.11 28323.49,-1310.1 37643.28,-2850.57 l 16945.08,-2800.82 v -49651.69 -49651.7 l -44057.2,3082.11 c -199189.78,13934.59 -372389.97,88046.62 -506087.62,216553.83 -18015.28,17315.92 -33350.26,30633.85 -34077.68,29595.37 -1990.66,-2841.94 -32578.29,-100064.21 -32578.29,-103549.61 0,-6489.51 67403.22,-60690.26 115118.39,-92569.82 136476.14,-91182.72 303359.75,-144839.01 474570.28,-152583.46 l 24852.78,-1124.15 1282.54,-48575.89 1282.54,-48575.89 h -40665.7 c -69989.5,0 -187938.48,20261.57 -266910.76,45850.53 -105767.28,34271.26 -217506.78,92874.39 -305298.95,160117.78 -18560.38,14216.06 -34482.38,25032.49 -35382.38,24036.39 -2375.6,-2629.29 -25822.1,-104542.67 -24329.6,-105752.23 58852.03,-47698.63 183801.72,-117741.13 267617.27,-150017.03 119120.05,-45871 209377.89,-64513.75 369644.56,-76349.99 l 35019.82,-2586.32 v -49320.02 -49320.03 l -23723.11,13.56 c -38124.57,22.59 -123328.97,8615.37 -181877.15,18337.42 -147871.6,24554.36 -312509.69,87847.79 -439961.69,169138.84 -25759.8,16429.99 -47488.56,29220.09 -48286.16,28422.45 -2053,-2051.08 -15585.7,-87422.95 -15585.7,-98321.07 0,-10179.66 12831.7,-19054.09 86378.84,-59739.62 168459.23,-93189.97 388372.44,-152583.77 586905.47,-158510.37 l 33890.16,-1011.7 v -49490.8 -49490.73 l -45186.87,1081.8 c -214065.71,5125.1 -447699.91,69803.13 -637134.8,176381.03 l -40668.2,22880.3 -4712,-52940.1 c -2591.7,-29117.1 -3955.9,-54531.2 -3031.7,-56475.9 3236.6,-6810.3 116783.3,-61130.03 179453.74,-85849.03 164697.02,-64961.3 301647.99,-93504.3 504963.29,-105243.2 l 48575.88,-2804.6 v -49270.7 -49270.8 l -35019.82,18.6 c -48746.02,25.7 -169073.28,11690.5 -233842.06,22669.5 -144404.63,24478.1 -315633.69,79439.1 -435938.23,139927 l -36264.5,18233.3 v -28712.5 c 0,-15791.8 -1269.9,-52924.2 -2822.1,-82516.4 l -2822,-53804.1 44619.9,-19021.5 c 244699.3,-104316.1 485554.14,-151110 744390.82,-144622.4 231852.344,5811.3 437320.07,50602.4 650186.79,141737.9 l 48575.89,20797.1 -27.11,50260 c -68.24,128573.5 -21304.53,382956.34 -42861.6,513425.52 -32670.02,197728.12 -73654.6,353955.9 -141658.36,539983.11 C 207187.78,-54285.51 196074.61,-28219.6 153737.45,60369.488 80800.327,212988.01 12164.091,327118.25 -81995.366,452352.54 l -43307.234,57600.24 -97151.77,-1025.69 c -53433.48,-564.12 -142395.13,-1613.85 -197692.56,-2332.73 z"
                                   id="path4094" /><path
                                   style="fill:#f65039;stroke-width:4518.69"
                                   d="m -321865.49,383455.62 c 2115.34,-37707.85 4899.95,-87253.2 4899.95,-107902.89 0,-14631.62 33853.34,3887.01 63930.09,16785.28 45018.05,68137.99 87521.74,138278.56 125473.51,210589.48 -64623.53,4347.3 -129544,1878.71 -194303.55,2532.68 z m 219308.02,-41829.31 c -39598.05,-70514.47 -81432.23,-152744.54 -167607.79,-173027.36 -25493.27,-3838.56 -32558.63,-6257.01 -50067.1,-7738.76 0,-11802.85 -560.47,-33897.21 273.73,-47648.16 4655.21,-19615.968 -12233.89,-55201.626 18414.72,-52018.106 110725.76,8074.956 206178.314,81377.496 256053.014,178445.356 60676.56,59589.95 -63053.914,231902.18 -9439.52,176545.37 -19222.21,-22322.04 -32276.49,-49492.6 -47627.054,-74558.34 z M 51373.371,206092.54 C -12838.248,79078.537 -133461.91,-25744.71 -279554.04,-37549.92 c -28303.03,-61.35 -43699.6,7282.22 -42311.45,-37867.25 2661.71,-21587.52 999.03,-21448.99 4069.31,-66254.9 135145.65,3629.9 267392.384,60096.21 358846.127,160453.93 31832.13,31607.203 104773.633,144308.57 80761.443,106660.97 -18786.27,34815.18 -36785.423,70074.83 -56502.839,104372.82 -5168.712,-7590.95 -9396.777,-15756.6 -13935.18,-23723.11 z M 155362.55,-4461.4295 C 62047.104,-121591.7 -71278.346,-205964.89 -219210.47,-232818.31 c -37273.44,-10020.72 -36555.83,-9817.18 -102655.02,-19555.21 v -90472.82 c 199975.8,2164.33 396127.933,91671.27 528057.54,242003.41 16152.99,17723.93 -30430.38,159457.866 -50829.5,96381.5005 z M 224629.77,-224743.9 C 79356.816,-365054.56 -121349.42,-439244.68 -321865.49,-444538.85 v -98336.39 c 223231.014,-457.08 443048.49,88277.05 608703.62,236937.04 1422.31,38345.79 -19326.11,75241.92 -28584.08,112617.03 -11208.09,-10474.24 -22416.19,-20948.49 -33624.28,-31422.73 z m 63527.5,-210363.32 c -172082.22,-134893.05 -389965.62,-205709.26 -607763.41,-209438.48 -852.02,-33915.34 -1704.04,-67830.67 -2556.05,-101746.01 212051.39,6155.24 423983.38,63958.71 601627.76,181906.79 75168.78,22462.48 17142.99,208977.72 43366.71,148006.25 -5091.53,14725.19 -26934.56,-19256.9 -34675.01,-18728.55 z m 33890.15,-221265.33 C 135390,-774308.38 -82299.156,-840933.35 -303201.3,-845828.94 c -32546.81,6772.14 -23506.98,-73604.53 -18664.19,-54227.43 -5928.8,-52258.3 25850.94,-48061.2 28584.06,-44952.6 237824.674,5119.5 473741.59,78289.4 674071.79,206320.35 -6956,44600.33 11534.98,153353.55 -58742.94,82316.07 z m 40668.19,-210456.82 c -206251.13,-115286.2 -441472.326,-176831.83 -677433.48,-180362.93 -9441.59,-27127.9 4918.95,-125288.3 -3070.88,-101557.7 232448.454,7294.4 465486.07,56244.3 672536.6,164706.03 65710.59,42375.2 49182.92,55148.6 46374.77,113488.9 1521.8,27422.85 -17997.28,11630.5 -38407.01,3725.7 z m 13556.06,-219470.73 c -216823.15,-104384.7 -457342.056,-161107.2 -698137.16,-161490.4 v -149116.6 c 255219.234,-31.1 509262.69,58682.8 741064.69,164833 -298.56,54751.7 -3139.61,109438.2 -6778.03,164058.3 -12049.83,-6094.8 -24099.67,-12189.5 -36149.5,-18284.3 z"
                                   id="path4092"
                                   sodipodi:nodetypes="cscccccccccccccccccccccccccccccccccccccccccccccccccccccccc" /></g></g></g></g></g></g></g></g></g></g></g></g></g></g></g></g></g></g></g></g></g></g></g></g></g></g></g></g></g></g></g></g></g></g></g></g></g></g></g></g></g></g></g></g></g></g></g></g></g></g></g></g></g></g></g></g></g></g></g></g></g></g></g></g></g></g></g></g></g></g></g></g></g></g></g></g></g></svg>
