<?xml version="1.0" encoding="UTF-8" standalone="no"?>
<svg
   width="64"
   height="64"
   version="1.1"
   viewBox="0 0 16.933 16.933"
   id="svg146"
   sodipodi:docname="smoothie.svg"
   inkscape:version="1.2 (dc2aedaf03, 2022-05-15)"
   xml:space="preserve"
   xmlns:inkscape="http://www.inkscape.org/namespaces/inkscape"
   xmlns:sodipodi="http://sodipodi.sourceforge.net/DTD/sodipodi-0.dtd"
   xmlns="http://www.w3.org/2000/svg"
   xmlns:svg="http://www.w3.org/2000/svg"><defs
     id="defs150" /><sodipodi:namedview
     id="namedview148"
     pagecolor="#ffffff"
     bordercolor="#666666"
     borderopacity="1.0"
     inkscape:pageshadow="2"
     inkscape:pageopacity="0.0"
     inkscape:pagecheckerboard="0"
     showgrid="false"
     inkscape:zoom="12.761068"
     inkscape:cx="18.376205"
     inkscape:cy="32.99097"
     inkscape:window-width="1920"
     inkscape:window-height="1017"
     inkscape:window-x="1912"
     inkscape:window-y="-8"
     inkscape:window-maximized="1"
     inkscape:current-layer="g549"
     inkscape:showpageshadow="0"
     inkscape:deskcolor="#d1d1d1" /><g
     transform="translate(-.63104 .12621)"
     id="g144"><g
       transform="translate(.089242 .089243)"
       id="g142"><g
         transform="translate(-.063104 .94656)"
         id="g140"><g
           transform="translate(-.089243 -.80319)"
           id="g138"><g
             transform="translate(.31235 -.044621)"
             id="g136"><g
               transform="translate(-.12621 .063104)"
               id="g134"><g
                 transform="translate(-.23576 .66462)"
                 id="g132"><g
                   transform="translate(-121.98 -82.268)"
                   id="g130"><g
                     transform="matrix(.13267 0 0 .13267 114.64 78.216)"
                     id="g128"><g
                       transform="translate(.90513 5.6641)"
                       id="g126"><g
                         transform="translate(-3.3634 -8.7449)"
                         id="g124"><g
                           id="g2243"
                           transform="matrix(1.1930023,0,0,1.1930023,-33.651497,-20.118288)"><g
                             id="g2622"
                             transform="translate(-3.5913905,-3.2649007)"><g
                               id="g3762"
                               transform="translate(-4.1555401,0.11543139)"><g
                                 id="g932"
                                 transform="translate(3.9178806,-0.97947018)"><g
                                   id="g1493"
                                   transform="translate(-5.6814412,-2.5586263)"><g
                                   id="g2924"
                                   transform="matrix(1.4252606,0,0,1.4252606,-67.958484,-35.929956)"><g
                                   id="g3496"
                                   transform="translate(-1.2958378,1.9437573)"><g
                                   id="g6616"
                                   transform="translate(-2.0796661,3.1194989)"><g
                                   id="g212"
                                   transform="translate(0.7798745,-0.25995826)"><g
                                   id="g197"
                                   transform="translate(-2.3396243,-0.77987483)"><g
                                   id="g549"
                                   transform="translate(-1.1029094,-1.470546)"><path
                                   style="fill:#c8c4b7;stroke-width:0.230796"
                                   d="m 145.0165,120.2463 c -0.33161,-0.26083 -0.65728,-0.65329 -0.72373,-0.87212 -0.12751,-0.41992 -0.76055,-5.73435 -3.02338,-25.381564 -0.77537,-6.732321 -1.21411,-10.466995 -1.62116,-13.799902 -0.1867,-1.528658 -0.33945,-2.904781 -0.33945,-3.05805 0,-0.215107 3.78144,-0.278669 16.57887,-0.278669 9.11838,0 16.63041,0.05155 16.6934,0.114543 0.063,0.063 0.0358,0.764042 -0.0605,1.557874 -0.0963,0.793833 -0.39499,3.364712 -0.66381,5.713063 -0.26884,2.348352 -0.69057,5.983393 -0.93719,8.077869 -0.24661,2.094475 -0.65306,5.573728 -0.90321,7.731666 -2.3489,20.26279 -2.24763,19.53284 -2.78424,20.06965 -0.4586,0.45876 -0.75081,0.47293 -11.04189,0.53555 -10.3651,0.0631 -10.58257,0.0551 -11.17373,-0.40991 z"
                                   id="path10781" /><path
                                   style="fill:#ffcc00;stroke-width:0.209501"
                                   d="m 146.02642,118.26471 c -0.30101,-0.23677 -0.59663,-0.59301 -0.65695,-0.79165 -0.11574,-0.38118 -0.69037,-5.20525 -2.74441,-23.039627 -0.56476,-5.377591 -0.84255,-5.404084 -1.77971,-10.523207 0,-0.195259 3.43253,-0.252956 15.04915,-0.252956 8.27703,0 15.09593,0.04679 15.15311,0.103974 -0.56445,2.331431 -0.98836,4.73455 -1.50817,9.153308 -0.22386,1.90122 -0.59281,5.059444 -0.81988,7.018273 -2.13216,18.393155 -2.04024,17.730555 -2.52734,18.217835 -0.41628,0.41643 -0.68153,0.42929 -10.02306,0.48614 -9.40872,0.0573 -9.60612,0.05 -10.14274,-0.37209 z"
                                   id="path10779"
                                   sodipodi:nodetypes="ssccsccsscs" /></g></g></g></g></g></g></g></g></g></g></g></g></g></g></g></g></g></g></g></g></g></g></svg>
