<?xml version="1.0" encoding="UTF-8" standalone="no"?>
<!-- Created with Inkscape (http://www.inkscape.org/) -->

<svg
   width="64"
   height="64"
   viewBox="0 0 16.933333 16.933334"
   version="1.1"
   id="svg5"
   inkscape:version="1.2 (dc2aedaf03, 2022-05-15)"
   sodipodi:docname="surimi.svg"
   xml:space="preserve"
   xmlns:inkscape="http://www.inkscape.org/namespaces/inkscape"
   xmlns:sodipodi="http://sodipodi.sourceforge.net/DTD/sodipodi-0.dtd"
   xmlns="http://www.w3.org/2000/svg"
   xmlns:svg="http://www.w3.org/2000/svg"><sodipodi:namedview
     id="namedview7"
     pagecolor="#ffffff"
     bordercolor="#666666"
     borderopacity="1.0"
     inkscape:pageshadow="2"
     inkscape:pageopacity="0.0"
     inkscape:pagecheckerboard="0"
     inkscape:document-units="mm"
     showgrid="false"
     units="px"
     inkscape:zoom="22.627417"
     inkscape:cx="28.416854"
     inkscape:cy="35.929863"
     inkscape:window-width="1920"
     inkscape:window-height="1017"
     inkscape:window-x="1912"
     inkscape:window-y="-8"
     inkscape:window-maximized="1"
     inkscape:current-layer="g14064"
     inkscape:showpageshadow="0"
     inkscape:deskcolor="#d1d1d1" /><defs
     id="defs2" /><g
     inkscape:label="Calque 1"
     inkscape:groupmode="layer"
     id="layer1"><g
       id="g4128"
       transform="translate(-0.63104184,0.12620835)"><g
         id="g5578"
         transform="translate(0.08924235,0.08924306)"><g
           id="g7501"
           transform="translate(-0.06310417,0.94656242)"><g
             id="g9467"
             transform="translate(-0.08924275,-0.80318511)"><g
               id="g10302"
               transform="translate(0.31234979,-0.04462139)"><g
                 id="g11479"
                 transform="translate(-0.12620833,0.06310418)"><g
                   id="g11873"
                   transform="translate(-0.23575769,0.66462456)"><g
                     id="g12382"
                     transform="translate(-121.98459,-82.267525)"><g
                       id="g13305"
                       transform="matrix(0.13266609,0,0,0.13266609,114.63867,78.215696)"><g
                         id="g17429"
                         transform="translate(0.90513437,5.6640979)"><g
                           id="g18595"
                           transform="translate(-3.3634362,-8.7449387)"><g
                             id="g21002"
                             transform="translate(1.7082278,-2.8204445)"><g
                               id="g23814"
                               transform="translate(8.7253043,-1.1218249)"><g
                                 id="g24838"
                                 transform="translate(11.143454,-0.85716864)"><g
                                   id="g25315"
                                   transform="translate(-3.490122,2.4929446)"><g
                                   id="g27220"
                                   transform="translate(2.4678888,1.2339445)"><g
                                   id="g29753"
                                   transform="translate(1.4759287,-2.3737724)"><g
                                   id="g30615"
                                   transform="translate(0.92006037,1.3687834)"><g
                                   id="g31433"
                                   transform="translate(-2.4678886,-1.410222)"><g
                                   id="g31731"
                                   transform="translate(1.0576664,-0.70511063)"><g
                                   id="g33243"
                                   transform="matrix(1.0772948,0,0,1.0772948,-7.3729128,-3.1743014)"><g
                                   id="g35254"
                                   transform="translate(-2.2135012,-0.92031205)"><g
                                   id="g36749"
                                   transform="translate(-0.98178042,-2.7817105)"><g
                                   id="g37297"
                                   transform="translate(-6.7755742,-3.5033798)"><g
                                   id="g38955"
                                   transform="matrix(1.2171094,0,0,1.2171094,-23.105122,-18.212482)"><g
                                   id="g39618"
                                   transform="translate(-0.26888273,-0.26888316)"><g
                                   id="g40032"
                                   transform="translate(-1.90129,-3.042064)"><g
                                   id="g40543"
                                   transform="translate(0.3802582,-2.0914191)"><g
                                   id="g41372"
                                   transform="translate(1.9657652,-7.9304203)"><g
                                   id="g43278"
                                   transform="translate(1.5210324,-0.38025789)"><g
                                   id="g44210"
                                   transform="matrix(1.1578947,0,0,1.1578947,-18.904476,-21.776183)"><g
                                   id="g44833"
                                   transform="matrix(1.1196819,0,0,1.1196819,-12.538538,-14.547543)"><g
                                   id="g47597"
                                   transform="translate(3.1109352,-1.2443743)"><g
                                   id="g48754"
                                   transform="translate(-2.9035392,-6.6366609)"><g
                                   id="g234"
                                   transform="matrix(0.04089637,0,0,0.04089637,104.63967,119.67231)"><g
                                   id="g2138"
                                   transform="translate(-86.211222,-40.569988)"><g
                                   id="g2696"
                                   transform="translate(-124306.44,-9412.2373)"><g
                                   id="g3765"
                                   transform="translate(25.356243,-50.712489)"><g
                                   id="g4250"
                                   transform="translate(-70.997493,-101.42497)"><g
                                   id="g1279"
                                   transform="translate(40.569973,-76.068725)"><g
                                   id="g9841"
                                   transform="translate(-70.997479,30.427518)"><g
                                   id="g10661"
                                   transform="translate(-64.546403,-46.616886)"><g
                                   id="g22277"
                                   transform="translate(-53.248112,-70.99748)"><g
                                   id="g22858"
                                   transform="rotate(90,124804.94,9867.6838)"
                                   style="fill:#b0483e;fill-opacity:1"><g
                                   id="g24066"
                                   transform="translate(389.27024,27.849438)"><g
                                   id="g24937"
                                   transform="translate(76.068724,10.142496)"><g
                                   id="g25295"
                                   transform="translate(-10.142497,164.81558)"><g
                                   id="g14064"
                                   transform="translate(-12.67812,-7.6068466)"><path
                                   style="fill:#e94719;fill-opacity:1;stroke:none;stroke-width:28.6873px;stroke-linecap:butt;stroke-linejoin:miter;stroke-opacity:1"
                                   d="m 124115.79,10036.184 c 125.07,-286.1706 313.04,-527.0243 485.45,-783.746 0,0 6.72,77.3213 32.72,165.1762 26,87.8549 66.34,135.3682 66.34,135.3682 0,0 45.72,9.8613 71.72,12.5507 25.99,2.6895 54.25,-12.3922 54.25,-12.3922 0,0 -480.33,659.6451 -493.96,662.4981 -8.87,6.656 -76.17,24.58 -84.73,20.46 -11.09,-1.585 -76.2,-78.89 -87.86,-106.681 -11.65,-27.791 -42.54,-68.137 -43.93,-93.234 z"
                                   id="path14746"
                                   sodipodi:nodetypes="ccsccccccc" /><path
                                   style="fill:#efd7cb;fill-opacity:1;stroke:none;stroke-width:28.6873px;stroke-linecap:butt;stroke-linejoin:miter;stroke-opacity:1"
                                   d="m 124826.7,9552.9824 c 0,0 -38.1,-172.1239 -51.1,-205.2936 -5.54,-17.5909 -44.54,-105.6214 -49.3,-108.4739 -6.34,-6.3391 -43.93,-16.1366 -68.14,-11.6542 -24.2,4.4824 -57.37,25.1014 -57.37,25.1014 0,0 14.89,124.7081 36.76,173.9169 12.55,40.7897 41.23,123.7141 58.27,128.1964 15.24,-0.8965 18.33,8.4341 69.47,10.3095 50.2,8.0008 61.41,-12.1025 61.41,-12.1025 z"
                                   id="path23304"
                                   sodipodi:nodetypes="ccccccccc" /><path
                                   style="fill:none;fill-opacity:1;stroke:#f4c5ab;stroke-width:28.6873px;stroke-linecap:round;stroke-linejoin:miter;stroke-opacity:1"
                                   d="m 124712.92,9418.1899 c 15.21,-35.4988 -25.36,-46.9091 -25.36,-46.9091 0,0 -50.71,7.6069 -24.09,39.3022 26.63,31.6953 54.52,84.9434 74.8,55.7837 20.29,-29.1597 31.7,-86.2112 16.48,-101.4249 -15.21,-15.2138 -60.85,-77.3366 -83.67,-46.9091"
                                   id="path27570" /><path
                                   style="fill:none;fill-opacity:1;stroke:#af3513;stroke-width:10.8424;stroke-linecap:round;stroke-linejoin:miter;stroke-dasharray:none;stroke-opacity:1"
                                   d="m 124127.5,10053.777 c 0,0 416.94,-707.3455 476.53,-737.7729"
                                   id="path32816"
                                   sodipodi:nodetypes="cc" /><path
                                   style="fill:none;fill-opacity:1;stroke:#af3513;stroke-width:10.8424;stroke-linecap:round;stroke-linejoin:miter;stroke-dasharray:none;stroke-opacity:1"
                                   d="m 124150.81,10093.222 c 0,0 407.97,-680.4511 467.56,-710.8785"
                                   id="path33367"
                                   sodipodi:nodetypes="cc" /><path
                                   style="fill:#e94719;fill-opacity:1;stroke:#af3513;stroke-width:10.8424;stroke-linecap:round;stroke-linejoin:miter;stroke-dasharray:none;stroke-opacity:1"
                                   d="m 124206.39,10183.767 c 0,0 389.24,-653.3398 448.83,-683.7672"
                                   id="path33369"
                                   sodipodi:nodetypes="cc" /><path
                                   style="fill:#e94719;fill-opacity:1;stroke:#af3513;stroke-width:10.8424;stroke-linecap:round;stroke-linejoin:miter;stroke-dasharray:none;stroke-opacity:1"
                                   d="m 124245.83,10225.004 c 0,0 383.23,-635.7262 442.82,-666.1536"
                                   id="path33371"
                                   sodipodi:nodetypes="cc" /><path
                                   style="fill:none;fill-opacity:1;stroke:#af3513;stroke-width:10.8424;stroke-linecap:round;stroke-linejoin:miter;stroke-dasharray:none;stroke-opacity:1"
                                   d="m 124169.64,10134.46 c 0,0 403.38,-669.2676 462.97,-699.695"
                                   id="path33373"
                                   sodipodi:nodetypes="cc" /><path
                                   style="fill:#e94719;fill-opacity:1;stroke:#af3513;stroke-width:10.8424;stroke-linecap:round;stroke-linejoin:miter;stroke-dasharray:none;stroke-opacity:1"
                                   d="m 124301.41,10222.315 c 0,0 390.15,-620.9666 449.74,-651.394"
                                   id="path33375"
                                   sodipodi:nodetypes="cc" /></g></g></g></g></g></g></g></g></g></g></g></g></g></g></g></g></g></g></g></g></g></g></g></g></g></g></g></g></g></g></g></g></g></g></g></g></g></g></g></g></g></g></g></g></g></g></g></g></g></svg>
