<?xml version="1.0" encoding="UTF-8" standalone="no"?>
<!-- Created with Inkscape (http://www.inkscape.org/) -->

<svg
   width="64"
   height="64"
   viewBox="0 0 16.933333 16.933334"
   version="1.1"
   id="svg5"
   inkscape:version="1.2 (dc2aedaf03, 2022-05-15)"
   sodipodi:docname="tamarin.svg"
   xml:space="preserve"
   xmlns:inkscape="http://www.inkscape.org/namespaces/inkscape"
   xmlns:sodipodi="http://sodipodi.sourceforge.net/DTD/sodipodi-0.dtd"
   xmlns="http://www.w3.org/2000/svg"
   xmlns:svg="http://www.w3.org/2000/svg"><sodipodi:namedview
     id="namedview7"
     pagecolor="#ffffff"
     bordercolor="#666666"
     borderopacity="1.0"
     inkscape:pageshadow="2"
     inkscape:pageopacity="0.0"
     inkscape:pagecheckerboard="0"
     inkscape:document-units="mm"
     showgrid="false"
     units="px"
     inkscape:zoom="16"
     inkscape:cx="26.5"
     inkscape:cy="34.5625"
     inkscape:window-width="1920"
     inkscape:window-height="1017"
     inkscape:window-x="1912"
     inkscape:window-y="-8"
     inkscape:window-maximized="1"
     inkscape:current-layer="g35859"
     inkscape:showpageshadow="0"
     inkscape:deskcolor="#d1d1d1" /><defs
     id="defs2" /><g
     inkscape:label="Calque 1"
     inkscape:groupmode="layer"
     id="layer1"><g
       id="g4128"
       transform="translate(-0.63104184,0.12620835)"><g
         id="g5578"
         transform="translate(0.08924235,0.08924306)"><g
           id="g7501"
           transform="translate(-0.06310417,0.94656242)"><g
             id="g9467"
             transform="translate(-0.08924275,-0.80318511)"><g
               id="g10302"
               transform="translate(0.31234979,-0.04462139)"><g
                 id="g11479"
                 transform="translate(-0.12620833,0.06310418)"><g
                   id="g11873"
                   transform="translate(-0.23575769,0.66462456)"><g
                     id="g12382"
                     transform="translate(-121.98459,-82.267525)"><g
                       id="g13305"
                       transform="matrix(0.13266609,0,0,0.13266609,114.63867,78.215696)"><g
                         id="g17429"
                         transform="translate(0.90513437,5.6640979)"><g
                           id="g18595"
                           transform="translate(-3.3634362,-8.7449387)"><g
                             id="g21002"
                             transform="translate(1.7082278,-2.8204445)"><g
                               id="g23814"
                               transform="translate(8.7253043,-1.1218249)"><g
                                 id="g24838"
                                 transform="translate(11.143454,-0.85716864)"><g
                                   id="g25315"
                                   transform="translate(-3.490122,2.4929446)"><g
                                   id="g27220"
                                   transform="translate(2.4678888,1.2339445)"><g
                                   id="g29753"
                                   transform="translate(1.4759287,-2.3737724)"><g
                                   id="g30615"
                                   transform="translate(0.92006037,1.3687834)"><g
                                   id="g31433"
                                   transform="translate(-2.4678886,-1.410222)"><g
                                   id="g31731"
                                   transform="translate(1.0576664,-0.70511063)"><g
                                   id="g33243"
                                   transform="matrix(1.0772948,0,0,1.0772948,-7.3729128,-3.1743014)"><g
                                   id="g35254"
                                   transform="translate(-2.2135012,-0.92031205)"><g
                                   id="g36749"
                                   transform="translate(-0.98178042,-2.7817105)"><g
                                   id="g37297"
                                   transform="translate(-6.7755742,-3.5033798)"><g
                                   id="g38955"
                                   transform="matrix(1.2171094,0,0,1.2171094,-23.105122,-18.212482)"><g
                                   id="g39618"
                                   transform="translate(-0.26888273,-0.26888316)"><g
                                   id="g40032"
                                   transform="translate(-1.90129,-3.042064)"><g
                                   id="g40543"
                                   transform="translate(0.3802582,-2.0914191)"><g
                                   id="g41372"
                                   transform="translate(1.9657652,-7.9304203)"><g
                                   id="g43278"
                                   transform="translate(1.5210324,-0.38025789)"><g
                                   id="g44210"
                                   transform="matrix(1.1578947,0,0,1.1578947,-18.904476,-21.776183)"><g
                                   id="g44833"
                                   transform="matrix(1.1196819,0,0,1.1196819,-12.538538,-14.547543)"><g
                                   id="g47597"
                                   transform="translate(3.1109352,-1.2443743)"><g
                                   id="g48754"
                                   transform="translate(-2.9035392,-6.6366609)"><g
                                   id="g234"
                                   transform="matrix(0.04089637,0,0,0.04089637,104.63967,119.67231)"><g
                                   id="g2138"
                                   transform="translate(-86.211222,-40.569988)"><g
                                   id="g2696"
                                   transform="translate(-124306.44,-9412.2373)"><g
                                   id="g3765"
                                   transform="translate(25.356243,-50.712489)"><g
                                   id="g4250"
                                   transform="translate(-70.997493,-101.42497)"><g
                                   id="g1279"
                                   transform="translate(40.569973,-76.068725)"><g
                                   id="g9841"
                                   transform="translate(-70.997479,30.427518)"><g
                                   id="g10661"
                                   transform="translate(-64.546403,-46.616886)"><g
                                   id="g22277"
                                   transform="translate(-53.248112,-70.99748)"><g
                                   id="g22858"
                                   transform="rotate(90,124804.94,9867.6838)"
                                   style="fill:#b0483e;fill-opacity:1"><g
                                   id="g24066"
                                   transform="translate(389.27024,27.849438)"><g
                                   id="g24937"
                                   transform="translate(76.068724,10.142496)"><g
                                   id="g35708"
                                   transform="translate(17.929576,-3.5859143)"><g
                                   id="g35859"
                                   transform="translate(512.78574,-60.960542)"><path
                                   style="fill:#cf996f;stroke-width:0.391602"
                                   d="m 124202.48,9356.6724 c -2.33,55.7627 -38.12,101.7337 -76.67,138.6796 -16.96,29.4301 23.94,45.9569 37.15,66.7934 48.94,57.7603 42.67,140.5232 15.53,206.5193 -15.57,53.0438 -36.26,108.0073 -81.73,143.0081 -18.89,18.7492 -46.45,27.0479 -66.26,42.5848 -19.89,39.5034 21.18,70.7004 33.25,104.6194 17.41,47.454 6.69,99.445 23.61,146.609 7.81,40.068 2.42,82.435 -14.58,119.506 52.03,51.716 110.45,117.333 98.12,196.527 -6.27,49.054 -38.24,94.592 -83.97,114.412 3.59,18.633 -5.21,29.532 -6,47.487 -9.94,17.734 -28.2,32.46 -46.26,18.558 -11.41,-15.104 3.53,-37.044 -5.31,-55.074 -59.57,-12.437 -125.53,-42.749 -142.44,-106.876 -6.96,-18.768 -9.74,-39.536 -14.54,-58.28 -17.2,12.073 -1.73,28.404 -7.64,44.279 -11.48,5.425 -3.01,19.18 -18.73,20.846 -1.28,17.755 -20.7,13.013 -21.17,-1.88 -4.18,-19.988 -22.38,10.536 -34.21,9.75 -59.05,27.856 -123.05,-15.526 -154.3,-64.768 -32.47,-51.311 -30.2,-117.713 -6.46,-172.008 -19,2.748 -21.1,-27.182 -40.28,-18.101 -55.62,-2.257 -104.7,-35.468 -142.9,-73.696 -9.51,5.897 -26.17,34.238 -29.49,12.154 3.12,-16.301 -17.61,-8.392 -14.39,-24.355 8.07,-10.358 -7.4,-12.815 -7.27,-24.405 -12.4,-19.358 12.72,-37.642 5.66,-58.689 1.88,-55.079 50.24,-93.244 91.61,-122.482 15.26,-41.7963 23.1,-90.884 55.5,-123.1377 12.71,-5.5963 -33.71,3.5611 -27.41,1.1067 -3.86,9.0201 -0.92,26.1638 -9.34,38.3164 -15.93,32.2415 -29.92,70.0452 -60.14,91.3056 -12.31,-7.581 3.33,-30.7283 6.27,-42.9675 14.58,-29.6221 27.16,-67.47 54.42,-85.409 -11.52,3.9283 -39.72,-2.7347 -31.31,16.53 -13.53,41.7134 -32.83,85.5768 -65.86,115.2295 -16.29,2.621 3.12,-43.8801 0.93,-34.951 14.33,-31.1405 26.54,-66.7235 52.86,-89.5686 13.38,-6.8299 -36.32,1.1466 -27.78,-0.2729 -0.55,12.0057 -3.51,28.5027 -11.93,40.7539 -17.01,28.5258 -32.26,63.828 -62.56,79.7056 -8.36,-9.676 5.93,-28.88 10.21,-40.7997 14.8,-28.0327 31.62,-60.9794 55.59,-79.0083 -19.56,0.6279 -36.65,0.098 -33.34,23.4306 -15.96,36.0519 -33.44,75.8609 -65.97,99.5704 -16.87,-2.005 16.47,-52.9204 5.12,-36.6975 14.94,-27.822 26.85,-62.4178 52.74,-81.0532 7.63,-2.1353 -32.7,6.9687 -29.89,1.5794 5.83,22.6843 -13.78,46.1136 -23.2,66.628 -10.72,14.1634 -19.71,37.8873 -39.34,39.7893 5.03,-38.5176 28.04,-74.0083 50.13,-105.5099 18.52,-6.809 -23.39,-5.1557 -15.45,8.1836 -16.16,27.1763 -41.5,52.1861 -70.44,65.6491 -23.9,4.0627 54.44,-66.2725 21.31,-36.6312 12.21,-13.4164 30.53,-32.9684 43.38,-37.7331 -19.97,2.0199 -42.09,9.6508 -62.33,3.1617 15.14,-5.9915 33.46,-2.9564 47.73,-5.828 -12.78,-8.5039 -36.88,-8.8352 -54.23,-10.1173 -30.72,2.6598 -6.16,-5.2913 9.51,-4.7775 24.17,-4.6557 45.83,16.6816 69.2,8.051 -29.15,-12.4172 -63.53,-29.4605 -82.62,-55.0223 32.36,-0.9353 63.36,21.4242 83.33,45.4481 -1.48,16.3914 35.46,9.2075 32.65,8.2269 -35.33,-16.1345 -63.83,-46.6776 -85.55,-78.3565 -11.32,-22.801 57.52,24.7717 33.27,10.3887 23.02,18.945 50.04,40.5579 60.49,67.8721 23.37,0.2148 41.52,1.6871 11.28,-12.5801 -26.8,-25.9981 -57.8,-53.8385 -69.8,-89.6606 28.79,0.5308 47.55,30.5226 66.52,49.2728 13.14,14.8292 26.2,33.2493 30.4,51.3251 6.8,-1.0162 44.53,3.3446 23.51,-6.8271 -31.93,-26.6938 -63.07,-59.4867 -78.51,-98.3857 13.01,-11.1893 30.91,11.9602 41.26,21.1321 21.53,23.1652 44.19,51.2307 53.28,79.9894 10.88,-2.2333 50.22,2.2527 22.06,-9.0866 0.44,-0.7836 92.77,22.0305 84.99,-40.5419 6.51,-30.9161 1.66,-105.6287 -8.45,-108.3168 18.55,5.3386 -24.22,-10.6429 -22.59,-10.9438 -28.83,21.9688 -71.08,25.6068 -107.1,32.5813 -14.34,0.3367 -38.96,8.2221 -47.7,-3.108 13.31,-17.4971 40.5,-21.2196 58.31,-27.9991 -27,2.6684 -56.32,9.8611 -82.35,-0.1792 1.3,-15.2367 58.24,-25.6403 41.58,-22.729 -22.04,0.1486 -50.54,7.3636 -68.58,-5.7017 9.44,-13.1178 27.93,-14.4378 42.5,-18.655 -16.69,-3.8544 -41.09,1.7465 -52.66,-12.5535 10.33,-15.2606 35.01,-11.2456 50.31,-14.1643 -12.63,-3.2554 -36.56,2.0269 -40.98,-12.1111 26.82,-10.4766 58.12,-10.1513 85.86,-5.5455 -14.29,-22.7462 -32.28,-44.7956 -40.82,-70.1216 19.94,23.588 32.72,55.8751 52.39,77.5543 -13.46,-32.6091 -25.89,-69.7641 -36,-104.5204 24.36,31.0837 34.03,73.5421 43.51,109.9556 13.32,15.374 27.34,21.1751 12.17,-2.0896 -13.01,-32.1305 -26.48,-64.7834 -36.92,-97.509 30,33.4611 40.65,81.2576 54.05,121.6436 12.38,12.3871 27.21,19.6865 10.9,-1.6375 -14.98,-35.1818 -30.63,-72.541 -29.79,-111.3908 24.19,37.0958 37.32,81.3199 45.23,124.5756 -7.15,9.0278 16.01,11.9482 20.6,15.913 -17.23,-40.7517 -31.49,-85.7736 -30.78,-130.307 9.91,2.5356 15.39,30.1571 20.81,42.6847 7.7,30.4195 21.13,62.1287 18.61,93.4641 -12.55,2.616 40.95,19.1783 25.48,16.2143 -15.79,-43.5289 -27.47,-95.4414 -23.79,-143.6344 20.28,19.5039 21.44,54.6731 28.63,81.6225 1.83,21.2019 11.62,47.724 1.67,66.19 12.7,11.0001 34.51,18.4608 17.7,-4.2731 -11.21,-40.9306 -23.79,-85.9685 -16.82,-127.5005 19.97,44.2898 34.01,94.0303 31.53,142.8375 -0.97,22.7569 7.71,-32.3041 7.23,-23.6538 6.37,-32.0174 -16.67,-60.6015 -13.92,-92.1587 13.77,4.7585 20.1,46.288 21.89,12.5849 8.63,-49.023 26.59,-97.4126 52.16,-139.0184 -2.8,-61.6833 22.81,-134.2943 87.52,-153.3531 35.14,-14.3854 75.19,-0.9392 106.29,16.1045 3.64,-17.2279 26.96,-27.6444 19.02,-45.8304 -8.71,-63.0583 -15.88,-141.0724 35.44,-188.6036 14.19,-6.2998 20.89,-19.0047 30.33,-28.887 4.04,17.9481 19.74,15.4605 36.5,14.6379 49.82,1.8679 107.25,1.4917 146.71,36.4662 50.42,62.7356 98.02,138.3754 93.05,222.0245 z m -376.64,912.9846 c -4.74,-12.425 -10.22,-49.267 -10.79,-46.626 1.68,13.277 -19.6,32.572 -6.07,40.614 5.19,0.738 25,22.44 16.86,6.012 z m -246.74,-528.2431 c -10.28,28.5361 -8.94,29.4818 0,0 z m -5.3,33.857 c -9.44,5.7239 10.26,11.198 0,0 z m -8.96,106.5641 c -12.02,3.7226 4.45,26.1212 -6.99,36.9012 -8.32,24.7942 -21.1,47.7988 -33.69,70.6257 22.43,-4.2229 28.56,-22.8118 33.3,-42.5712 9.34,-20.7045 13.19,-42.6455 11.01,-65.1986 l -3.59,0.2432 z m 2.97,-9.8624 c 1.57,1.4108 -32.2,6.555 1.15,2.8855 -0.45,-0.9085 1.06,-3.3814 -1.15,-2.8855 z m -37.39,-160.0446 c -4.31,-1.166 3.94,2.7384 0,0 z m -5.47,164.2656 c 0.46,1.8064 -10.56,6.6106 -13.03,4.9868 2.35,-1.2409 25.68,-1.1012 13.03,-4.9868 z m -13.83,-173.0976 c -6.46,-9.1147 -44.78,10.7567 -25.61,5.6581 7.89,-4.514 45.89,2.3781 30.31,-4.0805 l -3.58,-1.1977 -1.12,-0.3738 z m -13.77,-9.7757 c -4.86,-1.3092 4.36,3.6008 0,0 z m -11.88,-7.4841 c -14.38,-11.8873 -27.99,-4.2366 -42.49,1.9371 14.43,-2.3308 38.1,-0.9226 46.6,0.353 l -3.3,-1.8384 z m -9.08,23.9898 c -2.1,0.6879 3.35,-0.018 0,0 z m -14.32,-39.7876 c -11.73,-10.9594 -27.62,-15.0913 -40.82,-5.1758 15.02,-0.9977 32.26,0.1199 44.25,7.715 l -3.03,-2.252 -0.39,-0.2881 z m -31.5,-23.6248 c -4.17,-15.5938 -35.43,-1.1698 -14.27,-1.0404 8.56,-1.117 31.41,16.5349 14.27,1.0404 z m -18.75,-16.4255 c -31.78,-9.7001 13.52,7.2147 0,0 z"
                                   id="path35869"
                                   sodipodi:nodetypes="cccccccccccccccccccccccccccccccccccccccccccccccccccccccccccccccccccccccccccccccccccccccccccccccccccccccccccccccccccccccccccccccccccccccccccccccccccccccccccccccccccccccccccc" /><path
                                   style="fill:#b98a63;stroke-width:0.391602"
                                   d="m 124202.47,9352.7564 c -1.02,56.5116 -36.29,104.295 -75.89,141.2795 -19.19,27.9781 20.65,46.8046 34.52,65.8781 47.21,54.3602 46.01,133.1072 21.35,197.1308 -17.42,51.4813 -32.02,107.4942 -74.84,144.7476 -21.4,23.358 -52.97,35.2788 -77.3,52.5058 -18.31,36.0338 15.44,66.9278 30.24,96.7598 17.01,40.225 13.21,85.219 19.14,127.068 17.15,47.45 13.66,101.062 -6.88,146.89 51.18,51.503 109.33,115.965 98.19,194.377 -3.04,24.07 -11.53,47.911 -25.71,67.544 5.27,-91.007 -36.61,-184.349 -114.38,-233.983 -20.12,-15.369 -59.33,-38.43 -75.72,-6.562 -9.29,27.782 1.93,58.922 -4.3,88.019 -1.55,40.395 -28.37,79.382 -69.43,87.074 -3.17,-19.431 -15.11,-40.579 0.97,-56.978 33.57,-61.202 0.12,-142.041 -58.86,-174.35 -24.59,-17.848 -54.04,-24.016 -83.85,-18.421 -34.72,2.103 -65.36,19.67 -92.07,40.246 -6.08,-4.398 11.66,-20.877 -13.66,-9.404 -18.38,4.397 -33.59,-7.489 -52.22,-3.413 -8.48,-2.901 29.17,-12.606 37.78,-20.036 58.2,-28.347 98.56,-91.737 89.85,-157.274 1.36,-21.56 -22.33,-52.738 6.48,-64.372 38.41,-10.705 76.59,11.56 115.75,5.999 50.81,1.072 97.83,-36.603 105.4,-87.2911 6,-33.5179 9.83,-70.2303 -4.44,-101.7593 -0.44,-23.9285 31.61,-8.9747 44.88,-5.7795 64.7,14.0181 117.35,-43.733 140.46,-97.8702 33.43,-72.9135 28.26,-172.4031 -39.63,-224.2105 -17.09,-12.8963 -54.57,-16.9929 -49.73,-45.641 19.74,-31.9977 62.87,-37.057 86.71,-65.8964 61.32,-54.0948 66.26,-145.6579 40.69,-218.5803 -0.46,-7.1864 -19.52,-47.1882 -8.87,-30.3632 32.27,49.2314 58.22,106.8022 55.37,166.6659 z m -376.92,915.2886 c -4.15,-16.236 -9.26,-32.585 -9.56,-49.456 -0.91,14.17 -12.88,30.857 -11.05,42.691 5.01,-0.537 31.84,28.416 20.61,6.765 z m -13.7,-153.312 c -24.35,-16.389 1.02,30.389 -0.61,12.025 -1.85,-3.155 5.51,-10.959 0.61,-12.025 z m 273.02,545.845 c -12.55,6.113 -5.99,23.326 -20.32,25.584 -3.84,11.224 -11.72,15.419 -22.99,6.797 -10.32,8.046 -13.9,4.801 -10.01,-12.867 2.6,-15.152 -0.1,-30.91 -6.06,-44.838 17.78,-12.038 40.35,-12.765 61.08,-11.473 -1.34,11.085 2.46,28.895 -1.7,36.797 z m -181.42,-1158.0337 c -7.94,86.185 -38.55,168.8931 -73.74,247.2387 -39.08,61.4707 -90.74,116.9609 -150.33,158.2593 14.34,-38.7555 38.9,-80.9657 27.48,-123.1527 -13.2,-11.9531 -32.66,-35.705 -13.94,-52.2714 16.43,-7.6398 33.12,-14.2125 41.97,-31.8939 19.48,-26.2696 16.26,-61.5959 1.6,-89.0875 1.6,-24.0366 34.82,-13.2692 50.12,-22.5384 70.35,-23.615 97.36,-105.6297 90.48,-173.6856 0.65,-27.5533 -11.26,-54.2056 -35.71,-68.173 5.32,-6.7599 18.69,-43.1493 22.64,-25.0205 8.75,51.333 27.45,100.3415 39.09,150.7036 1.19,9.7587 0.24,19.9344 0.34,29.6214 z m -77.43,155.1071 c -9.82,7.1102 -14.06,42.8454 -6.03,18.1769 1.76,-5.697 4.54,-13.4007 6.03,-18.1769 z m 36.87,857.1616 c -6.6,4.242 -21.91,2.817 -16.02,18.446 -5.51,8.29 -13.02,17.513 -9.67,24.259 -14.58,1.261 -10.69,-21.688 -22.22,-30.675 -16.89,-4.883 10.59,-23.889 16.57,-33.149 14.47,-16.709 30.77,-24.981 31.4,4.536 0.61,6.203 7.48,12.193 -0.1,16.583 z m -281.42,-775.0714 c -16.61,-3.509 -15.64,132.7751 -13.43,132.0737 -0.98,0.4227 -43.42,4.2709 -5.83,3.4515 18.43,1.9229 -12.61,7.755 0,21.0993 -4.13,2.2626 -15.37,-5.8852 -13.01,-11.6064 12.24,-5.278 -34,4.3286 -28.6,1.6107 -5.18,14.085 -19.51,12.3599 -11.93,4.1463 9.61,-4.9261 -30.28,14.3159 -29.98,5.7724 -5.99,6.72 -13.75,0.2747 -11.65,-4.3469 -9.37,1.5651 -34.79,-3.0223 -26.34,12.27 -0.35,-0.8533 -12.77,-5.3798 -12.77,-5.3798 17,-7.2304 -40.63,-0.1517 -27.36,1.2978 0,6.2051 -16.87,-1.2556 -16.87,-1.2556 -23.68,-4.6093 -22.56,3.6883 -23.82,22.7527 l -7.08,-20.2953 c 5.2,-5.4269 -24.24,-2.0383 -20.76,7.5359 0,0 -7.33,-2.7992 -7.9,-4.1757 11.14,-7.0515 -31.11,1.3935 -26.23,2.161 -16.57,3.5449 -47.02,-1.4521 -14.79,-4.8628 8.85,-4.965 24.85,4.6084 29.84,-3.9274 -22.53,-7.3627 -48.1,-9.1111 -71.03,-8.9789 28.37,-11.1372 57.26,1.501 84.64,6.3848 -3.82,-3.8033 7.69,-15.8649 11.15,-11.726 -0.57,16.4314 34.78,9.0959 33.03,7.8706 0.6,-1.6627 5.67,-7.9985 6.95,0.1978 -5.53,-11.526 34.93,-14.424 38.3,-2.091 7.3,-0.1822 45.67,3.3685 24.69,-6.6937 0.68,0.1979 123.75,-6.5664 123.75,-6.5664 l 10.67,-129.1042 c 24.22,12.7869 -54.64,-43.8663 -43.2,-30.5287 0,0 -122,-86.9447 -119.81,-89.973 -14.22,-22.7389 -32.14,-44.5586 -40.86,-69.8809 19.75,23.8798 52.23,77.5191 52.23,77.5191 0,0 4.06,1.566 5.12,0.4219 0.25,5.3164 24.7,27.4882 21.25,16.6128 0,0 1.87,-6.6813 9.98,10.272 -1.41,-1.3542 26.28,12.089 26.28,12.089 -6.36,8.8561 17.25,10.7835 21.26,15.3268 l 8.82,5.2358 23.67,12.7538 c -1.04,-0.516 7.42,7.8607 7.42,7.8607 49.23,33.116 33.29,9.2464 33.29,8.6314 -8.12,10.6225 2.77,7.4443 0.86,16.0449 z m -51.06,-28.0329 c -5.41,-1.7819 5.11,3.7485 0,0 z m -5.26,164.4242 c 0,0 -11.59,5.6844 -11.24,4.9351 2.84,-1.3322 23.87,-0.6162 11.24,-4.9351 z m -10.7,-172.0438 c 4.7,1.7224 -0.1,1.8975 4.5,1.7962 l -3.34,-1.3347 -1.16,-0.4618 z m -17.35,-11.1329 c -6.89,-2.8478 5.87,5.4582 0,0 z m -3.09,184.8672 c -2.22,0.6561 3.5,0.031 0,0 z m -5.7,-190.5447 c 0.31,2.4373 -38.96,-1.0472 4.21,2.5274 l -3.09,-1.8526 z m -79.35,-58.2366 c -17.89,-1.8211 19.84,6.8097 0,0 z m -34.78,259.3546 c -2.22,0.657 3.5,0.029 0,0 z m 194.47,80.2476 c -39.1,14.5501 3.64,-89.465 -0.16,-35.3912 -0.37,11.7162 0.82,24.0176 0.16,35.3912 z m -109.32,255.0337 c -17.11,-3.624 -24.34,17.824 -33.97,22.1 -3.52,-6.265 -0.1,-28.488 -12.92,-29.423 3.7,-13.428 -17.33,-31.987 -11.89,-29.3 -16.04,-11.928 -2.31,-28.308 3.89,-43.026 6.6,-20.889 20.1,12.607 25.57,20.816 9.4,19.655 21.51,38.684 29.32,58.833 z"
                                   id="path35867"
                                   sodipodi:nodetypes="ccccccccccccccccccccccccccccccccccccccccccccccccccccccccccccccccccccccccccccccccccccccccccccccccccccccccccccccccccccccccccccccccccccccccccccccccccccc" /><path
                                   style="fill:#ac7a55;stroke-width:0.391602"
                                   d="m 124202.48,9352.169 c -0.94,56.4715 -35.8,104.5627 -75.66,141.3684 -18.83,25.7137 15.43,45.1906 30.39,61.789 45.16,49.238 51.72,122.2007 30.91,183.671 -19.79,55.6617 -31.77,117.9749 -77.44,159.6527 -21.94,24.3136 -53.53,38.0469 -79.81,54.6708 -18.17,33.3708 10.6,65.7221 27.45,92.5711 19.49,41.827 15.33,89.476 21.73,133.537 17.06,47.156 12.8,100.209 -7.17,145.736 48.04,48.902 102.57,107.502 99.19,180.97 -0.65,18.671 -4.85,37.185 -12.06,54.409 4.71,-99.477 -57.86,-188.598 -134.52,-246.108 18.84,-51.146 20.55,-106.982 18.51,-160.853 -0.2,-15.143 -12.25,-36.518 -29.29,-23.808 -28.4,24.935 -64.6,36.746 -100.93,44.107 -31.8,9.031 -42.34,46.807 -28.12,74.47 27.03,58.459 55,125.008 38.78,190.319 -8.1,25.01 -27.69,47.184 -47.59,61.873 -9.43,-17.513 3.31,-30.686 10.66,-45.728 20.7,-44.614 16.12,-101.119 -16.74,-137.934 -12.11,-15.738 -27.84,-28.326 -43.01,-40.726 -8.31,-26.853 -15.02,-54.716 -8.55,-82.628 0.1,-18.679 0.21,-44.379 -10.19,-58.035 -25.9,7.407 -20.64,40.683 -36.09,58.231 -29.85,47.582 -75.89,85.917 -127.97,106.431 -10.83,2.748 -33.95,6.5 -36.22,-1.81 19.85,-1.963 36.37,-20.594 53.91,-30.941 48.27,-34.449 93.38,-92.4 75.88,-155.144 2.6,-9.722 -24,-39.164 -2.53,-30.074 63.02,15.314 139.52,27.593 194.01,-16.683 46.05,-41.558 46.83,-109.6587 41.62,-166.7121 37.03,25.3198 87.55,11.9359 115.34,-20.858 41.12,-44.883 69.7,-101.2681 86.82,-159.3736 17.56,-61.6211 2.74,-135.2629 -51.11,-174.3733 -17.6,-14.7165 -39.27,-24.9278 -59.33,-34.4992 66.85,-32.866 123.92,-97.1813 124.72,-174.9086 1.66,-40.5681 -8.38,-80.7294 -23,-118.3085 23.27,40.9851 39.39,88.4178 37.41,135.6993 z m -286.91,1051.937 c -0.1,7.003 0.57,-2.282 0,0 z m 0,-10.965 c -0.1,7 0.57,-2.276 0,0 z m -0.35,18.027 c -0.33,2.281 0.65,0.269 0,0 z m 0,-25.454 c -0.33,2.281 0.65,0.269 0,0 z m -104.02,-271.244 c -20.02,-7.73 -4.79,9.962 -0.82,18.943 -1.56,-5.172 6.65,-17.603 0.82,-18.943 z m 92.26,-613.6879 c -7.35,85.7843 -37.95,167.906 -72.32,246.1002 -29.93,50.437 -70.93,94.0267 -114.62,132.8582 14.07,-35.8105 34.44,-80.7266 11.27,-116.8801 -7.94,-6.8855 -17.78,-15.874 -22.5,-17.2847 37.4,-13.4301 77.58,-48.5104 64.45,-92.4603 2.41,-11.167 -23.96,-32.9859 -3.09,-31.7769 36.07,-4.5327 70.4,-24.5168 86.57,-57.7042 28.97,-32.9542 38.43,-72.1965 36.98,-115.4463 -0.19,-6.2274 -0.62,-19.7825 -1.77,-28.0451 7.61,25.562 18.92,52.2653 15.03,80.6392 z m -37.99,77.2435 c -0.19,3.4038 0.67,-0.8323 0,0 z m -0.37,5.6864 c -0.31,2.285 0.67,0.2592 0,0 z m 17.03,-184.1591 c -6.86,-17.6509 -19.68,-37.3102 -35.72,-48.9703 16.5,6.5854 33.21,16.8392 33.06,37.0802 -0.1,1.1869 5.17,17.6037 2.66,11.8901 z m -290.19,244.7514 c -2.76,11.3173 -2.01,45.8342 -8.69,16.4686 -3.63,-15.3524 -13.88,-36.5702 -8.36,-49.6837 8.19,7.8074 18.37,21.7049 17.05,33.2151 z m -10.77,74.7961 c 1.09,20.3746 -15.28,0.2546 -16.29,-10.2814 -10.52,-40.3082 -22.57,-83.7257 -16.6,-125.0172 20.45,40.9945 30.94,89.4443 32.89,135.2986 z m -27.16,8.3566 c -3.69,-1.4615 0,0 0,0 z m 7.47,244.024 c -25.03,17.5477 -7.15,-11.6094 -4.11,-24.4331 6.85,-23.92 13.87,-40.4405 11.21,-5.0022 -2.55,9.2919 6.75,28.0762 -7.1,29.4353 z m 0.15,-67.5443 c -7.81,30.9651 -22.2,62.0258 -40.71,87.2391 -8.64,1.3516 -34.97,29.0192 -24.69,6.4743 14.25,-38.316 21.98,-83.4764 52.4,-112.4953 7.1,2.6933 14.51,-1.622 13.58,11.7331 -0.23,2.3461 0.43,4.7793 -0.58,7.0488 z m -9.96,-197.3676 c -3.67,15.3338 -19.09,-7.5033 -17.8,-16.2315 -9.41,-39.9589 -21.36,-82.4162 -15.69,-123.1423 22.81,29.8488 24.68,70.8834 31.64,106.8708 1.31,10.7806 2.49,21.6537 1.85,32.503 z m -21.76,11.0839 c -16.64,17.2774 -46.01,18.2559 -68.64,25.3269 -26.86,3.8073 -58,14.7396 -83.42,4.9817 10.84,-19.8391 43.98,-22.9864 59.64,-30.0334 -27.1,2.4889 -59.09,11.3737 -83.61,-0.9306 9.84,-15.0431 30.45,-16.9083 46.41,-22.1828 -23.8,0.7245 -52.86,7.5453 -73.43,-4.7186 6.25,-14.0194 43.81,-23.2679 40.34,-19.2916 -15.77,-3.8398 -41.13,1.7428 -50.13,-13.2251 11.69,-13.9094 34.85,-10.304 50.25,-13.2821 -12.89,-3.7358 -35.12,2.4306 -41.63,-11.7318 26.79,-11.4025 59.57,-9.7363 86.74,-0.092 0.26,13.0768 -7.43,12.6283 13.34,15.1286 15.43,2.7635 6.23,17.9165 -4.92,17.5716 13.01,0.59 35.25,-3.8471 41.33,9.4789 -3.31,14.5354 -33.43,13.3102 -3.15,11.9507 11.62,1.1718 39.92,-4.32 36.93,14.0839 -14.19,9.627 -28.44,10.5272 -2.08,7.2268 10.04,0.5337 36.76,-6.1093 36.03,9.7385 z m -10.75,184.5215 c -13.15,40.0915 -32.54,79.9793 -61.99,110.6175 -17.75,11.124 -7.67,-18.2646 -4.62,-26.2381 14.42,-33.4313 27.65,-70.5299 54.5,-95.8944 5.58,4.5381 17.51,-2.9412 12.11,11.515 z m -2.41,-209.7031 c -11.06,3.8436 -17.24,-21.3661 -21.03,-32.3273 -8.64,-33.5964 -23.23,-68.6861 -18.28,-103.607 22.79,40.0695 33.15,87.0112 39.51,132.4099 l 0.15,1.7622 z m -30.84,-18.4784 c -17.34,-3.8953 -19.81,-31.3188 -27.93,-46.3318 -7.99,-25.1569 -18.48,-52.6406 -16.18,-78.4962 23.45,37.2675 37.43,81.0872 44.44,124.3142 l -0.32,0.5142 z m -5.9,232.8807 c -13.12,40.0749 -32.57,79.8769 -61.92,110.5703 -20.15,10.695 -5.39,-24.1753 -2.11,-33.057 14.29,-31.1 26.52,-66.9379 52.99,-89.4855 4.56,7.6012 16.82,-5.379 11.04,11.9722 z m -22.99,-251.1005 c -17.13,-10.0105 -18.61,-37.2943 -28.26,-54.5451 -7.64,-20.2194 -16.15,-40.8273 -22.52,-61.0996 27.69,32.0958 40.44,75.1156 51.03,115.4018 z m -2.78,226.1359 c -12.71,10.9359 -27.72,-12.2699 -38.25,-21.0936 -20.42,-23.5333 -45.88,-47.4438 -53.69,-78.0797 44.76,9.7418 76.99,63.8273 91.94,99.1733 z m -14.4,27.51 c -15.3,38.2721 -36.29,77.5468 -68.56,103.8879 -16.78,6.198 3.37,-35.8289 0.68,-29.0238 15.35,-30.1385 30.35,-62.9052 56.09,-85.4374 5.32,5.3148 16.97,-4.0295 11.79,10.5733 z m -10.98,-274.8103 c -12.68,-3.8422 -12.85,-25.9693 -19.47,-37.2633 -7.58,-22.3153 -15.54,-44.9421 -21.6,-67.483 22.22,30.2407 32.86,68.3232 41.36,104.456 z m -15.03,250.6512 c -16.62,8.5396 -31.09,-15.3153 -43.61,-24.987 -18.3,-21.9232 -42.23,-43.0745 -50.01,-71.0403 26.84,0.056 44.47,27.492 62.31,44.5153 11.37,15.0894 31.19,33.3662 31.31,51.512 z m -13.14,27.0962 c -14.37,38.1362 -33.76,77.713 -65.12,104.5098 -17.03,5.539 3.21,-38.6964 0.87,-31.399 14.52,-29.7718 27.98,-62.724 53.01,-85.0485 6.21,7.64 16.23,-5.8885 11.24,11.9377 z m -25.87,-24.0113 c -15.76,6.2083 -31.65,-15.0076 -44.82,-24.1523 -16.98,-16.9356 -38.75,-34.019 -46.63,-56.6994 34.05,6.0186 58.14,36.5963 81.47,60.1767 3.25,5.1423 14.92,16.0982 9.98,20.675 z m -12.13,23.864 c -11.19,35.0071 -28.32,71.8626 -57.44,95.1171 -17.05,3.423 4.6,-42.234 2.74,-33.8799 12.99,-24.5668 23.11,-54.6292 44.53,-72.2506 3.56,8.1901 13.83,-6.4462 10.17,11.0134 z m -24.87,-23.9363 c -11.7,7.097 -28.1,-10.288 -40.11,-15.0548 -14.71,-10.0811 -35.24,-20.5469 -42.83,-35.1993 31.79,-1.211 61.04,21.0579 81.89,43.4011 0.28,1.3863 4.51,7.0183 1.05,6.853 z m -5.06,23.8878 c -16.64,26.4243 -40.92,49.8218 -68.71,64.3114 -16.03,-0.1292 18.14,-37.1115 14.53,-30.1651 14.34,-14.1507 27.58,-33.9106 45.74,-41.5826 -0.95,7.8975 11.06,-7e-4 8.44,7.4363 z"
                                   id="path35865"
                                   sodipodi:nodetypes="cccccccccccccccccccccccccccccccccccccccccccccccccccccccccccccccccccccccccccccccccccccccccccccscccccccccccccccccssccccccccccccccccccccccccccccccccccccccccccccccccccccccccccccccccccccccc" /><path
                                   style="fill:#70a646;stroke-width:0.391602"
                                   d="m 123591.95,9644.3043 c -1.76,9.7909 -2.56,21.5253 -3.92,30.2511 -6.63,-19.8278 -14.59,-40.2654 -14.98,-61.374 2.2,-6.393 8.94,5.6132 10.95,8.7337 2.79,6.1507 8.04,12.4213 8.33,19.0636 0,0.9665 -0.63,2.6181 -0.38,3.3256 z m -10.77,74.7961 c -0.92,6.1542 -0.88,13.1321 -6.2,7.0488 -6.44,-2.1144 -7.13,-11.7165 -10.09,-17.3302 -10.83,-36.8758 -18.27,-75.1403 -18.8,-113.6608 0.49,-4.3522 1.25,-17.4681 5,-6.6588 15.4,33.2711 23.09,69.652 28.67,105.7309 0.93,8.2383 1.63,16.6812 1.42,24.8701 z m -108.44,116.2832 c 9.34,13.4737 21.27,26.3772 25.4,42.5117 -3.12,-2.2331 -9.03,5.8469 -13.66,2.1676 -19.29,-11.8503 -32.68,-31.0737 -46.76,-48.4319 -13.98,-19.1968 -28.9,-38.531 -37.03,-61.0347 -1.06,-7.6642 9.6,-0.9927 12.56,1.4394 23.71,16.6439 43.27,39.3463 59.49,63.3479 z m 88.75,136.0974 c -3.75,-0.3212 -15.36,9.8836 -13.85,3.8595 6.75,-19.6153 13.51,-39.2286 20.27,-58.8408 1.27,17.2351 0.41,34.6877 0.87,52.0052 -2.43,0.992 -4.86,1.9841 -7.29,2.9761 z m 0.15,-67.5443 c -6.7,30.7423 -22.85,58.3482 -37.8,85.6986 -10.59,5.0059 -20.81,12.6737 -30.46,18.0347 11.01,-36.3452 22.17,-73.5698 41.07,-106.8676 4.79,-6.6306 9.52,-15.5269 18.37,-16.8168 1.91,8.8192 7.54,-2.5595 8.66,6.0258 1.21,4.4129 0.99,9.4463 0.16,13.9253 z m -9.96,-197.3676 c 0.86,9.1774 -7.17,4.0865 -11.24,1.3053 -9.71,-21.4063 -13.29,-45.1381 -17.93,-68.0789 -3.54,-23.8579 -8.64,-48.2304 -4.88,-72.2491 7.6,3.69 10.46,14.7034 13.68,22.5144 11.32,34.9437 18.55,71.5113 20.48,108.1668 0,2.7803 0.44,5.5895 -0.11,8.3415 z m -21.76,11.0839 c -3.58,8.3162 -14.98,9.5328 -22.63,13.0612 -35.47,11.0555 -72.25,19.4004 -109.45,20.9844 -6.47,-0.1634 -15.42,0.8439 -19.98,-3.737 2.92,-10.2028 15.54,-13.5031 24.19,-17.9487 11.87,-4.9979 24.26,-8.5273 36.63,-12.0467 -26.12,2.9697 -53.12,8.2119 -79.2,2.5055 -8.51,-0.3223 -4.76,-7.8429 0.16,-10.5744 12.31,-7.8508 26.72,-11.3131 40.66,-15.0825 -22.81,1.6617 -46.5,4.9181 -68.83,-1.3657 -9.02,-1.2741 -1.61,-9.4129 3.14,-11.0815 10.88,-5.9883 23.2,-8.3499 35.14,-11.2992 -16.78,-2.2203 -34.52,-1.5119 -50.26,-8.3909 -7.01,-6.0051 3.85,-12.1543 9.49,-13.0478 12.27,-3.7464 26.68,-3.9276 38.35,-5.3323 -13.31,-2.3089 -28.17,-0.2193 -40.09,-7.4653 -5.14,-6.2381 6.55,-7.8624 10.77,-9.1438 23.37,-4.1014 48.07,-3.7841 70.9,3.0008 7.94,1.4268 6.6,9.9237 0.15,12.5396 -4.41,2.7972 10.1,1.5098 13.58,3.3807 6.05,0.8988 15.53,5.8897 10.61,13.0726 -2.93,3.127 -19.2,6.0202 -7.19,5.1576 11.78,0.5908 25.98,-1.1429 35.57,6.6218 2.97,6.3066 -2.63,11.989 -8.82,13.0696 -7.58,2.1519 -13.52,4.0616 -2.36,2.6754 14.79,-0.4522 30.99,-2.7865 44.59,4.2924 4.65,5.549 -0.58,13.0099 -6.96,14.2441 -2.99,1.6131 -18.78,5.5649 -7.73,3.8425 15.68,-1.6447 32.75,-5.4489 47.73,0.9786 2.39,1.6552 2.78,4.4858 1.84,7.089 z m -10.75,184.5215 c -9.29,31.8725 -25.51,61.4619 -43.69,89.0947 -7.54,9.4198 -14.36,23.2238 -27.47,24.7618 -3.43,-12.363 3.54,-25.0455 7.37,-36.704 11.75,-28.719 25.24,-57.228 44.1,-82.004 2.66,-3.9167 10.11,-10.6776 12.39,-3.5677 8.43,-4.117 9.38,0.7699 7.3,8.4192 z m -2.41,-209.7031 c -1.47,4.9229 -9.46,-3.4117 -11.39,-6.7105 -13.82,-33.0649 -22.54,-68.2271 -28.48,-103.5255 -0.21,-8.5101 -3.07,-17.5679 0.56,-25.6983 12.45,17.7991 17.64,39.5391 24.22,59.9963 6.56,24.7047 14.45,49.6862 15.21,75.3458 z m -30.84,-18.4784 c -4.87,0.1056 -10.06,-2.7151 -11.75,-8.7117 -15.49,-31.0152 -26.72,-64.4665 -32.25,-98.7208 -0.56,-5.5488 -1.48,-12.8314 -0.11,-17.3955 17.14,24.1292 25.54,53.1339 34.76,80.9396 3.78,14.2748 9.82,29.1331 9.35,43.8884 z m -5.9,232.8807 c -9.38,32.3226 -25.98,62.2613 -44.44,90.2532 -7.37,8.9761 -14.04,22.2541 -26.73,23.6031 -3.46,-12.742 3.82,-25.6957 7.66,-37.729 12.19,-29.039 25.61,-58.2951 45.5,-82.9234 4.43,-7.4473 8.58,-3.2235 13.13,-2.0202 7.14,-5.2045 6.05,4.8726 4.88,8.8163 z m -22.99,-251.1005 c -5.54,-1.5457 -9.07,-6.3072 -11.1,-12.2174 -14.38,-33.9426 -27.67,-68.682 -39.83,-103.2818 15.9,14.7278 23.68,36.736 32.36,56.4386 7.35,19.1904 15.25,38.557 18.82,58.8177 z m -2.78,226.1359 c -3.43,1.9287 -8.97,6.7625 -13.45,1.0563 -22.71,-16.7488 -40.88,-38.9968 -57.92,-61.3148 -8.06,-11.3755 -17.48,-23.053 -20.73,-36.7267 1.5,-7.1911 12.13,-3.1974 16.59,-0.3722 27.34,19.2525 47.71,46.7651 65.85,74.4773 3.8,7.1296 9.64,14.7119 9.66,22.8801 z m -14.4,27.51 c -10.16,29.6126 -27.38,56.4469 -45.94,81.483 -7.95,9.0885 -15.43,21.6569 -28.07,23.9759 -5.4,-1.977 -0.89,-10.644 -0.19,-15.1271 13.13,-33.6316 31.41,-65.4723 53.89,-93.7112 2.75,-2.9591 9.84,-11.0455 12.34,-5.0616 3.3,2.0056 10.73,-3.7377 8.95,4.6972 -0.1,1.2597 -0.65,2.5979 -0.98,3.7438 z m -10.98,-274.8103 c -6.62,0.9402 -7.7,-7.6218 -10.14,-12.6837 -12.06,-29.9183 -21.72,-60.9707 -31.05,-91.6945 8.85,7.6642 13.71,21.567 18.84,32.7742 9.12,23.1653 18.53,46.6924 22.64,71.3137 z m -15.03,250.6512 c -5.34,2.2199 -9.82,4.7612 -15.35,-0.4259 -25.94,-18.3176 -46.03,-43.686 -65.07,-68.8121 -4.91,-8.5109 -12.81,-16.6165 -13.2,-26.7893 14.92,-2.7071 26.45,10.4791 37.2,18.8629 21.72,20.2654 42.3,42.8059 55.93,69.4084 0.43,1.8852 2.62,7.3992 0.49,7.756 z m -13.14,27.0962 c -10.01,30.9474 -27.14,59.2783 -46.07,85.5676 -7.1,7.8182 -13.71,19.5372 -25.18,20.4632 -4.2,-4.845 0.28,-13.527 1.76,-19.446 12.12,-32.1636 28.59,-62.9037 49.11,-90.5009 3.64,-4.6616 9.89,-11.0574 13.91,-4.895 6.5,-4.0459 9.26,1.3987 6.84,7.5965 -3.18,-3.5451 0.25,1.4432 -0.37,1.2146 z m -25.87,-24.0113 c -5.06,5.0475 -12.06,0.6088 -17.81,-3.0227 -26.61,-18.4305 -50.61,-41.2122 -69.41,-67.5952 -2.67,-4.0597 -8.18,-12.7584 1.08,-10.1978 20.63,6.0542 36.7,21.8025 52.6,35.6029 12.58,13.2093 27.9,25.2833 34.93,42.5396 -0.4,1.0185 1.08,3.9906 -1.39,2.6732 z m -12.13,23.864 c -8.38,30.6817 -24.82,58.8958 -44.25,83.9038 -5.22,5.3523 -11.93,14.1063 -20.04,11.8913 -0.84,-13.5439 6.6,-26.465 11.58,-38.8941 11.16,-23.018 22.31,-46.5907 38.84,-66.3099 4.16,-3.0994 7.76,3.5662 12.68,0.3446 2.6,1.8912 1.64,6.3471 1.19,9.0643 z m -24.87,-23.9363 c -3.96,5.7134 -11.53,-0.1999 -17.04,-2.1738 -22.75,-11.9811 -45.63,-25.2363 -63.81,-43.6271 -7.63,-6.7973 6.75,-5.3711 11.02,-4.3619 25.5,6.7148 48.89,21.6975 66.85,40.8705 1.48,2.037 6.42,8.2568 2.98,9.2923 z m -5.06,23.8878 c -9.15,17.6011 -24.93,30.758 -39.1,44.2994 -10.43,7.9135 -20.5,18.9716 -34.08,20.4174 -4.42,-2.6484 3.85,-10.3145 5.86,-14.1528 15.32,-20.3828 33.07,-39.1286 52.59,-55.4915 6.74,-7.4908 6.42,4.4445 14.05,1.4083 1.5,0.6442 1.23,2.3724 0.68,3.5192 z"
                                   id="path35863"
                                   sodipodi:nodetypes="ccccccccccccccccccccccccccccccccccccccccccccccccccccccccccccccccccccccccccccccccccccccccccccccccccccccccccccccccccccccccccccccccccccccccccccccccccccccccccccccccccccc" /></g></g></g></g></g></g></g></g></g></g></g></g></g></g></g></g></g></g></g></g></g></g></g></g></g></g></g></g></g></g></g></g></g></g></g></g></g></g></g></g></g></g></g></g></g></g></g></g></g></svg>
