<?xml version="1.0" encoding="UTF-8" standalone="no"?>
<!-- Created with Inkscape (http://www.inkscape.org/) -->

<svg
   width="64"
   height="64"
   viewBox="0 0 16.933333 16.933334"
   version="1.1"
   id="svg5"
   inkscape:version="1.2 (dc2aedaf03, 2022-05-15)"
   sodipodi:docname="tete_de_cochon.svg"
   xmlns:inkscape="http://www.inkscape.org/namespaces/inkscape"
   xmlns:sodipodi="http://sodipodi.sourceforge.net/DTD/sodipodi-0.dtd"
   xmlns="http://www.w3.org/2000/svg"
   xmlns:svg="http://www.w3.org/2000/svg">
  <sodipodi:namedview
     id="namedview7"
     pagecolor="#ffffff"
     bordercolor="#666666"
     borderopacity="1.0"
     inkscape:pageshadow="2"
     inkscape:pageopacity="0.0"
     inkscape:pagecheckerboard="0"
     inkscape:document-units="mm"
     showgrid="false"
     units="px"
     inkscape:zoom="16"
     inkscape:cx="35.46875"
     inkscape:cy="34.4375"
     inkscape:window-width="1920"
     inkscape:window-height="1017"
     inkscape:window-x="1912"
     inkscape:window-y="-8"
     inkscape:window-maximized="1"
     inkscape:current-layer="g1677"
     inkscape:showpageshadow="2"
     inkscape:deskcolor="#d1d1d1" />
  <defs
     id="defs2" />
  <g
     inkscape:label="Calque 1"
     inkscape:groupmode="layer"
     id="layer1">
    <g
       id="g4128"
       transform="translate(-0.63104184,0.12620835)">
      <g
         id="g5578"
         transform="translate(0.08924235,0.08924306)">
        <g
           id="g7501"
           transform="translate(-0.06310417,0.94656242)">
          <g
             id="g9467"
             transform="translate(-0.08924275,-0.80318511)">
            <g
               id="g10302"
               transform="translate(0.31234979,-0.04462139)">
              <g
                 id="g11479"
                 transform="translate(-0.12620833,0.06310418)">
                <g
                   id="g11873"
                   transform="translate(-0.23575769,0.66462456)">
                  <g
                     id="g12382"
                     transform="translate(-121.98459,-82.267525)">
                    <g
                       id="g13305"
                       transform="matrix(0.13266609,0,0,0.13266609,114.63867,78.215696)">
                      <g
                         id="g17429"
                         transform="translate(0.90513437,5.6640979)">
                        <g
                           id="g18595"
                           transform="translate(-3.3634362,-8.7449387)">
                          <g
                             id="g21002"
                             transform="translate(1.7082278,-2.8204445)">
                            <g
                               id="g23814"
                               transform="translate(8.7253043,-1.1218249)">
                              <g
                                 id="g24838"
                                 transform="translate(11.143454,-0.85716864)">
                                <g
                                   id="g25315"
                                   transform="translate(-3.490122,2.4929446)">
                                <g
                                   id="g27220"
                                   transform="translate(2.4678888,1.2339445)">
                                <g
                                   id="g29753"
                                   transform="translate(1.4759287,-2.3737724)">
                                <g
                                   id="g30615"
                                   transform="translate(0.92006037,1.3687834)">
                                <g
                                   id="g31433"
                                   transform="translate(-2.4678886,-1.410222)">
                                <g
                                   id="g31731"
                                   transform="translate(1.0576664,-0.70511063)">
                                <g
                                   id="g33243"
                                   transform="matrix(1.0772948,0,0,1.0772948,-7.3729128,-3.1743014)">
                                <g
                                   id="g35254"
                                   transform="translate(-2.2135012,-0.92031205)">
                                <g
                                   id="g36749"
                                   transform="translate(-0.98178042,-2.7817105)">
                                <g
                                   id="g37297"
                                   transform="translate(-6.7755742,-3.5033798)">
                                <g
                                   id="g38955"
                                   transform="matrix(1.2171094,0,0,1.2171094,-23.105122,-18.212482)">
                                <g
                                   id="g39618"
                                   transform="translate(-0.26888273,-0.26888316)">
                                <g
                                   id="g40032"
                                   transform="translate(-1.90129,-3.042064)">
                                <g
                                   id="g40543"
                                   transform="translate(0.3802582,-2.0914191)">
                                <g
                                   id="g41372"
                                   transform="translate(1.9657652,-7.9304203)">
                                <g
                                   id="g43278"
                                   transform="translate(1.5210324,-0.38025789)">
                                <g
                                   id="g44210"
                                   transform="matrix(1.1578947,0,0,1.1578947,-18.904476,-21.776183)">
                                <g
                                   id="g44833"
                                   transform="matrix(1.1196819,0,0,1.1196819,-12.538538,-14.547543)">
                                <g
                                   id="g47597"
                                   transform="translate(3.1109352,-1.2443743)">
                                <g
                                   id="g48754"
                                   transform="translate(-2.9035392,-6.6366609)">
                                <g
                                   id="g234"
                                   transform="matrix(0.04089637,0,0,0.04089637,104.63967,119.67231)">
                                <g
                                   id="g2138"
                                   transform="translate(-86.211222,-40.569988)">
                                <g
                                   id="g2696"
                                   transform="translate(-124306.44,-9412.2373)">
                                <g
                                   id="g3765"
                                   transform="translate(25.356243,-50.712489)">
                                <g
                                   id="g4557"
                                   transform="translate(46.61688,-35.859142)">
                                <g
                                   id="g5244"
                                   transform="translate(7.1718407,14.343658)">
                                <g
                                   id="g5807"
                                   transform="translate(-5.1984397,-21.113724)">
                                <g
                                   id="g6945"
                                   transform="translate(-10.142522,-243.41993)">
                                <g
                                   id="g11108"
                                   transform="translate(18.189368,-37.636113)">
                                <g
                                   id="g15049"
                                   transform="translate(-65.926228,141.99496)">
                                <g
                                   id="g19861"
                                   transform="matrix(0.07356842,0,0,0.07356842,115423.38,9039.2311)">
                                <g
                                   id="g20437"
                                   transform="translate(-478.38824,-785.88156)">
                                <g
                                   id="g21032"
                                   transform="translate(2047.1878,-1072.3367)">
                                <g
                                   id="g21869"
                                   transform="matrix(0.04321578,0,0,0.04321578,117368,10137.003)">
                                <g
                                   id="g25455"
                                   transform="translate(154741.46,-87178.414)">
                                <g
                                   id="g26278"
                                   transform="translate(-18012.371,-8233.4417)">
                                <g
                                   id="g27240"
                                   transform="translate(-0.00447131,5582.7624)">
                                <g
                                   id="g28306"
                                   transform="translate(-15790.441,-2255.7767)">
                                <g
                                   id="g33735"
                                   transform="translate(14662.549,-16918.328)">
                                <g
                                   id="g37868"
                                   transform="translate(-5075.4976,25941.433)">
                                <g
                                   id="g76752"
                                   transform="matrix(-1,0,0,1,9442.3174,-1595.0746)">
                                <g
                                   id="g82459"
                                   transform="translate(3383.6668,-1127.8885)">
                                <g
                                   id="g83208"
                                   transform="matrix(0.20332428,0,0,0.20332428,-15348.528,66747.475)">
                                <g
                                   id="g83934"
                                   transform="matrix(-1,0,0,1,240692.18,94139.78)">
                                <g
                                   id="g84550"
                                   transform="translate(-8.7627443e-5,55472.344)">
                                <g
                                   id="g9096"
                                   transform="translate(31379.925,-62759.843)">
                                <g
                                   id="g11527"
                                   transform="translate(61019.625,105397.54)">
                                <g
                                   id="g13422"
                                   transform="translate(-44377.907,44377.908)">
                                <g
                                   id="g1137"
                                   transform="translate(-3.3240812e-4,138680.92)">
                                <g
                                   id="g3632"
                                   transform="translate(177511.65,-22188.943)">
                                <g
                                   id="g5936"
                                   transform="translate(11767.473,-47069.909)">
                                <g
                                   id="g7318">
                                <g
                                   id="g11619"
                                   transform="translate(27457.436,-223581.94)" />
                                <g
                                   id="g11985"
                                   transform="translate(70604.821,-133364.68)">
                                <g
                                   id="g12707"
                                   transform="matrix(1.186974,0,0,1.186974,95904.637,-164033.62)">
                                <g
                                   id="g4721"
                                   transform="matrix(-1,0,0,1,-561251.4,-59483.037)">
                                <g
                                   id="g7072">
                                <g
                                   id="g10426"
                                   transform="translate(66928.962,-211126.69)">
                                <g
                                   id="g11693"
                                   transform="translate(967399.8,-74774.864)">
                                <g
                                   id="g12809"
                                   transform="translate(37387.427,-102815.44)">
                                <g
                                   id="g2473"
                                   transform="translate(132184.53,-3304.6135)">
                                <g
                                   id="g822"
                                   transform="translate(6609.2201,-135489.15)">
                                <g
                                   id="g1677"
                                   transform="translate(33046.101,-72701.496)">
                                <path
                                   style="fill:#fdd0cd;stroke-width:4026.67"
                                   d="m -1457208.4,1548932.5 c 112781.2,-11583.2 210150.7,-40389.5 314080.5,-92919.5 140950.2,-70521 246470.55,-178936.5 324992.42,-313421.5 78012.98,-171303.49 90435.84,-318283.51 45387.12,-486012.78 -7011.75,-16781.48 -7780.28,-35857.92 -1598.53,-39678.43 6463.23,-3994.5 56368.12,-72598.45 73075.4,-100456.34 59032.45,-138273.41 147417.9,-312729.52 105686.17,-447386.483 C -621744.46,51917.339 -697322.81,33590.603 -758580.77,29533.264 -893397.41,20603.859 -1063041.9,85329.827 -1168577,185962.82 c -11782.4,11235.04 -22937.7,20974.76 -24789.6,21643.83 -214556.7,-75459.19 -452127.8,-84797.75 -641790.2,-25220.97 -24054.1,7665.79 -45798.2,13912.22 -48320.1,13880.96 -2522,-31.41 -12739.4,-7512.83 -22705.4,-16625.71 -136683.3,-124982.594 -342533,-180167.54641 -501320.7,-134395.932 -55849.2,16098.915 -70382.1,22837.237 -73215.8,33947.173 -4468.2,17518.16 2372.9,126340.639 10527.5,167464.719 35084.4,135550.36 83833.6,250446.43 160941.3,353213.88 -40641,122743.28 -56702.7,265166.61 -36599.5,371635.42 66304.4,231587.71 203714.6,393480.91 401413.8,492202.41 90834.6,45090.3 195905,74672.8 303433.7,85431.3 47620.1,4764.6 136358.3,4664.4 183793.6,-207.3 z"
                                   id="path1685"
                                   sodipodi:nodetypes="scccsccssccssssccccsss" />
                                <path
                                   style="fill:#faa5a6;stroke-width:4026.67"
                                   d="m -1499488.4,1506732.5 c 5536.6,-971.2 23656.7,-3669.6 40266.7,-5996.5 58090.1,-8137.8 134307.5,-37725.6 182606.6,-70888.4 24410.4,-16760.6 79127.1,-72325 79127.1,-80353.2 0,-3063.1 1564.5,-5569.2 3476.8,-5569.2 1912.2,0 8147.6,-10419 13856.4,-23153.4 26561.9,-59250.1 25532.9,-121361.8 -2957.8,-178547.2 -53822.8,-86994.9 -113413.5,-124107.4 -209669,-159832.18 -82351,-24568.94 -183083.5,-29909.52 -261887.5,-13884.61 -69266.4,14085.42 -148434.3,48347.99 -185809.4,80415.19 -85228.5,73125 -113683.2,139998.8 -96226.6,226150.6 11364.9,56088.2 45170.1,105200.1 100880.9,146558.7 50878,37771 107316.4,61998.4 181308.9,77830.8 27263.6,5833.8 134535.4,10863.8 155026.9,7269.4 z m 278847,-791290.79 c 12949.5,-7542.36 8028.6,-20678.86 -16431,-43863.59 -26951.9,-25547.11 -71692.2,-45704.83 -96790.1,-43608.79 -13294.9,1110.32 -14625.7,2320.61 -14625.7,13301.47 0,11006.35 1643.9,12485.87 18496.7,16646.26 31734.6,7834.26 55204.7,20402.11 77528.9,41515.44 23868,22573.37 22088.4,21678.08 31821.2,16009.21 z m -634689.9,-11793.2 c 35006.2,-28177.83 82986.2,-47202.78 104153.8,-68487.06 -2639.5,-8316.61 -4610.2,-8840.4 -25246.7,-6710.53 -29107.3,3004.14 -67151.6,21920.68 -93120.8,46301.9 -21910.2,20570.3 -26022.9,33762 -12742,40869.77 10817.2,5789.18 10313.4,6012.94 26955.7,-11974.08 z M -829129.49,465103.87 c 32638.49,-51331.82 57903.05,-125361.56 68353.52,-200288.26 9479.88,-67967.94 9117.65,-71183.46 -8878.14,-78810.32 -21271.59,-9015.18 -82388.12,-12064.96 -116227.2,-5799.85 -38822.55,7187.76 -88676.74,25812.01 -121043.89,45218.9 -25241.2,12668.28 -43224.3,31124.8 -61534.9,48890.51 95.9,2505.48 11247,11758.85 24780,20563.05 75006.03,50858.78 133994.32,116411.7 188459.2,191820.62 0,10513.56 11980.84,597.6 26091.41,-21594.65 z M -2212960.6,438930.5 c 64345.5,-74521.13 126463.8,-125573.99 202324.6,-177313.62 -81517.7,-55614.29 -190547.2,-96235.78 -274265.2,-79064 l -27975,6362.76 24.2,20817.28 c 32.2,27333.04 9628.8,89197.29 20096.5,129537.44 12427.2,47891.83 47473.8,126576.72 56472.9,126790.33 1154.8,28.19 11649.8,-12181.17 23322.4,-27130.19 z"
                                   id="path1683"
                                   sodipodi:nodetypes="ssssssccsssssssssssssccssscssssccccsccccssccc" />
                                <path
                                   style="fill:#f8696b;stroke-width:4026.67"
                                   d="m -1485395.1,1472969.9 c 15502.7,-4080.3 40433.1,-12333.4 55401,-18340.2 21442.8,-8605.3 27759.7,-13094.8 29786.3,-21169.5 6472.8,-25789.8 -11103.2,-28460 -63147.2,-9593.8 -76919.9,27883.9 -121130.5,25394.6 -212402.8,-11959.6 -9683.5,-3963.1 -15034.8,-4240.9 -20133.3,-1045.1 -8920.7,5591.6 -11091.2,20250.5 -4233.3,28591.2 7618.3,9265.7 51352.1,28373 80872.7,35333.4 34984.8,8248.7 98911,7381.3 133856.6,-1816.4 z m 59969.4,-205932.2 c 20597,-16201.6 28559.7,-37987.4 28559.7,-78139.4 0,-29691.5 -1611.7,-39263.7 -8918.8,-52972.8 -23780.9,-44615.9 -64821,-45264.3 -87817.2,-1387.3 -15014.8,28648.4 -14737.2,78784.8 615.3,111137.7 13103.3,27613.3 46278.4,38102.8 67561,21361.8 z m -197428.2,-5375.8 c 28298.8,-28298.9 34642.6,-84866.7 14109.6,-125816.9 -23334.7,-46538.1 -65449.5,-45710.7 -88640.4,1741.3 -13145.6,26897.7 -13010.7,75283.6 286.3,102714.5 18121.6,37383.8 49262.1,46343.3 74244.3,21361.1 z"
                                   id="path1681"
                                   sodipodi:nodetypes="sssssssssssssssssssss" />
                                <path
                                   style="fill:#41454b;stroke-width:4026.67"
                                   d="m -1495911.9,1474611.3 c 29646.7,-6431.7 75059.1,-23098.1 88401.2,-32443.3 6273.1,-4393.8 8760.1,-9638.8 7912.3,-16685.9 -2309,-19191.9 -11107.4,-19810.5 -53109.5,-3733.7 -53799.8,20592.4 -101917.1,26439.9 -144881.6,17606.8 -17413.5,-3580.1 -43438,-12020.4 -57832.1,-18756.3 -30756.5,-14392.7 -39525.1,-15171.9 -45481.8,-4041.5 -7333.3,13702.4 -583.8,23556.2 24971.4,36456.4 51897.6,26197.9 120742.7,34457.4 180020.1,21597.5 z m 153937.4,-532879.65 c 13884.8,-13884.78 15631.3,-17824.83 15617.9,-35233.39 -36.2,-45127.24 -41565.6,-71253.42 -80270.1,-50496 -25028.5,13422.91 -35565.9,47705.76 -22455.7,73058.13 9745,18844.71 26616.7,28304.21 50482.8,28304.21 19015.9,0 22463.8,-1471.71 36625.1,-15632.95 z m -342267.1,0 c 13884.8,-13884.78 15631.3,-17824.83 15617.9,-35233.39 -20.1,-24296.54 -10203.2,-42061.98 -29311.5,-51129.44 -60981.2,-28937.44 -109949.2,51767.35 -56784.3,93586.88 7888.5,6205.1 16476.2,8408.9 32767.6,8408.9 20276.5,0 23352.5,-1275.17 37710.3,-15632.95 z"
                                   id="path1679" />
                                </g>
                                </g>
                                </g>
                                </g>
                                </g>
                                </g>
                                </g>
                                </g>
                                </g>
                                </g>
                                </g>
                                </g>
                                </g>
                                </g>
                                </g>
                                </g>
                                </g>
                                </g>
                                </g>
                                </g>
                                </g>
                                </g>
                                </g>
                                </g>
                                </g>
                                </g>
                                </g>
                                </g>
                                </g>
                                </g>
                                </g>
                                </g>
                                </g>
                                </g>
                                </g>
                                </g>
                                </g>
                                </g>
                                </g>
                                </g>
                                </g>
                                </g>
                                </g>
                                </g>
                                </g>
                                </g>
                                </g>
                                </g>
                                </g>
                                </g>
                                </g>
                                </g>
                                </g>
                                </g>
                                </g>
                                </g>
                                </g>
                                </g>
                                </g>
                                </g>
                                </g>
                                </g>
                              </g>
                            </g>
                          </g>
                        </g>
                      </g>
                    </g>
                  </g>
                </g>
              </g>
            </g>
          </g>
        </g>
      </g>
    </g>
  </g>
</svg>
