<?xml version="1.0" encoding="UTF-8" standalone="no"?>
<!-- Created with Inkscape (http://www.inkscape.org/) -->

<svg
   width="64"
   height="64"
   viewBox="0 0 16.933333 16.933334"
   version="1.1"
   id="svg5"
   inkscape:version="1.2 (dc2aedaf03, 2022-05-15)"
   sodipodi:docname="thon.svg"
   xml:space="preserve"
   xmlns:inkscape="http://www.inkscape.org/namespaces/inkscape"
   xmlns:sodipodi="http://sodipodi.sourceforge.net/DTD/sodipodi-0.dtd"
   xmlns="http://www.w3.org/2000/svg"
   xmlns:svg="http://www.w3.org/2000/svg"><sodipodi:namedview
     id="namedview7"
     pagecolor="#ffffff"
     bordercolor="#666666"
     borderopacity="1.0"
     inkscape:pageshadow="2"
     inkscape:pageopacity="0.0"
     inkscape:pagecheckerboard="0"
     inkscape:document-units="mm"
     showgrid="false"
     units="px"
     inkscape:zoom="11.313709"
     inkscape:cx="39.023455"
     inkscape:cy="25.367456"
     inkscape:window-width="1920"
     inkscape:window-height="1017"
     inkscape:window-x="1912"
     inkscape:window-y="-8"
     inkscape:window-maximized="1"
     inkscape:current-layer="g545"
     inkscape:showpageshadow="0"
     inkscape:deskcolor="#d1d1d1" /><defs
     id="defs2" /><g
     inkscape:label="Calque 1"
     inkscape:groupmode="layer"
     id="layer1"><g
       id="g4128"
       transform="translate(-0.63104184,0.12620835)"><g
         id="g5578"
         transform="translate(0.08924235,0.08924306)"><g
           id="g7501"
           transform="translate(-0.06310417,0.94656242)"><g
             id="g9467"
             transform="translate(-0.08924275,-0.80318511)"><g
               id="g10302"
               transform="translate(0.31234979,-0.04462139)"><g
                 id="g11479"
                 transform="translate(-0.12620833,0.06310418)"><g
                   id="g11873"
                   transform="translate(-0.23575769,0.66462456)"><g
                     id="g12382"
                     transform="translate(-121.98459,-82.267525)"><g
                       id="g13305"
                       transform="matrix(0.13266609,0,0,0.13266609,114.63867,78.215696)"><g
                         id="g17429"
                         transform="translate(0.90513437,5.6640979)"><g
                           id="g18595"
                           transform="translate(-3.3634362,-8.7449387)"><g
                             id="g21002"
                             transform="translate(1.7082278,-2.8204445)"><g
                               id="g23814"
                               transform="translate(8.7253043,-1.1218249)"><g
                                 id="g24838"
                                 transform="translate(11.143454,-0.85716864)"><g
                                   id="g25315"
                                   transform="translate(-3.490122,2.4929446)"><g
                                   id="g27220"
                                   transform="translate(2.4678888,1.2339445)"><g
                                   id="g29753"
                                   transform="translate(1.4759287,-2.3737724)"><g
                                   id="g30615"
                                   transform="translate(0.92006037,1.3687834)"><g
                                   id="g31433"
                                   transform="translate(-2.4678886,-1.410222)"><g
                                   id="g31731"
                                   transform="translate(1.0576664,-0.70511063)"><g
                                   id="g33243"
                                   transform="matrix(1.0772948,0,0,1.0772948,-7.3729128,-3.1743014)"><g
                                   id="g35254"
                                   transform="translate(-2.2135012,-0.92031205)"><g
                                   id="g36749"
                                   transform="translate(-0.98178042,-2.7817105)"><g
                                   id="g37297"
                                   transform="translate(-6.7755742,-3.5033798)"><g
                                   id="g38955"
                                   transform="matrix(1.2171094,0,0,1.2171094,-23.105122,-18.212482)"><g
                                   id="g39618"
                                   transform="translate(-0.26888273,-0.26888316)"><g
                                   id="g40032"
                                   transform="translate(-1.90129,-3.042064)"><g
                                   id="g40543"
                                   transform="translate(0.3802582,-2.0914191)"><g
                                   id="g41372"
                                   transform="translate(1.9657652,-7.9304203)"><g
                                   id="g43278"
                                   transform="translate(1.5210324,-0.38025789)"><g
                                   id="g43741"
                                   transform="translate(1.1407741,6.084128)"><g
                                   id="g3839"
                                   transform="translate(-3.2265958)"><g
                                   id="g449"
                                   transform="translate(4.0154461e-7,-12.906384)"><g
                                   id="g545"
                                   transform="translate(-1.6132981,-1.8821811)"><path
                                   style="fill:#a7a7a5;stroke-width:0.138111"
                                   d="m 90.571946,107.40671 c 0.850582,-5.46137 2.70158,-10.441359 5.397636,-14.521979 4.498538,-6.808766 10.525418,-10.655219 17.540288,-11.194501 2.79496,-0.214867 6.86672,0.591891 9.57165,1.896483 7.71813,3.722459 13.42646,12.104757 15.35201,22.543387 0.57162,3.09878 0.6455,4.62309 0.58575,12.08473 -19.51281,-9.9213 -53.423576,36.20972 -48.447334,-10.80812 z"
                                   id="path551"
                                   sodipodi:nodetypes="csssscc" /><path
                                   style="fill:#f06464;stroke-width:0.138111"
                                   d="m 109.5737,151.99092 c -9.4577,-2.67507 -15.768263,-11.57145 -18.125683,-20.74626 -3.005113,-11.64791 -1.056795,-25.07486 6.985865,-34.331084 4.390828,-5.167339 11.147778,-8.61179 18.031948,-7.81955 8.82309,0.81183 15.81664,7.840023 19.25486,15.631124 2.64986,5.61806 3.52243,11.90025 3.24615,18.06634 -0.27318,10.03203 -4.70595,20.40463 -13.07232,26.28931 -2.30836,1.48261 -4.85113,2.67021 -7.55075,3.21816 -0.21499,-3.9013 1.51586,-7.48922 2.9227,-11.01389 1.43826,-5.09379 0.61365,-11.67456 -4.07377,-14.83447 -2.62481,-1.43207 -6.09067,-0.30361 -7.58182,2.26197 -2.51306,3.50429 -2.65928,8.10861 -1.83229,12.1883 1.40022,3.66442 3.32995,7.37573 3.02426,11.4176 -0.41432,-0.0913 -0.82093,-0.21302 -1.22915,-0.32755 z"
                                   id="path549" /><path
                                   style="fill:#de4242;stroke-width:0.138111"
                                   d="m 109.22842,151.86065 c -6.70358,-2.00051 -11.889452,-7.40708 -15.056754,-13.48203 4.125266,3.73059 9.365374,6.32583 14.942434,6.82574 1.3206,1.59646 2.03337,5.18352 1.42884,6.96592 -0.45068,-0.0448 -0.88206,-0.18536 -1.31452,-0.30963 z m 9.16989,-0.92861 c 0.46655,-2.35834 0.14844,-6.46188 3.58991,-6.01571 4.76163,-0.80205 9.15845,-3.15283 12.79426,-6.2814 -3.22876,6.50956 -9.16794,12.16186 -16.48127,13.59397 0.0324,-0.43229 0.0647,-0.86457 0.0971,-1.29686 z m -11.44873,-8.56642 c -6.8024,-1.43485 -13.144005,-6.11744 -15.794741,-12.63239 -1.216345,-4.70196 -1.027687,-9.65574 -0.656649,-14.4605 0.490552,-3.26508 1.02419,-6.77931 3.432387,-9.2559 4.578056,-5.83956 12.101583,-8.876077 19.441183,-8.51869 -0.23745,0.745653 0.52254,2.45244 -0.4783,2.462489 -5.28988,-0.100558 -10.69613,1.428241 -14.645893,5.078931 -7.636604,6.32335 -9.148739,18.54974 -3.360466,26.57534 2.917441,4.30048 7.545639,7.28659 12.574749,8.46416 0.10127,1.06119 1.83981,3.3054 -0.51227,2.28656 z m 14.15582,-0.42857 c 0.67659,-3.44547 5.56346,-2.53427 7.7469,-4.92671 7.46252,-4.79856 10.85215,-14.82912 7.93592,-23.1836 -2.56125,-8.08501 -10.65577,-13.943578 -19.14312,-13.81424 -0.97965,-0.02541 -2.25038,0.22941 -1.78734,-1.18483 -0.35681,-1.362278 0.40688,-1.553496 1.59389,-1.302291 7.17507,-0.01073 14.24694,3.447571 18.44327,9.308191 2.30171,2.85056 2.45452,6.72495 2.98962,10.19763 0.12407,4.65144 0.36705,9.5238 -1.33891,13.93462 -3.31914,6.27354 -9.73881,10.59627 -16.70767,11.69794 0.0892,-0.24224 0.17829,-0.48447 0.26744,-0.72671 z m -15.2759,-4.92842 c -7.373497,-2.4546 -12.710362,-10.12421 -11.969786,-17.93543 0.270338,-9.07364 8.689926,-16.88508 17.746056,-16.57801 0.97714,-0.0517 2.23053,-0.38985 1.76599,1.05307 0.3468,1.34791 -0.37902,1.6232 -1.59544,1.40789 -6.89984,-0.3248 -13.384829,4.7604 -15.07342,11.39418 -0.559716,2.65167 -0.60231,5.5226 0.12074,8.14902 1.435599,4.88881 5.40637,8.86029 10.24389,10.4089 0.21568,0.98772 0.5379,3.38976 -1.23803,2.10038 z m 16.1345,-0.84949 c -0.45404,-1.55044 1.15598,-1.58698 2.19687,-2.10362 7.20381,-3.15889 10.76704,-12.36641 7.68637,-19.58092 -2.34318,-5.99622 -8.73822,-10.03129 -15.16347,-9.51845 -1.37822,0.41619 -0.64914,-1.27493 -0.82603,-2.06007 0.0635,-0.97723 1.85587,-0.16483 2.66583,-0.3647 8.98071,0.14623 16.86916,8.2396 16.86202,17.21687 0.37661,7.69449 -4.98134,15.02901 -12.26467,17.34195 -1.35867,0.67886 -1.16243,0.19815 -1.15692,-0.93106 z m -15.89618,-4.34385 c -4.68471,-2.12317 -7.856565,-7.31816 -7.254202,-12.47906 0.09148,-6.24323 5.712542,-11.69115 11.907562,-11.93155 0.83177,0.24507 3.01326,-0.87047 2.65058,0.65448 0.12143,1.10553 0.12059,2.09409 -1.27511,1.74808 -5.24234,-0.32678 -10.27834,3.79971 -10.84005,9.04774 -0.72321,4.84414 2.44522,9.83575 7.1182,11.28851 -0.0498,1.40032 -0.52845,3.1693 -2.30698,1.6718 z m 15.10335,-0.0888 c -1.60905,-2.59629 3.39193,-2.3856 4.2456,-4.6588 3.78422,-4.12472 3.36055,-11.26123 -1.08977,-14.75596 -2.2645,-2.17636 -5.47652,-2.54346 -8.46924,-2.56086 0.2352,-0.74263 -0.51978,-2.52426 0.47808,-2.46663 4.25168,-0.0909 8.65873,1.41388 11.31141,4.88638 4.47616,5.24543 3.44807,13.90405 -1.98174,18.07833 -1.01195,0.45288 -3.88722,3.31163 -4.49434,1.47754 z m -12.30352,-4.03392 c -4.80688,-1.54346 -6.97615,-8.10843 -3.76493,-12.11143 1.81705,-2.70642 5.18632,-3.5629 8.26904,-3.30506 -0.001,1.17395 -0.003,2.34789 -0.004,3.52184 -3.11411,0.87693 -4.80781,4.92687 -2.82801,7.6224 0.46918,1.56586 4.46645,2.16715 1.36576,3.02098 -1.11904,0.4117 -1.71646,2.21006 -3.03786,1.25127 z m 10.12569,0.14438 c -1.00814,-1.42774 -4.73889,-2.02407 -1.47368,-3.13237 2.78533,-2.09025 2.45108,-6.90029 -0.69711,-8.48415 -1.3682,-0.11257 -0.89761,-1.40105 -0.96435,-2.3613 -0.14841,-1.11935 -0.093,-2.02673 1.27486,-1.56959 4.03022,-0.32663 7.87832,2.80224 8.31513,6.83054 0.7008,3.99767 -2.28445,8.25788 -6.30552,8.83473 l -0.1494,-0.11784 z M 95.810366,100.4382 c 3.917687,-5.971894 10.183904,-10.982161 17.561394,-11.364849 0,2.01372 0,4.02744 0,6.04116 -3.98228,0.01425 -8.0363,0.284196 -11.692,2.033955 -2.048433,0.757827 -4.32298,2.40981 -5.869394,3.289734 z M 132.3829,99.917568 c -4.45908,-3.346784 -10.05314,-4.943346 -15.59941,-4.774779 -1.43595,0.395699 -0.79002,-1.232214 -0.92573,-2.100362 -0.0308,-1.995075 -0.59919,-5.256922 2.51049,-3.613866 6.37378,1.248786 11.78418,5.758857 15.07567,11.232899 -0.37892,-0.21042 -0.71507,-0.48562 -1.06102,-0.743892 z"
                                   id="path547" /></g></g></g></g></g></g></g></g></g></g></g></g></g></g></g></g></g></g></g></g></g></g></g></g></g></g></g></g></g></g></g></g></g></g></g></svg>
