<?xml version="1.0" encoding="UTF-8" standalone="no"?>
<!-- Created with Inkscape (http://www.inkscape.org/) -->

<svg
   width="64"
   height="64"
   viewBox="0 0 16.933333 16.933334"
   version="1.1"
   id="svg5"
   inkscape:version="1.2 (dc2aedaf03, 2022-05-15)"
   sodipodi:docname="tomates_cerise.svg"
   xml:space="preserve"
   xmlns:inkscape="http://www.inkscape.org/namespaces/inkscape"
   xmlns:sodipodi="http://sodipodi.sourceforge.net/DTD/sodipodi-0.dtd"
   xmlns="http://www.w3.org/2000/svg"
   xmlns:svg="http://www.w3.org/2000/svg"><sodipodi:namedview
     id="namedview7"
     pagecolor="#ffffff"
     bordercolor="#666666"
     borderopacity="1.0"
     inkscape:pageshadow="2"
     inkscape:pageopacity="0.0"
     inkscape:pagecheckerboard="0"
     inkscape:document-units="mm"
     showgrid="false"
     units="px"
     inkscape:zoom="16"
     inkscape:cx="15.65625"
     inkscape:cy="26.9375"
     inkscape:window-width="1920"
     inkscape:window-height="1017"
     inkscape:window-x="1912"
     inkscape:window-y="-8"
     inkscape:window-maximized="1"
     inkscape:current-layer="g2356"
     showguides="false"
     inkscape:showpageshadow="0"
     inkscape:deskcolor="#d1d1d1" /><defs
     id="defs2" /><g
     inkscape:label="Calque 1"
     inkscape:groupmode="layer"
     id="layer1"><g
       id="g4128"
       transform="translate(-0.63104184,0.12620835)"><g
         id="g5578"
         transform="translate(0.08924235,0.08924306)"><g
           id="g7501"
           transform="translate(-0.06310417,0.94656242)"><g
             id="g9467"
             transform="translate(-0.08924275,-0.80318511)"><g
               id="g10302"
               transform="translate(0.31234979,-0.04462139)"><g
                 id="g11479"
                 transform="translate(-0.12620833,0.06310418)"><g
                   id="g11873"
                   transform="translate(-0.23575769,0.66462456)"><g
                     id="g12382"
                     transform="translate(-121.98459,-82.267525)"><g
                       id="g13305"
                       transform="matrix(0.13266609,0,0,0.13266609,114.63867,78.215696)"><g
                         id="g17429"
                         transform="translate(0.90513437,5.6640979)"><g
                           id="g18595"
                           transform="translate(-3.3634362,-8.7449387)"><g
                             id="g21002"
                             transform="translate(1.7082278,-2.8204445)"><g
                               id="g23814"
                               transform="translate(8.7253043,-1.1218249)"><g
                                 id="g24838"
                                 transform="translate(11.143454,-0.85716864)"><g
                                   id="g25315"
                                   transform="translate(-3.490122,2.4929446)"><g
                                   id="g27220"
                                   transform="translate(2.4678888,1.2339445)"><g
                                   id="g29753"
                                   transform="translate(1.4759287,-2.3737724)"><g
                                   id="g30615"
                                   transform="translate(0.92006037,1.3687834)"><g
                                   id="g31433"
                                   transform="translate(-2.4678886,-1.410222)"><g
                                   id="g31731"
                                   transform="translate(1.0576664,-0.70511063)"><g
                                   id="g33243"
                                   transform="matrix(1.0772948,0,0,1.0772948,-7.3729128,-3.1743014)"><g
                                   id="g35254"
                                   transform="translate(-2.2135012,-0.92031205)"><g
                                   id="g36749"
                                   transform="translate(-0.98178042,-2.7817105)"><g
                                   id="g37297"
                                   transform="translate(-6.7755742,-3.5033798)"><g
                                   id="g38955"
                                   transform="matrix(1.2171094,0,0,1.2171094,-23.105122,-18.212482)"><g
                                   id="g39618"
                                   transform="translate(-0.26888273,-0.26888316)"><g
                                   id="g40032"
                                   transform="translate(-1.90129,-3.042064)"><g
                                   id="g40543"
                                   transform="translate(0.3802582,-2.0914191)"><g
                                   id="g41372"
                                   transform="translate(1.9657652,-7.9304203)"><g
                                   id="g43278"
                                   transform="translate(1.5210324,-0.38025789)"><g
                                   id="g44210"
                                   transform="matrix(1.1578947,0,0,1.1578947,-18.904476,-21.776183)"><g
                                   id="g44833"
                                   transform="matrix(1.1196819,0,0,1.1196819,-12.538538,-14.547543)"><g
                                   id="g47597"
                                   transform="translate(3.1109352,-1.2443743)"><g
                                   id="g48754"
                                   transform="translate(-2.9035392,-6.6366609)"><g
                                   id="g234"
                                   transform="matrix(0.04089637,0,0,0.04089637,104.63967,119.67231)"><g
                                   id="g2138"
                                   transform="translate(-86.211222,-40.569988)"><g
                                   id="g2696"
                                   transform="translate(-124306.44,-9412.2373)"><g
                                   id="g3765"
                                   transform="translate(25.356243,-50.712489)"><g
                                   id="g4557"
                                   transform="translate(46.61688,-35.859142)"><g
                                   id="g5244"
                                   transform="translate(7.1718407,14.343658)"><g
                                   id="g5807"
                                   transform="translate(-5.1984397,-21.113724)"><g
                                   id="g6945"
                                   transform="translate(-10.142522,-243.41993)"><g
                                   id="g11108"
                                   transform="translate(18.189368,-37.636113)"><g
                                   id="g15049"
                                   transform="translate(-65.926228,141.99496)"><g
                                   id="g19861"
                                   transform="matrix(0.07356842,0,0,0.07356842,115423.38,9039.2311)"><g
                                   id="g20437"
                                   transform="translate(-478.38824,-785.88156)"><g
                                   id="g21032"
                                   transform="translate(2047.1878,-1072.3367)"><g
                                   id="g21869"
                                   transform="matrix(0.04321578,0,0,0.04321578,117368,10137.003)"><g
                                   id="g25455"
                                   transform="translate(154741.46,-87178.414)"><g
                                   id="g26278"
                                   transform="translate(-18012.371,-8233.4417)"><g
                                   id="g27240"
                                   transform="translate(-0.00447131,5582.7624)"><g
                                   id="g28306"
                                   transform="translate(-15790.441,-2255.7767)"><g
                                   id="g33735"
                                   transform="translate(14662.549,-16918.328)"><g
                                   id="g37868"
                                   transform="translate(-5075.4976,25941.433)"><g
                                   id="g76752"
                                   transform="matrix(-1,0,0,1,9442.3174,-1595.0746)"><g
                                   id="g82459"
                                   transform="translate(3383.6668,-1127.8885)"><g
                                   id="g83208"
                                   transform="matrix(0.20332428,0,0,0.20332428,-15348.528,66747.475)"><g
                                   id="g83934"
                                   transform="matrix(-1,0,0,1,240692.18,94139.78)"><g
                                   id="g84550"
                                   transform="translate(-8.7627443e-5,55472.344)"><g
                                   id="g9096"
                                   transform="translate(31379.925,-62759.843)"><g
                                   id="g11527"
                                   transform="translate(61019.625,105397.54)"><g
                                   id="g13422"
                                   transform="translate(-44377.907,44377.908)"><g
                                   id="g1137"
                                   transform="translate(-3.3240812e-4,138680.92)"><g
                                   id="g3632"
                                   transform="translate(177511.65,-22188.943)"><ellipse
                                   style="fill:#ffffff;stroke-width:388960;stroke-linecap:round;stroke-linejoin:bevel;stroke-dasharray:388960, 777918"
                                   id="path6066"
                                   cx="-790235.44"
                                   cy="-265009.34"
                                   rx="129442.18"
                                   ry="123558.44" /><g
                                   id="g5936"
                                   transform="translate(11767.473,-47069.909)"><g
                                   id="g7318"><g
                                   id="g11619"
                                   transform="translate(27457.436,-223581.94)" /><g
                                   id="g11985"
                                   transform="translate(70604.821,-133364.68)"><g
                                   id="g2691"
                                   transform="translate(33283.438,22188.91)"><g
                                   id="g8255"
                                   transform="translate(-61019.613,44377.912)"><g
                                   id="g9996"
                                   transform="translate(-22188.958,-44377.912)"><g
                                   id="g11265"
                                   transform="translate(62759.847,388326.54)"><g
                                   id="g1244"
                                   transform="translate(-52953.619,298109.26)"><g
                                   id="g27371"><g
                                   id="g28024"
                                   transform="matrix(1.1432639,0,0,1.1432639,66217.108,59891.224)"><g
                                   id="g39110"
                                   transform="translate(-63077.353,24260.534)"><g
                                   id="g2356"
                                   transform="translate(13723.85,-41171.495)"><path
                                   style="fill:#ef5841;stroke-width:3479.59"
                                   d="m 79124.243,311212.87 c -47604.428,-5763.31 -101056.444,-25430.95 -147087.088,-54120.61 -31797.735,-19818.62 -75679.175,-60756.99 -96729.405,-90241.8 -58015.84,-81262.171 -70001.39,-183230.883 -31054.91,-264203.968 15607.31,-32448.932 46620.47,-71480.972 74337.52,-93558.482 11787.8,-9389.39 21432.386,-17536.63 21432.386,-18105.02 0,-568.4 -7418.096,-4314.8 -16484.686,-8325.37 -30588.1,-13530.56 -41072.48,-32666.62 -25579.47,-46687.59 8243.25,-7460.03 25854.32,-5382.23 72510.558,8555.06 17702.408,5288.1 32186.196,8769.22 32186.196,7735.82 0,-1033.41 -11577.184,-13996.61 -25727.036,-28807.13 -28535.585,-29867.85 -34902.258,-44371.89 -24515.512,-55849.14 11820.198,-13061.19 28635.589,-6758.4 60071.829,22516.21 l 11569.041,10773.57 -8774.618,-23410.7 c -14452.959,-38560.45 -38501.858,-86002.66 -60450.199,-119252.42 -23098.969,-34992.87 -64996.009,-89071.2 -72078.399,-93034.73 -7563.23,-4232.57 -79971.24,160758.97 -118385.03,269756.45 -8410.76,23865.21 -17229.64,43060.5 -20667.02,44984.15 -8152.19,4562.19 -21905.89,628.83 -26261.99,-7510.59 -4033.26,-7536.26 14162.07,-63470.86 47467.26,-145920.02 10342.35,-25603.12 18044.56,-47310.85 17116,-48239.37 -2382.13,-2382.13 -48118.58,11814.38 -75634.05,23476.67 -57225.04,24254.54 -140437.73,71961.93 -180226.83,103327.43 -842.97,664.53 1076.62,3817.49 4265.73,7006.6 5400.46,5400.46 7057.82,5404.39 24150.02,57.07 47509.74,-14863.28 59112.5,-16771.83 67710.81,-11137.99 8922.22,5846.05 11098.81,22682.6 3704.51,28655.59 -2392.22,1932.42 -19616.18,7818.22 -38275.48,13079.6 -18659.29,5261.35 -33902.01,10526.73 -33872.71,11700.85 159.71,6391.03 7593.33,10377.24 29523.23,15831.08 13396.41,3331.6 36072.62,10224.84 50391.54,15318.3 21258.24,7561.87 26641.09,10996.96 29341.25,18724.32 2615.02,7483.62 1969.27,10941.5 -3086.5,16528.05 -8640.93,9548.13 -25903.45,9115.16 -56899.1,-1427.16 -13731.61,-4670.3 -24966.58,-7925.56 -24966.58,-7233.78 0,691.77 3459.45,15082.27 7687.63,31978.88 11440.02,45716.4 11349.2,127773.302 -182.33,164685.2981 -28875.82,92430.8519 -96974.08,158075.7519 -192747.36,185803.3419 -137028.57,39671.55 -288860.6,-25761.48 -366548.55,-157966.635 -95245.9,-162084.415 -42395.7,-356425.485 117276.79,-431250.515 50013,-23436.87 82050.03,-29797.18 149187.55,-29618.15 53181.65,141.97 59406.18,846.2 84453.27,9557.04 14872.04,5172.13 27607.61,9403.9 28301.27,9403.9 693.65,0 1908.17,-10160.92 2698.94,-22579.85 1671.07,-26243.72 10415.73,-41162.25 25154.51,-42913.87 16539.35,-1965.62 18402.32,2821.28 20172.08,51832.16 1438.42,39834.57 2513.37,46277.1 8764.45,52528.21 l 7124.98,7124.95 4336.82,-13426.94 c 2385.26,-7384.8 8727.96,-23213.27 14094.91,-35174.36 8869.44,-19766.98 10721.24,-21747.42 20334.82,-21747.42 7295.83,0 12257.62,2565.29 15995.33,8269.76 4906.5,7488.21 4902.56,10767.87 -41.41,34703.12 -3002.96,14538.35 -7684.5,32738.37 -10403.34,40444.47 -2718.89,7706.11 -4325.13,14011.12 -3569.4,14011.12 755.7,0 13285.14,-8545.83 27843.18,-18990.76 14558.04,-10444.92 59670.35,-35494.72 100249.6,-55666.24 58815.97,-29236.79 83258.28,-39359.85 120509.81,-49910.49 l 46729.35,-13235.03 25745.23,-55494.01 c 14159.88,-30521.73 41455.23,-89941.96 60656.37,-132044.98 71325.444,-156398.07 113450.702,-236648.2 168711.165,-321400.78 14192.512,-21766.94 25254.055,-40126.74 24581.276,-40799.54 -1624.446,-1624.4 -96713.012,19929.91 -140280.525,31798.26 -61007.076,16619.14 -113336.716,36036.74 -164289.656,60961.76 l -49723.43,24323.61 8580.71,14389.25 c 7726.87,12957.39 10799.49,14947.75 30878.94,20002.34 24198.56,6091.51 40849.47,15157.89 40849.47,22242.47 0,2460.77 -2114.06,7365.28 -4697.93,10898.94 -4020.53,5498.41 -7594.1,6084.41 -24784,4064.06 -19667.43,-2311.53 -20041.21,-2195.87 -17931.4,5548.93 5768.67,21175.77 9853.64,77514.76 8123.56,112038.61 -3462.16,69087.92 -22240.35,115894.09 -61067.07,152214.56 -81689.92,76416.91 -218419.56,66532.76 -307156.62,-22204.3 -55606.37,-55606.33 -82755.72,-137870.79 -68132.68,-206446.66 14334.58,-67223.18 66695.43,-130682.59 136098.72,-164946.58 35640.45,-17595.52 67538.47,-24937.73 108708.06,-25022.17 l 32502.8,-66.81 v -22346.37 c 0,-17706.9 1444.83,-23791.2 6959.18,-29305.5 14592.91,-14592.9 23122.7,-5567.2 29595.71,31316.3 2854.86,16267.06 5192.8,30719.01 5195.41,32115.47 2.61,1396.43 6224.5,5712.02 13826.39,9590.23 7601.86,3878.18 19201.1,11774.51 25776.06,17547.43 l 11954.51,10496.18 21438.27,-12564.66 c 47546.63,-27866.32 119653.94,-56665.13 195670.99,-78148.75 47792.183,-13506.8 145094.325,-35326.6 177424.158,-39786.9 15360.645,-2119.2 17361.861,-3675 32873.241,-25556.3 66182.441,-93361.2 169954.011,-225089.6 236273.261,-299927 58294.21,-65781.7 230470.11,-236292.2 241359.83,-239025.4 6432.09,-1614.3 10379.41,126.8 16549.45,7299.9 4456.45,5180.9 8102.64,10725 8102.64,12320.2 0,1595.1 -49881.51,52788.3 -110847.83,113762.5 -103537.81,103551.2 -154131.87,159067 -220922.54,242413.8 l -27306.35,34075.1 5483.83,21574.3 c 11688.43,45984.1 33413.27,166218.7 37220.22,205992.44 2198.13,22965.29 4379,42184.06 4846.41,42708.37 467.41,524.34 5054.14,-10574.13 10192.72,-24663.19 5138.56,-14089.09 11714.04,-29001.88 14612.15,-33139.52 7279.27,-10392.6 23911.11,-10088.1 30891.69,565.7 4849.54,7401.3 4578.27,10210.26 -3192.07,33056.06 -4670.58,13732.09 -7283.55,24967.44 -5806.53,24967.44 1476.98,0 13235.14,-11740.83 26129.24,-26090.76 25553.47,-28438.64 36590.63,-34074.74 47461.87,-24236.37 10575.97,9571.06 8339.95,18540.81 -12311.17,49386.14 l -19130.15,28573.55 20000.05,12744.51 c 80555.75,51332.11 126342.48,131276.66 126339.87,220592.06 -2.06,69795.53 -27771.02,128824.59 -87692.22,186409.07 -79698.97,76591.03 -182825.87,110563.57 -268843.92,88563.87 -38697.44,-9897.16 -66109.957,-25554.9 -94330.5,-53880.59 C 30296.288,-501090.19 10348.536,-547690.33 5000.7908,-611398.81 -5327.081,-734435.91 49067.382,-859702.97 136065.87,-913233.66 l 18094.63,-11133.74 -10452.38,-11904.61 c -13812.26,-15731.32 -16629.65,-27496.93 -8686.23,-36274.29 11163.01,-12335 22535.17,-8901.35 41860.98,12639.36 l 17630.77,19651.39 24994.19,-2510.07 c 23233.98,-2333.13 24994.2,-3088.06 24994.2,-10719.25 0,-22901.92 -8992.44,-84047.33 -22111.36,-150349.53 l -14645.06,-74015.3 -36695.16,49658.1 C 68914.782,-989975.18 9329.0513,-895591.97 -48041.156,-781152.41 c -32074.884,63981.45 -93691.164,197972.96 -93691.164,203741.84 0,2169.31 4085.73,7740.24 9079.43,12379.85 10274.25,9545.73 60595.474,73199.13 77176.062,97623.26 19490.29,28710.23 48384.3429,87087.14 68663.108,138725.38 10897.55,27749.72 20417.148,51096.37 21154.647,51881.43 737.499,785.07 7523.741,-425.03 15080.503,-2689.1 12334.516,-3695.49 15271.045,-6990.66 28714.506,-32221.33 15179.079,-28488.02 36589.194,-55246.47 44204.134,-55246.47 2294.76,0 8130.45,3958.17 12968.26,8795.98 9920.86,9920.86 9292.52,20677.8 -2577.79,44129.12 -3593.99,7100.41 -6534.52,13536.71 -6534.52,14302.91 0,766.17 17615.41,2195.94 39145.37,3177.22 114410.13,5214.47 197521.53,75927.57 234200.16,199262.871 8131.97,27344.555 9350.52,37715.224 9608.01,81770.328 323.95,55432.627 -5454.39,85657.55 -25509.52,133432.021 -31288.6,74534.38 -92776.38,139899.95 -160967.17,171118.71 -40247.95,18426.13 -99254.37,27543.87 -143548.627,22181.26 z"
                                   id="path2360" /><path
                                   style="fill:#343434;stroke-width:3479.59"
                                   d="m 49645.063,-154471.65 c -2870.661,-1670.34 -33324.439,-12760.14 -67675.044,-24643.97 -68240.546,-23608.35 -115076.929,-44683.87 -124572.239,-56055.3 -7489.57,-8969.37 -7864.28,-21594.16 -814.6,-27444.87 7703.49,-6393.33 43016.24,-2462.02 77691.211,8649.24 15967.763,5116.7 29748.327,8587.07 30623.513,7711.92 875.151,-875.19 -8714.143,-11554.81 -21309.593,-23732.53 -12595.416,-12177.69 -26141.385,-28835.49 -30102.131,-37017.33 -6737.632,-13918.07 -6837.636,-15431.14 -1553.219,-23496.2 9706.208,-14813.54 22612.49,-11246.44 53332.074,14740.13 10047.313,8499.31 18267.841,14808.26 18267.841,14019.89 0,-788.37 -6269.523,-16841.9 -13932.238,-35674.51 -14888.604,-36591.5 -39446.254,-84016.41 -56739.288,-109572.9 -20944.93,-30953.48 -69298.55,-90787.06 -72504.61,-89718.37 -6817.56,2272.52 -79369.66,168331.8 -105329.2,241080.46 -8877.79,24879.06 -18576.24,51892.32 -21552.12,60029.48 -3711.12,10147.66 -7950.06,15432.15 -13495.24,16823.91 -12526.24,3143.88 -22651.11,-4070 -22651.11,-16138.78 0,-11438.63 22378.48,-75551.09 49480.41,-141757.32 9628.89,-23521.98 16486.46,-43787.84 15239.1,-45035.2 -11022.08,-11022.08 -181052.57,70133.33 -240629.22,114852.13 -19820.33,14877.33 -36845.89,28358.58 -37834.58,29958.35 -2165.21,3503.36 27298.39,-3124.11 67344.87,-15148.42 32130.1,-9647.37 48816.71,-11045.5 55234.19,-4628.03 5470.3,5470.3 5361.21,21887.9 -173.98,26188.22 -2392.22,1858.56 -23405.49,8665.71 -46696.12,15127.03 -23290.66,6461.35 -41727.12,12750.32 -40969.93,13975.48 757.23,1225.17 10784.01,4078.36 22281.83,6340.41 11497.78,2262.04 38223.59,9596.81 59390.66,16299.43 30985.15,9811.54 39230.1,13820.65 42305.85,20571.12 3027.59,6644.9 2618.25,10219.03 -1972.92,17226.09 -7788.33,11886.44 -20397.46,11537.2 -63487.92,-1758.59 -61328.06,-18923.08 -92947.23,-24552.84 -131742,-23456.39 -48893.4,1381.81 -60635.07,-6138.76 -60912.7,-39014.89 -293.33,-34736.97 3882.63,-187662.45 5382.71,-197113.64 3755.56,-23662.21 24709.6,-36725.14 37843.07,-23591.67 4221.37,4221.33 5517.72,13542.35 5686.31,40885.16 270.36,43870.51 7371.72,92044.47 11632.23,78912.09 1552.24,-4784.43 9034.44,-24748.54 16627.18,-44364.68 11679.97,-30175.76 15186.25,-36012.39 22778.64,-37917.95 22478.46,-5641.73 27147.92,17267.63 13334.72,65422.84 -4904.76,17098.84 -8917.73,31733.57 -8917.73,32521.59 0,788.02 11689.57,-6954.13 25976.87,-17204.79 26385.96,-18931.08 120721.51,-69838.16 161920.92,-87378.8 12439.53,-5296.1 42119.31,-15248.53 65955.02,-22116.44 l 43337.72,-12487.16 29123.36,-62632.59 c 16017.83,-34447.93 44820.61,-97018.86 64006.13,-139046.51 63911.864,-140004.83 103414.348,-214968.17 160256.423,-304116.69 15083.217,-23655.77 26740.709,-43693.9 25905.538,-44529 -2355.02,-2355 -106590.521,21928.41 -158956.761,37031.63 -89151.07,25712.56 -177836.95,65028.36 -218871.67,97029.13 l -8381.95,6536.61 30999.28,4351.68 c 36467.69,5119.28 71945.96,15357.97 77844.35,22465.09 5070.25,6109.26 1907.26,17866.89 -5579.31,20739.74 -2994.09,1148.96 -18984.08,520.2 -35533.32,-1397.19 -30305.97,-3511.22 -41461.01,-4514.18 -100819.87,-9064.61 -37993.7,-2912.59 -40455.33,-5030.61 -44117.08,-37958.72 -1276.9,-11482.64 -2950.93,-24792.07 -3720.06,-29576.5 -3406.73,-21192.51 -5113.26,-103634.96 -2340.79,-113086.66 2321.23,-7913.4 5423.84,-10715 12824.89,-11580.7 5369.57,-628 11020.77,154.9 12558.19,1739.8 2154.66,2221.3 24193.61,118595.26 24193.61,127751.55 0,1088.49 13229.16,-6644.1 29398.11,-17183.56 40630.57,-26484.33 113255.85,-60895.62 167198.66,-79221.99 64936.26,-22061.3 170973.3508,-48163.2 242412.092,-59671.7 11584.699,-1866.2 15733.308,-6129.9 45066.898,-46316.8 80625.87,-110457 162686.16,-213785.9 228586.96,-287832.5 47380.24,-53236.9 214988.34,-219920.2 227961.29,-226703.5 8757.4,-4579.2 10757.32,-4537.1 18267.84,384 17758.85,11636 13943.34,16793.9 -84213.21,113841.5 -99566.87,98442 -159575.79,163568.1 -222896.27,241903.2 l -39927.13,49394.8 5372.49,23676.6 c 18343.41,80839.8 34242.91,174332.3 38939.41,228972.33 l 2392.64,27836.71 7850.86,-23010.69 c 16232.03,-47575.85 25446.26,-57943.05 43101.38,-48494.35 9317.61,4986.7 9406.17,17270.79 315.25,43694.54 -3832.49,11139.34 -6422.31,20799.27 -5755.1,21466.45 667.21,667.21 12544.23,-11335.95 26393.41,-26673.69 13849.19,-15337.72 29028.61,-28852.65 33732.04,-30033.13 10167.36,-2551.87 22189.62,6691.94 22189.62,17061.36 0,7660.66 -42498.79,73823.09 -66419.75,103402.72 -8512.12,10525.76 -21586.6,27749.72 -29054.39,38275.47 -22079.8,31121.3 -33443.41,41755.06 -44620.75,41755.06 -15728.89,0 -20717.99,-4378.43 -46344.16,-40671.65 -13241.82,-18753.87 -37976.89,-48982.55 -54966.78,-67174.81 -36297.72,-38866.48 -43554.95,-52163 -35325.59,-64722.57 10070.18,-15369.1 20602.16,-11218.3 51772.39,20404.23 15599.24,15825.62 35648.66,33821.18 44554.22,39990.15 l 16191.98,11216.31 -1483.1,-33900.86 c -2312.85,-52867.37 -7699.29,-94796.38 -20894.34,-162645.58 -6699.32,-34448 -13292.2,-67247.7 -14650.88,-72888.4 -2385.99,-9905.8 -3832.42,-8421.7 -42389.57,43494.9 -54618.58,73543 -132536.662,190676.09 -166891.338,250885.32 -32531.128,57013.3 -73385.432,139200.97 -115747.652,232852.56 l -29234.88,64630.54 16693.85,18155.31 c 24308.37,26436.45 68195.071,85841.69 87924.826,119015.42 20413.843,34324.09 36600.7155,70355.36 63982.469,142422.27 11185.939,29440.59 21973.986,54073.67 23973.462,54740.15 1999.476,666.52 5522.038,-6289.01 7827.892,-15456.71 5377.426,-21379.57 28147.959,-67604.79 43777.371,-88869.98 9456.44,-12866.33 14298.71,-16528.04 21856.75,-16528.04 5339.96,0 11588.01,1878.97 13884.54,4175.5 6411.45,6411.46 4966.35,27613.91 -2926.23,42933.11 -10526.73,20432.01 -26940.58,67951.32 -38224.815,110663.65 -5481.849,20749.55 -12437.303,41496.6 -15456.542,46104.55 -5694.66,8691.17 -19473.345,11071.98 -29686.216,5129.5 z"
                                   id="path2358" /></g></g></g></g></g></g></g></g></g></g></g></g></g></g></g></g></g></g></g></g></g></g></g></g></g></g></g></g></g></g></g></g></g></g></g></g></g></g></g></g></g></g></g></g></g></g></g></g></g></g></g></g></g></g></g></g></g></g></g></g></g></g></g></g></g></g></g></g></g></g></g></g></g></g></g></g></g></svg>
