<?xml version="1.0" encoding="UTF-8" standalone="no"?>
<!-- Created with Inkscape (http://www.inkscape.org/) -->

<svg
   width="64"
   height="64"
   viewBox="0 0 16.933333 16.933334"
   version="1.1"
   id="svg5"
   inkscape:version="1.2 (dc2aedaf03, 2022-05-15)"
   sodipodi:docname="tome_de_brebis.svg"
   xmlns:inkscape="http://www.inkscape.org/namespaces/inkscape"
   xmlns:sodipodi="http://sodipodi.sourceforge.net/DTD/sodipodi-0.dtd"
   xmlns="http://www.w3.org/2000/svg"
   xmlns:svg="http://www.w3.org/2000/svg">
  <sodipodi:namedview
     id="namedview7"
     pagecolor="#ffffff"
     bordercolor="#666666"
     borderopacity="1.0"
     inkscape:pageshadow="2"
     inkscape:pageopacity="0.0"
     inkscape:pagecheckerboard="0"
     inkscape:document-units="mm"
     showgrid="false"
     units="px"
     inkscape:zoom="5.9295174"
     inkscape:cx="-13.154528"
     inkscape:cy="43.342482"
     inkscape:window-width="1920"
     inkscape:window-height="1017"
     inkscape:window-x="1912"
     inkscape:window-y="-8"
     inkscape:window-maximized="1"
     inkscape:current-layer="g1970"
     inkscape:showpageshadow="2"
     inkscape:deskcolor="#d1d1d1" />
  <defs
     id="defs2" />
  <g
     inkscape:label="Calque 1"
     inkscape:groupmode="layer"
     id="layer1">
    <g
       id="g1970"
       transform="translate(-0.13386418,0.75856375)">
      <path
         style="fill:#fbefd0;stroke-width:0.0309002"
         d="m 10.116115,13.923612 c -0.2293373,-0.3029 -0.5294122,-0.580194 -0.7145006,-0.89911 0,-0.832005 0,-1.664009 0,-2.496013 C 8.8453884,10.34943 8.2943033,10.14583 7.7330015,9.9886084 c 0,0.7519056 0,1.5038116 0,2.2557176 -2.109918,0.01363 -4.2878027,-0.212585 -6.2177166,-1.117497 -0.4117775,-0.215697 -0.96852223,-0.554676 -0.85843957,-1.096175 0,-1.6834494 0,-3.3668983 0,-5.0503473 C 0.86786258,4.4920266 1.4175116,4.2609637 1.884852,4.0724926 3.7028149,3.3675739 5.6827897,3.221755 7.6150657,3.1559731 c 2.0478472,0.052065 4.1457563,0.2055495 6.0575813,1.0024152 0.401736,0.1979669 0.921068,0.4028585 1.0438,0.8755797 0,1.0824675 0,2.1649349 0,3.2474024 0.584785,0.094061 1.174267,0.1571346 1.761318,0.2358942 0,1.8493964 0,3.6987934 0,5.5481904 -1.823228,0.571434 -3.752,0.639147 -5.647155,0.715792 -0.238165,-0.285878 -0.47633,-0.571757 -0.714495,-0.857635 z"
         id="path1984" />
      <path
         style="fill:#f9e5ae;stroke-width:0.0309002"
         d="M 10.104595,13.902921 C 9.8795887,13.602596 9.5823498,13.328285 9.4016144,13.012017 c 0,-0.829878 0,-1.659757 0,-2.489635 -0.5539358,-0.193037 -1.1077675,-0.386838 -1.6686132,-0.5590796 0,0.7635886 0,1.5271776 0,2.2907666 C 5.8369906,12.248248 3.9180413,12.05198 2.1273006,11.397832 1.5917761,11.173089 0.98879625,10.933216 0.67229545,10.415151 0.6639616,8.0482809 0.66026196,5.681399 0.65586715,3.3145189 0.91082545,2.7991658 1.498213,2.6091398 1.9867591,2.381641 3.8950406,1.7040933 5.9430223,1.5220102 7.956276,1.5184469 c 1.9119129,0.072477 3.87158,0.2301687 5.65747,0.9619664 0.412541,0.1971966 0.899955,0.4008543 1.08737,0.8447315 0.0046,1.6546541 0.0066,3.3093177 0.01689,4.96395 0.581731,0.074885 1.162869,0.1545878 1.744317,0.2317508 0.0053,1.8474414 0.01053,3.6948834 0.0158,5.5423244 -1.835996,0.54739 -3.763857,0.676541 -5.670524,0.689174 -0.234336,-0.283141 -0.468672,-0.566282 -0.703008,-0.849423 z"
         id="path1982"
         sodipodi:nodetypes="ccccsscccccsscccccccccccccsscsscccscccccscccccscccc" />
      <path
         style="fill:#ebd9a4;stroke-width:0.0309002;fill-opacity:1"
         d="m 10.823026,11.988393 c 0,-0.922881 0,-1.845762 0,-2.7686435 -0.106971,0.060669 -0.01464,0.4775827 -0.04429,0.6764749 0.0047,1.6010426 0.0094,3.2020846 0.01413,4.8031266 -0.455953,-0.528484 -0.8965617,-1.070232 -1.3449012,-1.605268 -0.00801,-1.827782 -0.027135,-3.6555919 -0.02202,-5.4833726 1.3125432,0.1480134 2.6212712,0.329246 3.9309022,0.50112 0,-1.1072428 0,-2.2144856 0,-3.3217284 C 11.169392,4.2454187 8.995855,3.5940242 6.7584703,3.2861842 6.2132866,3.1607185 6.6132778,3.6931304 6.6486266,3.9422684 6.9953778,5.0137305 7.3771632,6.079525 7.702101,7.1545159 c 0,1.6998324 0,3.3996651 0,5.0994971 C 5.7079707,12.197645 3.6533641,12.048021 1.8020208,11.250031 1.3722148,11.02093 0.76693303,10.787703 0.65684533,10.258118 c 0,-2.1409645 0,-4.2819285 0,-6.4228926 C 0.8727194,3.2914556 1.5058737,3.0767348 1.9979512,2.8566425 3.6928615,2.2547103 5.5066139,2.0425008 7.2971568,2.0047919 c 1.1252084,0.012716 2.2531139,0.01148 3.3663612,0.2026039 1.214894,0.2043092 2.486223,0.4186165 3.556413,1.0638576 0.255412,0.1863845 0.554228,0.4306871 0.473127,0.7838163 0.0068,1.4156606 -0.0225,2.8328447 0.03886,4.2473874 0.579385,0.077357 1.158871,0.1539641 1.738139,0.2321977 0.01328,1.8410112 0.0057,3.6821472 0.0077,5.5232152 -1.833907,0.537349 -3.753841,0.65609 -5.654744,0.699172 4e-6,-0.922883 7e-6,-1.845766 1.1e-5,-2.768649 z M 10.668524,9.0509402 c -0.161344,-0.1886815 -0.148882,-0.087593 0,0 z M 10.483123,8.8346385 c -0.161336,-0.188685 -0.148875,-0.087589 0,0 z m -0.216302,-0.247202 c -0.161344,-0.1886802 -0.148881,-0.087591 0,0 z M 10.08142,8.3711348 c -0.1613385,-0.1886837 -0.1488803,-0.08759 0,0 z M 9.8960183,8.1548331 c -0.1613331,-0.1886819 -0.1488742,-0.087591 0,1e-6 z M 9.6797166,7.9076312 c -0.1613343,-0.1886842 -0.1488755,-0.08759 0,0 z"
         id="path1976"
         sodipodi:nodetypes="cccccccccccscccccccccscsscccccccccsscccssccccccccccccscscssccsscssscccssscssssscssssscssssscss" />
      <path
         style="fill:#d3bc5f;stroke-width:0.0309002"
         d="m 10.823026,11.993121 c 0,-0.921155 0,-1.842309 0,-2.7634634 C 10.363343,8.6925005 9.8911529,8.1656222 9.4463234,7.6160812 10.756099,7.7776553 12.067425,7.9365194 13.372295,8.1319405 13.35749,7.0083183 13.360578,5.8845671 13.354895,4.7608791 11.040334,4.2719291 8.7189371,3.7597104 6.4000317,3.3247692 6.8340548,3.9901768 7.2680779,4.6555843 7.702101,5.3209919 c 0,2.3077781 0,4.6155561 0,6.9233341 C 5.7127192,12.207764 3.6667056,12.029285 1.8148186,11.253233 1.3900719,11.052858 0.89368723,10.829027 0.69504903,10.378666 0.61214672,9.7394544 0.68034779,9.0829222 0.65781182,8.4367912 0.65732484,6.7058992 0.65718228,4.9750071 0.65684533,3.2441151 0.83758558,2.7013345 1.4515984,2.4939021 1.9266892,2.2671005 3.6903718,1.6393934 5.5770298,1.4073493 7.4418878,1.3907253 c 1.1897023,0.00538 2.3808463,0.042894 3.5549942,0.2559653 1.197337,0.2185787 2.469306,0.4491502 3.461651,1.1960065 0.451712,0.5422937 0.129943,1.3553782 0.236513,2.0104948 0.002,1.1496883 0.004,2.2993767 0.006,3.449065 0.592377,0.077845 1.184198,0.1607079 1.777095,0.2340371 -0.0053,1.838234 -0.01053,3.676469 -0.0158,5.514703 -1.824124,0.55396 -3.745552,0.643896 -5.639294,0.70558 -1.4e-5,-0.921142 2.8e-5,-1.842362 -2.1e-5,-2.763456 z"
         id="path1974"
         sodipodi:nodetypes="ccsssccccscccccssscccsscccccccsscsscccsscscccsscccssccc" />
      <path
         style="fill:#c8ab37;stroke-width:0.0309002"
         d="M 10.138845,8.4337214 C 9.9287135,8.1208956 9.0328434,7.4131508 9.899257,7.6683853 12.052665,7.9670197 14.214677,8.217546 16.363978,8.537092 16.033076,8.7088017 15.389758,8.7994668 14.946712,8.8962396 13.590789,9.1354891 12.212852,9.2085088 10.838476,9.2427037 10.605266,8.9730429 10.372055,8.7033822 10.138845,8.4337214 Z M 6.9604951,5.3580334 C 5.0970775,5.2597666 3.1748797,5.0423648 1.4837925,4.2008164 1.1488167,3.9957679 0.66998209,3.7417393 0.65896748,3.2997194 0.78207475,2.7710081 1.3988305,2.5629597 1.833351,2.3470506 3.5943328,1.6651231 5.504106,1.4689956 7.3792742,1.4205033 c 1.2254181,0.00604 2.4522358,0.044182 3.6613618,0.266975 1.185123,0.2267067 2.452737,0.4401395 3.426633,1.2054493 0.437445,0.3405528 0.149992,0.9122518 -0.128054,1.2476505 C 14.09636,4.4372219 13.750593,4.7894214 13.350277,4.7807126 11.039337,4.3016723 8.7324758,3.8018355 6.4165272,3.3478177 6.8185655,4.0414508 7.2918181,4.691703 7.704275,5.3788687 7.4563187,5.3730371 7.2083586,5.3671157 6.9604951,5.3580334 Z"
         id="path1972"
         sodipodi:nodetypes="scssssscsscscscccccccssscccsscsscccccccsscssssccc" />
    </g>
  </g>
</svg>
