<?xml version="1.0" encoding="UTF-8" standalone="no"?>
<svg
   width="64"
   height="64"
   version="1.1"
   viewBox="0 0 16.933 16.933"
   id="svg146"
   sodipodi:docname="tourteau.svg"
   inkscape:version="1.2 (dc2aedaf03, 2022-05-15)"
   xml:space="preserve"
   xmlns:inkscape="http://www.inkscape.org/namespaces/inkscape"
   xmlns:sodipodi="http://sodipodi.sourceforge.net/DTD/sodipodi-0.dtd"
   xmlns="http://www.w3.org/2000/svg"
   xmlns:svg="http://www.w3.org/2000/svg"><defs
     id="defs150" /><sodipodi:namedview
     id="namedview148"
     pagecolor="#ffffff"
     bordercolor="#666666"
     borderopacity="1.0"
     inkscape:pageshadow="2"
     inkscape:pageopacity="0.0"
     inkscape:pagecheckerboard="0"
     showgrid="false"
     inkscape:zoom="16"
     inkscape:cx="37"
     inkscape:cy="28.6875"
     inkscape:window-width="1920"
     inkscape:window-height="1017"
     inkscape:window-x="1912"
     inkscape:window-y="-8"
     inkscape:window-maximized="1"
     inkscape:current-layer="g16068"
     inkscape:showpageshadow="0"
     inkscape:deskcolor="#d1d1d1" /><g
     transform="translate(-.63104 .12621)"
     id="g144"><g
       transform="translate(.089242 .089243)"
       id="g142"><g
         transform="translate(-.063104 .94656)"
         id="g140"><g
           transform="translate(-.089243 -.80319)"
           id="g138"><g
             transform="translate(.31235 -.044621)"
             id="g136"><g
               transform="translate(-.12621 .063104)"
               id="g134"><g
                 transform="translate(-.23576 .66462)"
                 id="g132"><g
                   transform="translate(-121.98 -82.268)"
                   id="g130"><g
                     transform="matrix(.13267 0 0 .13267 114.64 78.216)"
                     id="g128"><g
                       transform="translate(.90513 5.6641)"
                       id="g126"><g
                         transform="translate(-3.3634 -8.7449)"
                         id="g124"><g
                           id="g2243"
                           transform="matrix(1.1930023,0,0,1.1930023,-33.651497,-20.118288)"><g
                             id="g2622"
                             transform="translate(-3.5913905,-3.2649007)"><g
                               id="g3762"
                               transform="translate(-4.1555401,0.11543139)"><g
                                 id="g14682"
                                 transform="translate(0.92345349,1.1543167)"><g
                                   id="g14733"
                                   transform="translate(-4.2443703,-2.6119205)"><g
                                   id="g3012"
                                   transform="translate(-1.3851797,-4.3864029)"><g
                                   id="g3323"
                                   transform="translate(-1.0388848,-3.9246767)"><g
                                   id="g3881"
                                   transform="translate(2.0685351,0.59100979)"><g
                                   id="g3984"
                                   transform="translate(3.5522119,0.20895359)"><g
                                   id="g4501"
                                   transform="translate(2.0895364,-5.0148868)"><g
                                   id="g4818"
                                   transform="translate(3.1343047,-2.0895366)"><g
                                   id="g4901"
                                   transform="translate(-1.4626755,6.0596553)"><g
                                   id="g5319"
                                   transform="translate(2.0685355,-0.88651531)"><g
                                   id="g5370"
                                   transform="translate(-2.9550503,0.7387626)"><g
                                   id="g5857"
                                   transform="translate(4.7280808,-3.1028032)"><g
                                   id="g5966"
                                   transform="translate(-1.0447681,-3.6566884)"><g
                                   id="g6021"
                                   transform="translate(4.388026,-1.6716296)"><g
                                   id="g6074"
                                   transform="translate(-1.6252781,-2.3640406)"><g
                                   id="g6128"
                                   transform="translate(-1.149245,2.1940132)"><g
                                   id="g6186"
                                   transform="translate(2.5074433,1.2537218)"><g
                                   id="g6245"
                                   transform="translate(0.41790741,4.3880263)"><g
                                   id="g8095"
                                   transform="translate(3.1028028,-3.6938134)"><g
                                   id="g8159"
                                   transform="translate(4.4325757,-2.3640406)"><g
                                   id="g8429"
                                   transform="translate(-4.8059335,-2.5074437)"><g
                                   id="g16068"
                                   transform="translate(2.9550512,-4.5803288)"><path
                                   style="fill:#fb8157;stroke-width:0.083789"
                                   d="m 119.55156,143.67768 c -4.97989,-0.35022 -9.55688,-2.68477 -13.02131,-6.2624 -3.67236,0.42411 -4.22964,-4.20797 -2.8908,-6.70799 -0.19373,-3.49252 3.36412,-5.94907 6.13175,-7.68258 2.41834,-1.17624 2.1715,-2.26349 -0.40514,-3.6332 -1.35735,-1.01867 -4.13461,2.20126 -6.09512,2.56487 -1.73437,1.27133 -5.078608,1.56744 -4.277049,4.63406 -1.606455,3.71934 -2.11473,7.08135 -0.705984,10.60787 1.611277,4.5321 -2.485911,-1.09195 -2.738908,-3.92651 -1.811415,-1.71412 -0.526097,-4.08287 0.417679,-6.65015 0.813507,-2.60716 0.651083,-4.75229 3.686429,-6.09092 1.714913,-1.67226 5.561843,-2.78028 6.838633,-4.11219 -1.92412,-2.24876 -1.7542,-6.15221 -6.853562,-4.44581 -2.11449,0.67158 -5.566383,-0.56715 -7.016889,1.28269 -1.503508,2.3422 -3.813858,4.21609 -4.819223,6.81344 -0.710428,1.32602 -0.797059,8.20819 -2.034792,3.78986 0.07446,-1.58544 -0.161216,-2.8506 0.243812,-4.52091 0.337695,-1.39263 -0.02281,-2.77003 0.896557,-3.98938 4.61863,-4.67701 4.211366,-4.02748 6.491852,-6.18287 2.954447,-0.75231 6.963525,-0.93589 10.003215,-1.00603 0.14604,-2.00648 2.41805,-4.48504 -1.03829,-4.62167 -7.485775,-1.78094 -6.034844,-3.773835 -8.512332,-1.92361 -2.986207,1.60996 -6.813856,2.38432 -8.623115,5.50724 -0.737986,0.97651 -0.408252,2.40098 0.175185,-0.87397 0.936905,-2.99686 0.320949,-4.24243 3.286974,-5.66827 2.799084,-0.872094 3.7241,-1.345955 4.804432,-1.656908 0.63597,-0.436583 0.510191,-0.944905 1.488631,-0.976258 3.591913,0.192364 8.149815,1.86561 11.004375,3.292626 5.55881,-5.160765 13.51949,-6.598411 20.87196,-6.185939 6.43275,-0.130987 13.16119,1.793899 17.96962,6.197539 3.6249,-1.789338 7.56792,-3.329769 11.6255,-3.534772 0.99357,2.078069 4.76171,1.871256 6.83829,3.558152 2.13322,3.24261 4.04396,5.42046 3.95684,8.65625 -1.87132,-2.41704 -3.5341,-5.50635 -6.99025,-6.38614 -2.97351,-2.17521 -4.11548,-4.074655 -9.19143,-0.70762 -1.35231,0.39605 -3.34114,0.59801 -3.91694,1.38697 -0.41508,0.56874 0.1676,1.53033 1.00785,2.67473 -0.22422,3.32579 3.06131,1.07365 4.42047,1.75901 2.53629,0.69622 6.92742,-0.25655 7.57238,2.83047 2.54505,2.22023 4.26241,6.90955 4.84832,8.67465 0.12817,1.72109 -0.91836,4.02393 -1.25916,3.74381 -0.30591,-3.391 -1.06916,-5.5839 -4.01042,-8.51142 -1.20909,-3.23469 -2.20028,-3.2339 -7.59445,-3.28714 -4.66934,-1.18239 -5.07078,-0.44859 -5.99041,2.62584 -0.76149,0.61828 -1.72768,1.19561 -1.65589,1.62001 0.25872,1.52958 5.30485,2.1416 6.35519,3.82931 2.50612,1.29581 3.35614,3.49643 3.97497,5.64227 0.85294,2.56174 2.17077,5.49905 0.27637,7.85514 -0.12792,1.60274 -1.8267,5.25906 -3.11495,5.14893 1.1743,-3.51868 2.10951,-6.69391 0.19247,-10.67223 -0.21683,-2.45546 0.36608,-3.66162 -3.21009,-5.15941 -2.15595,-0.57561 -5.03728,-4.33055 -7.10403,-4.00236 -0.50689,0.0805 -0.85933,1.02187 -1.30811,1.60682 -0.41465,0.27968 -1.24955,0.62378 -1.05188,0.73612 1.40473,0.79832 3.0739,1.96424 4.28227,2.86688 3.06262,1.79024 2.93188,5.0503 3.66658,8.10743 0.79951,2.83134 -0.48187,5.0266 -3.11958,5.15416 -4.07304,4.26301 -10.4044,6.79275 -16.26253,6.11077 3.26523,-1.89618 4.20757,-4.71241 6.75847,-6.90034 1.8543,-2.005 7.41976,-3.33959 6.86549,-6.09236 -2.06338,-1.46192 -4.02868,-5.79943 -6.06953,-6.25219 -5.37304,2.47509 -9.9745,4.91365 -14.91955,2.75485 -2.04633,0.0612 -4.28738,-3.90335 -5.79186,-2.48102 -1.63558,2.02328 -4.02286,4.3795 -5.86651,6.20972 1.22043,2.25641 4.42236,3.48719 6.54727,5.13842 2.65165,1.5109 3.46607,4.71793 5.8604,6.30278 2.90143,2.27629 -0.37835,1.34647 -1.90015,1.42088 z m 1.3131,-17.62696 c 1.48887,-0.96316 0.11818,-3.37673 -0.34572,-0.87274 -1.91423,0.19799 -0.48582,-3.29948 -1.9717,-0.39411 0.0198,1.14254 1.35598,1.73371 2.31742,1.26685 z m 10.61544,-0.0448 c 1.80786,-1.10437 -0.53715,-3.77208 -0.20158,-1.04621 -1.68917,1.18405 -1.56322,-2.97409 -2.0402,0.25958 0.24013,0.93034 1.47123,1.24008 2.24178,0.78663 z"
                                   id="path16074"
                                   sodipodi:nodetypes="ccccccccccccccccsccccccccccccccccccsccccccccsccccccscsccccccccccccccccccccc" /><path
                                   style="fill:#f04d19;stroke-width:0.083789"
                                   d="m 119.12271,143.76151 c -4.80599,-0.44256 -9.31944,-2.76093 -12.6738,-6.19484 -3.36298,0.44972 -3.95722,-4.468 -2.86215,-6.92884 0.28619,-3.07313 1.32174,-5.32922 4.14672,-6.9571 0.5452,-0.84452 3.29182,-1.62802 3.62053,-2.37013 0.12217,-0.27583 -0.55353,-0.52558 -1.16508,-0.83648 -1.86254,-3.69812 -5.22336,1.50999 -7.72462,2.15147 -1.7255,0.93247 -3.894367,1.53322 -3.668543,3.90104 -0.691212,3.17645 -2.184928,6.39936 -0.700312,9.85615 0.574609,1.59914 1.123301,3.92901 -0.770471,1.21206 -0.681591,-1.12839 -1.269521,-2.71511 -1.795468,-3.91086 -0.748051,-1.70072 -1.081486,-3.06374 -0.402913,-4.99259 0.414938,-2.20386 1.187793,-2.86131 1.38394,-4.10326 -0.53476,-1.04844 0.05278,-1.88643 2.081949,-3.56594 2.483178,-1.77474 5.654378,-3.2149 7.655618,-4.56764 -1.81002,-1.31845 -1.86841,-5.3886 -4.47312,-4.68056 -2.443942,0.69495 -6.219185,0.1899 -8.57041,0.81763 -0.494538,0.28009 -0.664371,0.98499 -0.999619,1.5068 -1.187773,1.79427 -3.089623,3.25483 -4.116721,5.12688 -0.474327,0.86453 -0.752068,1.95404 -0.839294,3.01049 -0.241078,1.85645 -0.693247,5.22245 -1.386894,1.37002 -0.132053,-1.38539 0.0362,-2.96091 0.119865,-4.33006 -0.12281,-1.91377 0.522675,-3.79449 2.195406,-5.3434 0.897563,-0.70706 1.975516,-1.62246 2.544281,-2.48298 -0.07932,-1.00202 0.681332,-1.73195 1.85148,-2.03722 3.222171,-0.9142 6.570595,-1.22415 9.908746,-1.25908 0.2279,-1.39612 1.38541,-2.89335 1.16737,-3.82872 -0.14876,-0.63817 -1.18212,-0.94849 -2.62766,-1.04737 -1.909193,-0.9506 -3.900591,-1.97967 -5.735613,-2.28892 -1.435601,0.45462 -2.97473,0.82365 -4.349866,2.09801 -3.303615,1.03204 -5.164205,3.90296 -7.042838,6.63807 -1.100932,-1.20191 0.657639,-3.85474 1.953932,-5.87748 0.318398,-0.49683 0.281047,-1.08719 0.432378,-1.51004 1.878264,-2.233 7.661533,-2.766371 7.329216,-4.076015 1.875024,-0.953524 6.070992,0.672918 8.866931,1.43105 2.3075,1.413285 3.66888,2.900885 6.18912,-0.498837 5.80576,-3.842892 12.99431,-4.479501 19.77019,-4.070692 5.91369,0.121306 11.91976,2.150909 16.36341,6.118384 3.72558,-1.664728 7.65794,-3.413877 11.7939,-3.446801 0.26602,0.338897 0.30814,0.838362 0.78455,1.095471 1.72175,0.929217 4.86282,1.29196 6.49686,2.84299 0.43705,0.62617 0.54809,1.13106 1.04229,1.93022 1.21621,1.9667 2.69847,4.50152 2.0918,6.16048 -1.95436,-2.85685 -3.40292,-5.46192 -7.59028,-6.73972 -2.46381,-1.78303 -3.25777,-3.136618 -7.50858,-0.60469 -1.8496,1.07731 -7.15463,0.655 -3.91206,3.90395 -1.00398,3.04211 2.47127,1.56563 4.06048,2.0241 2.62715,0.63957 8.23269,0.60903 8.02629,2.91209 1.56927,2.37438 5.74176,4.49676 4.83224,7.91247 0.64038,1.68022 0.41932,5.89607 -0.85031,6.1591 -0.49199,-3.44097 -0.6326,-6.39345 -3.95403,-9.33627 -0.84132,-1.23641 -1.12408,-3.84235 -3.09533,-3.59802 -1.78527,-0.048 -4.72892,-0.36096 -6.86166,-0.63476 -2.49966,-0.32092 -2.71809,0.008 -3.10506,1.14173 -0.19109,1.10228 -2.46978,2.66425 -2.5028,3.55074 -0.0134,0.36006 0.67699,0.51041 1.60397,0.66243 3.01556,1.508 6.14739,3.69887 8.50857,6.12367 -0.1015,0.41519 -0.40256,1.02034 -0.2693,1.62638 0.36303,1.65094 1.68509,3.81157 1.81896,5.98434 0.18371,1.40964 -0.58763,1.67235 -0.97524,2.78451 -0.84772,2.43234 -2.0322,5.21893 -3.18025,4.98432 0.82711,-3.0925 2.17005,-6.1384 0.41044,-9.41799 -0.10408,-3.62013 0.2679,-4.86268 -5.14687,-7.26149 -1.64577,-0.7379 -3.82638,-2.94364 -5.43401,-2.95494 -0.7766,-0.005 -1.89661,1.1289 -2.53402,2.25315 1.05806,0.83357 4.10746,2.60145 5.71124,3.93866 1.87415,2.07135 1.69804,3.3409 2.10405,5.27686 0.31867,1.51955 1.22824,1.89812 0.40479,4.7724 -0.48823,2.61239 -3.18999,1.21114 -4.31269,3.16037 -4.06694,3.59771 -9.86202,5.90805 -15.28307,5.228 0.79544,-0.75228 0.68653,-1.19769 1.70396,-1.64281 1.7397,-0.7611 1.43263,-2.7972 4.6245,-5.27923 1.38913,-1.01065 3.05528,-1.8426 4.54674,-2.88448 1.04363,-0.72903 1.92631,-1.77766 2.89003,-2.13836 -0.11739,-2.70496 -4.34103,-4.56087 -5.53041,-7.04116 -1.44124,-1.67096 -3.77559,2.38604 -5.82741,2.28685 -5.14497,2.2623 -10.86162,0.47875 -15.26016,-2.50136 -1.78336,2.34862 -4.16931,4.25724 -5.87996,6.59641 1.58721,2.45643 5.09766,3.69186 7.40259,5.75797 1.58128,1.39711 2.42743,3.30768 3.74241,4.83156 1.17646,0.53804 1.74588,1.24303 2.50757,1.91235 -1.0885,0.47069 -2.5639,0.12418 -3.77042,0.18953 z m 17.56591,-2.05983 c 2.79156,-1.04763 7.85396,-3.79751 4.47935,-6.86952 -0.72005,-3.11677 -2.70748,2.41485 -3.07802,3.66819 0.2217,0.97572 -2.80327,3.85328 -1.40133,3.20133 z m -22.2581,0.0339 c -2.3644,-2.22247 -1.9291,-6.29472 -4.63622,-8.13657 -0.41223,2.35103 -3.02309,4.16017 0.14984,5.78926 1.23057,1.09766 2.87289,2.12228 4.48638,2.34731 z m -8.06324,-5.57471 c 1.59317,-1.11584 2.26882,-3.39526 -0.26193,-1.78197 -1.78397,0.10854 -2.49985,-3.44001 -2.26814,0.01 -0.031,1.20191 1.33162,2.45948 2.53007,1.77214 z m 39.58309,-0.11266 c 1.46814,-1.08692 1.12925,-5.23682 -0.40385,-1.93066 -1.52677,1.08274 -3.9249,-1.88005 -2.22607,1.11961 0.543,0.9091 1.64103,1.48383 2.62992,0.81105 z m -49.126804,-4.16874 c 0.596145,-1.29864 2.571395,-7.30205 -0.12666,-5.46115 -0.329981,1.19814 -2.248764,5.60553 0.12666,5.46115 z m 57.819244,-0.10481 c 0.57174,-1.46767 0.0822,-6.70894 -2.05542,-5.57337 0.15454,1.35421 0.2256,5.95466 2.05542,5.57337 z m -9.27526,-1.99162 c 1.14094,-2.82819 -2.8855,-5.62917 -5.23748,-6.77042 -3.4333,1.21461 1.3571,5.59242 3.22315,6.92784 0.62169,0.43249 1.43015,0.19488 2.01433,-0.15742 z m -37.77372,0.0217 c 1.63204,-1.3489 6.33609,-5.5704 3.04196,-6.79851 -2.30078,0.9716 -7.13329,4.36781 -5.01248,6.98967 0.62927,0.19946 1.41069,0.20379 1.97052,-0.19116 z m 13.28844,-3.72398 c 1.5936,-0.94811 -0.27031,-3.73611 -0.23166,-1.01275 -2.53809,0.67611 0.30417,-3.22215 -1.96699,-0.86513 -0.67137,1.26348 1.06614,2.52844 2.19865,1.87788 z m 10.51263,-0.0133 c 2.46533,-0.81698 -1.36645,-4.30323 0.0598,-1.3857 -1.73124,2.16857 -1.49421,-2.93585 -2.26712,0.25829 0.0271,1.05769 1.34072,1.61268 2.20729,1.12741 z m -31.669347,-3.07049 c 1.692207,-1.62858 7.071137,-2.7224 6.014457,-5.22635 -2.71074,1.2008 -5.917934,2.66983 -7.732131,5.04883 0.306723,0.58916 1.233711,0.33846 1.717674,0.17752 z m 52.622177,0.0753 c -0.0492,-2.25168 -4.00762,-3.21186 -5.80212,-4.65871 -2.94486,-1.96751 -2.15683,1.76338 0.26126,2.08532 1.79812,0.81627 3.4491,2.91365 5.54086,2.57339 z m -64.436345,-5.45831 c 1.268897,-0.73184 4.624326,-5.81331 1.249432,-3.90055 -0.528153,0.63749 -3.531677,4.01922 -1.249432,3.90055 z m 75.519895,-0.0374 c 0.94653,-1.64532 -4.00634,-6.4666 -3.28054,-3.15194 0.92038,0.88433 1.83713,3.45112 3.28054,3.15194 z m -64.773775,-6.44364 c 2.687275,0.11304 1.973075,-2.20415 -0.300792,-1.507 -1.796658,-0.57417 -7.224315,1.57726 -3.223551,1.65876 1.175342,-0.0293 2.352983,-0.045 3.524343,-0.15176 z m 58.418355,-0.0206 c -0.43711,-1.86971 -5.45176,-1.84295 -6.95124,-0.90585 1.48622,1.52092 4.95011,1.10299 6.95124,0.90585 z m -67.204827,-8.45404 c 1.335879,-0.32736 4.664212,-2.782961 1.224254,-2.21239 -1.963385,0.15518 -6.242369,4.36371 -1.224254,2.21239 z m 73.010477,0.63902 c 1.24298,-2.4022 -7.80912,-4.17932 -3.64522,-1.45863 1.14875,0.4641 2.35818,1.62595 3.64522,1.45863 z m -59.78739,-0.81544 c 1.27737,-2.33451 -4.093136,-2.863421 -5.923773,-3.57934 -3.521399,0.935643 3.773263,3.60988 5.498813,3.67742 z m 46.3602,-0.1709 c 1.40478,-0.67427 6.65391,-1.8706 4.5776,-3.50612 -2.03576,0.755925 -7.26955,1.132727 -6.6261,3.61045 0.65346,0.28105 1.40633,0.12384 2.0485,-0.10433 z"
                                   id="path16072"
                                   sodipodi:nodetypes="ccccscccccscccccccscccccccsccccscccccccscsccccccccccscsccscscccsccscccscscccccccccccccccccccccccccccccccccccccccccccccsccssccccccccccccccccccccccccccccccccccc" /><path
                                   style="fill:#722710;stroke-width:0.083789"
                                   d="m 119.12271,143.76151 c -0.0691,-0.0137 -0.46503,-0.0694 -0.87979,-0.1238 -4.02146,-0.52764 -7.96024,-2.44052 -11.05003,-5.3665 l -0.74398,-0.70454 -0.63854,-0.002 c -0.7513,-0.002 -1.36422,-0.25347 -1.88862,-0.77531 -0.39789,-0.39595 -0.83413,-1.25108 -0.97312,-1.90752 -0.25939,-1.22507 -0.0639,-2.93459 0.46947,-4.10566 0.20287,-0.44541 0.2306,-0.61259 0.24323,-1.4663 0.0172,-1.16014 0.15231,-1.56892 0.87977,-2.66115 0.46929,-0.70459 1.69226,-1.9986 2.39031,-2.52916 0.74596,-0.56697 2.56528,-1.76396 3.37582,-2.22107 l 0.86215,-0.48622 -1.14906,-1.09949 c -0.63198,-0.60472 -1.2002,-1.08814 -1.2627,-1.07428 -0.0625,0.0139 -0.46127,0.2261 -0.88614,0.47163 -0.42487,0.24554 -1.65856,0.94619 -2.74154,1.557 -1.08297,0.61081 -2.0633,1.17088 -2.17851,1.24459 -0.11521,0.0737 -0.30117,0.18313 -0.41324,0.24314 -0.11207,0.06 -0.52682,0.29402 -0.92168,0.52001 -0.39485,0.22598 -1.05402,0.59228 -1.46483,0.814 l -0.746919,0.40313 -0.189785,0.92168 c -0.348528,1.69261 -1.532876,6.73851 -1.619713,6.90076 -0.144339,0.2697 0.317239,2.98897 0.890921,5.24864 0.32683,1.28735 0.364671,1.55938 0.22371,1.60816 -0.163917,0.0567 -1.403458,-1.24503 -1.890322,-1.98521 -0.604854,-0.91955 -0.958688,-1.74325 -1.187923,-2.76539 -0.165939,-0.73991 -0.217313,-0.85334 -0.519114,-1.14623 -0.192342,-0.18666 -0.378601,-0.47076 -0.437477,-0.66727 -0.396772,-1.3243 0.38277,-5.21059 1.481959,-7.38807 0.304352,-0.60292 0.314493,-0.71372 0.09129,-0.99747 -0.253591,-0.32239 -0.223808,-0.8425 0.07136,-1.24618 0.346645,-0.47409 0.604264,-0.71375 1.766541,-1.6434 2.319902,-1.85557 5.229852,-3.6274 7.687902,-4.68104 l 0.36492,-0.15642 -0.86432,-1.07052 c -1.0321,-1.27832 -1.57864,-2.10198 -1.97221,-2.97218 -0.2682,-0.59299 -0.30919,-0.64197 -0.50988,-0.60926 -0.12003,0.0196 -0.76496,0.0759 -1.43318,0.12531 -0.66822,0.0494 -2.467401,0.20099 -3.998182,0.33695 -1.530782,0.13597 -3.038983,0.24779 -3.35156,0.24849 -0.312576,6.7e-4 -0.606202,0.029 -0.652501,0.0628 -0.0463,0.0339 -0.409934,0.49517 -0.808078,1.02513 -1.840562,2.44996 -3.62834,4.74463 -4.014716,5.15303 -0.288302,0.30473 -0.354747,0.47207 -0.731943,1.84336 -0.228171,0.82951 -0.553873,2.22459 -0.723782,3.10019 -0.169909,0.87559 -0.326829,1.6795 -0.34871,1.78647 -0.175321,0.85701 -1.046586,-1.51352 -1.168947,-3.18046 -0.0605,-0.82419 0.03698,-1.85898 0.253389,-2.68983 0.112642,-0.43246 0.109469,-0.48274 -0.04963,-0.78655 -0.423226,-0.80818 0.06652,-2.03416 1.65774,-4.14983 0.894123,-1.18881 1.641349,-1.97868 2.707407,-2.86191 l 0.459057,-0.38033 0.0018,-0.50438 c 0.0016,-0.46039 0.02698,-0.53039 0.290729,-0.80252 0.336017,-0.34671 0.800517,-0.53548 2.161376,-0.87834 2.712092,-0.6833 4.95443,-1.00094 7.641861,-1.08252 l 1.79708,-0.0546 0.10465,-0.72599 c 0.11609,-0.80543 0.41348,-1.76363 0.79741,-2.56929 0.13898,-0.29163 0.23843,-0.54449 0.22101,-0.56191 -0.0461,-0.0461 -2.22881,-0.89357 -3.879335,-1.50624 -1.890829,-0.70188 -3.769177,-1.43872 -4.088563,-1.60388 -0.203632,-0.10531 -0.291219,-0.1128 -0.414976,-0.0355 -0.24127,0.15067 -6.599271,3.32455 -6.94806,3.46843 -0.373106,0.15391 -1.289492,1.11408 -2.621472,2.74672 -0.282704,0.34652 -1.603325,2.11711 -1.759273,2.35871 -0.256198,0.3969 -0.380828,0.29767 -0.380828,-0.30323 0,-1.11637 0.364513,-2.54489 0.943138,-3.69613 0.240048,-0.47761 1.139129,-1.73365 1.321738,-1.84651 0.05015,-0.031 0.06374,-0.17391 0.03243,-0.34085 -0.07923,-0.42235 0.282534,-1.10865 0.82898,-1.57263 1.312018,-1.11402 3.946114,-2.398133 6.019878,-2.934667 0.605059,-0.156544 0.78866,-0.237764 0.808482,-0.357649 0.10318,-0.624019 0.552894,-0.951107 1.307683,-0.951107 0.608539,0 2.711189,0.413211 4.250876,0.835378 2.151672,0.589968 4.079662,1.31428 5.960702,2.239335 0.49705,0.24443 0.94173,0.44443 0.98818,0.44443 0.0465,0 0.18651,-0.0968 0.31123,-0.21508 0.12472,-0.1183 0.56611,-0.48764 0.98086,-0.82076 3.5002,-2.811309 8.9144,-4.74937 14.16034,-5.068829 2.05483,-0.125131 8.00067,-0.05511 9.38291,0.110505 4.2918,0.514216 8.45751,1.997794 11.6405,4.145651 0.7567,0.510619 1.88218,1.405333 2.08749,1.659473 0.084,0.10397 0.20126,0.18904 0.26059,0.18904 0.0593,0 0.61274,-0.24216 1.2298,-0.53813 2.66203,-1.276816 5.34134,-2.15976 8.3974,-2.767291 2.03712,-0.404972 2.76702,-0.219486 2.92114,0.742331 0.0202,0.126219 0.18508,0.200179 0.77975,0.349845 2.23081,0.56144 5.12186,2.014495 6.24728,3.139915 0.48665,0.48665 0.73669,1.06255 0.62039,1.42896 -0.0368,0.11603 0.0545,0.27917 0.32437,0.57931 1.08235,1.20383 1.83763,3.10616 1.95347,4.92027 0.0688,1.0766 -0.0229,1.11338 -0.62629,0.25137 -0.23388,-0.33411 -0.61679,-0.85255 -0.85092,-1.1521 -0.23414,-0.29954 -0.57763,-0.74404 -0.76332,-0.98777 -0.78868,-1.03516 -2.16602,-2.51197 -2.39667,-2.56977 -0.2143,-0.0537 -6.0843,-2.96133 -6.84248,-3.38933 l -0.32324,-0.18247 -0.68223,0.29283 c -0.37523,0.16105 -1.9265,0.76198 -3.44727,1.33539 -2.78084,1.04853 -4.08151,1.55371 -4.13401,1.60565 -0.0156,0.0154 0.12997,0.37967 0.32348,0.80942 0.37385,0.83027 0.62969,1.71852 0.73201,2.54142 l 0.0625,0.50274 1.80127,0.0548 c 2.63678,0.0801 4.9357,0.39979 7.47713,1.03964 1.4886,0.37478 1.98208,0.56392 2.31138,0.88587 0.31341,0.30641 0.3896,0.54387 0.31806,0.99126 -0.0488,0.30545 -0.0313,0.34045 0.30222,0.60351 1.03774,0.81849 1.98322,1.81598 2.96499,3.12809 1.48898,1.98996 1.94945,3.17701 1.5514,3.99928 -0.16747,0.34595 -0.17105,0.39468 -0.0574,0.78228 0.4552,1.55199 0.33119,3.66294 -0.30731,5.23122 -0.26338,0.64691 -0.43808,0.91189 -0.5364,0.81358 -0.0309,-0.0309 -0.12305,-0.44344 -0.20471,-0.91669 -0.23904,-1.38532 -0.55634,-2.77421 -0.97184,-4.25392 -0.36619,-1.30412 -0.41014,-1.40664 -0.77525,-1.80794 -0.21288,-0.23398 -0.72449,-0.87246 -1.13693,-1.41883 -0.41243,-0.54638 -0.93961,-1.22611 -1.17149,-1.51052 -0.23189,-0.28441 -0.87407,-1.12486 -1.42708,-1.86767 l -1.00547,-1.35055 -0.61022,-0.002 c -0.33561,-0.001 -1.86267,-0.11345 -3.39345,-0.24942 -1.53078,-0.13596 -3.32996,-0.28758 -3.99818,-0.33694 -0.66822,-0.0494 -1.31385,-0.1059 -1.43475,-0.12563 -0.20124,-0.0329 -0.24119,0.0125 -0.47301,0.53737 -0.36193,0.81944 -1.01792,1.81311 -2.01057,3.04557 l -0.86317,1.0717 0.48455,0.21286 c 0.69239,0.30416 2.05287,0.98142 2.80241,1.39506 2.35307,1.29858 5.97213,3.98034 6.51667,4.82894 0.30943,0.4822 0.34281,0.96515 0.089,1.28781 -0.22089,0.28082 -0.21385,0.35489 0.0939,0.98871 0.89111,1.83508 1.58006,4.62867 1.58136,6.4122 6.7e-4,0.94895 -0.23544,1.53812 -0.72047,1.7977 -0.11851,0.0634 -0.20072,0.18302 -0.20072,0.29199 0,0.40723 -0.4196,1.79664 -0.74054,2.45215 -0.46144,0.94248 -1.00915,1.69856 -1.75678,2.42515 -0.6008,0.58389 -0.85424,0.73157 -0.85424,0.49779 0,-0.0603 0.13097,-0.61647 0.29104,-1.23589 0.37522,-1.45192 0.59078,-2.49799 0.8396,-4.07427 0.18246,-1.15593 0.18965,-1.30152 0.0786,-1.59199 -0.11667,-0.30521 -0.31694,-1.15631 -1.33498,-5.67321 -0.24816,-1.10108 -0.48164,-2.02879 -0.51884,-2.0616 -0.0372,-0.0328 -0.42584,-0.24926 -0.86364,-0.48101 -0.93033,-0.49249 -2.59143,-1.42265 -2.71878,-1.52244 -0.0485,-0.038 -0.25783,-0.16381 -0.4652,-0.27959 -0.20738,-0.11579 -0.90492,-0.51133 -1.5501,-0.87898 -0.64517,-0.36766 -1.75129,-0.99554 -2.45802,-1.39529 l -1.28498,-0.72681 -0.55838,0.57312 c -0.30711,0.31522 -0.83941,0.81928 -1.18289,1.12012 l -0.62451,0.547 0.58262,0.31873 c 1.88368,1.03053 3.6955,2.33932 4.86073,3.51122 1.6156,1.62483 2.21414,2.8607 2.1093,4.35528 -0.0362,0.51631 -0.0116,0.64137 0.24085,1.22393 0.39611,0.91405 0.55064,1.65998 0.55596,2.68371 0.008,1.47888 -0.32218,2.49662 -1.05361,3.25071 -0.54449,0.56135 -1.13587,0.81273 -1.91648,0.81462 l -0.64561,0.002 -0.69501,0.67088 c -3.0556,2.9495 -7.06524,4.87401 -11.34003,5.44287 -0.94309,0.1255 -3.31009,0.16756 -4.01237,0.0713 -0.37444,-0.0513 -0.39196,-0.0653 -0.34019,-0.27156 0.15466,-0.61622 1.09281,-1.43672 1.9265,-1.68491 0.28596,-0.0851 0.365,-0.16319 0.53847,-0.53185 0.49091,-1.04325 1.32756,-2.11714 2.65564,-3.40865 1.576,-1.53262 3.31774,-2.79655 5.54788,-4.02594 0.1997,-0.11009 0.46363,-0.33686 0.58652,-0.50394 0.45943,-0.62464 1.71188,-1.50086 2.14531,-1.50086 0.0871,0 0.13096,-0.0774 0.13096,-0.23097 0,-0.12704 0.0338,-0.34898 0.0752,-0.49321 0.0729,-0.25405 0.0509,-0.28468 -0.70332,-0.98232 -0.79614,-0.73638 -2.98991,-3.02871 -3.6191,-3.78168 -0.19254,-0.23042 -0.61894,-0.74862 -0.94755,-1.15156 l -0.59747,-0.7326 -0.47639,0.31916 c -2.03077,1.36053 -4.80977,2.57672 -7.01193,3.06867 -0.9127,0.20389 -2.20886,0.38054 -2.79618,0.38109 -1.22261,0.001 -3.54492,-0.4775 -5.0914,-1.04933 -1.19477,-0.44178 -3.19488,-1.42912 -4.27289,-2.10927 l -0.93273,-0.58849 -0.99315,1.18253 c -0.54623,0.65039 -1.88318,2.08745 -2.971,3.19347 -1.78943,1.81936 -1.97195,2.03089 -1.91581,2.22041 0.0341,0.11521 0.0658,0.32316 0.0704,0.46212 0.007,0.22331 0.0547,0.26911 0.40754,0.39442 0.59978,0.21303 1.14369,0.60868 1.71693,1.24893 0.28352,0.31668 0.54312,0.57578 0.57688,0.57578 0.1424,0 2.28649,1.32873 3.21413,1.99185 1.36424,0.97524 2.44188,1.91548 3.28695,2.86791 0.78813,0.88825 1.79323,2.33234 1.94645,2.79659 0.0551,0.16698 0.1444,0.30363 0.19843,0.30367 0.16264,8e-5 1.13031,0.48247 1.43669,0.71616 0.30969,0.23621 0.79817,0.93661 0.79817,1.14445 0,0.0832 -0.1105,0.14659 -0.31421,0.18026 -0.30707,0.0508 -3.20738,0.0587 -3.45629,0.009 z m 3.35155,-0.31625 c 0,-0.22822 -0.52963,-0.81542 -0.94733,-1.0503 -0.57361,-0.32255 -1.07484,-0.47588 -2.22232,-0.67984 -1.15003,-0.20441 -1.5095,-0.29384 -2.10905,-0.52469 -1.18281,-0.45543 -2.18154,-1.17709 -3.10611,-2.24439 -0.46818,-0.54046 -0.96312,-1.49465 -1.58632,-3.0583 -0.23877,-0.59909 -0.57205,-1.35271 -0.74063,-1.67471 -0.37525,-0.7168 -1.41261,-1.80814 -1.94622,-2.04749 l -0.3712,-0.1665 -0.0491,1.10646 c -0.0539,1.21582 -0.13662,1.59968 -0.51448,2.38871 -0.3442,0.71873 -0.94388,1.35247 -1.61506,1.70679 l -0.55054,0.29062 0.44596,0.413 c 0.69602,0.64458 1.08232,0.98452 1.3355,1.17521 0.12829,0.0966 0.20548,0.20346 0.17153,0.23741 -0.0339,0.0339 -0.0202,0.0491 0.0305,0.0338 0.0507,-0.0154 0.44438,0.21716 0.87483,0.5167 2.4469,1.70278 5.20515,2.79086 8.48452,3.347 1.86193,0.31577 4.41554,0.44909 4.41554,0.23054 z m 9.42627,-0.0989 c 4.57617,-0.61161 8.30007,-2.29517 11.48041,-5.19026 l 0.72712,-0.66191 -0.28043,-0.13724 c -0.74519,-0.3647 -1.24467,-0.80043 -1.67612,-1.46219 -0.48122,-0.73811 -0.67577,-1.47864 -0.73381,-2.79319 l -0.049,-1.11037 -0.37705,0.18394 c -0.52928,0.2582 -1.50441,1.25972 -1.87461,1.92537 -0.17096,0.30738 -0.49358,1.00492 -0.71694,1.55009 -0.72824,1.77749 -0.78779,1.90458 -1.23008,2.62511 -0.75008,1.22195 -1.868,2.19466 -3.13774,2.73017 -0.88467,0.3731 -1.37304,0.51032 -2.5116,0.70566 -1.13065,0.19399 -1.84878,0.42201 -2.36987,0.75248 -0.41475,0.26302 -0.92556,0.88951 -0.8392,1.02924 0.072,0.1165 2.30062,0.0253 3.58894,-0.1469 z m -11.77236,-1.85211 c 0,-0.13362 -0.67246,-1.24234 -1.11358,-1.83602 -0.7013,-0.94383 -2.18708,-2.38693 -3.36723,-3.2705 -0.55197,-0.41326 -1.04213,-0.77023 -1.08926,-0.79327 -0.0471,-0.023 -0.4105,-0.25666 -0.80749,-0.51916 -1.04043,-0.68795 -1.61031,-1.01315 -1.55669,-0.88832 0.0257,0.0598 0.28966,0.69318 0.58659,1.40748 0.29692,0.7143 0.63847,1.51943 0.759,1.78917 0.59671,1.33547 1.93136,2.65508 3.36279,3.32489 0.70869,0.33162 2.11244,0.7015 3.12114,0.82241 0.0576,0.007 0.10473,-0.01 0.10473,-0.0367 z m 11.68857,-0.15879 c 0.41475,-0.0753 0.99557,-0.21073 1.29071,-0.30089 0.51556,-0.1575 1.62527,-0.71915 1.96272,-0.99337 1.46538,-1.19081 1.90139,-1.82915 2.85827,-4.18466 0.21289,-0.52407 0.46133,-1.11585 0.55209,-1.31507 0.0908,-0.19923 0.16501,-0.38217 0.16501,-0.40654 0,-0.12832 -3.36482,2.0812 -3.82059,2.5088 -0.0506,0.0475 -0.2814,0.23075 -0.51291,0.4073 -0.46191,0.35226 -1.79707,1.70366 -2.33091,2.35927 -0.53137,0.65258 -1.29554,1.8895 -1.29554,2.09703 0,0.0299 0.0848,0.0342 0.18852,0.01 0.10369,-0.0245 0.52787,-0.10624 0.94263,-0.18157 z m -33.681009,-3.87233 c -0.120099,-0.4978 -0.254163,-1.05591 -0.29792,-1.24025 -0.04376,-0.18434 -0.156102,-0.76876 -0.249657,-1.29873 -0.278158,-1.5757 -0.354137,-1.92715 -0.416629,-1.92715 -0.03264,0 -0.130415,0.0785 -0.217269,0.1745 -0.207108,0.22885 -0.655877,0.41203 -1.00944,0.41203 -0.155667,0 -0.283029,0.0228 -0.283029,0.0507 0,0.0928 0.261163,1.07501 0.38229,1.43779 0.163891,0.49086 0.560028,1.26102 0.993066,1.93069 0.409311,0.63298 1.247326,1.57434 1.289328,1.44833 0.01519,-0.0456 -0.07064,-0.49015 -0.19074,-0.98795 z m 54.850309,0.54027 c 0.42811,-0.45072 1.26569,-1.65826 1.42829,-2.05916 0.05,-0.12325 0.14236,-0.34336 0.20527,-0.48913 0.13499,-0.31278 0.41058,-1.21251 0.48986,-1.59927 0.0549,-0.26799 0.0509,-0.27231 -0.25238,-0.27231 -0.34507,0 -0.76281,-0.17335 -1.03996,-0.43155 -0.10143,-0.0945 -0.19702,-0.15861 -0.21241,-0.14245 -0.0154,0.0162 -0.14544,0.67035 -0.28899,1.45378 -0.25859,1.41119 -0.53104,2.69909 -0.67357,3.18398 -0.12836,0.43669 -0.18674,0.796 -0.12934,0.796 0.0305,0 0.24342,-0.19795 0.47323,-0.43989 z m -46.07,-1.01523 c 1.67176,-0.81792 2.44621,-2.76839 2.0289,-5.10982 -0.0645,-0.36179 -0.13684,-0.67741 -0.16079,-0.70136 -0.024,-0.0239 -0.18668,0.0686 -0.36163,0.2057 -0.41399,0.32441 -1.35572,0.69509 -1.91167,0.75247 -0.45596,0.0471 -1.17172,-0.0815 -1.56691,-0.2814 -0.33598,-0.16996 -0.84993,-0.70263 -0.97868,-1.01432 -0.0619,-0.14978 -0.14097,-0.27232 -0.17579,-0.27232 -0.0906,0 -0.38236,0.70952 -0.53412,1.29873 -0.41925,1.62777 -0.149,3.40055 0.67734,4.44318 0.73964,0.93325 1.91642,1.20114 2.98335,0.67914 z m 38.89074,0.10832 c 0.81985,-0.30675 1.53791,-1.2344 1.81124,-2.33992 0.0637,-0.25772 0.11148,-0.86708 0.10836,-1.38252 -0.006,-0.94773 -0.16321,-1.72772 -0.51596,-2.55556 l -0.16067,-0.37705 -0.17304,0.33516 c -0.55483,1.07458 -1.77997,1.58525 -3.03302,1.26424 -0.53555,-0.1372 -1.67901,-0.69636 -1.67901,-0.82104 0,-0.0364 -0.0346,-0.0661 -0.0769,-0.0661 -0.21753,0 -0.40169,1.9265 -0.2719,2.8444 0.19901,1.40751 1.19202,2.70395 2.38754,3.11709 0.57306,0.19804 1.03863,0.19262 1.60331,-0.0187 z M 96.592022,132.9737 c 0.581989,-0.3902 0.769231,-0.96103 1.586442,-4.83646 0.150624,-0.7143 0.377289,-1.77004 0.5037,-2.34609 0.126411,-0.57605 0.217397,-1.06061 0.202193,-1.0768 -0.0152,-0.0162 -0.293306,0.0154 -0.618003,0.0701 -0.5583,0.0942 -1.06462,0.053 -1.526484,-0.12429 -0.107265,-0.0412 -0.190447,0.0788 -0.388535,0.56024 -1.044465,2.5386 -1.696687,6.03278 -1.345111,7.20624 0.209113,0.69796 0.969477,0.96025 1.585798,0.54703 z m 58.853918,-0.0134 c 0.38191,-0.29129 0.49536,-0.76708 0.43662,-1.83101 -0.0477,-0.86336 -0.38268,-2.84871 -0.59268,-3.51232 -0.0626,-0.1977 -0.16355,-0.52913 -0.22441,-0.73651 -0.15502,-0.52818 -0.74884,-2.03172 -0.85143,-2.15581 -0.0549,-0.0664 -0.13403,-0.0768 -0.22296,-0.0292 -0.28346,0.15169 -0.9421,0.19151 -1.48215,0.0896 -0.30166,-0.0569 -0.56234,-0.0895 -0.57929,-0.0724 -0.0276,0.0279 0.10553,0.67185 0.62114,3.00566 0.0865,0.39171 0.25856,1.20237 0.38225,1.80146 0.27712,1.34216 0.60438,2.60038 0.73689,2.83308 0.43196,0.75857 1.2231,1.02914 1.77602,0.60741 z m -48.20078,-1.41277 c 0.29197,-0.10598 0.79271,-0.37934 1.11275,-0.60747 0.60425,-0.43072 2.8333,-2.6051 3.85302,-3.75854 0.32214,-0.36437 0.64226,-0.71972 0.71139,-0.78966 0.2813,-0.28459 1.75818,-2.07134 1.75885,-2.12786 4.2e-4,-0.0335 -0.19723,-0.21195 -0.43917,-0.39656 -1.1008,-0.83999 -1.31389,-1.00794 -2.10175,-1.65649 l -0.83764,-0.68952 -0.25846,0.15279 c -2.67759,1.583 -3.43537,2.12083 -4.84413,3.43815 -0.67532,0.63149 -1.45281,1.68452 -1.84686,2.50142 -0.2902,0.60159 -0.33873,0.78667 -0.37356,1.42441 -0.0338,0.61873 -0.0109,0.81012 0.14715,1.22791 0.47642,1.25971 1.74363,1.78044 3.11841,1.28142 z m 38.05188,0.0943 c 0.52299,-0.14923 1.04621,-0.61344 1.29904,-1.15253 0.19143,-0.4082 0.21844,-0.57183 0.21532,-1.30463 -0.003,-0.76145 -0.0278,-0.88999 -0.26959,-1.40904 -0.14631,-0.31414 -0.43907,-0.83145 -0.65056,-1.14959 -0.40406,-0.60778 -1.55023,-1.81724 -2.26026,-2.38504 -0.23042,-0.18427 -0.4378,-0.35757 -0.46084,-0.38512 -0.17612,-0.21058 -1.83154,-1.28489 -2.98922,-1.9399 -0.61639,-0.34875 -0.79008,-0.38035 -0.95955,-0.17459 -0.0928,0.1127 -1.72168,1.41948 -2.8629,2.29682 -0.12882,0.099 -0.22308,0.21068 -0.20947,0.24809 0.0294,0.0807 1.34311,1.66416 1.84921,2.22888 0.97386,1.08665 1.45086,1.58877 2.49613,2.6276 1.41186,1.40316 1.63295,1.60035 2.20337,1.96525 0.92507,0.59176 1.78053,0.76744 2.59932,0.5338 z m -14.86282,-4.99899 c 0,-0.0345 -0.16725,-0.1075 -0.37167,-0.16217 -1.11389,-0.29792 -1.55962,-1.62918 -0.85513,-2.55403 0.39758,-0.52193 0.88247,-0.76139 1.55671,-0.76876 0.74057,-0.008 1.27018,0.24827 1.61363,0.78111 0.22779,0.35341 0.24557,0.43376 0.211,0.95366 -0.0257,0.38623 -0.0856,0.62062 -0.18745,0.73315 -0.47746,0.52758 1.10355,-0.28707 3.01835,-1.55528 0.94997,-0.62917 3.12813,-2.28912 3.60149,-2.74464 0.0578,-0.0556 0.42114,-0.38335 0.80738,-0.72825 0.69502,-0.62063 3.41041,-3.31855 4.22387,-4.19669 0.99707,-1.07636 2.26615,-2.71969 2.67243,-3.46053 0.42819,-0.78078 0.89409,-1.97912 1.02128,-2.62682 0.0704,-0.35846 0.12632,-1.04765 0.12428,-1.53154 -0.0169,-3.9888 -2.77113,-7.57674 -7.8684,-10.250043 -3.06555,-1.607751 -6.11644,-2.562547 -9.73535,-3.046742 -1.65784,-0.221813 -8.0594,-0.220434 -9.71952,0.0021 -2.41073,0.323141 -4.99475,0.953738 -6.57744,1.605144 -2.88719,1.188313 -4.70093,2.177306 -6.35527,3.465401 -3.03025,2.35938 -4.65479,5.19617 -4.68075,8.17359 -0.0212,2.42617 0.97973,4.48595 3.60659,7.42227 0.80189,0.89636 3.51812,3.60866 4.44897,4.44254 0.38582,0.34563 0.74295,0.66805 0.79362,0.71648 0.21296,0.20359 2.30895,1.8833 2.65171,2.12507 1.62168,1.14386 3.86465,2.4507 3.9904,2.32496 0.0167,-0.0168 -0.0266,-0.13974 -0.0962,-0.27333 -0.29212,-0.56015 -0.10811,-1.43585 0.404,-1.92269 0.25239,-0.23993 0.83466,-0.45682 1.22643,-0.45682 0.37126,0 1.1286,0.26427 1.38626,0.48373 0.30819,0.2625 0.55321,0.76046 0.5961,1.21149 0.0777,0.81667 -0.53378,1.57296 -1.39439,1.72471 l -0.37705,0.0665 0.48071,0.18237 c 1.29168,0.49001 3.58709,0.98695 4.67231,1.0115 1.72684,-0.0536 3.50703,-0.61975 5.1111,-1.14744 z m -9.55195,-0.56208 c 0.37499,-0.19155 0.68119,-0.58687 0.72865,-0.94073 0.0635,-0.47305 -0.0898,-0.85741 -0.49401,-1.23928 -0.28145,-0.26587 -0.32187,-0.28577 -0.20816,-0.10247 0.17647,0.28449 0.18178,0.76371 0.0113,1.02384 -0.27364,0.41764 -0.9434,0.48123 -1.3653,0.12963 -0.39734,-0.33113 -0.283,-1.23548 0.17978,-1.42184 l 0.18414,-0.0742 -0.18254,-0.005 c -0.1004,-0.003 -0.2373,0.0495 -0.30423,0.11638 -0.0669,0.0669 -0.14479,0.0986 -0.17302,0.0704 -0.0282,-0.0282 -0.18098,0.0822 -0.33946,0.24537 -0.78441,0.80767 -0.30177,2.03755 0.91546,2.33283 0.29912,0.0726 0.75699,0.0137 1.04736,-0.13463 z m 10.51263,-0.0133 c 0.86763,-0.43781 1.14639,-1.3115 0.64105,-2.00911 -0.24267,-0.33499 -0.69721,-0.61616 -0.98598,-0.60991 -0.11956,0.003 -0.10281,0.0316 0.0734,0.12726 0.29305,0.15903 0.40011,0.36496 0.40011,0.76965 0,0.47916 -0.39075,0.85931 -0.88328,0.85931 -0.29103,0 -0.41045,-0.0498 -0.61848,-0.25781 -0.20912,-0.20913 -0.25781,-0.32688 -0.25781,-0.62348 0,-0.20111 0.0377,-0.38896 0.0838,-0.41744 0.0461,-0.0285 0.0838,-0.0947 0.0838,-0.14707 0,-0.18119 -0.58371,0.47118 -0.67846,0.75827 -0.38181,1.15691 0.97511,2.13908 2.14187,1.55033 z m -44.617569,-2.49669 c 0.05604,-0.32259 0.287081,-1.32177 0.513414,-2.22041 0.226333,-0.89863 0.424312,-1.69044 0.439953,-1.75957 0.02338,-0.10334 -0.09206,-0.12673 -0.649578,-0.1316 -0.37291,-0.003 -0.749573,-0.0221 -0.83703,-0.0419 -0.132914,-0.0301 -0.179817,0.0465 -0.285765,0.46677 -0.179269,0.71102 -0.171105,2.65499 0.01459,3.4731 0.14322,0.63099 0.349054,1.29746 0.452047,1.46368 0.06385,0.10306 0.203122,-0.39099 0.352373,-1.25007 z m 77.721079,0.98452 c 0.53839,-1.28256 0.67166,-3.54627 0.28826,-4.89642 -0.0852,-0.30015 -0.0951,-0.30643 -0.3439,-0.21969 -0.14089,0.0491 -0.51163,0.071 -0.82386,0.0487 l -0.5677,-0.0406 0.0634,0.2603 c 0.0349,0.14317 0.21946,0.88244 0.41018,1.64282 0.26355,1.05071 0.75713,3.32309 0.75984,3.49819 0.002,0.10638 0.10624,-0.0371 0.21376,-0.29326 z m -65.844095,-0.0701 c 0.844489,-0.28007 1.191091,-0.466 4.171435,-2.23762 0.69125,-0.41091 1.52077,-0.90064 1.84335,-1.08828 0.32259,-0.18765 0.99228,-0.58904 1.4882,-0.89199 0.49592,-0.30294 1.14765,-0.68544 1.44829,-0.84999 0.94533,-0.51742 0.94354,-0.45505 0.0402,-1.39627 -1.22634,-1.2778 -1.25159,-1.29909 -1.47451,-1.24314 -0.46588,0.11693 -3.29627,1.57783 -4.39293,2.2674 -0.91746,0.5769 -3.275861,2.19697 -3.818686,2.6232 -0.134792,0.10584 -0.498826,0.44194 -0.808964,0.74688 -0.669575,0.65836 -0.899579,1.13475 -0.737168,1.52685 0.09444,0.22799 0.355129,0.46332 0.672638,0.60719 0.236203,0.10704 1.166616,0.0689 1.568115,-0.0642 z m 55.183485,0.0387 c 0.85949,-0.44267 0.80461,-1.14995 -0.16496,-2.12615 -0.6227,-0.62696 -2.86126,-2.25274 -4.56662,-3.31656 -0.99982,-0.62369 -2.94684,-1.65403 -3.94008,-2.08503 l -0.64336,-0.27918 -0.23858,0.20103 c -0.13122,0.11057 -0.62232,0.59956 -1.09133,1.08665 l -0.85275,0.88562 0.54364,0.32932 c 0.299,0.18113 0.76989,0.46129 1.04643,0.62258 0.27653,0.1613 0.90677,0.5347 1.40052,0.82978 0.49375,0.29508 1.21823,0.72577 1.60994,0.95708 0.39171,0.23132 1.07041,0.63372 1.5082,0.89424 2.22641,1.32484 2.78705,1.62194 3.64482,1.93146 0.47724,0.1722 1.46779,0.21148 1.74413,0.0692 z m -66.197896,-5.51916 c 0.450811,-0.21213 0.74087,-0.54608 2.438376,-2.80738 0.761072,-1.01385 1.686647,-2.24507 2.056834,-2.73604 0.6972,-0.92469 0.712263,-0.99257 0.22028,-0.99257 -0.278542,0 -1.070379,-0.38187 -1.301105,-0.62746 -0.108728,-0.11574 -0.246415,-0.21043 -0.305973,-0.21043 -0.136886,0 -1.965537,1.81588 -2.446964,2.42988 -0.638684,0.81456 -1.105909,1.45877 -1.276154,1.75957 -0.09129,0.16129 -0.240128,0.40638 -0.330756,0.54463 -0.233877,0.35678 -0.472582,0.89037 -0.619247,1.38425 -0.163994,0.55223 -0.04501,0.95771 0.361246,1.23109 0.350416,0.23581 0.737577,0.24368 1.203463,0.0245 z m 76.870876,-0.0996 c 0.26334,-0.2474 0.36274,-0.65045 0.26629,-1.07976 -0.0806,-0.35871 -0.45886,-1.18104 -0.74886,-1.62804 -0.34625,-0.53368 -1.05836,-1.55164 -1.41436,-2.02183 -0.44441,-0.58696 -2.37858,-2.54467 -2.51406,-2.54467 -0.0523,0 -0.17832,0.0787 -0.28008,0.17501 -0.23899,0.22605 -0.92991,0.57909 -1.13331,0.57909 -0.0868,0 -0.27476,0.0408 -0.41763,0.0906 l -0.25978,0.0906 0.26822,0.35756 c 0.14752,0.19666 0.42228,0.56124 0.61059,0.81018 0.1883,0.24893 1.00557,1.33867 1.81615,2.42165 0.81058,1.08297 1.58028,2.08467 1.71046,2.22601 0.29927,0.32492 0.77297,0.67607 0.99078,0.73444 0.32228,0.0864 0.90819,-0.0253 1.10559,-0.21076 z m -68.26247,-6.77277 c 0.898637,-0.0926 2.7442,-0.28221 4.10125,-0.42132 1.35705,-0.13911 2.47813,-0.2637 2.49129,-0.27686 0.0132,-0.0132 -0.0144,-0.15339 -0.0612,-0.31163 -0.12917,-0.4367 -0.32992,-1.82744 -0.33048,-2.28946 l -5e-4,-0.40974 -1.78052,0.0472 c -1.977511,0.0524 -3.082231,0.17471 -5.536587,0.613 -2.87732,0.51383 -3.869304,0.86512 -4.186441,1.48252 -0.155388,0.30251 -0.15656,0.33512 -0.02447,0.681 0.166928,0.43709 0.308065,0.57389 0.830509,0.80499 0.822403,0.36379 1.610103,0.37786 4.497121,0.0803 z m 62.4228,0.0672 c 0.61484,-0.14908 1.20281,-0.63468 1.29905,-1.07287 0.0262,-0.11907 -0.003,-0.33728 -0.0653,-0.48492 -0.25058,-0.59597 -1.11077,-0.95609 -3.32844,-1.39348 -2.84944,-0.56199 -4.92725,-0.79902 -7.01733,-0.80054 l -1.194,-8.6e-4 v 0.37099 c 0,0.52473 -0.15269,1.60172 -0.30209,2.13074 -0.0697,0.24689 -0.11511,0.45973 -0.10086,0.47298 0.0371,0.0345 0.59747,0.10172 2.07873,0.24921 0.71431,0.0711 1.63808,0.16674 2.05283,0.21247 0.41476,0.0457 1.52706,0.15802 2.47178,0.24952 0.94472,0.0915 1.84964,0.18183 2.01094,0.20073 0.42938,0.0503 1.65915,-0.0284 2.09472,-0.13397 z m -74.655993,-3.1508 c 0,-0.12854 1.497715,-2.033 2.65637,-3.37778 0.382354,-0.44377 0.695189,-0.83025 0.695189,-0.85883 0,-0.0286 -0.07748,-0.052 -0.172174,-0.052 -0.258737,0 -0.849074,-0.29291 -1.074094,-0.53293 l -0.198906,-0.21217 -0.267154,0.31976 c -0.426554,0.51055 -0.78211,1.10556 -1.102663,1.84526 -0.502428,1.15939 -0.877906,2.93711 -0.620357,2.93711 0.04608,0 0.08379,-0.0308 0.08379,-0.0684 z m 82.833113,-1.03494 c -0.0702,-0.33786 -0.22389,-0.89642 -0.34159,-1.24123 -0.20713,-0.60682 -0.94425,-2.0038 -1.18361,-2.24317 -0.0646,-0.0646 -0.15626,-0.18994 -0.20366,-0.27851 -0.11242,-0.21006 -0.26754,-0.20393 -0.46531,0.0184 -0.19242,0.21628 -0.7568,0.48652 -1.0214,0.48906 -0.22751,0.002 -0.17754,0.12497 0.23948,0.58837 0.14514,0.16129 0.49536,0.57265 0.77825,0.91412 0.28291,0.34147 0.62996,0.75623 0.77125,0.92168 0.14129,0.16545 0.34731,0.43278 0.45783,0.59408 0.11052,0.16129 0.39082,0.53707 0.62289,0.83506 l 0.42197,0.5418 0.0257,-0.26266 c 0.0142,-0.14447 -0.0317,-0.5391 -0.10184,-0.87696 z M 88.319213,104.1781 c 0.27268,-0.10401 1.42203,-0.68326 3.320702,-1.67359 0.714301,-0.37257 1.722885,-0.89411 2.241298,-1.15898 0.518412,-0.26487 0.942594,-0.50562 0.942626,-0.53499 3.2e-5,-0.0294 -0.204255,-0.2179 -0.45397,-0.41895 -0.32789,-0.26398 -0.52065,-0.506872 -0.693831,-0.874273 l -0.239803,-0.508737 -0.961002,0.311758 c -1.736764,0.563421 -3.110694,1.210842 -4.554179,2.146012 -1.298922,0.84152 -1.807098,1.46029 -1.694072,2.06277 0.13932,0.74264 1.080906,1.03471 2.092231,0.64898 z m 75.773167,-0.001 c 0.63641,-0.38804 0.66969,-1.08026 0.0816,-1.69821 -0.32742,-0.34406 -1.01079,-0.87327 -1.48362,-1.14894 -0.11378,-0.0663 -0.45196,-0.27119 -0.75151,-0.45524 -0.7622,-0.46832 -2.2084,-1.103448 -3.38601,-1.487038 -0.54891,-0.178801 -1.03908,-0.325004 -1.08926,-0.324894 -0.0502,8.4e-5 -0.20128,0.210804 -0.33578,0.468211 -0.14235,0.27243 -0.43167,0.629561 -0.69232,0.854591 -0.35265,0.30445 -0.42529,0.40728 -0.34197,0.48405 0.20263,0.18671 5.91454,3.11349 6.45829,3.30923 0.57845,0.20823 1.19731,0.20752 1.54055,-0.002 z m -60.07705,-0.48518 c 0.29516,-0.46554 0.8297,-1.16492 1.25971,-1.64816 0.24279,-0.27284 0.44143,-0.52066 0.44143,-0.55071 0,-0.0992 -2.99967,-1.497099 -3.51914,-1.639977 -0.0691,-0.01901 -0.61585,-0.207024 -1.21494,-0.417804 -0.59909,-0.210781 -1.504015,-0.490924 -2.010938,-0.622541 -0.506923,-0.131619 -1.374139,-0.362753 -1.927147,-0.513633 -0.816493,-0.222768 -1.165626,-0.275224 -1.857612,-0.279102 -0.990982,-0.0056 -1.269856,0.123587 -1.403309,0.649835 -0.259828,1.024585 0.896353,1.999762 3.428499,2.891752 0.506924,0.17857 2.015125,0.72105 3.351557,1.20551 2.65211,0.96138 3.15288,1.13865 3.2449,1.14864 0.0335,0.004 0.12664,-0.0971 0.20699,-0.22381 z m 44.82137,-0.40854 c 0.96183,-0.35144 2.20123,-0.80052 2.75424,-0.99797 3.07836,-1.09913 3.56002,-1.29731 4.30188,-1.77007 0.58864,-0.37512 0.8923,-0.685794 1.05805,-1.082495 0.19788,-0.473591 0.1644,-0.829892 -0.10646,-1.133038 -0.2111,-0.236264 -0.29437,-0.266954 -0.82789,-0.305126 -0.60971,-0.04362 -1.69205,0.112874 -2.49843,0.361256 -0.23042,0.07097 -0.90911,0.258418 -1.5082,0.416542 -1.34613,0.355295 -4.2926,1.359391 -4.5207,1.540561 -0.0482,0.0383 -0.18196,0.0985 -0.29717,0.13382 -0.34418,0.10544 -2.09473,0.98608 -2.09473,1.05379 0,0.0344 0.17652,0.25661 0.39227,0.49368 0.49805,0.54728 1.26501,1.57013 1.32936,1.7729 0.0271,0.0853 0.0987,0.15511 0.15913,0.15511 0.0604,0 0.89683,-0.28753 1.85865,-0.63896 z"
                                   id="path16070"
                                   sodipodi:nodetypes="ccsccssscssscscsssssscssscssssssssscsscsscccssscssssscccsccssscscsssssscssssssscsssssssscsscccssssscsscssccsscssscssssssssccsccsscsssscccsssssssssssssscsscsssscsccsscscssssssccsscsscsscsscccssssscssccccssssscsccsscscsccscccscssccsssssssscccsscssscsccccssscscsssccccssscsssssccssscssssssssccscscsssssscscsssssssscssscccscccccssccccssccssssccscsssscssscccssscccssssccscsccsssssscssssccsscsccssscscscccccscsccccccccccsccsscscssccssscscssssscscccscsscsssscsssssscccssscsscsssscscccsssssssssscccsssscsccsssscccssscsccsssssscccsscscsccssccssssscssssscsssccsssssccccsssscscsssscscsscsssscccsssssscsscccssssssssscsscss" /></g></g></g></g></g></g></g></g></g></g></g></g></g></g></g></g></g></g></g></g></g></g></g></g></g></g></g></g></g></g></g></g></g></g></g></g></svg>
