<?xml version="1.0" encoding="UTF-8" standalone="no"?>
<!-- Created with Inkscape (http://www.inkscape.org/) -->

<svg
   width="64"
   height="64"
   viewBox="0 0 16.933333 16.933334"
   version="1.1"
   id="svg5"
   inkscape:version="1.2 (dc2aedaf03, 2022-05-15)"
   sodipodi:docname="trevise.svg"
   xmlns:inkscape="http://www.inkscape.org/namespaces/inkscape"
   xmlns:sodipodi="http://sodipodi.sourceforge.net/DTD/sodipodi-0.dtd"
   xmlns="http://www.w3.org/2000/svg"
   xmlns:svg="http://www.w3.org/2000/svg">
  <sodipodi:namedview
     id="namedview7"
     pagecolor="#ffffff"
     bordercolor="#666666"
     borderopacity="1.0"
     inkscape:pageshadow="2"
     inkscape:pageopacity="0.0"
     inkscape:pagecheckerboard="0"
     inkscape:document-units="mm"
     showgrid="false"
     units="px"
     inkscape:zoom="16"
     inkscape:cx="18.96875"
     inkscape:cy="30"
     inkscape:window-width="1920"
     inkscape:window-height="1017"
     inkscape:window-x="1912"
     inkscape:window-y="-8"
     inkscape:window-maximized="1"
     inkscape:current-layer="g7498"
     inkscape:showpageshadow="0"
     inkscape:deskcolor="#d1d1d1" />
  <defs
     id="defs2" />
  <g
     inkscape:label="Calque 1"
     inkscape:groupmode="layer"
     id="layer1">
    <g
       id="g4128"
       transform="translate(-0.63104184,0.12620835)">
      <g
         id="g5578"
         transform="translate(0.08924235,0.08924306)">
        <g
           id="g7501"
           transform="translate(-0.06310417,0.94656242)">
          <g
             id="g9467"
             transform="translate(-0.08924275,-0.80318511)">
            <g
               id="g10302"
               transform="translate(0.31234979,-0.04462139)">
              <g
                 id="g11479"
                 transform="translate(-0.12620833,0.06310418)">
                <g
                   id="g11873"
                   transform="translate(-0.23575769,0.66462456)">
                  <g
                     id="g12382"
                     transform="translate(-121.98459,-82.267525)">
                    <g
                       id="g13305"
                       transform="matrix(0.13266609,0,0,0.13266609,114.63867,78.215696)">
                      <g
                         id="g17429"
                         transform="translate(0.90513437,5.6640979)">
                        <g
                           id="g18595"
                           transform="translate(-3.3634362,-8.7449387)">
                          <g
                             id="g21002"
                             transform="translate(1.7082278,-2.8204445)">
                            <g
                               id="g23814"
                               transform="translate(8.7253043,-1.1218249)">
                              <g
                                 id="g24838"
                                 transform="translate(11.143454,-0.85716864)">
                                <g
                                   id="g25315"
                                   transform="translate(-3.490122,2.4929446)">
                                <g
                                   id="g27220"
                                   transform="translate(2.4678888,1.2339445)">
                                <g
                                   id="g29753"
                                   transform="translate(1.4759287,-2.3737724)">
                                <g
                                   id="g30615"
                                   transform="translate(0.92006037,1.3687834)">
                                <g
                                   id="g31433"
                                   transform="translate(-2.4678886,-1.410222)">
                                <g
                                   id="g31731"
                                   transform="translate(1.0576664,-0.70511063)">
                                <g
                                   id="g33243"
                                   transform="matrix(1.0772948,0,0,1.0772948,-7.3729128,-3.1743014)">
                                <g
                                   id="g35254"
                                   transform="translate(-2.2135012,-0.92031205)">
                                <g
                                   id="g36749"
                                   transform="translate(-0.98178042,-2.7817105)">
                                <g
                                   id="g37297"
                                   transform="translate(-6.7755742,-3.5033798)">
                                <g
                                   id="g38955"
                                   transform="matrix(1.2171094,0,0,1.2171094,-23.105122,-18.212482)">
                                <g
                                   id="g39618"
                                   transform="translate(-0.26888273,-0.26888316)">
                                <g
                                   id="g40032"
                                   transform="translate(-1.90129,-3.042064)">
                                <g
                                   id="g40543"
                                   transform="translate(0.3802582,-2.0914191)">
                                <g
                                   id="g41372"
                                   transform="translate(1.9657652,-7.9304203)">
                                <g
                                   id="g43278"
                                   transform="translate(1.5210324,-0.38025789)">
                                <g
                                   id="g44210"
                                   transform="matrix(1.1578947,0,0,1.1578947,-18.904476,-21.776183)">
                                <g
                                   id="g44833"
                                   transform="matrix(1.1196819,0,0,1.1196819,-12.538538,-14.547543)">
                                <g
                                   id="g47597"
                                   transform="translate(3.1109352,-1.2443743)">
                                <g
                                   id="g48754"
                                   transform="translate(-2.9035392,-6.6366609)">
                                <g
                                   id="g234"
                                   transform="matrix(0.04089637,0,0,0.04089637,104.63967,119.67231)">
                                <g
                                   id="g2138"
                                   transform="translate(-86.211222,-40.569988)">
                                <g
                                   id="g2696"
                                   transform="translate(-124306.44,-9412.2373)">
                                <g
                                   id="g3765"
                                   transform="translate(25.356243,-50.712489)">
                                <g
                                   id="g4557"
                                   transform="translate(46.61688,-35.859142)">
                                <g
                                   id="g7263"
                                   transform="translate(64.546461,14.343657)">
                                <g
                                   id="g7498"
                                   transform="translate(-32.963113,15.213746)">
                                <path
                                   style="fill:#aa0044;stroke-width:1.74134"
                                   d="m 124285.79,10259.52 c -52.26,-30.252 -55.01,-104.624 -89.24,-152.596 -63.54,-126.7826 -124.67,-254.9585 -192.73,-379.3608 -41.24,-51.2894 -95.87,-94.2075 -130.47,-147.2991 25.41,-39.8645 -37.15,-98.2163 25.17,-123.1081 -33.52,-42.0947 24.76,-60.1366 39.96,-71.1663 -28.04,-19.4019 -20.8,-60.8329 -21.45,-81.6676 -58.65,-36.8069 11.43,-103.7114 -4.96,-94.2539 -37.44,-30.1611 -1.12,-77.7827 30.11,-79.1552 -7.51,-61.686 66.74,-36.3583 96.3,-67.2758 33.3,-1.3173 40.59,39.3883 73.69,10.9363 43.16,-8.2616 56.43,77.5567 51.14,-0.6046 26.7,-27.2211 37.6,-33.9391 21.18,-72.2075 3.85,-46.5992 77.97,-31.7046 51.3,-81.3007 9.46,-58.1605 88.38,-10.2813 90.49,-67.5051 31.21,-21.8328 65.57,0.2175 83.71,-39.8268 43.09,-10.7851 66.77,30.158 112.36,17.3988 22.28,52.452 108.71,7.417 110.82,78.6889 -9.4,30.681 88.35,14.906 70.72,73.4264 -27.61,35.8681 57.48,36.2555 35.97,83.0827 1.83,-73.5973 80.42,-13.211 103.07,-62.6871 37.27,14.8597 68.35,1.4738 104.96,15.4673 7.71,35.3822 17.22,38.6359 51.04,47.9963 31.95,33.9736 -26.54,68.6012 28.24,84.8626 28.55,43.5861 -36.05,69.7018 -0.42,108.1718 -4.25,26.5921 -43.97,60.6677 10.77,51.4969 39.44,22.448 1.47,65.0412 51.9,73.1458 16.92,39.2609 -12.19,69.0748 15.63,104.2204 -37.18,64.0393 -76.99,133.2615 -130.15,188.9202 -59.72,42.6263 -98.98,102.8437 -128.38,169.2909 -65.76,130.9836 -133.64,261.8433 -191.53,396.0883 -35.7,33.269 -88.84,14.916 -133.35,19.327 -32.37,8.774 -37.31,-9.887 -32.63,-38.165 1.46,-38.122 -2.9,-78.035 2.15,-115.043 44.64,-71.57 128.51,-108.8475 210.3,-114.9583 -86.44,-8.2639 -175.6,30.0093 -231.01,96.9103 -2.67,-107.0125 91.2,-189.3195 190.04,-209.4687 30.58,-5.2018 113.05,-17.67 35.52,-15.0241 -90.89,7.5626 -184.77,52.7447 -227.53,136.7458 -7.79,-95.653 48.66,-187.8979 119.89,-247.9336 43.12,-42.8062 113.97,-52.8526 163.22,-65.5067 -129.26,-7.5344 -240.03,93.1452 -286.09,207.6328 -4.66,-77.0976 -8.73,-160.7428 40.44,-225.9225 42,-64.4957 112.41,-100.9475 179.6,-132.6958 -50.14,2.7372 -107.98,42.3592 -150.93,75.7972 -31.65,22.3055 -56.2,72.097 -74.13,92.0933 -4.92,-78.2243 0.85,-159.6244 -9.1,-235.872 -30.18,40.6755 -8.39,125.9844 -17.85,183.5902 -0.87,36.3785 3.33,92.9086 -21.41,27.7572 -45.28,-74.7504 -124.61,-122.999 -206.5,-148.2867 33.59,32.7579 100.29,48.6359 136.34,90.3903 79.11,67.9784 96.03,179.5004 84.41,277.9833 -45.16,-114.8311 -151.22,-214.7448 -280.41,-214.3502 -14.41,15.2765 78.2,11.2662 98.89,32.7592 105.3,50.5067 176.73,165.864 179.7,281.628 -18.02,-20.8409 -69.75,-95.7907 -120.61,-107.5865 -45.81,-19.5359 -101.47,-35.9905 -149.27,-26.1657 74.88,10.7635 159.28,29.4008 212.39,90.9171 33.03,24.9678 58.19,114.8341 45.35,124.3191 -54.4,-63.98 -141.41,-97.5933 -224.65,-90.1623 82.24,9.1033 174.65,45.3983 212.33,123.5493 0.79,48.356 1.59,96.712 2.39,145.068 -38.86,-0.764 -78.03,1.658 -116.69,-2.506 z"
                                   id="path7504" />
                                <path
                                   style="fill:#800033;stroke-width:1.74134"
                                   d="m 124490.26,10188.548 c 2.81,-36.271 -13.15,-78.934 21.21,-105.307 47.38,-56.044 120.11,-80.672 190.83,-89.4157 -84.42,-10.808 -173.26,27.5057 -229.43,91.4557 -1.79,-114.7996 109.72,-194.6435 214.5,-208.3781 22.54,3.9759 77.15,-13.7522 23.62,-12.7445 -95.67,4.0347 -196.4,47.8328 -242.93,135.5916 -2.44,-110.9882 68.53,-217.8511 163.41,-271.9083 31.32,-27.5524 99.15,-20.6959 120.08,-39.9036 -127.54,-6.9717 -237.71,90.7871 -284.77,203.1919 -5.67,-77.0342 -7.22,-160.413 43.67,-224.3665 41.92,-61.1426 109.39,-95.8878 174.69,-126.055 -42.39,-8.8697 -115.04,43.323 -155.87,77.0225 -27.43,17.5919 -63.84,87.5898 -67.9,83.1872 -3.78,-159.4552 -4.47,-318.9779 -5.55,-478.4715 -58.13,-6.4729 -24.21,66.4956 -75.23,64.5649 -18.6,35.8114 -9.5,32.2643 -20.54,-1.6996 -34.59,-6.4864 -45.16,-20.4255 -71.3,-39.4638 -28,13.1379 -85.25,-31.4053 -68.56,31.7075 -16,-8.1152 -15.82,-18.3056 -52.54,-2.6794 -20.98,31.3346 11.19,54.5323 -36.26,61.0912 -22.91,29.6935 12.46,60.5473 -19.46,85.9906 8.72,25.3487 13.95,48.6412 -20.24,35.6206 -34.51,10.2276 -5.02,54.0436 -47.16,45.5788 -18.06,14.9501 -21.33,104.7231 -40.9,41.8667 -24.49,-39.0721 11.84,17.3436 -23.22,15.309 -18.66,16.2082 19.86,90.4129 -14.41,70.2907 -53.43,-32.9375 -26.79,-84.6961 -36.57,-132.19 29.91,-25.4545 17.16,-76.9743 61.9,-80.8263 -32.86,-34.1162 5.69,-69.6086 -32.47,-99.57 -12,-37.1804 43.64,-44.0136 7.07,-74.827 -7.16,-47.1735 55.35,-27.8834 46.81,-74.026 40.14,-7.9833 82.9,-38.4824 118.4,-7.692 32.63,-18.828 63.29,34.1426 74.41,-18.1766 39.46,-9.1467 -18.4,-65.7694 37.07,-78.0704 40.97,0.5909 4.49,-78.5063 67.2,-64.7902 28.83,-2.7361 45,-48.2032 83.86,-35.347 14.16,-50.4601 81.74,16.2855 62.11,-48.4909 7.47,-31.6856 -19.12,-117.6176 23.56,-86.2865 55.04,-21.6006 63.5,50.5084 113.38,31.6779 63.73,2.3178 6.78,84.3421 72.42,67.1588 64.68,14.5583 5.44,85.807 65.85,96.2086 10.95,26.7779 2.99,60.8505 15.8,13.9967 27.92,-33.6757 71.37,3.716 94.55,-34.4924 35.56,1.8322 54.56,16.7326 91.14,5.2352 34.46,14.5449 13.17,57.3883 59.14,51.4549 47.9,28.1908 -27.42,75.7207 32.3,86.7465 39.79,39.056 -39.22,71.2294 1.97,102.1296 -0.15,33.6462 -45.05,69.8086 14.65,62.3628 39.73,17.7142 -9.19,67.5876 43.67,66.6554 32.8,32.3005 -16.12,71.6144 20.17,101.0231 -24.25,64.5837 -72.54,125.098 -116.17,181.7092 -52.36,47.7139 -105.88,94.4622 -131.45,163.0466 -70.77,137.5548 -141.15,276.2501 -202.5,417.8091 -33.46,31.402 -83.88,14.266 -125.69,18.865 -25.95,3.801 -46.75,2.337 -37.77,-29.516 -0.19,-14.618 -0.37,-29.235 -0.55,-43.854 z m -462.49,-764.9308 c 45.38,6.3162 31.26,-71.522 83.22,-47.7936 -20.94,-38.9497 25.44,-65.3605 1.86,-103.5185 23.84,-41.5157 3.94,-40.5278 -27.05,-19.6306 -50.36,-16.3568 -24.28,51.8932 -68.59,46.8299 -26.86,32.5747 28.08,55.1238 -15.12,79.524 -7.34,12.602 9.73,56.4478 25.68,44.5888 z m 354.97,-204.7091 c 2.09,-41.9706 60.07,-21.9825 46.66,-67.3347 39.05,-19.3077 24.82,-62.3327 24.77,-98.3916 -41.09,-23.8285 -53.95,32.7485 -95.79,20.796 -10.76,43.7008 -92.9,12.2968 -74.97,74.6331 37.42,10.0221 46.59,39.9801 88.38,42.8065 15.54,0.6174 1.33,53.0571 10.95,27.4907 z"
                                   id="path7502" />
                                <path
                                   style="fill:#aa0044;stroke-width:1.74134"
                                   d="m 124911.24,9719.9293 c -20.18,-17.1163 43.71,-35.6844 20.91,-68.1185 52.4,-0.586 33.02,-110.1891 -0.95,-47.5207 -12.15,9.9292 -19.78,-31.2024 -5.53,-41.6709 6.09,-36.2341 -44.01,-30.8822 -27.15,-65.2024 -3,-31.623 -64.57,-13.8965 -26.78,-48.182 8.04,-18.4891 -20.31,14.4937 -28.1,-9.7695 -25.54,-27.5751 -66.7,44.6113 -48.06,-2.2567 11.67,-28.5578 -37.71,-40.4938 -2.5,-61.0327 24.59,-42.6443 -59.5,-47.8991 -20.67,-78.9136 11.65,-36.8421 -40.76,-39.5227 -49.18,-51.0399 -16.37,-31.2089 -59.92,-2.0063 -62.94,19.1089 21.66,-40.5511 -49.9,-39.3561 -21.61,-74.6126 2.46,-42.8713 -26.78,8.2826 -44.63,-18.4601 -32.67,-13.7204 -42.04,37.133 -71.85,11.1082 -34.75,-13.1992 -40.21,34.5161 -47.63,42.2561 -26.55,4.0159 -17.27,-20.0295 -18.69,-37.0075 1.71,-26.5743 -12.09,-76.2608 31.51,-61.8274 19.85,10.0423 12.63,-40.8939 35,-43.3109 -18.8,-36.7484 -83.18,4.1802 -66.28,-56.5047 5.02,-30.7535 -16.36,-81.7515 31.94,-67.224 35.58,-0.8882 35.58,46.7589 72.41,32.9012 37,-1.8452 32.23,46.6355 34.91,57.2931 38.36,-5.5757 49.44,46.1735 86.27,21.1747 36.62,1.8532 20.44,51.3373 60.91,42.3838 20.35,12.8182 50.48,19.8734 69.1,23.3356 35.63,-21.0116 48.69,23.6117 56.89,38.5935 48,-4.1242 28.26,56.8203 30.83,70.6824 46.34,19.3671 0.29,62.7428 5.67,85.3418 9.27,20.7076 -3.29,50.9668 29.41,27.8328 36.25,-5.9656 40.64,38.5178 75.49,35.9798 24.82,21.7219 -10.99,49.9693 28.73,57.2133 29.22,35.2913 -38.17,53.3587 -5.07,84.6495 4.8,39.8196 -50.19,43.6087 -37.42,83.6325 -12.86,16.6302 -49.74,36.3062 -11.18,43.0108 -21,19.3637 -43.66,57.8784 -73.76,56.1561 z m 54.02,-147.7438 c 25.45,-11.7075 8.55,-66.0674 -11.33,-52.1416 28.24,9.3883 -5.53,66.1407 11.33,52.1416 z m -118.5,-199.7389 c 11.23,-21.6843 59.53,-18.852 17.51,-40.5417 0.75,-8.9217 16.04,-68.4025 -18.09,-60.5065 5.57,27.9549 -35.43,39.6901 -2.79,58.7029 18.9,12.2892 -16.97,55.1652 3.37,42.3453 z m -18.16,-132.4515 c -21.64,-24.0458 -28.06,-7.9562 0,0 z m -835.55,271.1145 c 5.12,-25.6806 30.63,-35.7417 20.6,-65.9568 17.02,-40.0435 -14.12,33.0322 18.61,41.5595 7.44,21.8907 -42.47,15.5327 -39.72,33.5172 0.17,-3.04 0.34,-6.0799 0.51,-9.1199 z m 208.67,-254.6151 c -23.34,-16.2552 -59.1,9.6808 -67.77,-20.5242 41.25,3.1431 -2.68,-66.8755 48.97,-63.1398 8.29,21.0484 8.78,16.8579 11.17,-0.7637 15.13,-3.2082 29.24,-48.8139 60.28,-25.8751 7.54,18.6727 52.65,-3.1067 15.4,13.9314 -36.9,5.4368 -30.55,49.7817 -26.71,67.6109 -16.04,3.9 -29.48,27.7585 -41.34,28.7605 z"
                                   id="path7500" />
                                </g>
                                </g>
                                </g>
                                </g>
                                </g>
                                </g>
                                </g>
                                </g>
                                </g>
                                </g>
                                </g>
                                </g>
                                </g>
                                </g>
                                </g>
                                </g>
                                </g>
                                </g>
                                </g>
                                </g>
                                </g>
                                </g>
                                </g>
                                </g>
                                </g>
                                </g>
                                </g>
                              </g>
                            </g>
                          </g>
                        </g>
                      </g>
                    </g>
                  </g>
                </g>
              </g>
            </g>
          </g>
        </g>
      </g>
    </g>
  </g>
</svg>
