<?xml version="1.0" encoding="UTF-8" standalone="no"?>
<!-- Created with Inkscape (http://www.inkscape.org/) -->

<svg
   width="64"
   height="64"
   viewBox="0 0 16.933333 16.933334"
   version="1.1"
   id="svg5"
   inkscape:version="1.2 (dc2aedaf03, 2022-05-15)"
   sodipodi:docname="veau.svg"
   xmlns:inkscape="http://www.inkscape.org/namespaces/inkscape"
   xmlns:sodipodi="http://sodipodi.sourceforge.net/DTD/sodipodi-0.dtd"
   xmlns="http://www.w3.org/2000/svg"
   xmlns:svg="http://www.w3.org/2000/svg">
  <sodipodi:namedview
     id="namedview7"
     pagecolor="#ffffff"
     bordercolor="#666666"
     borderopacity="1.0"
     inkscape:pageshadow="2"
     inkscape:pageopacity="0.0"
     inkscape:pagecheckerboard="0"
     inkscape:document-units="mm"
     showgrid="false"
     units="px"
     inkscape:zoom="8"
     inkscape:cx="35.6875"
     inkscape:cy="29"
     inkscape:window-width="1920"
     inkscape:window-height="1017"
     inkscape:window-x="1912"
     inkscape:window-y="-8"
     inkscape:window-maximized="1"
     inkscape:current-layer="g18984"
     inkscape:showpageshadow="2"
     inkscape:deskcolor="#d1d1d1" />
  <defs
     id="defs2" />
  <g
     inkscape:label="Calque 1"
     inkscape:groupmode="layer"
     id="layer1">
    <g
       id="g4128"
       transform="translate(-0.63104184,0.12620835)">
      <g
         id="g5578"
         transform="translate(0.08924235,0.08924306)">
        <g
           id="g7501"
           transform="translate(-0.06310417,0.94656242)">
          <g
             id="g9467"
             transform="translate(-0.08924275,-0.80318511)">
            <g
               id="g10302"
               transform="translate(0.31234979,-0.04462139)">
              <g
                 id="g11479"
                 transform="translate(-0.12620833,0.06310418)">
                <g
                   id="g11873"
                   transform="translate(-0.23575769,0.66462456)">
                  <g
                     id="g12382"
                     transform="translate(-121.98459,-82.267525)">
                    <g
                       id="g13305"
                       transform="matrix(0.13266609,0,0,0.13266609,114.63867,78.215696)">
                      <g
                         id="g17429"
                         transform="translate(0.90513437,5.6640979)">
                        <g
                           id="g18595"
                           transform="translate(-3.3634362,-8.7449387)">
                          <g
                             id="g21002"
                             transform="translate(1.7082278,-2.8204445)">
                            <g
                               id="g23814"
                               transform="translate(8.7253043,-1.1218249)">
                              <g
                                 id="g24838"
                                 transform="translate(11.143454,-0.85716864)">
                                <g
                                   id="g25315"
                                   transform="translate(-3.490122,2.4929446)">
                                <g
                                   id="g27220"
                                   transform="translate(2.4678888,1.2339445)">
                                <g
                                   id="g29753"
                                   transform="translate(1.4759287,-2.3737724)">
                                <g
                                   id="g30615"
                                   transform="translate(0.92006037,1.3687834)">
                                <g
                                   id="g31433"
                                   transform="translate(-2.4678886,-1.410222)">
                                <g
                                   id="g31731"
                                   transform="translate(1.0576664,-0.70511063)">
                                <g
                                   id="g33243"
                                   transform="matrix(1.0772948,0,0,1.0772948,-7.3729128,-3.1743014)">
                                <g
                                   id="g35254"
                                   transform="translate(-2.2135012,-0.92031205)">
                                <g
                                   id="g36749"
                                   transform="translate(-0.98178042,-2.7817105)">
                                <g
                                   id="g37297"
                                   transform="translate(-6.7755742,-3.5033798)">
                                <g
                                   id="g38955"
                                   transform="matrix(1.2171094,0,0,1.2171094,-23.105122,-18.212482)">
                                <g
                                   id="g39618"
                                   transform="translate(-0.26888273,-0.26888316)">
                                <g
                                   id="g40032"
                                   transform="translate(-1.90129,-3.042064)">
                                <g
                                   id="g40543"
                                   transform="translate(0.3802582,-2.0914191)">
                                <g
                                   id="g41372"
                                   transform="translate(1.9657652,-7.9304203)">
                                <g
                                   id="g43278"
                                   transform="translate(1.5210324,-0.38025789)">
                                <g
                                   id="g44210"
                                   transform="matrix(1.1578947,0,0,1.1578947,-18.904476,-21.776183)">
                                <g
                                   id="g44833"
                                   transform="matrix(1.1196819,0,0,1.1196819,-12.538538,-14.547543)">
                                <g
                                   id="g47597"
                                   transform="translate(3.1109352,-1.2443743)">
                                <g
                                   id="g48754"
                                   transform="translate(-2.9035392,-6.6366609)">
                                <g
                                   id="g234"
                                   transform="matrix(0.04089637,0,0,0.04089637,104.63967,119.67231)">
                                <g
                                   id="g2138"
                                   transform="translate(-86.211222,-40.569988)">
                                <g
                                   id="g2696"
                                   transform="translate(-124306.44,-9412.2373)">
                                <g
                                   id="g3765"
                                   transform="translate(25.356243,-50.712489)">
                                <g
                                   id="g4557"
                                   transform="translate(46.61688,-35.859142)">
                                <g
                                   id="g5244"
                                   transform="translate(7.1718407,14.343658)">
                                <g
                                   id="g5807"
                                   transform="translate(-5.1984397,-21.113724)">
                                <g
                                   id="g6945"
                                   transform="translate(-10.142522,-243.41993)">
                                <g
                                   id="g11108"
                                   transform="translate(18.189368,-37.636113)">
                                <g
                                   id="g15049"
                                   transform="translate(-65.926228,141.99496)">
                                <g
                                   id="g19861"
                                   transform="matrix(0.07356842,0,0,0.07356842,115423.38,9039.2311)">
                                <g
                                   id="g20437"
                                   transform="translate(-478.38824,-785.88156)">
                                <g
                                   id="g21032"
                                   transform="translate(2047.1878,-1072.3367)">
                                <g
                                   id="g21869"
                                   transform="matrix(0.04321578,0,0,0.04321578,117368,10137.003)">
                                <g
                                   id="g18984"
                                   transform="translate(2392.6128,-18343.366)">
                                <path
                                   style="fill:#784421;stroke:none;stroke-width:6806.37px;stroke-linecap:butt;stroke-linejoin:miter;stroke-opacity:1"
                                   d="m -21614.072,-1987.0664 c 0,0 2105.617,-6016.0357 8121.646,-4812.827 6016.0288,1203.208 4512.0268,6918.43673 4512.0268,6918.43673 L -13793.226,25385.875 c 0,0 -1203.209,7219.244 -6918.438,6016.036 -5715.228,-1203.209 -5414.428,-6918.438 -5414.428,-6918.438 z"
                                   id="path19054" />
                                <path
                                   style="fill:#784421;stroke:none;stroke-width:6806.37px;stroke-linecap:butt;stroke-linejoin:miter;stroke-opacity:1"
                                   d="m 180870.42,149579.79 c 0,0 2105.62,-6016.03 8121.65,-4812.82 6016.03,1203.2 4512.02,6918.43 4512.02,6918.43 l -4812.82,25267.33 c 0,0 -1203.21,7219.25 -6918.44,6016.04 -5715.23,-1203.21 -5414.43,-6918.44 -5414.43,-6918.44 z"
                                   id="path19054-6" />
                                <path
                                   style="fill:#784421;stroke:none;stroke-width:6806.37px;stroke-linecap:butt;stroke-linejoin:miter;stroke-opacity:1"
                                   d="m 233881.18,-98555.649 c 0,0 2105.62,-6016.031 8121.65,-4812.831 6016.03,1203.21 4512.02,6918.441 4512.02,6918.441 l -4812.82,25267.331 c 0,0 -1203.21,7219.244 -6918.44,6016.036 -5715.23,-1203.209 -5414.43,-6918.438 -5414.43,-6918.438 z"
                                   id="path19054-1" />
                                <path
                                   style="fill:#784421;stroke:none;stroke-width:6806.37px;stroke-linecap:butt;stroke-linejoin:miter;stroke-opacity:1"
                                   d="m -32300.478,142812.46 c 0,0 2105.617,-6016.03 8121.646,-4812.82 6016.029,1203.2 4512.027,6918.43 4512.027,6918.43 l -4812.827,25267.33 c 0,0 -1203.209,7219.25 -6918.438,6016.04 -5715.228,-1203.21 -5414.428,-6918.44 -5414.428,-6918.44 z"
                                   id="path19054-8" />
                                <path
                                   style="fill:#784421;stroke:none;stroke-width:6806.37px;stroke-linecap:butt;stroke-linejoin:miter;stroke-opacity:1"
                                   d="m 344414.24,159730.78 c 0,0 2105.62,-6016.03 8121.65,-4812.83 6016.03,1203.21 4512.02,6918.44 4512.02,6918.44 l -4812.82,25267.33 c 0,0 -1203.21,7219.25 -6918.44,6016.04 -5715.23,-1203.21 -5414.43,-6918.44 -5414.43,-6918.44 z"
                                   id="path19054-5" />
                                <path
                                   style="fill:#784421;stroke:none;stroke-width:6806.37px;stroke-linecap:butt;stroke-linejoin:miter;stroke-opacity:1"
                                   d="m -6359.0455,-139159.63 c 0,0 2105.617,-6016.03 8121.646,-4812.83 6016.029,1203.21 4512.027,6918.44 4512.027,6918.44 l -4812.827,25267.33 c 0,0 -1203.209,7219.25 -6918.438,6016.04 -5715.2275,-1203.21 -5414.4275,-6918.44 -5414.4275,-6918.44 z"
                                   id="path19054-7" />
                                <path
                                   style="fill:#784421;stroke:none;stroke-width:6806.37px;stroke-linecap:butt;stroke-linejoin:miter;stroke-opacity:1"
                                   d="m 213579.18,-18475.575 c 0,0 2105.62,-6016.036 8121.65,-4812.827 6016.03,1203.208 4512.02,6918.437 4512.02,6918.437 l -4812.82,25267.331 c 0,0 -1203.21,7219.244 -6918.44,6016.036 -5715.23,-1203.209 -5414.43,-6918.438 -5414.43,-6918.438 z"
                                   id="path19054-3" />
                                <path
                                   style="fill:#784421;stroke:none;stroke-width:6806.37px;stroke-linecap:butt;stroke-linejoin:miter;stroke-opacity:1"
                                   d="m 92895.131,104464.25 c 0,0 2105.617,-6016.034 8121.649,-4812.825 6016.03,1203.205 4512.02,6918.435 4512.02,6918.435 l -4812.82,25267.33 c 0,0 -1203.212,7219.25 -6918.441,6016.04 -5715.228,-1203.21 -5414.428,-6918.44 -5414.428,-6918.44 z"
                                   id="path19054-4" />
                                <path
                                   style="fill:#784421;stroke:none;stroke-width:6806.37px;stroke-linecap:butt;stroke-linejoin:miter;stroke-opacity:1"
                                   d="m -103357.45,-22987.128 c 0,0 2105.62,-6016.036 8121.653,-4812.827 6016.03,1203.208 4512.02,6918.437 4512.02,6918.437 l -4812.82,25267.3307 c 0,0 -1203.21,7219.2443 -6918.443,6016.0363 -5715.23,-1203.2093 -5414.43,-6918.4383 -5414.43,-6918.4383 z"
                                   id="path19054-14" />
                                <path
                                   style="fill:#784421;stroke:none;stroke-width:6806.37px;stroke-linecap:butt;stroke-linejoin:miter;stroke-opacity:1"
                                   d="m 106117.55,240345.39 c 0,0 6368.06,271.95 6959.8,6378.52 591.75,6106.56 -5314.09,6323.25 -5314.09,6323.25 l -25577.854,2715.63 c 0,0 -7258.162,940.41 -7762.734,-4878.27 -504.572,-5818.67 5052.603,-7186.93 5052.603,-7186.93 z"
                                   id="path19054-9" />
                                <path
                                   style="fill:#784421;stroke:none;stroke-width:6806.37px;stroke-linecap:butt;stroke-linejoin:miter;stroke-opacity:1"
                                   d="m 111656.82,-120213.46 c 0,0 6368.06,271.95 6959.8,6378.52 591.75,6106.56 -5314.09,6323.25 -5314.09,6323.25 l -25577.851,2715.63 c 0,0 -7258.162,940.41 -7762.734,-4878.27 -504.572,-5818.67 5052.603,-7186.93 5052.603,-7186.93 z"
                                   id="path19054-9-9" />
                                <path
                                   style="fill:#784421;stroke:none;stroke-width:6806.37px;stroke-linecap:butt;stroke-linejoin:miter;stroke-opacity:1"
                                   d="m 295502.63,33179.36 c 0,0 6368.06,271.95 6959.8,6378.52 591.75,6106.56 -5314.09,6323.25 -5314.09,6323.25 l -25577.85,2715.63 c 0,0 -7258.17,940.41 -7762.74,-4878.27 -504.57,-5818.67 5052.6,-7186.93 5052.6,-7186.93 z"
                                   id="path19054-9-3" />
                                <path
                                   style="fill:#784421;stroke:none;stroke-width:6806.37px;stroke-linecap:butt;stroke-linejoin:miter;stroke-opacity:1"
                                   d="m 87971.168,16261.04 c 0,0 6368.06,271.95 6959.8,6378.52 591.75,6106.56 -5314.09,6323.25 -5314.09,6323.25 l -25577.854,2715.63 c 0,0 -7258.162,940.41 -7762.734,-4878.27 -504.572,-5818.67 5052.603,-7186.93 5052.603,-7186.93 z"
                                   id="path19054-9-31" />
                                <path
                                   style="fill:#784421;stroke:none;stroke-width:6806.37px;stroke-linecap:butt;stroke-linejoin:miter;stroke-opacity:1"
                                   d="m -87979.42,138072.98 c 0,0 6368.06,271.95 6959.8,6378.52 591.75,6106.56 -5314.09,6323.25 -5314.09,6323.25 l -25577.85,2715.63 c 0,0 -7258.17,940.41 -7762.74,-4878.27 -504.57,-5818.67 5052.61,-7186.93 5052.61,-7186.93 z"
                                   id="path19054-9-2" />
                                <path
                                   style="fill:#784421;stroke:none;stroke-width:6806.37px;stroke-linecap:butt;stroke-linejoin:miter;stroke-opacity:1"
                                   d="m 266177.53,262140.7 c 0,0 6368.06,271.95 6959.8,6378.52 591.75,6106.56 -5314.09,6323.25 -5314.09,6323.25 l -25577.85,2715.63 c 0,0 -7258.17,940.41 -7762.74,-4878.27 -504.57,-5818.67 5052.61,-7186.93 5052.61,-7186.93 z"
                                   id="path19054-9-4" />
                                <path
                                   style="fill:#784421;stroke:none;stroke-width:6806.37px;stroke-linecap:butt;stroke-linejoin:miter;stroke-opacity:1"
                                   d="m 191736.9,73783.34 c 0,0 6368.06,271.95 6959.8,6378.52 591.75,6106.56 -5314.09,6323.25 -5314.09,6323.25 l -25577.86,2715.63 c 0,0 -7258.16,940.41 -7762.73,-4878.27 -504.57,-5818.67 5052.6,-7186.93 5052.6,-7186.93 z"
                                   id="path19054-9-0" />
                                <path
                                   style="fill:#784421;stroke:none;stroke-width:6806.37px;stroke-linecap:butt;stroke-linejoin:miter;stroke-opacity:1"
                                   d="m 121956.42,-43497.371 c 0,0 -3504.91,-5323.698 1101.44,-9376.097 4606.33,-4052.398 8237.13,610.565 8237.13,610.565 l 17166.06,19155.348 c 0,0 5008.89,5336.333 585.03,9149.613 -4423.85,3813.27 -8784.61,106.779 -8784.61,106.779 z"
                                   id="path19054-9-29" />
                                <path
                                   style="fill:#784421;stroke:none;stroke-width:6806.37px;stroke-linecap:butt;stroke-linejoin:miter;stroke-opacity:1"
                                   d="m -244.83,78660.419 c 0,0 -3504.91,-5323.698 1101.44,-9376.097 4606.33,-4052.398 8237.13,610.565 8237.13,610.565 L 26259.8,89050.235 c 0,0 5008.89,5336.333 585.03,9149.613 -4423.85,3813.272 -8784.61,106.779 -8784.61,106.779 z"
                                   id="path19054-9-29-7" />
                                <path
                                   style="fill:#784421;stroke:none;stroke-width:6806.37px;stroke-linecap:butt;stroke-linejoin:miter;stroke-opacity:1"
                                   d="m 272704.15,192577.15 c 0,0 -3504.91,-5323.7 1101.44,-9376.1 4606.33,-4052.4 8237.13,610.57 8237.13,610.57 l 17166.06,19155.35 c 0,0 5008.89,5336.33 585.03,9149.61 -4423.85,3813.27 -8784.61,106.78 -8784.61,106.78 z"
                                   id="path19054-9-29-0" />
                                <path
                                   style="fill:#784421;stroke:none;stroke-width:6806.37px;stroke-linecap:butt;stroke-linejoin:miter;stroke-opacity:1"
                                   d="m -38593.04,253483.12 c 0,0 -3504.91,-5323.7 1101.44,-9376.1 4606.33,-4052.4 8237.13,610.57 8237.13,610.57 l 17166.06,19155.35 c 0,0 5008.89,5336.33 585.03,9149.61 -4423.85,3813.27 -8784.61,106.78 -8784.61,106.78 z"
                                   id="path19054-9-29-08" />
                                </g>
                                </g>
                                </g>
                                </g>
                                </g>
                                </g>
                                </g>
                                </g>
                                </g>
                                </g>
                                </g>
                                </g>
                                </g>
                                </g>
                                </g>
                                </g>
                                </g>
                                </g>
                                </g>
                                </g>
                                </g>
                                </g>
                                </g>
                                </g>
                                </g>
                                </g>
                                </g>
                                </g>
                                </g>
                                </g>
                                </g>
                                </g>
                                </g>
                                </g>
                                </g>
                              </g>
                            </g>
                          </g>
                        </g>
                      </g>
                    </g>
                  </g>
                </g>
              </g>
            </g>
          </g>
        </g>
      </g>
    </g>
  </g>
</svg>
