<?xml version="1.0" encoding="UTF-8" standalone="no"?>
<!-- Created with Inkscape (http://www.inkscape.org/) -->

<svg
   width="64"
   height="64"
   viewBox="0 0 16.933333 16.933334"
   version="1.1"
   id="svg5"
   inkscape:version="1.2 (dc2aedaf03, 2022-05-15)"
   sodipodi:docname="wakame.svg"
   xml:space="preserve"
   xmlns:inkscape="http://www.inkscape.org/namespaces/inkscape"
   xmlns:sodipodi="http://sodipodi.sourceforge.net/DTD/sodipodi-0.dtd"
   xmlns="http://www.w3.org/2000/svg"
   xmlns:svg="http://www.w3.org/2000/svg"><sodipodi:namedview
     id="namedview7"
     pagecolor="#ffffff"
     bordercolor="#666666"
     borderopacity="1.0"
     inkscape:pageshadow="2"
     inkscape:pageopacity="0.0"
     inkscape:pagecheckerboard="0"
     inkscape:document-units="mm"
     showgrid="false"
     units="px"
     inkscape:zoom="64"
     inkscape:cx="21.679688"
     inkscape:cy="29.859375"
     inkscape:window-width="1920"
     inkscape:window-height="1017"
     inkscape:window-x="1912"
     inkscape:window-y="-8"
     inkscape:window-maximized="1"
     inkscape:current-layer="g28100"
     inkscape:showpageshadow="0"
     inkscape:deskcolor="#d1d1d1" /><defs
     id="defs2" /><g
     inkscape:label="Calque 1"
     inkscape:groupmode="layer"
     id="layer1"><g
       id="g4128"
       transform="translate(-0.63104184,0.12620835)"><g
         id="g5578"
         transform="translate(0.08924235,0.08924306)"><g
           id="g7501"
           transform="translate(-0.06310417,0.94656242)"><g
             id="g9467"
             transform="translate(-0.08924275,-0.80318511)"><g
               id="g10302"
               transform="translate(0.31234979,-0.04462139)"><g
                 id="g11479"
                 transform="translate(-0.12620833,0.06310418)"><g
                   id="g11873"
                   transform="translate(-0.23575769,0.66462456)"><g
                     id="g12382"
                     transform="translate(-121.98459,-82.267525)"><g
                       id="g13305"
                       transform="matrix(0.13266609,0,0,0.13266609,114.63867,78.215696)"><g
                         id="g17429"
                         transform="translate(0.90513437,5.6640979)"><g
                           id="g18595"
                           transform="translate(-3.3634362,-8.7449387)"><g
                             id="g21002"
                             transform="translate(1.7082278,-2.8204445)"><g
                               id="g23814"
                               transform="translate(8.7253043,-1.1218249)"><g
                                 id="g24838"
                                 transform="translate(11.143454,-0.85716864)"><g
                                   id="g25315"
                                   transform="translate(-3.490122,2.4929446)"><g
                                   id="g27220"
                                   transform="translate(2.4678888,1.2339445)"><g
                                   id="g29753"
                                   transform="translate(1.4759287,-2.3737724)"><g
                                   id="g30615"
                                   transform="translate(0.92006037,1.3687834)"><g
                                   id="g31433"
                                   transform="translate(-2.4678886,-1.410222)"><g
                                   id="g31731"
                                   transform="translate(1.0576664,-0.70511063)"><g
                                   id="g33243"
                                   transform="matrix(1.0772948,0,0,1.0772948,-7.3729128,-3.1743014)"><g
                                   id="g35254"
                                   transform="translate(-2.2135012,-0.92031205)"><g
                                   id="g36749"
                                   transform="translate(-0.98178042,-2.7817105)"><g
                                   id="g37297"
                                   transform="translate(-6.7755742,-3.5033798)"><g
                                   id="g38955"
                                   transform="matrix(1.2171094,0,0,1.2171094,-23.105122,-18.212482)"><g
                                   id="g39618"
                                   transform="translate(-0.26888273,-0.26888316)"><g
                                   id="g40032"
                                   transform="translate(-1.90129,-3.042064)"><g
                                   id="g40543"
                                   transform="translate(0.3802582,-2.0914191)"><g
                                   id="g41372"
                                   transform="translate(1.9657652,-7.9304203)"><g
                                   id="g43278"
                                   transform="translate(1.5210324,-0.38025789)"><g
                                   id="g44210"
                                   transform="matrix(1.1578947,0,0,1.1578947,-18.904476,-21.776183)"><g
                                   id="g44833"
                                   transform="matrix(1.1196819,0,0,1.1196819,-12.538538,-14.547543)"><g
                                   id="g47597"
                                   transform="translate(3.1109352,-1.2443743)"><g
                                   id="g48754"
                                   transform="translate(-2.9035392,-6.6366609)"><g
                                   id="g234"
                                   transform="matrix(0.04089637,0,0,0.04089637,104.63967,119.67231)"><g
                                   id="g2138"
                                   transform="translate(-86.211222,-40.569988)"><g
                                   id="g2696"
                                   transform="translate(-124306.44,-9412.2373)"><g
                                   id="g3765"
                                   transform="translate(25.356243,-50.712489)"><g
                                   id="g4557"
                                   transform="translate(46.61688,-35.859142)"><g
                                   id="g5244"
                                   transform="translate(7.1718407,14.343658)"><g
                                   id="g5807"
                                   transform="translate(-5.1984397,-21.113724)"><g
                                   id="g6945"
                                   transform="translate(-10.142522,-243.41993)"><g
                                   id="g11108"
                                   transform="translate(18.189368,-37.636113)"><g
                                   id="g15049"
                                   transform="translate(-65.926228,141.99496)"><g
                                   id="g19861"
                                   transform="matrix(0.07356842,0,0,0.07356842,115423.38,9039.2311)"><g
                                   id="g20437"
                                   transform="translate(-478.38824,-785.88156)"><g
                                   id="g21032"
                                   transform="translate(2047.1878,-1072.3367)"><g
                                   id="g21869"
                                   transform="matrix(0.04321578,0,0,0.04321578,117368,10137.003)"><g
                                   id="g25455"
                                   transform="translate(154741.46,-87178.414)"><g
                                   id="g26278"
                                   transform="translate(-18012.371,-8233.4417)"><g
                                   id="g27240"
                                   transform="translate(-0.00447131,5582.7624)"><g
                                   id="g28306"
                                   transform="translate(-15790.441,-2255.7767)"><g
                                   id="g33735"
                                   transform="translate(14662.549,-16918.328)"><g
                                   id="g37868"
                                   transform="translate(-5075.4976,25941.433)"><g
                                   id="g76752"
                                   transform="matrix(-1,0,0,1,9442.3174,-1595.0746)"><g
                                   id="g82459"
                                   transform="translate(3383.6668,-1127.8885)"><g
                                   id="g83208"
                                   transform="matrix(0.20332428,0,0,0.20332428,-15348.528,66747.475)"><g
                                   id="g83934"
                                   transform="matrix(-1,0,0,1,240692.18,94139.78)"><g
                                   id="g84550"
                                   transform="translate(-8.7627443e-5,55472.344)"><g
                                   id="g1274"
                                   transform="translate(-66682.337,-43147.393)"><g
                                   id="g2352"
                                   transform="translate(-74780.623,-22188.943)"><g
                                   id="g4123"
                                   transform="translate(-47069.882,-15689.961)"><g
                                   id="g5928"><g
                                   id="g11568"
                                   transform="translate(-83208.586,33283.433)"><g
                                   id="g28100"
                                   transform="translate(-43147.388,-105907.24)"><path
                                   style="fill:#199c48;stroke-width:428.282"
                                   d="m 312969.14,1286137 c 4359.52,-557.9 6860.85,-2424.1 11922.03,-8894.3 44378.25,-66410.7 58804.58,-120830.3 71147.92,-196479.9 425.03,-3516.8 727.31,-4215.9 3404.37,-7873.1 11157.29,-15242.2 22815.84,-16786.7 51361.45,-6804.4 18819.68,6581.3 37245.25,10188.1 49528.36,9695.3 8054.74,-323 11941.48,-2428.4 14650.66,-7935.7 1346.82,-2737.8 1409.9,-3086.7 1409.9,-7798.1 0,-4432.3 -113.45,-5170.8 -1119.7,-7287.7 -2634.36,-5541.8 -6665.17,-8821.5 -17724.69,-14421.5 -18943.75,-9592.1 -30945.09,-17340 -39348.02,-25402.4 -8672.15,-8320.7 -12134.59,-15133.79 -11752.47,-23125.49 158.07,-3306.89 383.01,-4194.63 1777.83,-7016.88 4399.01,-8900.76 15607.48,-15942.56 24017.26,-15088.96 3233.27,328.15 3804.56,598.19 22735.71,10746.36 32671.46,17513.76 46214.62,25881.37 61870.75,38226.87 3659.88,2885.9 7772.71,5814.7 9139.62,6508.5 6548.81,3323.5 11733.16,1513.2 15084.2,-5267.1 2114.56,-4278.5 2381.5,-7124 955.54,-10185.2 -1160.68,-2491.6 -1331.87,-2695.3 -14742.56,-17543.49 -21862.02,-24205.36 -33653.55,-39132.98 -44021.69,-55729.88 -7902.1,-12649.3 -10166.51,-18090.79 -10208.95,-24532.7 -21.84,-3337.6 136.07,-4213.39 1178.55,-6530.22 1359.53,-3021.53 4015.69,-5742.32 6814.6,-6980.39 22582.83,-1940.3 46765.18,2397.44 71899.35,4725.4 412.22,4.28 749.49,230.07 749.49,504.64 0,768.6 -8014.26,28054.38 -13733.66,46758.25 -2820.54,9223.85 -5331.38,18023.37 -5579.7,19554.48 -2174.6,13409.54 8308.02,25162.87 21668.91,24295.56 4215.49,-273.63 7505.07,-1471.19 10893.9,-3965.89 4962.75,-3653.37 6928.26,-6963.6 15194.82,-25590 25266.86,-56932.03 44214.08,-122754.58 55503.45,-192819.05 1462.03,-9073.57 1473.59,-9100.43 6105.15,-14154.92 60883.42,-30051.4 108196.12,52872.96 173714.17,45435.62 6215.7,-5928.74 7251.14,-14614.38 2794.19,-23438.65 -38857.71,-49257.75 -79815.28,-78849.74 -128617.31,-107543.09 -1049.55,-2206.47 -583.67,-4826.18 1100.17,-6186.06 2607.29,-2105.73 9761,-3195.66 15289.18,-2329.38 80783.51,54878.92 136470.24,21312.48 210495.29,6985.53 8121.39,5045.45 16713.31,-2270.66 22968.63,-3120.5 1613.22,-1917.2 2016.58,-3154.77 2026.04,-6216.21 11.43,-3705.23 -2158.79,-8139.88 -5950.59,-12159.38 -3476.28,-3685.07 -5860.14,-5456.14 -10597.81,-7873.58 -58455.76,-10079.44 -115387.8,-25354.21 -169841.1,-46286.1 -1192.72,-244.08 -4911.4,-1593.16 -7066.64,-2563.65 -18668.52,-5048.89 2709.99,-18544.68 2972.48,-20340.93 76421.76,18387.68 179372.23,21407.97 251794.08,7717.42 3541.9,-3920.54 3018.7,-9585.72 -1526.6,-16530.65 -48630.03,-42770.71 -127826.65,-49932.33 -182787.65,-66997.84 -11895.52,-3976.04 -23799.71,-7756.22 -26453.75,-8400.4 l -4825.53,-1171.22 1159.23,-1210.03 c 2830.02,-2953.9 6533.83,-3533.88 14703.19,-2302.31 83822.59,5829.89 159272.51,-18500.4 228723.31,-54458.27 12913.9,-8060.65 14787.1,-9920.25 14331.5,-14227.09 -832.9,-7872.2 -11090.7,-12860.57 -29986,-14582.05 -66763.03,1269.44 -120759.93,6572.3 -185445.92,-184.03 -5298.3,-590.3 -13180.17,-2701.13 -17228.76,-4614 -7580.83,-3581.77 -12819.44,-10167.92 -13019.79,-16368.88 38373.41,-46435.95 186649.97,-29307.58 259110.27,-80073.03 2712.7,-2522.32 3745.3,-6256.25 2432.2,-8795.45 -65881.6,-24099.4 -156196.49,-16599.74 -227867.67,-10729.78 -15128.78,1732.32 -18578.72,1722.55 -23555.49,-66.77 -5907.16,-2123.8 -9281.12,-6075.04 -11143.3,-13049.95 -3258.98,-12206.63 5622.54,-26469.26 20911.76,-33581.69 80473.97,-19153.35 198612.1,-48985.29 248244.3,-122830.17 -448.9,-1998.32 -3129.7,-4579.28 -5385.5,-5185.08 -3435.7,-922.6 -5269.3,-1081.75 -11933,-1035.63 -69924.5,32301.63 -154489.36,8121.35 -228897.91,9370.12 -814.21,147.11 -4476.02,1320.09 -8137.35,2606.69 -10760.14,3781.04 -14088.37,4547.32 -18862.99,4343.08 -3061.55,-130.97 -4499.96,-398.65 -5811.01,-1081.29 -15766.9,-17470.41 -10396.12,-33871.401 -9456.16,-53772.891 2671.62,-2836.509 8425.97,-4025.162 14123.02,-2917.283 90192.95,24426.929 195674.9,-21606.956 283845.4,-30315.355 4612.8,-59.403 8852.8,-165.488 9422.2,-235.726 569.4,-70.239 2095.3,-259.539 3390.8,-420.701 6618.9,-823.286 11679.3,-3321.924 16508.9,-8151.569 5508.9,-5508.858 7889.5,-10930.3461 8095.6,-18436.1951 148.7,-5418.0191 -571.9,-8929.457 -2724.8,-13276.7289 -4169.9,-8420.573 -11874.2,-14606.758 -22645.7,-18183.338 -3709.2,-1231.609 -4382.2,-1388.317 -9298.6,-2165.091 -116884.9,17167.932 -204387.23,-4217.498 -304936.46,1388.831 -2764.94,-28.267 -7447.3,-1126.766 -9752.53,-2287.923 -18270.38,-26049.126 -9760.12,-52673.31 -4804.42,-82071.81 1754.45,-2049.67 3989.14,-3031.9 7445.16,-3272.38 110093.74,69487.552 217405.25,32823.997 328537.05,11073.78 1531.1,-123.77 3554.8,-312.77 4497,-419.97 942.2,-107.2 2676.8,-301.9 3854.5,-432.74 11034.2,-1225.65 20417.7,-4528.73 26785.8,-9428.87 10808.4,-8316.89 15395.4,-20647.93 11937.8,-32092.08 -4608.4,-15253.38 -16799.7,-22188.63 -38295.3,-21785.06 -109206.4,25536.06 -213348.67,-25263.36 -320154.32,-30195.35 -2658.22,-1031.3 -5414.42,-3600.22 -6738.88,-6280.97 -3390.67,-6862.91 -2902.3,-20899.88 1134.6,-32611.8 3654.83,-10603.26 9859.68,-14840.17 18980.87,-12960.83 3490.69,719.22 7543.38,2262.06 16224.82,6176.72 4377.63,1973.95 10255.79,4358.88 13062.59,5299.77 91111.09,39261.97 181013.22,34196.39 258860.12,8854.04 9698.6,-2222.52 12051.7,-2495.21 22698.9,-2630.42 8020.2,-101.84 10354.6,13.28 13919.1,687.01 4810.9,909.15 9480.6,1063.08 11896.6,392.17 1863.2,-517.45 4354.6,-2555.12 5256.6,-4299.39 878.3,-1698.43 771.4,-5794.09 -207.5,-7950.06 -2481.5,-5465.21 -9485,-8832.58 -23852.2,-11468.57 -118159.5,2143.11 -185279.65,-55077.5 -286252.18,-79677.25 -8368.67,-1698.35 -12527.59,-3367.87 -13689.87,-5495.53 -620.46,-1135.85 -602.44,-1249.09 319.45,-2006.76 2685.76,-2207.45 9373.85,-2149.97 18723.94,160.86 88674.19,25200.25 162602.76,-22663.58 249473.96,-23566.11 4748.4,-1616.37 9552.6,-4621.88 13250.2,-8289.21 9205.3,-9129.85 10934.6,-20579.71 4698.4,-31107.89 -96488.4,-45574.86 -202077.79,-42251.89 -293138.42,-19434.65 -5134.67,-1437.62 -7741.85,-8439.16 -5181.12,-13913.84 550.89,-1177.78 1903.93,-2969.84 3006.76,-3982.38 73244.9,-7556.95 160431.48,-75943.27 220831.08,-92432.76 8286.1,-715.94 14094.9,-3993.9 17172.7,-9690.73 1339.8,-2479.87 1446.3,-2962.38 1441.2,-6532.19 -6.4,-4484.08 -617.1,-6100.34 -3330.7,-8813.89 -3045.2,-3045.26 -8922.4,-5310.2 -15925.6,-6137.45 -4522.6,-534.22 -6575.7,-677.84 -14133.3,-988.68 -65840.45,-3934.31 -134604.51,7127.31 -183974.13,26780.61 -30569.28,12235.03 -34985.04,13790.9 -39098.64,13776.2 -5721.61,-20.43 -8868.62,-3150.62 -8267.83,-8223.52 345.37,-2916.02 1853.56,-5900.64 4764.46,-9428.53 4212.22,-5105.08 9662.47,-9136.57 21969.01,-16250.26 11801.38,-6823.82 16942.8,-10747.42 24942.98,-19037.02 23952.4,-34651.53 45318.28,-64237.02 79795.69,-89840.17 6401.93,-2748.08 10732.52,-3827.75 18206.13,-4539.05 9596.91,-913.37 11374.69,-1198.92 14727.02,-2365.46 5102.67,-1775.62 7914.32,-4289.08 9951.94,-8896.5 1073.97,-2428.37 2088.07,-7865.24 1756.37,-9416.21 -112.1,-524.21 -317.2,-1901.33 -455.7,-3060.27 -1069.84,-8950.15 -11538.59,-16469.5 -26655.1,-19145.43 -8194.6,-1450.61 -19768.09,-1872.54 -27730.6,-1010.97 -55412.01,9993.69 -91940.95,45039.85 -123573.53,76441.18 -12310.61,13437.09 -21384.18,22717.96 -24507.81,25067.7 -4779.71,3595.5 -10771.24,4859.43 -14021.77,2957.91 -3013.52,-1762.87 -4712.55,-5840.65 -4712.55,-11310.38 0,-6285.01 2221.75,-11749.44 9255.42,-22763.81 26845.27,-47641.53 34502.48,-97168.41 50759.87,-150060.05 2316.22,-6831.1 4405.29,-13446.37 4642.38,-14700.61 479.31,-2535.61 95.11,-5013.93 -1047.67,-6758.03 -771.38,-1177.27 -3705.98,-2714.45 -5211.52,-2729.87 -6021.79,-61.66 -28259.11,13967.63 -45829.53,28913.38 -28543.34,24279.48 -50972.66,58742.73 -63124.25,96992 -2544.93,8010.63 -3809.9,10817.57 -5321.35,11807.89 -2193.06,1436.94 -5149.57,-447.29 -6440.93,-4104.89 -9240.38,-59626.48 -24276.31,-108732.66 -39208.36,-159721.68 -1691.37,-3173.37 -5101.22,-6593.93 -7974.65,-7999.78 -1986.84,-972.06 -2681.64,-1086.15 -5802.31,-952.78 -2850.17,121.8 -4043.15,395.99 -6085.02,1398.55 -43102.72,44012.45 -23455.66,110742.83 -6118.22,160215.11 3240.08,9347.83 5920.82,20404.64 5964.21,24599.23 20.55,2000.91 -134.87,2465.29 -1105.36,3300.09 -1616.93,1390.83 -3718.89,1648.27 -8835.15,1082.11 -41171.77,-17959.82 -95161.11,-35454.52 -125058.21,-65247.21 -2590.54,-4199.55 -7651.59,-9217.18 -10921.17,-10827.45 -2212.21,-1089.52 -3046.33,-1263.29 -5995.95,-1249.1 -2599.58,12.51 -3942.93,247.93 -5567.66,975.74 -4680.68,2096.74 -9398.51,6952.12 -11645.27,11984.7 -6136.38,13745.13 -2819.51,36287.39 8727.01,59310.45 29433.68,44210.14 67289.86,56978.05 106732.47,85905.24 7881.11,7761.96 10547.12,13992.87 8074.35,18871.34 -1397.79,2757.65 -3172.8,3645.29 -7173.72,3587.38 -2746.65,-39.75 -4546.38,-482.64 -12420.16,-3056.38 -61002.91,-18000.25 -118957.05,-14490.37 -170019.94,-41207.77 -3646.77,-2895.02 -7983.12,-6176.39 -9636.33,-7291.93 -8879.69,-5991.8 -17209.98,-8262.22 -24573.73,-6697.57 -3759.62,798.84 -6296.42,2201.5 -9506.78,5256.53 -3180.97,3027.08 -4415.92,5528.03 -4173.43,8451.9 370.34,4466.03 3352.33,6584.63 11576.02,8224.34 10170.23,2027.85 10780.23,2677.92 19991.8,21304.17 7843.55,15860.04 11643,22679.98 17816.55,31980.33 41654.65,55367.69 107077.43,63739.51 170320.42,73049.72 8819.65,2999.73 12225.98,8152.47 9911.42,14992.94 -515.35,1523.1 -1498.9,2892.18 -3533.32,4918.38 -3099.69,3087.23 -5482.43,4568.61 -9926.84,6171.8 -6266.83,2260.6 -10864.52,1921.91 -23703.5,-1745.93 -70574.29,-10762.3 -155982.16,3973.34 -206902.64,-31237.11 -9646.87,-14488.87 -12048.46,-16650.58 -18466.47,-16621.79 -3786.7,17 -6922.57,1400.47 -9491.53,4187.43 -3594.83,3899.92 -4591.87,7498.85 -4240.33,15305.48 268.66,5966.34 1580.57,11448.91 4595.54,19205 3580.99,9212.16 10987.95,23057.69 17412.99,32549.4 56548.39,70514.66 118134.17,37269.3 185484.19,62502.22 7537.5,5679.65 14301.01,14988.74 17289.3,23796.52 827.31,2438.51 1017.13,3877.1 1017.13,7709.07 0,4285.04 -111.31,4952.09 -1230.97,7376.04 -2482.19,5373.82 -8295.43,9216.53 -16517.96,10918.82 -50177.57,3642.02 -98689.49,-22415.67 -134719.3,-43707.76 -22485.81,-14556.95 -32342.67,-20429.81 -43256.44,-25772.88 -14520.5,-7108.87 -25244.84,-9854.54 -36189.79,-9265.48 -11148.08,600.02 -20654.77,5029.48 -29099.89,13558.62 -7416.85,7490.69 -11268.38,15775.5 -11247.48,24193.71 16.27,6505 1997.24,11175.24 6873.66,16204.04 2903.62,2994.37 4571.65,4188.72 10648.1,7624.1 65952.21,64078.72 127044.83,114367.86 221017.61,114887.35 4545.35,1632.65 8219.88,5793.87 10007.44,11333.01 1266.85,3925.54 1589.26,12371.6 628.76,16472.44 -1891.08,8073.79 -6069.44,12531.13 -13358.92,14250.77 -2275.59,536.81 -4190.05,642.42 -8310.24,458.35 -70911.47,-22241.78 -139635.45,-44721.07 -211491.64,-87558.58 -10190.23,-7554.24 -13744.58,-9278.2 -19137.97,-9282.49 -4079.9,-4.28 -5798.55,755.06 -8861.28,3909.49 -14144.3,26469.34 -1458.66,44908.88 10495.38,70212.22 2045.69,3558.89 3719.42,6568.99 3719.42,6689.12 0,120.09 -1418.77,309.43 -3152.8,420.7 -4071.24,261.29 -7971.78,2041.66 -11252.03,5136 -1323.13,1248.09 -4630.53,4967.42 -7349.78,8265.19 -11592.47,14058.77 -16325.41,17462.28 -38934.52,27998.61 -23426.1,10917.02 -42540.35,24356.03 -56020.16,39387.08 -10257.35,11437.778 -16536.98,20560.004 -22173.21,32210.377 -5334.33,11026.409 -8127.63,14626.073 -12325.52,15883.808 -3100.28,928.857 -6812.67,-1762.293 -8318.46,-6030.119 -810.74,-2297.859 -837,-7637.803 -52.08,-10585.793 1745.97,-6557.548 4567.36,-10473.541 15687.44,-21773.28 9088.3,-9235.163 13898.54,-14978.633 25642.84,-30617.853 20434.64,-27211.64 39210.07,-61164.52 52934.61,-95725.21 7095.43,-17867.48 10701.64,-29172.15 11204.79,-35124.36 513.34,-6072.52 -1941.02,-13806.52 -5160.75,-16262.33 -7922.22,-6042.58 -21279.6,-1010.95 -44109.66,16615.87 -18244.11,14086.06 -29076.38,24231.32 -41219.66,38605.26 -27264.49,31301.28 -42509.428,70860.51 -56073.608,107518.77 -381.69,1413.33 -850.48,3147.87 -1041.71,3854.53 -2738.35,10118.2 -8208.87,18933.646 -11508.83,18545.837 -694.75,-81.631 -1482.96,-685.508 -2125.86,-1628.712 -988.99,-1450.975 -1013.53,-1684.089 -766.88,-7280.785 263.39,-5976.5 432.99,-7830.49 1116.57,-12206.03 220.78,-1413.33 617.03,-4015.14 880.55,-5781.8 263.48,-1766.66 649.1,-3886.65 856.86,-4711.1 21366.39,-62547.22 31691.158,-120799.9 29704.068,-181805.53 -801.698,-5170.09 -3413.018,-13703.08 -5932.638,-19385.82 -7220.49,-16285.24 -17191.01,-21199.94 -29845.61,-14711.65 -15149.74,7767.57 -34247.37,33187.33 -44440.3,59151.94 -27085.1199,56576.73 1556.62,111142.71 4238.02,174738.89 -1470.89,7563.282 -3175.79,12690.712 -5231.33,15732.925 -1418.6,2099.522 -2328.57,2683.184 -4183.41,2683.184 -3213.61,0 -7779.0499,-7009.171 -12889.8999,-19789.479 -21405.6301,-47891.28 -60684.5601,-69461.27 -98451.6501,-104980.73 -2120.3,-2926.02 -4131.002,-7062.62 -4976.202,-10237.72 -808.4,-3036.56 -777.2,-12426.04 55.9,-16817.89 1665.702,-8781.36 1644.002,-12543.34 -94.9,-16475.4 -1205,-2724.77 -2245.3,-3958.65 -4640.5,-5504.1 -1424.8,-919.35 -2223.3,-1106.94 -4744.3,-1114.65 -6541.6,-20.13 -12193.3,4610.5 -16775.2,13744.07 -3317,6612.11 -4578.8,10544.85 -6366.4,19842.97 -2595.2,50499.91 27178.4,85218.68 62109.282,115636.03 18683.1,14310.647 22651.73,17625.675 30470.69,25452.607 6966.22,6973.238 9743.75,10517.568 11805.28,15064.119 3729.27,8224.763 -261.85,15740.077 -9387.33,17676.295 -3224.36,684.137 -10876.34,595.997 -15340.96,-176.752 -9584.38,-1658.863 -19566.38,-4814.27 -35924.68,-11356.186 -58280.682,-27789.163 -92866.882,-25559.79 -142512.482,6656.567 -6554.4,8460.36 -10232.2,19165.13 -10301.5,29984.122 -63.9,9969.967 2867.8,15904.365 9460.3,19149.883 2464.2,1213.1079 3304.5,1407.6334 6080.5,1407.6334 3991.2,0 6286.4,-1067.1924 12857.4,-5978.4254 5474.6,-4091.802 8723.2,-5671.947 13305.2,-6471.849 48272.4,8884.241 93639.2,8684.257 128254.132,47941.67 2754.28,7706.156 2818.27,13971.659 197.74,19366.979 -69409.272,16733.891 -119677.172,-21321.743 -188164.872,21281.398 -10961.1,9390.973 -17467.7,20132.361 -17569,29003.357 -37.3,3280.294 85,3870.038 1238.4,5961.932 3129.1,5675.25 11878.5,8556.04 19061.5,6276.09 1291.2,-409.87 6202.3,-2654.58 10913.4,-4988.33 5122.8,-2537.7 10081.2,-4672.336 12336.4,-5311.032 48885.7,1094.135 91670.2,27355.392 143624.102,27390.062 1752.03,-588.12 5634.53,-2408.57 8627.71,-4045.42 6650.87,-3637.01 8533.72,-4325.09 11906.4,-4350.95 4057.45,-31.27 7143.13,1800.45 9961.05,5912.59 913.23,1332.69 2976.77,6360.41 3308.09,8060.01 91.83,471.11 392.27,1916.56 667.65,3212.11 836.73,3936.55 619.68,14972.64 -387.42,19700.95 -2666.06,12516.83 -5856.45,15267.04 -19637.44,16927.92 -64224.942,910.73 -108209.342,1593.12 -166925.242,24024.45 -13211.2,4470.75 -17878.5,6776.75 -22482.5,11107.79 -7841,7376.29 -9610.2,17212.85 -4353.9,24208.31 55528.3,25579.75 132210.4,12664.64 196882.572,17295.08 8359.16,2647.9 8799.69,6667.41 1350.5,12322.01 -57156.872,30213.79 -105481.372,44480.53 -165711.372,81673.25 -6959.9,6940.09 -9870.4,12545.14 -9911,19086.97 -32.1,5153.6 1101.2,7725.77 5199.4,11803.01 2459.2,2446.69 4195.5,3717.28 7108.6,5202.04 55052.6,16835.91 111934.5,-1386.71 157061.202,-31804.19 13732.47,-12007.43 20485.48,-15564.91 28070.99,-14787.75 13270.6,1359.58 26205.99,17635.48 29454.08,37060.41 1719.46,10283.29 -642.73,18138.06 -7707.44,25628.67 -43857.68,18992.25 -82990.032,52316.9 -114772.032,87000.73 -2778.3,3634.53 -6545.6,8356.33 -8371.7,10492.9 -4802.4,5618.63 -8015.3,10227.41 -10022.8,14377.5 -1641.3,3392.98 -1760.7,3887.81 -1755.9,7280.79 6,4246.15 813.5,6194.66 3808.1,9189.25 3777.5,3777.53 8898.4,5859.28 18953.1,7704.87 46871.102,7266.35 92087.292,-16312.4 126918.052,-36366.67 7086.8201,-5664.93 10891.4201,-9436.63 16307.5501,-16166.48 6701.92,-8327.5 10332.6799,-11895.86 13881.3799,-13642.91 3088.42,-1520.4 4816.41,-1499.41 6828.17,83.05 4085.55,3213.69 5880.52,14429.53 3726.91,23287.85 -1159.91,4771.14 -4253.48,11199.69 -7831.77,16274.7 -53081.17,58344.02 -119039.692,68793.29 -178990.192,107723.83 -3813.6,3749.73 -6733.3,7834.98 -8562.7,11980.88 -894.5,2027.27 -1039.4,3012.06 -1039.6,7066.64 -0.1,4344.32 97.9,4911.15 1258.5,7280.79 1529.4,3122.94 4844.5,6527.61 7735.3,7944.41 1730.1,847.91 2799.6,1049.5 5567.7,1049.5 5061.6,0 6881.9,-1044.28 14455.3,-8293.2 51737.922,-6899.04 105864.462,6594.92 160497.692,-18258.29 14151.2,-8431.92 23744.88,-12636.27 28834.02,-12636.27 2048.47,0 2488.27,152.42 3256.01,1128.48 2405.18,3057.67 -489.96,9761.69 -7010.93,16234.69 -49576.9099,39232.32 -107335.85,57176.35 -164965.492,73627.56 -5271.9,2483.22 -8739.8,4892.56 -12618.2,8766.33 -6802.9,6794.77 -8747.1,13620.25 -5701.6,20016.38 2584.8,5428.64 9490.9,8723.67 17087.4,8152.85 1648.9,-123.9 5118,-813.9 7709.1,-1533.37 56496.772,-12387.15 109442.8121,-14141.29 165102.532,-30546.29 16204.5,-6433.3 28485.9,-13968.74 41586.65,-25516.12 6593.35,-5811.61 10026.278,-6945.57 13033.508,-4305.17 2592.9,2276.62 4874.05,7621.4 5727.96,13420.89 761.87,5174.03 1508.71,18939.47 1487.12,27410.02 -17.56,6971.7 -153.92,8628.16 -950.74,11563.61 -1328.83,4895.08 -3094.12,8218.63 -6118.3,11519.01 -49232.398,22786.08 -102951.7279,44058.11 -151983.498,74829.96 -12123.88,9053.53 -21434.46,20692.3 -23145.19,28932.74 -698.96,3367.06 -315.04,8353.76 884.62,11489.64 1305.65,3412.93 5268.8,7457.88 8338.81,8510.94 4604.02,1579.2 10186.25,1305.87 16702.98,-817.89 56787.1,-24753.1 107466.29,-35249.84 164608.418,-43282.66 17643.58,-2805.88 30536.65,-7356.42 43110.95,-15215.77 6182.2,-3864.13 8074.05,-4657.09 11110.57,-4657.09 4194.67,0 4738.55,2126.89 1935.4,7568.68 -4299.47,8346.73 -13021.08,17684.04 -26753.8,28642.53 C 100778.7,863335.99 59188.392,887724.06 23633.222,933854 c -2687.47,5120.57 -5331.34,12431.47 -5751.14,15903.25 -1090.83,9020.89 1049.94,16657.24 5889.39,21008.37 2468.01,2218.92 5244.86,3189.54 9125.14,3189.54 5236.25,0 10063.03,-2244.84 16261.42,-7562.85 48352.08,-40538.5 110614.028,-61595.54 157588.248,-75215.59 l 17987.82,-5196.6 4711.1,-18.41 c 4036.94,-15.85 4959.46,114.52 6446.58,910.7 5247.3,2809.22 9543.18,8786.62 16420.65,22848.05 6819.96,13943.82 8346.61,19302.95 7342.42,25775.05 -57673.33,20619.75 -90705.89,40850.75 -106860.87,116406.89 1249.56,11360.1 8318.73,17265.2 17334.23,14479.5 5186.87,-1602.7 9440.26,-4738.3 19188.12,-14145.6 23843.68,-23010.7 49247.8,-42653.8 82983.36,-64164.64 7387.43,-4710.45 9327.46,-5626.85 12441.92,-5876.83 2185.05,-175.39 3030.4,-30.41 4955.05,850.9 5992.26,2743.36 11286.59,11450.41 11790.25,19390.17 359.28,5664 -1550.21,11075.9 -6365.51,18041.5 -18236.08,16580.5 -27461.7,30692.4 -40640.1,48432.5 -1238.17,3649.3 -1422.11,4747.3 -1419.76,8475.3 0,3287.2 203.86,4789.9 868.04,6464.5 1915.58,4829.5 5790.33,8717.6 10500.14,10536.3 3206.24,1238 9146.38,1518.1 12768.87,602.2 17576.13,-7130.8 28241.08,-20700.4 41971.59,-33781.9 6224.22,-4342.3 12860.27,-6742.6 18591.7,-6724.8 5250.26,16.3 7279.42,1387.2 13334.98,9009.3 2172.16,2734.1 5310.13,6189.4 6973.28,7678.5 2535.42,2270 2995.01,2886.9 2845.37,3819.2 -8086.66,59989.4 -26875.34,106956.2 -49652.05,160004.3 -1552.56,3471.3 -6816.61,16456.1 -8594.54,21199.9 -1103.51,2944.5 -2464.93,6536 -3025.34,7981.3 -1491.44,3846.3 -2017.72,6796.8 -1787.17,10019.3 546.14,7632.7 7270.72,12947.2 15112.73,11943.5 z m 284369.9,-444939.15 c -21275.27,-20424.58 -36728.05,-31051.92 -64092.07,-44077.97 -18808.76,-8953.49 -23096.88,-14408.17 -14776.53,-18796.34 2176.53,-1147.92 2332.98,-1165.53 11628.4,-1306 30020.57,-1446.95 60074.35,2983.73 88941.53,8174.52 l 3224.83,961.79 -2298.29,10921.18 c -3401.62,16164.08 -11294,50006.63 -12376.52,53070.6 -246.73,698.32 229.6,1114.05 -10251.35,-8947.78 z m 15846.42,-110361.27 c -1884.44,-1188.01 -4287.14,-2699.16 -5339.3,-3358.03 l -1913.05,-1197.95 1913.05,-588.71 c 8582.2,-2641.05 11854.62,-2730.6 15308.97,-418.86 3472.42,2323.81 6051.06,8094.95 6794.34,15206.01 l 280.27,2681.68 -6808.99,-5082.03 c -3744.98,-2795.1 -8350.85,-6054.06 -10235.29,-7242.11 z M 489902.99,685705.25 c -2714.66,-2921.74 -4571.13,-6342.98 -6290.98,-11593.5 -10833.04,-12549.64 7180.76,-16078.67 7513.21,-16823.07 39591.98,-12907.23 74948.09,-3291.3 109628.9,7210.8 4724.33,7126.82 7380.66,13727.16 6812.8,16928.09 -438.69,2472.77 -1902.73,4636.75 -4205.73,6216.38 -43979.26,16420.14 -70865.84,13009.7 -113458.2,-1938.7 z m -26039.65,-96271.54 c -6134.74,-1638.9 -10939.46,-4729.81 -14353.25,-9233.53 -3772.56,-4977.11 -6839.96,-12835.9 -7649.37,-19598 l -289.3,-2417 5504.23,-282.5 c 56536.64,-8341.61 123054.97,-26281.45 117071.57,23815.8 0,3428.73 -914.76,6037.14 -2511.31,7160.87 -1055.12,742.68 -1409.6,757.8 -5411.9,231.18 -34786.75,-3625.26 -62276.74,-461.52 -92360.67,323.18 z M 360272.36,360549.03 c -2223.72,-1123.39 -3649.69,-3056.78 -4064.22,-5510.4 -305.92,-1810.61 33.41,-5819.66 561.65,-6636.78 218.55,-338.09 2277.6,-298.39 7369.95,142.06 3912.61,338.43 13214.72,645.03 20841.47,686.96 7576.17,41.54 13743.42,96.36 13705.01,121.5 -292.6,191.75 -19421.5,8443.88 -21269.75,9175.72 -3862.46,1529.35 -9888.51,2941.01 -12650.62,2963.5 -1862.9,14.99 -3119.43,-248.41 -4493.49,-942.56 z m -71742.85,-96284.21 c -6067.85,-9127.28 -7732.46,-19649.26 -4563.26,-28843.78 3210.57,-9314.57 11414.82,-19106.93 24259.5,-28955.48 1836.68,-1408.28 3579.57,-2560.52 3873.07,-2560.52 293.55,0 5040.11,1709.48 10547.94,3798.85 18941.35,7185.24 29652.24,10563.1 40850.56,12882.88 9205.91,1907.1 12133.86,2248.53 21761.2,2537.53 l 8912.75,267.55 -6654.89,5685.01 c -3660.18,3126.71 -11018.87,9679.42 -16352.61,14561.57 -5333.73,4882.11 -10553.88,9624.82 -11600.34,10539.33 l -1902.64,1662.76 -12928.15,2058.49 c -12993.64,2068.94 -37435.32,6334.2 -47404.82,8272.56 -2944.43,572.48 -5675.97,1058.5 -6070.12,1080 -435.09,23.55 -1506.82,-1149.51 -2728.19,-2986.75 z m -66389,-141256.22 c -2275.41,-1033.53 -4656.53,-3862.55 -5373.22,-6383.88 -319.84,-1125.27 -550.85,-3814.45 -522.71,-6085.07 193.49,-15616.475 10847.6,-31644.571 31163.35,-46882.102 13866.81,-10400.647 31261.98,-18067.273 50900.91,-22433.732 l 3764.86,-837.076 3730.07,2560.653 c 54335.41,35614.28 101636.97,13400.636 153880.66,18861.478 9829.28,6563.758 16475.43,25576.505 12923.61,36970.808 -2319.4,7440.751 -7695.41,12283.291 -15959.48,14375.661 -2570.29,650.77 -17835.7,705.72 -18474.91,66.51 -189.56,-189.56 -37.69,-1304.25 337.01,-2477.05 374.96,-1172.85 705.3,-3770.59 734.12,-5772.81 43.3,-3006.07 -120.05,-3991.59 -937.34,-5655.931 -1754.5,-3572.81 -5457.8,-6042.839 -11572.59,-7718.705 -6255.48,-1714.411 -37282.51,-1534.961 -58954.11,340.955 -16469.4,1425.621 -38253.55,4515.03 -51189.03,7259.544 -1761.82,373.805 -4745.14,778.574 -6629.58,899.477 -18633.33,1195.51 -42697.02,6726.98 -61244.26,14078.13 -5903.78,2339.96 -18038.06,7892.72 -19527.54,8936.01 -1349.47,945.22 -4854.96,894.04 -7049.82,-102.87 z M 200322.05,3884.5571 C 193224.32,2616.8436 189147.97,55.205777 187265.63,-4320.4187 c -851.33,-1978.9607 -942.52,-2760.0607 -764.01,-6543.8853 548.2,-11621.935 9260.69,-26648.537 22171.92,-38240.364 7080.05,-6356.555 18335.94,-14602.817 19201.88,-14067.594 767.65,474.408 5222.38,8406.397 9279.4,16522.633 6244.69,12492.759 13473.83,25846.536 18669.44,34486.604 l 4635.8,7709.0681 -1189.38,504.9011 c -2311.48,981.1503 -14059.32,4043.663483 -20189.15,5263.024 -5428.64,1079.8264 -14164.77,2291.6491 -19486.81,2703.0136 -4633.92,358.1719 -17001.49,273.2008 -19272.67,-132.4247 z M 440373.86,-37912.642 c -2944.44,-358.472 -9786.24,-1412.344 -15204,-2341.972 -5417.76,-929.628 -13010.72,-2164.707 -16873.22,-2744.6 -3862.5,-579.893 -7058.29,-1106.251 -7101.76,-1169.637 -43.47,-63.429 -313.76,-1703.062 -600.63,-3643.649 -19268.77,-27612.026 -23093.97,-17997.419 -48446.39,-5915.81 -7655.53,5004.384 -15755.71,10276.274 -18000.37,11715.343 l -4081.27,2616.458 -4270.22,-878.877 c -10177,-2094.682 -23399.98,-7791.813 -33179.27,-14295.354 -9806.37,-6521.53 -20353.1,-15947.365 -28359.61,-25345.533 l -3305.13,-3879.632 2659.71,-2086.459 c 10940.97,-8583.02 19796.84,-21822.106 28369.76,-42411.446 3189.58,-7660.41 3937.79,-8939.09 9591.15,-16392.17 2220.85,-2927.82 4748.23,-6538.83 5616.35,-8024.46 l 1578.43,-2701.13 2949.66,3527.5 c 46503.21,59966.189 125927.01,68038.073 172386.58,91958.482 -26.13,11937.621 -10076.61,20996.034 -25175.85,22690.916 -4093.85,459.546 -11404.45,192.426 -18553.92,-677.97 z"
                                   id="path28106"
                                   sodipodi:nodetypes="sccssssssssssssssssssssccsssssssccccscccsscccccccscsccsccsccccssccsccssccccssssssccccccssssccssssccsssssccssccsccsccssssccssscccssssssccsssccssssssccssccssccssssccssccssssssccsssccssssccsssccsssssccssscccccssssssssssssssssccssssssccssccssccssssssccssssccssssccccssssccssssssccsccccssccssccssssccssssccsssssccssccsssccsssssccsssccsssccssscccsssccsssssscccssccsssccsssssssscccssssscssscssccccscccsscccsccsssssssssssssssscssscssssssssscccsssssssssssssssssssscssssssssccscssscsssscccss" /></g></g></g></g></g></g></g></g></g></g></g></g></g></g></g></g></g></g></g></g></g></g></g></g></g></g></g></g></g></g></g></g></g></g></g></g></g></g></g></g></g></g></g></g></g></g></g></g></g></g></g></g></g></g></g></g></g></g></g></g></g></g></g></g></g></g></svg>
